<svg xmlns="http://www.w3.org/2000/svg" width="130" height="20" xmlns:xlink="http://www.w3.org/1999/xlink"><defs><linearGradient id="a"><stop offset="0" stop-color="#5f5f5f"/><stop offset="1" stop-color="#4c4c4c"/></linearGradient><linearGradient id="c" x1="615" x2="615" y1="72.52" y2="92.52" xlink:href="#a" gradientUnits="userSpaceOnUse" gradientTransform="matrix(1.244 0 0 1.067 197.333 101.333)"/><linearGradient id="d" x1="615" x2="615" y1="72.52" y2="92.52" xlink:href="#a" gradientUnits="userSpaceOnUse" gradientTransform="matrix(1.244 0 0 1.067 197.333 101.333)"/><linearGradient id="e" x1="400" x2="400" y1="-2.48" y2="17.52" xlink:href="#b" gradientUnits="userSpaceOnUse" gradientTransform="matrix(1.067 0 0 1.067 -10.667 37.333)"/><linearGradient id="b"><stop offset="0" stop-color="#4f81bd"/><stop offset="1" stop-color="#376092"/></linearGradient><linearGradient id="f" x1="404.621" x2="404.621" y1="-2.48" y2="17.52" xlink:href="#b" gradientUnits="userSpaceOnUse" gradientTransform="matrix(1.083 0 0 1.067 -22.236 37.333)"/></defs><g><g><g transform="matrix(.938 0 0 .938 -575.126 87.544)"><rect width="21.333" height="14.933" x="624.207" y="-90.113" fill="#4c6c9c" ry="3.413" rx="3.413" transform="skewX(.172)"/><g transform="translate(-5.333 -202.667)"><rect width="21.333" height="21.333" x="618.667" y="109.354" fill="#4c6c9c" ry="3.413" rx="3.413"/><g fill="#fff" font-weight="bold" font-family="Concourse C7" letter-spacing="0" word-spacing="0"><g style="line-height:0%;-inkscape-font-specification:'Concourse C7, Bold';text-align:start"><path d="M630.43 117.3q0 1.15-.32 2.1-.28.97-.83 1.67-.53.7-1.3 1.12-.74.38-1.65.38h-.95v5h-2.93v-15.5h3.9q1.92 0 3 1.33 1.1 1.34 1.1 3.9zm-2.97 0q0-.9-.4-1.36-.4-.45-1-.45h-.7v3.75h.7q.26 0 .5-.1.26-.15.45-.38.2-.25.34-.6.12-.38.12-.86z" style="line-height:1.25" font-size="1125"/></g><g style="line-height:0%;-inkscape-font-specification:'Concourse C7, Bold';text-align:start"><path d="M630.7 122.92q.64.7 1.38 1.12.77.4 1.47.4t1-.3q.3-.28.3-.7 0-.25-.1-.45-.14-.22-.34-.4-.2-.18-.46-.34-.26-.18-.56-.4-.8-.5-1.4-1.06-.6-.57-1-1.2-.4-.65-.6-1.42-.2-.78-.2-1.76 0-.82.22-1.6.25-.77.72-1.38.47-.62 1.14-.98.68-.4 1.56-.4 1.12 0 2.02.42.92.4 1.74 1.05l-.8 3.76q-.73-.72-1.45-1.06-.7-.34-1.36-.34-.36 0-.62.16-.25.13-.25.6 0 .26.15.5.18.24.46.5.3.24.65.5.37.25.8.54.82.6 1.33 1.2.53.6.8 1.24.3.62.42 1.28.1.64.1 1.28 0 1.25-.35 2.12-.36.86-.94 1.4-.56.56-1.3.78-.7.26-1.43.26-1.2 0-2.25-.46-1.06-.48-1.68-1.2z" style="line-height:1.25" font-size="1125"/></g></g></g></g><g transform="matrix(.938 0 0 .938 -340 -32.52)"><g transform="matrix(.857 0 0 1 -169.143 -10.667)"><rect width="16" height="21.333" x="645.333" y="45.354" fill="url(#c)" ry="3.356" rx="4.072"/><rect width="32" height="21.333" x="650.667" y="45.354" fill="url(#d)" ry="0" rx="4.072"/></g><g font-size="12.8" font-family="sans-serif" letter-spacing="0" word-spacing="0" text-anchor="middle"><text x="402.532" y="-82.519" fill="#393939" style="line-height:0%;-inkscape-font-specification:'sans-serif, Normal';text-align:center" transform="translate(-2.667 133.333)"><tspan x="402.532" y="-82.519" style="line-height:1.25" font-size="11.733">dev</tspan></text><text x="402.532" y="-83.61" fill="#fff" style="line-height:0%;-inkscape-font-specification:'sans-serif, Normal';text-align:center" transform="translate(-2.667 133.333)"><tspan x="402.532" y="-83.61" style="line-height:1.25" font-size="11.733">dev</tspan></text></g><rect width="16" height="21.333" x="485.333" y="34.688" fill="url(#e)" rx="3.49" ry="3.356"/><rect width="81.067" height="21.333" x="414.933" y="34.688" fill="url(#f)" rx="3.49" ry="0"/><g font-size="12.8" font-family="sans-serif" letter-spacing="0" word-spacing="0" text-anchor="middle"><text x="649.607" y="92.39" fill="#244061" style="line-height:0%;-inkscape-font-specification:'sans-serif, Normal';font-variant-ligatures:normal;font-variant-caps:normal;font-variant-numeric:normal;font-feature-settings:normal;text-align:center" transform="translate(-191.121 -41.812)"><tspan x="649.607" y="92.39">d-01-intro</tspan></text><text x="649.607" y="91.323" fill="#fff" style="line-height:0%;-inkscape-font-specification:'sans-serif, Normal';font-variant-ligatures:normal;font-variant-caps:normal;font-variant-numeric:normal;font-feature-settings:normal;text-align:center" transform="translate(-191.121 -41.812)"><tspan x="649.607" y="91.323">d-01-intro</tspan></text></g></g></g></g></svg>
