<svg xmlns="http://www.w3.org/2000/svg" width="130" height="20" xmlns:xlink="http://www.w3.org/1999/xlink"><defs><marker orient="auto" overflow="visible"><path fill="#f15133" fill-rule="evenodd" stroke="#f15133" stroke-width=".4pt" d="M-2.3 0l3.45-2v4z"/></marker><marker orient="auto" overflow="visible"><path fill="#f15133" fill-rule="evenodd" stroke="#f15133" stroke-width=".375" d="M5.23 2.42L-1.32.02 5.23-2.4C4.18-.98 4.2.97 5.23 2.42z" stroke-linejoin="round"/></marker><marker orient="auto" overflow="visible"><path fill-rule="evenodd" stroke="#000" stroke-width=".853pt" d="M-4.92 0l7.38-4.27v8.54z"/></marker><marker orient="auto" overflow="visible"><path fill="#f15133" fill-rule="evenodd" stroke="#f15133" stroke-width=".853pt" d="M-4.92 0l7.38-4.27v8.54z"/></marker><marker orient="auto" overflow="visible"><path fill="#f15133" fill-rule="evenodd" stroke="#f15133" stroke-width=".733" d="M11.4 4.73L-1.42.03 11.4-4.7c-2.04 2.8-2.03 6.6 0 9.43z" stroke-linejoin="round"/></marker><marker orient="auto" overflow="visible"><path fill-rule="evenodd" stroke="#000" stroke-width=".427pt" d="M2.46 0l-3.7 2.13v-4.26z"/></marker><marker orient="auto" overflow="visible"><path fill-rule="evenodd" stroke="#000" stroke-width=".427pt" d="M2.46 0l-3.7 2.13v-4.26z"/></marker><marker orient="auto" overflow="visible"><path fill-rule="evenodd" stroke="#000" stroke-width=".427pt" d="M2.46 0l-3.7 2.13v-4.26z"/></marker><marker orient="auto" overflow="visible"><path fill-rule="evenodd" stroke="#000" stroke-width=".853pt" d="M4.92 0l-7.38 4.27v-8.54z"/></marker><marker orient="auto" overflow="visible"><path fill-rule="evenodd" stroke="#000" stroke-width=".4" d="M-5.58-2.58l7 2.57-7 2.56c1.12-1.52 1.1-3.6 0-5.14z" stroke-linejoin="round"/></marker><marker orient="auto" overflow="visible"><path fill-rule="evenodd" stroke="#000" stroke-width=".427pt" d="M2.46 0l-3.7 2.13v-4.26z"/></marker><marker orient="auto" overflow="visible"><path fill-rule="evenodd" stroke="#000" stroke-width=".853pt" d="M4.92 0l-7.38 4.27v-8.54z"/></marker><marker orient="auto" overflow="visible"><path fill-rule="evenodd" stroke="#000" stroke-width=".733" d="M11.4 4.73L-1.42.03 11.4-4.7c-2.04 2.8-2.03 6.6 0 9.43z" stroke-linejoin="round"/></marker><marker orient="auto" overflow="visible"><path fill-rule="evenodd" stroke="#000" stroke-width=".733" d="M-11.4-4.73L1.42-.03-11.4 4.7c2.04-2.8 2.03-6.6 0-9.43z" stroke-linejoin="round"/></marker><linearGradient><stop offset="0" stop-color="#4c4c4c"/><stop offset="1" stop-color="#656565"/></linearGradient><linearGradient><stop offset="0" stop-color="#4c4c4c"/><stop offset="1" stop-color="#656565"/></linearGradient><linearGradient><stop offset="0" stop-color="#4c4c4c"/><stop offset="1" stop-color="#656565"/></linearGradient><linearGradient><stop offset="0" stop-color="#4c4c4c"/><stop offset="1" stop-color="#656565"/></linearGradient><linearGradient><stop offset="0" stop-color="#4c4c4c"/><stop offset="1" stop-color="#656565"/></linearGradient><linearGradient><stop offset="0" stop-color="#4c4c4c"/><stop offset="1" stop-color="#656565"/></linearGradient><linearGradient><stop offset="0" stop-color="#4c4c4c"/><stop offset="1" stop-color="#656565"/></linearGradient><linearGradient><stop offset="0" stop-color="#4c4c4c"/><stop offset="1" stop-color="#656565"/></linearGradient><linearGradient><stop offset="0" stop-color="#4c4c4c"/><stop offset="1" stop-color="#656565"/></linearGradient><linearGradient><stop offset="0" stop-color="#4c4c4c"/><stop offset="1" stop-color="#656565"/></linearGradient><linearGradient><stop offset="0" stop-color="#4c4c4c"/><stop offset="1" stop-color="#656565"/></linearGradient><linearGradient><stop offset="0" stop-color="#4c4c4c"/><stop offset="1" stop-color="#656565"/></linearGradient><linearGradient><stop offset="0" stop-color="#4c4c4c"/><stop offset="1" stop-color="#656565"/></linearGradient><linearGradient><stop offset="0" stop-color="#4c4c4c"/><stop offset="1" stop-color="#656565"/></linearGradient><linearGradient><stop offset="0" stop-color="#4c4c4c"/><stop offset="1" stop-color="#656565"/></linearGradient><linearGradient><stop offset="0" stop-color="#4c4c4c"/><stop offset="1" stop-color="#656565"/></linearGradient><linearGradient><stop offset="0" stop-color="#4c4c4c"/><stop offset="1" stop-color="#656565"/></linearGradient><linearGradient><stop offset="0" stop-color="#4c4c4c"/><stop offset="1" stop-color="#656565"/></linearGradient><linearGradient><stop offset="0" stop-color="#4c4c4c"/><stop offset="1" stop-color="#656565"/></linearGradient><linearGradient><stop offset="0" stop-color="#4c4c4c"/><stop offset="1" stop-color="#656565"/></linearGradient><linearGradient><stop offset="0" stop-color="#4c4c4c"/><stop offset="1" stop-color="#656565"/></linearGradient><linearGradient><stop offset="0" stop-color="#4c4c4c"/><stop offset="1" stop-color="#656565"/></linearGradient><linearGradient><stop offset="0" stop-color="#4c4c4c"/><stop offset="1" stop-color="#656565"/></linearGradient><linearGradient><stop offset="0" stop-color="#4c4c4c"/><stop offset="1" stop-color="#656565"/></linearGradient><linearGradient><stop offset="0" stop-color="#4c4c4c"/><stop offset="1" stop-color="#656565"/></linearGradient><linearGradient><stop offset="0" stop-color="#4c4c4c"/><stop offset="1" stop-color="#656565"/></linearGradient><linearGradient><stop offset="0" stop-color="#4c4c4c"/><stop offset="1" stop-color="#656565"/></linearGradient><linearGradient><stop offset="0" stop-color="#4c4c4c"/><stop offset="1" stop-color="#656565"/></linearGradient><linearGradient><stop offset="0" stop-color="#4c4c4c"/><stop offset="1" stop-color="#656565"/></linearGradient><linearGradient><stop offset="0" stop-color="#4c4c4c"/><stop offset="1" stop-color="#656565"/></linearGradient><linearGradient><stop offset="0" stop-color="#4c4c4c"/><stop offset="1" stop-color="#656565"/></linearGradient><linearGradient><stop offset="0" stop-color="#4c4c4c"/><stop offset="1" stop-color="#656565"/></linearGradient><linearGradient><stop offset="0" stop-color="#4c4c4c"/><stop offset="1" stop-color="#656565"/></linearGradient><linearGradient><stop offset="0" stop-color="#4c4c4c"/><stop offset="1" stop-color="#656565"/></linearGradient><linearGradient><stop offset="0" stop-color="#4c4c4c"/><stop offset="1" stop-color="#656565"/></linearGradient><linearGradient><stop offset="0" stop-color="#4c4c4c"/><stop offset="1" stop-color="#656565"/></linearGradient><linearGradient><stop offset="0" stop-color="#4c4c4c"/><stop offset="1" stop-color="#656565"/></linearGradient><linearGradient><stop offset="0" stop-color="#4c4c4c"/><stop offset="1" stop-color="#656565"/></linearGradient><linearGradient><stop offset="0" stop-color="#4c4c4c"/><stop offset="1" stop-color="#656565"/></linearGradient><linearGradient><stop offset="0" stop-color="#4c4c4c"/><stop offset="1" stop-color="#656565"/></linearGradient><linearGradient><stop offset="0" stop-color="#4c4c4c"/><stop offset="1" stop-color="#656565"/></linearGradient><linearGradient><stop offset="0" stop-color="#4c4c4c"/><stop offset="1" stop-color="#656565"/></linearGradient><linearGradient><stop offset="0" stop-color="#4c4c4c"/><stop offset="1" stop-color="#656565"/></linearGradient><linearGradient><stop offset="0" stop-color="#4c4c4c"/><stop offset="1" stop-color="#656565"/></linearGradient><linearGradient><stop offset="0" stop-color="#4c4c4c"/><stop offset="1" stop-color="#656565"/></linearGradient><linearGradient><stop offset="0" stop-color="#4c4c4c"/><stop offset="1" stop-color="#656565"/></linearGradient><linearGradient><stop offset="0" stop-color="#4c4c4c"/><stop offset="1" stop-color="#656565"/></linearGradient><linearGradient><stop offset="0" stop-color="#4c4c4c"/><stop offset="1" stop-color="#656565"/></linearGradient><linearGradient><stop offset="0" stop-color="#4c4c4c"/><stop offset="1" stop-color="#656565"/></linearGradient><linearGradient><stop offset="0" stop-color="#4c4c4c"/><stop offset="1" stop-color="#656565"/></linearGradient><linearGradient><stop offset="0" stop-color="#4c4c4c"/><stop offset="1" stop-color="#656565"/></linearGradient><linearGradient><stop offset="0" stop-color="#4c4c4c"/><stop offset="1" stop-color="#656565"/></linearGradient><linearGradient><stop offset="0" stop-color="#4c4c4c"/><stop offset="1" stop-color="#656565"/></linearGradient><linearGradient><stop offset="0" stop-color="#4c4c4c"/><stop offset="1" stop-color="#656565"/></linearGradient><linearGradient><stop offset="0" stop-color="#4c4c4c"/><stop offset="1" stop-color="#656565"/></linearGradient><linearGradient><stop offset="0" stop-color="#4c4c4c"/><stop offset="1" stop-color="#656565"/></linearGradient><linearGradient><stop offset="0" stop-color="#4c4c4c"/><stop offset="1" stop-color="#656565"/></linearGradient><linearGradient><stop offset="0" stop-color="#4c4c4c"/><stop offset="1" stop-color="#656565"/></linearGradient><linearGradient><stop offset="0" stop-color="#4c4c4c"/><stop offset="1" stop-color="#656565"/></linearGradient><linearGradient><stop offset="0" stop-color="#4c4c4c"/><stop offset="1" stop-color="#656565"/></linearGradient><linearGradient><stop offset="0" stop-color="#4c4c4c"/><stop offset="1" stop-color="#656565"/></linearGradient><linearGradient><stop offset="0" stop-color="#4c4c4c"/><stop offset="1" stop-color="#656565"/></linearGradient><linearGradient><stop offset="0" stop-color="#4c4c4c"/><stop offset="1" stop-color="#656565"/></linearGradient><linearGradient><stop offset="0" stop-color="#4c4c4c"/><stop offset="1" stop-color="#656565"/></linearGradient><linearGradient><stop offset="0" stop-color="#4c4c4c"/><stop offset="1" stop-color="#656565"/></linearGradient><linearGradient><stop offset="0" stop-color="#4c4c4c"/><stop offset="1" stop-color="#656565"/></linearGradient><linearGradient><stop offset="0" stop-color="#4c4c4c"/><stop offset="1" stop-color="#656565"/></linearGradient><linearGradient><stop offset="0" stop-color="#4c4c4c"/><stop offset="1" stop-color="#656565"/></linearGradient><linearGradient><stop offset="0" stop-color="#4c4c4c"/><stop offset="1" stop-color="#656565"/></linearGradient><linearGradient><stop offset="0" stop-color="#4c4c4c"/><stop offset="1" stop-color="#656565"/></linearGradient><linearGradient><stop offset="0" stop-color="#4c4c4c"/><stop offset="1" stop-color="#656565"/></linearGradient><linearGradient><stop offset="0" stop-color="#4c4c4c"/><stop offset="1" stop-color="#656565"/></linearGradient><linearGradient><stop offset="0" stop-color="#4c4c4c"/><stop offset="1" stop-color="#656565"/></linearGradient><linearGradient><stop offset="0" stop-color="#4c4c4c"/><stop offset="1" stop-color="#656565"/></linearGradient><linearGradient><stop offset="0" stop-color="#4c4c4c"/><stop offset="1" stop-color="#656565"/></linearGradient><linearGradient><stop offset="0" stop-color="#4c4c4c"/><stop offset="1" stop-color="#656565"/></linearGradient><linearGradient><stop offset="0" stop-color="#4c4c4c"/><stop offset="1" stop-color="#656565"/></linearGradient><linearGradient><stop offset="0" stop-color="#4c4c4c"/><stop offset="1" stop-color="#656565"/></linearGradient><linearGradient><stop offset="0" stop-color="#4c4c4c"/><stop offset="1" stop-color="#656565"/></linearGradient><linearGradient><stop offset="0" stop-color="#4c4c4c"/><stop offset="1" stop-color="#656565"/></linearGradient><linearGradient><stop offset="0" stop-color="#4c4c4c"/><stop offset="1" stop-color="#656565"/></linearGradient><linearGradient><stop offset="0" stop-color="#4c4c4c"/><stop offset="1" stop-color="#656565"/></linearGradient><linearGradient><stop offset="0" stop-color="#4c4c4c"/><stop offset="1" stop-color="#656565"/></linearGradient><linearGradient><stop offset="0" stop-color="#4c4c4c"/><stop offset="1" stop-color="#656565"/></linearGradient><linearGradient><stop offset="0" stop-color="#4c4c4c"/><stop offset="1" stop-color="#656565"/></linearGradient><linearGradient><stop offset="0" stop-color="#4c4c4c"/><stop offset="1" stop-color="#656565"/></linearGradient><linearGradient><stop offset="0" stop-color="#4c4c4c"/><stop offset="1" stop-color="#656565"/></linearGradient><linearGradient><stop offset="0" stop-color="#4c4c4c"/><stop offset="1" stop-color="#656565"/></linearGradient><linearGradient><stop offset="0" stop-color="#4c4c4c"/><stop offset="1" stop-color="#656565"/></linearGradient><linearGradient><stop offset="0" stop-color="#4c4c4c"/><stop offset="1" stop-color="#656565"/></linearGradient><linearGradient><stop offset="0" stop-color="#4c4c4c"/><stop offset="1" stop-color="#656565"/></linearGradient><linearGradient><stop offset="0" stop-color="#4c4c4c"/><stop offset="1" stop-color="#656565"/></linearGradient><linearGradient><stop offset="0" stop-color="#4c4c4c"/><stop offset="1" stop-color="#656565"/></linearGradient><linearGradient><stop offset="0" stop-color="#4c4c4c"/><stop offset="1" stop-color="#656565"/></linearGradient><linearGradient><stop offset="0" stop-color="#4c4c4c"/><stop offset="1" stop-color="#656565"/></linearGradient><linearGradient><stop offset="0" stop-color="#4c4c4c"/><stop offset="1" stop-color="#656565"/></linearGradient><linearGradient><stop offset="0" stop-color="#4c4c4c"/><stop offset="1" stop-color="#656565"/></linearGradient><linearGradient><stop offset="0" stop-color="#4c4c4c"/><stop offset="1" stop-color="#656565"/></linearGradient><linearGradient><stop offset="0" stop-color="#4c4c4c"/><stop offset="1" stop-color="#656565"/></linearGradient><linearGradient><stop offset="0" stop-color="#4c4c4c"/><stop offset="1" stop-color="#656565"/></linearGradient><linearGradient><stop offset="0" stop-color="#4c4c4c"/><stop offset="1" stop-color="#656565"/></linearGradient><linearGradient><stop offset="0" stop-color="#4c4c4c"/><stop offset="1" stop-color="#656565"/></linearGradient><linearGradient><stop offset="0" stop-color="#4c4c4c"/><stop offset="1" stop-color="#656565"/></linearGradient><linearGradient><stop offset="0" stop-color="#4c4c4c"/><stop offset="1" stop-color="#656565"/></linearGradient><linearGradient><stop offset="0" stop-color="#4c4c4c"/><stop offset="1" stop-color="#656565"/></linearGradient><linearGradient><stop offset="0" stop-color="#4c4c4c"/><stop offset="1" stop-color="#656565"/></linearGradient><linearGradient><stop offset="0" stop-color="#4c4c4c"/><stop offset="1" stop-color="#656565"/></linearGradient><linearGradient><stop offset="0" stop-color="#4c4c4c"/><stop offset="1" stop-color="#656565"/></linearGradient><linearGradient><stop offset="0" stop-color="#4c4c4c"/><stop offset="1" stop-color="#656565"/></linearGradient><linearGradient><stop offset="0" stop-color="#4c4c4c"/><stop offset="1" stop-color="#656565"/></linearGradient><linearGradient><stop offset="0" stop-color="#4c4c4c"/><stop offset="1" stop-color="#656565"/></linearGradient><linearGradient><stop offset="0" stop-color="#4c4c4c"/><stop offset="1" stop-color="#656565"/></linearGradient><linearGradient><stop offset="0" stop-color="#4c4c4c"/><stop offset="1" stop-color="#656565"/></linearGradient><linearGradient><stop offset="0" stop-color="#4c4c4c"/><stop offset="1" stop-color="#656565"/></linearGradient><linearGradient><stop offset="0" stop-color="#4c4c4c"/><stop offset="1" stop-color="#656565"/></linearGradient><linearGradient><stop offset="0" stop-color="#4c4c4c"/><stop offset="1" stop-color="#656565"/></linearGradient><linearGradient><stop offset="0" stop-color="#4c4c4c"/><stop offset="1" stop-color="#656565"/></linearGradient><linearGradient><stop offset="0" stop-color="#4c4c4c"/><stop offset="1" stop-color="#656565"/></linearGradient><linearGradient><stop offset="0" stop-color="#4c4c4c"/><stop offset="1" stop-color="#656565"/></linearGradient><linearGradient><stop offset="0" stop-color="#4c4c4c"/><stop offset="1" stop-color="#656565"/></linearGradient><linearGradient><stop offset="0" stop-color="#4c4c4c"/><stop offset="1" stop-color="#656565"/></linearGradient><linearGradient><stop offset="0" stop-color="#4c4c4c"/><stop offset="1" stop-color="#656565"/></linearGradient><linearGradient><stop offset="0" stop-color="#4c4c4c"/><stop offset="1" stop-color="#656565"/></linearGradient><linearGradient><stop offset="0" stop-color="#4c4c4c"/><stop offset="1" stop-color="#656565"/></linearGradient><linearGradient><stop offset="0" stop-color="#4c4c4c"/><stop offset="1" stop-color="#656565"/></linearGradient><linearGradient><stop offset="0" stop-color="#4c4c4c"/><stop offset="1" stop-color="#656565"/></linearGradient><linearGradient><stop offset="0" stop-color="#4c4c4c"/><stop offset="1" stop-color="#656565"/></linearGradient><linearGradient><stop offset="0" stop-color="#4c4c4c"/><stop offset="1" stop-color="#656565"/></linearGradient><linearGradient><stop offset="0" stop-color="#4c4c4c"/><stop offset="1" stop-color="#656565"/></linearGradient><linearGradient><stop offset="0" stop-color="#4c4c4c"/><stop offset="1" stop-color="#656565"/></linearGradient><linearGradient><stop offset="0" stop-color="#4c4c4c"/><stop offset="1" stop-color="#656565"/></linearGradient><linearGradient><stop offset="0" stop-color="#4c4c4c"/><stop offset="1" stop-color="#656565"/></linearGradient><linearGradient><stop offset="0" stop-color="#4c4c4c"/><stop offset="1" stop-color="#656565"/></linearGradient><linearGradient><stop offset="0" stop-color="#4c4c4c"/><stop offset="1" stop-color="#656565"/></linearGradient><linearGradient><stop offset="0" stop-color="#4c4c4c"/><stop offset="1" stop-color="#656565"/></linearGradient><linearGradient><stop offset="0" stop-color="#4c4c4c"/><stop offset="1" stop-color="#656565"/></linearGradient><linearGradient><stop offset="0" stop-color="#4c4c4c"/><stop offset="1" stop-color="#656565"/></linearGradient><linearGradient><stop offset="0" stop-color="#4c4c4c"/><stop offset="1" stop-color="#656565"/></linearGradient><linearGradient><stop offset="0" stop-color="#4c4c4c"/><stop offset="1" stop-color="#656565"/></linearGradient><linearGradient><stop offset="0" stop-color="#4c4c4c"/><stop offset="1" stop-color="#656565"/></linearGradient><linearGradient><stop offset="0" stop-color="#4c4c4c"/><stop offset="1" stop-color="#656565"/></linearGradient><linearGradient><stop offset="0" stop-color="#4c4c4c"/><stop offset="1" stop-color="#656565"/></linearGradient><linearGradient><stop offset="0" stop-color="#4c4c4c"/><stop offset="1" stop-color="#656565"/></linearGradient><linearGradient><stop offset="0" stop-color="#4c4c4c"/><stop offset="1" stop-color="#656565"/></linearGradient><linearGradient><stop offset="0" stop-color="#4c4c4c"/><stop offset="1" stop-color="#656565"/></linearGradient><linearGradient><stop offset="0" stop-color="#4c4c4c"/><stop offset="1" stop-color="#656565"/></linearGradient><linearGradient><stop offset="0" stop-color="#4c4c4c"/><stop offset="1" stop-color="#656565"/></linearGradient><linearGradient><stop offset="0" stop-color="#4c4c4c"/><stop offset="1" stop-color="#656565"/></linearGradient><linearGradient><stop offset="0" stop-color="#4c4c4c"/><stop offset="1" stop-color="#656565"/></linearGradient><linearGradient><stop offset="0" stop-color="#4c4c4c"/><stop offset="1" stop-color="#656565"/></linearGradient><linearGradient><stop offset="0" stop-color="#4c4c4c"/><stop offset="1" stop-color="#656565"/></linearGradient><linearGradient><stop offset="0" stop-color="#4c4c4c"/><stop offset="1" stop-color="#656565"/></linearGradient><linearGradient><stop offset="0" stop-color="#4c4c4c"/><stop offset="1" stop-color="#656565"/></linearGradient><linearGradient><stop offset="0" stop-color="#4c4c4c"/><stop offset="1" stop-color="#656565"/></linearGradient><linearGradient><stop offset="0" stop-color="#4c4c4c"/><stop offset="1" stop-color="#656565"/></linearGradient><linearGradient><stop offset="0" stop-color="#4c4c4c"/><stop offset="1" stop-color="#656565"/></linearGradient><linearGradient><stop offset="0" stop-color="#4c4c4c"/><stop offset="1" stop-color="#656565"/></linearGradient><linearGradient><stop offset="0" stop-color="#4c4c4c"/><stop offset="1" stop-color="#656565"/></linearGradient><linearGradient><stop offset="0" stop-color="#4c4c4c"/><stop offset="1" stop-color="#656565"/></linearGradient><linearGradient><stop offset="0" stop-color="#4c4c4c"/><stop offset="1" stop-color="#656565"/></linearGradient><linearGradient><stop offset="0" stop-color="#4c4c4c"/><stop offset="1" stop-color="#656565"/></linearGradient><linearGradient><stop offset="0" stop-color="#4c4c4c"/><stop offset="1" stop-color="#656565"/></linearGradient><linearGradient><stop offset="0" stop-color="#4c4c4c"/><stop offset="1" stop-color="#656565"/></linearGradient><linearGradient><stop offset="0" stop-color="#4c4c4c"/><stop offset="1" stop-color="#656565"/></linearGradient><linearGradient><stop offset="0" stop-color="#4c4c4c"/><stop offset="1" stop-color="#656565"/></linearGradient><linearGradient><stop offset="0" stop-color="#4c4c4c"/><stop offset="1" stop-color="#656565"/></linearGradient><linearGradient><stop offset="0" stop-color="#4c4c4c"/><stop offset="1" stop-color="#656565"/></linearGradient><linearGradient><stop offset="0" stop-color="#4c4c4c"/><stop offset="1" stop-color="#656565"/></linearGradient><linearGradient><stop offset="0" stop-color="#4c4c4c"/><stop offset="1" stop-color="#656565"/></linearGradient><linearGradient><stop offset="0" stop-color="#4c4c4c"/><stop offset="1" stop-color="#656565"/></linearGradient><linearGradient><stop offset="0" stop-color="#4c4c4c"/><stop offset="1" stop-color="#656565"/></linearGradient><linearGradient><stop offset="0" stop-color="#4c4c4c"/><stop offset="1" stop-color="#656565"/></linearGradient><linearGradient><stop offset="0" stop-color="#4c4c4c"/><stop offset="1" stop-color="#656565"/></linearGradient><linearGradient><stop offset="0" stop-color="#4c4c4c"/><stop offset="1" stop-color="#656565"/></linearGradient><linearGradient><stop offset="0" stop-color="#4c4c4c"/><stop offset="1" stop-color="#656565"/></linearGradient><linearGradient id="a"><stop offset="0" stop-color="#4887d2"/><stop offset="1" stop-color="#71a2dc"/></linearGradient><linearGradient x1="1975.884" x2="3466.778" y1="-5656.661" y2="-6315.289" xlink:href="#a" gradientUnits="userSpaceOnUse"/><linearGradient x1="1975.884" x2="3466.778" y1="-5656.661" y2="-6315.289" xlink:href="#a" gradientUnits="userSpaceOnUse"/><linearGradient x1="1975.884" x2="3466.778" y1="-5656.661" y2="-6315.289" xlink:href="#a" gradientUnits="userSpaceOnUse" gradientTransform="translate(583.61 3916.609)"/><linearGradient x1="1975.884" x2="3466.778" y1="-5656.661" y2="-6315.289" xlink:href="#a" gradientUnits="userSpaceOnUse" gradientTransform="translate(137.304 1781.357)"/><linearGradient x1="1975.884" x2="3466.778" y1="-5656.661" y2="-6315.289" xlink:href="#a" gradientUnits="userSpaceOnUse" gradientTransform="translate(137.304 1781.357)"/><linearGradient x1="1975.884" x2="3466.778" y1="-5656.661" y2="-6315.289" xlink:href="#a" gradientUnits="userSpaceOnUse"/><linearGradient x1="1975.884" x2="3466.778" y1="-5656.661" y2="-6315.289" xlink:href="#a" gradientUnits="userSpaceOnUse"/><linearGradient x1="1975.884" x2="3466.778" y1="-5656.661" y2="-6315.289" xlink:href="#a" gradientUnits="userSpaceOnUse"/><linearGradient x1="1975.884" x2="3466.778" y1="-5656.661" y2="-6315.289" xlink:href="#a" gradientUnits="userSpaceOnUse" gradientTransform="translate(507.231 -1205.157)"/><linearGradient x1="1975.884" x2="3466.778" y1="-5656.661" y2="-6315.289" xlink:href="#a" gradientUnits="userSpaceOnUse" gradientTransform="translate(953.42 929.153)"/><linearGradient x1="1975.884" x2="3466.778" y1="-5656.661" y2="-6315.289" xlink:href="#a" gradientUnits="userSpaceOnUse" gradientTransform="translate(507.231 -1205.157)"/><marker orient="auto" overflow="visible"><path fill-rule="evenodd" stroke="#000" stroke-width=".853pt" d="M4.92 0l-7.38 4.27v-8.54z"/></marker><marker orient="auto" overflow="visible"><path fill-rule="evenodd" stroke="#000" stroke-width=".427pt" d="M2.46 0l-3.7 2.13v-4.26z"/></marker><marker orient="auto" overflow="visible"><path fill-rule="evenodd" stroke="#000" stroke-width=".427pt" d="M2.46 0l-3.7 2.13v-4.26z"/></marker><marker orient="auto" overflow="visible"><path fill-rule="evenodd" stroke="#000" stroke-width=".427pt" d="M2.46 0l-3.7 2.13v-4.26z"/></marker><marker orient="auto" overflow="visible"><path fill-rule="evenodd" stroke="#000" stroke-width=".427pt" d="M2.46 0l-3.7 2.13v-4.26z"/></marker><marker orient="auto" overflow="visible"><path fill-rule="evenodd" stroke="#000" stroke-width=".427pt" d="M2.46 0l-3.7 2.13v-4.26z"/></marker><marker orient="auto" overflow="visible"><path fill-rule="evenodd" stroke="#000" stroke-width=".427pt" d="M2.46 0l-3.7 2.13v-4.26z"/></marker><marker orient="auto" overflow="visible"><path fill-rule="evenodd" stroke="#000" stroke-width=".427pt" d="M2.46 0l-3.7 2.13v-4.26z"/></marker><marker orient="auto" overflow="visible"><path fill-rule="evenodd" stroke="#000" stroke-width=".427pt" d="M2.46 0l-3.7 2.13v-4.26z"/></marker><marker orient="auto" overflow="visible"><path fill-rule="evenodd" stroke="#000" stroke-width=".427pt" d="M2.46 0l-3.7 2.13v-4.26z"/></marker><marker orient="auto" overflow="visible"><path fill-rule="evenodd" stroke="#000" stroke-width=".427pt" d="M2.46 0l-3.7 2.13v-4.26z"/></marker><marker orient="auto" overflow="visible"><path fill-rule="evenodd" stroke="#000" stroke-width=".427pt" d="M2.46 0l-3.7 2.13v-4.26z"/></marker><marker orient="auto" overflow="visible"><path fill-rule="evenodd" stroke="#000" stroke-width=".427pt" d="M2.46 0l-3.7 2.13v-4.26z"/></marker><marker orient="auto" overflow="visible"><path fill-rule="evenodd" stroke="#000" stroke-width=".427pt" d="M2.46 0l-3.7 2.13v-4.26z"/></marker><marker orient="auto" overflow="visible"><path fill-rule="evenodd" stroke="#000" stroke-width=".853pt" d="M4.92 0l-7.38 4.27v-8.54z"/></marker><marker orient="auto" overflow="visible"><path fill-rule="evenodd" stroke="#000" stroke-width=".853pt" d="M4.92 0l-7.38 4.27v-8.54z"/></marker><marker orient="auto" overflow="visible"><path fill="#789440" fill-rule="evenodd" stroke="#789440" stroke-width=".853pt" d="M4.92 0l-7.38 4.27v-8.54z"/></marker><marker orient="auto" overflow="visible"><path fill="#789440" fill-rule="evenodd" stroke="#789440" stroke-width=".853pt" d="M4.92 0l-7.38 4.27v-8.54z"/></marker><marker orient="auto" overflow="visible"><path fill="#ffc000" fill-rule="evenodd" stroke="#ffc000" stroke-width=".853pt" d="M-4.92 0l7.38-4.27v8.54z"/></marker><marker orient="auto" overflow="visible"><path fill="#ffc000" fill-rule="evenodd" stroke="#ffc000" stroke-width=".427pt" d="M2.46 0l-3.7 2.13v-4.26z"/></marker><marker orient="auto" overflow="visible"><path fill-rule="evenodd" stroke="#000" stroke-width=".853pt" d="M4.92 0l-7.38 4.27v-8.54z"/></marker><marker orient="auto" overflow="visible"><path fill="#f15133" fill-rule="evenodd" stroke="#f15133" stroke-width=".4pt" d="M-2.3 0l3.45-2v4z"/></marker><marker orient="auto" overflow="visible"><path fill="#f15133" fill-rule="evenodd" stroke="#f15133" stroke-width=".4pt" d="M-2.3 0l3.45-2v4z"/></marker><marker orient="auto" overflow="visible"><path fill="#f15133" fill-rule="evenodd" stroke="#f15133" stroke-width=".4pt" d="M-2.3 0l3.45-2v4z"/></marker><marker orient="auto" overflow="visible"><path fill="#f15133" fill-rule="evenodd" stroke="#f15133" stroke-width=".4pt" d="M-2.3 0l3.45-2v4z"/></marker><marker orient="auto" overflow="visible"><path fill="#f15133" fill-rule="evenodd" stroke="#f15133" stroke-width=".4pt" d="M-2.3 0l3.45-2v4z"/></marker></defs><g><g><path fill="#4c6c9c" d="M13.2 3.04h13.6c1.76 0 3.2 1.36 3.2 3.2v7.6c0 1.76-1.44 3.2-3.2 3.2H13.2c-1.76 0-3.2-1.44-3.2-3.2v-7.6c0-1.84 1.44-3.2 3.2-3.2z"/><path fill="#4c6c9c" d="M3.2 0h13.6C18.56 0 20 1.44 20 3.2v13.6c0 1.76-1.44 3.2-3.2 3.2H3.2C1.44 20 0 18.56 0 16.8V3.2C0 1.44 1.44 0 3.2 0z"/><path fill="#fff" d="M10.32 7.36c0 .72-.16 1.36-.32 1.92-.24.64-.48 1.12-.8 1.52-.4.48-.8.8-1.28 1.04s-.96.4-1.6.4h-.88v4.56h-2.8V2.64h3.68c1.28 0 2.24.4 2.88 1.2.72.8 1.12 2 1.12 3.52zm-2.88 0c0-.48-.16-.96-.4-1.2-.24-.32-.56-.4-.96-.4h-.64V9.2h.64c.16 0 .32-.08.48-.16.16-.08.32-.16.48-.32.08-.16.16-.32.24-.56.08-.24.16-.48.16-.8z"/><path fill="#fff" d="M10.56 12.48c.4.48.88.8 1.36 1.04.48.24.96.4 1.36.4.48 0 .8-.08.96-.24.24-.24.32-.4.32-.72 0-.08-.08-.24-.16-.4-.08-.08-.16-.24-.24-.32-.16-.16-.32-.24-.48-.32-.16-.08-.32-.24-.56-.32-.48-.32-.96-.72-1.36-1.04-.32-.32-.64-.72-.96-1.12-.24-.32-.4-.8-.56-1.28-.16-.48-.24-.96-.24-1.6 0-.48.08-.96.24-1.44.16-.48.4-.88.72-1.28.32-.32.64-.64 1.12-.88.4-.24.88-.32 1.44-.32.72 0 1.44.08 2 .32s1.12.56 1.68.96l-.8 3.44c-.48-.4-.96-.72-1.36-.96-.48-.16-.88-.32-1.36-.32-.24 0-.4.08-.56.16-.16.08-.24.24-.24.56 0 .16 0 .32.16.48.08.16.24.24.4.4.16.16.4.32.64.48.24.16.48.32.72.48.56.4.96.72 1.28 1.12.4.4.64.72.8 1.12.24.4.32.8.4 1.2.08.4.08.72.08 1.12 0 .8-.08 1.44-.32 2-.24.48-.56.96-.88 1.28-.4.32-.8.56-1.28.72-.48.08-.88.16-1.36.16-.8 0-1.52-.08-2.16-.4-.72-.24-1.2-.64-1.6-1.04z"/><path fill="#555" fill-rule="evenodd" d="M23.28 0h6.32c1.76 0 3.28 1.44 3.28 3.12v13.76c0 1.68-1.52 3.12-3.28 3.12h-6.32C21.44 20 20 18.56 20 16.88V3.12C20 1.44 21.44 0 23.28 0z"/><path fill="#555" fill-rule="evenodd" d="M27.52 0H50v20H24.32V0z"/><path fill="#393939" d="M30.8 15.12h-1.04v-.64c-.32.24-.56.48-.88.56-.32.16-.64.24-1.04.24-.72 0-1.28-.24-1.68-.8-.48-.56-.64-1.36-.64-2.32 0-.48.08-.96.16-1.36.16-.4.4-.72.64-1.04.24-.24.48-.48.8-.56.32-.16.72-.24 1.04-.24.32 0 .56 0 .8.08.32.08.56.16.8.32V6.8h1.04zm-1.04-1.44v-3.52c-.24-.08-.48-.16-.72-.24-.24 0-.48-.08-.72-.08-.56 0-.96.24-1.28.64-.32.4-.48.96-.48 1.68s.08 1.2.32 1.6c.24.4.64.56 1.2.56.32 0 .56-.08.88-.16.24-.16.56-.32.8-.48z"/><path fill="#393939" d="M37.76 12.24h-4.4c0 .32.08.64.16.96.16.24.24.48.48.64.16.16.4.32.64.4.24.08.56.16.88.16.4 0 .8-.08 1.2-.24.4-.16.72-.32.88-.48h.08v1.04c-.32.16-.72.32-1.04.4-.4.08-.72.16-1.12.16-1.04 0-1.76-.32-2.32-.8-.56-.56-.88-1.36-.88-2.32 0-.96.32-1.76.8-2.32.56-.56 1.28-.88 2.16-.88.8 0 1.44.24 1.84.72.48.48.64 1.12.64 2zm-.96-.8c0-.48-.16-.96-.4-1.2-.24-.32-.64-.48-1.2-.48-.56 0-.96.16-1.28.48-.32.32-.48.72-.56 1.2z"/><path fill="#393939" d="M44.48 9.12l-2.4 6h-1.04l-2.4-6h1.12l1.84 4.8 1.84-4.8z"/><path fill="#fff" d="M30.8 14.08h-1.04v-.64c-.32.24-.56.48-.88.64-.32.08-.64.16-1.04.16-.72 0-1.28-.24-1.68-.8-.48-.56-.64-1.36-.64-2.32 0-.48.08-.96.16-1.36.16-.4.4-.72.64-.96.24-.32.48-.48.8-.64.32-.16.72-.24 1.04-.24.32 0 .56.08.8.08.32.08.56.16.8.32V5.76h1.04zm-1.04-1.44V9.2c-.24-.16-.48-.24-.72-.24-.24-.08-.48-.08-.72-.08-.56 0-.96.16-1.28.56-.32.4-.48.96-.48 1.68s.08 1.28.32 1.6c.24.4.64.56 1.2.56.32 0 .56-.08.88-.16.24-.16.56-.32.8-.48z"/><path fill="#fff" d="M37.76 11.2h-4.4c0 .4.08.72.16.96.16.24.24.48.48.64.16.24.4.32.64.4.24.08.56.16.88.16.4 0 .8-.08 1.2-.24.4-.16.72-.32.88-.48h.08v1.12c-.32.08-.72.24-1.04.32-.4.08-.72.16-1.12.16-1.04 0-1.76-.24-2.32-.8-.56-.56-.88-1.28-.88-2.32 0-.96.32-1.76.8-2.32.56-.56 1.28-.88 2.16-.88.8 0 1.44.24 1.84.72.48.48.64 1.12.64 2zm-.96-.8c0-.48-.16-.88-.4-1.2-.24-.32-.64-.4-1.2-.4-.56 0-.96.16-1.28.48-.32.24-.48.64-.56 1.12z"/><path fill="#fff" d="M44.48 8.08l-2.4 6h-1.04l-2.4-6h1.12l1.84 4.8 1.84-4.8z"/><path fill="#f3ce28" fill-rule="evenodd" d="M118.24 0h8.48c1.84 0 3.28 1.44 3.28 3.12v13.76c0 1.68-1.44 3.12-3.28 3.12h-8.48c-1.76 0-3.2-1.44-3.2-3.12V3.12c0-1.68 1.44-3.12 3.2-3.12z"/><path fill="#f3ce28" fill-rule="evenodd" d="M52.24 0h72.8v20h-76V0z"/><path fill="#ae8f07" d="M56.56 13.04c0 .56-.24 1.04-.72 1.44-.48.4-1.2.56-2 .56-.48 0-.96-.08-1.36-.16-.4-.08-.72-.24-1.04-.4v-1.2h.08c.32.24.72.48 1.2.64.4.16.8.24 1.2.24.48 0 .88-.08 1.12-.24.32-.16.4-.4.4-.8 0-.24-.08-.4-.24-.56-.08-.16-.4-.24-.8-.32-.16-.08-.4-.08-.64-.16-.24 0-.48-.08-.72-.16-.56-.16-.96-.32-1.2-.64s-.32-.64-.32-1.12c0-.24 0-.48.16-.72.08-.24.24-.48.48-.64.24-.16.48-.32.88-.48.32-.08.72-.16 1.12-.16.4 0 .8.08 1.2.16.4.08.72.24.96.4v1.12h-.08c-.24-.16-.56-.32-.96-.48-.48-.16-.8-.24-1.2-.24-.4 0-.8.08-1.04.24-.24.16-.4.4-.4.72 0 .24.08.4.24.56.16.16.4.24.8.32.16.08.4.16.64.16.32.08.48.08.64.16.56.08.96.32 1.2.56.32.32.4.72.4 1.2z"/><path fill="#ae8f07" d="M61.36 11.6h-3.6v-1.04h3.6z"/><path fill="#ae8f07" d="M68.96 8.8c0 .4-.08.72-.24 1.12-.16.32-.32.56-.56.8-.32.32-.64.56-1.04.72-.48.16-.96.24-1.6.24H64.4v3.2h-1.2V6.16h2.4c.48 0 .96.08 1.28.16.4.08.72.24.96.4.4.24.64.48.8.8.16.4.32.8.32 1.28zm-1.28 0c0-.24 0-.56-.16-.72-.08-.24-.24-.4-.48-.56-.16-.16-.4-.24-.64-.24-.24-.08-.48-.08-.88-.08H64.4v3.44h.96c.48 0 .88 0 1.12-.08.32-.08.56-.24.72-.4.16-.24.32-.4.4-.64.08-.16.08-.4.08-.72z"/><path fill="#ae8f07" d="M75.84 10.56c0 1.52-.24 2.72-.72 3.44-.48.72-1.2 1.04-2.24 1.04-1.04 0-1.84-.32-2.32-1.04-.48-.8-.72-1.92-.72-3.44 0-1.6.24-2.72.72-3.44C71.04 6.4 71.84 6 72.88 6c1.04 0 1.76.4 2.24 1.12.48.72.72 1.92.72 3.44zm-1.52 2.64c.16-.32.24-.72.32-1.12 0-.4.08-.96.08-1.52 0-.64-.08-1.12-.08-1.6-.08-.4-.16-.8-.32-1.12-.16-.24-.32-.48-.56-.64-.24-.16-.56-.24-.88-.24-.4 0-.72.08-.96.24-.24.16-.4.4-.56.72-.16.24-.24.64-.24 1.12-.08.4-.08.96-.08 1.52s0 1.12.08 1.52c0 .4.08.8.24 1.12.16.24.32.48.56.64.24.16.56.24.96.24.32 0 .64-.08.88-.16.24-.16.4-.4.56-.72z"/><path fill="#ae8f07" d="M82.8 14.88h-4.72V14h1.76V8.16h-1.76v-.8c.24 0 .48 0 .8-.08.24 0 .48-.08.64-.16.16-.08.32-.24.4-.4.08-.16.16-.32.16-.56h.88V14h1.84z"/><path fill="#ae8f07" d="M86.72 14.88h-1.44V13.2h1.44z"/><path fill="#ae8f07" d="M94.8 10.56c0 1.52-.32 2.72-.8 3.44-.48.72-1.2 1.04-2.24 1.04-1.04 0-1.84-.32-2.32-1.04-.48-.8-.72-1.92-.72-3.44 0-1.6.24-2.72.72-3.44C89.92 6.4 90.72 6 91.76 6c1.04 0 1.76.4 2.24 1.12.56.72.8 1.92.8 3.44zm-1.6 2.64c.16-.32.24-.72.32-1.12 0-.4.08-.96.08-1.52 0-.64-.08-1.12-.08-1.6-.08-.4-.16-.8-.32-1.12-.16-.24-.32-.48-.56-.64-.24-.16-.56-.24-.88-.24-.4 0-.72.08-.96.24-.24.16-.4.4-.56.72-.08.24-.24.64-.24 1.12-.08.4-.08.96-.08 1.52s0 1.12.08 1.52c0 .4.08.8.24 1.12.16.24.32.48.56.64.24.16.56.24.96.24.32 0 .64-.08.88-.16.24-.16.48-.4.56-.72z"/><path fill="#ae8f07" d="M101.68 14.88h-4.72V14h1.84V8.16h-1.84v-.8c.24 0 .48 0 .8-.08.24 0 .48-.08.64-.16.16-.08.32-.24.4-.4.08-.16.16-.32.16-.56h.96V14h1.76z"/><path fill="#ae8f07" d="M105.6 14.88h-1.44V13.2h1.44z"/><path fill="#ae8f07" d="M113.68 8.8c0 .4-.08.72-.16 1.12-.16.32-.32.56-.56.8-.32.32-.72.56-1.12.72-.4.16-.88.24-1.52.24h-1.2v3.2H108V6.16h2.32c.56 0 1.04.08 1.36.16.4.08.72.24.96.4.32.24.56.48.8.8.16.4.24.8.24 1.28zm-1.2 0c0-.24-.08-.56-.16-.72-.08-.24-.24-.4-.48-.56-.16-.16-.4-.24-.64-.24-.24-.08-.56-.08-.88-.08h-1.2v3.44h1.04c.4 0 .8 0 1.12-.08.32-.08.48-.24.72-.4.16-.24.32-.4.4-.64.08-.16.08-.4.08-.72z"/><path fill="#ae8f07" d="M120.64 10.56c0 1.52-.24 2.72-.72 3.44-.48.72-1.28 1.04-2.32 1.04-1.04 0-1.76-.32-2.24-1.04-.48-.8-.72-1.92-.72-3.44 0-1.6.24-2.72.72-3.44.48-.72 1.2-1.12 2.24-1.12 1.04 0 1.84.4 2.32 1.12.48.72.72 1.92.72 3.44zm-1.52 2.64c.16-.32.24-.72.24-1.12.08-.4.08-.96.08-1.52 0-.64 0-1.12-.08-1.6 0-.4-.16-.8-.24-1.12-.16-.24-.32-.48-.56-.64-.24-.16-.56-.24-.96-.24-.32 0-.64.08-.88.24-.24.16-.4.4-.56.72-.16.24-.24.64-.32 1.12 0 .4-.08.96-.08 1.52s.08 1.12.08 1.52c.08.4.16.8.32 1.12.08.24.32.48.56.64.24.16.48.24.88.24s.72-.08.96-.16c.24-.16.4-.4.56-.72z"/><path fill="#ae8f07" d="M128.08 14.88h-5.92v-1.2l1.2-1.04c.4-.4.8-.72 1.2-1.04.72-.72 1.2-1.36 1.52-1.76.24-.4.4-.88.4-1.36 0-.48-.16-.8-.48-1.12-.24-.24-.72-.32-1.2-.32-.4 0-.72 0-1.2.16-.4.08-.8.32-1.2.56h-.08v-1.2c.32-.16.72-.32 1.12-.4.48-.08.96-.16 1.36-.16.88 0 1.6.24 2.08.64.56.4.8 1.04.8 1.76 0 .32-.08.64-.16.96-.08.24-.16.56-.32.8s-.32.48-.56.72c-.24.24-.48.48-.72.72-.48.48-.88.88-1.28 1.2-.48.4-.88.8-1.28 1.12h4.72z"/><path fill="#404030" d="M56.56 12c0 .64-.24 1.12-.72 1.52-.48.32-1.2.56-2 .56-.48 0-.96-.08-1.36-.16-.4-.16-.72-.24-1.04-.4v-1.28h.08c.32.32.72.48 1.2.64.4.16.8.24 1.2.24.48 0 .88-.08 1.12-.24.32-.16.4-.4.4-.72 0-.24-.08-.48-.24-.56-.08-.16-.4-.32-.8-.4-.16 0-.4-.08-.64-.08-.24-.08-.48-.08-.72-.16-.56-.16-.96-.4-1.2-.64-.24-.32-.32-.72-.32-1.12 0-.24 0-.56.16-.8.08-.24.24-.4.48-.64.24-.16.48-.32.88-.4.32-.08.72-.16 1.12-.16.4 0 .8.08 1.2.16.4.08.72.16.96.32v1.2h-.08c-.24-.24-.56-.4-.96-.56-.48-.16-.8-.16-1.2-.16-.4 0-.8.08-1.04.16-.24.16-.4.4-.4.72 0 .24.08.48.24.64.16.08.4.24.8.32.16 0 .4.08.64.16.32 0 .48.08.64.08.56.16.96.32 1.2.64.32.24.4.64.4 1.12z"/><path fill="#404030" d="M61.36 10.64h-3.6V9.52h3.6z"/><path fill="#404030" d="M68.96 7.84c0 .32-.08.72-.24 1.04-.16.32-.32.64-.56.88-.32.32-.64.48-1.04.64-.48.16-.96.24-1.6.24H64.4v3.28h-1.2V5.2h2.4c.48 0 .96 0 1.28.08.4.08.72.24.96.4.4.24.64.56.8.88.16.32.32.72.32 1.28zm-1.28 0c0-.32 0-.56-.16-.8-.08-.24-.24-.4-.48-.56-.16-.08-.4-.16-.64-.24-.24-.08-.48-.08-.88-.08H64.4v3.52h.96c.48 0 .88-.08 1.12-.16.32-.08.56-.24.72-.4.16-.16.32-.4.4-.56.08-.24.08-.48.08-.72z"/><path fill="#404030" d="M75.84 9.52c0 1.6-.24 2.72-.72 3.44-.48.72-1.2 1.12-2.24 1.12-1.04 0-1.84-.4-2.32-1.12-.48-.72-.72-1.84-.72-3.44 0-1.52.24-2.64.72-3.44.48-.72 1.28-1.12 2.32-1.12 1.04 0 1.76.4 2.24 1.2.48.72.72 1.84.72 3.36zm-1.52 2.64c.16-.32.24-.64.32-1.12 0-.4.08-.88.08-1.52 0-.56-.08-1.12-.08-1.52-.08-.48-.16-.8-.32-1.12-.16-.32-.32-.56-.56-.72C73.52 6 73.2 6 72.88 6c-.4 0-.72 0-.96.16s-.4.4-.56.72c-.16.32-.24.64-.24 1.12-.08.48-.08.96-.08 1.52 0 .64 0 1.12.08 1.52 0 .48.08.8.24 1.12.16.32.32.56.56.72.24.16.56.24.96.24.32 0 .64-.08.88-.24.24-.16.4-.4.56-.72z"/><path fill="#404030" d="M82.8 13.92h-4.72v-.88h1.76V7.12h-1.76V6.4c.24 0 .48-.08.8-.08.24-.08.48-.16.64-.16.16-.16.32-.24.4-.4.08-.16.16-.4.16-.64h.88v7.92h1.84z"/><path fill="#404030" d="M86.72 13.92h-1.44v-1.68h1.44z"/><path fill="#404030" d="M94.8 9.52c0 1.6-.32 2.72-.8 3.44-.48.72-1.2 1.12-2.24 1.12-1.04 0-1.84-.4-2.32-1.12-.48-.72-.72-1.84-.72-3.44 0-1.52.24-2.64.72-3.44.48-.72 1.28-1.12 2.32-1.12 1.04 0 1.76.4 2.24 1.2.56.72.8 1.84.8 3.36zm-1.6 2.64c.16-.32.24-.64.32-1.12 0-.4.08-.88.08-1.52 0-.56-.08-1.12-.08-1.52-.08-.48-.16-.8-.32-1.12-.16-.32-.32-.56-.56-.72C92.4 6 92.08 6 91.76 6c-.4 0-.72 0-.96.16s-.4.4-.56.72C90.16 7.2 90 7.52 90 8c-.08.48-.08.96-.08 1.52 0 .64 0 1.12.08 1.52 0 .48.08.8.24 1.12.16.32.32.56.56.72.24.16.56.24.96.24.32 0 .64-.08.88-.24.24-.16.48-.4.56-.72z"/><path fill="#404030" d="M101.68 13.92h-4.72v-.88h1.84V7.12h-1.84V6.4c.24 0 .48-.08.8-.08.24-.08.48-.16.64-.16.16-.16.32-.24.4-.4.08-.16.16-.4.16-.64h.96v7.92h1.76z"/><path fill="#404030" d="M105.6 13.92h-1.44v-1.68h1.44z"/><path fill="#404030" d="M113.68 7.84c0 .32-.08.72-.16 1.04-.16.32-.32.64-.56.88-.32.32-.72.48-1.12.64-.4.16-.88.24-1.52.24h-1.2v3.28H108V5.2h2.32c.56 0 1.04 0 1.36.08.4.08.72.24.96.4.32.24.56.56.8.88.16.32.24.72.24 1.28zm-1.2 0c0-.32-.08-.56-.16-.8s-.24-.4-.48-.56c-.16-.08-.4-.16-.64-.24-.24-.08-.56-.08-.88-.08h-1.2v3.52h1.04c.4 0 .8-.08 1.12-.16.32-.08.48-.24.72-.4.16-.16.32-.4.4-.56.08-.24.08-.48.08-.72z"/><path fill="#404030" d="M120.64 9.52c0 1.6-.24 2.72-.72 3.44-.48.72-1.28 1.12-2.32 1.12-1.04 0-1.76-.4-2.24-1.12-.48-.72-.72-1.84-.72-3.44 0-1.52.24-2.64.72-3.44.48-.72 1.2-1.12 2.24-1.12 1.04 0 1.84.4 2.32 1.2.48.72.72 1.84.72 3.36zm-1.52 2.64c.16-.32.24-.64.24-1.12.08-.4.08-.88.08-1.52 0-.56 0-1.12-.08-1.52 0-.48-.16-.8-.24-1.12-.16-.32-.32-.56-.56-.72C118.32 6 118 6 117.6 6c-.32 0-.64 0-.88.16s-.4.4-.56.72c-.16.32-.24.64-.32 1.12 0 .48-.08.96-.08 1.52 0 .64.08 1.12.08 1.52.08.48.16.8.32 1.12.08.32.32.56.56.72.24.16.48.24.88.24s.72-.08.96-.24c.24-.16.4-.4.56-.72z"/><path fill="#404030" d="M128.08 13.92h-5.92v-1.28l1.2-1.04c.4-.32.8-.72 1.2-1.04.72-.72 1.2-1.28 1.52-1.68.24-.48.4-.96.4-1.44s-.16-.8-.48-1.04c-.24-.24-.72-.4-1.2-.4-.4 0-.72.08-1.2.16-.4.16-.8.32-1.2.64h-.08V5.52c.32-.16.72-.24 1.12-.32.48-.16.96-.24 1.36-.24.88 0 1.6.24 2.08.72.56.4.8.96.8 1.68 0 .4-.08.64-.16.96-.08.32-.16.56-.32.8s-.32.48-.56.72c-.24.24-.48.48-.72.8-.48.4-.88.8-1.28 1.2-.48.4-.88.72-1.28 1.04h4.72z"/></g></g></svg>
