<?xml version="1.0" standalone="no"?>
<!DOCTYPE svg PUBLIC "-//W3C//DTD SVG 20010904//EN"
 "http://www.w3.org/TR/2001/REC-SVG-20010904/DTD/svg10.dtd">
<svg version="1.0" xmlns="http://www.w3.org/2000/svg"
 width="700.000000pt" height="700.000000pt" viewBox="0 0 700.000000 700.000000"
 preserveAspectRatio="xMidYMid meet">
<metadata>
Created by potrace 1.11, written by Peter Selinger 2001-2013
</metadata>
<g transform="translate(0.000000,700.000000) scale(0.100000,-0.100000)"
fill="#000000" stroke="none">
<path d="M0 3500 l0 -3500 3500 0 3500 0 0 3500 0 3500 -3500 0 -3500 0 0
-3500z m2385 2580 c580 -55 991 -420 1145 -1020 l12 -45 24 95 c41 162 121
335 222 475 169 235 398 395 670 466 108 29 130 32 287 32 294 1 484 -39 761
-161 157 -69 383 -203 472 -279 l32 -28 -99 -440 c-98 -432 -156 -687 -166
-733 -5 -22 -9 -21 -68 31 -141 122 -262 203 -408 271 -183 86 -333 121 -494
114 -115 -4 -197 -34 -233 -85 -50 -70 -54 -192 -9 -279 25 -48 135 -163 232
-241 28 -22 165 -117 305 -211 285 -190 444 -321 581 -476 304 -342 432 -697
432 -1201 1 -310 -35 -491 -147 -739 -34 -75 -140 -235 -202 -304 -235 -266
-675 -430 -1089 -407 -199 11 -400 50 -585 113 -202 70 -451 215 -584 342
l-71 68 33 138 c17 77 82 343 143 592 l111 452 94 -89 c209 -200 466 -338 708
-381 78 -13 247 -13 322 1 172 32 276 144 276 300 0 149 -79 234 -427 459
-490 317 -677 482 -878 777 -72 105 -122 203 -167 330 l-36 102 -12 -78 c-87
-556 -427 -1034 -862 -1216 -172 -72 -318 -95 -602 -95 l-208 0 0 -800 0 -800
-495 0 -495 0 0 2480 0 2480 683 0 c391 0 729 -4 792 -10z"/>
<path d="M1900 4397 l0 -607 129 0 c211 0 279 21 386 122 125 116 185 280 185
503 0 248 -67 403 -217 507 -79 54 -142 69 -320 75 l-163 6 0 -606z"/>
</g>
</svg>
