<?xml version="1.0" encoding="UTF-8" standalone="no"?>
<!-- Created with Inkscape (http://www.inkscape.org/) -->

<svg
   xmlns:dc="http://purl.org/dc/elements/1.1/"
   xmlns:cc="http://creativecommons.org/ns#"
   xmlns:rdf="http://www.w3.org/1999/02/22-rdf-syntax-ns#"
   xmlns:svg="http://www.w3.org/2000/svg"
   xmlns="http://www.w3.org/2000/svg"
   xmlns:sodipodi="http://sodipodi.sourceforge.net/DTD/sodipodi-0.dtd"
   xmlns:inkscape="http://www.inkscape.org/namespaces/inkscape"
   width="1488"
   height="1297"
   viewBox="0 0 1395 1215.9375"
   id="svg4889"
   version="1.1"
   inkscape:version="0.92.1 r15371"
   sodipodi:docname="fig-00.svg">
  <defs
     id="defs4891" />
  <sodipodi:namedview
     id="base"
     pagecolor="#ffffff"
     bordercolor="#666666"
     borderopacity="1.0"
     inkscape:pageopacity="0.0"
     inkscape:pageshadow="2"
     inkscape:zoom="0.11658434"
     inkscape:cx="-8199.3322"
     inkscape:cy="460.22359"
     inkscape:document-units="px"
     inkscape:current-layer="layer1"
     showgrid="false"
     inkscape:window-width="2560"
     inkscape:window-height="1378"
     inkscape:window-x="2552"
     inkscape:window-y="-8"
     inkscape:window-maximized="1"
     units="px" />
  <metadata
     id="metadata4894">
    <rdf:RDF>
      <cc:Work
         rdf:about="">
        <dc:format>image/svg+xml</dc:format>
        <dc:type
           rdf:resource="http://purl.org/dc/dcmitype/StillImage" />
        <dc:title></dc:title>
      </cc:Work>
    </rdf:RDF>
  </metadata>
  <g
     inkscape:label="Layer 1"
     inkscape:groupmode="layer"
     id="layer1"
     transform="translate(0,163.57506)">
    <g
       id="g880"
       transform="matrix(0.93750001,0,0,0.93750001,-1.7395017e-7,65.749885)"
       style="stroke-width:1.0666666">
      <rect
         ry="0"
         y="-244.2735"
         x="-2.7832032e-006"
         height="1296.2719"
         width="1488"
         id="rect7773-9"
         style="fill:#415c85;fill-opacity:1;stroke:none;stroke-width:32.05653381;stroke-miterlimit:4;stroke-dasharray:none" />
      <rect
         ry="0"
         y="-208.73199"
         x="35.453121"
         height="1225.2003"
         width="1417.0933"
         id="rect7773-7-4"
         style="fill:#415c85;fill-opacity:1;stroke:#ffffff;stroke-width:22.74773407;stroke-miterlimit:4;stroke-dasharray:none" />
      <path
         d="M 1313.6563,351.13654 796.71962,-165.77954 c -29.75674,-29.77735 -78.04089,-29.77735 -107.83757,0 L 581.54827,-58.426438 717.7072,77.737637 c 31.64955,-10.685573 67.93901,-3.513753 93.15506,21.707447 25.36809,25.378396 32.47419,61.979676 21.51675,93.738756 l 131.24198,131.22652 c 31.75908,-10.94714 68.37581,-3.87067 93.74391,21.53221 35.4339,35.42359 35.4339,92.8484 0,128.30162 -35.4597,35.45451 -92.87288,35.45451 -128.348,0 -26.65016,-26.67592 -33.24344,-65.83875 -19.7296,-98.67631 L 786.87931,253.1702 v 322.08635 c 8.6317,4.27784 16.78536,9.97561 23.98295,17.15258 35.43389,35.43003 35.43389,92.8484 0,128.33255 -35.4339,35.41843 -92.88834,35.41843 -128.29647,0 -35.43389,-35.48415 -35.43389,-92.90252 0,-128.33255 8.75797,-8.74766 18.8998,-15.36542 29.72067,-19.7953 V 247.54845 c -10.82087,-4.42988 -20.93821,-10.99224 -29.72067,-19.80046 -26.83698,-26.82797 -33.29497,-66.22273 -19.52858,-99.18527 L 528.80074,-5.6930744 174.33579,348.74121 c -29.77149,29.80183 -29.77149,78.08599 0,107.86205 l 516.9622,516.91711 c 29.7619,29.77153 78.03059,29.77153 107.83758,0 L 1313.6563,458.99859 c 29.7812,-29.78122 29.7812,-78.08985 0,-107.86205"
         style="fill:#1f2d41;fill-opacity:1;fill-rule:nonzero;stroke:none;stroke-width:1.0666666"
         id="path14"
         inkscape:connector-curvature="0" />
      <g
         id="text8022-4"
         style="font-style:normal;font-variant:normal;font-weight:bold;font-stretch:normal;font-size:230.25369263px;line-height:125%;font-family:'Concourse C7';-inkscape-font-specification:'Concourse C7, Bold';text-align:start;letter-spacing:0px;word-spacing:0px;writing-mode:lr-tb;text-anchor:start;fill:#ffffff;fill-opacity:1;stroke:none;stroke-width:1.96645999;stroke-miterlimit:4;stroke-dasharray:none"
         transform="scale(1.0000122,0.99998781)">
        <path
           inkscape:connector-curvature="0"
           id="path5562"
           style="fill:#ffffff;stroke:none;stroke-width:1.96645999"
           d="m 279.4954,278.47852 q 0,11.51268 -4.60508,21.18334 -4.37482,9.67066 -12.4337,16.80852 -7.82862,7.13786 -19.11105,11.28243 -11.05218,3.91431 -24.40689,3.91431 H 204.8932 v 50.42556 H 161.60551 V 225.52017 h 57.56342 q 28.3212,0 44.20871,13.58497 16.11776,13.35471 16.11776,39.37338 z m -43.7482,0 q 0,-9.21015 -5.9866,-13.81522 -5.75634,-4.60508 -14.50598,-4.60508 H 204.8932 v 37.99186 h 10.36142 q 3.68406,0 7.36812,-1.15126 3.68406,-1.38153 6.4471,-3.68406 2.9933,-2.53279 4.83533,-6.21685 1.84203,-3.68406 1.84203,-8.51939 z" />
        <path
           inkscape:connector-curvature="0"
           id="path5564"
           style="fill:#ffffff;stroke:none;stroke-width:1.96645999"
           d="m 387.27571,336.2722 34.07754,43.97845 v 1.84203 h -48.12302 l -28.78171,-41.44566 h -1.84203 v 41.44566 H 301.16083 V 262.36076 h 55.49114 q 11.28243,0 20.49258,2.9933 9.4404,2.9933 16.11775,8.51939 6.67736,5.29583 10.36142,12.8942 3.91431,7.59837 3.91431,17.03878 0,12.20344 -5.75634,20.03207 -5.75634,7.59837 -14.50598,11.51268 z m -23.02537,-30.16324 q 0,-5.98659 -3.68406,-8.74964 -3.45381,-2.76304 -7.36812,-2.76304 h -10.59167 v 22.33461 h 10.82193 q 4.83532,0 7.82862,-2.9933 2.9933,-2.9933 2.9933,-7.82863 z" />
        <path
           inkscape:connector-curvature="0"
           id="path5566"
           style="fill:#ffffff;stroke:none;stroke-width:1.96645999"
           d="m 524.2443,367.12619 h -38.68262 l -5.52609,14.96649 h -45.59023 l 52.03733,-119.73192 h 36.84059 l 52.49784,119.73192 h -45.59023 z m -31.31451,-29.24222 h 23.25563 l -10.82193,-29.70272 h -0.92101 z" />
        <path
           inkscape:connector-curvature="0"
           id="path5568"
           style="fill:#ffffff;stroke:none;stroke-width:1.96645999"
           d="m 691.03789,339.726 12.66395,30.62374 q -8.74964,7.13787 -20.95308,11.28243 -11.97319,3.91432 -25.09765,3.91432 -16.34802,0 -29.01197,-4.83533 -12.66395,-4.83533 -21.41359,-13.12446 -8.74964,-8.51939 -13.35472,-19.57156 -4.60507,-11.28244 -4.60507,-23.94639 0,-15.427 5.52609,-27.40019 5.75634,-12.20344 14.96649,-20.49258 9.4404,-8.51938 21.64384,-12.8942 12.20345,-4.37482 25.55816,-4.37482 15.19675,0 26.47918,4.37482 11.51268,4.14456 19.57156,10.13116 l -12.66395,31.77501 h -1.15127 q -4.83533,-3.68406 -12.4337,-6.90761 -7.36812,-3.22355 -15.65725,-2.9933 -5.75634,0 -10.82192,1.61178 -5.06558,1.61177 -8.9799,5.06558 -3.91431,3.22355 -6.21685,8.28913 -2.30253,5.06558 -2.30253,12.20345 0,6.4471 2.07228,11.51268 2.30254,4.83533 5.9866,8.28913 3.91431,3.45381 8.74964,5.29584 5.06558,1.61177 10.82192,1.61177 8.74964,0 15.8875,-2.53279 7.13787,-2.53279 13.58497,-6.90761 z" />
        <path
           inkscape:connector-curvature="0"
           id="path5570"
           style="fill:#ffffff;stroke:none;stroke-width:1.96645999"
           d="m 802.95917,296.89882 v 85.19386 h -42.59693 v -85.19386 h -35.91958 v -34.53806 h 114.20583 v 34.53806 z" />
        <path
           inkscape:connector-curvature="0"
           id="path5572"
           style="fill:#ffffff;stroke:none;stroke-width:1.96645999"
           d="m 912.70022,382.09268 h -43.7482 V 262.36076 h 43.7482 z" />
        <path
           inkscape:connector-curvature="0"
           id="path5574"
           style="fill:#ffffff;stroke:none;stroke-width:1.96645999"
           d="m 1043.1641,339.726 12.664,30.62374 q -8.7497,7.13787 -20.9531,11.28243 -11.9732,3.91432 -25.0977,3.91432 -16.34799,0 -29.01194,-4.83533 -12.66395,-4.83533 -21.41359,-13.12446 -8.74964,-8.51939 -13.35472,-19.57156 -4.60507,-11.28244 -4.60507,-23.94639 0,-15.427 5.52609,-27.40019 5.75634,-12.20344 14.96649,-20.49258 9.4404,-8.51938 21.64385,-12.8942 12.20344,-4.37482 25.55819,-4.37482 15.1967,0 26.4791,4.37482 11.5127,4.14456 19.5716,10.13116 l -12.6639,31.77501 h -1.1513 q -4.8353,-3.68406 -12.4337,-6.90761 -7.3681,-3.22355 -15.6573,-2.9933 -5.7563,0 -10.8219,1.61178 -5.06557,1.61177 -8.97989,5.06558 -3.91431,3.22355 -6.21685,8.28913 -2.30253,5.06558 -2.30253,12.20345 0,6.4471 2.07228,11.51268 2.30254,4.83533 5.9866,8.28913 3.91431,3.45381 8.74959,5.29584 5.0656,1.61177 10.822,1.61177 8.7496,0 15.8875,-2.53279 7.1378,-2.53279 13.5849,-6.90761 z" />
        <path
           inkscape:connector-curvature="0"
           id="path5576"
           style="fill:#ffffff;stroke:none;stroke-width:1.96645999"
           d="m 1161.9391,367.12619 h -38.6827 l -5.526,14.96649 h -45.5903 l 52.0374,-119.73192 h 36.8405 l 52.4979,119.73192 h -45.5902 z m -31.3145,-29.24222 h 23.2556 l -10.8219,-29.70272 h -0.9211 z" />
        <path
           inkscape:connector-curvature="0"
           id="path5578"
           style="fill:#ffffff;stroke:none;stroke-width:1.96645999"
           d="m 1278.7137,347.55463 h 47.6625 v 34.53805 h -90.2594 V 262.36076 h 42.5969 z" />
      </g>
      <g
         id="text8026-6"
         style="font-style:normal;font-variant:normal;font-weight:bold;font-stretch:normal;font-size:365.9140625px;line-height:125%;font-family:'Concourse C7';-inkscape-font-specification:'Concourse C7, Bold';text-align:start;letter-spacing:0px;word-spacing:0px;writing-mode:lr-tb;text-anchor:start;fill:#ffffff;fill-opacity:1;stroke:none;stroke-width:1.96646011;stroke-miterlimit:4;stroke-dasharray:none"
         transform="scale(1.0001729,0.99982713)">
        <path
           inkscape:connector-curvature="0"
           id="path5549"
           style="fill:#ffffff;stroke:none;stroke-width:1.96646011"
           d="m 181.69865,614.9424 q 15.00247,11.34333 32.56635,17.92979 17.92979,6.22053 34.39592,6.22053 16.46613,0 23.4185,-4.39096 7.31828,-4.75689 7.31828,-11.34334 0,-4.02506 -2.92731,-7.31828 -2.92731,-3.29323 -7.6842,-6.22054 -4.75688,-2.92731 -10.97742,-5.48871 -6.22054,-2.92731 -13.1729,-6.22054 -18.66162,-8.41602 -32.93227,-17.19796 -13.90473,-9.14785 -23.4185,-19.39345 -9.51377,-10.24559 -14.27065,-22.68667 -4.75688,-12.44108 -4.75688,-28.17538 0,-13.17291 5.48871,-25.61399 5.85462,-12.44107 16.83205,-22.32075 10.97742,-9.87968 26.71172,-15.73431 16.10022,-6.22054 36.59141,-6.22054 26.34581,0 47.56883,6.58646 21.58893,6.22053 40.61646,16.83204 l -18.66162,60.37582 q -17.19796,-11.34333 -34.03001,-16.83204 -16.46613,-5.48872 -31.83452,-5.48872 -8.41602,0 -14.63656,2.5614 -5.85463,2.19549 -5.85463,9.51377 0,4.39097 3.65914,8.41602 4.02506,3.65914 10.61151,7.6842 6.58645,4.02505 15.00248,8.05011 8.78193,4.02505 18.66161,8.78193 19.39345,9.51377 31.46861,19.39345 12.44108,9.51377 19.02753,19.75936 6.95237,9.87968 9.51377,20.49119 2.5614,10.24559 2.5614,20.49118 0,20.12528 -8.41602,34.03001 -8.41603,13.90474 -21.95485,22.68667 -13.53882,8.78194 -30.73678,12.44108 -16.83205,4.02506 -33.66409,4.02506 -27.80947,0 -52.69163,-7.31828 -24.88215,-7.6842 -39.51872,-19.02754 z" />
        <path
           inkscape:connector-curvature="0"
           id="path5551"
           style="fill:#ffffff;stroke:none;stroke-width:1.96646011"
           d="m 549.49374,557.8598 h -83.42841 v 20.8571 h 70.62141 v 42.44604 h -70.62141 v 20.8571 h 85.25798 v 53.05754 H 398.37123 V 504.80226 h 151.12251 z" />
        <path
           inkscape:connector-curvature="0"
           id="path5553"
           style="fill:#ffffff;stroke:none;stroke-width:1.96646011"
           d="m 743.90844,622.26068 54.15528,69.88958 v 2.92732 h -76.47604 l -45.73926,-65.86454 h -2.92731 v 65.86454 H 607.05658 V 504.80226 h 88.18529 q 17.92978,0 32.56635,4.75689 15.00247,4.75688 25.61398,13.53882 10.61151,8.41602 16.46613,20.49118 6.22054,12.07517 6.22054,27.07764 0,19.39345 -9.14785,31.83453 -9.14785,12.07516 -23.05258,18.2957 z m -36.59141,-47.93474 q 0,-9.51377 -5.85463,-13.90474 -5.48871,-4.39097 -11.70925,-4.39097 h -16.83204 v 35.49367 h 17.19796 q 7.68419,0 12.44108,-4.75689 4.75688,-4.75688 4.75688,-12.44107 z" />
        <path
           inkscape:connector-curvature="0"
           id="path5555"
           style="fill:#ffffff;stroke:none;stroke-width:1.96646011"
           d="M 905.67679,695.07758 H 836.15311 V 504.80226 h 69.52368 z" />
        <path
           inkscape:connector-curvature="0"
           id="path5557"
           style="fill:#ffffff;stroke:none;stroke-width:1.96646011"
           d="m 1113.373,557.8598 h -83.4284 v 20.8571 h 70.6214 v 42.44604 h -70.6214 v 20.8571 h 85.258 v 53.05754 H 962.25049 V 504.80226 H 1113.373 Z" />
        <path
           inkscape:connector-curvature="0"
           id="path5559"
           style="fill:#ffffff;stroke:none;stroke-width:1.96646011"
           d="m 1167.7284,628.48122 q 13.9047,7.31828 33.2982,12.80699 19.7593,5.48871 39.5187,5.48871 10.9774,0 15.7343,-1.82957 4.7569,-2.19549 4.7569,-6.22054 0,-4.39097 -8.0501,-6.95237 -7.6842,-2.92731 -24.1504,-8.41602 -19.7593,-6.58645 -32.5663,-13.53882 -12.4411,-6.95237 -19.7594,-14.63656 -7.3182,-8.05011 -10.2456,-17.19796 -2.5614,-9.14786 -2.5614,-20.12528 0,-10.61151 5.1228,-21.22301 5.1228,-10.61151 15.0025,-18.66162 9.8797,-8.41602 24.1503,-13.53882 14.6366,-5.1228 33.2982,-5.1228 24.5163,0 45.0075,4.75689 20.4911,4.75688 34.7618,12.80699 l -10.9774,52.69162 q -22.6867,-9.14785 -38.421,-12.80699 -15.3684,-3.65914 -28.9072,-3.65914 -8.416,0 -11.7093,2.19548 -3.2932,2.19549 -3.2932,4.39097 0,1.82957 1.4637,3.29323 1.4636,1.46366 5.1228,3.29323 3.6591,1.82957 9.8796,4.02505 6.5865,2.19548 16.1003,5.1228 20.1252,5.85462 32.9322,12.80699 12.807,6.95237 20.1253,15.36839 7.3183,8.05011 9.8797,17.19796 2.9273,9.14785 2.9273,19.39345 0,12.44107 -6.2206,23.4185 -5.8546,10.97742 -17.1979,19.39344 -11.3433,8.05011 -27.8095,12.80699 -16.1002,4.75689 -36.5914,4.75689 -12.807,0 -25.2481,-1.82957 -12.441,-1.82957 -23.4185,-4.75689 -10.9774,-3.29322 -19.7593,-6.95236 -8.782,-3.65914 -13.5388,-7.6842 z" />
      </g>
      <g
         id="text8030-0"
         style="font-style:normal;font-variant:normal;font-weight:bold;font-stretch:normal;font-size:365.91473389px;line-height:125%;font-family:'Concourse C7';-inkscape-font-specification:'Concourse C7, Bold';text-align:start;letter-spacing:0px;word-spacing:0px;writing-mode:lr-tb;text-anchor:start;fill:#ffffff;fill-opacity:1;stroke:none;stroke-width:1.96646011;stroke-miterlimit:4;stroke-dasharray:none"
         transform="scale(1.0001729,0.99982713)">
        <path
           inkscape:connector-curvature="0"
           id="path5581"
           d="M 784.85373,127.36629 H 702.157 l -15.0025,39.15288 h -69.5238 l 96.23558,-248.822024 h 58.54635 l 97.69924,248.822024 h -69.5238 z M 721.18457,75.406396 h 44.27568 L 745.33494,5.8825969 h -3.29323 z"
           style="stroke-width:1.96646011" />
      </g>
      <g
         id="text8034-57"
         style="font-style:normal;font-variant:normal;font-weight:bold;font-stretch:normal;font-size:189.00874329px;line-height:125%;font-family:'Concourse C7';-inkscape-font-specification:'Concourse C7, Bold';text-align:start;letter-spacing:0px;word-spacing:0px;writing-mode:lr-tb;text-anchor:start;fill:#ffffff;fill-opacity:1;stroke:none;stroke-width:1.6141957;stroke-miterlimit:4;stroke-dasharray:none"
         transform="scale(1.0000122,0.99998781)">
        <path
           inkscape:connector-curvature="0"
           id="path5526"
           style="fill:#ffffff;stroke:none;stroke-width:1.6141957"
           d="m 258.24699,802.14675 q 0,9.45044 -3.78017,17.3888 -3.59117,7.93837 -10.20647,13.79764 -6.4263,5.85927 -15.68773,9.26143 -9.07242,3.21315 -20.03493,3.21315 h -11.52953 v 41.39291 H 161.47452 V 758.67474 h 47.25218 q 23.24808,0 36.28968,11.15151 13.23061,10.96251 13.23061,32.3205 z m -35.91166,0 q 0,-7.56035 -4.91423,-11.34053 -4.72521,-3.78017 -11.90755,-3.78017 h -8.50539 v 31.18644 h 8.50539 q 3.02414,0 6.04828,-0.94504 3.02414,-1.13405 5.29225,-3.02414 2.45711,-2.0791 3.96918,-5.10324 1.51207,-3.02414 1.51207,-6.99332 z" />
        <path
           inkscape:connector-curvature="0"
           id="path5528"
           style="fill:#ffffff;stroke:none;stroke-width:1.6141957"
           d="m 378.00766,849.96596 q 0,7.56035 -3.21315,14.74268 -3.02414,7.18234 -9.26143,12.8526 -6.23729,5.67026 -15.49872,9.07242 -9.07242,3.40215 -21.16898,3.40215 -12.85259,0 -22.11402,-3.40215 -9.26143,-3.40216 -15.30971,-9.07242 -6.04828,-5.67026 -8.88341,-12.8526 -2.83513,-7.18233 -2.83513,-14.74268 v -61.04982 h 34.96662 v 56.3246 q 0,8.12738 3.96918,11.71854 3.96919,3.59117 10.20647,3.59117 5.85927,0 10.01747,-3.59117 4.15819,-3.59116 4.15819,-11.71854 v -56.3246 h 34.96662 z" />
        <path
           inkscape:connector-curvature="0"
           id="path5530"
           style="fill:#ffffff;stroke:none;stroke-width:1.6141957"
           d="m 479.49059,837.11337 q 8.6944,1.51207 13.98664,8.12737 5.29225,6.61531 5.29225,15.1207 0,12.47458 -10.96251,19.65691 -10.9625,7.18233 -30.2414,7.18233 H 406.3442 v -98.28454 h 48.95327 q 11.15151,0 18.71186,2.2681 7.56035,2.0791 12.09656,5.67026 4.72522,3.40216 6.61531,7.93837 2.0791,4.53621 2.0791,9.07242 0,7.37134 -3.40216,13.23061 -3.21315,5.85927 -11.90755,9.26143 z m -38.17977,10.39548 v 15.49871 h 12.8526 q 4.3472,0 6.23728,-2.07909 2.0791,-2.0791 2.0791,-5.48126 0,-3.96918 -2.64612,-5.85927 -2.45711,-2.07909 -6.4263,-2.07909 z m 0,-34.39959 v 15.49871 h 10.96251 q 4.3472,0 6.23729,-2.07909 2.07909,-2.0791 2.07909,-5.48126 0,-3.96918 -2.64612,-5.85927 -2.45711,-2.07909 -6.4263,-2.07909 z" />
        <path
           inkscape:connector-curvature="0"
           id="path5532"
           style="fill:#ffffff;stroke:none;stroke-width:1.6141957"
           d="m 556.48802,858.84937 h 39.12481 v 28.35131 H 521.5214 v -98.28454 h 34.96662 z" />
        <path
           inkscape:connector-curvature="0"
           id="path5534"
           style="fill:#ffffff;stroke:none;stroke-width:1.6141957"
           d="m 654.72827,887.20068 h -35.91166 v -98.28454 h 35.91166 z" />
        <path
           inkscape:connector-curvature="0"
           id="path5536"
           style="fill:#ffffff;stroke:none;stroke-width:1.6141957"
           d="m 761.82239,852.42307 10.39548,25.13817 q -7.18233,5.85927 -17.1998,9.26143 -9.82845,3.21314 -20.60195,3.21314 -13.41962,0 -23.8151,-3.96918 -10.39548,-3.96918 -17.57781,-10.7735 -7.18234,-6.99332 -10.96251,-16.06574 -3.78018,-9.26143 -3.78018,-19.65691 0,-12.66359 4.53621,-22.49204 4.72522,-10.01746 12.28557,-16.82178 7.74936,-6.99332 17.76682,-10.58449 10.01747,-3.59116 20.97998,-3.59116 12.47457,0 21.736,3.59116 9.45044,3.40216 16.06574,8.31639 l -10.39548,26.0832 h -0.94504 q -3.96918,-3.02414 -10.20647,-5.67026 -6.04828,-2.64612 -12.8526,-2.45711 -4.72522,0 -8.88341,1.32306 -4.15819,1.32306 -7.37134,4.15819 -3.21315,2.64612 -5.10324,6.80432 -1.89008,4.15819 -1.89008,10.01746 0,5.29224 1.70108,9.45044 1.89008,3.96918 4.91422,6.80431 3.21315,2.83513 7.18234,4.3472 4.15819,1.32306 8.88341,1.32306 7.18233,0 13.0416,-2.07909 5.85927,-2.0791 11.15152,-5.67027 z" />
        <path
           inkscape:connector-curvature="0"
           id="path5538"
           style="fill:#ffffff;stroke:none;stroke-width:1.6141957"
           d="m 859.3214,874.91512 h -31.75347 l -4.53621,12.28556 h -37.42373 l 42.71598,-98.28454 h 30.24139 l 43.094,98.28454 H 864.23563 Z M 833.61621,850.911 h 19.08988 l -8.88341,-24.38212 h -0.75603 z" />
        <path
           inkscape:connector-curvature="0"
           id="path5540"
           style="fill:#ffffff;stroke:none;stroke-width:1.6141957"
           d="m 972.93337,817.26745 v 69.93323 h -34.96661 v -69.93323 h -29.48537 v -28.35131 h 93.74831 v 28.35131 z" />
        <path
           inkscape:connector-curvature="0"
           id="path5542"
           style="fill:#ffffff;stroke:none;stroke-width:1.6141957"
           d="m 1063.0167,887.20068 h -35.9116 v -98.28454 h 35.9116 z" />
        <path
           inkscape:connector-curvature="0"
           id="path5544"
           style="fill:#ffffff;stroke:none;stroke-width:1.6141957"
           d="m 1199.9742,838.62544 q 0,10.01746 -4.1582,19.4679 -3.9692,9.26143 -11.3405,16.44376 -7.3713,6.99332 -17.9558,11.34052 -10.3955,4.15819 -23.4371,4.15819 -13.2306,0 -23.8151,-3.96918 -10.3955,-3.96918 -17.7668,-10.96251 -7.1824,-6.99332 -11.1515,-16.25475 -3.7802,-9.45044 -3.7802,-20.22393 0,-12.09656 4.5362,-21.73601 4.7252,-9.82845 12.4746,-16.63277 7.9383,-6.80431 18.1448,-10.39548 10.3955,-3.78017 21.736,-3.78017 10.9625,0 21.169,3.59116 10.3955,3.59117 18.1448,10.39548 7.7494,6.80432 12.4746,16.63277 4.7252,9.63945 4.7252,21.92502 z m -36.4787,-0.37802 q 0,-5.48125 -1.701,-9.63945 -1.7011,-4.15819 -4.5363,-6.99332 -2.8351,-2.83513 -6.6153,-4.15819 -3.5911,-1.51207 -7.7493,-1.51207 -3.9692,0 -7.7494,1.32306 -3.7802,1.32306 -6.6153,4.15819 -2.8351,2.64612 -4.5362,6.99332 -1.7011,4.1582 -1.7011,9.82846 0,10.01746 5.6703,16.06574 5.6703,5.85927 15.1207,5.85927 8.5054,0 14.3647,-5.48125 6.0482,-5.67026 6.0482,-16.44376 z" />
        <path
           inkscape:connector-curvature="0"
           id="path5546"
           style="fill:#ffffff;stroke:none;stroke-width:1.6141957"
           d="m 1290.595,834.84526 h 1.5121 v -45.92912 h 34.3996 v 98.28454 h -22.6811 l -45.3621,-45.17309 h -1.512 v 45.17309 h -34.3996 v -98.28454 h 22.681 z" />
      </g>
    </g>
  </g>
</svg>
