<svg xmlns="http://www.w3.org/2000/svg" width="360" height="360" xmlns:xlink="http://www.w3.org/1999/xlink"><defs><linearGradient id="a"><stop offset="0" stop-color="#15af90"/><stop offset="1" stop-color="#a2dfd3"/></linearGradient><linearGradient id="b" x1="59.75" x2="409.75" y1="-352.888" y2="-352.888" xlink:href="#a" gradientUnits="userSpaceOnUse" gradientTransform="translate(-54.75 1220.5)"/></defs><g transform="translate(0 -692.362)"><rect width="349.5" height="349.5" x="5.25" y="692.862" fill="url(#b)" stroke="#000" rx="35" ry="35" stroke-linejoin="round"/><path fill="#fff" d="M121.35 733.4h9.85v5.6h-16.35v-25.26h6.5v19.65z" style="line-height:125%;-inkscape-font-specification:'Concourse C4, Semi-Bold';text-align:center" font-weight="600" font-family="Concourse C4" letter-spacing="0" word-spacing="0" text-anchor="middle"/><path fill="#fff" d="M163.16 726.5q0 2.64-.95 5.04-.94 2.35-2.74 4.15-1.75 1.74-4.25 2.8-2.44 1-5.5 1-2.94 0-5.44-1-2.5-1-4.3-2.76-1.8-1.75-2.8-4.1-1-2.4-1-5.15 0-3 1.1-5.46 1.15-2.45 3-4.15 1.9-1.76 4.35-2.7 2.46-.96 5.1-.96 2.6 0 5 .95 2.46.9 4.3 2.6 1.9 1.7 3 4.2 1.16 2.44 1.16 5.5zm-6.65-.1q0-1.66-.54-3-.55-1.4-1.5-2.36-.95-1-2.2-1.55-1.2-.56-2.6-.56-1.3 0-2.55.5-1.2.5-2.14 1.45-.95.94-1.55 2.34-.54 1.35-.54 3.15 0 1.44.45 2.8.46 1.3 1.3 2.34.86 1 2.16 1.65 1.3.6 3.05.6 1.4 0 2.6-.5 1.26-.5 2.16-1.46.9-.95 1.4-2.3.55-1.4.55-3.15z" style="line-height:125%;-inkscape-font-specification:'Concourse C4, Semi-Bold';text-align:center" font-weight="600" font-family="Concourse C4" letter-spacing="0" word-spacing="0" text-anchor="middle"/><path fill="#fff" d="M189.83 731.6l1.9 4.84q-1.95 1.5-4.45 2.3-2.5.75-5.3.75-3 0-5.5-1-2.45-1.06-4.2-2.8-1.7-1.76-2.65-4.06-.95-2.35-.95-5 0-3.2 1.15-5.65 1.15-2.5 3.05-4.2 1.95-1.76 4.4-2.66 2.45-.9 5.05-.9 3.05 0 5.45.95 2.45.9 3.95 2.2l-1.95 5h-.2q-1.15-1-3.05-1.76-1.85-.75-4.15-.7-1.35 0-2.6.5-1.25.45-2.25 1.4-.95.95-1.55 2.4-.6 1.4-.6 3.3 0 1.75.55 3.1.55 1.3 1.5 2.25.95.94 2.25 1.44 1.35.45 2.9.45 2.1 0 3.7-.5 1.65-.56 3.3-1.7h.25z" style="line-height:125%;-inkscape-font-specification:'Concourse C4, Semi-Bold';text-align:center" font-weight="600" font-family="Concourse C4" letter-spacing="0" word-spacing="0" text-anchor="middle"/><path fill="#fff" d="M213.2 734.54h-9.05L202.5 739h-6.9l10.95-25.26h4.2L221.8 739h-6.9l-1.7-4.46zm-7.3-4.75h5.55l-2.65-7.26h-.3l-2.6 7.25z" style="line-height:125%;-inkscape-font-specification:'Concourse C4, Semi-Bold';text-align:center" font-weight="600" font-family="Concourse C4" letter-spacing="0" word-spacing="0" text-anchor="middle"/><path fill="#fff" d="M233.46 733.4h9.85v5.6h-16.34v-25.26h6.5v19.65z" style="line-height:125%;-inkscape-font-specification:'Concourse C4, Semi-Bold';text-align:center" font-weight="600" font-family="Concourse C4" letter-spacing="0" word-spacing="0" text-anchor="middle"/><path fill="#fff" d="M63.43 791.3l7.7 9.94v.25h-7.7l-6.9-9.76h-.65v9.75h-6.5v-25.26h10.05q2.1 0 3.85.6 1.75.55 3 1.65 1.3 1.1 2 2.64.7 1.5.7 3.35 0 2.4-1.45 4.14-1.4 1.7-4.1 2.45v.2zm-1.4-6.8q0-1.4-.95-2.16-.9-.75-2.35-.75h-2.85v5.74h3q1.35 0 2.25-.7.9-.75.9-2.15z" style="line-height:125%;-inkscape-font-specification:'Concourse C4, Semi-Bold';text-align:center" font-weight="600" font-family="Concourse C4" letter-spacing="0" word-spacing="0" text-anchor="middle"/><path fill="#fff" d="M95.3 781.84H83.9v4.2h9.9v5.4h-9.9v4.45h11.75v5.6H77.4v-25.26h17.9v5.6z" style="line-height:125%;-inkscape-font-specification:'Concourse C4, Semi-Bold';text-align:center" font-weight="600" font-family="Concourse C4" letter-spacing="0" word-spacing="0" text-anchor="middle"/><path fill="#fff" d="M122.48 785q0 1.3-.5 2.7-.5 1.34-1.7 2.5-1.15 1.14-3.05 1.9-1.9.74-4.75.74h-2.6v8.65h-6.5v-25.26h9.3q2.15 0 3.95.6 1.8.6 3.1 1.75 1.3 1.1 2 2.74.75 1.6.75 3.65zm-6.95-.16q0-1.35-.95-2.3-.95-.95-2.6-.95h-2.1v6.24h2.25q1.5 0 2.45-.75.95-.8.95-2.26z" style="line-height:125%;-inkscape-font-specification:'Concourse C4, Semi-Bold';text-align:center" font-weight="600" font-family="Concourse C4" letter-spacing="0" word-spacing="0" text-anchor="middle"/><path fill="#fff" d="M154.62 789q0 2.64-.95 5.04-.95 2.35-2.75 4.15-1.75 1.74-4.25 2.8-2.45 1-5.5 1-2.95 0-5.45-1t-4.3-2.76q-1.8-1.75-2.8-4.1-1-2.4-1-5.15 0-3 1.1-5.46 1.15-2.45 3-4.15 1.9-1.76 4.35-2.7 2.45-.96 5.1-.96 2.6 0 5 .95 2.45.9 4.3 2.6 1.9 1.7 3 4.2 1.15 2.44 1.15 5.5zm-6.65-.1q0-1.66-.55-3-.55-1.4-1.5-2.36-.95-1-2.2-1.55-1.2-.56-2.6-.56-1.3 0-2.55.5-1.2.5-2.15 1.45-.95.94-1.55 2.34-.55 1.35-.55 3.15 0 1.44.45 2.8.45 1.3 1.3 2.34.85 1 2.15 1.65 1.3.6 3.05.6 1.4 0 2.6-.5 1.25-.5 2.15-1.46.9-.95 1.4-2.3.55-1.4.55-3.15z" style="line-height:125%;-inkscape-font-specification:'Concourse C4, Semi-Bold';text-align:center" font-weight="600" font-family="Concourse C4" letter-spacing="0" word-spacing="0" text-anchor="middle"/><path fill="#fff" d="M162.1 793.84q1.64 1.05 3.74 1.85 2.1.8 4.3.8 1.75 0 2.5-.66.8-.65.8-1.4 0-1.15-1.25-1.8-1.2-.65-3.66-1.8-1.9-.9-3.3-1.7-1.35-.85-2.25-1.75-.86-.96-1.3-2-.4-1.06-.4-2.4 0-1.36.54-2.66.6-1.3 1.75-2.3 1.14-1.05 2.9-1.65 1.74-.66 4.1-.66 2.64 0 4.9.65 2.24.64 4 1.74l-1.5 5.2q-1.9-1-3.76-1.55-1.85-.56-3.6-.56-1.45 0-2.1.55-.65.5-.65 1.2 0 .4.2.74.24.3.8.7.54.35 1.5.85 1 .5 2.44 1.14 2.05.95 3.45 1.9 1.4.9 2.24 1.9.9 1 1.25 2.1.4 1.1.4 2.4 0 1.8-.8 3.15-.76 1.34-2.16 2.24-1.35.9-3.25 1.35-1.9.5-4.16.5-3.3 0-5.85-.9-2.56-.96-3.7-2l1.8-5.26z" style="line-height:125%;-inkscape-font-specification:'Concourse C4, Semi-Bold';text-align:center" font-weight="600" font-family="Concourse C4" letter-spacing="0" word-spacing="0" text-anchor="middle"/><path fill="#fff" d="M194.36 801.5h-6.5v-25.26h6.5v25.25z" style="line-height:125%;-inkscape-font-specification:'Concourse C4, Semi-Bold';text-align:center" font-weight="600" font-family="Concourse C4" letter-spacing="0" word-spacing="0" text-anchor="middle"/><path fill="#fff" d="M215.9 781.84v19.65h-6.5v-19.66h-7.6v-5.6h21.7v5.6h-7.6z" style="line-height:125%;-inkscape-font-specification:'Concourse C4, Semi-Bold';text-align:center" font-weight="600" font-family="Concourse C4" letter-spacing="0" word-spacing="0" text-anchor="middle"/><path fill="#fff" d="M255.2 789q0 2.64-.95 5.04-.95 2.35-2.75 4.15-1.75 1.74-4.25 2.8-2.45 1-5.5 1-2.95 0-5.45-1t-4.3-2.76q-1.8-1.75-2.8-4.1-1-2.4-1-5.15 0-3 1.1-5.46 1.15-2.45 3-4.15 1.9-1.76 4.35-2.7 2.45-.96 5.1-.96 2.6 0 5 .95 2.45.9 4.3 2.6 1.9 1.7 3 4.2 1.15 2.44 1.15 5.5zm-6.65-.1q0-1.66-.55-3-.55-1.4-1.5-2.36-.95-1-2.2-1.55-1.2-.56-2.6-.56-1.3 0-2.55.5-1.2.5-2.15 1.45-.95.94-1.55 2.34-.55 1.35-.55 3.15 0 1.44.45 2.8.45 1.3 1.3 2.34.85 1 2.15 1.65 1.3.6 3.05.6 1.4 0 2.6-.5 1.25-.5 2.15-1.46.9-.95 1.4-2.3.55-1.4.55-3.15z" style="line-height:125%;-inkscape-font-specification:'Concourse C4, Semi-Bold';text-align:center" font-weight="600" font-family="Concourse C4" letter-spacing="0" word-spacing="0" text-anchor="middle"/><path fill="#fff" d="M276.02 791.3l7.7 9.94v.25h-7.7l-6.9-9.76h-.65v9.75h-6.5v-25.26h10.05q2.1 0 3.85.6 1.75.55 3 1.65 1.3 1.1 2 2.64.7 1.5.7 3.35 0 2.4-1.45 4.14-1.4 1.7-4.1 2.45v.2zm-1.4-6.8q0-1.4-.95-2.16-.9-.75-2.35-.75h-2.85v5.74h3q1.35 0 2.25-.7.9-.75.9-2.15z" style="line-height:125%;-inkscape-font-specification:'Concourse C4, Semi-Bold';text-align:center" font-weight="600" font-family="Concourse C4" letter-spacing="0" word-spacing="0" text-anchor="middle"/><path fill="#fff" d="M298.27 785.44h.2l5-9.2h7.15l-9.1 15.35v9.9h-6.5v-9.9l-9.1-15.36h7.15l5.2 9.2z" style="line-height:125%;-inkscape-font-specification:'Concourse C4, Semi-Bold';text-align:center" font-weight="600" font-family="Concourse C4" letter-spacing="0" word-spacing="0" text-anchor="middle"/><rect width="339" height="78.024" x="11.698" y="818.487" fill="#f8f8f8" stroke="#ddd" rx="4" ry="4" stroke-linecap="round" stroke-linejoin="round"/><path fill="#16af90" d="M23.5 826.43q.8.22 1.34.82.56.6.56 1.4 0 .7-.34 1.26-.33.58-.9 1-.57.38-1.35.6-.78.22-1.68.22-.72 0-1.43-.17-.7-.18-1.3-.56-.12-.1-.12-.3.02-.2.1-.4.1-.18.2-.3.15-.13.28-.06.5.3.97.43.48.1 1.14.1 1.03 0 1.68-.4.65-.43.65-1.38 0-.5-.17-.83-.15-.33-.43-.55-.28-.22-.65-.3-.37-.1-.8-.1h-.65q-.12 0-.17-.17-.05-.16-.05-.35 0-.2.05-.35.06-.16.17-.16h.7q.24 0 .5-.08.28-.08.5-.25.2-.2.35-.5.16-.32.16-.8 0-.36-.12-.63t-.32-.45q-.2-.18-.46-.27-.25-.1-.5-.1-.86 0-.94.8-.03.45-.3.6-.3.16-.63.16-.35 0-.55-.2-.2-.2-.2-.5 0-.25.2-.57.2-.33.57-.62.37-.3.9-.5t1.2-.2q.62 0 1.2.14.6.14 1.05.44.46.3.74.75.28.46.28 1.08 0 .33-.12.64-.13.3-.33.57-.2.26-.46.46-.24.2-.5.3v.27z" style="line-height:125%;-inkscape-font-specification:'Triplicate T4c, Semi-Bold';text-align:start" font-weight="600" font-family="Triplicate T4c" letter-spacing="0" word-spacing="0"/><path fill="#16af90" d="M34.28 823.12q-1.03 1.88-2 4-.93 2.12-1.5 4.3-.06.13-.4.2-.3.1-.73.1-.17 0-.38 0-.2-.03-.38-.07-.17-.04-.28-.12-.1-.07-.05-.17.42-1 .9-2.03.5-1.03 1.05-2.06.54-1.02 1.1-2 .56-.97 1.12-1.87l-.1-.2q-.5 0-1.06 0-.56.02-1.13.05-.55 0-1.08.04-.52.02-.94.04-.28 0-.4-.2-.15-.2-.17-.47 0-.27.1-.48.1-.23.32-.23.1 0 .37 0 .26 0 .55.03.3 0 .62 0 .3 0 .5 0h3.5q.18 0 .3.14.13.12.2.3.05.17.04.36 0 .2-.08.32z" style="line-height:125%;-inkscape-font-specification:'Triplicate T4c, Semi-Bold';text-align:start" font-weight="600" font-family="Triplicate T4c" letter-spacing="0" word-spacing="0"/><path fill="#16af90" d="M40.32 830.67q.28 0 .6-.13.34-.13.62-.44.3-.3.5-.8t.2-1.25q0-1-.4-1.6-.36-.6-1.13-.62-.93-.03-1.66.64v3.14q0 .5.37.8.38.27.92.27zm-3.25-7.97l-1.02.2q-.1 0-.16-.16-.05-.18-.08-.38-.02-.22 0-.4 0-.18.1-.2.2-.03.58-.08.38-.06.7-.12.13-.03.36-.07.23-.06.45-.1.24-.05.43-.07.18-.05.26-.06.1-.02.28.08.2.1.15.4-.12.92-.13 1.84-.02.9-.02 1.55l.2.1q.3-.26.8-.4.5-.17 1.05-.17.6 0 1.16.2.55.2.98.62.43.4.7 1.05.25.62.25 1.48 0 .92-.37 1.62-.35.7-.9 1.15-.56.46-1.24.7-.66.22-1.28.22-.54 0-.87-.1-.32-.06-.5-.16l-.33.3q-.06.05-.32.03-.27-.02-.54-.08-.28-.06-.5-.16-.2-.1-.17-.2.03-.06.04-.22.04-.16.05-.35 0-.22 0-.42.02-.2.02-.35v-7.22l-.15-.1z" style="line-height:125%;-inkscape-font-specification:'Triplicate T4c, Semi-Bold';text-align:start" font-weight="600" font-family="Triplicate T4c" letter-spacing="0" word-spacing="0"/><path fill="#16af90" d="M49.58 830.67q.27 0 .6-.13.34-.13.6-.44.3-.3.5-.8t.2-1.25q0-1-.38-1.6-.37-.6-1.14-.62-.94-.03-1.67.64v3.14q0 .5.37.8.37.27.9.27zm-3.26-7.97l-1.02.2q-.1 0-.15-.16-.05-.18-.08-.38-.02-.22 0-.4.02-.18.1-.2.2-.03.58-.08.38-.06.7-.12.13-.03.36-.07.25-.06.46-.1.23-.05.42-.07.18-.05.26-.06.1-.02.3.08.2.1.15.4-.14.92-.15 1.84-.02.9-.02 1.55l.2.1q.3-.26.8-.4.5-.17 1.06-.17.6 0 1.14.2.56.2 1 .62.42.4.68 1.05.27.62.27 1.48 0 .92-.38 1.62-.36.7-.9 1.15-.57.46-1.25.7-.66.22-1.28.22-.55 0-.87-.1-.33-.06-.5-.16l-.34.3q-.07.05-.33.03-.26-.02-.54-.08t-.5-.16q-.2-.1-.16-.2 0-.06.03-.22t.04-.35q.02-.22.02-.42 0-.2 0-.35v-7.22l-.14-.1z" style="line-height:125%;-inkscape-font-specification:'Triplicate T4c, Semi-Bold';text-align:start" font-weight="600" font-family="Triplicate T4c" letter-spacing="0" word-spacing="0"/><path fill="#16af90" d="M62.58 826.75q0 1.18-.33 2.1-.32.92-.88 1.56-.54.65-1.26 1-.72.32-1.52.32-.74 0-1.42-.35-.66-.36-1.17-.98-.5-.62-.8-1.45-.3-.83-.3-1.78 0-1.15.26-2.14.26-1 .75-1.7.5-.72 1.23-1.13.74-.4 1.68-.4.72 0 1.4.3.67.3 1.2.9.53.6.85 1.55.33.93.33 2.2zm-2.07.1q0-1.06-.1-1.8-.12-.72-.35-1.2-.6 1.6-1.18 3.16-.57 1.56-1.12 3.12.38.44.9.44.36 0 .7-.22.33-.24.6-.7.25-.46.4-1.16.16-.7.16-1.64zm-3.2 2.47q.57-1.54 1.1-3.05.57-1.53 1.1-3.08-.3-.24-.76-.24-.45 0-.8.3-.33.27-.56.8-.22.52-.34 1.26-.1.74-.1 1.66 0 1.45.35 2.34z" style="line-height:125%;-inkscape-font-specification:'Triplicate T4c, Semi-Bold';text-align:start" font-weight="600" font-family="Triplicate T4c" letter-spacing="0" word-spacing="0"/><path fill="#16af90" d="M65.4 822.43q.03-.24.15-.33.14-.1.36-.1h3.6q.3 0 .53-.03.23-.03.44-.08.2-.04.26.18.1.22.04.5-.05.28-.27.5-.2.24-.64.24h-3.04l-.1 2.3.2.12q.17-.1.5-.16.35-.06.8-.06.7 0 1.28.2.6.17 1.05.53.45.35.7.9.26.55.26 1.28 0 .67-.33 1.27-.34.6-.96 1.04-.6.46-1.44.72-.83.26-1.84.26-.3 0-.63-.03-.35-.04-.66-.1-.3-.04-.57-.1-.26-.08-.4-.17-.14-.1-.14-.3.02-.23.1-.45.07-.2.2-.36.15-.16.27-.1.26.1.8.23.5.1 1.2.1.47 0 .87-.13.42-.14.73-.4.32-.27.5-.63.2-.38.2-.84 0-.5-.15-.84-.12-.33-.34-.54-.2-.2-.48-.3-.28-.1-.56-.1-.64 0-1.08.2-.4.18-.6.32-.1.05-.24 0-.16-.07-.33-.17-.14-.1-.27-.22-.12-.12-.12-.2l.2-4.17z" style="line-height:125%;-inkscape-font-specification:'Triplicate T4c, Semi-Bold';text-align:start" font-weight="600" font-family="Triplicate T4c" letter-spacing="0" word-spacing="0"/><path fill="#16af90" d="M78.48 828.4q-.93.03-1.53.14-.6.1-.96.28-.36.16-.52.38-.14.2-.14.44 0 .38.25.6.25.23.84.23.54 0 1.05-.2.5-.2.94-.63l.04-1.24zm.07 2.5l-.2-.05q-.55.33-1.2.52-.65.2-1.36.2-.66 0-1.14-.14-.46-.13-.77-.36-.3-.24-.46-.53-.13-.3-.13-.63 0-1.14 1.24-1.77 1.25-.64 3.94-.7v-.26q.04-.8-.24-1.16-.26-.36-.8-.36-.5 0-.86.18-.36.16-.57.3-.07.05-.1.2 0 .14 0 .24 0 .34-.33.45-.32.1-.7.1-.36 0-.64-.2-.26-.2-.23-.7.02-.2.06-.4.06-.22.3-.33.37-.18.86-.34.5-.16 1.03-.28.54-.1 1.05-.2.53-.06.9-.06.48 0 .88.15t.7.42q.3.28.47.66.18.37.18.82l-.13 3.5.94-.27q.14-.04.24.12.1.15.16.37.04.2 0 .4-.02.2-.17.24-.14.05-.45.14-.3.07-.66.16-.34.1-.67.16-.33.1-.48.13-.13.02-.27 0-.12 0-.15-.13l-.25-.56z" style="line-height:125%;-inkscape-font-specification:'Triplicate T4c, Semi-Bold';text-align:start" font-weight="600" font-family="Triplicate T4c" letter-spacing="0" word-spacing="0"/><path d="M17.88 841.87q-.38 0-.66-.22-.26-.23-.26-.62 0-.4.15-.7.16-.32.38-.54.25-.24.53-.35.3-.13.6-.13.37 0 .62.22.26.23.26.67 0 .7-.43 1.2-.4.47-1.17.47zm-.64 2.38l-3-.05q-.14 0-.2-.1-.06-.13-.04-.26.04-.15.13-.26.1-.13.25-.13.76-.02 1.76-.1 1.03-.12 1.85-.25.23-.04.38-.02t.22.1q.1.07.1.16.03.1.03.2v7l3.2.25q.15 0 .23.14.07.1.05.26 0 .15-.08.28-.07.1-.2.1h-7.7q-.14 0-.22-.1-.05-.12-.05-.25 0-.14.05-.26.08-.1.2-.13l3.04-.26v-6.33z" style="line-height:110.00000238%;-inkscape-font-specification:'Triplicate T4c, Normal';text-align:start" font-family="Triplicate T4c" letter-spacing="0" word-spacing="0"/><path d="M30.3 851.6q-.15 0-.22-.12-.07-.13-.07-.26 0-.15.08-.26.07-.14.22-.15l.8-.1q.08-1.03.08-2.1t0-1.93q0-.78-.13-1.28t-.4-.8q-.23-.3-.6-.4-.36-.13-.83-.13-.5 0-1.13.28-.63.28-1.22.7v5.55l1.6.17q.17.02.24.15.08.13.06.28 0 .15-.1.28-.07.1-.2.1h-3.74q-.15 0-.23-.1-.04-.13-.04-.28 0-.15.07-.28.08-.13.2-.15l.7-.13v-6.3l-1.2.04q-.16 0-.24-.13-.08-.13-.1-.3 0-.16.06-.3.07-.16.22-.16.54-.05 1.02-.12.5-.1 1.12-.24.24-.08.28.13l.1.76.16.1q.9-.62 1.67-.9.8-.3 1.44-.3.56 0 1.04.2.5.2.9.6.38.4.58 1.03.22.6.2 1.43 0 1.1-.05 2.26-.04 1.15-.1 2.2l1.3.16q.14.02.2.15.05.12.03.26 0 .13-.07.25-.07.1-.18.1H30.3z" style="line-height:110.00000238%;-inkscape-font-specification:'Triplicate T4c, Normal';text-align:start" font-family="Triplicate T4c" letter-spacing="0" word-spacing="0"/><path d="M41.84 844.48q-.36-.26-.9-.4-.55-.14-1.1-.14-.5 0-1 .2t-.9.58q-.38.37-.64.97-.25.56-.25 1.35 0 .9.2 1.56.23.64.6 1.07.38.4.9.6.54.2 1.15.2.43 0 .97-.1.56-.14.97-.44v-5.45zm.1 6.66l-.23-.13q-.57.36-1.15.55-.57.17-1.4.17-.8 0-1.48-.34-.67-.33-1.17-.9-.5-.6-.77-1.37-.28-.77-.28-1.64 0-.94.36-1.74t.96-1.37q.6-.6 1.36-.93.76-.34 1.6-.34.55 0 1.13.1.6.1 1.03.3l.05-3.45-1.5.15q-.2 0-.3-.12-.1-.13-.12-.3 0-.16.05-.3.08-.16.2-.18.58-.1 1.18-.28.6-.16 1.13-.33.15-.04.26-.08.12-.04.2-.04.18 0 .25.13.1.1.08.42l-.13 4.7v6.4h1.3q.1 0 .15.12.05.13.07.3.02.15-.03.3-.03.13-.14.16-.6.17-1.23.34-.64.17-1 .28-.12.04-.23.04-.1 0-.13-.15l-.04-.46z" style="line-height:110.00000238%;-inkscape-font-specification:'Triplicate T4c, Normal';text-align:start" font-family="Triplicate T4c" letter-spacing="0" word-spacing="0"/><path d="M48.37 847.5q0 1.57.67 2.34.67.74 1.9.74.57 0 1.17-.07.62-.07 1.18-.18.58-.1 1.06-.24.5-.15.88-.3.1-.05.22.04.13.07.2.2.08.13.08.26.02.14-.08.2-.48.23-1.08.46-.57.22-1.2.4-.62.17-1.27.27-.64.12-1.26.12-.97 0-1.73-.3-.73-.3-1.26-.82-.5-.54-.76-1.25-.26-.72-.26-1.56 0-1.15.4-2.04.38-.9 1-1.53.63-.63 1.4-.96.8-.34 1.6-.34.9 0 1.6.28.76.3 1.28.8.54.53.82 1.3.3.74.3 1.67 0 .24-.12.4-.1.12-.37.14h-6.36zm5.26-.86q-.03-.53-.18-1.03-.13-.5-.43-.9-.28-.4-.75-.65-.44-.24-1.1-.24-.6 0-1.1.23-.5.22-.9.6-.36.4-.58.93-.23.5-.25 1.08h5.28z" style="line-height:110.00000238%;-inkscape-font-specification:'Triplicate T4c, Normal';text-align:start" font-family="Triplicate T4c" letter-spacing="0" word-spacing="0"/><path d="M61.35 843.14q.15 0 .2.13.08.1.08.26 0 .15-.07.28-.08.14-.2.16l-.85.1 1.95 2.28h.2l2.02-2.3-1.1-.1q-.17-.02-.24-.13-.08-.12-.08-.27.02-.15.1-.26.07-.13.22-.13H67q.12 0 .2.15.07.12.07.28 0 .15-.07.3-.08.13-.2.13-.43 0-.8.12-.34.1-.7.43l-2.17 2.48v.13l3.14 3.3q.24.18.47.25.24.07.48.07.15 0 .2.13.06.13.04.28 0 .15-.07.28-.07.13-.18.13h-3.6q-.16 0-.23-.12-.07-.13-.07-.26 0-.15.06-.26.06-.14.2-.15l1.1-.1-2.4-2.67h-.24l-2.2 2.65 1.44.1q.17.03.24.16.08.1.06.26 0 .15-.1.28-.07.1-.2.1h-3.63q-.15 0-.22-.12-.06-.13-.06-.28 0-.17.07-.3.07-.15.2-.17.32 0 .58-.06.26-.08.46-.28l2.67-3.04v-.2l-2.8-3.07-1.12-.1q-.15 0-.2-.12-.06-.14-.06-.28 0-.17.06-.28.07-.13.2-.13h3.7z" style="line-height:110.00000238%;-inkscape-font-specification:'Triplicate T4c, Normal';text-align:start" font-family="Triplicate T4c" letter-spacing="0" word-spacing="0"/><path d="M71.77 850.34q0-.7.47-1.17.48-.47 1.26-.47.75 0 1.2.47.48.46.48 1.17 0 .78-.5 1.2-.5.4-1.2.4-.78 0-1.24-.4-.47-.42-.47-1.2z" style="line-height:110.00000238%;-inkscape-font-specification:'Triplicate T4c, Normal';text-align:start" font-family="Triplicate T4c" letter-spacing="0" word-spacing="0"/><path d="M79.8 840.05q-.13 0-.18-.12-.06-.1-.06-.26 0-.15.04-.28.04-.14.1-.15.33-.08.74-.15.4-.1.78-.2.35-.08.67-.18.32-.1.44-.14.2-.08.3.05.14.1.12.32l-.2 4.93.26.17q.24-.17.6-.36.4-.2.87-.38.46-.17.94-.28.5-.1.95-.1 1.22 0 1.83.9.64.88.67 2.57.02 1.22-.03 2.2-.06 1-.13 2.02l1.13.2q.17.04.22.17.07.1.05.23 0 .13-.1.25-.07.1-.18.1h-3.6q-.14 0-.2-.1-.07-.13-.07-.28 0-.15.07-.26.1-.13.25-.15l.98-.2q.04-.43.06-.95.02-.52.04-1.04 0-.53 0-1.05t0-.97q0-.8-.13-1.28-.12-.5-.34-.77-.22-.28-.54-.37-.33-.1-.72-.1-.42 0-.83.1-.4.1-.77.26-.35.15-.67.35-.3.2-.5.4v5.43l1.46.2q.17 0 .24.14.08.13.06.28 0 .13-.1.26-.07.1-.2.1H80.5q-.15 0-.23-.1-.07-.12-.1-.25 0-.14.08-.27.08-.14.24-.17l.76-.18V840l-1.45.05z" style="line-height:110.00000238%;-inkscape-font-specification:'Triplicate T4c, Normal';text-align:start" font-family="Triplicate T4c" letter-spacing="0" word-spacing="0"/><path d="M93.9 843.32l.1-2.1q.02-.2.22-.28.2-.1.53-.1.3 0 .54.1.2.07.2.26l-.1 2.12h3.55q.2-.02.28.13.1.15.1.34 0 .17-.1.34-.07.15-.2.15h-3.67l-.22 4.6q0 1.5 1.1 1.5.52 0 1.35-.06.85-.07 1.95-.26.13-.02.22.1.1.1.13.24.06.13.04.27-.02.12-.13.16-.34.13-.9.28-.56.15-1.18.28-.6.13-1.17.2-.56.1-.93.1-1.06 0-1.58-.6-.5-.6-.4-1.77l.2-5.06h-1.57q-.1 0-.17-.14-.03-.15-.03-.33 0-.2.03-.34.06-.18.15-.18h1.66z" style="line-height:110.00000238%;-inkscape-font-specification:'Triplicate T4c, Normal';text-align:start" font-family="Triplicate T4c" letter-spacing="0" word-spacing="0"/><path d="M105.96 851.6q-.16 0-.24-.12-.07-.13-.07-.28 0-.15.05-.28.08-.13.2-.15l.68-.13v-4.9q0-.52-.1-.85-.1-.35-.27-.54-.16-.2-.38-.27-.23-.1-.47-.1-.5 0-.82.14-.3.13-.46.3v6.2l.74.13q.18.04.25.17.08.13.06.28 0 .13-.08.26-.08.1-.2.1h-2.58q-.15 0-.22-.1-.06-.12-.06-.26 0-.15.08-.28.07-.13.2-.17l.47-.1v-6.32l-.94.05q-.15 0-.23-.1-.07-.14-.1-.3 0-.16.07-.3.07-.15.22-.2.48-.08.9-.25.46-.17.9-.34.08-.02.16 0 .1.05.1.14l.17.38.28.1q.32-.2.67-.38.38-.2 1-.2.47 0 .87.23t.67.66q.4-.38 1-.64.63-.27 1.16-.27.6 0 1.02.28.43.27.7.72.27.44.38 1.02.1.58.1 1.2v4.5l.83.18q.15.04.2.17.06.1.04.23 0 .13-.07.25-.06.1-.17.1h-2.74q-.16 0-.2-.1-.07-.12-.07-.25 0-.14.04-.26.06-.13.15-.16l.63-.12v-4.53q0-.67-.13-1.06-.1-.42-.3-.64-.18-.23-.44-.3-.25-.07-.5-.07-.36 0-.75.13-.37.15-.52.3.06.17.08.43.04.26.04.54.02.26.02.5 0 .23 0 .32v4.3l.65.2q.14.02.2.15.05.12.03.26 0 .13-.07.25-.06.1-.17.1h-2.63z" style="line-height:110.00000238%;-inkscape-font-specification:'Triplicate T4c, Normal';text-align:start" font-family="Triplicate T4c" letter-spacing="0" word-spacing="0"/><path d="M116.5 840l-2.04.08q-.16.02-.27-.1-.1-.14-.14-.3-.02-.16.05-.3.1-.13.25-.15.77-.1 1.4-.2.63-.1 1.4-.44.37-.14.6.12.27.25.23.54v10.1q-.03.65.2.96.27.3.9.3.56 0 1.2-.1.66-.1 1.3-.3.15-.03.24.06.1.1.13.23.05.14.04.27-.03.13-.14.2-.38.15-.82.32-.43.14-.92.27-.46.1-.93.17-.47.07-.88.07-1.94 0-1.83-1.98v-9.8z" style="line-height:110.00000238%;-inkscape-font-specification:'Triplicate T4c, Normal';text-align:start" font-family="Triplicate T4c" letter-spacing="0" word-spacing="0"/><path d="M17.1 870.95v-7.47h-1.5q-.22.02-.3-.1-.1-.1-.1-.25 0-.17.07-.3.07-.15.2-.2.36-.13.66-.32.3-.18.55-.45.25-.3.43-.75.2-.46.33-1.15.02-.12.22-.15.2-.04.43 0 .24.03.4.15.2.1.18.28-.04.26-.06.8-.02.57-.02 1.34v8.58l2.33.18q.18 0 .23.15.08.15.08.32t-.1.32q-.06.15-.2.15h-5.98q-.14 0-.2-.15-.05-.15-.05-.32t.06-.32q.07-.15.2-.15l2.16-.18z" style="line-height:110.00000238%;-inkscape-font-specification:'Triplicate T4c, Normal';text-align:start" font-family="Triplicate T4c" letter-spacing="0" word-spacing="0"/><path d="M28.26 870.95v-7.47h-1.5q-.22.02-.3-.1-.1-.1-.1-.25 0-.17.07-.3.08-.15.2-.2.36-.13.66-.32.3-.18.55-.45.24-.3.42-.75.2-.46.32-1.15 0-.12.2-.15.22-.04.44 0 .24.03.4.15.2.1.18.28-.04.26-.06.8-.02.57-.02 1.34v8.58l2.33.18q.17 0 .22.15.07.15.07.32t-.1.32q-.07.15-.2.15h-6q-.12 0-.18-.15-.07-.15-.07-.32t.06-.32q.06-.15.18-.15l2.17-.18z" style="line-height:110.00000238%;-inkscape-font-specification:'Triplicate T4c, Normal';text-align:start" font-family="Triplicate T4c" letter-spacing="0" word-spacing="0"/><path d="M44.07 866.37q.23 0 .32.2.08.2.06.47 0 .24-.13.45-.13.2-.35.2h-8q-.25 0-.38-.2-.1-.22-.13-.46 0-.26.1-.47.1-.2.3-.2h8.2z" style="line-height:110.00000238%;-inkscape-font-specification:'Triplicate T4c, Normal';text-align:start" font-family="Triplicate T4c" letter-spacing="0" word-spacing="0"/><path d="M50.28 865.68q.65-1.02 1.55-1.64.9-.63 1.93-.63.82 0 1.27.38.47.36.47.88 0 .48-.28.72-.26.24-.67.24-.28 0-.45-.1-.17-.12-.34-.25-.16-.13-.4-.24-.2-.1-.56-.1-.34 0-.7.2-.38.22-.74.55-.33.34-.63.76-.3.43-.48.88V871l3.2.25q.13.02.18.15.06.13.04.27 0 .15-.06.28-.04.12-.15.12H47.3q-.13 0-.2-.12-.06-.13-.06-.28 0-.14.06-.26.05-.12.17-.13l1.5-.2v-5.93l-2.16-.28q-.02 0-.06-.1-.04-.14-.04-.27 0-.16.04-.3.04-.12.13-.12.3-.02.65-.08.36-.05.7-.1.36-.06.66-.12.32-.05.54-.1.26-.07.34 0 .1.06.13.2l.25 1.74.33.06z" style="line-height:110.00000238%;-inkscape-font-specification:'Triplicate T4c, Normal';text-align:start" font-family="Triplicate T4c" letter-spacing="0" word-spacing="0"/><path d="M59.53 867.97q.02 1.58.67 2.35.67.74 1.9.74.57 0 1.17-.07.6-.1 1.17-.2.58-.1 1.06-.24.5-.15.88-.3.1-.06.22.04.13.07.2.2.08.13.08.26.02.13-.07.2-.48.23-1.07.45-.58.24-1.2.42-.63.17-1.28.26-.63.12-1.25.12-.96 0-1.73-.3-.74-.3-1.26-.82-.5-.54-.76-1.25-.26-.72-.26-1.56 0-1.14.4-2.03.38-.9 1-1.53.63-.62 1.4-.96.8-.33 1.6-.33.9 0 1.62.3.74.27 1.26.8.54.5.82 1.27.3.75.3 1.68 0 .24-.1.4-.1.12-.4.14l-6.35-.03zm5.27-.86q-.04-.5-.2-1-.12-.53-.42-.92-.28-.4-.74-.65-.45-.25-1.12-.25-.6 0-1.1.23-.48.23-.87.62-.38.4-.6.9-.22.52-.24 1.1h5.3z" style="line-height:110.00000238%;-inkscape-font-specification:'Triplicate T4c, Normal';text-align:start" font-family="Triplicate T4c" letter-spacing="0" word-spacing="0"/><path d="M69.6 869.44q0-.17.18-.24.18-.1.4-.1.23 0 .42.06.18.08.18.2 0 .2.13.73.16.63.8.94.67.32 1.76.32.58 0 1.07-.13.5-.13.85-.34.36-.23.54-.5.2-.3.2-.64 0-.6-.53-.9-.55-.35-1.86-.4-1.97-.1-2.94-.7-.95-.63-.95-1.65 0-.6.28-1.1.3-.5.8-.85t1.16-.54q.66-.2 1.38-.2.73 0 1.32.14.6.1.86.2.17.02.35 0 .22 0 .48-.05t.33.08q.1.13.15.43l.18 1.72q.02.17-.15.26-.17.1-.37.1-.2.03-.38-.02-.2-.06-.2-.2-.04-.17-.08-.32-.04-.17-.1-.36-.14-.48-.8-.78-.68-.3-1.58-.3-1.1 0-1.73.45-.6.45-.6 1.02 0 .38.16.62.15.23.5.38.32.15.85.22.52.08 1.24.1.77.05 1.44.22.67.15 1.18.45.5.27.78.7.3.43.3 1 0 .66-.32 1.16-.32.5-.87.86-.53.34-1.3.53-.76.17-1.65.17-.7 0-1.3-.08-.57-.07-1-.17-.24-.03-.44 0-.18.02-.4.02-.52 0-.54-.52l-.15-2z" style="line-height:110.00000238%;-inkscape-font-specification:'Triplicate T4c, Normal';text-align:start" font-family="Triplicate T4c" letter-spacing="0" word-spacing="0"/><path d="M80.2 868.12q0-1.12.33-2 .35-.87.97-1.46.6-.62 1.47-.93.87-.32 1.92-.32.82 0 1.57.3.76.25 1.34.8.6.5.92 1.3.34.8.34 1.85 0 .95-.3 1.8-.28.8-.86 1.42-.56.62-1.4.97-.85.36-1.97.36-.9 0-1.7-.25-.8-.24-1.4-.74-.56-.5-.9-1.26-.33-.76-.33-1.82zm1.63-.67q0 2 .73 2.92.73.9 2.07.9 1.43 0 2.14-.82.72-.84.72-2.3 0-.83-.23-1.54-.2-.7-.58-1.2-.38-.5-.9-.78-.52-.3-1.14-.3-.6 0-1.13.22-.5.2-.9.62-.37.4-.6.97-.2.57-.2 1.32z" style="line-height:110.00000238%;-inkscape-font-specification:'Triplicate T4c, Normal';text-align:start" font-family="Triplicate T4c" letter-spacing="0" word-spacing="0"/><path d="M98.12 864.84H97q-.17 0-.26-.1-.08-.12-.08-.27 0-.15.06-.28.08-.14.22-.18.43-.1.97-.26.57-.16 1.04-.3.1-.05.16-.05.23 0 .3.2.1.18.1.5v6.6l1.05-.25q.17-.04.28.07.12.1.17.28.06.15.02.3-.02.15-.15.2l-1.92.82q-.22.1-.33.08-.1-.02-.2-.17l-.2-.4-.23-.1q-.72.4-1.43.54-.7.13-1.26.13-.55 0-1.13-.15-.56-.17-1-.54-.45-.37-.75-.98-.28-.63-.28-1.58 0-1.98.17-4h-1.05q-.17 0-.26-.1-.1-.1-.14-.24-.02-.15.03-.28.05-.15.2-.18.4-.12.95-.27.56-.16 1.1-.35.03-.02.16-.05.16-.06.2-.06.17 0 .22.3.08.25.04.86-.04.5-.06 1.08-.02.58-.03 1.14-.02.56-.04 1.02 0 .45 0 .67 0 1.3.47 2 .46.68 1.58.68.18 0 .48-.03.32-.06.65-.15.37-.1.7-.24.34-.17.62-.4v-5.5z" style="line-height:110.00000238%;-inkscape-font-specification:'Triplicate T4c, Normal';text-align:start" font-family="Triplicate T4c" letter-spacing="0" word-spacing="0"/><path d="M106.1 865.68q.65-1.02 1.54-1.64.9-.63 1.94-.63.82 0 1.26.38.47.36.47.88 0 .48-.27.72-.26.24-.67.24-.28 0-.45-.1-.16-.12-.32-.25-.17-.13-.4-.24-.2-.1-.57-.1-.33 0-.7.2-.37.22-.73.55-.33.34-.63.76-.3.43-.48.88V871l3.2.25q.13.02.2.15.04.13.02.27 0 .15-.05.28-.06.12-.17.12h-6.16q-.1 0-.2-.12-.04-.13-.04-.28 0-.14.05-.26.07-.12.18-.13l1.5-.2v-5.93l-2.15-.28q-.04 0-.08-.1-.03-.14-.03-.27 0-.16.03-.3.04-.12.13-.12.3-.02.65-.08.36-.05.7-.1.37-.06.66-.12.3-.05.53-.1.26-.07.34 0 .1.06.13.2l.26 1.74.33.06z" style="line-height:110.00000238%;-inkscape-font-specification:'Triplicate T4c, Normal';text-align:start" font-family="Triplicate T4c" letter-spacing="0" word-spacing="0"/><path d="M119.73 865.74q-.1-.64-.43-1-.33-.38-1.15-.38-.63 0-1.15.17-.52.16-.92.57-.37.4-.6 1.05-.2.63-.2 1.58 0 .85.25 1.47.26.6.68 1.02.44.4 1 .58.56.2 1.17.2 1.2 0 2-.35.85-.33 1.35-.65.15-.1.3.02.17.1.28.3.1.2.1.4.03.2-.12.32-.9.6-2 .88-1.12.28-2.1.28-1.02 0-1.84-.3-.8-.32-1.4-.86-.57-.56-.88-1.28-.3-.73-.3-1.57 0-1.22.37-2.1.37-.92 1-1.52.6-.6 1.38-.87.8-.3 1.67-.3.52 0 1 .12.45.1.82.24.37.15.65.32.27.15.44.28.35.26.35.8v.82q0 .44-.32.63-.3.18-.6.18-.4 0-.55-.2-.15-.2-.25-.84z" style="line-height:110.00000238%;-inkscape-font-specification:'Triplicate T4c, Normal';text-align:start" font-family="Triplicate T4c" letter-spacing="0" word-spacing="0"/><path d="M126.5 867.97q.02 1.58.67 2.35.67.74 1.9.74.58 0 1.17-.07.62-.1 1.18-.2.57-.1 1.06-.24.5-.15.87-.3.1-.06.23.04.13.07.2.2.08.13.08.26t-.08.2q-.48.23-1.08.45-.58.24-1.2.42-.62.17-1.27.26-.64.12-1.25.12-.97 0-1.73-.3-.75-.3-1.27-.82-.5-.54-.76-1.25-.26-.72-.26-1.56 0-1.14.4-2.03.38-.9 1-1.53.63-.62 1.4-.96.8-.33 1.6-.33.88 0 1.6.3.75.27 1.28.8.54.5.8 1.27.3.75.3 1.68 0 .24-.1.4-.1.12-.37.14l-6.37-.03zm5.27-.86q-.04-.5-.2-1-.12-.53-.4-.92-.3-.4-.76-.65-.44-.25-1.1-.25-.6 0-1.1.23-.5.23-.88.62-.37.4-.6.9-.22.52-.24 1.1h5.3z" style="line-height:110.00000238%;-inkscape-font-specification:'Triplicate T4c, Normal';text-align:start" font-family="Triplicate T4c" letter-spacing="0" word-spacing="0"/><path d="M136.58 869.44q0-.17.17-.24.2-.1.4-.1.24 0 .42.06.2.08.2.2 0 .2.12.73.14.63.8.94.64.32 1.74.32.58 0 1.06-.13.5-.13.86-.34.35-.23.54-.5.2-.3.2-.64 0-.6-.54-.9-.54-.35-1.84-.4-1.98-.1-2.94-.7-.95-.63-.95-1.65 0-.6.28-1.1.3-.5.8-.85t1.16-.54q.67-.2 1.4-.2.72 0 1.32.14.6.1.86.2.16.02.35 0 .2 0 .45-.05.26-.05.34.08.08.13.12.43l.2 1.72q0 .17-.16.26-.17.1-.38.1-.2.03-.4-.02-.17-.06-.2-.2-.03-.17-.07-.32-.02-.17-.08-.36-.15-.48-.82-.78-.67-.3-1.56-.3-1.12 0-1.73.45-.6.45-.6 1.02 0 .38.16.62.17.23.5.38.34.15.86.22.52.08 1.25.1.78.05 1.45.22.67.15 1.17.45.5.27.77.7.3.43.3 1 0 .66-.32 1.16-.3.5-.87.86-.54.34-1.3.53-.77.17-1.66.17-.7 0-1.3-.08-.56-.07-1-.17-.23-.03-.44 0-.18.02-.4.02-.53 0-.55-.52l-.15-2z" style="line-height:110.00000238%;-inkscape-font-specification:'Triplicate T4c, Normal';text-align:start" font-family="Triplicate T4c" letter-spacing="0" word-spacing="0"/><path d="M156.12 873.57q.2.28.06.5-.1.25-.37.32-.23.1-.55-.03-.3-.1-.48-.48-1.87-3.66-3.82-7.34-1.96-3.7-3.87-7.25-.15-.32-.04-.54.13-.23.37-.3.25-.1.53.02.3.1.47.44 1.86 3.63 3.8 7.34 1.95 3.7 3.92 7.3z" style="line-height:110.00000238%;-inkscape-font-specification:'Triplicate T4c, Normal';text-align:start" font-family="Triplicate T4c" letter-spacing="0" word-spacing="0"/><path d="M167.03 865.9q0 1.53-.34 2.74-.34 1.2-.96 2.05-.6.83-1.43 1.27-.83.43-1.82.43-.87 0-1.6-.43-.72-.44-1.26-1.2-.52-.77-.82-1.78-.3-1.03-.3-2.2 0-1.5.24-2.8.26-1.3.78-2.25.54-.95 1.36-1.5.84-.53 1.98-.53.83 0 1.6.4.76.37 1.32 1.15.58.76.9 1.92.35 1.14.35 2.7zm-1.68.1q0-1.47-.2-2.52-.2-1.04-.58-1.7-1.68 4.6-3.18 9.1.54.6 1.25.6.52 0 1-.3.5-.27.86-.9.4-.65.6-1.7.25-1.06.25-2.58zm-4.56 3.96q.8-2.23 1.57-4.47.77-2.26 1.5-4.5-.5-.35-1.1-.35-.7 0-1.22.4-.48.4-.8 1.1-.3.72-.46 1.74-.16 1.02-.16 2.28 0 1.25.17 2.2.17.93.5 1.58z" style="line-height:110.00000238%;-inkscape-font-specification:'Triplicate T4c, Normal';text-align:start" font-family="Triplicate T4c" letter-spacing="0" word-spacing="0"/><path d="M173.37 870.95v-7.47h-1.5q-.22.02-.3-.1-.1-.1-.1-.25 0-.17.07-.3.08-.15.2-.2.36-.13.66-.32.32-.18.56-.45.24-.3.43-.75.17-.46.3-1.15.02-.12.23-.15.2-.04.42 0 .25.03.4.15.2.1.18.28-.04.26-.06.8 0 .57 0 1.34v8.58l2.3.18q.18 0 .24.15.08.15.08.32t-.1.32q-.07.15-.2.15h-6q-.12 0-.18-.15-.05-.15-.05-.32t.05-.32q.08-.15.2-.15l2.17-.18z" style="line-height:110.00000238%;-inkscape-font-specification:'Triplicate T4c, Normal';text-align:start" font-family="Triplicate T4c" letter-spacing="0" word-spacing="0"/><path d="M189.18 866.37q.23 0 .32.2.1.2.07.47 0 .24-.13.45-.13.2-.35.2h-8q-.26 0-.4-.2-.1-.22-.12-.46 0-.26.1-.47.1-.2.3-.2h8.2z" style="line-height:110.00000238%;-inkscape-font-specification:'Triplicate T4c, Normal';text-align:start" font-family="Triplicate T4c" letter-spacing="0" word-spacing="0"/><path d="M197.87 865.74q-.1-.64-.43-1-.33-.38-1.15-.38-.65 0-1.17.17-.52.16-.9.57-.38.4-.6 1.05-.2.63-.2 1.58 0 .85.23 1.47.26.6.7 1.02.42.4.98.58.56.2 1.17.2 1.2 0 2.02-.35.84-.33 1.34-.65.15-.1.3.02.17.1.28.3.1.2.1.4.03.2-.12.32-.9.6-2 .88-1.13.28-2.1.28-1.02 0-1.84-.3-.82-.32-1.4-.86-.57-.56-.9-1.28-.3-.73-.3-1.57 0-1.22.4-2.1.36-.92.97-1.52.62-.6 1.4-.87.8-.3 1.66-.3.53 0 1 .12.46.1.83.24.37.15.65.32.28.15.45.28.35.26.35.8v.82q0 .44-.3.63-.3.18-.6.18-.42 0-.57-.2-.14-.2-.23-.84z" style="line-height:110.00000238%;-inkscape-font-specification:'Triplicate T4c, Normal';text-align:start" font-family="Triplicate T4c" letter-spacing="0" word-spacing="0"/><path d="M203.56 869.44q0-.17.17-.24.18-.1.4-.1.23 0 .42.06.18.08.18.2 0 .2.13.73.15.63.8.94.65.32 1.75.32.6 0 1.07-.13.5-.13.86-.34.35-.23.54-.5.2-.3.2-.64 0-.6-.54-.9-.53-.35-1.84-.4-1.98-.1-2.95-.7-.95-.63-.95-1.65 0-.6.28-1.1.3-.5.8-.85t1.16-.54q.67-.2 1.4-.2.72 0 1.3.14.6.1.87.2.18.02.36 0 .2 0 .47-.05.26-.05.33.08.1.13.13.43l.18 1.72q.02.17-.15.26-.17.1-.37.1-.2.03-.4-.02-.18-.06-.2-.2-.03-.17-.07-.32-.05-.17-.1-.36-.15-.48-.82-.78-.67-.3-1.57-.3-1.1 0-1.72.45-.6.45-.6 1.02 0 .38.16.62.16.23.5.38.33.15.85.22.52.08 1.24.1.78.05 1.45.22.66.15 1.17.45.5.27.78.7.3.43.3 1 0 .66-.32 1.16-.32.5-.88.86-.54.34-1.3.53-.76.17-1.66.17-.7 0-1.3-.08-.57-.07-1-.17-.24-.03-.44 0-.2.02-.4.02-.53 0-.55-.52l-.14-2z" style="line-height:110.00000238%;-inkscape-font-specification:'Triplicate T4c, Normal';text-align:start" font-family="Triplicate T4c" letter-spacing="0" word-spacing="0"/><path d="M214.72 869.44q0-.17.17-.24.18-.1.4-.1.22 0 .4.06.2.08.2.2 0 .2.12.73.15.63.8.94.66.32 1.76.32.57 0 1.06-.13.5-.13.85-.34.35-.23.53-.5.2-.3.2-.64 0-.6-.53-.9-.54-.35-1.85-.4-1.97-.1-2.94-.7-.94-.63-.94-1.65 0-.6.28-1.1.3-.5.8-.85t1.16-.54q.67-.2 1.4-.2.72 0 1.32.14.6.1.85.2.17.02.36 0 .2 0 .46-.05.25-.05.33.08.1.13.13.43l.18 1.72q.02.17-.15.26-.17.1-.38.1-.2.03-.4-.02-.18-.06-.2-.2-.03-.17-.07-.32-.04-.17-.1-.36-.14-.48-.8-.78-.68-.3-1.58-.3-1.1 0-1.73.45-.6.45-.6 1.02 0 .38.16.62.16.23.5.38.33.15.86.22.52.08 1.24.1.78.05 1.45.22.67.15 1.18.45.5.27.78.7.3.43.3 1 0 .66-.3 1.16-.33.5-.88.86-.54.34-1.3.53-.77.17-1.66.17-.7 0-1.3-.08-.57-.07-1-.17-.24-.03-.44 0-.2.02-.4.02-.53 0-.55-.52l-.15-2z" style="line-height:110.00000238%;-inkscape-font-specification:'Triplicate T4c, Normal';text-align:start" font-family="Triplicate T4c" letter-spacing="0" word-spacing="0"/><path d="M234.26 873.57q.2.28.06.5-.1.25-.38.32-.24.1-.55-.03-.3-.1-.5-.48-1.86-3.66-3.8-7.34-1.97-3.7-3.9-7.25-.14-.32-.02-.54.13-.23.37-.3.24-.1.52.02.3.1.47.44 1.86 3.63 3.8 7.34 1.95 3.7 3.92 7.3z" style="line-height:110.00000238%;-inkscape-font-specification:'Triplicate T4c, Normal';text-align:start" font-family="Triplicate T4c" letter-spacing="0" word-spacing="0"/><path d="M237.05 869.44q0-.17.16-.24.2-.1.42-.1.23 0 .4.06.2.08.2.2 0 .2.13.73.15.63.8.94.65.32 1.75.32.58 0 1.06-.13.5-.13.86-.34.35-.23.54-.5.2-.3.2-.64 0-.6-.54-.9-.54-.35-1.84-.4-1.97-.1-2.94-.7-.95-.63-.95-1.65 0-.6.27-1.1.3-.5.8-.85t1.15-.54q.67-.2 1.4-.2.72 0 1.32.14.6.1.86.2.16.02.35 0 .2 0 .47-.05.26-.05.33.08.1.13.13.43l.2 1.72q0 .17-.16.26-.17.1-.37.1-.2.03-.4-.02-.18-.06-.2-.2-.04-.17-.07-.32-.04-.17-.1-.36-.15-.48-.82-.78-.67-.3-1.56-.3-1.12 0-1.73.45-.62.45-.62 1.02 0 .38.17.62.17.23.5.38.34.15.86.22.52.08 1.25.1.78.05 1.45.22.67.15 1.17.45.5.27.8.7.28.43.28 1 0 .66-.3 1.16-.33.5-.9.86-.53.34-1.3.53-.75.17-1.65.17-.7 0-1.28-.08-.58-.07-1-.17-.25-.03-.45 0-.2.02-.4.02-.54 0-.55-.52l-.15-2z" style="line-height:110.00000238%;-inkscape-font-specification:'Triplicate T4c, Normal';text-align:start" font-family="Triplicate T4c" letter-spacing="0" word-spacing="0"/><path d="M250.18 863.8l.1-2.1q0-.2.22-.28.2-.1.52-.1t.54.1q.22.07.22.26l-.1 2.12h3.55q.18-.02.28.13.1.15.1.34 0 .18-.1.35-.07.15-.2.15h-3.67l-.22 4.6q0 1.5 1.1 1.5.53 0 1.37-.05.85-.08 1.95-.26.13-.02.23.1.1.08.13.23.05.12.03.27 0 .13-.12.17-.35.13-.9.28-.57.15-1.18.28-.6.13-1.18.2-.55.1-.93.1-1.07 0-1.6-.6-.5-.6-.4-1.77l.23-5.06h-1.6q-.1 0-.15-.13-.04-.15-.04-.34 0-.18.04-.33.05-.17.14-.17h1.66z" style="line-height:110.00000238%;-inkscape-font-specification:'Triplicate T4c, Normal';text-align:start" font-family="Triplicate T4c" letter-spacing="0" word-spacing="0"/><path d="M262.03 863.6q.15 0 .2.14.08.12.08.26 0 .15-.06.28-.08.12-.2.12l-.9.1q.43 1.27 1.06 2.6.63 1.3 1.42 2.56h.24q.22-.4.48-1.06.28-.65.52-1.36.26-.72.45-1.43.2-.7.3-1.26l-1.3-.1q-.18 0-.26-.12-.07-.13-.07-.28.02-.17.1-.3.07-.13.22-.13h3.36q.13 0 .2.14.07.12.07.28 0 .15-.07.28-.07.13-.2.15l-.77.1q-.32 1.04-.77 2.25-.45 1.2-1 2.45-.53 1.23-1.14 2.44-.6 1.18-1.24 2.2-.35.6-.65.98-.27.4-.57.6-.3.25-.63.35-.32.1-.73.1-.63 0-1.1-.23-.48-.2-.48-.58 0-.08.05-.22.07-.13.18-.28.1-.15.26-.26.14-.12.3-.12.2 0 .33.08.13.07.26.17t.32.17q.2.08.5.08.25 0 .56-.4.34-.37.67-.9.34-.55.62-1.14.28-.6.44-1.02-1.14-1.63-2.03-3.38-.9-1.75-1.5-3.4l-1.18-.1q-.16 0-.22-.12-.06-.13-.06-.28.02-.14.08-.26.07-.13.18-.13h3.65z" style="line-height:110.00000238%;-inkscape-font-specification:'Triplicate T4c, Normal';text-align:start" font-family="Triplicate T4c" letter-spacing="0" word-spacing="0"/><path d="M272.77 860.5l-2.03.06q-.17.02-.28-.1-.1-.14-.13-.3-.02-.16.05-.3.08-.14.25-.16.76-.1 1.4-.18.63-.1 1.4-.45.36-.13.6.13.26.24.23.54v10.1q-.04.64.2.96.26.3.9.3.55 0 1.2-.1.66-.1 1.3-.3.14-.03.23.06.08.1.12.23.06.12.04.25-.02.13-.13.18-.37.17-.82.34-.42.15-.9.28-.47.1-.93.16-.47.1-.88.1-1.94 0-1.83-2v-9.8z" style="line-height:110.00000238%;-inkscape-font-specification:'Triplicate T4c, Normal';text-align:start" font-family="Triplicate T4c" letter-spacing="0" word-spacing="0"/><path d="M282.78 867.97q0 1.58.67 2.35.67.74 1.9.74.57 0 1.17-.07.6-.1 1.17-.2t1.05-.24q.5-.15.88-.3.1-.06.22.04.13.07.2.2.08.13.08.26.02.13-.08.2-.48.23-1.08.45-.57.24-1.2.42-.62.17-1.27.26-.63.12-1.25.12-.97 0-1.73-.3-.74-.3-1.27-.82-.5-.54-.76-1.25-.27-.72-.27-1.56 0-1.14.4-2.03.38-.9 1-1.53.63-.62 1.4-.96.8-.33 1.6-.33.9 0 1.6.3.76.27 1.28.8.55.5.83 1.27.3.75.3 1.68 0 .24-.12.4-.08.12-.36.14l-6.36-.03zm5.26-.86q-.03-.5-.18-1-.13-.53-.43-.92-.28-.4-.75-.65-.44-.25-1.1-.25-.6 0-1.1.23-.5.23-.9.62-.36.4-.58.9-.22.52-.24 1.1h5.28z" style="line-height:110.00000238%;-inkscape-font-specification:'Triplicate T4c, Normal';text-align:start" font-family="Triplicate T4c" letter-spacing="0" word-spacing="0"/><path d="M295.02 870.82q0-.7.46-1.17.5-.47 1.27-.47.74 0 1.2.47.47.46.47 1.17 0 .78-.5 1.2-.48.4-1.2.4-.77 0-1.24-.4-.46-.42-.46-1.2z" style="line-height:110.00000238%;-inkscape-font-specification:'Triplicate T4c, Normal';text-align:start" font-family="Triplicate T4c" letter-spacing="0" word-spacing="0"/><path d="M309.5 865.74q-.1-.64-.43-1-.34-.38-1.16-.38-.62 0-1.14.17-.52.16-.9.57-.4.4-.6 1.05-.22.63-.22 1.58 0 .85.25 1.47.25.6.68 1.02.42.4.98.58.56.2 1.17.2 1.2 0 2.02-.35.83-.33 1.34-.65.13-.1.28.02.17.1.28.3.1.2.1.4.03.2-.12.32-.9.6-2 .88-1.12.28-2.1.28-1.02 0-1.83-.3-.8-.32-1.4-.86-.57-.56-.88-1.28-.3-.73-.3-1.57 0-1.22.37-2.1.36-.92.98-1.52.6-.6 1.4-.87.8-.3 1.65-.3.52 0 1 .12.45.1.82.24.38.15.66.32.3.15.45.28.36.26.36.8v.82q0 .44-.3.63-.3.18-.6.18-.42 0-.56-.2-.15-.2-.25-.84z" style="line-height:110.00000238%;-inkscape-font-specification:'Triplicate T4c, Normal';text-align:start" font-family="Triplicate T4c" letter-spacing="0" word-spacing="0"/><path d="M315.18 869.44q0-.17.17-.24.2-.1.4-.1.23 0 .42.06.2.08.2.2 0 .2.12.73.13.63.8.94.64.32 1.74.32.57 0 1.06-.13.5-.13.85-.34.36-.23.54-.5.2-.3.2-.64 0-.6-.54-.9-.54-.35-1.84-.4-1.98-.1-2.95-.7-.95-.63-.95-1.65 0-.6.28-1.1.3-.5.8-.85t1.16-.54q.67-.2 1.4-.2.72 0 1.32.14.6.1.85.2.17.02.36 0 .2 0 .45-.05.26-.05.34.08.08.13.12.43l.18 1.72q.02.17-.15.26-.16.1-.37.1-.2.03-.4-.02-.17-.06-.2-.2-.03-.17-.07-.32-.02-.17-.08-.36-.15-.48-.82-.78-.67-.3-1.56-.3-1.12 0-1.73.45-.6.45-.6 1.02 0 .38.16.62.17.23.5.38.34.15.86.22.52.08 1.25.1.78.05 1.45.22.67.15 1.17.45.5.27.77.7.3.43.3 1 0 .66-.32 1.16-.3.5-.87.86-.54.34-1.3.53-.77.17-1.66.17-.7 0-1.3-.08-.56-.07-1-.17-.23-.03-.44 0-.18.02-.4.02-.53 0-.55-.52l-.15-2z" style="line-height:110.00000238%;-inkscape-font-specification:'Triplicate T4c, Normal';text-align:start" font-family="Triplicate T4c" letter-spacing="0" word-spacing="0"/><path d="M326.35 869.44q0-.17.16-.24.2-.1.42-.1.23 0 .4.06.2.08.2.2 0 .2.13.73.15.63.8.94.65.32 1.75.32.58 0 1.06-.13.5-.13.86-.34.35-.23.54-.5.2-.3.2-.64 0-.6-.54-.9-.54-.35-1.84-.4-1.98-.1-2.94-.7-.95-.63-.95-1.65 0-.6.27-1.1.3-.5.8-.85t1.15-.54q.67-.2 1.4-.2.72 0 1.32.14.6.1.86.2.16.02.35 0 .2 0 .46-.05.28-.05.35.08.1.13.13.43l.2 1.72q0 .17-.16.26-.17.1-.38.1-.2.03-.4-.02-.17-.06-.2-.2-.03-.17-.07-.32-.03-.17-.1-.36-.14-.48-.8-.78-.68-.3-1.57-.3-1.12 0-1.73.45-.62.45-.62 1.02 0 .38.17.62.17.23.5.38.34.15.86.22.52.08 1.25.1.78.05 1.45.22.67.15 1.17.45.5.27.78.7.3.43.3 1 0 .66-.32 1.16-.3.5-.86.86-.54.34-1.3.53-.77.17-1.66.17-.7 0-1.28-.08-.58-.07-1-.17-.25-.03-.46 0-.18.02-.4.02-.53 0-.55-.52l-.16-2z" style="line-height:110.00000238%;-inkscape-font-specification:'Triplicate T4c, Normal';text-align:start" font-family="Triplicate T4c" letter-spacing="0" word-spacing="0"/><path d="M17.1 891.43v-7.47h-1.5q-.22.02-.3-.1-.1-.1-.1-.25 0-.16.07-.3.07-.14.2-.2.36-.13.66-.3.3-.2.55-.48.25-.3.43-.74.2-.47.33-1.16.02-.1.22-.14.2-.04.43 0 .24.03.4.14.2.1.18.28-.04.26-.06.82-.02.56-.02 1.32v8.6l2.33.17q.18 0 .23.16.08.15.08.32t-.1.3q-.06.16-.2.16h-5.98q-.14 0-.2-.15-.05-.15-.05-.32t.06-.32q.07-.15.2-.15l2.16-.17z" style="line-height:110.00000238%;-inkscape-font-specification:'Triplicate T4c, Normal';text-align:start" font-family="Triplicate T4c" letter-spacing="0" word-spacing="0"/><path d="M28.26 891.43v-7.47h-1.5q-.22.02-.3-.1-.1-.1-.1-.25 0-.16.07-.3.08-.14.2-.2.36-.13.66-.3.3-.2.55-.48.24-.3.42-.74.2-.47.32-1.16 0-.1.2-.14.22-.04.44 0 .24.03.4.14.2.1.18.28-.04.26-.06.82-.02.56-.02 1.32v8.6l2.33.17q.17 0 .22.16.07.15.07.32t-.1.3q-.07.16-.2.16h-6q-.12 0-.18-.15-.07-.15-.07-.32t.06-.32q.06-.15.18-.15l2.17-.17z" style="line-height:110.00000238%;-inkscape-font-specification:'Triplicate T4c, Normal';text-align:start" font-family="Triplicate T4c" letter-spacing="0" word-spacing="0"/><path d="M44.07 886.85q.23 0 .32.2.08.2.06.47 0 .24-.13.44t-.35.2h-8q-.25 0-.38-.2-.1-.2-.13-.44 0-.26.1-.47.1-.2.3-.2h8.2z" style="line-height:110.00000238%;-inkscape-font-specification:'Triplicate T4c, Normal';text-align:start" font-family="Triplicate T4c" letter-spacing="0" word-spacing="0"/><path d="M50.28 886.16q.65-1.03 1.55-1.64.9-.63 1.93-.63.82 0 1.27.36.47.35.47.87 0 .5-.28.73-.26.24-.67.24-.28 0-.45-.1-.17-.12-.34-.25-.16-.13-.4-.24-.2-.1-.56-.1-.34 0-.7.22-.38.2-.74.54-.33.33-.63.76t-.48.88v3.68l3.2.24q.13.02.18.15.06.13.04.28 0 .15-.06.28-.04.1-.15.1H47.3q-.13 0-.2-.1-.06-.13-.06-.28 0-.15.06-.26.05-.14.17-.16l1.5-.18v-5.94l-2.16-.28q-.02 0-.06-.1-.04-.14-.04-.27 0-.15.04-.28.04-.14.13-.14.3-.02.65-.08.36-.05.7-.1.36-.07.66-.12.32-.06.54-.1.26-.07.34 0 .1.06.13.2l.25 1.74.33.06z" style="line-height:110.00000238%;-inkscape-font-specification:'Triplicate T4c, Normal';text-align:start" font-family="Triplicate T4c" letter-spacing="0" word-spacing="0"/><path d="M59.53 888.45q.02 1.58.67 2.34.67.74 1.9.74.57 0 1.17-.08.6-.07 1.17-.18.58-.1 1.06-.24.5-.15.88-.3.1-.06.22.03.13.08.2.2.08.14.08.27.02.13-.07.2-.48.23-1.07.45-.58.22-1.2.4-.63.17-1.28.26-.63.1-1.25.1-.96 0-1.73-.28-.74-.3-1.26-.82-.5-.54-.76-1.25-.26-.72-.26-1.55 0-1.14.4-2.03.38-.92 1-1.53.63-.64 1.4-.98.8-.33 1.6-.33.9 0 1.62.27.74.28 1.26.8.54.52.82 1.28.3.75.3 1.68 0 .24-.1.4-.1.12-.4.14l-6.35-.02zm5.27-.86q-.04-.53-.2-1.03-.12-.52-.42-.9-.28-.42-.74-.67-.45-.24-1.12-.24-.6 0-1.1.23-.48.2-.87.6-.38.4-.6.9-.22.5-.24 1.1h5.3z" style="line-height:110.00000238%;-inkscape-font-specification:'Triplicate T4c, Normal';text-align:start" font-family="Triplicate T4c" letter-spacing="0" word-spacing="0"/><path d="M69.6 889.92q0-.17.18-.24.18-.1.4-.1.23-.02.42.06.18.07.18.2 0 .2.13.73.16.63.8.95.67.32 1.76.32.58 0 1.07-.13.5-.12.85-.33.36-.22.54-.5.2-.3.2-.64 0-.6-.53-.9-.55-.34-1.86-.4-1.97-.1-2.94-.7-.95-.62-.95-1.64 0-.63.28-1.13.3-.5.8-.84.5-.35 1.16-.54.66-.2 1.38-.2.73 0 1.32.12.6.1.86.18.17.04.35.02.22-.02.48-.05.26-.04.33.1.1.12.15.42l.18 1.7q.02.17-.15.26-.17.1-.37.1-.2.03-.38-.02-.2-.06-.2-.2-.04-.18-.08-.33-.04-.15-.1-.34-.14-.48-.8-.78-.68-.3-1.58-.3-1.1 0-1.73.45-.6.44-.6 1.02 0 .37.16.62.15.24.5.4.32.14.85.2.52.08 1.24.12.77.03 1.44.2.67.15 1.18.44.5.28.78.7.3.44.3 1.02 0 .65-.32 1.15-.32.5-.87.87-.53.35-1.3.54-.76.17-1.65.17-.7 0-1.3-.07-.57-.08-1-.17-.24-.04-.44 0-.18.02-.4.02-.52 0-.54-.52l-.15-2z" style="line-height:110.00000238%;-inkscape-font-specification:'Triplicate T4c, Normal';text-align:start" font-family="Triplicate T4c" letter-spacing="0" word-spacing="0"/><path d="M80.2 888.6q0-1.12.33-2 .35-.87.97-1.47.6-.6 1.47-.93.87-.3 1.92-.3.82 0 1.57.27.76.26 1.34.8.6.52.92 1.32.34.77.34 1.83 0 .95-.3 1.8-.28.8-.86 1.42-.56.62-1.4.97-.85.35-1.97.35-.9 0-1.7-.24-.8-.24-1.4-.74-.56-.52-.9-1.28-.33-.76-.33-1.82zm1.63-.67q0 2 .73 2.92.73.9 2.07.9 1.43 0 2.14-.83.72-.83.72-2.3 0-.82-.23-1.53-.2-.72-.58-1.22-.38-.5-.9-.78-.52-.3-1.14-.3-.6 0-1.13.22-.5.2-.9.62-.37.4-.6.96-.2.58-.2 1.33z" style="line-height:110.00000238%;-inkscape-font-specification:'Triplicate T4c, Normal';text-align:start" font-family="Triplicate T4c" letter-spacing="0" word-spacing="0"/><path d="M98.12 885.32H97q-.17 0-.26-.1-.08-.12-.08-.27 0-.15.06-.28.08-.13.22-.17.43-.1.97-.26.57-.17 1.04-.32.1-.03.16-.03.23 0 .3.17.1.2.1.5v6.6l1.05-.25q.17-.03.28.08.12.1.17.28.06.15.02.3-.02.14-.15.2l-1.92.82q-.22.1-.33.07-.1 0-.2-.16l-.2-.38-.23-.1q-.72.4-1.43.52-.7.13-1.26.13-.55 0-1.13-.15-.56-.16-1-.54-.45-.37-.75-.98-.28-.63-.28-1.58 0-1.98.17-4h-1.05q-.17 0-.26-.1-.1-.1-.14-.24-.02-.15.03-.28.05-.15.2-.2.4-.1.95-.25.56-.17 1.1-.35.03-.02.16-.06.16-.05.2-.05.17 0 .22.27.08.26.04.87-.04.5-.06 1.08-.02.58-.03 1.14-.02.55-.04 1.02 0 .45 0 .67 0 1.3.47 2 .46.68 1.58.68.18 0 .48-.04.32-.06.65-.15.37-.1.7-.25.34-.16.62-.4v-5.48z" style="line-height:110.00000238%;-inkscape-font-specification:'Triplicate T4c, Normal';text-align:start" font-family="Triplicate T4c" letter-spacing="0" word-spacing="0"/><path d="M106.1 886.16q.65-1.03 1.54-1.64.9-.63 1.94-.63.82 0 1.26.36.47.35.47.87 0 .5-.27.73-.26.24-.67.24-.28 0-.45-.1-.16-.12-.32-.25-.17-.13-.4-.24-.2-.1-.57-.1-.33 0-.7.22-.37.2-.73.54-.33.33-.63.76t-.48.88v3.68l3.2.24q.13.02.2.15.04.13.02.28 0 .15-.05.28-.06.1-.17.1h-6.16q-.1 0-.2-.1-.04-.13-.04-.28 0-.15.05-.26.07-.14.18-.16l1.5-.18v-5.94l-2.15-.28q-.04 0-.08-.1-.03-.14-.03-.27 0-.15.03-.28.04-.14.13-.14.3-.02.65-.08.36-.05.7-.1.37-.07.66-.12.3-.06.53-.1.26-.07.34 0 .1.06.13.2l.26 1.74.33.06z" style="line-height:110.00000238%;-inkscape-font-specification:'Triplicate T4c, Normal';text-align:start" font-family="Triplicate T4c" letter-spacing="0" word-spacing="0"/><path d="M119.73 886.2q-.1-.62-.43-1-.33-.36-1.15-.36-.63 0-1.15.16-.52.17-.92.58-.37.4-.6 1.04-.2.64-.2 1.6 0 .84.25 1.46.26.6.68 1.02.44.4 1 .58.56.18 1.17.18 1.2 0 2-.33.85-.34 1.35-.65.15-.1.3.02.17.1.28.3.1.2.1.4.03.2-.12.32-.9.6-2 .87-1.12.27-2.1.27-1.02 0-1.84-.3-.8-.3-1.4-.85-.57-.56-.88-1.3-.3-.7-.3-1.55 0-1.2.37-2.1.37-.9 1-1.5.6-.6 1.38-.9.8-.28 1.67-.28.52 0 1 .1.45.1.82.24.37.15.65.32.27.15.44.28.35.26.35.8v.82q0 .44-.32.63-.3.16-.6.16-.4 0-.55-.2-.15-.2-.25-.85z" style="line-height:110.00000238%;-inkscape-font-specification:'Triplicate T4c, Normal';text-align:start" font-family="Triplicate T4c" letter-spacing="0" word-spacing="0"/><path d="M126.5 888.45q.02 1.58.67 2.34.67.74 1.9.74.58 0 1.17-.08.62-.07 1.18-.18.57-.1 1.06-.24.5-.15.87-.3.1-.06.23.03.13.08.2.2.08.14.08.27t-.08.2q-.48.23-1.08.45-.58.22-1.2.4-.62.17-1.27.26-.64.1-1.25.1-.97 0-1.73-.28-.75-.3-1.27-.82-.5-.54-.76-1.25-.26-.72-.26-1.55 0-1.14.4-2.03.38-.92 1-1.53.63-.64 1.4-.98.8-.33 1.6-.33.88 0 1.6.27.75.28 1.28.8.54.52.8 1.28.3.75.3 1.68 0 .24-.1.4-.1.12-.37.14l-6.37-.02zm5.27-.86q-.04-.53-.2-1.03-.12-.52-.4-.9-.3-.42-.76-.67-.44-.24-1.1-.24-.6 0-1.1.23-.5.2-.88.6-.37.4-.6.9-.22.5-.24 1.1h5.3z" style="line-height:110.00000238%;-inkscape-font-specification:'Triplicate T4c, Normal';text-align:start" font-family="Triplicate T4c" letter-spacing="0" word-spacing="0"/><path d="M136.58 889.92q0-.17.17-.24.2-.1.4-.1.24-.02.42.06.2.07.2.2 0 .2.12.73.14.63.8.95.64.32 1.74.32.58 0 1.06-.13.5-.12.86-.33.35-.22.54-.5.2-.3.2-.64 0-.6-.54-.9-.54-.34-1.84-.4-1.98-.1-2.94-.7-.95-.62-.95-1.64 0-.63.28-1.13.3-.5.8-.84.5-.35 1.16-.54.67-.2 1.4-.2.72 0 1.32.12.6.1.86.18.16.04.35.02.2-.02.45-.05.26-.04.34.1.08.12.12.42l.2 1.7q0 .17-.16.26-.17.1-.38.1-.2.03-.4-.02-.17-.06-.2-.2-.03-.18-.07-.33-.02-.15-.08-.34-.15-.48-.82-.78-.67-.3-1.56-.3-1.12 0-1.73.45-.6.44-.6 1.02 0 .37.16.62.17.24.5.4.34.14.86.2.52.08 1.25.12.78.03 1.45.2.67.15 1.17.44.5.28.77.7.3.44.3 1.02 0 .65-.32 1.15-.3.5-.87.87-.54.35-1.3.54-.77.17-1.66.17-.7 0-1.3-.07-.56-.08-1-.17-.23-.04-.44 0-.18.02-.4.02-.53 0-.55-.52l-.15-2z" style="line-height:110.00000238%;-inkscape-font-specification:'Triplicate T4c, Normal';text-align:start" font-family="Triplicate T4c" letter-spacing="0" word-spacing="0"/><path d="M156.12 894.05q.2.28.06.5-.1.25-.37.32-.23.1-.55-.02-.3-.1-.48-.48-1.87-3.65-3.82-7.34-1.96-3.68-3.87-7.24-.15-.34-.04-.57.13-.22.37-.3.25-.1.53.02.3.12.47.45 1.86 3.63 3.8 7.34 1.95 3.7 3.92 7.3z" style="line-height:110.00000238%;-inkscape-font-specification:'Triplicate T4c, Normal';text-align:start" font-family="Triplicate T4c" letter-spacing="0" word-spacing="0"/><path d="M167.03 886.36q0 1.55-.34 2.76-.34 1.2-.96 2.05-.6.83-1.43 1.28-.83.43-1.82.43-.87 0-1.6-.43-.72-.45-1.26-1.2-.52-.77-.82-1.78-.3-1.02-.3-2.2 0-1.5.24-2.8.26-1.3.78-2.24.54-.95 1.36-1.5.84-.53 1.98-.53.83 0 1.6.4.76.36 1.32 1.15.58.76.9 1.9.35 1.17.35 2.7zm-1.68.1q0-1.46-.2-2.5t-.58-1.7q-1.68 4.6-3.18 9.1.54.6 1.25.6.52 0 1-.3.5-.27.86-.9.4-.66.6-1.7.25-1.06.25-2.6zm-4.56 3.98q.8-2.23 1.57-4.47.77-2.25 1.5-4.5-.5-.34-1.1-.34-.7 0-1.22.4-.48.38-.8 1.1-.3.72-.46 1.74-.16 1.02-.16 2.3 0 1.24.17 2.2.17.92.5 1.57z" style="line-height:110.00000238%;-inkscape-font-specification:'Triplicate T4c, Normal';text-align:start" font-family="Triplicate T4c" letter-spacing="0" word-spacing="0"/><path d="M175.97 883.38q0-1.06-.6-1.63-.57-.6-1.4-.6-.5 0-.94.17-.44.17-.65.6v.96q0 .52-.33.75-.32.2-.64.2-.77 0-.77-.72 0-.53.26-1.06.27-.52.75-.93.5-.4 1.18-.64.67-.26 1.45-.26.6 0 1.2.2t1.07.62q.48.4.78 1 .3.6.3 1.4 0 .62-.37 1.36-.36.75-.93 1.53-.56.77-1.25 1.53-.67.77-1.32 1.4-.64.63-1.16 1.1-.52.44-.76.63l.1.26h4q.55 0 .78-.17.24-.18.4-.4.04-.06.25-.06.22 0 .43.04.22.06.37.17.15.1.1.24l-.5 1.17q-.1.25-.2.3-.13.04-.35.04h-6.66q-.12 0-.2-.16-.1-.2-.16-.4-.05-.24-.05-.44t.07-.26q1.02-.9 2.05-1.9 1.02-1 1.84-2.05.85-1.04 1.35-2.05.52-1 .52-1.9z" style="line-height:110.00000238%;-inkscape-font-specification:'Triplicate T4c, Normal';text-align:start" font-family="Triplicate T4c" letter-spacing="0" word-spacing="0"/><path d="M189.18 886.85q.23 0 .32.2.1.2.07.47 0 .24-.13.44t-.35.2h-8q-.26 0-.4-.2-.1-.2-.12-.44 0-.26.1-.47.1-.2.3-.2h8.2z" style="line-height:110.00000238%;-inkscape-font-specification:'Triplicate T4c, Normal';text-align:start" font-family="Triplicate T4c" letter-spacing="0" word-spacing="0"/><path d="M196.47 882.83q-.37 0-.65-.23-.26-.22-.26-.6 0-.4.15-.72.16-.32.38-.54.24-.22.52-.33.3-.12.6-.12.37 0 .6.22.27.22.27.67 0 .7-.42 1.17-.4.5-1.18.5zm-.63 2.38l-3.02-.05q-.13 0-.18-.1-.06-.12-.04-.25.04-.15.13-.26.1-.13.24-.13.77 0 1.77-.1 1.03-.12 1.85-.25.23-.03.38 0 .15 0 .22.08.1.07.1.17.03.1.03.18v7.02l3.18.24q.18.02.26.15.07.1.05.25 0 .15-.08.28-.08.1-.2.1h-7.7q-.14 0-.22-.1-.05-.1-.05-.24 0-.16.05-.27.08-.1.2-.13l3.04-.26v-6.33z" style="line-height:110.00000238%;-inkscape-font-specification:'Triplicate T4c, Normal';text-align:start" font-family="Triplicate T4c" letter-spacing="0" word-spacing="0"/><path d="M206.43 892.54q-.17 0-.25-.1-.07-.14-.07-.3 0-.14.07-.27t.18-.15l.7-.13v-4.9q0-.52-.12-.86-.1-.33-.26-.52-.17-.2-.4-.28-.22-.07-.46-.07-.5 0-.8.13-.32.13-.47.3v6.2l.74.12q.17.04.24.17.1.12.07.27 0 .13-.1.26-.07.1-.2.1h-2.57q-.15 0-.22-.1-.06-.1-.06-.26 0-.15.08-.28.07-.14.2-.18l.47-.1v-6.32l-.95.06q-.15 0-.22-.1-.08-.14-.1-.3 0-.16.06-.3.07-.16.22-.2.5-.1.92-.26.44-.16.87-.33.1-.04.17 0 .1.04.1.13l.18.37.28.1q.3-.2.67-.38.37-.2 1-.2.47 0 .86.23.4.22.67.65.4-.37 1-.63.64-.26 1.16-.26.6 0 1.02.27.43.26.7.7.27.45.38 1.03.1.57.1 1.2v4.5l.83.18q.14.04.2.17.05.1.03.24 0 .12-.07.23-.06.1-.17.1h-2.74q-.15 0-.2-.1-.07-.1-.07-.24 0-.16.03-.27.06-.13.15-.17l.63-.13v-4.52q0-.66-.12-1.05-.1-.4-.3-.64-.18-.2-.44-.28-.24-.08-.5-.08-.36 0-.75.15-.38.14-.53.3.06.16.07.42.04.26.04.54.02.26.02.5 0 .22 0 .3v4.32l.65.18q.15.04.2.17.06.1.04.26 0 .12-.08.23-.06.1-.17.1h-2.62z" style="line-height:110.00000238%;-inkscape-font-specification:'Triplicate T4c, Normal';text-align:start" font-family="Triplicate T4c" letter-spacing="0" word-spacing="0"/><path d="M220.38 888.32q-2.44.1-3.63.52-1.17.43-1.17 1.38 0 .7.46 1.1.5.42 1.3.42.77 0 1.6-.24.83-.26 1.37-.82l.08-2.36zm.02 3.4l-.13-.05q-.65.43-1.53.72-.87.27-1.77.27-1.47 0-2.2-.63-.76-.65-.76-1.58 0-.76.44-1.3.43-.53 1.25-.86.83-.35 2.02-.52 1.2-.17 2.7-.23l.04-.87q0-.52-.12-.9-.13-.37-.37-.6-.22-.25-.54-.36-.3-.1-.63-.1-.6 0-1.08.2-.5.18-.75.36-.1.06-.1.15 0 .1 0 .23 0 .55-.25.8-.22.22-.63.22-.33 0-.63-.17-.28-.16-.24-.8.02-.25.08-.45.08-.2.38-.36.43-.23.97-.44.55-.2 1.13-.35.58-.14 1.12-.23.54-.1.95-.1 1.12 0 1.62.75.52.73.52 1.88l-.18 5 1.45-.4q.12-.04.23.07.13.1.18.28.06.17.04.32-.02.15-.17.2-.16.06-.52.2-.35.12-.74.25-.4.13-.76.24-.33.13-.48.15-.28.07-.34-.14l-.22-.85z" style="line-height:110.00000238%;-inkscape-font-specification:'Triplicate T4c, Normal';text-align:start" font-family="Triplicate T4c" letter-spacing="0" word-spacing="0"/><path d="M234.43 893.23q0 .77-.37 1.4-.36.63-1 1.08-.66.47-1.55.72-.87.26-1.93.26-2.1 0-3.15-.73-1.06-.73-1.06-1.86 0-.64.47-1.17.46-.52 1.13-.83-.22-.13-.44-.34-.23-.22-.23-.6 0-.44.35-.8.35-.35.78-.5v-.3q-.84-.27-1.27-.87-.4-.62-.4-1.5 0-.7.24-1.3.26-.62.72-1.06.47-.45 1.14-.7.67-.25 1.5-.25.5 0 .88.08.4.1.7.24.3.13.5.32.25.17.42.3l2.18-.17q.15 0 .22.2.08.2.1.43 0 .23-.06.43-.06.2-.2.2h-1.64q.07.2.13.5.04.32.04.6 0 .6-.2 1.12-.2.52-.6.9-.4.38-1 .6-.56.23-1.34.23-.17 0-.36 0-.17 0-.3-.02-.2.1-.42.2-.2.12-.4.27-.2.13-.33.3-.12.14-.12.3 0 .1.02.18.02.1.1.18.1.05.3.1.2.03.55.03.28 0 .7 0 .43-.05.88-.1.45-.04.84-.06.4-.04.63-.04.63 0 1.15.1.52.1.9.35.37.22.57.6.2.4.2.98zm-3.32-6.3q0-1.13-.4-1.63t-1.43-.5q-1.15 0-1.6.56-.45.54-.45 1.67 0 1.14.47 1.6.47.45 1.65.45.4 0 .74-.1.33-.1.55-.33.22-.24.33-.65.13-.43.13-1.06zm1.9 6.66q0-.57-.38-.83-.37-.26-1.24-.26h-3.78q-.4.12-.7.53-.3.4-.3 1 0 .36.16.65.15.32.5.54.36.23.9.34.57.13 1.4.13 1.57 0 2.5-.6.95-.55.95-1.5z" style="line-height:110.00000238%;-inkscape-font-specification:'Triplicate T4c, Normal';text-align:start" font-family="Triplicate T4c" letter-spacing="0" word-spacing="0"/><path d="M238.13 888.45q.02 1.58.67 2.34.67.74 1.9.74.57 0 1.17-.08.6-.07 1.17-.18.58-.1 1.06-.24.5-.15.88-.3.1-.06.22.03.13.08.2.2.08.14.08.27.02.13-.08.2-.48.23-1.07.45-.58.22-1.2.4-.63.17-1.28.26-.63.1-1.25.1-.97 0-1.73-.28-.74-.3-1.27-.82-.5-.54-.76-1.25-.26-.72-.26-1.55 0-1.14.4-2.03.38-.92 1-1.53.63-.64 1.4-.98.8-.33 1.6-.33.9 0 1.6.27.76.28 1.28.8.54.52.82 1.28.3.75.3 1.68 0 .24-.12.4-.1.12-.37.14l-6.37-.02zm5.26-.86q-.04-.53-.2-1.03-.12-.52-.42-.9-.28-.42-.74-.67-.45-.24-1.12-.24-.6 0-1.1.23-.48.2-.87.6-.38.4-.6.9-.22.5-.24 1.1h5.3z" style="line-height:110.00000238%;-inkscape-font-specification:'Triplicate T4c, Normal';text-align:start" font-family="Triplicate T4c" letter-spacing="0" word-spacing="0"/><path d="M256.6 894.05q.17.28.04.5-.1.25-.37.32-.24.1-.56-.02-.3-.1-.47-.48-1.86-3.65-3.82-7.34-1.94-3.68-3.86-7.24-.15-.34-.04-.57.13-.22.37-.3.25-.1.53.02.3.12.46.45 1.86 3.63 3.8 7.34 1.95 3.7 3.93 7.3z" style="line-height:110.00000238%;-inkscape-font-specification:'Triplicate T4c, Normal';text-align:start" font-family="Triplicate T4c" letter-spacing="0" word-spacing="0"/><path d="M261.6 880.96l-2.02.08q-.17.02-.28-.1-.1-.14-.13-.3-.02-.16.05-.3.08-.14.24-.16.77-.1 1.4-.18.63-.12 1.42-.45.35-.13.6.13.25.24.2.54v10.1q-.02.64.22.96.26.3.9.3.55 0 1.2-.1.65-.1 1.3-.3.14-.03.23.06.1.1.13.22.06.13.04.26-.02.13-.13.2-.38.16-.82.33-.43.14-.9.27-.48.12-.95.17-.46.07-.87.07-1.94 0-1.82-2v-9.8z" style="line-height:110.00000238%;-inkscape-font-specification:'Triplicate T4c, Normal';text-align:start" font-family="Triplicate T4c" letter-spacing="0" word-spacing="0"/><path d="M269.96 888.6q0-1.12.33-2 .35-.87.96-1.47.6-.6 1.47-.93.88-.3 1.92-.3.84 0 1.58.27.76.26 1.34.8.58.52.9 1.32.35.77.35 1.83 0 .95-.3 1.8-.28.8-.86 1.42-.56.62-1.4.97-.85.35-1.97.35-.92 0-1.72-.24-.78-.24-1.38-.74-.57-.52-.9-1.28-.34-.76-.34-1.82zm1.63-.67q0 2 .72 2.92.73.9 2.07.9 1.42 0 2.13-.83.72-.83.72-2.3 0-.82-.22-1.53-.2-.72-.58-1.22-.37-.5-.9-.78-.5-.3-1.13-.3-.6 0-1.13.22-.5.2-.9.62-.38.4-.6.96-.2.58-.2 1.33z" style="line-height:110.00000238%;-inkscape-font-specification:'Triplicate T4c, Normal';text-align:start" font-family="Triplicate T4c" letter-spacing="0" word-spacing="0"/><path d="M290.24 893.23q0 .77-.37 1.4-.36.63-1 1.08-.66.47-1.55.72-.88.26-1.94.26-2.08 0-3.14-.73-1.07-.73-1.07-1.86 0-.64.47-1.17.47-.52 1.14-.83-.23-.13-.45-.34-.22-.22-.22-.6 0-.44.36-.8.35-.35.78-.5v-.3q-.84-.27-1.27-.87-.4-.62-.4-1.5 0-.7.24-1.3.27-.62.73-1.06.47-.45 1.14-.7.67-.25 1.5-.25.5 0 .88.08.4.1.7.24.3.13.5.32.25.17.42.3l2.18-.17q.15 0 .22.2.08.2.1.43.02.23-.06.43-.05.2-.18.2h-1.65q.07.2.13.5.05.32.05.6 0 .6-.2 1.12-.2.52-.6.9-.4.38-.98.6-.58.23-1.36.23-.16 0-.35 0-.16 0-.3-.02-.2.1-.42.2-.2.12-.4.27-.2.13-.33.3-.1.14-.1.3 0 .1 0 .18.03.1.12.18.1.05.28.1.2.03.56.03.28 0 .7 0 .43-.05.88-.1.45-.04.84-.06.4-.04.63-.04.64 0 1.17.1.52.1.9.35.36.22.57.6.2.4.2.98zm-3.3-6.3q0-1.13-.42-1.63-.4-.5-1.44-.5-1.15 0-1.6.56-.44.54-.44 1.67 0 1.14.46 1.6.5.45 1.66.45.4 0 .74-.1.34-.1.56-.33.22-.24.34-.65.13-.43.13-1.06zm1.9 6.66q0-.57-.4-.83-.38-.26-1.25-.26h-3.8q-.4.12-.7.53-.28.4-.28 1 0 .36.15.65.15.32.5.54.36.23.92.34.54.13 1.36.13 1.6 0 2.52-.6.95-.55.95-1.5z" style="line-height:110.00000238%;-inkscape-font-specification:'Triplicate T4c, Normal';text-align:start" font-family="Triplicate T4c" letter-spacing="0" word-spacing="0"/><path d="M292.28 888.6q0-1.12.34-2 .35-.87.96-1.47.62-.6 1.47-.93.88-.3 1.92-.3.84 0 1.58.27.77.26 1.35.8.57.52.9 1.32.34.77.34 1.83 0 .95-.3 1.8-.27.8-.85 1.42-.57.62-1.43.97-.83.35-1.95.35-.9 0-1.7-.24-.8-.24-1.4-.74-.57-.52-.9-1.28-.34-.76-.34-1.82zm1.64-.67q0 2 .73 2.92.72.9 2.06.9 1.45 0 2.15-.83.73-.83.73-2.3 0-.82-.22-1.53-.2-.72-.58-1.22-.37-.5-.9-.78-.52-.3-1.13-.3-.62 0-1.14.22-.5.2-.88.62-.37.4-.6.96-.2.58-.2 1.33z" style="line-height:110.00000238%;-inkscape-font-specification:'Triplicate T4c, Normal';text-align:start" font-family="Triplicate T4c" letter-spacing="0" word-spacing="0"/><path d="M306.18 891.3q0-.7.47-1.18.48-.46 1.26-.46.76 0 1.22.46.47.47.47 1.18 0 .78-.52 1.2-.48.4-1.2.4-.77 0-1.23-.4-.47-.42-.47-1.2z" style="line-height:110.00000238%;-inkscape-font-specification:'Triplicate T4c, Normal';text-align:start" font-family="Triplicate T4c" letter-spacing="0" word-spacing="0"/><path d="M316.95 884.6l.26.07q.5-.28 1.2-.52.67-.26 1.42-.26.78 0 1.43.32.65.34 1.12.9.46.6.72 1.37.26.77.26 1.65 0 .93-.34 1.75-.33.8-.9 1.4-.55.57-1.3.9-.74.34-1.58.34-.56 0-1.15-.1-.6-.1-1.02-.3l.13 3.14 1.5.22q.2.04.26.17.08.13.06.28-.02.15-.1.26-.1.14-.2.14h-3.65q-.15 0-.22-.13-.06-.1-.06-.27 0-.15.05-.28.07-.13.18-.17l.8-.16v-9.98h-1.4q-.07 0-.1-.1-.04-.1-.04-.24 0-.13.03-.24.03-.1.1-.13l1.8-.67q.13-.04.3-.05.16 0 .22.14l.2.55zm.17 6.55q.35.26.93.37.6.1 1.06.1.5 0 1-.2.48-.18.87-.55.4-.37.62-.95.23-.58.23-1.36 0-1.82-.76-2.68-.77-.88-2-.88-.44 0-1.02.15-.56.15-.93.52v5.48z" style="line-height:110.00000238%;-inkscape-font-specification:'Triplicate T4c, Normal';text-align:start" font-family="Triplicate T4c" letter-spacing="0" word-spacing="0"/><path d="M331.7 892.54q-.16 0-.24-.1-.07-.14-.07-.27 0-.15.06-.26.08-.12.23-.14l.77-.1q.1-1.03.1-2.1t0-1.93q0-.78-.14-1.3-.13-.5-.4-.77-.23-.3-.6-.4-.36-.14-.82-.14-.5 0-1.13.28-.6.28-1.2.7v5.56l1.6.16q.16.02.24.15.08.13.06.28 0 .15-.1.28-.07.1-.2.1h-3.74q-.15 0-.22-.1-.06-.13-.06-.28 0-.15.08-.28.07-.13.2-.15l.7-.13v-6.32l-1.22.06q-.15 0-.22-.13-.08-.12-.1-.3 0-.16.06-.3.08-.15.22-.15.54-.04 1.03-.12.5-.1 1.1-.24.25-.08.28.12l.12.77.14.08q.9-.62 1.68-.9.8-.3 1.43-.3.56 0 1.05.2.5.2.87.6.4.42.6 1.03.22.6.2 1.44-.02 1.12-.05 2.28-.04 1.15-.12 2.2l1.3.16q.16.02.2.15.07.1.05.26 0 .12-.08.23-.05.1-.16.1h-3.5z" style="line-height:110.00000238%;-inkscape-font-specification:'Triplicate T4c, Normal';text-align:start" font-family="Triplicate T4c" letter-spacing="0" word-spacing="0"/><path d="M346.05 893.23q0 .77-.37 1.4-.35.63-1 1.08-.66.47-1.55.72-.88.26-1.94.26-2.1 0-3.15-.73-1.06-.73-1.06-1.86 0-.64.45-1.17.47-.52 1.14-.83-.24-.13-.46-.34-.22-.22-.22-.6 0-.44.35-.8.35-.35.78-.5v-.3q-.83-.27-1.26-.87-.42-.62-.42-1.5 0-.7.24-1.3.26-.62.73-1.06.46-.45 1.13-.7.67-.25 1.5-.25.5 0 .88.08.4.1.7.24.3.13.5.32.26.17.42.3l2.18-.17q.15 0 .22.2.08.2.1.43.02.23-.06.43-.05.2-.18.2h-1.66q.07.2.13.5.07.32.07.6 0 .6-.2 1.12-.2.52-.6.9-.4.38-1 .6-.57.23-1.35.23-.17 0-.35 0-.17 0-.3-.02-.2.1-.43.2-.2.12-.4.27-.2.13-.33.3-.1.14-.1.3 0 .1.02.18.02.1.1.18.1.05.3.1.2.03.55.03.28 0 .7 0 .44-.05.88-.1.45-.04.84-.06.4-.04.62-.04.64 0 1.16.1.52.1.9.35.36.22.57.6.2.4.2.98zm-3.3-6.3q0-1.13-.42-1.63-.4-.5-1.43-.5-1.16 0-1.6.56-.45.54-.45 1.67 0 1.14.46 1.6.5.45 1.67.45.4 0 .74-.1.35-.1.57-.33.23-.24.34-.65.14-.43.14-1.06zm1.9 6.66q0-.57-.4-.83-.38-.26-1.25-.26h-3.78q-.4.12-.7.53-.3.4-.3 1 0 .36.16.65.15.32.5.54.36.23.92.34.56.13 1.38.13 1.58 0 2.5-.6.96-.55.96-1.5z" style="line-height:110.00000238%;-inkscape-font-specification:'Triplicate T4c, Normal';text-align:start" font-family="Triplicate T4c" letter-spacing="0" word-spacing="0"/><rect width="339" height="37" x="11.698" y="913.511" fill="#f8f8f8" stroke="#ddd" rx="4" ry="4" stroke-linecap="round" stroke-linejoin="round"/><path fill="#16af90" d="M18.2 924.14q0-.92.52-1.5.52-.6 1.26-.97v-.2q-.3-.2-.55-.4-.25-.23-.44-.5-.18-.25-.27-.6-.1-.34-.1-.78 0-.47.22-.9.22-.43.62-.76.42-.33 1-.52.6-.2 1.33-.2.53 0 1.07.1.55.13.98.4.45.27.73.7.28.43.28 1.04 0 .83-.45 1.36-.42.52-1.02.86v.17q.9.38 1.4.97.5.58.5 1.6 0 .6-.3 1.12-.3.5-.8.86-.5.35-1.16.54-.65.2-1.37.2-.76 0-1.4-.2-.62-.2-1.1-.52-.45-.35-.7-.83-.26-.5-.26-1.06zm1.57-.18q0 .42.15.73.17.3.43.5t.62.3q.35.1.72.1.35 0 .67-.1.33-.1.57-.27.25-.2.4-.45.14-.28.14-.63 0-.36-.18-.66-.17-.3-.48-.53-.3-.23-.7-.42-.4-.2-.87-.38-.68.27-1.08.74-.4.48-.4 1.06zm.4-4.84q0 .55.5.98.52.42 1.32.7.1-.06.34-.2.23-.15.47-.37.24-.22.4-.5.18-.3.18-.65 0-.34-.14-.56-.14-.23-.36-.36-.2-.13-.5-.2-.25-.05-.52-.05-.78 0-1.23.36-.45.35-.45.86z" style="line-height:125%;-inkscape-font-specification:'Triplicate T4c, Semi-Bold';text-align:start" font-weight="600" font-family="Triplicate T4c" letter-spacing="0" word-spacing="0"/><path fill="#16af90" d="M27.44 924.14q0-.92.53-1.5.52-.6 1.26-.97v-.2q-.3-.2-.55-.4-.25-.23-.43-.5-.17-.25-.27-.6-.1-.34-.1-.78 0-.47.23-.9.22-.43.62-.76.42-.33 1-.52.6-.2 1.33-.2.53 0 1.07.1.56.13 1 .4.43.27.7.7.3.43.3 1.04 0 .83-.46 1.36-.43.52-1.03.86v.17q.9.38 1.4.97.5.58.5 1.6 0 .6-.3 1.12-.3.5-.8.86-.5.35-1.16.54-.64.2-1.37.2-.76 0-1.4-.2-.62-.2-1.08-.52-.47-.35-.73-.83-.26-.5-.26-1.06zm1.58-.18q0 .42.15.73.17.3.43.5.27.2.62.3.36.1.73.1.35 0 .68-.1.32-.1.57-.27.24-.2.38-.45.16-.28.16-.63 0-.36-.2-.66-.16-.3-.47-.53-.3-.23-.7-.42-.4-.2-.87-.38-.68.27-1.08.74-.4.48-.4 1.06zm.4-4.84q0 .55.5.98.52.42 1.32.7.12-.06.36-.2.23-.15.46-.37t.4-.5q.17-.3.17-.65 0-.34-.14-.56-.15-.23-.36-.36-.22-.13-.5-.2-.26-.05-.52-.05-.8 0-1.24.36-.45.35-.45.86z" style="line-height:125%;-inkscape-font-specification:'Triplicate T4c, Semi-Bold';text-align:start" font-weight="600" font-family="Triplicate T4c" letter-spacing="0" word-spacing="0"/><path fill="#16af90" d="M41.5 922.5q-.5.37-.96.5-.45.13-.94.13-.53 0-1.08-.18-.54-.2-1-.56-.42-.4-.7-.98-.28-.58-.28-1.38 0-.66.28-1.24.28-.6.77-1.04.5-.43 1.13-.68.67-.26 1.44-.26.8 0 1.48.26.68.25 1.17.77.5.5.8 1.3.27.8.27 1.85 0 .96-.27 1.8-.25.8-.7 1.48-.45.67-1.08 1.18-.62.5-1.36.83-.24.1-.6.2-.35.1-.75.2-.4.07-.82.12-.4.06-.74.07-.1 0-.15-.17-.04-.16-.04-.36 0-.2.05-.38.05-.2.16-.2.6-.1 1.23-.2.63-.14 1.05-.34.8-.37 1.25-1.07.46-.72.6-1.6l-.22-.1zm.1-1.22q.1-.34.14-.75.05-.42.05-.64 0-.28-.1-.62-.07-.34-.25-.6-.17-.3-.48-.5-.3-.18-.76-.18-.68 0-1.14.52-.45.5-.45 1.4 0 .57.13.96.13.4.34.63.22.24.5.35.3.1.63.1.42 0 .76-.18.35-.2.63-.5z" style="line-height:125%;-inkscape-font-specification:'Triplicate T4c, Semi-Bold';text-align:start" font-weight="600" font-family="Triplicate T4c" letter-spacing="0" word-spacing="0"/><path fill="#16af90" d="M51.26 921.45q.8.22 1.34.82.56.6.56 1.4 0 .7-.34 1.27-.33.57-.9.97-.57.4-1.36.63-.78.22-1.68.22-.72 0-1.43-.18-.7-.17-1.28-.55-.13-.1-.13-.3.02-.2.1-.4.1-.18.2-.3.15-.13.27-.05.5.3.98.42.48.1 1.15.1 1.03 0 1.68-.42.66-.42.66-1.37 0-.47-.17-.8-.17-.34-.45-.56-.27-.22-.64-.3-.36-.1-.78-.1h-.66q-.13 0-.17-.17-.06-.16-.06-.35 0-.2.05-.35.05-.16.16-.16h.7q.24 0 .5-.06.28-.07.5-.25.2-.2.35-.5.16-.32.16-.8 0-.37-.12-.63-.12-.28-.32-.45-.2-.18-.47-.27-.24-.08-.5-.08-.86 0-.93.8-.03.44-.3.6-.3.14-.63.14-.36 0-.56-.18-.2-.2-.2-.5 0-.24.2-.56.2-.34.57-.63.38-.3.9-.5.54-.2 1.22-.2.6 0 1.2.13.58.15 1.04.44.46.3.74.76.28.45.28 1.08 0 .32-.13.62-.12.3-.32.57-.2.25-.46.45-.25.2-.5.3v.27z" style="line-height:125%;-inkscape-font-specification:'Triplicate T4c, Semi-Bold';text-align:start" font-weight="600" font-family="Triplicate T4c" letter-spacing="0" word-spacing="0"/><path fill="#16af90" d="M61.13 923.3h.9q.2 0 .3.18.06.17.06.4 0 .2-.1.4-.08.18-.2.18h-.97v2.07q0 .1-.28.17-.26.07-.6.07-.3 0-.57-.05-.27-.06-.27-.2v-2.05h-3.94q-.17 0-.24-.25-.08-.24-.1-.55-.03-.32 0-.6.02-.28.05-.35 1.1-1.37 1.87-2.73.77-1.36 1.1-2.9.06-.18.4-.25.33-.08.72-.05.4.02.7.12.3.1.27.25-.2.7-.6 1.48-.4.78-.88 1.53t-1.02 1.43q-.54.7-1.05 1.24v.45h2.73v-2.18q0-.12.28-.18.27-.06.58-.04.33 0 .6.07.27.06.27.18v2.14z" style="line-height:125%;-inkscape-font-specification:'Triplicate T4c, Semi-Bold';text-align:start" font-weight="600" font-family="Triplicate T4c" letter-spacing="0" word-spacing="0"/><path fill="#16af90" d="M66 923.7q0 .52.18.84.17.32.47.5.3.2.67.28.4.05.87.05.33 0 .73-.02.42-.05.82-.12.4-.07.77-.16.38-.1.7-.22.1-.04.18.07.1.1.17.27.06.13.06.28.02.14-.06.2-.4.18-.9.35-.48.16-1 .3-.5.1-1.05.18-.52.1-1.03.1-.82 0-1.48-.2-.65-.2-1.1-.6-.47-.4-.72-.96-.25-.6-.25-1.33 0-.88.34-1.58.33-.72.87-1.2.54-.5 1.22-.75.7-.27 1.38-.27.77 0 1.42.28.66.28 1.13.76.47.48.74 1.14.27.65.27 1.4 0 .18-.07.3-.06.12-.33.12H66zm3.25-1.07q-.04-.87-.4-1.34-.37-.47-1.06-.47-.35 0-.66.13-.3.1-.56.35-.24.23-.4.56-.15.34-.17.77h3.25z" style="line-height:125%;-inkscape-font-specification:'Triplicate T4c, Semi-Bold';text-align:start" font-weight="600" font-family="Triplicate T4c" letter-spacing="0" word-spacing="0"/><path fill="#16af90" d="M73.7 924.14q0-.92.53-1.5.53-.6 1.27-.97v-.2q-.3-.2-.56-.4-.25-.23-.43-.5-.16-.25-.25-.6-.1-.34-.1-.78 0-.47.22-.9.22-.43.62-.76t1-.52q.58-.2 1.32-.2.52 0 1.06.1.56.13 1 .4.44.27.72.7.27.43.27 1.04 0 .83-.44 1.36-.44.52-1.04.86v.17q.9.38 1.38.97.5.58.5 1.6 0 .6-.28 1.12-.3.5-.8.86-.5.35-1.16.54-.65.2-1.38.2-.75 0-1.4-.2-.62-.2-1.08-.52-.46-.35-.73-.83-.24-.5-.24-1.06zm1.58-.18q0 .42.16.73.16.3.43.5.26.2.6.3.37.1.74.1.36 0 .7-.1.3-.1.56-.27.25-.2.4-.45.14-.28.14-.63 0-.36-.2-.66-.16-.3-.46-.53-.3-.23-.7-.42-.4-.2-.88-.38-.68.27-1.08.74-.4.48-.4 1.06zm.42-4.84q0 .55.5.98.5.42 1.3.7.13-.06.36-.2.23-.15.46-.37t.4-.5q.17-.3.17-.65 0-.34-.15-.56-.14-.23-.35-.36-.22-.13-.5-.2-.26-.05-.52-.05-.8 0-1.24.36-.44.35-.44.86z" style="line-height:125%;-inkscape-font-specification:'Triplicate T4c, Semi-Bold';text-align:start" font-weight="600" font-family="Triplicate T4c" letter-spacing="0" word-spacing="0"/><path d="M17.88 936.9q-.38 0-.66-.23-.26-.22-.26-.6 0-.4.15-.72.16-.32.38-.54.25-.2.53-.33.3-.13.6-.13.37 0 .62.23.26.22.26.67 0 .7-.43 1.17-.4.5-1.17.5zm-.64 2.38l-3-.06q-.14 0-.2-.1-.06-.12-.04-.25.04-.15.13-.26.1-.12.25-.12.76-.02 1.76-.12 1.03-.1 1.85-.24.23-.03.38-.02.15.02.22.1.1.07.1.16.03.1.03.2v7l3.2.25q.15.03.23.16.07.1.05.26 0 .15-.08.28-.07.1-.2.1h-7.7q-.14 0-.22-.1-.05-.1-.05-.24 0-.15.05-.26.08-.1.2-.13l3.04-.26v-6.32z" style="line-height:110.00000238%;-inkscape-font-specification:'Triplicate T4c, Normal';text-align:start" font-family="Triplicate T4c" letter-spacing="0" word-spacing="0"/><path d="M30.3 946.6q-.15 0-.22-.1-.07-.13-.07-.26 0-.15.08-.26.08-.13.22-.15l.8-.1q.08-1.04.08-2.1 0-1.08 0-1.93 0-.78-.13-1.3-.13-.5-.4-.77-.23-.3-.6-.4-.36-.14-.83-.14-.5 0-1.13.27-.63.28-1.22.7v5.56l1.6.16q.17 0 .24.14.08.13.06.28 0 .15-.1.28-.07.1-.2.1h-3.74q-.15 0-.23-.1-.04-.13-.04-.28 0-.15.07-.28.08-.13.2-.15l.72-.14v-6.3l-1.23.05q-.15 0-.23-.12-.08-.13-.1-.3 0-.17.06-.32.07-.15.22-.15.54-.02 1.02-.1.5-.1 1.12-.24.24-.07.28.13l.1.75.16.1q.9-.62 1.68-.9.8-.3 1.43-.3.56 0 1.04.2.5.2.9.6.38.42.58 1.03.23.6.2 1.43 0 1.13-.05 2.28-.04 1.16-.1 2.2l1.3.17q.14.02.2.15.05.1.03.26 0 .13-.07.24-.07.1-.18.1H30.3z" style="line-height:110.00000238%;-inkscape-font-specification:'Triplicate T4c, Normal';text-align:start" font-family="Triplicate T4c" letter-spacing="0" word-spacing="0"/><path d="M41.84 939.5q-.36-.26-.9-.4-.55-.14-1.1-.14-.5 0-1 .2t-.9.58q-.38.37-.64.97-.25.6-.25 1.37 0 .9.2 1.56.23.64.6 1.06.38.4.9.6.54.2 1.15.2.43 0 .97-.12.56-.13.97-.43v-5.45zm.1 6.66l-.23-.13q-.57.36-1.15.54-.57.17-1.4.17-.8 0-1.48-.33-.67-.33-1.17-.9-.5-.58-.77-1.36-.28-.8-.28-1.66 0-.93.36-1.73.36-.8.96-1.38.6-.6 1.36-.93.76-.34 1.6-.34.55 0 1.13.12.6.1 1.03.28l.05-3.45-1.5.15q-.2.02-.3-.1-.1-.14-.12-.3 0-.18.05-.33.08-.14.2-.16.58-.1 1.18-.27t1.13-.34q.15-.05.27-.08.1-.04.2-.04.17 0 .24.13.1.12.08.44l-.13 4.7v6.4h1.3q.1 0 .15.12.05.13.07.3.02.15-.04.3-.03.13-.14.17-.6.17-1.23.33-.64.17-1 .28-.12.04-.23.04-.1.02-.13-.15l-.04-.47z" style="line-height:110.00000238%;-inkscape-font-specification:'Triplicate T4c, Normal';text-align:start" font-family="Triplicate T4c" letter-spacing="0" word-spacing="0"/><path d="M48.37 942.52q0 1.58.67 2.34.67.75 1.9.75.57 0 1.17-.07.62-.07 1.18-.18.58-.12 1.06-.25.5-.15.88-.3.1-.05.22.04.13.08.2.2.08.14.08.27.02.14-.08.2-.48.24-1.08.46-.57.22-1.2.4-.62.18-1.27.27-.64.1-1.26.1-.97 0-1.73-.3-.73-.28-1.26-.8-.5-.54-.76-1.25-.26-.73-.26-1.57 0-1.12.4-2.02.38-.9 1-1.52.63-.63 1.4-.97.8-.34 1.6-.34.9 0 1.6.27.76.28 1.28.8.54.53.82 1.3.3.73.3 1.66 0 .24-.12.4-.1.12-.37.13h-6.36zm5.26-.86q-.03-.52-.18-1.02-.13-.53-.43-.92-.28-.4-.75-.65-.44-.24-1.1-.24-.6 0-1.1.22-.5.23-.9.62-.36.4-.58.9-.23.5-.25 1.1h5.28z" style="line-height:110.00000238%;-inkscape-font-specification:'Triplicate T4c, Normal';text-align:start" font-family="Triplicate T4c" letter-spacing="0" word-spacing="0"/><path d="M61.35 938.16q.15 0 .2.13.08.1.08.25t-.07.28q-.08.13-.2.15l-.85.1 1.95 2.28h.2l2.02-2.3-1.1-.1q-.17-.02-.24-.13-.08-.13-.08-.28.02-.15.1-.26.07-.14.22-.14H67q.12 0 .2.15.07.14.07.3 0 .16-.07.3-.08.13-.2.13-.43 0-.8.12-.34.1-.7.42l-2.17 2.48v.13l3.14 3.3q.24.18.47.26.24.05.48.05.15 0 .2.12.06.13.04.28 0 .15-.07.28-.07.13-.18.13h-3.6q-.16 0-.23-.1-.07-.13-.07-.26 0-.15.06-.26.06-.13.2-.15l1.1-.1-2.4-2.67h-.24l-2.2 2.64 1.44.1q.17.03.24.16.08.1.06.26 0 .15-.1.28-.07.1-.2.1h-3.63q-.15 0-.22-.12-.06-.13-.06-.28 0-.17.07-.3.07-.14.2-.16.32 0 .58-.08.26-.07.46-.28l2.68-3.03v-.2l-2.8-3.08-1.13-.1q-.15 0-.2-.12-.06-.13-.06-.28 0-.17.06-.28.08-.14.2-.14h3.7z" style="line-height:110.00000238%;-inkscape-font-specification:'Triplicate T4c, Normal';text-align:start" font-family="Triplicate T4c" letter-spacing="0" word-spacing="0"/><path d="M71.77 945.36q0-.7.47-1.17.48-.47 1.26-.47.75 0 1.2.46.48.46.48 1.16 0 .8-.5 1.2-.5.4-1.2.4-.78 0-1.24-.4-.47-.4-.47-1.2z" style="line-height:110.00000238%;-inkscape-font-specification:'Triplicate T4c, Normal';text-align:start" font-family="Triplicate T4c" letter-spacing="0" word-spacing="0"/><path d="M79.8 935.07q-.12 0-.18-.1-.06-.12-.06-.27 0-.15.04-.28.04-.13.1-.15.33-.08.74-.15.4-.1.78-.2.35-.08.67-.17.32-.1.44-.15.2-.08.3.05.14.12.12.32l-.2 4.93.26.17q.24-.17.6-.35.4-.2.87-.37.46-.17.94-.28.5-.1.95-.1 1.22 0 1.83.88.64.9.67 2.6.02 1.2-.03 2.18-.06 1-.13 2l1.13.22q.17.04.23.17.07.1.05.24 0 .13-.1.24-.07.1-.18.1h-3.6q-.14 0-.2-.1-.07-.13-.07-.28 0-.15.07-.26.1-.13.25-.15l.98-.17q.04-.43.06-.95.02-.53.04-1.05 0-.54 0-1.06t0-.97q0-.8-.13-1.28-.12-.5-.34-.76-.22-.28-.54-.38-.33-.1-.72-.1-.43 0-.83.1-.4.1-.77.26-.35.15-.67.36-.3.2-.5.4v5.43l1.46.18q.17.03.24.16.08.13.06.28 0 .13-.1.26-.07.1-.2.1H80.5q-.16 0-.23-.1t-.1-.24q0-.15.08-.28.08-.13.24-.17l.76-.16V935l-1.46.07z" style="line-height:110.00000238%;-inkscape-font-specification:'Triplicate T4c, Normal';text-align:start" font-family="Triplicate T4c" letter-spacing="0" word-spacing="0"/><path d="M93.9 938.35l.1-2.1q.02-.2.23-.3.2-.08.52-.08.3 0 .54.1.2.07.2.25l-.1 2.13h3.55q.2-.02.28.13.1.15.1.33 0 .2-.1.37-.07.14-.2.14h-3.67l-.22 4.63q0 1.5 1.1 1.5.52 0 1.35-.07.85-.07 1.95-.26.13 0 .22.1.1.1.13.24.06.13.04.28-.02.13-.13.17-.34.12-.9.27-.56.14-1.17.27-.6.13-1.18.2-.56.1-.93.1-1.06 0-1.58-.6-.5-.6-.4-1.76l.2-5.07h-1.57q-.1 0-.17-.12-.03-.14-.03-.33 0-.2.03-.34.06-.15.15-.15h1.66z" style="line-height:110.00000238%;-inkscape-font-specification:'Triplicate T4c, Normal';text-align:start" font-family="Triplicate T4c" letter-spacing="0" word-spacing="0"/><path d="M105.97 946.6q-.17 0-.25-.1-.07-.13-.07-.28 0-.15.05-.28.08-.13.2-.15l.68-.14v-4.9q0-.52-.1-.85-.1-.33-.27-.5-.16-.22-.38-.3-.23-.07-.47-.07-.5 0-.82.14-.32.13-.46.3v6.2l.74.12q.18.03.25.16.08.13.06.28 0 .13-.08.26-.08.1-.2.1h-2.58q-.15 0-.22-.1-.06-.1-.06-.26 0-.15.08-.28.07-.13.2-.17l.47-.1v-6.33l-.94.06q-.15 0-.23-.12-.07-.12-.1-.27 0-.16.07-.3.07-.16.22-.2.48-.1.9-.26.46-.17.9-.33.08-.04.15 0 .1.03.12.13l.15.37.28.1q.32-.2.67-.38.38-.2 1-.2.47 0 .87.24.4.22.67.65.4-.37 1-.63.63-.26 1.15-.26.6 0 1.02.27.43.26.7.7.27.46.38 1.04.1.57.1 1.2v4.5l.83.18q.15.04.2.17.06.1.04.24 0 .13-.07.24-.06.1-.17.1h-2.74q-.16 0-.2-.1-.07-.1-.07-.24 0-.15.04-.26.05-.13.15-.17l.63-.13v-4.52q0-.67-.13-1.07-.1-.4-.3-.62-.18-.22-.44-.3-.25-.07-.5-.07-.36 0-.75.16-.37.15-.52.3.06.16.08.42.04.26.04.54.02.26.02.5 0 .23 0 .32v4.3l.65.2q.14.03.2.16.05.1.03.26 0 .13-.07.24-.06.1-.17.1h-2.64z" style="line-height:110.00000238%;-inkscape-font-specification:'Triplicate T4c, Normal';text-align:start" font-family="Triplicate T4c" letter-spacing="0" word-spacing="0"/><path d="M116.5 935.03l-2.03.08q-.17.03-.28-.1-.1-.14-.14-.28-.02-.17.05-.3.1-.15.25-.17.77-.1 1.4-.2.63-.1 1.42-.43.35-.13.6.13.25.24.2.54v10.08q-.02.65.22.97.25.3.88.3.56 0 1.2-.1.66-.1 1.32-.3.13-.03.22.06.1.1.13.23.06.13.04.26-.03.12-.14.18-.38.17-.82.33-.43.16-.92.3-.46.1-.93.16-.47.08-.88.08-1.94 0-1.83-2v-9.8z" style="line-height:110.00000238%;-inkscape-font-specification:'Triplicate T4c, Normal';text-align:start" font-family="Triplicate T4c" letter-spacing="0" word-spacing="0"/></g></svg>
