<?xml version="1.0" encoding="UTF-8" standalone="no"?>
<!-- Created with Inkscape (http://www.inkscape.org/) -->

<svg
   xmlns:dc="http://purl.org/dc/elements/1.1/"
   xmlns:cc="http://creativecommons.org/ns#"
   xmlns:rdf="http://www.w3.org/1999/02/22-rdf-syntax-ns#"
   xmlns:svg="http://www.w3.org/2000/svg"
   xmlns="http://www.w3.org/2000/svg"
   xmlns:sodipodi="http://sodipodi.sourceforge.net/DTD/sodipodi-0.dtd"
   xmlns:inkscape="http://www.inkscape.org/namespaces/inkscape"
   width="1200"
   height="485"
   id="svg2"
   version="1.1"
   inkscape:version="0.91 r13725"
   sodipodi:docname="fig-02-03.svg">
  <defs
     id="defs4" />
  <sodipodi:namedview
     id="base"
     pagecolor="#ffffff"
     bordercolor="#666666"
     borderopacity="1.0"
     inkscape:pageopacity="0.0"
     inkscape:pageshadow="2"
     inkscape:zoom="1.6068627"
     inkscape:cx="600"
     inkscape:cy="267.29811"
     inkscape:document-units="px"
     inkscape:current-layer="layer1"
     showgrid="false"
     gridtolerance="10000"
     inkscape:window-width="2560"
     inkscape:window-height="1377"
     inkscape:window-x="-8"
     inkscape:window-y="-8"
     inkscape:window-maximized="1"
     guidetolerance="10000"
     inkscape:snap-global="true"
     inkscape:snap-bbox="true"
     inkscape:snap-bbox-edge-midpoints="true"
     inkscape:bbox-nodes="true"
     inkscape:snap-grids="true"
     inkscape:snap-to-guides="true"
     showguides="false"
     inkscape:guide-bbox="true"
     inkscape:bbox-paths="true"
     inkscape:snap-bbox-midpoints="true">
    <inkscape:grid
       type="xygrid"
       id="grid2985"
       empspacing="5"
       visible="true"
       enabled="true"
       snapvisiblegridlinesonly="true"
       empcolor="#c0504d"
       empopacity="0.19607843"
       color="#8db3e2"
       opacity="0.15686275"
       dotted="false" />
  </sodipodi:namedview>
  <metadata
     id="metadata7">
    <rdf:RDF>
      <cc:Work
         rdf:about="">
        <dc:format>image/svg+xml</dc:format>
        <dc:type
           rdf:resource="http://purl.org/dc/dcmitype/StillImage" />
        <dc:title></dc:title>
      </cc:Work>
    </rdf:RDF>
  </metadata>
  <g
     inkscape:label="Layer 1"
     inkscape:groupmode="layer"
     id="layer1"
     transform="translate(0,-567.3622)">
    <g
       id="g5230"
       transform="translate(-238.02785,1744.685)">
      <path
         inkscape:connector-curvature="0"
         id="path8670"
         d="m 744.84674,-1121.6378 0,100"
         style="fill:none;fill-rule:evenodd;stroke:#6789c8;stroke-width:2;stroke-linecap:butt;stroke-linejoin:miter;stroke-miterlimit:4;stroke-dasharray:none;stroke-opacity:0.99803922" />
      <path
         id="rect7975-5-0"
         d="m 704.85442,-1177.3228 c -3.73586,0 -6.74342,3.0161 -6.74342,6.7624 l 0,35.0279 c 0,3.7462 3.00756,6.7624 6.74342,6.7624 l 21.84868,0 c 3.50658,0 6.74342,-3.2369 6.74342,-6.7435 l 0,-19.0881 5.125,-4.8689 0,-11.0898 c 0,-3.7463 -3.00756,-6.7624 -6.74342,-6.7624 l -26.97368,0 z"
         style="opacity:1;fill:#fbd140;fill-opacity:1;stroke:none;stroke-width:1;stroke-linecap:round;stroke-linejoin:round;stroke-miterlimit:4;stroke-dasharray:none;stroke-opacity:1"
         inkscape:connector-curvature="0" />
      <rect
         transform="matrix(0.94915618,0.31480557,0,1,0,0)"
         rx="6.3812609"
         ry="6.7434258"
         y="-1409.0974"
         x="734.9386"
         height="47.563263"
         width="31.544641"
         id="rect7975-4-8-8-79"
         style="opacity:1;fill:#ffe9a1;fill-opacity:1;stroke:none;stroke-width:1;stroke-linecap:round;stroke-linejoin:round;stroke-miterlimit:4;stroke-dasharray:none;stroke-opacity:1" />
      <g
         id="text7898-5-1"
         style="font-style:normal;font-variant:normal;font-weight:normal;font-stretch:normal;font-size:32.5px;line-height:125%;font-family:'Concourse T4';-inkscape-font-specification:'Concourse T4, Normal';text-align:start;letter-spacing:0px;word-spacing:0px;writing-mode:lr-tb;text-anchor:start;fill:#404030;fill-opacity:1;stroke:none;stroke-width:1px;stroke-linecap:butt;stroke-linejoin:miter;stroke-opacity:1">
        <path
           id="path5194"
           d="m 750.20151,-1140.9378 q 1.9175,0 3.4125,-0.585 1.5275,-0.585 2.5675,-1.6575 1.04,-1.105 1.5925,-2.6325 0.5525,-1.5275 0.5525,-3.38 0,-2.275 -0.715,-3.8675 -0.715,-1.625 -1.885,-2.6325 -1.1375,-1.04 -2.6,-1.5275 -1.4625,-0.4875 -2.9575,-0.4875 l -3.2825,0 0,16.77 3.315,0 z m -6.37,2.665 0,-22.1 6.2075,0 q 2.4375,0 4.5175,0.8125 2.1125,0.78 3.64,2.2425 1.56,1.4625 2.4375,3.5425 0.8775,2.08 0.8775,4.6475 0,2.5025 -0.845,4.5175 -0.845,2.015 -2.3725,3.445 -1.5275,1.3975 -3.64,2.145 -2.08,0.7475 -4.5825,0.7475 l -6.24,0 z"
           inkscape:connector-curvature="0" />
        <path
           id="path5196"
           d="m 765.50647,-1139.9953 q 0,-0.8125 0.5525,-1.365 0.585,-0.585 1.3975,-0.585 0.8125,0 1.365,0.585 0.585,0.5525 0.585,1.365 0,0.8125 -0.585,1.3975 -0.5525,0.5525 -1.365,0.5525 -0.8125,0 -1.3975,-0.5525 -0.5525,-0.585 -0.5525,-1.3975 z m 0,-10.4 q 0,-0.8125 0.5525,-1.365 0.585,-0.585 1.3975,-0.585 0.8125,0 1.365,0.585 0.585,0.5525 0.585,1.365 0,0.8125 -0.585,1.3975 -0.5525,0.5525 -1.365,0.5525 -0.8125,0 -1.3975,-0.5525 -0.5525,-0.585 -0.5525,-1.3975 z"
           inkscape:connector-curvature="0" />
        <path
           id="path5198"
           d="m 786.45374,-1133.0728 -2.6,0 -11.7,-27.95 2.6,0 11.7,27.95 z"
           inkscape:connector-curvature="0" />
        <path
           id="path5200"
           d="m 789.3117,-1159.0728 q 0.195,-0.1625 0.715,-0.455 0.5525,-0.2925 1.3325,-0.585 0.8125,-0.2925 1.82,-0.52 1.04,-0.2275 2.2425,-0.2275 1.4625,0 2.73,0.3575 1.2675,0.325 2.21,1.0725 0.9425,0.715 1.495,1.885 0.5525,1.1375 0.5525,2.795 0,3.2175 -2.5025,6.5325 -2.47,3.315 -7.02,6.955 l 0.065,0.195 9.7825,-0.2925 0,3.0875 -14.8525,0 -0.325,-1.1375 q 3.315,-2.86 5.5575,-5.1025 2.2425,-2.275 3.6075,-4.03 1.365,-1.7875 1.9175,-3.1525 0.585,-1.3975 0.585,-2.47 0,-2.0475 -1.105,-3.0225 -1.0725,-0.975 -2.8925,-0.975 -1.0075,0 -1.9175,0.2275 -0.8775,0.2275 -1.625,0.5525 -0.715,0.2925 -1.3,0.6175 -0.5525,0.325 -0.8775,0.5525 l -0.195,-2.86 z"
           inkscape:connector-curvature="0" />
        <path
           id="path5202"
           d="m 806.53874,-1150.5578 1.235,-9.815 11.7975,0 -0.3575,2.8275 -9.0675,-0.325 -0.6825,4.9725 q 0.4875,-0.033 0.91,-0.033 0.455,-0.033 0.91,-0.033 2.275,0 3.965,0.5525 1.69,0.5525 2.795,1.495 1.105,0.9425 1.6575,2.21 0.5525,1.2675 0.5525,2.6975 0,1.9825 -0.8775,3.51 -0.8775,1.5275 -2.3725,2.6 -1.4625,1.04 -3.4125,1.5925 -1.95,0.52 -4.095,0.52 -0.9425,0 -1.82,-0.065 -0.845,-0.065 -1.5925,-0.2925 l 0.52,-2.6325 q 0.6175,0.1625 1.4625,0.26 0.8775,0.065 1.625,0.065 3.445,0 5.4275,-1.43 1.9825,-1.4625 1.9825,-3.9975 0,-1.2025 -0.5525,-2.08 -0.52,-0.91 -1.5275,-1.495 -1.0075,-0.585 -2.405,-0.8775 -1.3975,-0.2925 -3.1525,-0.2925 -0.7475,0 -1.495,0.065 -0.7475,0.033 -1.3,0.098 l -0.13,-0.098 z"
           inkscape:connector-curvature="0" />
        <path
           id="path5204"
           d="m 839.56077,-1149.5503 q 0,3.0875 -0.6175,5.33 -0.585,2.21 -1.6575,3.64 -1.0725,1.43 -2.5675,2.1125 -1.4625,0.6825 -3.2175,0.6825 -1.69,0 -3.185,-0.6175 -1.495,-0.6175 -2.6,-1.9825 -1.105,-1.3975 -1.755,-3.64 -0.65,-2.2425 -0.65,-5.525 0,-3.0225 0.65,-5.1675 0.65,-2.145 1.755,-3.51 1.105,-1.365 2.6,-1.9825 1.495,-0.65 3.185,-0.65 1.755,0 3.2175,0.715 1.495,0.6825 2.5675,2.1125 1.0725,1.3975 1.6575,3.5425 0.6175,2.1125 0.6175,4.94 z m -3.12,-0.065 q 0,-4.225 -1.43,-6.37 -1.3975,-2.1775 -3.64,-2.1775 -0.975,0 -1.885,0.4875 -0.8775,0.4875 -1.56,1.56 -0.6825,1.04 -1.105,2.665 -0.39,1.5925 -0.39,3.835 0,2.6325 0.4225,4.42 0.455,1.755 1.17,2.795 0.715,1.04 1.625,1.495 0.91,0.4225 1.885,0.4225 2.3075,0 3.6075,-2.1125 1.3,-2.145 1.3,-7.02 z"
           inkscape:connector-curvature="0" />
        <path
           id="path5206"
           d="m 858.73069,-1149.5503 q 0,3.0875 -0.6175,5.33 -0.585,2.21 -1.6575,3.64 -1.0725,1.43 -2.5675,2.1125 -1.4625,0.6825 -3.2175,0.6825 -1.69,0 -3.185,-0.6175 -1.495,-0.6175 -2.6,-1.9825 -1.105,-1.3975 -1.755,-3.64 -0.65,-2.2425 -0.65,-5.525 0,-3.0225 0.65,-5.1675 0.65,-2.145 1.755,-3.51 1.105,-1.365 2.6,-1.9825 1.495,-0.65 3.185,-0.65 1.755,0 3.2175,0.715 1.495,0.6825 2.5675,2.1125 1.0725,1.3975 1.6575,3.5425 0.6175,2.1125 0.6175,4.94 z m -3.12,-0.065 q 0,-4.225 -1.43,-6.37 -1.3975,-2.1775 -3.64,-2.1775 -0.975,0 -1.885,0.4875 -0.8775,0.4875 -1.56,1.56 -0.6825,1.04 -1.105,2.665 -0.39,1.5925 -0.39,3.835 0,2.6325 0.4225,4.42 0.455,1.755 1.17,2.795 0.715,1.04 1.625,1.495 0.91,0.4225 1.885,0.4225 2.3075,0 3.6075,-2.1125 1.3,-2.145 1.3,-7.02 z"
           inkscape:connector-curvature="0" />
        <path
           id="path5208"
           d="m 880.06846,-1158.0978 q -1.56,0 -3.0225,0.5525 -1.43,0.5525 -2.535,1.6575 -1.0725,1.105 -1.755,2.8275 -0.65,1.69 -0.65,3.965 0,1.9175 0.585,3.51 0.6175,1.56 1.69,2.6975 1.105,1.105 2.6,1.7225 1.495,0.6175 3.2825,0.6175 1.6575,0 2.8925,-0.39 1.2675,-0.39 1.95,-1.2025 l 0,-5.265 -5.915,0 0,-2.665 9.035,0 0,9.1325 q -1.56,1.4625 -3.5425,2.3075 -1.95,0.845 -4.5825,0.845 -2.6,0 -4.68,-0.91 -2.0475,-0.9425 -3.51,-2.5025 -1.43,-1.56 -2.21,-3.575 -0.78,-2.015 -0.78,-4.1925 0,-2.535 0.78,-4.68 0.8125,-2.1775 2.275,-3.77 1.4625,-1.625 3.5425,-2.535 2.08,-0.91 4.615,-0.91 1.1375,0 2.21,0.2275 1.0725,0.195 1.9825,0.5525 0.9425,0.325 1.69,0.7475 0.78,0.39 1.2675,0.7475 l -0.78,2.6975 q -0.39,-0.325 -1.0075,-0.715 -0.6175,-0.39 -1.4625,-0.715 -0.8125,-0.325 -1.82,-0.5525 -0.975,-0.2275 -2.145,-0.2275 z"
           inkscape:connector-curvature="0" />
        <path
           id="path5210"
           d="m 895.66643,-1152.9953 0,14.7225 -2.925,0 0,-14.3325 2.925,-0.39 z m -3.4125,-5.4925 q 0,-0.8125 0.5525,-1.365 0.585,-0.585 1.3975,-0.585 0.8125,0 1.365,0.585 0.585,0.5525 0.585,1.365 0,0.8125 -0.585,1.3975 -0.5525,0.5525 -1.365,0.5525 -0.8125,0 -1.3975,-0.5525 -0.5525,-0.585 -0.5525,-1.3975 z"
           inkscape:connector-curvature="0" />
        <path
           id="path5212"
           d="m 904.29417,-1157.9028 0,5.07 3.4125,0 0,2.275 -3.4125,0 0,12.285 -2.925,0 0,-12.285 -2.925,0 0,-1.3325 2.925,-1.105 0,-4.0625 2.925,-0.845 z"
           inkscape:connector-curvature="0" />
        <path
           id="path5214"
           d="m 930.72479,-1154.0028 q 0,1.56 -0.585,2.8275 -0.5525,1.2675 -1.5925,2.1775 -1.0075,0.91 -2.4375,1.3975 -1.43,0.455 -3.185,0.455 l -2.1125,0 0,8.8725 -3.055,0 0,-22.1 5.46,0 q 1.69,0 3.055,0.455 1.3975,0.4225 2.3725,1.2675 1.0075,0.8125 1.5275,2.015 0.5525,1.17 0.5525,2.6325 z m -3.185,0.065 q 0,-1.82 -1.17,-2.8275 -1.17,-1.04 -3.12,-1.04 l -2.4375,0 0,8.0925 2.275,0 q 0.8775,0 1.69,-0.2275 0.8125,-0.2275 1.43,-0.715 0.6175,-0.4875 0.975,-1.3 0.3575,-0.8125 0.3575,-1.9825 z"
           inkscape:connector-curvature="0" />
        <path
           id="path5216"
           d="m 942.11706,-1153.0928 0,3.055 -1.04,0 q -0.715,0.098 -1.3975,0.4875 -0.6825,0.3575 -1.2675,0.975 -0.5525,0.585 -0.975,1.365 -0.4225,0.78 -0.6175,1.69 l 0,7.2475 -2.925,0 0,-14.56 2.5025,0 0.26,3.0225 0.2275,0 q 0.2925,-0.65 0.78,-1.235 0.4875,-0.6175 1.0725,-1.04 0.585,-0.455 1.235,-0.715 0.6825,-0.2925 1.365,-0.2925 l 0.78,0 z"
           inkscape:connector-curvature="0" />
        <path
           id="path5218"
           d="m 956.98733,-1145.4228 q 0,1.6575 -0.5525,3.055 -0.52,1.3975 -1.4625,2.405 -0.91,1.0075 -2.1775,1.5925 -1.235,0.5525 -2.6325,0.5525 -1.43,0 -2.6975,-0.5525 -1.235,-0.585 -2.1775,-1.5925 -0.91,-1.0075 -1.43,-2.405 -0.52,-1.3975 -0.52,-3.055 0,-1.69 0.4875,-3.12 0.52,-1.4625 1.3975,-2.5025 0.91,-1.0725 2.145,-1.6575 1.235,-0.585 2.665,-0.585 1.5925,0 2.86,0.6175 1.3,0.585 2.21,1.625 0.91,1.04 1.3975,2.5025 0.4875,1.43 0.4875,3.12 z m -2.99,-0.033 q 0,-2.4375 -1.0725,-3.9325 -1.04,-1.495 -2.8925,-1.495 -0.845,0 -1.5275,0.4225 -0.6825,0.39 -1.17,1.1375 -0.4875,0.715 -0.7475,1.7225 -0.26,0.975 -0.26,2.145 0,2.3725 1.04,3.8025 1.04,1.43 2.795,1.43 1.6575,0 2.73,-1.3975 1.105,-1.3975 1.105,-3.835 z"
           inkscape:connector-curvature="0" />
        <path
           id="path5220"
           d="m 960.40745,-1152.6053 2.925,-0.39 0,15.275 q 0,1.17 -0.1625,2.0475 -0.1625,0.91 -0.4225,1.5925 -0.26,0.6825 -0.65,1.2025 -0.3575,0.52 -0.7475,0.9425 l -2.73,0.39 0,-0.8775 q 0.9425,-0.715 1.365,-2.015 0.4225,-1.3 0.4225,-3.4775 l 0,-14.69 z m -0.4875,-5.8825 q 0,-0.8125 0.5525,-1.365 0.585,-0.585 1.3975,-0.585 0.8125,0 1.365,0.585 0.585,0.5525 0.585,1.365 0,0.8125 -0.585,1.3975 -0.5525,0.5525 -1.365,0.5525 -0.8125,0 -1.3975,-0.5525 -0.5525,-0.585 -0.5525,-1.3975 z"
           inkscape:connector-curvature="0" />
        <path
           id="path5222"
           d="m 969.75018,-1144.7403 q 0,1.2675 0.325,2.145 0.325,0.845 0.845,1.365 0.5525,0.52 1.2675,0.7475 0.7475,0.2275 1.5925,0.2275 0.9425,0 1.9825,-0.4225 1.0725,-0.455 1.7875,-1.1375 l 0.0975,0 0.5525,2.34 q -0.8125,0.7475 -2.08,1.2025 -1.235,0.455 -2.7625,0.455 -1.3325,0 -2.535,-0.4225 -1.17,-0.4225 -2.08,-1.3 -0.91,-0.8775 -1.4625,-2.275 -0.52,-1.3975 -0.52,-3.3475 0,-1.7875 0.4875,-3.2825 0.52,-1.495 1.43,-2.5675 0.91,-1.0725 2.1125,-1.6575 1.235,-0.6175 2.665,-0.6175 1.3,0 2.34,0.455 1.04,0.455 1.755,1.2675 0.7475,0.78 1.1375,1.8525 0.39,1.0725 0.39,2.275 0,0.4875 -0.065,1.2675 -0.0325,0.7475 -0.26,1.43 l -9.0025,0 z m 6.435,-2.08 q 0.13,-0.975 -0.065,-1.7225 -0.1625,-0.7475 -0.585,-1.2675 -0.39,-0.52 -0.975,-0.78 -0.5525,-0.2925 -1.17,-0.2925 -0.7475,0 -1.3975,0.325 -0.6175,0.2925 -1.105,0.845 -0.455,0.5525 -0.715,1.3 -0.26,0.715 -0.2925,1.5925 l 6.305,0 z"
           inkscape:connector-curvature="0" />
        <path
           id="path5224"
           d="m 991.69479,-1149.4853 q -0.6825,-0.6175 -1.4625,-0.975 -0.78,-0.3575 -1.7225,-0.3575 -0.8775,0 -1.6575,0.4225 -0.7475,0.39 -1.3,1.1375 -0.5525,0.715 -0.8775,1.7875 -0.325,1.04 -0.325,2.3075 0,1.2675 0.2925,2.21 0.325,0.91 0.845,1.495 0.5525,0.585 1.2675,0.8775 0.715,0.26 1.56,0.26 1.105,0 1.95,-0.39 0.8775,-0.4225 1.5275,-0.9425 l 0.65,2.275 q -0.7475,0.65 -1.9175,1.105 -1.17,0.455 -2.405,0.455 -1.495,0 -2.7625,-0.52 -1.235,-0.5525 -2.145,-1.495 -0.8775,-0.975 -1.365,-2.3075 -0.4875,-1.3325 -0.4875,-2.9575 0,-1.7875 0.5525,-3.2825 0.585,-1.495 1.5275,-2.5675 0.9425,-1.105 2.1775,-1.7225 1.2675,-0.6175 2.6325,-0.6175 1.495,0 2.47,0.4225 0.975,0.4225 1.95,1.1375 l -0.975,2.2425 z"
           inkscape:connector-curvature="0" />
        <path
           id="path5226"
           d="m 999.88987,-1157.9028 0,5.07 3.41253,0 0,2.275 -3.41253,0 0,12.285 -2.925,0 0,-12.285 -2.925,0 0,-1.3325 2.925,-1.105 0,-4.0625 2.925,-0.845 z"
           inkscape:connector-curvature="0" />
        <path
           id="path5228"
           d="m 1013.4926,-1149.2578 q -1.04,-0.8125 -2.015,-1.235 -0.9425,-0.4225 -1.885,-0.4225 -1.04,0 -1.56,0.455 -0.4875,0.4225 -0.4875,0.975 0,0.4225 0.26,0.78 0.26,0.325 0.715,0.6825 0.455,0.325 1.0725,0.715 0.65,0.3575 1.3975,0.78 2.0475,1.2025 2.8275,2.2425 0.8125,1.04 0.8125,2.405 0,1.0075 -0.4225,1.7875 -0.39,0.7475 -1.105,1.2675 -0.6825,0.4875 -1.5925,0.7475 -0.8775,0.26 -1.8525,0.26 -1.56,0 -2.925,-0.52 -1.3325,-0.52 -2.145,-1.2675 l 0.8775,-2.1775 q 0.9425,0.65 1.9175,1.105 0.975,0.455 2.1775,0.455 0.975,0 1.625,-0.4225 0.6825,-0.455 0.6825,-1.235 0,-0.4225 -0.2925,-0.8125 -0.26,-0.39 -0.7475,-0.7475 -0.455,-0.39 -1.0725,-0.7475 -0.6175,-0.3575 -1.3,-0.715 -0.91,-0.4875 -1.5925,-0.9425 -0.6825,-0.4875 -1.17,-0.975 -0.455,-0.52 -0.6825,-1.105 -0.2275,-0.585 -0.2275,-1.3325 0,-0.8125 0.2925,-1.5275 0.325,-0.7475 0.9425,-1.3 0.6175,-0.5525 1.4625,-0.8775 0.8775,-0.325 2.015,-0.325 1.3975,0 2.665,0.5525 1.3,0.5525 2.2425,1.3325 l -0.91,2.145 z"
           inkscape:connector-curvature="0" />
      </g>
      <path
         style="fill:none;fill-rule:evenodd;stroke:#6789c8;stroke-width:2;stroke-linecap:butt;stroke-linejoin:miter;stroke-miterlimit:4;stroke-dasharray:none;stroke-opacity:1"
         d="m 376.2923,-812.38726 0,-49.94154 737.298,0 0,49.94154"
         id="path8320-2-1"
         inkscape:connector-curvature="0" />
      <path
         inkscape:connector-curvature="0"
         id="path8670-1"
         d="m 745,-962.6378 0,100"
         style="fill:none;fill-rule:evenodd;stroke:#6789c8;stroke-width:2;stroke-linecap:butt;stroke-linejoin:miter;stroke-miterlimit:4;stroke-dasharray:none;stroke-opacity:0.99803922" />
      <g
         id="g7264">
        <path
           inkscape:connector-curvature="0"
           style="opacity:1;fill:#fbd140;fill-opacity:1;stroke:none;stroke-width:1;stroke-linecap:round;stroke-linejoin:round;stroke-miterlimit:4;stroke-dasharray:none;stroke-opacity:1"
           d="m 705.0077,-1018.3228 c -3.73589,0 -6.7434,3.0161 -6.7434,6.7624 l 0,35.0279 c 0,3.7462 3.0075,6.7624 6.7434,6.7624 l 21.8487,0 c 3.5065,0 6.74341,-3.2369 6.74341,-6.7435 l 0,-19.0881 5.125,-4.8689 0,-11.0898 c 0,-3.7463 -3.0076,-6.7624 -6.74341,-6.7624 l -26.9737,0 z"
           id="rect7975-5-0-6" />
        <path
           id="rect7975-4-8-8-79-3"
           d="m 741.4813,-1250.1483 18.78212,0 c 3.53522,0 6.38126,3.0076 6.38126,6.7434 l 0,34.0764 c 0,3.7359 -2.84604,6.7434 -6.38126,6.7434 l -18.78212,0 c -3.53522,0 -6.38126,-3.0075 -6.38126,-6.7434 l 0,-34.0764 c 0,-3.7358 2.84604,-6.7434 6.38126,-6.7434 z"
           style="opacity:1;fill:#ffe9a1;fill-opacity:1;stroke:none;stroke-width:1;stroke-linecap:round;stroke-linejoin:round;stroke-miterlimit:4;stroke-dasharray:none;stroke-opacity:1"
           transform="matrix(0.94915618,0.31480557,0,1,0,0)"
           inkscape:connector-curvature="0" />
        <g
           id="text7898-5-1-4"
           style="font-style:normal;font-variant:normal;font-weight:normal;font-stretch:normal;font-size:32.5px;line-height:125%;font-family:'Concourse T4';-inkscape-font-specification:'Concourse T4, Normal';text-align:start;letter-spacing:0px;word-spacing:0px;writing-mode:lr-tb;text-anchor:start;fill:#404030;fill-opacity:1;stroke:none;stroke-width:1px;stroke-linecap:butt;stroke-linejoin:miter;stroke-opacity:1">
          <path
             id="path5165"
             d="m 746.64977,-1001.7628 0,22.49003 -2.925,0 0,-22.10003 2.925,-0.39 z"
             inkscape:connector-curvature="0" />
          <path
             id="path5167"
             d="m 762.5575,-980.47527 -1.9825,1.69 q -0.4875,-0.325 -0.91,-0.8125 -0.4225,-0.4875 -0.6825,-1.235 l -0.13,0 q -0.7475,1.0075 -1.885,1.5275 -1.105,0.4875 -2.34,0.4875 -0.8775,0 -1.69,-0.2925 -0.8125,-0.2925 -1.43,-0.845 -0.585,-0.5525 -0.975,-1.365 -0.3575,-0.8125 -0.3575,-1.8525 0,-0.8125 0.2925,-1.625 0.325,-0.8125 1.0075,-1.4625 0.715,-0.6825 1.8525,-1.105 1.17,-0.4225 2.86,-0.4225 0.4875,0 1.1375,0.065 0.65,0.0325 1.2025,0.0975 l 0,-1.43 q 0,-0.8125 -0.26,-1.3325 -0.2275,-0.5525 -0.6175,-0.8775 -0.39,-0.3575 -0.8775,-0.4875 -0.4875,-0.1625 -0.9425,-0.1625 -0.9425,0 -1.885,0.39 -0.9425,0.3575 -1.9825,1.04 l -0.975,-2.1775 q 1.04,-0.6175 2.34,-1.105 1.3,-0.52 3.055,-0.52 0.91,0 1.7875,0.26 0.8775,0.26 1.56,0.845 0.6825,0.585 1.105,1.495 0.4225,0.8775 0.4225,2.145 l 0,6.695 q 0,0.845 0.39,1.43 0.4225,0.5525 0.91,0.8125 l 0,0.13 z m -4.03,-5.0375 q -0.455,-0.065 -1.105,-0.13 -0.65,-0.065 -1.2675,-0.065 -1.56,0 -2.3725,0.715 -0.8125,0.6825 -0.8125,1.7875 0,1.04 0.65,1.5275 0.65,0.4875 1.5925,0.4875 1.1375,0 2.015,-0.52 0.8775,-0.52 1.3,-1.3975 l 0,-2.405 z"
             inkscape:connector-curvature="0" />
          <path
             id="path5169"
             d="m 768.09723,-992.89027 q 0.8125,-0.6825 1.7225,-1.04 0.9425,-0.3575 2.1775,-0.3575 1.365,0 2.47,0.5525 1.105,0.5525 1.885,1.5925 0.78,1.0075 1.2025,2.4375 0.455,1.3975 0.455,3.0875 0,1.69 -0.5525,3.12 -0.52,1.43 -1.495,2.47 -0.975,1.04 -2.3075,1.625 -1.3325,0.585 -2.925,0.585 -1.3325,0 -2.8275,-0.4225 -1.495,-0.4225 -2.8925,-1.365 l 0,-20.76753 2.925,-0.39 0,8.87253 0.1625,0 z m -0.1625,10.7575 q 0.4875,0.39 1.2025,0.585 0.715,0.195 1.495,0.195 0.91,0 1.69,-0.325 0.8125,-0.325 1.3975,-0.975 0.6175,-0.6825 0.9425,-1.69 0.3575,-1.04 0.3575,-2.4375 0,-1.0725 -0.2275,-1.9825 -0.195,-0.9425 -0.65,-1.5925 -0.455,-0.6825 -1.2025,-1.04 -0.715,-0.39 -1.7875,-0.39 -0.91,0 -1.82,0.455 -0.91,0.455 -1.3975,0.9425 l 0,8.255 z"
             inkscape:connector-curvature="0" />
          <path
             id="path5171"
             d="m 788.90485,-988.43777 0,2.73 -8.45,0 0,-2.73 8.45,0 z"
             inkscape:connector-curvature="0" />
          <path
             id="path5173"
             d="m 807.91227,-990.55027 q 0,3.0875 -0.6175,5.33 -0.585,2.21 -1.6575,3.64 -1.0725,1.43 -2.5675,2.1125 -1.4625,0.6825 -3.2175,0.6825 -1.69,0 -3.185,-0.6175 -1.495,-0.6175 -2.6,-1.9825 -1.105,-1.3975 -1.755,-3.64 -0.65,-2.2425 -0.65,-5.525 0,-3.0225 0.65,-5.1675 0.65,-2.145 1.755,-3.51 1.105,-1.36503 2.6,-1.98253 1.495,-0.65 3.185,-0.65 1.755,0 3.2175,0.715 1.495,0.6825 2.5675,2.11253 1.0725,1.3975 1.6575,3.5425 0.6175,2.1125 0.6175,4.94 z m -3.12,-0.065 q 0,-4.225 -1.43,-6.37 -1.3975,-2.1775 -3.64,-2.1775 -0.975,0 -1.885,0.4875 -0.8775,0.4875 -1.56,1.56 -0.6825,1.04 -1.105,2.665 -0.39,1.5925 -0.39,3.835 0,2.6325 0.4225,4.42 0.455,1.755 1.17,2.795 0.715,1.04 1.625,1.495 0.91,0.4225 1.885,0.4225 2.3075,0 3.6075,-2.1125 1.3,-2.145 1.3,-7.02 z"
             inkscape:connector-curvature="0" />
          <path
             id="path5175"
             d="m 815.93469,-979.27277 0,-19.305 -3.9975,0.455 -0.195,-2.63253 6.63,-0.845 0.5525,0.39 0,21.93753 -2.99,0 z"
             inkscape:connector-curvature="0" />
          <path
             id="path5177"
             d="m 833.7193,-988.43777 0,2.73 -8.45,0 0,-2.73 8.45,0 z"
             inkscape:connector-curvature="0" />
          <path
             id="path5179"
             d="m 845.12934,-987.62527 -3.2175,8.8075 -0.975,0 -5.8175,-15.015 3.0225,0 3.315,9.1325 0.13,0 3.25,-9.3275 0.845,0 3.12,9.3275 0.13,0 3.12,-9.1325 3.0225,0 -5.8175,15.015 -0.975,0 -2.9575,-8.8075 -0.195,0 z"
             inkscape:connector-curvature="0" />
          <path
             id="path5181"
             d="m 859.32727,-985.74027 q 0,1.2675 0.325,2.145 0.325,0.845 0.845,1.365 0.5525,0.52 1.2675,0.7475 0.7475,0.2275 1.5925,0.2275 0.9425,0 1.9825,-0.4225 1.0725,-0.455 1.7875,-1.1375 l 0.0975,0 0.5525,2.34 q -0.8125,0.7475 -2.08,1.2025 -1.235,0.455 -2.7625,0.455 -1.3325,0 -2.535,-0.4225 -1.17,-0.4225 -2.08,-1.3 -0.91,-0.8775 -1.4625,-2.275 -0.52,-1.3975 -0.52,-3.3475 0,-1.7875 0.4875,-3.2825 0.52,-1.495 1.43,-2.5675 0.91,-1.0725 2.1125,-1.6575 1.235,-0.6175 2.665,-0.6175 1.3,0 2.34,0.455 1.04,0.455 1.755,1.2675 0.7475,0.78 1.1375,1.8525 0.39,1.0725 0.39,2.275 0,0.4875 -0.065,1.2675 -0.0325,0.7475 -0.26,1.43 l -9.0025,0 z m 6.435,-2.08 q 0.13,-0.975 -0.065,-1.7225 -0.1625,-0.7475 -0.585,-1.2675 -0.39,-0.52 -0.975,-0.78 -0.5525,-0.2925 -1.17,-0.2925 -0.7475,0 -1.3975,0.325 -0.6175,0.2925 -1.105,0.845 -0.455,0.5525 -0.715,1.3 -0.26,0.715 -0.2925,1.5925 l 6.305,0 z"
             inkscape:connector-curvature="0" />
          <path
             id="path5183"
             d="m 874.67438,-992.89027 q 0.8125,-0.6825 1.7225,-1.04 0.9425,-0.3575 2.1775,-0.3575 1.365,0 2.47,0.5525 1.105,0.5525 1.885,1.5925 0.78,1.0075 1.2025,2.4375 0.455,1.3975 0.455,3.0875 0,1.69 -0.5525,3.12 -0.52,1.43 -1.495,2.47 -0.975,1.04 -2.3075,1.625 -1.3325,0.585 -2.925,0.585 -1.3325,0 -2.8275,-0.4225 -1.495,-0.4225 -2.8925,-1.365 l 0,-20.76753 2.925,-0.39 0,8.87253 0.1625,0 z m -0.1625,10.7575 q 0.4875,0.39 1.2025,0.585 0.715,0.195 1.495,0.195 0.91,0 1.69,-0.325 0.8125,-0.325 1.3975,-0.975 0.6175,-0.6825 0.9425,-1.69 0.3575,-1.04 0.3575,-2.4375 0,-1.0725 -0.2275,-1.9825 -0.195,-0.9425 -0.65,-1.5925 -0.455,-0.6825 -1.2025,-1.04 -0.715,-0.39 -1.7875,-0.39 -0.91,0 -1.82,0.455 -0.91,0.455 -1.3975,0.9425 l 0,8.255 z"
             inkscape:connector-curvature="0" />
          <path
             id="path5185"
             d="m 895.57949,-990.25777 q -1.04,-0.8125 -2.015,-1.235 -0.9425,-0.4225 -1.885,-0.4225 -1.04,0 -1.56,0.455 -0.4875,0.4225 -0.4875,0.975 0,0.4225 0.26,0.78 0.26,0.325 0.715,0.6825 0.455,0.325 1.0725,0.715 0.65,0.3575 1.3975,0.78 2.0475,1.2025 2.8275,2.2425 0.8125,1.04 0.8125,2.405 0,1.0075 -0.4225,1.7875 -0.39,0.7475 -1.105,1.2675 -0.6825,0.4875 -1.5925,0.7475 -0.8775,0.26 -1.8525,0.26 -1.56,0 -2.925,-0.52 -1.3325,-0.52 -2.145,-1.2675 l 0.8775,-2.1775 q 0.9425,0.65 1.9175,1.105 0.975,0.455 2.1775,0.455 0.975,0 1.625,-0.4225 0.6825,-0.455 0.6825,-1.235 0,-0.4225 -0.2925,-0.8125 -0.26,-0.39 -0.7475,-0.7475 -0.455,-0.39 -1.0725,-0.7475 -0.6175,-0.3575 -1.3,-0.715 -0.91,-0.4875 -1.5925,-0.9425 -0.6825,-0.4875 -1.17,-0.975 -0.455,-0.52 -0.6825,-1.105 -0.2275,-0.585 -0.2275,-1.3325 0,-0.8125 0.2925,-1.5275 0.325,-0.7475 0.9425,-1.3 0.6175,-0.5525 1.4625,-0.8775 0.8775,-0.325 2.015,-0.325 1.3975,0 2.665,0.5525 1.3,0.5525 2.2425,1.3325 l -0.91,2.145 z"
             inkscape:connector-curvature="0" />
          <path
             id="path5187"
             d="m 902.92906,-993.99527 0,14.7225 -2.925,0 0,-14.3325 2.925,-0.39 z m -3.4125,-5.4925 q 0,-0.81253 0.5525,-1.36503 0.585,-0.585 1.3975,-0.585 0.8125,0 1.365,0.585 0.585,0.5525 0.585,1.36503 0,0.8125 -0.585,1.3975 -0.5525,0.5525 -1.365,0.5525 -0.8125,0 -1.3975,-0.5525 -0.5525,-0.585 -0.5525,-1.3975 z"
             inkscape:connector-curvature="0" />
          <path
             id="path5189"
             d="m 911.5568,-998.90277 0,5.07 3.4125,0 0,2.275 -3.4125,0 0,12.285 -2.925,0 0,-12.285 -2.925,0 0,-1.3325 2.925,-1.105 0,-4.0625 2.925,-0.845 z"
             inkscape:connector-curvature="0" />
          <path
             id="path5191"
             d="m 919.43957,-985.74027 q 0,1.2675 0.325,2.145 0.325,0.845 0.845,1.365 0.5525,0.52 1.2675,0.7475 0.7475,0.2275 1.5925,0.2275 0.9425,0 1.9825,-0.4225 1.0725,-0.455 1.7875,-1.1375 l 0.0975,0 0.5525,2.34 q -0.8125,0.7475 -2.08,1.2025 -1.235,0.455 -2.7625,0.455 -1.3325,0 -2.535,-0.4225 -1.17,-0.4225 -2.08,-1.3 -0.91,-0.8775 -1.4625,-2.275 -0.52,-1.3975 -0.52,-3.3475 0,-1.7875 0.4875,-3.2825 0.52,-1.495 1.43,-2.5675 0.91,-1.0725 2.1125,-1.6575 1.235,-0.6175 2.665,-0.6175 1.3,0 2.34,0.455 1.04,0.455 1.755,1.2675 0.7475,0.78 1.1375,1.8525 0.39,1.0725 0.39,2.275 0,0.4875 -0.065,1.2675 -0.0325,0.7475 -0.26,1.43 l -9.0025,0 z m 6.435,-2.08 q 0.13,-0.975 -0.065,-1.7225 -0.1625,-0.7475 -0.585,-1.2675 -0.39,-0.52 -0.975,-0.78 -0.5525,-0.2925 -1.17,-0.2925 -0.7475,0 -1.3975,0.325 -0.6175,0.2925 -1.105,0.845 -0.455,0.5525 -0.715,1.3 -0.26,0.715 -0.2925,1.5925 l 6.305,0 z"
             inkscape:connector-curvature="0" />
        </g>
      </g>
      <path
         id="rect7975-5-0-6-1"
         d="m 1075.283,-813.6378 c -3.7359,0 -6.7434,3.0161 -6.7434,6.7624 l 0,35.0279 c 0,3.7462 3.0075,6.7624 6.7434,6.7624 l 21.8487,0 c 3.5065,0 6.7434,-3.2369 6.7434,-6.7435 l 0,-19.0881 5.125,-4.8689 0,-11.0898 c 0,-3.7463 -3.0076,-6.7624 -6.7434,-6.7624 l -26.9737,0 z"
         style="opacity:1;fill:#15af90;fill-opacity:1;stroke:none;stroke-width:1;stroke-linecap:round;stroke-linejoin:round;stroke-miterlimit:4;stroke-dasharray:none;stroke-opacity:1"
         inkscape:connector-curvature="0" />
      <rect
         transform="matrix(0.94915618,0.31480557,0,1,0,0)"
         rx="6.3812609"
         ry="6.7434258"
         y="-1168.2721"
         x="1125.21"
         height="47.563263"
         width="31.544641"
         id="rect7975-4-8-8-79-3-6"
         style="opacity:1;fill:#a2dfd3;fill-opacity:1;stroke:none;stroke-width:1;stroke-linecap:round;stroke-linejoin:round;stroke-miterlimit:4;stroke-dasharray:none;stroke-opacity:1" />
      <g
         id="text7898-5-1-4-6"
         style="font-style:normal;font-variant:normal;font-weight:normal;font-stretch:normal;font-size:32.5px;line-height:125%;font-family:'Concourse T4';-inkscape-font-specification:'Concourse T4, Normal';text-align:start;letter-spacing:0px;word-spacing:0px;writing-mode:lr-tb;text-anchor:start;fill:#404030;fill-opacity:1;stroke:none;stroke-width:1px;stroke-linecap:butt;stroke-linejoin:miter;stroke-opacity:1">
        <path
           id="path5019"
           d="m 1114.1625,-776.31027 q 0,-0.8125 0.5525,-1.365 0.585,-0.585 1.3975,-0.585 0.8125,0 1.365,0.585 0.585,0.5525 0.585,1.365 0,0.8125 -0.585,1.3975 -0.5525,0.5525 -1.365,0.5525 -0.8125,0 -1.3975,-0.5525 -0.5525,-0.585 -0.5525,-1.3975 z"
           inkscape:connector-curvature="0" />
        <path
           id="path5021"
           d="m 1127.8374,-777.05777 q 0.91,0 1.8525,-0.3575 0.9425,-0.3575 1.69,-0.975 l 0,-7.5075 q -0.4875,-0.455 -1.2675,-0.8125 -0.78,-0.3575 -1.7225,-0.3575 -0.975,0 -1.755,0.455 -0.7475,0.4225 -1.2675,1.2025 -0.52,0.78 -0.8125,1.8525 -0.26,1.04 -0.26,2.2425 0,2.3075 1.0075,3.2825 1.0075,0.975 2.535,0.975 z m -4.29,5.395 q 0.8775,0.6825 1.69,0.9425 0.8125,0.26 1.8525,0.26 0.845,0 1.5925,-0.2275 0.78,-0.2275 1.365,-0.7475 0.6175,-0.4875 0.975,-1.3 0.3575,-0.8125 0.3575,-1.9825 l 0,-1.365 -0.1625,0 q -0.585,0.585 -1.2025,0.91 -0.585,0.325 -1.1375,0.4875 -0.5525,0.1625 -1.04,0.195 -0.455,0.0325 -0.8125,0.0325 -2.6325,0 -4.1925,-1.7875 -1.5275,-1.82 -1.5275,-5.2325 0,-1.6575 0.455,-3.12 0.4875,-1.495 1.365,-2.6 0.91,-1.105 2.1775,-1.755 1.3,-0.65 2.925,-0.65 0.91,0 1.82,0.3575 0.91,0.3575 1.6575,1.105 l 0.1625,0 1.0725,-1.2025 1.365,0.2275 0,14.3 q 0,1.4625 -0.5525,2.73 -0.5525,1.3 -1.5275,2.21 -0.975,0.9425 -2.3075,1.4625 -1.3,0.5525 -2.795,0.5525 -1.5275,0 -2.6975,-0.39 -1.17,-0.39 -2.08,-1.105 l 1.1375,-2.3075 0.065,0 z"
           inkscape:connector-curvature="0" />
        <path
           id="path5023"
           d="m 1141.3,-789.31027 0,14.7225 -2.925,0 0,-14.3325 2.925,-0.39 z m -3.4125,-5.4925 q 0,-0.8125 0.5525,-1.365 0.585,-0.585 1.3975,-0.585 0.8125,0 1.365,0.585 0.585,0.5525 0.585,1.365 0,0.8125 -0.585,1.3975 -0.5525,0.5525 -1.365,0.5525 -0.8125,0 -1.3975,-0.5525 -0.5525,-0.585 -0.5525,-1.3975 z"
           inkscape:connector-curvature="0" />
        <path
           id="path5025"
           d="m 1149.9277,-794.21777 0,5.07 3.4125,0 0,2.275 -3.4125,0 0,12.285 -2.925,0 0,-12.285 -2.925,0 0,-1.3325 2.925,-1.105 0,-4.0625 2.925,-0.845 z"
           inkscape:connector-curvature="0" />
      </g>
      <g
         id="text7898-5-8-1-74-6-1-44-6-3"
         style="font-style:normal;font-variant:normal;font-weight:normal;font-stretch:normal;font-size:25px;line-height:125%;font-family:'Equity Caps A';-inkscape-font-specification:'Equity Caps A, Normal';text-align:center;letter-spacing:0px;word-spacing:0px;writing-mode:lr-tb;text-anchor:middle;fill:#e74c3c;fill-opacity:1;stroke:none;stroke-width:1px;stroke-linecap:butt;stroke-linejoin:miter;stroke-opacity:1">
        <path
           id="path4964"
           d="m 288.24122,-805.73783 -2.275,-0.375 0,-1 5.6,0 0,1 -1.875,0.375 -4.85,16.275 -1.625,0 -3.2,-11.35 -3.375,11.35 -1.625,0 -4.6,-16.275 -1.9,-0.375 0,-1 6.6,0 0,1 -2.025,0.375 3.15,11.6 0.4,0 2.725,-8.9 -0.75,-2.7 -1.65,-0.375 0,-1 6.35,0 0,1 -2.025,0.375 3.15,11.6 0.375,0 3.425,-11.6 z"
           inkscape:connector-curvature="0" />
        <path
           id="path4966"
           d="m 293.51114,-798.26283 q 0,-2.1 0.675,-3.8 0.675,-1.7 1.825,-2.875 1.15,-1.2 2.675,-1.825 1.55,-0.65 3.275,-0.65 1.825,0 3.375,0.625 1.55,0.625 2.675,1.825 1.125,1.175 1.75,2.875 0.625,1.7 0.625,3.825 0,2.275 -0.675,3.975 -0.675,1.7 -1.825,2.85 -1.125,1.125 -2.675,1.7 -1.525,0.575 -3.25,0.575 -1.725,0 -3.275,-0.6 -1.525,-0.6 -2.675,-1.75 -1.15,-1.15 -1.825,-2.85 -0.675,-1.7 -0.675,-3.9 z m 2.925,-0.025 q 0,2.1 0.45,3.575 0.45,1.475 1.2,2.425 0.775,0.95 1.775,1.4 1,0.425 2.1,0.425 1.1,0 2.1,-0.35 1,-0.35 1.75,-1.225 0.75,-0.9 1.2,-2.4 0.45,-1.525 0.45,-3.85 0,-2.15 -0.425,-3.65 -0.425,-1.5 -1.175,-2.425 -0.725,-0.95 -1.725,-1.375 -1,-0.425 -2.175,-0.425 -1.1,0 -2.1,0.45 -1,0.425 -1.775,1.375 -0.75,0.925 -1.2,2.425 -0.45,1.5 -0.45,3.625 z"
           inkscape:connector-curvature="0" />
        <path
           id="path4968"
           d="m 322.34161,-797.68783 q 0.725,0.35 1.325,1.225 0.625,0.875 1.225,1.925 0.6,1.025 1.25,2.05 0.65,1.025 1.45,1.65 l 1.575,0.375 0,1 -3.775,0 q -0.575,-0.425 -1.1,-1.125 -0.5,-0.7 -0.975,-1.5 -0.475,-0.825 -0.95,-1.675 -0.475,-0.875 -0.975,-1.625 -0.5,-0.75 -1.05,-1.325 -0.55,-0.6 -1.175,-0.875 l -0.35,0 0,6.75 2.45,0.375 0,1 -7.3,0 0,-1 2.2,-0.375 0,-14.9 -2.2,-0.375 0,-1 7.875,0 q 0.675,0 1.55,0.2 0.875,0.175 1.65,0.7 0.8,0.5 1.35,1.4 0.55,0.9 0.55,2.325 0,0.625 -0.25,1.325 -0.25,0.675 -0.8,1.325 -0.525,0.625 -1.4,1.125 -0.875,0.5 -2.15,0.75 l 0,0.275 z m -3.525,-1.275 1.725,0 q 0.975,0 1.65,-0.325 0.675,-0.325 1.1,-0.825 0.425,-0.5 0.6,-1.1 0.2,-0.625 0.2,-1.2 0,-0.95 -0.225,-1.575 -0.2,-0.65 -0.575,-1.025 -0.375,-0.4 -0.875,-0.55 -0.475,-0.175 -1.025,-0.175 l -2.575,0 0,6.775 z"
           inkscape:connector-curvature="0" />
        <path
           id="path4970"
           d="m 336.93184,-797.61283 0,6.775 2.175,0.375 0,1 -7.025,0 0,-1 2.2,-0.375 0,-14.9 -2.2,-0.375 0,-1 7.025,0 0,1 -2.175,0.375 0,6.775 0.4,0 6.775,-6.775 -1.75,-0.375 0,-1 5.7,0 0,1 -2.025,0.375 -6.8,6.8 8.05,8.1 2.025,0.375 0,1 -7.275,0 0,-1 1.775,-0.375 -6.55,-6.775 -0.325,0 z"
           inkscape:connector-curvature="0" />
        <path
           id="path4972"
           d="m 359.00489,-807.11283 0,1 -2.2,0.375 0,14.9 2.2,0.375 0,1 -7.05,0 0,-1 2.2,-0.375 0,-14.9 -2.2,-0.375 0,-1 7.05,0 z"
           inkscape:connector-curvature="0" />
        <path
           id="path4974"
           d="m 376.90294,-794.18783 0,-11.55 -2.2,-0.375 0,-1 5.75,0 0,1 -2.175,0.375 0,16.325 -1.125,0 -11.375,-13.975 -0.35,0 0,12.55 2.2,0.375 0,1 -5.55,0 0,-1 1.975,-0.375 0,-14.9 -1.975,-0.375 0,-1 3.975,0 10.5,12.925 0.35,0 z"
           inkscape:connector-curvature="0" />
        <path
           id="path4976"
           d="m 392.82169,-790.53783 q 0.875,0 1.8,-0.25 0.95,-0.275 1.625,-0.85 l 0,-5.25 -2.925,-0.375 0,-1 7.5,0 0,1 -1.925,0.375 0,6.3 q -0.475,0.2 -1.125,0.45 -0.65,0.25 -1.5,0.475 -0.85,0.2 -1.9,0.35 -1.05,0.15 -2.325,0.15 -1.725,0 -3.25,-0.6 -1.525,-0.6 -2.65,-1.75 -1.125,-1.15 -1.8,-2.85 -0.65,-1.7 -0.65,-3.9 0,-2.1 0.725,-3.8 0.75,-1.7 2,-2.875 1.25,-1.2 2.925,-1.825 1.675,-0.65 3.55,-0.65 0.725,0 1.5,0.15 0.8,0.15 1.575,0.4 0.775,0.225 1.5,0.55 0.75,0.325 1.4,0.675 l 0,3.525 -0.825,0 q -0.375,-1.125 -0.95,-1.875 -0.575,-0.775 -1.275,-1.25 -0.675,-0.5 -1.425,-0.7 -0.75,-0.225 -1.5,-0.225 -1.25,0 -2.4,0.45 -1.125,0.425 -2,1.375 -0.85,0.925 -1.375,2.425 -0.5,1.5 -0.5,3.625 0,2.1 0.5,3.575 0.5,1.45 1.35,2.4 0.85,0.925 1.975,1.35 1.125,0.425 2.375,0.425 z"
           inkscape:connector-curvature="0" />
        <path
           id="path4978"
           d="m 419.91544,-790.53783 q 2.1,0 3.575,-1.025 1.475,-1.025 2.125,-2.95 l 0.8,0 0,3.425 q -0.675,0.4 -1.4,0.75 -0.7,0.35 -1.5,0.625 -0.8,0.25 -1.75,0.4 -0.95,0.15 -2.125,0.15 -1.775,0 -3.35,-0.6 -1.575,-0.6 -2.75,-1.75 -1.15,-1.15 -1.825,-2.85 -0.675,-1.7 -0.675,-3.9 0,-2.1 0.725,-3.8 0.75,-1.7 2,-2.875 1.25,-1.2 2.925,-1.825 1.675,-0.65 3.55,-0.65 0.725,0 1.5,0.15 0.8,0.15 1.575,0.4 0.775,0.225 1.5,0.55 0.75,0.325 1.4,0.675 l 0,3.525 -0.825,0 q -0.375,-1.125 -0.95,-1.875 -0.575,-0.775 -1.275,-1.25 -0.675,-0.5 -1.425,-0.7 -0.75,-0.225 -1.5,-0.225 -1.25,0 -2.4,0.475 -1.125,0.45 -2,1.425 -0.85,0.975 -1.375,2.475 -0.5,1.475 -0.5,3.5 0,1.975 0.525,3.425 0.525,1.45 1.375,2.425 0.85,0.95 1.9,1.425 1.075,0.475 2.15,0.475 z"
           inkscape:connector-curvature="0" />
        <path
           id="path4980"
           d="m 430.57169,-798.26283 q 0,-2.1 0.675,-3.8 0.675,-1.7 1.825,-2.875 1.15,-1.2 2.675,-1.825 1.55,-0.65 3.275,-0.65 1.825,0 3.375,0.625 1.55,0.625 2.675,1.825 1.125,1.175 1.75,2.875 0.625,1.7 0.625,3.825 0,2.275 -0.675,3.975 -0.675,1.7 -1.825,2.85 -1.125,1.125 -2.675,1.7 -1.525,0.575 -3.25,0.575 -1.725,0 -3.275,-0.6 -1.525,-0.6 -2.675,-1.75 -1.15,-1.15 -1.825,-2.85 -0.675,-1.7 -0.675,-3.9 z m 2.925,-0.025 q 0,2.1 0.45,3.575 0.45,1.475 1.2,2.425 0.775,0.95 1.775,1.4 1,0.425 2.1,0.425 1.1,0 2.1,-0.35 1,-0.35 1.75,-1.225 0.75,-0.9 1.2,-2.4 0.45,-1.525 0.45,-3.85 0,-2.15 -0.425,-3.65 -0.425,-1.5 -1.175,-2.425 -0.725,-0.95 -1.725,-1.375 -1,-0.425 -2.175,-0.425 -1.1,0 -2.1,0.45 -1,0.425 -1.775,1.375 -0.75,0.925 -1.2,2.425 -0.45,1.5 -0.45,3.625 z"
           inkscape:connector-curvature="0" />
        <path
           id="path4982"
           d="m 455.90215,-797.13783 0,6.3 2.425,0.375 0,1 -7.3,0 0,-1 2.2,-0.375 0,-14.9 -2.2,-0.375 0,-1 6.4,0 q 1.1,0 2.225,0.275 1.125,0.275 2.025,0.875 0.925,0.6 1.5,1.55 0.575,0.95 0.575,2.325 0,1.125 -0.45,2.05 -0.425,0.9 -1.275,1.55 -0.825,0.65 -2.025,1 -1.2,0.35 -2.7,0.35 l -1.4,0 z m 0,-1.3 1.625,0 q 0.7,0 1.325,-0.225 0.65,-0.25 1.125,-0.7 0.475,-0.45 0.75,-1.1 0.275,-0.65 0.275,-1.475 0,-1.025 -0.275,-1.725 -0.25,-0.725 -0.75,-1.175 -0.475,-0.45 -1.15,-0.65 -0.675,-0.2 -1.525,-0.2 l -1.4,0 0,7.25 z"
           inkscape:connector-curvature="0" />
        <path
           id="path4984"
           d="m 478.06153,-805.73783 -2.225,-0.375 0,-1 5.6,0 0,1 -1.875,0.375 -4.725,8.075 0,6.825 2.2,0.375 0,1 -7.05,0 0,-1 2.2,-0.375 0,-6.75 -4.775,-8.15 -1.825,-0.375 0,-1 6.6,0 0,1 -2.025,0.375 3.7,6.375 0.4,0 3.8,-6.375 z"
           inkscape:connector-curvature="0" />
        <path
           id="path4986"
           d="m 241.2127,-764.61283 q 0,-1.55 0.525,-2.8 0.55,-1.25 1.45,-2.125 0.925,-0.9 2.15,-1.375 1.25,-0.475 2.65,-0.475 1.45,0 2.675,0.475 1.25,0.45 2.15,1.325 0.9,0.875 1.4,2.15 0.5,1.25 0.5,2.825 0,1.65 -0.55,2.925 -0.525,1.25 -1.45,2.1 -0.9,0.85 -2.125,1.275 -1.225,0.425 -2.6,0.425 -1.4,0 -2.65,-0.425 -1.225,-0.45 -2.15,-1.3 -0.9,-0.875 -1.45,-2.125 -0.525,-1.25 -0.525,-2.875 z m 2.75,-0.025 q 0,1.325 0.325,2.325 0.325,1 0.875,1.7 0.55,0.675 1.275,1.025 0.725,0.35 1.55,0.35 0.8,0 1.525,-0.275 0.725,-0.3 1.275,-0.95 0.55,-0.65 0.875,-1.675 0.325,-1.025 0.325,-2.5 0,-1.35 -0.325,-2.375 -0.3,-1.05 -0.85,-1.725 -0.525,-0.7 -1.275,-1.05 -0.725,-0.35 -1.55,-0.35 -0.825,0 -1.55,0.35 -0.725,0.35 -1.275,1.05 -0.55,0.7 -0.875,1.725 -0.325,1.025 -0.325,2.375 z"
           inkscape:connector-curvature="0" />
        <path
           id="path4988"
           d="m 268.45606,-771.16283 0.35,3.1 -1.075,0 -1.325,-1.875 -3.975,0 0,4.475 2.525,0 0.675,-1.425 0.8,0 0,4.175 -0.8,0 -0.675,-1.575 -2.525,0 0,4.75 1.875,0.375 0,0.95 -6.15,0 0,-0.95 1.8,-0.375 0,-10.3 -1.8,-0.375 0,-0.95 10.3,0 z"
           inkscape:connector-curvature="0" />
        <path
           id="path4990"
           d="m 289.06153,-771.16283 0.35,3.1 -1.075,0 -1.325,-1.875 -3.975,0 0,4.475 2.525,0 0.675,-1.425 0.8,0 0,4.175 -0.8,0 -0.675,-1.575 -2.525,0 0,4.75 1.875,0.375 0,0.95 -6.15,0 0,-0.95 1.8,-0.375 0,-10.3 -1.8,-0.375 0,-0.95 10.3,0 z m 9.6,0 0,0.95 -1.775,0.375 0,10.3 1.775,0.375 0,0.95 -6.05,0 0,-0.95 1.8,-0.375 0,-10.3 -1.8,-0.375 0,-0.95 6.05,0 z"
           inkscape:connector-curvature="0" />
        <path
           id="path4992"
           d="m 302.34551,-758.21283 0,-0.95 1.8,-0.375 0,-10.3 -1.8,-0.375 0,-0.95 6.15,0 0,0.95 -1.875,0.375 0,10.4 3.875,0 1.675,-2.425 1.075,0 -0.525,3.65 -10.375,0 z"
           inkscape:connector-curvature="0" />
        <path
           id="path4994"
           d="m 324.89122,-759.43783 1.45,-2.225 1.075,0 -0.525,3.45 -10.825,0 0,-0.95 1.8,-0.375 0,-10.3 -1.8,-0.375 0,-0.95 10.175,0 0.325,3.1 -1.05,0 -1.3,-1.875 -3.875,0 0,4.475 2.4,0 0.675,-1.425 0.8,0 0,4.175 -0.8,0 -0.675,-1.575 -2.4,0 0,4.85 4.55,0 z"
           inkscape:connector-curvature="0" />
        <path
           id="path4996"
           d="m 330.99551,-762.56283 1.2,0 q 0.375,1.65 1.225,2.55 0.85,0.9 2.125,0.9 1,0 1.6,-0.55 0.6,-0.575 0.6,-1.45 0,-0.4 -0.125,-0.725 -0.1,-0.35 -0.4,-0.65 -0.3,-0.325 -0.85,-0.625 -0.525,-0.325 -1.375,-0.7 -1.85,-0.8 -2.775,-1.7 -0.925,-0.9 -0.925,-2.25 0,-0.625 0.275,-1.275 0.275,-0.65 0.8,-1.175 0.525,-0.525 1.275,-0.85 0.775,-0.325 1.75,-0.325 0.85,0 1.4,0.225 0.575,0.2 1,0.375 l 0.9,-0.375 0.65,0 0.45,3.925 -1.175,0 q -0.475,-1.5 -1.3,-2.2 -0.825,-0.7 -1.825,-0.7 -0.875,0 -1.425,0.475 -0.55,0.475 -0.55,1.375 0,0.8 0.7,1.35 0.725,0.525 2.35,1.15 1.65,0.65 2.525,1.575 0.875,0.9 0.875,2.4 0,0.975 -0.35,1.725 -0.325,0.725 -0.925,1.225 -0.6,0.475 -1.425,0.725 -0.8,0.25 -1.725,0.25 -0.65,0 -1.35,-0.225 -0.7,-0.2 -1.175,-0.525 l -1.075,0.375 -0.95,0 0,-4.3 z"
           inkscape:connector-curvature="0" />
        <path
           id="path4998"
           d="m 358.87715,-762.46283 -4.45,0 -1.05,2.675 2,0.625 0,0.95 -5.15,0 0,-0.95 1.7,-0.625 4.6,-11.375 1.525,0 4.575,11.625 1.5,0.375 0,0.95 -5.8,0 0,-0.95 1.675,-0.375 -1.125,-2.925 z m -3.975,-1.175 3.525,0 -1.625,-4.225 -0.2,0 -1.7,4.225 z"
           inkscape:connector-curvature="0" />
        <path
           id="path5000"
           d="m 377.82364,-762.63783 0,-6.95 -2.05,-0.625 0,-0.95 5.2,0 0,0.95 -1.775,0.625 0,11.55 -0.75,0 -8.5,-10 -0.3,0 0,8.25 2.05,0.625 0,0.95 -5.025,0 0,-0.95 1.6,-0.625 0,-10.05 -1.6,-0.375 0,-0.95 3.575,0 7.275,8.525 0.3,0 z"
           inkscape:connector-curvature="0" />
        <path
           id="path5002"
           d="m 384.13262,-758.21283 0,-0.95 1.8,-0.375 0,-10.3 -1.8,-0.375 0,-0.95 5.975,0 q 1.675,0 3,0.45 1.35,0.45 2.275,1.3 0.95,0.825 1.45,2.05 0.5,1.225 0.5,2.75 0,1.55 -0.575,2.75 -0.55,1.2 -1.55,2.025 -1,0.8 -2.375,1.225 -1.35,0.4 -2.95,0.4 l -5.75,0 z m 5.75,-1.325 q 0.95,0 1.825,-0.275 0.875,-0.275 1.525,-0.875 0.675,-0.625 1.05,-1.575 0.4,-0.975 0.4,-2.375 0,-1.275 -0.375,-2.25 -0.35,-0.975 -0.975,-1.625 -0.625,-0.675 -1.475,-1 -0.825,-0.325 -1.775,-0.325 l -1.675,0 0,10.3 1.475,0 z"
           inkscape:connector-curvature="0" />
        <path
           id="path5004"
           d="m 418.06544,-771.16283 0.35,3.1 -1.075,0 -1.325,-1.875 -3.975,0 0,4.475 2.525,0 0.675,-1.425 0.8,0 0,4.175 -0.8,0 -0.675,-1.575 -2.525,0 0,4.75 1.875,0.375 0,0.95 -6.15,0 0,-0.95 1.8,-0.375 0,-10.3 -1.8,-0.375 0,-0.95 10.3,0 z"
           inkscape:connector-curvature="0" />
        <path
           id="path5006"
           d="m 421.38848,-764.61283 q 0,-1.55 0.525,-2.8 0.55,-1.25 1.45,-2.125 0.925,-0.9 2.15,-1.375 1.25,-0.475 2.65,-0.475 1.45,0 2.675,0.475 1.25,0.45 2.15,1.325 0.9,0.875 1.4,2.15 0.5,1.25 0.5,2.825 0,1.65 -0.55,2.925 -0.525,1.25 -1.45,2.1 -0.9,0.85 -2.125,1.275 -1.225,0.425 -2.6,0.425 -1.4,0 -2.65,-0.425 -1.225,-0.45 -2.15,-1.3 -0.9,-0.875 -1.45,-2.125 -0.525,-1.25 -0.525,-2.875 z m 2.75,-0.025 q 0,1.325 0.325,2.325 0.325,1 0.875,1.7 0.55,0.675 1.275,1.025 0.725,0.35 1.55,0.35 0.8,0 1.525,-0.275 0.725,-0.3 1.275,-0.95 0.55,-0.65 0.875,-1.675 0.325,-1.025 0.325,-2.5 0,-1.35 -0.325,-2.375 -0.3,-1.05 -0.85,-1.725 -0.525,-0.7 -1.275,-1.05 -0.725,-0.35 -1.55,-0.35 -0.825,0 -1.55,0.35 -0.725,0.35 -1.275,1.05 -0.55,0.7 -0.875,1.725 -0.325,1.025 -0.325,2.375 z"
           inkscape:connector-curvature="0" />
        <path
           id="path5008"
           d="m 438.33184,-758.21283 0,-0.95 1.8,-0.375 0,-10.3 -1.8,-0.375 0,-0.95 6.15,0 0,0.95 -1.875,0.375 0,10.4 3.875,0 1.675,-2.425 1.075,0 -0.525,3.65 -10.375,0 z"
           inkscape:connector-curvature="0" />
        <path
           id="path5010"
           d="m 452.05255,-758.21283 0,-0.95 1.8,-0.375 0,-10.3 -1.8,-0.375 0,-0.95 5.975,0 q 1.675,0 3,0.45 1.35,0.45 2.275,1.3 0.95,0.825 1.45,2.05 0.5,1.225 0.5,2.75 0,1.55 -0.575,2.75 -0.55,1.2 -1.55,2.025 -1,0.8 -2.375,1.225 -1.35,0.4 -2.95,0.4 l -5.75,0 z m 5.75,-1.325 q 0.95,0 1.825,-0.275 0.875,-0.275 1.525,-0.875 0.675,-0.625 1.05,-1.575 0.4,-0.975 0.4,-2.375 0,-1.275 -0.375,-2.25 -0.35,-0.975 -0.975,-1.625 -0.625,-0.675 -1.475,-1 -0.825,-0.325 -1.775,-0.325 l -1.675,0 0,10.3 1.475,0 z"
           inkscape:connector-curvature="0" />
        <path
           id="path5012"
           d="m 477.52794,-759.43783 1.45,-2.225 1.075,0 -0.525,3.45 -10.825,0 0,-0.95 1.8,-0.375 0,-10.3 -1.8,-0.375 0,-0.95 10.175,0 0.325,3.1 -1.05,0 -1.3,-1.875 -3.875,0 0,4.475 2.4,0 0.675,-1.425 0.8,0 0,4.175 -0.8,0 -0.675,-1.575 -2.4,0 0,4.85 4.55,0 z"
           inkscape:connector-curvature="0" />
        <path
           id="path5014"
           d="m 490.98223,-764.31283 q 0.525,0.225 0.95,0.85 0.45,0.625 0.9,1.375 0.45,0.725 0.925,1.45 0.475,0.7 1.05,1.1 l 1.125,0.375 0,0.95 -3,0 q -0.75,-0.475 -1.325,-1.325 -0.55,-0.85 -1.075,-1.75 -0.525,-0.9 -1.1,-1.65 -0.55,-0.775 -1.3,-1.075 l -0.75,0 0,4.475 1.775,0.375 0,0.95 -6.05,0 0,-0.95 1.8,-0.375 0,-10.3 -1.8,-0.375 0,-0.95 6.775,0 q 0.55,0 1.25,0.15 0.7,0.125 1.325,0.5 0.65,0.375 1.075,1.05 0.45,0.65 0.45,1.7 0,1.075 -0.775,2.025 -0.75,0.925 -2.225,1.2 l 0,0.225 z m -3.6,-0.875 1.375,0 q 0.7,0 1.175,-0.225 0.5,-0.25 0.825,-0.6 0.325,-0.375 0.475,-0.8 0.15,-0.45 0.15,-0.875 0,-1.175 -0.575,-1.65 -0.575,-0.5 -1.325,-0.5 l -2.1,0 0,4.65 z"
           inkscape:connector-curvature="0" />
        <path
           id="path5016"
           d="m 499.15958,-762.56283 1.2,0 q 0.375,1.65 1.225,2.55 0.85,0.9 2.125,0.9 1,0 1.6,-0.55 0.6,-0.575 0.6,-1.45 0,-0.4 -0.125,-0.725 -0.1,-0.35 -0.4,-0.65 -0.3,-0.325 -0.85,-0.625 -0.525,-0.325 -1.375,-0.7 -1.85,-0.8 -2.775,-1.7 -0.925,-0.9 -0.925,-2.25 0,-0.625 0.275,-1.275 0.275,-0.65 0.8,-1.175 0.525,-0.525 1.275,-0.85 0.775,-0.325 1.75,-0.325 0.85,0 1.4,0.225 0.575,0.2 1,0.375 l 0.9,-0.375 0.65,0 0.45,3.925 -1.175,0 q -0.475,-1.5 -1.3,-2.2 -0.825,-0.7 -1.825,-0.7 -0.875,0 -1.425,0.475 -0.55,0.475 -0.55,1.375 0,0.8 0.7,1.35 0.725,0.525 2.35,1.15 1.65,0.65 2.525,1.575 0.875,0.9 0.875,2.4 0,0.975 -0.35,1.725 -0.325,0.725 -0.925,1.225 -0.6,0.475 -1.425,0.725 -0.8,0.25 -1.725,0.25 -0.65,0 -1.35,-0.225 -0.7,-0.2 -1.175,-0.525 l -1.075,0.375 -0.95,0 0,-4.3 z"
           inkscape:connector-curvature="0" />
      </g>
      <g
         id="text7898-5-8-1-74-6-1-44-6-3-4"
         style="font-style:normal;font-variant:normal;font-weight:normal;font-stretch:normal;font-size:25px;line-height:125%;font-family:'Equity Caps A';-inkscape-font-specification:'Equity Caps A, Normal';text-align:start;letter-spacing:0px;word-spacing:0px;writing-mode:lr-tb;text-anchor:start;fill:#15af90;fill-opacity:1;stroke:none;stroke-width:1px;stroke-linecap:butt;stroke-linejoin:miter;stroke-opacity:1">
        <path
           id="path5028"
           d="m 1165.9571,-804.74402 0,-1 2.2,-0.375 0,-14.9 -2.2,-0.375 0,-1 7.15,0 0,1 -2.3,0.375 0,15.075 5.65,0 2.525,-3.725 1.1,0 -0.9,4.925 -13.225,0 z"
           inkscape:connector-curvature="0" />
        <path
           id="path5030"
           d="m 1182.9039,-813.54402 q 0,-2.1 0.675,-3.8 0.675,-1.7 1.825,-2.875 1.15,-1.2 2.675,-1.825 1.55,-0.65 3.275,-0.65 1.825,0 3.375,0.625 1.55,0.625 2.675,1.825 1.125,1.175 1.75,2.875 0.625,1.7 0.625,3.825 0,2.275 -0.675,3.975 -0.675,1.7 -1.825,2.85 -1.125,1.125 -2.675,1.7 -1.525,0.575 -3.25,0.575 -1.725,0 -3.275,-0.6 -1.525,-0.6 -2.675,-1.75 -1.15,-1.15 -1.825,-2.85 -0.675,-1.7 -0.675,-3.9 z m 2.925,-0.025 q 0,2.1 0.45,3.575 0.45,1.475 1.2,2.425 0.775,0.95 1.775,1.4 1,0.425 2.1,0.425 1.1,0 2.1,-0.35 1,-0.35 1.75,-1.225 0.75,-0.9 1.2,-2.4 0.45,-1.525 0.45,-3.85 0,-2.15 -0.425,-3.65 -0.425,-1.5 -1.175,-2.425 -0.725,-0.95 -1.725,-1.375 -1,-0.425 -2.175,-0.425 -1.1,0 -2.1,0.45 -1,0.425 -1.775,1.375 -0.75,0.925 -1.2,2.425 -0.45,1.5 -0.45,3.625 z"
           inkscape:connector-curvature="0" />
        <path
           id="path5032"
           d="m 1212.3844,-805.81902 q 2.1,0 3.575,-1.025 1.475,-1.025 2.125,-2.95 l 0.8,0 0,3.425 q -0.675,0.4 -1.4,0.75 -0.7,0.35 -1.5,0.625 -0.8,0.25 -1.75,0.4 -0.95,0.15 -2.125,0.15 -1.775,0 -3.35,-0.6 -1.575,-0.6 -2.75,-1.75 -1.15,-1.15 -1.825,-2.85 -0.675,-1.7 -0.675,-3.9 0,-2.1 0.725,-3.8 0.75,-1.7 2,-2.875 1.25,-1.2 2.925,-1.825 1.675,-0.65 3.55,-0.65 0.725,0 1.5,0.15 0.8,0.15 1.575,0.4 0.775,0.225 1.5,0.55 0.75,0.325 1.4,0.675 l 0,3.525 -0.825,0 q -0.375,-1.125 -0.95,-1.875 -0.575,-0.775 -1.275,-1.25 -0.675,-0.5 -1.425,-0.7 -0.75,-0.225 -1.5,-0.225 -1.25,0 -2.4,0.475 -1.125,0.45 -2,1.425 -0.85,0.975 -1.375,2.475 -0.5,1.475 -0.5,3.5 0,1.975 0.525,3.425 0.525,1.45 1.375,2.425 0.85,0.95 1.9,1.425 1.075,0.475 2.15,0.475 z"
           inkscape:connector-curvature="0" />
        <path
           id="path5034"
           d="m 1232.1274,-810.84402 -5.6,0 -1.6,4.725 2.275,0.375 0,1 -5.6,0 0,-1 1.875,-0.375 5.6,-16.275 1.625,0 5.85,16.275 1.9,0.375 0,1 -6.6,0 0,-1 2,-0.375 -1.725,-4.725 z m -5.125,-1.375 4.625,0 -2.15,-6.175 -0.4,0 -2.075,6.175 z"
           inkscape:connector-curvature="0" />
        <path
           id="path5036"
           d="m 1241.1035,-804.74402 0,-1 2.2,-0.375 0,-14.9 -2.2,-0.375 0,-1 7.15,0 0,1 -2.3,0.375 0,15.075 5.65,0 2.525,-3.725 1.1,0 -0.9,4.925 -13.225,0 z"
           inkscape:connector-curvature="0" />
        <path
           id="path5038"
           d="m 1273.2578,-812.96902 q 0.725,0.35 1.325,1.225 0.625,0.875 1.225,1.925 0.6,1.025 1.25,2.05 0.65,1.025 1.45,1.65 l 1.575,0.375 0,1 -3.775,0 q -0.575,-0.425 -1.1,-1.125 -0.5,-0.7 -0.975,-1.5 -0.475,-0.825 -0.95,-1.675 -0.475,-0.875 -0.975,-1.625 -0.5,-0.75 -1.05,-1.325 -0.55,-0.6 -1.175,-0.875 l -0.35,0 0,6.75 2.45,0.375 0,1 -7.3,0 0,-1 2.2,-0.375 0,-14.9 -2.2,-0.375 0,-1 7.875,0 q 0.675,0 1.55,0.2 0.875,0.175 1.65,0.7 0.8,0.5 1.35,1.4 0.55,0.9 0.55,2.325 0,0.625 -0.25,1.325 -0.25,0.675 -0.8,1.325 -0.525,0.625 -1.4,1.125 -0.875,0.5 -2.15,0.75 l 0,0.275 z m -3.525,-1.275 1.725,0 q 0.975,0 1.65,-0.325 0.675,-0.325 1.1,-0.825 0.425,-0.5 0.6,-1.1 0.2,-0.625 0.2,-1.2 0,-0.95 -0.225,-1.575 -0.2,-0.65 -0.575,-1.025 -0.375,-0.4 -0.875,-0.55 -0.475,-0.175 -1.025,-0.175 l -2.575,0 0,6.775 z"
           inkscape:connector-curvature="0" />
        <path
           id="path5040"
           d="m 1293.8481,-805.94402 2.275,-3.475 1.1,0 -0.9,4.675 -13.325,0 0,-1 2.2,-0.375 0,-14.9 -2.2,-0.375 0,-1 12.55,0 0.4,3.925 -1.1,0 -1.775,-2.725 -5.225,0 0,6.475 3.425,0 0.8,-2.35 1,0 0,6.25 -1,0 -0.8,-2.525 -3.425,0 0,7.4 6,0 z"
           inkscape:connector-curvature="0" />
        <path
           id="path5042"
           d="m 1305.0606,-812.41902 0,6.3 2.425,0.375 0,1 -7.3,0 0,-1 2.2,-0.375 0,-14.9 -2.2,-0.375 0,-1 6.4,0 q 1.1,0 2.225,0.275 1.125,0.275 2.025,0.875 0.925,0.6 1.5,1.55 0.575,0.95 0.575,2.325 0,1.125 -0.45,2.05 -0.425,0.9 -1.275,1.55 -0.825,0.65 -2.025,1 -1.2,0.35 -2.7,0.35 l -1.4,0 z m 0,-1.3 1.625,0 q 0.7,0 1.325,-0.225 0.65,-0.25 1.125,-0.7 0.475,-0.45 0.75,-1.1 0.275,-0.65 0.275,-1.475 0,-1.025 -0.275,-1.725 -0.25,-0.725 -0.75,-1.175 -0.475,-0.45 -1.15,-0.65 -0.675,-0.2 -1.525,-0.2 l -1.4,0 0,7.25 z"
           inkscape:connector-curvature="0" />
        <path
           id="path5044"
           d="m 1316.3024,-813.54402 q 0,-2.1 0.675,-3.8 0.675,-1.7 1.825,-2.875 1.15,-1.2 2.675,-1.825 1.55,-0.65 3.275,-0.65 1.825,0 3.375,0.625 1.55,0.625 2.675,1.825 1.125,1.175 1.75,2.875 0.625,1.7 0.625,3.825 0,2.275 -0.675,3.975 -0.675,1.7 -1.825,2.85 -1.125,1.125 -2.675,1.7 -1.525,0.575 -3.25,0.575 -1.725,0 -3.275,-0.6 -1.525,-0.6 -2.675,-1.75 -1.15,-1.15 -1.825,-2.85 -0.675,-1.7 -0.675,-3.9 z m 2.925,-0.025 q 0,2.1 0.45,3.575 0.45,1.475 1.2,2.425 0.775,0.95 1.775,1.4 1,0.425 2.1,0.425 1.1,0 2.1,-0.35 1,-0.35 1.75,-1.225 0.75,-0.9 1.2,-2.4 0.45,-1.525 0.45,-3.85 0,-2.15 -0.425,-3.65 -0.425,-1.5 -1.175,-2.425 -0.725,-0.95 -1.725,-1.375 -1,-0.425 -2.175,-0.425 -1.1,0 -2.1,0.45 -1,0.425 -1.775,1.375 -0.75,0.925 -1.2,2.425 -0.45,1.5 -0.45,3.625 z"
           inkscape:connector-curvature="0" />
        <path
           id="path5046"
           d="m 1337.1078,-810.21902 1.1,0 q 0.525,2.275 1.825,3.4 1.3,1.125 3.1,1.125 0.7,0 1.3,-0.2 0.625,-0.2 1.05,-0.575 0.425,-0.375 0.675,-0.875 0.25,-0.525 0.25,-1.15 0,-0.6 -0.15,-1.15 -0.15,-0.55 -0.575,-1.075 -0.425,-0.525 -1.2,-1.025 -0.775,-0.525 -2.05,-1.025 -1.25,-0.5 -2.15,-1.025 -0.9,-0.525 -1.5,-1.15 -0.6,-0.65 -0.9,-1.4 -0.275,-0.775 -0.275,-1.75 0,-0.8 0.375,-1.6 0.375,-0.825 1.05,-1.475 0.7,-0.675 1.7,-1.1 1.025,-0.425 2.3,-0.425 1.2,0 2.075,0.275 0.9,0.275 1.475,0.5 l 1.05,-0.475 0.625,0 0.5,5.125 -0.925,0 q -0.675,-2.1 -1.975,-3.125 -1.275,-1.025 -2.7,-1.025 -1.3,0 -2.2,0.65 -0.9,0.65 -0.9,1.925 0,1.225 1.05,2.2 1.075,0.95 3.275,1.825 1,0.4 1.825,0.9 0.85,0.475 1.425,1.1 0.575,0.625 0.9,1.45 0.325,0.8 0.325,1.875 0,1.25 -0.45,2.2 -0.425,0.925 -1.2,1.575 -0.775,0.625 -1.825,0.95 -1.05,0.325 -2.25,0.325 -0.95,0 -1.975,-0.275 -1,-0.275 -1.7,-0.7 l -1.225,0.5 -1.125,0 0,-5.3 z"
           inkscape:connector-curvature="0" />
        <path
           id="path5048"
           d="m 1359.7258,-822.39402 0,1 -2.2,0.375 0,14.9 2.2,0.375 0,1 -7.05,0 0,-1 2.2,-0.375 0,-14.9 -2.2,-0.375 0,-1 7.05,0 z"
           inkscape:connector-curvature="0" />
        <path
           id="path5050"
           d="m 1378.4239,-822.39402 1.15,4.925 -1.1,0 -2.525,-3.725 -3.65,0 0,15.075 2.3,0.375 0,1 -7.25,0 0,-1 2.3,-0.375 0,-15.075 -3.65,0 -2.525,3.725 -1.1,0 1.15,-4.925 14.9,0 z"
           inkscape:connector-curvature="0" />
        <path
           id="path5052"
           d="m 1382.3668,-813.54402 q 0,-2.1 0.675,-3.8 0.675,-1.7 1.825,-2.875 1.15,-1.2 2.675,-1.825 1.55,-0.65 3.275,-0.65 1.825,0 3.375,0.625 1.55,0.625 2.675,1.825 1.125,1.175 1.75,2.875 0.625,1.7 0.625,3.825 0,2.275 -0.675,3.975 -0.675,1.7 -1.825,2.85 -1.125,1.125 -2.675,1.7 -1.525,0.575 -3.25,0.575 -1.725,0 -3.275,-0.6 -1.525,-0.6 -2.675,-1.75 -1.15,-1.15 -1.825,-2.85 -0.675,-1.7 -0.675,-3.9 z m 2.925,-0.025 q 0,2.1 0.45,3.575 0.45,1.475 1.2,2.425 0.775,0.95 1.775,1.4 1,0.425 2.1,0.425 1.1,0 2.1,-0.35 1,-0.35 1.75,-1.225 0.75,-0.9 1.2,-2.4 0.45,-1.525 0.45,-3.85 0,-2.15 -0.425,-3.65 -0.425,-1.5 -1.175,-2.425 -0.725,-0.95 -1.725,-1.375 -1,-0.425 -2.175,-0.425 -1.1,0 -2.1,0.45 -1,0.425 -1.775,1.375 -0.75,0.925 -1.2,2.425 -0.45,1.5 -0.45,3.625 z"
           inkscape:connector-curvature="0" />
        <path
           id="path5054"
           d="m 1411.1973,-812.96902 q 0.725,0.35 1.325,1.225 0.625,0.875 1.225,1.925 0.6,1.025 1.25,2.05 0.65,1.025 1.45,1.65 l 1.575,0.375 0,1 -3.775,0 q -0.575,-0.425 -1.1,-1.125 -0.5,-0.7 -0.975,-1.5 -0.475,-0.825 -0.95,-1.675 -0.475,-0.875 -0.975,-1.625 -0.5,-0.75 -1.05,-1.325 -0.55,-0.6 -1.175,-0.875 l -0.35,0 0,6.75 2.45,0.375 0,1 -7.3,0 0,-1 2.2,-0.375 0,-14.9 -2.2,-0.375 0,-1 7.875,0 q 0.675,0 1.55,0.2 0.875,0.175 1.65,0.7 0.8,0.5 1.35,1.4 0.55,0.9 0.55,2.325 0,0.625 -0.25,1.325 -0.25,0.675 -0.8,1.325 -0.525,0.625 -1.4,1.125 -0.875,0.5 -2.15,0.75 l 0,0.275 z m -3.525,-1.275 1.725,0 q 0.975,0 1.65,-0.325 0.675,-0.325 1.1,-0.825 0.425,-0.5 0.6,-1.1 0.2,-0.625 0.2,-1.2 0,-0.95 -0.225,-1.575 -0.2,-0.65 -0.575,-1.025 -0.375,-0.4 -0.875,-0.55 -0.475,-0.175 -1.025,-0.175 l -2.575,0 0,6.775 z"
           inkscape:connector-curvature="0" />
        <path
           id="path5056"
           d="m 1431.468,-821.01902 -2.225,-0.375 0,-1 5.6,0 0,1 -1.875,0.375 -4.725,8.075 0,6.825 2.2,0.375 0,1 -7.05,0 0,-1 2.2,-0.375 0,-6.75 -4.775,-8.15 -1.825,-0.375 0,-1 6.6,0 0,1 -2.025,0.375 3.7,6.375 0.4,0 3.8,-6.375 z"
           inkscape:connector-curvature="0" />
        <path
           id="path5058"
           d="m 1172.9571,-774.51902 q 1.625,0 2.575,-0.8 0.95,-0.8 1.45,-2.325 l 0.95,0 0,2.925 q -1.025,0.65 -2.2,1.1 -1.15,0.45 -2.875,0.45 -1.425,0 -2.675,-0.425 -1.25,-0.45 -2.2,-1.3 -0.925,-0.875 -1.475,-2.125 -0.55,-1.25 -0.55,-2.875 0,-1.55 0.525,-2.8 0.55,-1.25 1.475,-2.125 0.95,-0.9 2.2,-1.375 1.275,-0.475 2.7,-0.475 1.2,0 2.525,0.425 1.325,0.4 2.375,0.975 l 0,3.025 -0.95,0 q -0.65,-1.775 -1.7,-2.475 -1.025,-0.7 -2.25,-0.7 -0.825,0 -1.6,0.375 -0.75,0.375 -1.325,1.1 -0.55,0.7 -0.9,1.725 -0.325,1 -0.325,2.3 0,1.225 0.375,2.225 0.4,1 1,1.7 0.625,0.7 1.375,1.1 0.775,0.375 1.5,0.375 z"
           inkscape:connector-curvature="0" />
        <path
           id="path5060"
           d="m 1181.7774,-779.89402 q 0,-1.55 0.525,-2.8 0.55,-1.25 1.45,-2.125 0.925,-0.9 2.15,-1.375 1.25,-0.475 2.65,-0.475 1.45,0 2.675,0.475 1.25,0.45 2.15,1.325 0.9,0.875 1.4,2.15 0.5,1.25 0.5,2.825 0,1.65 -0.55,2.925 -0.525,1.25 -1.45,2.1 -0.9,0.85 -2.125,1.275 -1.225,0.425 -2.6,0.425 -1.4,0 -2.65,-0.425 -1.225,-0.45 -2.15,-1.3 -0.9,-0.875 -1.45,-2.125 -0.525,-1.25 -0.525,-2.875 z m 2.75,-0.025 q 0,1.325 0.325,2.325 0.325,1 0.875,1.7 0.55,0.675 1.275,1.025 0.725,0.35 1.55,0.35 0.8,0 1.525,-0.275 0.725,-0.3 1.275,-0.95 0.55,-0.65 0.875,-1.675 0.325,-1.025 0.325,-2.5 0,-1.35 -0.325,-2.375 -0.3,-1.05 -0.85,-1.725 -0.525,-0.7 -1.275,-1.05 -0.725,-0.35 -1.55,-0.35 -0.825,0 -1.55,0.35 -0.725,0.35 -1.275,1.05 -0.55,0.7 -0.875,1.725 -0.325,1.025 -0.325,2.375 z"
           inkscape:connector-curvature="0" />
        <path
           id="path5062"
           d="m 1209.7457,-777.91902 0,-6.95 -2.05,-0.625 0,-0.95 5.2,0 0,0.95 -1.775,0.625 0,11.55 -0.75,0 -8.5,-10 -0.3,0 0,8.25 2.05,0.625 0,0.95 -5.025,0 0,-0.95 1.6,-0.625 0,-10.05 -1.6,-0.375 0,-0.95 3.575,0 7.275,8.525 0.3,0 z"
           inkscape:connector-curvature="0" />
        <path
           id="path5064"
           d="m 1227.7297,-786.44402 0.6,3.65 -1.075,0 -1.65,-2.475 -2.55,0 0,10.45 1.875,0.375 0,0.95 -6.225,0 0,-0.95 1.875,-0.375 0,-10.45 -2.55,0 -1.675,2.475 -1.05,0 0.6,-3.65 11.825,0 z"
           inkscape:connector-curvature="0" />
        <path
           id="path5066"
           d="m 1238.4067,-777.74402 -4.45,0 -1.05,2.675 2,0.625 0,0.95 -5.15,0 0,-0.95 1.7,-0.625 4.6,-11.375 1.525,0 4.575,11.625 1.5,0.375 0,0.95 -5.8,0 0,-0.95 1.675,-0.375 -1.125,-2.925 z m -3.975,-1.175 3.525,0 -1.625,-4.225 -0.2,0 -1.7,4.225 z"
           inkscape:connector-curvature="0" />
        <path
           id="path5068"
           d="m 1252.6281,-786.44402 0,0.95 -1.775,0.375 0,10.3 1.775,0.375 0,0.95 -6.05,0 0,-0.95 1.8,-0.375 0,-10.3 -1.8,-0.375 0,-0.95 6.05,0 z"
           inkscape:connector-curvature="0" />
        <path
           id="path5070"
           d="m 1267.3629,-777.91902 0,-6.95 -2.05,-0.625 0,-0.95 5.2,0 0,0.95 -1.775,0.625 0,11.55 -0.75,0 -8.5,-10 -0.3,0 0,8.25 2.05,0.625 0,0.95 -5.025,0 0,-0.95 1.6,-0.625 0,-10.05 -1.6,-0.375 0,-0.95 3.575,0 7.275,8.525 0.3,0 z"
           inkscape:connector-curvature="0" />
        <path
           id="path5072"
           d="m 1274.1969,-777.84402 1.2,0 q 0.375,1.65 1.225,2.55 0.85,0.9 2.125,0.9 1,0 1.6,-0.55 0.6,-0.575 0.6,-1.45 0,-0.4 -0.125,-0.725 -0.1,-0.35 -0.4,-0.65 -0.3,-0.325 -0.85,-0.625 -0.525,-0.325 -1.375,-0.7 -1.85,-0.8 -2.775,-1.7 -0.925,-0.9 -0.925,-2.25 0,-0.625 0.275,-1.275 0.275,-0.65 0.8,-1.175 0.525,-0.525 1.275,-0.85 0.775,-0.325 1.75,-0.325 0.85,0 1.4,0.225 0.575,0.2 1,0.375 l 0.9,-0.375 0.65,0 0.45,3.925 -1.175,0 q -0.475,-1.5 -1.3,-2.2 -0.825,-0.7 -1.825,-0.7 -0.875,0 -1.425,0.475 -0.55,0.475 -0.55,1.375 0,0.8 0.7,1.35 0.725,0.525 2.35,1.15 1.65,0.65 2.525,1.575 0.875,0.9 0.875,2.4 0,0.975 -0.35,1.725 -0.325,0.725 -0.925,1.225 -0.6,0.475 -1.425,0.725 -0.8,0.25 -1.725,0.25 -0.65,0 -1.35,-0.225 -0.7,-0.2 -1.175,-0.525 l -1.075,0.375 -0.95,0 0,-4.3 z"
           inkscape:connector-curvature="0" />
        <path
           id="path5074"
           d="m 1302.0785,-777.74402 -4.45,0 -1.05,2.675 2,0.625 0,0.95 -5.15,0 0,-0.95 1.7,-0.625 4.6,-11.375 1.525,0 4.575,11.625 1.5,0.375 0,0.95 -5.8,0 0,-0.95 1.675,-0.375 -1.125,-2.925 z m -3.975,-1.175 3.525,0 -1.625,-4.225 -0.2,0 -1.7,4.225 z"
           inkscape:connector-curvature="0" />
        <path
           id="path5076"
           d="m 1310,-773.49402 0,-0.95 1.8,-0.375 0,-10.3 -1.8,-0.375 0,-0.95 6.15,0 0,0.95 -1.875,0.375 0,10.4 3.875,0 1.675,-2.425 1.075,0 -0.525,3.65 -10.375,0 z"
           inkscape:connector-curvature="0" />
        <path
           id="path5078"
           d="m 1323.7207,-773.49402 0,-0.95 1.8,-0.375 0,-10.3 -1.8,-0.375 0,-0.95 6.15,0 0,0.95 -1.875,0.375 0,10.4 3.875,0 1.675,-2.425 1.075,0 -0.525,3.65 -10.375,0 z"
           inkscape:connector-curvature="0" />
        <path
           id="path5080"
           d="m 1344.9489,-777.84402 1.2,0 q 0.375,1.65 1.225,2.55 0.85,0.9 2.125,0.9 1,0 1.6,-0.55 0.6,-0.575 0.6,-1.45 0,-0.4 -0.125,-0.725 -0.1,-0.35 -0.4,-0.65 -0.3,-0.325 -0.85,-0.625 -0.525,-0.325 -1.375,-0.7 -1.85,-0.8 -2.775,-1.7 -0.925,-0.9 -0.925,-2.25 0,-0.625 0.275,-1.275 0.275,-0.65 0.8,-1.175 0.525,-0.525 1.275,-0.85 0.775,-0.325 1.75,-0.325 0.85,0 1.4,0.225 0.575,0.2 1,0.375 l 0.9,-0.375 0.65,0 0.45,3.925 -1.175,0 q -0.475,-1.5 -1.3,-2.2 -0.825,-0.7 -1.825,-0.7 -0.875,0 -1.425,0.475 -0.55,0.475 -0.55,1.375 0,0.8 0.7,1.35 0.725,0.525 2.35,1.15 1.65,0.65 2.525,1.575 0.875,0.9 0.875,2.4 0,0.975 -0.35,1.725 -0.325,0.725 -0.925,1.225 -0.6,0.475 -1.425,0.725 -0.8,0.25 -1.725,0.25 -0.65,0 -1.35,-0.225 -0.7,-0.2 -1.175,-0.525 l -1.075,0.375 -0.95,0 0,-4.3 z"
           inkscape:connector-curvature="0" />
        <path
           id="path5082"
           d="m 1369.6731,-786.44402 0.6,3.65 -1.075,0 -1.65,-2.475 -2.55,0 0,10.45 1.875,0.375 0,0.95 -6.225,0 0,-0.95 1.875,-0.375 0,-10.45 -2.55,0 -1.675,2.475 -1.05,0 0.6,-3.65 11.825,0 z"
           inkscape:connector-curvature="0" />
        <path
           id="path5084"
           d="m 1380.35,-777.74402 -4.45,0 -1.05,2.675 2,0.625 0,0.95 -5.15,0 0,-0.95 1.7,-0.625 4.6,-11.375 1.525,0 4.575,11.625 1.5,0.375 0,0.95 -5.8,0 0,-0.95 1.675,-0.375 -1.125,-2.925 z m -3.975,-1.175 3.525,0 -1.625,-4.225 -0.2,0 -1.7,4.225 z"
           inkscape:connector-curvature="0" />
        <path
           id="path5086"
           d="m 1394.8774,-774.51902 q 0.7,0 1.375,-0.15 0.7,-0.175 1.225,-0.6 l 0,-3.25 -2.175,-0.475 0,-0.95 6.2,0 0,0.95 -1.55,0.375 0,4.075 q -0.35,0.2 -0.825,0.45 -0.475,0.25 -1.125,0.45 -0.625,0.2 -1.4,0.325 -0.775,0.15 -1.725,0.15 -1.375,0 -2.625,-0.425 -1.225,-0.45 -2.175,-1.3 -0.925,-0.875 -1.5,-2.125 -0.55,-1.25 -0.55,-2.875 0,-1.55 0.525,-2.8 0.55,-1.25 1.475,-2.125 0.95,-0.9 2.2,-1.375 1.275,-0.475 2.7,-0.475 1.2,0 2.525,0.425 1.325,0.4 2.375,0.975 l 0,3.025 -0.95,0 q -0.65,-1.775 -1.7,-2.475 -1.025,-0.7 -2.25,-0.7 -0.825,0 -1.6,0.35 -0.75,0.35 -1.325,1.05 -0.55,0.675 -0.9,1.7 -0.325,1.025 -0.325,2.4 0,1.25 0.325,2.25 0.325,1 0.875,1.7 0.575,0.7 1.325,1.075 0.75,0.375 1.575,0.375 z"
           inkscape:connector-curvature="0" />
        <path
           id="path5088"
           d="m 1413.2098,-774.71902 1.45,-2.225 1.075,0 -0.525,3.45 -10.825,0 0,-0.95 1.8,-0.375 0,-10.3 -1.8,-0.375 0,-0.95 10.175,0 0.325,3.1 -1.05,0 -1.3,-1.875 -3.875,0 0,4.475 2.4,0 0.675,-1.425 0.8,0 0,4.175 -0.8,0 -0.675,-1.575 -2.4,0 0,4.85 4.55,0 z"
           inkscape:connector-curvature="0" />
        <path
           id="path5090"
           d="m 1418.7891,-773.49402 0,-0.95 1.8,-0.375 0,-10.3 -1.8,-0.375 0,-0.95 5.975,0 q 1.675,0 3,0.45 1.35,0.45 2.275,1.3 0.95,0.825 1.45,2.05 0.5,1.225 0.5,2.75 0,1.55 -0.575,2.75 -0.55,1.2 -1.55,2.025 -1,0.8 -2.375,1.225 -1.35,0.4 -2.95,0.4 l -5.75,0 z m 5.75,-1.325 q 0.95,0 1.825,-0.275 0.875,-0.275 1.525,-0.875 0.675,-0.625 1.05,-1.575 0.4,-0.975 0.4,-2.375 0,-1.275 -0.375,-2.25 -0.35,-0.975 -0.975,-1.625 -0.625,-0.675 -1.475,-1 -0.825,-0.325 -1.775,-0.325 l -1.675,0 0,10.3 1.475,0 z"
           inkscape:connector-curvature="0" />
        <path
           id="path5092"
           d="m 1173.8071,-746.49402 -4.45,0 -1.05,2.675 2,0.625 0,0.95 -5.15,0 0,-0.95 1.7,-0.625 4.6,-11.375 1.525,0 4.575,11.625 1.5,0.375 0,0.95 -5.8,0 0,-0.95 1.675,-0.375 -1.125,-2.925 z m -3.975,-1.175 3.525,0 -1.625,-4.225 -0.2,0 -1.7,4.225 z"
           inkscape:connector-curvature="0" />
        <path
           id="path5094"
           d="m 1192.7535,-746.66902 0,-6.95 -2.05,-0.625 0,-0.95 5.2,0 0,0.95 -1.775,0.625 0,11.55 -0.75,0 -8.5,-10 -0.3,0 0,8.25 2.05,0.625 0,0.95 -5.025,0 0,-0.95 1.6,-0.625 0,-10.05 -1.6,-0.375 0,-0.95 3.575,0 7.275,8.525 0.3,0 z"
           inkscape:connector-curvature="0" />
        <path
           id="path5096"
           d="m 1199.0625,-742.24402 0,-0.95 1.8,-0.375 0,-10.3 -1.8,-0.375 0,-0.95 5.975,0 q 1.675,0 3,0.45 1.35,0.45 2.275,1.3 0.95,0.825 1.45,2.05 0.5,1.225 0.5,2.75 0,1.55 -0.575,2.75 -0.55,1.2 -1.55,2.025 -1,0.8 -2.375,1.225 -1.35,0.4 -2.95,0.4 l -5.75,0 z m 5.75,-1.325 q 0.95,0 1.825,-0.275 0.875,-0.275 1.525,-0.875 0.675,-0.625 1.05,-1.575 0.4,-0.975 0.4,-2.375 0,-1.275 -0.375,-2.25 -0.35,-0.975 -0.975,-1.625 -0.625,-0.675 -1.475,-1 -0.825,-0.325 -1.775,-0.325 l -1.675,0 0,10.3 1.475,0 z"
           inkscape:connector-curvature="0" />
        <path
           id="path5098"
           d="m 1234.3703,-755.19402 0.6,3.65 -1.075,0 -1.65,-2.475 -2.55,0 0,10.45 1.875,0.375 0,0.95 -6.225,0 0,-0.95 1.875,-0.375 0,-10.45 -2.55,0 -1.675,2.475 -1.05,0 0.6,-3.65 11.825,0 z"
           inkscape:connector-curvature="0" />
        <path
           id="path5100"
           d="m 1245.5606,-748.34402 q 0.525,0.225 0.95,0.85 0.45,0.625 0.9,1.375 0.45,0.725 0.925,1.45 0.475,0.7 1.05,1.1 l 1.125,0.375 0,0.95 -3,0 q -0.75,-0.475 -1.325,-1.325 -0.55,-0.85 -1.075,-1.75 -0.525,-0.9 -1.1,-1.65 -0.55,-0.775 -1.3,-1.075 l -0.75,0 0,4.475 1.775,0.375 0,0.95 -6.05,0 0,-0.95 1.8,-0.375 0,-10.3 -1.8,-0.375 0,-0.95 6.775,0 q 0.55,0 1.25,0.15 0.7,0.125 1.325,0.5 0.65,0.375 1.075,1.05 0.45,0.65 0.45,1.7 0,1.075 -0.775,2.025 -0.75,0.925 -2.225,1.2 l 0,0.225 z m -3.6,-0.875 1.375,0 q 0.7,0 1.175,-0.225 0.5,-0.25 0.825,-0.6 0.325,-0.375 0.475,-0.8 0.15,-0.45 0.15,-0.875 0,-1.175 -0.575,-1.65 -0.575,-0.5 -1.325,-0.5 l -2.1,0 0,4.65 z"
           inkscape:connector-curvature="0" />
        <path
           id="path5102"
           d="m 1261.3071,-746.49402 -4.45,0 -1.05,2.675 2,0.625 0,0.95 -5.15,0 0,-0.95 1.7,-0.625 4.6,-11.375 1.525,0 4.575,11.625 1.5,0.375 0,0.95 -5.8,0 0,-0.95 1.675,-0.375 -1.125,-2.925 z m -3.975,-1.175 3.525,0 -1.625,-4.225 -0.2,0 -1.7,4.225 z"
           inkscape:connector-curvature="0" />
        <path
           id="path5104"
           d="m 1275.9844,-743.26902 q 1.625,0 2.575,-0.8 0.95,-0.8 1.45,-2.325 l 0.95,0 0,2.925 q -1.025,0.65 -2.2,1.1 -1.15,0.45 -2.875,0.45 -1.425,0 -2.675,-0.425 -1.25,-0.45 -2.2,-1.3 -0.925,-0.875 -1.475,-2.125 -0.55,-1.25 -0.55,-2.875 0,-1.55 0.525,-2.8 0.55,-1.25 1.475,-2.125 0.95,-0.9 2.2,-1.375 1.275,-0.475 2.7,-0.475 1.2,0 2.525,0.425 1.325,0.4 2.375,0.975 l 0,3.025 -0.95,0 q -0.65,-1.775 -1.7,-2.475 -1.025,-0.7 -2.25,-0.7 -0.825,0 -1.6,0.375 -0.75,0.375 -1.325,1.1 -0.55,0.7 -0.9,1.725 -0.325,1 -0.325,2.3 0,1.225 0.375,2.225 0.4,1 1,1.7 0.625,0.7 1.375,1.1 0.775,0.375 1.5,0.375 z"
           inkscape:connector-curvature="0" />
        <path
           id="path5106"
           d="m 1289.0797,-748.44402 0,4.875 1.65,0.375 0,0.95 -5.925,0 0,-0.95 1.8,-0.375 0,-10.3 -1.8,-0.375 0,-0.95 6.05,0 0,0.95 -1.775,0.375 0,4.375 0.475,0 4.4,-4.25 -1.575,-0.5 0,-0.95 5.175,0 0,0.95 -1.875,0.5 -4.25,4.05 5.25,6.2 1.425,0.3 0,0.95 -5.925,0 0,-0.95 1.4,-0.375 -4.1,-4.875 -0.4,0 z"
           inkscape:connector-curvature="0" />
        <path
           id="path5108"
           d="m 1309.6453,-743.46902 1.45,-2.225 1.075,0 -0.525,3.45 -10.825,0 0,-0.95 1.8,-0.375 0,-10.3 -1.8,-0.375 0,-0.95 10.175,0 0.325,3.1 -1.05,0 -1.3,-1.875 -3.875,0 0,4.475 2.4,0 0.675,-1.425 0.8,0 0,4.175 -0.8,0 -0.675,-1.575 -2.4,0 0,4.85 4.55,0 z"
           inkscape:connector-curvature="0" />
        <path
           id="path5110"
           d="m 1315.2246,-742.24402 0,-0.95 1.8,-0.375 0,-10.3 -1.8,-0.375 0,-0.95 5.975,0 q 1.675,0 3,0.45 1.35,0.45 2.275,1.3 0.95,0.825 1.45,2.05 0.5,1.225 0.5,2.75 0,1.55 -0.575,2.75 -0.55,1.2 -1.55,2.025 -1,0.8 -2.375,1.225 -1.35,0.4 -2.95,0.4 l -5.75,0 z m 5.75,-1.325 q 0.95,0 1.825,-0.275 0.875,-0.275 1.525,-0.875 0.675,-0.625 1.05,-1.575 0.4,-0.975 0.4,-2.375 0,-1.275 -0.375,-2.25 -0.35,-0.975 -0.975,-1.625 -0.625,-0.675 -1.475,-1 -0.825,-0.325 -1.775,-0.325 l -1.675,0 0,10.3 1.475,0 z"
           inkscape:connector-curvature="0" />
        <path
           id="path5112"
           d="m 1349.1574,-755.19402 0.35,3.1 -1.075,0 -1.325,-1.875 -3.975,0 0,4.475 2.525,0 0.675,-1.425 0.8,0 0,4.175 -0.8,0 -0.675,-1.575 -2.525,0 0,4.75 1.875,0.375 0,0.95 -6.15,0 0,-0.95 1.8,-0.375 0,-10.3 -1.8,-0.375 0,-0.95 10.3,0 z m 9.6,0 0,0.95 -1.775,0.375 0,10.3 1.775,0.375 0,0.95 -6.05,0 0,-0.95 1.8,-0.375 0,-10.3 -1.8,-0.375 0,-0.95 6.05,0 z"
           inkscape:connector-curvature="0" />
        <path
           id="path5114"
           d="m 1362.4414,-742.24402 0,-0.95 1.8,-0.375 0,-10.3 -1.8,-0.375 0,-0.95 6.15,0 0,0.95 -1.875,0.375 0,10.4 3.875,0 1.675,-2.425 1.075,0 -0.525,3.65 -10.375,0 z"
           inkscape:connector-curvature="0" />
        <path
           id="path5116"
           d="m 1384.9871,-743.46902 1.45,-2.225 1.075,0 -0.525,3.45 -10.825,0 0,-0.95 1.8,-0.375 0,-10.3 -1.8,-0.375 0,-0.95 10.175,0 0.325,3.1 -1.05,0 -1.3,-1.875 -3.875,0 0,4.475 2.4,0 0.675,-1.425 0.8,0 0,4.175 -0.8,0 -0.675,-1.575 -2.4,0 0,4.85 4.55,0 z"
           inkscape:connector-curvature="0" />
        <path
           id="path5118"
           d="m 1391.0914,-746.59402 1.2,0 q 0.375,1.65 1.225,2.55 0.85,0.9 2.125,0.9 1,0 1.6,-0.55 0.6,-0.575 0.6,-1.45 0,-0.4 -0.125,-0.725 -0.1,-0.35 -0.4,-0.65 -0.3,-0.325 -0.85,-0.625 -0.525,-0.325 -1.375,-0.7 -1.85,-0.8 -2.775,-1.7 -0.925,-0.9 -0.925,-2.25 0,-0.625 0.275,-1.275 0.275,-0.65 0.8,-1.175 0.525,-0.525 1.275,-0.85 0.775,-0.325 1.75,-0.325 0.85,0 1.4,0.225 0.575,0.2 1,0.375 l 0.9,-0.375 0.65,0 0.45,3.925 -1.175,0 q -0.475,-1.5 -1.3,-2.2 -0.825,-0.7 -1.825,-0.7 -0.875,0 -1.425,0.475 -0.55,0.475 -0.55,1.375 0,0.8 0.7,1.35 0.725,0.525 2.35,1.15 1.65,0.65 2.525,1.575 0.875,0.9 0.875,2.4 0,0.975 -0.35,1.725 -0.325,0.725 -0.925,1.225 -0.6,0.475 -1.425,0.725 -0.8,0.25 -1.725,0.25 -0.65,0 -1.35,-0.225 -0.7,-0.2 -1.175,-0.525 l -1.075,0.375 -0.95,0 0,-4.3 z"
           inkscape:connector-curvature="0" />
      </g>
      <g
         id="text7898-5-8-1-74-6-1-44-6-3-6"
         style="font-style:normal;font-variant:normal;font-weight:normal;font-stretch:normal;font-size:25px;line-height:125%;font-family:'Equity Caps A';-inkscape-font-specification:'Equity Caps A, Normal';text-align:start;letter-spacing:0px;word-spacing:0px;writing-mode:lr-tb;text-anchor:start;fill:#6789c8;fill-opacity:1;stroke:none;stroke-width:1px;stroke-linecap:butt;stroke-linejoin:miter;stroke-opacity:1">
        <path
           id="path5121"
           d="m 962.86056,-1008.5379 q 0.725,0.35 1.325,1.225 0.625,0.875 1.225,1.925 0.6,1.025 1.25,2.05 0.65,1.025 1.45,1.65 l 1.575,0.375 0,1 -3.775,0 q -0.575,-0.425 -1.1,-1.125 -0.5,-0.7 -0.975,-1.5 -0.475,-0.825 -0.95,-1.675 -0.475,-0.875 -0.975,-1.625 -0.5,-0.75 -1.05,-1.325 -0.55,-0.6 -1.175,-0.875 l -0.35,0 0,6.75 2.45,0.375 0,1 -7.3,0 0,-1 2.2,-0.375 0,-14.9 -2.2,-0.375 0,-1 7.875,0 q 0.675,0 1.55,0.2 0.875,0.175 1.65,0.7 0.8,0.5 1.35,1.4 0.55,0.9 0.55,2.325 0,0.625 -0.25,1.325 -0.25,0.675 -0.8,1.325 -0.525,0.625 -1.4,1.125 -0.875,0.5 -2.15,0.75 l 0,0.275 z m -3.525,-1.275 1.725,0 q 0.975,0 1.65,-0.325 0.675,-0.325 1.1,-0.825 0.425,-0.5 0.6,-1.1 0.2,-0.625 0.2,-1.2 0,-0.95 -0.225,-1.575 -0.2,-0.65 -0.575,-1.025 -0.375,-0.4 -0.875,-0.55 -0.475,-0.175 -1.025,-0.175 l -2.575,0 0,6.775 z"
           inkscape:connector-curvature="0" />
        <path
           id="path5123"
           d="m 983.45079,-1001.5129 2.275,-3.475 1.1,0 -0.9,4.675 -13.325,0 0,-1 2.2,-0.375 0,-14.9 -2.2,-0.375 0,-1 12.55,0 0.4,3.925 -1.1,0 -1.775,-2.725 -5.225,0 0,6.475 3.425,0 0.8,-2.35 1,0 0,6.25 -1,0 -0.8,-2.525 -3.425,0 0,7.4 6,0 z"
           inkscape:connector-curvature="0" />
        <path
           id="path5125"
           d="m 994.66329,-1007.9879 0,6.3 2.425,0.375 0,1 -7.3,0 0,-1 2.2,-0.375 0,-14.9 -2.2,-0.375 0,-1 6.4,0 q 1.1,0 2.225,0.275 1.125,0.275 2.02501,0.875 0.925,0.6 1.5,1.55 0.575,0.95 0.575,2.325 0,1.125 -0.45,2.05 -0.425,0.9 -1.275,1.55 -0.82501,0.65 -2.02501,1 -1.2,0.35 -2.7,0.35 l -1.4,0 z m 0,-1.3 1.625,0 q 0.7,0 1.325,-0.225 0.65,-0.25 1.125,-0.7 0.475,-0.45 0.75,-1.1 0.275,-0.65 0.275,-1.475 0,-1.025 -0.275,-1.725 -0.25,-0.725 -0.75,-1.175 -0.475,-0.45 -1.15,-0.65 -0.675,-0.2 -1.525,-0.2 l -1.4,0 0,7.25 z"
           inkscape:connector-curvature="0" />
        <path
           id="path5127"
           d="m 1005.9051,-1009.1129 q 0,-2.1 0.675,-3.8 0.675,-1.7 1.825,-2.875 1.15,-1.2 2.675,-1.825 1.55,-0.65 3.275,-0.65 1.825,0 3.375,0.625 1.55,0.625 2.675,1.825 1.125,1.175 1.75,2.875 0.625,1.7 0.625,3.825 0,2.275 -0.675,3.975 -0.675,1.7 -1.825,2.85 -1.125,1.125 -2.675,1.7 -1.525,0.575 -3.25,0.575 -1.725,0 -3.275,-0.6 -1.525,-0.6 -2.675,-1.75 -1.15,-1.15 -1.825,-2.85 -0.675,-1.7 -0.675,-3.9 z m 2.925,-0.025 q 0,2.1 0.45,3.575 0.45,1.475 1.2,2.425 0.775,0.95 1.775,1.4 1,0.425 2.1,0.425 1.1,0 2.1,-0.35 1,-0.35 1.75,-1.225 0.75,-0.9 1.2,-2.4 0.45,-1.525 0.45,-3.85 0,-2.15 -0.425,-3.65 -0.425,-1.5 -1.175,-2.425 -0.725,-0.95 -1.725,-1.375 -1,-0.425 -2.175,-0.425 -1.1,0 -2.1,0.45 -1,0.425 -1.775,1.375 -0.75,0.925 -1.2,2.425 -0.45,1.5 -0.45,3.625 z"
           inkscape:connector-curvature="0" />
        <path
           id="path5129"
           d="m 1026.7106,-1005.7879 1.1,0 q 0.525,2.275 1.825,3.4 1.3,1.125 3.1,1.125 0.7,0 1.3,-0.2 0.625,-0.2 1.05,-0.575 0.425,-0.375 0.675,-0.875 0.25,-0.525 0.25,-1.15 0,-0.6 -0.15,-1.15 -0.15,-0.55 -0.575,-1.075 -0.425,-0.525 -1.2,-1.025 -0.775,-0.525 -2.05,-1.025 -1.25,-0.5 -2.15,-1.025 -0.9,-0.525 -1.5,-1.15 -0.6,-0.65 -0.9,-1.4 -0.275,-0.775 -0.275,-1.75 0,-0.8 0.375,-1.6 0.375,-0.825 1.05,-1.475 0.7,-0.675 1.7,-1.1 1.025,-0.425 2.3,-0.425 1.2,0 2.075,0.275 0.9,0.275 1.475,0.5 l 1.05,-0.475 0.625,0 0.5,5.125 -0.925,0 q -0.675,-2.1 -1.975,-3.125 -1.275,-1.025 -2.7,-1.025 -1.3,0 -2.2,0.65 -0.9,0.65 -0.9,1.925 0,1.225 1.05,2.2 1.075,0.95 3.275,1.825 1,0.4 1.825,0.9 0.85,0.475 1.425,1.1 0.575,0.625 0.9,1.45 0.325,0.8 0.325,1.875 0,1.25 -0.45,2.2 -0.425,0.925 -1.2,1.575 -0.775,0.625 -1.825,0.95 -1.05,0.325 -2.25,0.325 -0.95,0 -1.975,-0.275 -1,-0.275 -1.7,-0.7 l -1.225,0.5 -1.125,0 0,-5.3 z"
           inkscape:connector-curvature="0" />
        <path
           id="path5131"
           d="m 1049.3285,-1017.9629 0,1 -2.2,0.375 0,14.9 2.2,0.375 0,1 -7.05,0 0,-1 2.2,-0.375 0,-14.9 -2.2,-0.375 0,-1 7.05,0 z"
           inkscape:connector-curvature="0" />
        <path
           id="path5133"
           d="m 1068.0266,-1017.9629 1.15,4.925 -1.1,0 -2.525,-3.725 -3.65,0 0,15.075 2.3,0.375 0,1 -7.25,0 0,-1 2.3,-0.375 0,-15.075 -3.65,0 -2.525,3.725 -1.1,0 1.15,-4.925 14.9,0 z"
           inkscape:connector-curvature="0" />
        <path
           id="path5135"
           d="m 1071.9695,-1009.1129 q 0,-2.1 0.675,-3.8 0.675,-1.7 1.825,-2.875 1.15,-1.2 2.675,-1.825 1.55,-0.65 3.275,-0.65 1.825,0 3.375,0.625 1.55,0.625 2.675,1.825 1.125,1.175 1.75,2.875 0.625,1.7 0.625,3.825 0,2.275 -0.675,3.975 -0.675,1.7 -1.825,2.85 -1.125,1.125 -2.675,1.7 -1.525,0.575 -3.25,0.575 -1.725,0 -3.275,-0.6 -1.525,-0.6 -2.675,-1.75 -1.15,-1.15 -1.825,-2.85 -0.675,-1.7 -0.675,-3.9 z m 2.925,-0.025 q 0,2.1 0.45,3.575 0.45,1.475 1.2,2.425 0.775,0.95 1.775,1.4 1,0.425 2.1,0.425 1.1,0 2.1,-0.35 1,-0.35 1.75,-1.225 0.75,-0.9 1.2,-2.4 0.45,-1.525 0.45,-3.85 0,-2.15 -0.425,-3.65 -0.425,-1.5 -1.175,-2.425 -0.725,-0.95 -1.725,-1.375 -1,-0.425 -2.175,-0.425 -1.1,0 -2.1,0.45 -1,0.425 -1.775,1.375 -0.75,0.925 -1.2,2.425 -0.45,1.5 -0.45,3.625 z"
           inkscape:connector-curvature="0" />
        <path
           id="path5137"
           d="m 1100.8,-1008.5379 q 0.725,0.35 1.325,1.225 0.625,0.875 1.225,1.925 0.6,1.025 1.25,2.05 0.65,1.025 1.45,1.65 l 1.575,0.375 0,1 -3.775,0 q -0.575,-0.425 -1.1,-1.125 -0.5,-0.7 -0.975,-1.5 -0.475,-0.825 -0.95,-1.675 -0.475,-0.875 -0.975,-1.625 -0.5,-0.75 -1.05,-1.325 -0.55,-0.6 -1.175,-0.875 l -0.35,0 0,6.75 2.45,0.375 0,1 -7.3,0 0,-1 2.2,-0.375 0,-14.9 -2.2,-0.375 0,-1 7.875,0 q 0.675,0 1.55,0.2 0.875,0.175 1.65,0.7 0.8,0.5 1.35,1.4 0.55,0.9 0.55,2.325 0,0.625 -0.25,1.325 -0.25,0.675 -0.8,1.325 -0.525,0.625 -1.4,1.125 -0.875,0.5 -2.15,0.75 l 0,0.275 z m -3.525,-1.275 1.725,0 q 0.975,0 1.65,-0.325 0.675,-0.325 1.1,-0.825 0.425,-0.5 0.6,-1.1 0.2,-0.625 0.2,-1.2 0,-0.95 -0.225,-1.575 -0.2,-0.65 -0.575,-1.025 -0.375,-0.4 -0.875,-0.55 -0.475,-0.175 -1.025,-0.175 l -2.575,0 0,6.775 z"
           inkscape:connector-curvature="0" />
        <path
           id="path5139"
           d="m 1121.0707,-1016.5879 -2.225,-0.375 0,-1 5.6,0 0,1 -1.875,0.375 -4.725,8.075 0,6.825 2.2,0.375 0,1 -7.05,0 0,-1 2.2,-0.375 0,-6.75 -4.775,-8.15 -1.825,-0.375 0,-1 6.6,0 0,1 -2.025,0.375 3.7,6.375 0.4,0 3.8,-6.375 z"
           inkscape:connector-curvature="0" />
        <path
           id="path5141"
           d="m 961.56056,-963.01293 q -1.2,-1.075 -2.3,-2.4 -1.075,-1.3 -1.9,-2.875 -0.825,-1.55 -1.325,-3.375 -0.5,-1.825 -0.5,-3.975 0,-1.975 0.45,-3.675 0.45,-1.7 1.25,-3.175 0.825,-1.475 1.925,-2.775 1.1,-1.3 2.375,-2.475 l 0.75,0.975 q -2.375,2.425 -3.45,5.2 -1.05,2.775 -1.05,5.925 0,3.45 1.075,6.5 1.075,3.05 3.425,5.275 l -0.725,0.85 z"
           inkscape:connector-curvature="0" />
        <path
           id="path5143"
           d="m 965.52072,-975.46293 q 0,-1.55 0.525,-2.8 0.55,-1.25 1.45,-2.125 0.925,-0.9 2.15,-1.375 1.25,-0.475 2.65,-0.475 1.45,0 2.675,0.475 1.25,0.45 2.15,1.325 0.9,0.875 1.4,2.15 0.5,1.25 0.5,2.825 0,1.65 -0.55,2.925 -0.525,1.25 -1.45,2.1 -0.9,0.85 -2.125,1.275 -1.225,0.425 -2.6,0.425 -1.4,0 -2.65,-0.425 -1.225,-0.45 -2.15,-1.3 -0.9,-0.875 -1.45,-2.125 -0.525,-1.25 -0.525,-2.875 z m 2.75,-0.025 q 0,1.325 0.325,2.325 0.325,1 0.875,1.7 0.55,0.675 1.275,1.025 0.725,0.35 1.55,0.35 0.8,0 1.525,-0.275 0.725,-0.3 1.275,-0.95 0.55,-0.65 0.875,-1.675 0.325,-1.025 0.325,-2.5 0,-1.35 -0.325,-2.375 -0.3,-1.05 -0.85,-1.725 -0.525,-0.7 -1.275,-1.05 -0.725,-0.35 -1.55,-0.35 -0.825,0 -1.55,0.35 -0.725,0.35 -1.275,1.05 -0.55,0.7 -0.875,1.725 -0.325,1.025 -0.325,2.375 z"
           inkscape:connector-curvature="0" />
        <path
           id="path5145"
           d="m 990.33907,-975.16293 q 0.525,0.225 0.95,0.85 0.45,0.625 0.9,1.375 0.45,0.725 0.925,1.45 0.475,0.7 1.05,1.1 l 1.125,0.375 0,0.95 -3,0 q -0.75,-0.475 -1.325,-1.325 -0.55,-0.85 -1.075,-1.75 -0.525,-0.9 -1.1,-1.65 -0.55,-0.775 -1.3,-1.075 l -0.75,0 0,4.475 1.775,0.375 0,0.95 -6.05,0 0,-0.95 1.8,-0.375 0,-10.3 -1.8,-0.375 0,-0.95 6.775,0 q 0.55,0 1.25,0.15 0.7,0.125 1.325,0.5 0.65,0.375 1.075,1.05 0.45,0.65 0.45,1.7 0,1.075 -0.775,2.025 -0.75,0.925 -2.225,1.2 l 0,0.225 z m -3.6,-0.875 1.375,0 q 0.7,0 1.175,-0.225 0.5,-0.25 0.825,-0.6 0.325,-0.375 0.475,-0.8 0.15,-0.45 0.15,-0.875 0,-1.175 -0.575,-1.65 -0.575,-0.5 -1.325,-0.5 l -2.1,0 0,4.65 z"
           inkscape:connector-curvature="0" />
        <path
           id="path5147"
           d="m 1009.2488,-974.38793 0,4 2,0.375 0,0.95 -6.275,0 0,-0.95 1.8,-0.375 0,-10.3 -1.8,-0.375 0,-0.95 6.4,0 q 0.775,0 1.575,0.2 0.8,0.2 1.45,0.65 0.675,0.45 1.1,1.175 0.425,0.7 0.425,1.7 0,1.8 -1.35,2.85 -1.325,1.05 -3.7,1.05 l -1.625,0 z m 0,-1.175 1.825,0 q 0.925,0 1.6,-0.7 0.7,-0.7 0.7,-1.9 0,-1.275 -0.675,-1.9 -0.675,-0.625 -1.675,-0.625 l -1.775,0 0,5.125 z"
           inkscape:connector-curvature="0" />
        <path
           id="path5149"
           d="m 1026.8625,-975.16293 q 0.525,0.225 0.95,0.85 0.45,0.625 0.9,1.375 0.45,0.725 0.925,1.45 0.475,0.7 1.05,1.1 l 1.125,0.375 0,0.95 -3,0 q -0.75,-0.475 -1.325,-1.325 -0.55,-0.85 -1.075,-1.75 -0.525,-0.9 -1.1,-1.65 -0.55,-0.775 -1.3,-1.075 l -0.75,0 0,4.475 1.775,0.375 0,0.95 -6.05,0 0,-0.95 1.8,-0.375 0,-10.3 -1.8,-0.375 0,-0.95 6.775,0 q 0.55,0 1.25,0.15 0.7,0.125 1.325,0.5 0.65,0.375 1.075,1.05 0.45,0.65 0.45,1.7 0,1.075 -0.775,2.025 -0.75,0.925 -2.225,1.2 l 0,0.225 z m -3.6,-0.875 1.375,0 q 0.7,0 1.175,-0.225 0.5,-0.25 0.825,-0.6 0.325,-0.375 0.475,-0.8 0.15,-0.45 0.15,-0.875 0,-1.175 -0.575,-1.65 -0.575,-0.5 -1.325,-0.5 l -2.1,0 0,4.65 z"
           inkscape:connector-curvature="0" />
        <path
           id="path5151"
           d="m 1034.2707,-975.46293 q 0,-1.55 0.525,-2.8 0.55,-1.25 1.45,-2.125 0.925,-0.9 2.15,-1.375 1.25,-0.475 2.65,-0.475 1.45,0 2.675,0.475 1.25,0.45 2.15,1.325 0.9,0.875 1.4,2.15 0.5,1.25 0.5,2.825 0,1.65 -0.55,2.925 -0.525,1.25 -1.45,2.1 -0.9,0.85 -2.125,1.275 -1.225,0.425 -2.6,0.425 -1.4,0 -2.65,-0.425 -1.225,-0.45 -2.15,-1.3 -0.9,-0.875 -1.45,-2.125 -0.525,-1.25 -0.525,-2.875 z m 2.75,-0.025 q 0,1.325 0.325,2.325 0.325,1 0.875,1.7 0.55,0.675 1.275,1.025 0.725,0.35 1.55,0.35 0.8,0 1.525,-0.275 0.725,-0.3 1.275,-0.95 0.55,-0.65 0.875,-1.675 0.325,-1.025 0.325,-2.5 0,-1.35 -0.325,-2.375 -0.3,-1.05 -0.85,-1.725 -0.525,-0.7 -1.275,-1.05 -0.725,-0.35 -1.55,-0.35 -0.825,0 -1.55,0.35 -0.725,0.35 -1.275,1.05 -0.55,0.7 -0.875,1.725 -0.325,1.025 -0.325,2.375 z"
           inkscape:connector-curvature="0" />
        <path
           id="path5153"
           d="m 1053.7891,-980.68793 -1.925,-0.375 0,-0.95 6.175,0 0,0.95 -1.775,0.375 0,10.7 q 0,1.175 -0.45,2.2 -0.45,1.05 -1.15,1.85 -0.7,0.8 -1.55,1.25 -0.85,0.475 -1.65,0.475 -0.825,0 -1.4,-0.35 -0.575,-0.325 -0.575,-1.1 0,-0.6 0.325,-0.925 0.35,-0.3 0.825,-0.3 0.3,0 0.5,0.125 0.225,0.125 0.4,0.25 0.2,0.15 0.4,0.275 0.2,0.125 0.5,0.125 0.8,0 1.075,-0.475 0.275,-0.45 0.275,-1.2 l 0,-12.9 z"
           inkscape:connector-curvature="0" />
        <path
           id="path5155"
           d="m 1070.293,-970.28793 1.45,-2.225 1.075,0 -0.525,3.45 -10.825,0 0,-0.95 1.8,-0.375 0,-10.3 -1.8,-0.375 0,-0.95 10.175,0 0.325,3.1 -1.05,0 -1.3,-1.875 -3.875,0 0,4.475 2.4,0 0.675,-1.425 0.8,0 0,4.175 -0.8,0 -0.675,-1.575 -2.4,0 0,4.85 4.55,0 z"
           inkscape:connector-curvature="0" />
        <path
           id="path5157"
           d="m 1082.8723,-970.08793 q 1.625,0 2.575,-0.8 0.95,-0.8 1.45,-2.325 l 0.95,0 0,2.925 q -1.025,0.65 -2.2,1.1 -1.15,0.45 -2.875,0.45 -1.425,0 -2.675,-0.425 -1.25,-0.45 -2.2,-1.3 -0.925,-0.875 -1.475,-2.125 -0.55,-1.25 -0.55,-2.875 0,-1.55 0.525,-2.8 0.55,-1.25 1.475,-2.125 0.95,-0.9 2.2,-1.375 1.275,-0.475 2.7,-0.475 1.2,0 2.525,0.425 1.325,0.4 2.375,0.975 l 0,3.025 -0.95,0 q -0.65,-1.775 -1.7,-2.475 -1.025,-0.7 -2.25,-0.7 -0.825,0 -1.6,0.375 -0.75,0.375 -1.325,1.1 -0.55,0.7 -0.9,1.725 -0.325,1 -0.325,2.3 0,1.225 0.375,2.225 0.4,1 1,1.7 0.625,0.7 1.375,1.1 0.775,0.375 1.5,0.375 z"
           inkscape:connector-curvature="0" />
        <path
           id="path5159"
           d="m 1103.1234,-982.01293 0.6,3.65 -1.075,0 -1.65,-2.475 -2.55,0 0,10.45 1.875,0.375 0,0.95 -6.225,0 0,-0.95 1.875,-0.375 0,-10.45 -2.55,0 -1.675,2.475 -1.05,0 0.6,-3.65 11.825,0 z"
           inkscape:connector-curvature="0" />
        <path
           id="path5161"
           d="m 1106.2387,-963.86293 q 2.35,-2.225 3.425,-5.275 1.075,-3.05 1.075,-6.5 0,-3.15 -1.075,-5.925 -1.05,-2.775 -3.425,-5.2 l 0.75,-0.975 q 1.275,1.175 2.375,2.475 1.1,1.3 1.9,2.775 0.825,1.475 1.275,3.175 0.45,1.7 0.45,3.675 0,2.15 -0.5,3.975 -0.5,1.825 -1.325,3.375 -0.825,1.575 -1.925,2.875 -1.075,1.325 -2.275,2.4 l -0.725,-0.85 z"
           inkscape:connector-curvature="0" />
      </g>
    </g>
  </g>
</svg>
