<svg xmlns="http://www.w3.org/2000/svg" width="1490" height="540" xmlns:xlink="http://www.w3.org/1999/xlink"><defs><linearGradient id="a"><stop offset="0" stop-color="#fad8a0"/><stop offset="1" stop-color="#15af90"/></linearGradient><linearGradient id="b"><stop offset="0" stop-color="#f6b8b1"/><stop offset="1" stop-color="#f39c12"/></linearGradient><linearGradient id="d"><stop offset="0" stop-color="#15af90"/><stop offset="1" stop-color="#a2dfd3"/></linearGradient><linearGradient id="e"><stop offset="0" stop-color="#f39c12"/><stop offset="1" stop-color="#fad8a0"/></linearGradient><linearGradient id="c"><stop offset="0" stop-color="#e74c3c"/><stop offset="1" stop-color="#f6b8b1"/></linearGradient><linearGradient id="j" x1="350" x2="557.322" y1="-322.138" y2="-322.138" xlink:href="#a" gradientUnits="userSpaceOnUse" gradientTransform="translate(575.839 1173.754)"/><linearGradient id="i" x1="350" x2="557.322" y1="-322.138" y2="-322.138" xlink:href="#b" gradientUnits="userSpaceOnUse" gradientTransform="translate(6.964 1173.75)"/><linearGradient id="h" x1="59.75" x2="409.75" y1="-352.888" y2="-352.888" xlink:href="#c" gradientUnits="userSpaceOnUse" gradientTransform="translate(-58.75 1204.5)"/><linearGradient id="f" x1="59.75" x2="409.75" y1="-352.888" y2="-352.888" xlink:href="#d" gradientUnits="userSpaceOnUse" gradientTransform="translate(1079.25 1204.5)"/><linearGradient id="g" x1="59.75" x2="409.75" y1="-352.888" y2="-352.888" xlink:href="#e" gradientUnits="userSpaceOnUse" gradientTransform="translate(510.25 1204.5)"/></defs><g transform="translate(0 -512.362)"><rect width="349.5" height="349.5" x="1139.25" y="676.862" fill="url(#f)" stroke="#000" rx="35" ry="35" stroke-linejoin="round"/><path fill="#fff" d="M1255.35 827.4h9.85v5.6h-16.35v-25.26h6.5v19.65z" style="line-height:125%;-inkscape-font-specification:'Concourse C4, Semi-Bold';text-align:center" font-weight="600" font-family="Concourse C4" letter-spacing="0" word-spacing="0" text-anchor="middle"/><path fill="#fff" d="M1297.16 820.5q0 2.64-.95 5.04-.94 2.35-2.74 4.15-1.75 1.74-4.25 2.8-2.44 1-5.5 1-2.94 0-5.44-1-2.5-1-4.3-2.76-1.8-1.75-2.8-4.1-1-2.4-1-5.15 0-3 1.1-5.46 1.15-2.45 3-4.15 1.9-1.76 4.35-2.7 2.46-.96 5.1-.96 2.6 0 5 .95 2.46.9 4.3 2.6 1.9 1.7 3 4.2 1.16 2.44 1.16 5.5zm-6.65-.1q0-1.66-.54-3-.55-1.4-1.5-2.36-.95-1-2.2-1.55-1.2-.56-2.6-.56-1.3 0-2.55.5-1.2.5-2.14 1.45-.95.94-1.55 2.34-.54 1.35-.54 3.15 0 1.44.45 2.8.46 1.3 1.3 2.34.86 1 2.16 1.65 1.3.6 3.05.6 1.4 0 2.6-.5 1.26-.5 2.16-1.46.9-.95 1.4-2.3.55-1.4.55-3.15z" style="line-height:125%;-inkscape-font-specification:'Concourse C4, Semi-Bold';text-align:center" font-weight="600" font-family="Concourse C4" letter-spacing="0" word-spacing="0" text-anchor="middle"/><path fill="#fff" d="M1323.83 825.6l1.9 4.84q-1.95 1.5-4.45 2.3-2.5.75-5.3.75-3 0-5.5-1-2.45-1.06-4.2-2.8-1.7-1.76-2.65-4.06-.95-2.35-.95-5 0-3.2 1.15-5.65 1.15-2.5 3.05-4.2 1.95-1.76 4.4-2.66 2.45-.9 5.05-.9 3.05 0 5.45.95 2.45.9 3.95 2.2l-1.95 5h-.2q-1.15-1-3.05-1.76-1.85-.75-4.15-.7-1.35 0-2.6.5-1.25.45-2.25 1.4-.95.95-1.55 2.4-.6 1.4-.6 3.3 0 1.75.55 3.1.55 1.3 1.5 2.25.95.94 2.25 1.44 1.35.45 2.9.45 2.1 0 3.7-.5 1.65-.56 3.3-1.7h.25z" style="line-height:125%;-inkscape-font-specification:'Concourse C4, Semi-Bold';text-align:center" font-weight="600" font-family="Concourse C4" letter-spacing="0" word-spacing="0" text-anchor="middle"/><path fill="#fff" d="M1347.2 828.54h-9.05l-1.65 4.45h-6.9l10.95-25.26h4.2L1355.8 833h-6.9l-1.7-4.46zm-7.3-4.75h5.55l-2.65-7.26h-.3l-2.6 7.25z" style="line-height:125%;-inkscape-font-specification:'Concourse C4, Semi-Bold';text-align:center" font-weight="600" font-family="Concourse C4" letter-spacing="0" word-spacing="0" text-anchor="middle"/><path fill="#fff" d="M1367.46 827.4h9.85v5.6h-16.34v-25.26h6.5v19.65z" style="line-height:125%;-inkscape-font-specification:'Concourse C4, Semi-Bold';text-align:center" font-weight="600" font-family="Concourse C4" letter-spacing="0" word-spacing="0" text-anchor="middle"/><path fill="#fff" d="M1197.43 885.3l7.7 9.94v.25h-7.7l-6.9-9.76h-.65v9.75h-6.5v-25.26h10.05q2.1 0 3.85.6 1.75.55 3 1.65 1.3 1.1 2 2.64.7 1.5.7 3.35 0 2.4-1.45 4.14-1.4 1.7-4.1 2.45v.2zm-1.4-6.8q0-1.4-.95-2.16-.9-.75-2.35-.75h-2.85v5.74h3q1.35 0 2.25-.7.9-.75.9-2.15z" style="line-height:125%;-inkscape-font-specification:'Concourse C4, Semi-Bold';text-align:center" font-weight="600" font-family="Concourse C4" letter-spacing="0" word-spacing="0" text-anchor="middle"/><path fill="#fff" d="M1229.3 875.84h-11.4v4.2h9.9v5.4h-9.9v4.45h11.75v5.6h-18.25v-25.26h17.9v5.6z" style="line-height:125%;-inkscape-font-specification:'Concourse C4, Semi-Bold';text-align:center" font-weight="600" font-family="Concourse C4" letter-spacing="0" word-spacing="0" text-anchor="middle"/><path fill="#fff" d="M1256.48 879q0 1.3-.5 2.7-.5 1.34-1.7 2.5-1.15 1.14-3.05 1.9-1.9.74-4.75.74h-2.6v8.65h-6.5v-25.26h9.3q2.15 0 3.95.6 1.8.6 3.1 1.75 1.3 1.1 2 2.74.75 1.6.75 3.65zm-6.95-.16q0-1.35-.95-2.3-.95-.95-2.6-.95h-2.1v6.24h2.25q1.5 0 2.45-.75.95-.8.95-2.26z" style="line-height:125%;-inkscape-font-specification:'Concourse C4, Semi-Bold';text-align:center" font-weight="600" font-family="Concourse C4" letter-spacing="0" word-spacing="0" text-anchor="middle"/><path fill="#fff" d="M1288.62 883q0 2.64-.95 5.04-.95 2.35-2.75 4.15-1.75 1.74-4.25 2.8-2.45 1-5.5 1-2.95 0-5.45-1t-4.3-2.76q-1.8-1.75-2.8-4.1-1-2.4-1-5.15 0-3 1.1-5.46 1.15-2.45 3-4.15 1.9-1.76 4.35-2.7 2.45-.96 5.1-.96 2.6 0 5 .95 2.45.9 4.3 2.6 1.9 1.7 3 4.2 1.15 2.44 1.15 5.5zm-6.65-.1q0-1.66-.55-3-.55-1.4-1.5-2.36-.95-1-2.2-1.55-1.2-.56-2.6-.56-1.3 0-2.55.5-1.2.5-2.15 1.45-.95.94-1.55 2.34-.55 1.35-.55 3.15 0 1.44.45 2.8.45 1.3 1.3 2.34.85 1 2.15 1.65 1.3.6 3.05.6 1.4 0 2.6-.5 1.25-.5 2.15-1.46.9-.95 1.4-2.3.55-1.4.55-3.15z" style="line-height:125%;-inkscape-font-specification:'Concourse C4, Semi-Bold';text-align:center" font-weight="600" font-family="Concourse C4" letter-spacing="0" word-spacing="0" text-anchor="middle"/><path fill="#fff" d="M1296.1 887.84q1.64 1.05 3.74 1.85 2.1.8 4.3.8 1.75 0 2.5-.66.8-.65.8-1.4 0-1.15-1.25-1.8-1.2-.65-3.66-1.8-1.9-.9-3.3-1.7-1.35-.85-2.25-1.75-.86-.96-1.3-2-.4-1.06-.4-2.4 0-1.36.54-2.66.6-1.3 1.75-2.3 1.14-1.05 2.9-1.65 1.74-.66 4.1-.66 2.64 0 4.9.65 2.24.64 4 1.74l-1.5 5.2q-1.9-1-3.76-1.55-1.85-.56-3.6-.56-1.45 0-2.1.55-.65.5-.65 1.2 0 .4.2.74.24.3.8.7.54.35 1.5.85 1 .5 2.44 1.14 2.05.95 3.45 1.9 1.4.9 2.24 1.9.9 1 1.25 2.1.4 1.1.4 2.4 0 1.8-.8 3.15-.76 1.34-2.16 2.24-1.35.9-3.25 1.35-1.9.5-4.16.5-3.3 0-5.85-.9-2.56-.96-3.7-2l1.8-5.26z" style="line-height:125%;-inkscape-font-specification:'Concourse C4, Semi-Bold';text-align:center" font-weight="600" font-family="Concourse C4" letter-spacing="0" word-spacing="0" text-anchor="middle"/><path fill="#fff" d="M1328.36 895.5h-6.5v-25.26h6.5v25.25z" style="line-height:125%;-inkscape-font-specification:'Concourse C4, Semi-Bold';text-align:center" font-weight="600" font-family="Concourse C4" letter-spacing="0" word-spacing="0" text-anchor="middle"/><path fill="#fff" d="M1349.9 875.84v19.65h-6.5v-19.66h-7.6v-5.6h21.7v5.6h-7.6z" style="line-height:125%;-inkscape-font-specification:'Concourse C4, Semi-Bold';text-align:center" font-weight="600" font-family="Concourse C4" letter-spacing="0" word-spacing="0" text-anchor="middle"/><path fill="#fff" d="M1389.2 883q0 2.64-.95 5.04-.95 2.35-2.75 4.15-1.75 1.74-4.25 2.8-2.45 1-5.5 1-2.95 0-5.45-1t-4.3-2.76q-1.8-1.75-2.8-4.1-1-2.4-1-5.15 0-3 1.1-5.46 1.15-2.45 3-4.15 1.9-1.76 4.35-2.7 2.45-.96 5.1-.96 2.6 0 5 .95 2.45.9 4.3 2.6 1.9 1.7 3 4.2 1.15 2.44 1.15 5.5zm-6.65-.1q0-1.66-.55-3-.55-1.4-1.5-2.36-.95-1-2.2-1.55-1.2-.56-2.6-.56-1.3 0-2.55.5-1.2.5-2.15 1.45-.95.94-1.55 2.34-.55 1.35-.55 3.15 0 1.44.45 2.8.45 1.3 1.3 2.34.85 1 2.15 1.65 1.3.6 3.05.6 1.4 0 2.6-.5 1.25-.5 2.15-1.46.9-.95 1.4-2.3.55-1.4.55-3.15z" style="line-height:125%;-inkscape-font-specification:'Concourse C4, Semi-Bold';text-align:center" font-weight="600" font-family="Concourse C4" letter-spacing="0" word-spacing="0" text-anchor="middle"/><path fill="#fff" d="M1410.02 885.3l7.7 9.94v.25h-7.7l-6.9-9.76h-.65v9.75h-6.5v-25.26h10.05q2.1 0 3.85.6 1.75.55 3 1.65 1.3 1.1 2 2.64.7 1.5.7 3.35 0 2.4-1.45 4.14-1.4 1.7-4.1 2.45v.2zm-1.4-6.8q0-1.4-.95-2.16-.9-.75-2.35-.75h-2.85v5.74h3q1.35 0 2.25-.7.9-.75.9-2.15z" style="line-height:125%;-inkscape-font-specification:'Concourse C4, Semi-Bold';text-align:center" font-weight="600" font-family="Concourse C4" letter-spacing="0" word-spacing="0" text-anchor="middle"/><path fill="#fff" d="M1432.27 879.44h.2l5-9.2h7.15l-9.1 15.35v9.9h-6.5v-9.9l-9.1-15.36h7.15l5.2 9.2z" style="line-height:125%;-inkscape-font-specification:'Concourse C4, Semi-Bold';text-align:center" font-weight="600" font-family="Concourse C4" letter-spacing="0" word-spacing="0" text-anchor="middle"/><rect width="349.5" height="349.5" x="570.25" y="676.862" fill="url(#g)" stroke="#000" rx="35" ry="35" stroke-linejoin="round"/><path fill="#fff" d="M656.44 825.6q1.65 1.04 3.75 1.84t4.3.8q1.74 0 2.5-.65.8-.66.8-1.4 0-1.16-1.26-1.8-1.2-.66-3.65-1.8-1.9-.9-3.3-1.7-1.36-.86-2.26-1.76-.85-.95-1.3-2-.4-1.05-.4-2.4 0-1.35.55-2.65.6-1.3 1.74-2.3 1.15-1.06 2.9-1.66 1.75-.65 4.1-.65 2.65 0 4.9.64 2.25.65 4 1.75l-1.5 5.2q-1.9-1-3.75-1.56-1.86-.55-3.6-.55-1.46 0-2.1.54-.66.5-.66 1.2 0 .4.2.75.25.3.8.7.55.34 1.5.84 1 .5 2.45 1.15 2.04.94 3.44 1.9 1.4.9 2.25 1.9.9 1 1.24 2.1.4 1.1.4 2.4 0 1.8-.8 3.14-.75 1.35-2.15 2.25-1.36.9-3.26 1.34-1.9.5-4.15.5-3.3 0-5.86-.9-2.55-.95-3.7-2l1.8-5.25z" style="line-height:125%;-inkscape-font-specification:'Concourse C4, Semi-Bold';text-align:center" font-weight="600" font-family="Concourse C4" letter-spacing="0" word-spacing="0" text-anchor="middle"/><path fill="#fff" d="M693.74 813.6v19.64h-6.5V813.6h-7.6V808h21.7v5.6h-7.6z" style="line-height:125%;-inkscape-font-specification:'Concourse C4, Semi-Bold';text-align:center" font-weight="600" font-family="Concourse C4" letter-spacing="0" word-spacing="0" text-anchor="middle"/><path fill="#fff" d="M721.07 828.8h-9.05l-1.65 4.44h-6.9L714.42 808h4.2l11.05 25.24h-6.9l-1.7-4.45zm-7.3-4.76h5.55l-2.65-7.25h-.3l-2.6 7.24z" style="line-height:125%;-inkscape-font-specification:'Concourse C4, Semi-Bold';text-align:center" font-weight="600" font-family="Concourse C4" letter-spacing="0" word-spacing="0" text-anchor="middle"/><path fill="#fff" d="M754.4 815.94q-1.45-1.15-3.3-1.95-1.85-.86-4.45-.8-1.3 0-2.55.44-1.25.45-2.2 1.4-.95.95-1.55 2.4-.55 1.4-.55 3.35 0 1.54.5 2.9.55 1.3 1.45 2.3.95.94 2.2 1.5 1.3.54 2.8.54 1.35 0 2.55-.35 1.2-.36 2.05-1v-3.16h-5.55v-5.1h11.05v11.5q-1.75 1.65-4.5 2.75-2.75 1.04-5.7 1.04-2.8 0-5.25-.9-2.45-.95-4.3-2.6-1.85-1.7-2.95-4.05-1.05-2.4-1.05-5.3 0-3.2 1.15-5.66 1.15-2.5 3.05-4.2 1.95-1.75 4.4-2.65 2.45-.9 5.05-.9 1.55 0 3 .3t2.7.74q1.25.45 2.25 1.05 1 .54 1.7 1.04l-1.75 5.3h-.25z" style="line-height:125%;-inkscape-font-specification:'Concourse C4, Semi-Bold';text-align:center" font-weight="600" font-family="Concourse C4" letter-spacing="0" word-spacing="0" text-anchor="middle"/><path fill="#fff" d="M771.82 833.24h-6.5V808h6.5v25.24z" style="line-height:125%;-inkscape-font-specification:'Concourse C4, Semi-Bold';text-align:center" font-weight="600" font-family="Concourse C4" letter-spacing="0" word-spacing="0" text-anchor="middle"/><path fill="#fff" d="M798.1 822.3h.24V808h6.5v25.24h-4.15l-13.6-14.35h-.26v14.34h-6.5V808h4.15l13.6 14.3z" style="line-height:125%;-inkscape-font-specification:'Concourse C4, Semi-Bold';text-align:center" font-weight="600" font-family="Concourse C4" letter-spacing="0" word-spacing="0" text-anchor="middle"/><path fill="#fff" d="M832.9 815.94q-1.44-1.15-3.3-1.95-1.84-.86-4.44-.8-1.3 0-2.55.44-1.24.45-2.2 1.4-.94.95-1.54 2.4-.55 1.4-.55 3.35 0 1.54.5 2.9.56 1.3 1.46 2.3.95.94 2.2 1.5 1.3.54 2.8.54 1.35 0 2.55-.35 1.2-.36 2.06-1v-3.16h-5.55v-5.1h11.06v11.5q-1.75 1.65-4.5 2.75-2.75 1.04-5.7 1.04-2.8 0-5.25-.9-2.44-.95-4.3-2.6-1.84-1.7-2.94-4.05-1.05-2.4-1.05-5.3 0-3.2 1.16-5.66 1.15-2.5 3.05-4.2 1.96-1.75 4.4-2.65 2.46-.9 5.06-.9 1.55 0 3 .3t2.7.74q1.25.45 2.25 1.05 1 .54 1.7 1.04l-1.74 5.3h-.25z" style="line-height:125%;-inkscape-font-specification:'Concourse C4, Semi-Bold';text-align:center" font-weight="600" font-family="Concourse C4" letter-spacing="0" word-spacing="0" text-anchor="middle"/><path fill="#fff" d="M708.77 891.3h-9.05l-1.65 4.44h-6.9l10.95-25.25h4.2l11.05 25.24h-6.9l-1.7-4.45zm-7.3-4.76h5.55l-2.65-7.25h-.3l-2.6 7.24z" style="line-height:125%;-inkscape-font-specification:'Concourse C4, Semi-Bold';text-align:center" font-weight="600" font-family="Concourse C4" letter-spacing="0" word-spacing="0" text-anchor="middle"/><path fill="#fff" d="M736.58 885.54l7.7 9.95v.24h-7.7l-6.9-9.75h-.65v9.74h-6.5V870.5h10.05q2.1 0 3.85.6 1.75.54 3 1.64 1.3 1.1 2 2.65.7 1.5.7 3.34 0 2.4-1.45 4.15-1.4 1.7-4.1 2.44v.2zm-1.4-6.8q0-1.4-.95-2.15-.9-.76-2.35-.76h-2.85v5.75h3q1.35 0 2.25-.7.9-.76.9-2.16z" style="line-height:125%;-inkscape-font-specification:'Concourse C4, Semi-Bold';text-align:center" font-weight="600" font-family="Concourse C4" letter-spacing="0" word-spacing="0" text-anchor="middle"/><path fill="#fff" d="M768.46 876.1h-11.4v4.2h9.9v5.4h-9.9v4.44h11.75v5.6h-18.24V870.5h17.9v5.6z" style="line-height:125%;-inkscape-font-specification:'Concourse C4, Semi-Bold';text-align:center" font-weight="600" font-family="Concourse C4" letter-spacing="0" word-spacing="0" text-anchor="middle"/><path fill="#fff" d="M791.3 891.3h-9.06l-1.65 4.44h-6.9l10.94-25.25h4.2l11.05 25.24H793l-1.7-4.45zm-7.3-4.76h5.54l-2.65-7.25h-.3l-2.6 7.24z" style="line-height:125%;-inkscape-font-specification:'Concourse C4, Semi-Bold';text-align:center" font-weight="600" font-family="Concourse C4" letter-spacing="0" word-spacing="0" text-anchor="middle"/><rect width="349.5" height="349.5" x="1.25" y="676.862" fill="url(#h)" stroke="#000" rx="35" ry="35" stroke-linejoin="round"/><path fill="#fff" d="M94.13 818.84L89.78 833h-4.25l-9.5-25.26h7.05l4.6 14.6h.25l4.05-14.6h4.3l4.4 14.6h.25l4.25-14.6h7.05l-9.5 25.25h-4.25l-4.15-14.16h-.2z" style="line-height:125%;-inkscape-font-specification:'Concourse C4, Semi-Bold';text-align:center" font-weight="600" font-family="Concourse C4" letter-spacing="0" word-spacing="0" text-anchor="middle"/><path fill="#fff" d="M143.1 820.5q0 2.64-.96 5.04-.95 2.35-2.75 4.15-1.76 1.74-4.26 2.8-2.45 1-5.5 1-2.95 0-5.45-1t-4.3-2.76q-1.8-1.75-2.8-4.1-1-2.4-1-5.15 0-3 1.1-5.46 1.14-2.45 3-4.15 1.9-1.76 4.34-2.7 2.45-.96 5.1-.96 2.6 0 5 .95 2.45.9 4.3 2.6 1.9 1.7 3 4.2 1.15 2.44 1.15 5.5zm-6.66-.1q0-1.66-.55-3-.56-1.4-1.5-2.36-.96-1-2.2-1.55-1.2-.56-2.6-.56-1.3 0-2.56.5-1.2.5-2.15 1.45-.96.94-1.56 2.34-.55 1.35-.55 3.15 0 1.44.44 2.8.45 1.3 1.3 2.34.85 1 2.15 1.65 1.3.6 3.04.6 1.4 0 2.6-.5 1.25-.5 2.15-1.46.9-.95 1.4-2.3.54-1.4.54-3.15z" style="line-height:125%;-inkscape-font-specification:'Concourse C4, Semi-Bold';text-align:center" font-weight="600" font-family="Concourse C4" letter-spacing="0" word-spacing="0" text-anchor="middle"/><path fill="#fff" d="M163.9 822.8l7.7 9.94v.25h-7.7l-6.9-9.76h-.64V833h-6.5v-25.26h10.05q2.1 0 3.86.6 1.75.55 3 1.65 1.3 1.1 2 2.64.7 1.5.7 3.35 0 2.4-1.45 4.14-1.4 1.7-4.1 2.45v.2zm-1.4-6.8q0-1.4-.94-2.16-.9-.75-2.35-.75h-2.84v5.74h3q1.35 0 2.25-.7.9-.75.9-2.15z" style="line-height:125%;-inkscape-font-specification:'Concourse C4, Semi-Bold';text-align:center" font-weight="600" font-family="Concourse C4" letter-spacing="0" word-spacing="0" text-anchor="middle"/><path fill="#fff" d="M184.4 823.5v9.5h-6.5v-25.26h6.5v10.2h.14l8.3-10.2h7.35v.25l-10.4 12.3 11.24 12.44v.25h-7.95l-8.56-9.5h-.15z" style="line-height:125%;-inkscape-font-specification:'Concourse C4, Semi-Bold';text-align:center" font-weight="600" font-family="Concourse C4" letter-spacing="0" word-spacing="0" text-anchor="middle"/><path fill="#fff" d="M212.43 833h-6.5v-25.26h6.5V833z" style="line-height:125%;-inkscape-font-specification:'Concourse C4, Semi-Bold';text-align:center" font-weight="600" font-family="Concourse C4" letter-spacing="0" word-spacing="0" text-anchor="middle"/><path fill="#fff" d="M238.7 822.04h.25v-14.3h6.5V833h-4.15l-13.6-14.36h-.25V833h-6.5v-25.26h4.15l13.6 14.3z" style="line-height:125%;-inkscape-font-specification:'Concourse C4, Semi-Bold';text-align:center" font-weight="600" font-family="Concourse C4" letter-spacing="0" word-spacing="0" text-anchor="middle"/><path fill="#fff" d="M273.52 815.7q-1.45-1.16-3.3-1.96-1.85-.85-4.45-.8-1.3 0-2.55.45-1.25.44-2.2 1.4-.95.94-1.55 2.4-.55 1.4-.55 3.34 0 1.55.5 2.9.55 1.3 1.45 2.3.95.95 2.2 1.5 1.3.55 2.8.55 1.35 0 2.55-.36 1.2-.35 2.05-1v-3.15h-5.55v-5.1h11.05v11.5q-1.75 1.64-4.5 2.74-2.75 1.05-5.7 1.05-2.8 0-5.25-.9-2.45-.96-4.3-2.6-1.85-1.7-2.95-4.06-1.05-2.4-1.05-5.3 0-3.2 1.15-5.65 1.15-2.5 3.05-4.2 1.95-1.76 4.4-2.66 2.45-.9 5.05-.9 1.55 0 3 .3t2.7.75q1.25.44 2.25 1.04 1 .55 1.7 1.05l-1.75 5.3h-.25z" style="line-height:125%;-inkscape-font-specification:'Concourse C4, Semi-Bold';text-align:center" font-weight="600" font-family="Concourse C4" letter-spacing="0" word-spacing="0" text-anchor="middle"/><path fill="#fff" d="M145.05 888.1l1.9 4.84q-1.95 1.5-4.45 2.3-2.5.75-5.3.75-3 0-5.5-1-2.45-1.06-4.2-2.8-1.7-1.76-2.65-4.06-.95-2.35-.95-5 0-3.2 1.15-5.65 1.15-2.5 3.05-4.2 1.95-1.76 4.4-2.66 2.45-.9 5.05-.9 3.05 0 5.45.95 2.45.9 3.95 2.2l-1.95 5h-.2q-1.15-1-3.05-1.76-1.85-.75-4.15-.7-1.35 0-2.6.5-1.25.45-2.25 1.4-.95.95-1.55 2.4-.6 1.4-.6 3.3 0 1.75.55 3.1.55 1.3 1.5 2.25.95.94 2.25 1.44 1.35.45 2.9.45 2.1 0 3.7-.5 1.65-.56 3.3-1.7h.25z" style="line-height:125%;-inkscape-font-specification:'Concourse C4, Semi-Bold';text-align:center" font-weight="600" font-family="Concourse C4" letter-spacing="0" word-spacing="0" text-anchor="middle"/><path fill="#fff" d="M178.93 883q0 2.64-.95 5.04-.95 2.35-2.75 4.15-1.75 1.74-4.25 2.8-2.45 1-5.5 1-2.95 0-5.45-1t-4.3-2.76q-1.8-1.75-2.8-4.1-1-2.4-1-5.15 0-3 1.1-5.46 1.15-2.45 3-4.15 1.9-1.76 4.35-2.7 2.45-.96 5.1-.96 2.6 0 5 .95 2.45.9 4.3 2.6 1.9 1.7 3 4.2 1.15 2.44 1.15 5.5zm-6.65-.1q0-1.66-.55-3-.55-1.4-1.5-2.36-.95-1-2.2-1.55-1.2-.56-2.6-.56-1.3 0-2.55.5-1.2.5-2.15 1.45-.95.94-1.55 2.34-.55 1.35-.55 3.15 0 1.44.45 2.8.45 1.3 1.3 2.34.85 1 2.15 1.65 1.3.6 3.05.6 1.4 0 2.6-.5 1.25-.5 2.15-1.46.9-.95 1.4-2.3.55-1.4.55-3.15z" style="line-height:125%;-inkscape-font-specification:'Concourse C4, Semi-Bold';text-align:center" font-weight="600" font-family="Concourse C4" letter-spacing="0" word-spacing="0" text-anchor="middle"/><path fill="#fff" d="M204.8 879q0 1.3-.5 2.7-.5 1.34-1.7 2.5-1.15 1.14-3.05 1.9-1.9.74-4.75.74h-2.6v8.65h-6.5v-25.26h9.3q2.15 0 3.95.6 1.8.6 3.1 1.75 1.3 1.1 2 2.74.75 1.6.75 3.65zm-6.95-.16q0-1.35-.95-2.3-.95-.95-2.6-.95h-2.1v6.24h2.25q1.5 0 2.45-.75.95-.8.95-2.26z" style="line-height:125%;-inkscape-font-specification:'Concourse C4, Semi-Bold';text-align:center" font-weight="600" font-family="Concourse C4" letter-spacing="0" word-spacing="0" text-anchor="middle"/><path fill="#fff" d="M219.95 879.44h.2l5-9.2h7.15l-9.1 15.35v9.9h-6.5v-9.9l-9.1-15.36h7.15l5.2 9.2z" style="line-height:125%;-inkscape-font-specification:'Concourse C4, Semi-Bold';text-align:center" font-weight="600" font-family="Concourse C4" letter-spacing="0" word-spacing="0" text-anchor="middle"/><path fill="url(#i)" fill-rule="evenodd" stroke="#000" d="M473.53 767.4a5.14 5.15 0 0 1 .04 0 5.14 5.15 0 0 1 .04 0 5.14 5.15 0 0 1 .24.02 5.14 5.15 0 0 1 .24.02 5.14 5.15 0 0 1 .28.04 5.14 5.15 0 0 1 .22.04 5.14 5.15 0 0 1 .26.06 5.14 5.15 0 0 1 .25.07 5.14 5.15 0 0 1 .2.08 5.14 5.15 0 0 1 .27.1 5.14 5.15 0 0 1 .23.1 5.14 5.15 0 0 1 .23.12 5.14 5.15 0 0 1 .23.14 5.14 5.15 0 0 1 .2.13 5.14 5.15 0 0 1 .22.16 5.14 5.15 0 0 1 .2.14 5.14 5.15 0 0 1 .08.08 5.14 5.15 0 0 1 .15.13l83.4 78.43a5.14 5.15 0 0 1 2.28 4.12 5.14 5.15 0 0 1-2.3 4.56L477.6 933.9a5.14 5.15 0 0 1-5.23 1.78 5.14 5.15 0 0 1-.1-.03 5.14 5.15 0 0 1-.33-.1 5.14 5.15 0 0 1-3.5-5.66v-26.13h-104.7a5.14 5.15 0 0 1-5.2-5.57 5.14 5.15 0 0 1-.08-.93v-91.9a5.14 5.15 0 0 1 .02-.42 5.14 5.15 0 0 1 5.2-5.5h104.7v-26.82a5.14 5.15 0 0 1 .02-.2 5.14 5.15 0 0 1 0-.27 5.14 5.15 0 0 1 .04-.26 5.14 5.15 0 0 1 .04-.25 5.14 5.15 0 0 1 .05-.25 5.14 5.15 0 0 1 .06-.26 5.14 5.15 0 0 1 .07-.22 5.14 5.15 0 0 1 .1-.27 5.14 5.15 0 0 1 .08-.2 5.14 5.15 0 0 1 .12-.27 5.14 5.15 0 0 1 .1-.2 5.14 5.15 0 0 1 .16-.24 5.14 5.15 0 0 1 .13-.18 5.14 5.15 0 0 1 .17-.24 5.14 5.15 0 0 1 .16-.17 5.14 5.15 0 0 1 .17-.2 5.14 5.15 0 0 1 .2-.18 5.14 5.15 0 0 1 .18-.18 5.14 5.15 0 0 1 .2-.16 5.14 5.15 0 0 1 .2-.16 5.14 5.15 0 0 1 .22-.12 5.14 5.15 0 0 1 .23-.14 5.14 5.15 0 0 1 .23-.1 5.14 5.15 0 0 1 .24-.12 5.14 5.15 0 0 1 .22-.08 5.14 5.15 0 0 1 .26-.1 5.14 5.15 0 0 1 .22-.05 5.14 5.15 0 0 1 .27-.07 5.14 5.15 0 0 1 .24-.04 5.14 5.15 0 0 1 .26-.03 5.14 5.15 0 0 1 .25-.02 5.14 5.15 0 0 1 .23 0z" stroke-linejoin="bevel"/><path fill="url(#j)" fill-rule="evenodd" stroke="#000" d="M1042.4 767.4a5.14 5.15 0 0 1 .04 0 5.14 5.15 0 0 1 .05 0 5.14 5.15 0 0 1 .2.02 5.14 5.15 0 0 1 .25.02 5.14 5.15 0 0 1 .3.04 5.14 5.15 0 0 1 .2.04 5.14 5.15 0 0 1 .26.06 5.14 5.15 0 0 1 .27.07 5.14 5.15 0 0 1 .2.08 5.14 5.15 0 0 1 .28.1 5.14 5.15 0 0 1 .22.1 5.14 5.15 0 0 1 .23.12 5.14 5.15 0 0 1 .23.14 5.14 5.15 0 0 1 .2.13 5.14 5.15 0 0 1 .23.16 5.14 5.15 0 0 1 .2.14 5.14 5.15 0 0 1 .08.08 5.14 5.15 0 0 1 .14.13l83.4 78.43a5.14 5.15 0 0 1 2.27 4.12 5.14 5.15 0 0 1-2.3 4.56l-82.88 77.94a5.14 5.15 0 0 1-5.22 1.78 5.14 5.15 0 0 1-.1-.03 5.14 5.15 0 0 1-.33-.1 5.14 5.15 0 0 1-3.5-5.66v-26.13h-104.7a5.14 5.15 0 0 1-5.2-5.57 5.14 5.15 0 0 1-.08-.93v-91.9a5.14 5.15 0 0 1 0-.42 5.14 5.15 0 0 1 5.2-5.5h104.73v-26.82a5.14 5.15 0 0 1 0-.2 5.14 5.15 0 0 1 .02-.27 5.14 5.15 0 0 1 .02-.26 5.14 5.15 0 0 1 .03-.25 5.14 5.15 0 0 1 .06-.25 5.14 5.15 0 0 1 .07-.26 5.14 5.15 0 0 1 .07-.22 5.14 5.15 0 0 1 .1-.27 5.14 5.15 0 0 1 .08-.2 5.14 5.15 0 0 1 .13-.27 5.14 5.15 0 0 1 .1-.2 5.14 5.15 0 0 1 .16-.24 5.14 5.15 0 0 1 .13-.18 5.14 5.15 0 0 1 .18-.24 5.14 5.15 0 0 1 .16-.17 5.14 5.15 0 0 1 .2-.2 5.14 5.15 0 0 1 .17-.18 5.14 5.15 0 0 1 .2-.18 5.14 5.15 0 0 1 .2-.16 5.14 5.15 0 0 1 .2-.16 5.14 5.15 0 0 1 .22-.13 5.14 5.15 0 0 1 .23-.13 5.14 5.15 0 0 1 .23-.1 5.14 5.15 0 0 1 .24-.12 5.14 5.15 0 0 1 .23-.08 5.14 5.15 0 0 1 .26-.1 5.14 5.15 0 0 1 .22-.05 5.14 5.15 0 0 1 .28-.07 5.14 5.15 0 0 1 .23-.04 5.14 5.15 0 0 1 .27-.03 5.14 5.15 0 0 1 .26-.02 5.14 5.15 0 0 1 .2 0z" stroke-linejoin="bevel"/><path d="M54.96 631.06h-6.82v3.63h6v2.16h-6v5.78H45.6V628.9h9.36v2.16zm7.1 11.58H59.5V628.9h2.53v13.74z" style="line-height:110.00000238%;-inkscape-font-specification:'Concourse C4, Normal';text-align:center" font-family="Concourse C4" letter-spacing="0" word-spacing="0" text-anchor="middle"/><path d="M70.16 640.46h6.1v2.18h-8.63V628.9h2.53v11.56z" style="line-height:110.00000238%;-inkscape-font-specification:'Concourse C4, Normal';text-align:center" font-family="Concourse C4" letter-spacing="0" word-spacing="0" text-anchor="middle"/><path d="M89.52 631.06h-6.7v3.5h5.87v2.16h-5.87v3.74h6.96v2.18h-9.5V628.9h9.22v2.16z" style="line-height:110.00000238%;-inkscape-font-specification:'Concourse C4, Normal';text-align:center" font-family="Concourse C4" letter-spacing="0" word-spacing="0" text-anchor="middle"/><path d="M94.3 639.23q.87.57 1.92 1.04 1.07.44 2.42.44 1.46 0 2.14-.48.72-.53.72-1.2 0-.8-.8-1.4-.8-.57-2.53-1.25-2.12-.83-3.05-1.7-.94-.9-.94-2.26 0-.68.3-1.37.3-.7.9-1.2.6-.56 1.5-.9.9-.32 2.14-.32 1.57 0 2.73.42 1.15.42 1.87.88l-.64 2.12q-.8-.55-1.84-.88-1.04-.36-2.1-.36-1.23 0-1.83.42-.57.4-.57 1 0 .34.14.65.14.27.5.57.38.28 1 .6.67.3 1.72.75 2.16.9 3.1 1.95.93 1.02.93 2.42 0 .97-.4 1.68-.4.7-1.14 1.16-.73.46-1.72.68-1 .25-2.17.25-1.72 0-3.07-.43-1.32-.47-1.9-1.02l.66-2.22z" style="line-height:110.00000238%;-inkscape-font-specification:'Concourse C4, Normal';text-align:center" font-family="Concourse C4" letter-spacing="0" word-spacing="0" text-anchor="middle"/><path d="M123.55 635.5q.63.12 1.13.43.52.3.88.74.38.44.57 1 .22.54.22 1.14 0 1.83-1.34 2.85-1.3 1-3.68 1h-5.03v-13.76h4.7q1.23 0 2.08.32.88.3 1.4.82.55.5.77 1.13.25.63.25 1.3 0 .98-.44 1.72-.4.74-1.5 1.2v.1zm-4.73 1.14v3.9h2.9q.8 0 1.42-.46.63-.5.63-1.5 0-.92-.63-1.42-.64-.52-1.52-.52h-2.8zm4.1-3.9q0-.88-.53-1.32-.53-.44-1.35-.44h-2.23v3.65h2.25q.94 0 1.38-.5.47-.5.47-1.4z" style="line-height:110.00000238%;-inkscape-font-specification:'Concourse C4, Normal';text-align:center" font-family="Concourse C4" letter-spacing="0" word-spacing="0" text-anchor="middle"/><path d="M139.8 631.06h-6.7v3.5h5.86v2.16h-5.85v3.74h6.96v2.18h-9.48V628.9h9.2v2.16z" style="line-height:110.00000238%;-inkscape-font-specification:'Concourse C4, Normal';text-align:center" font-family="Concourse C4" letter-spacing="0" word-spacing="0" text-anchor="middle"/><path d="M147.83 642.64h-2.53V628.9h2.53v13.74z" style="line-height:110.00000238%;-inkscape-font-specification:'Concourse C4, Normal';text-align:center" font-family="Concourse C4" letter-spacing="0" word-spacing="0" text-anchor="middle"/><path d="M163.4 637.82h.23v-8.93h2.53v13.87h-.82l-9.2-9.04h-.2v8.9h-2.54v-13.88h.83l9.18 9.07z" style="line-height:110.00000238%;-inkscape-font-specification:'Concourse C4, Normal';text-align:center" font-family="Concourse C4" letter-spacing="0" word-spacing="0" text-anchor="middle"/><path d="M183.3 641.23q-.96.72-2.47 1.2-1.5.48-3.13.48t-3-.54q-1.35-.55-2.34-1.48-.96-.97-1.5-2.23-.53-1.27-.53-2.72 0-1.74.6-3.08.63-1.35 1.65-2.3 1.05-.95 2.4-1.44 1.34-.5 2.77-.5.77 0 1.5.15.7.14 1.3.36.64.2 1.13.47.5.25.83.5l-.73 2.28q-.22-.16-.6-.4-.4-.26-.92-.48-.5-.25-1.15-.4-.66-.18-1.4-.18-.88 0-1.76.3-.86.27-1.54.88-.7.6-1.1 1.54-.42.93-.42 2.25 0 1.05.36 1.93.4.85 1.02 1.48.66.63 1.54 1 .9.35 1.95.35.88 0 1.65-.17.77-.2 1.32-.55v-2.8h-3.5v-2.16h6.1v6.3z" style="line-height:110.00000238%;-inkscape-font-specification:'Concourse C4, Normal';text-align:center" font-family="Concourse C4" letter-spacing="0" word-spacing="0" text-anchor="middle"/><path d="M207.77 634.88l-4.3 7.9h-.23l-4.32-7.9h-.08l-1.1 7.76h-2.56l2.2-13.9h.55l5.47 9.83h.08l5.28-9.82h.55l2.2 13.9h-2.54l-1.1-7.77h-.1z" style="line-height:110.00000238%;-inkscape-font-specification:'Concourse C4, Normal';text-align:center" font-family="Concourse C4" letter-spacing="0" word-spacing="0" text-anchor="middle"/><path d="M229.8 635.93q0 1.37-.54 2.64-.55 1.26-1.54 2.22-.97.96-2.3 1.53-1.33.58-2.93.58-1.58 0-2.92-.5-1.35-.56-2.34-1.5-1-.96-1.57-2.22-.55-1.27-.55-2.75 0-1.65.6-3 .6-1.38 1.63-2.3 1.02-.97 2.34-1.5 1.33-.52 2.8-.52 1.42 0 2.74.53 1.32.5 2.34 1.46 1.02.93 1.62 2.3.6 1.35.6 3.03zm-2.58-.06q0-1.1-.38-2-.36-.94-1.02-1.6-.63-.66-1.5-1.02t-1.86-.36q-.93 0-1.78.32-.86.33-1.52.97-.66.62-1.07 1.55-.4.9-.4 2.12 0 .9.3 1.8.34.84.94 1.5.64.66 1.54 1.07.9.4 2.07.4 1.07 0 1.92-.4.85-.4 1.46-1.07.63-.66.96-1.5.32-.9.32-1.8z" style="line-height:110.00000238%;-inkscape-font-specification:'Concourse C4, Normal';text-align:center" font-family="Concourse C4" letter-spacing="0" word-spacing="0" text-anchor="middle"/><path d="M238.67 640.46q2.15 0 3.33-1.26 1.18-1.3 1.18-3.6 0-1.02-.4-1.85-.42-.85-1.08-1.43-.63-.6-1.46-.93-.8-.34-1.6-.34h-2.14v9.4h2.17zm-4.7 2.18V628.9h4.57q1.5 0 2.83.48 1.32.5 2.28 1.4 1 .88 1.54 2.12.57 1.24.57 2.75 0 1.7-.55 3-.52 1.3-1.5 2.2-.95.88-2.27 1.35-1.32.44-2.9.44h-4.58z" style="line-height:110.00000238%;-inkscape-font-specification:'Concourse C4, Normal';text-align:center" font-family="Concourse C4" letter-spacing="0" word-spacing="0" text-anchor="middle"/><path d="M252.9 642.64h-2.54V628.9h2.53v13.74z" style="line-height:110.00000238%;-inkscape-font-specification:'Concourse C4, Normal';text-align:center" font-family="Concourse C4" letter-spacing="0" word-spacing="0" text-anchor="middle"/><path d="M267.8 631.06H261v3.63h6v2.16h-6v5.78h-2.54V628.9h9.35v2.16zm7.1 11.58h-2.52V628.9h2.53v13.74z" style="line-height:110.00000238%;-inkscape-font-specification:'Concourse C4, Normal';text-align:center" font-family="Concourse C4" letter-spacing="0" word-spacing="0" text-anchor="middle"/><path d="M289.7 631.06H283v3.5h5.87v2.16H283v3.74h6.97v2.18h-9.5V628.9h9.23v2.16z" style="line-height:110.00000238%;-inkscape-font-specification:'Concourse C4, Normal';text-align:center" font-family="Concourse C4" letter-spacing="0" word-spacing="0" text-anchor="middle"/><path d="M299.47 640.46q2.15 0 3.33-1.26 1.18-1.3 1.18-3.6 0-1.02-.4-1.85-.42-.85-1.08-1.43-.63-.6-1.46-.93-.8-.34-1.6-.34h-2.14v9.4h2.17zm-4.7 2.18V628.9h4.57q1.5 0 2.83.48 1.32.5 2.28 1.4 1 .88 1.54 2.12.57 1.24.57 2.75 0 1.7-.55 3-.52 1.3-1.5 2.2-.95.88-2.27 1.35-1.32.44-2.9.44h-4.58z" style="line-height:110.00000238%;-inkscape-font-specification:'Concourse C4, Normal';text-align:center" font-family="Concourse C4" letter-spacing="0" word-spacing="0" text-anchor="middle"/><path d="M649.64 541.46q-.22-.16-.6-.38-.36-.22-.9-.44-.48-.22-1.14-.36-.66-.14-1.43-.14-.88 0-1.76.3-.84.28-1.53.9-.7.6-1.1 1.53-.4.93-.4 2.25 0 1.05.34 1.93.4.85 1.03 1.48.66.63 1.54 1 .9.35 1.95.35 1.27 0 2.3-.47 1.1-.46 1.75-.98l.96 2.06q-.94.7-2.28 1.2-1.32.48-2.78.48-1.62 0-3-.55-1.35-.54-2.34-1.47-.96-.97-1.5-2.23-.53-1.27-.53-2.72 0-1.74.6-3.08.64-1.35 1.65-2.3 1.05-.95 2.4-1.44 1.34-.5 2.77-.5 1.6 0 2.86.5 1.3.46 1.98.96l-.82 2.14z" style="line-height:110.00000238%;-inkscape-font-specification:'Concourse C4, Normal';text-align:center" font-family="Concourse C4" letter-spacing="0" word-spacing="0" text-anchor="middle"/><path d="M668.3 545.18q0 1.37-.55 2.64-.55 1.26-1.54 2.22-.95.97-2.3 1.54-1.32.58-2.92.58-1.56 0-2.9-.52-1.36-.55-2.35-1.5-1-.95-1.57-2.2-.55-1.28-.55-2.76 0-1.65.62-3 .6-1.38 1.62-2.3 1.02-.97 2.34-1.5 1.35-.52 2.8-.52 1.43 0 2.75.52 1.32.5 2.34 1.46 1.02.94 1.62 2.3.6 1.36.6 3.04zm-2.6-.06q0-1.1-.37-2-.36-.94-1.02-1.6-.62-.66-1.5-1.02-.85-.36-1.84-.36-.94 0-1.8.33-.84.33-1.5.97-.66.63-1.08 1.56-.38.9-.38 2.12 0 .9.3 1.8.33.84.94 1.5.63.66 1.54 1.07.9.38 2.06.38 1.07 0 1.92-.4.86-.4 1.46-1.06.63-.66.96-1.5.33-.9.33-1.8z" style="line-height:110.00000238%;-inkscape-font-specification:'Concourse C4, Normal';text-align:center" font-family="Concourse C4" letter-spacing="0" word-spacing="0" text-anchor="middle"/><path d="M675 549.7h6.1v2.2h-8.64v-13.76H675v11.57z" style="line-height:110.00000238%;-inkscape-font-specification:'Concourse C4, Normal';text-align:center" font-family="Concourse C4" letter-spacing="0" word-spacing="0" text-anchor="middle"/><path d="M687.67 549.7h6.1v2.2h-8.63v-13.76h2.53v11.57z" style="line-height:110.00000238%;-inkscape-font-specification:'Concourse C4, Normal';text-align:center" font-family="Concourse C4" letter-spacing="0" word-spacing="0" text-anchor="middle"/><path d="M707.03 540.3h-6.7v3.5h5.87v2.17h-5.86v3.74h6.96v2.2h-9.5v-13.76h9.23v2.17z" style="line-height:110.00000238%;-inkscape-font-specification:'Concourse C4, Normal';text-align:center" font-family="Concourse C4" letter-spacing="0" word-spacing="0" text-anchor="middle"/><path d="M722.58 541.46q-.22-.16-.6-.38-.36-.22-.9-.44-.48-.22-1.14-.36-.66-.14-1.43-.14-.87 0-1.75.3-.85.28-1.54.9-.68.6-1.1 1.53-.4.93-.4 2.25 0 1.05.35 1.93.4.85 1.02 1.48.66.63 1.54 1 .92.35 1.96.35 1.27 0 2.3-.47 1.1-.46 1.75-.98l.97 2.06q-.94.7-2.28 1.2-1.33.48-2.8.48-1.6 0-3-.55-1.34-.54-2.33-1.47-.96-.97-1.5-2.23-.53-1.27-.53-2.72 0-1.74.6-3.08.64-1.35 1.65-2.3 1.04-.95 2.4-1.44 1.33-.5 2.76-.5 1.6 0 2.86.5 1.3.46 1.98.96l-.82 2.14z" style="line-height:110.00000238%;-inkscape-font-specification:'Concourse C4, Normal';text-align:center" font-family="Concourse C4" letter-spacing="0" word-spacing="0" text-anchor="middle"/><path d="M733.76 540.3v11.6h-2.53v-11.6h-4.68v-2.16h11.94v2.17h-4.74z" style="line-height:110.00000238%;-inkscape-font-specification:'Concourse C4, Normal';text-align:center" font-family="Concourse C4" letter-spacing="0" word-spacing="0" text-anchor="middle"/><path d="M745.63 551.9h-2.53v-13.76h2.53v13.75z" style="line-height:110.00000238%;-inkscape-font-specification:'Concourse C4, Normal';text-align:center" font-family="Concourse C4" letter-spacing="0" word-spacing="0" text-anchor="middle"/><path d="M764.92 545.18q0 1.37-.55 2.64-.55 1.26-1.54 2.22-.96.97-2.3 1.54-1.33.58-2.92.58-1.56 0-2.9-.52-1.35-.55-2.34-1.5-1-.95-1.57-2.2-.56-1.28-.56-2.76 0-1.65.6-3 .6-1.38 1.63-2.3 1-.97 2.33-1.5 1.35-.52 2.8-.52 1.44 0 2.76.52 1.32.5 2.34 1.46 1 .94 1.62 2.3.6 1.36.6 3.04zm-2.58-.06q0-1.1-.4-2-.34-.94-1-1.6-.64-.66-1.52-1.02-.85-.36-1.84-.36-.93 0-1.8.33-.84.33-1.5.97-.66.63-1.07 1.56-.38.9-.38 2.12 0 .9.3 1.8.34.84.94 1.5.63.66 1.54 1.07.9.38 2.06.38 1.08 0 1.93-.4.84-.4 1.45-1.06.63-.66.96-1.5.34-.9.34-1.8z" style="line-height:110.00000238%;-inkscape-font-specification:'Concourse C4, Normal';text-align:center" font-family="Concourse C4" letter-spacing="0" word-spacing="0" text-anchor="middle"/><path d="M779.1 547.07h.22v-8.93h2.53v13.88h-.83l-9.18-9.04h-.22v8.9h-2.53V538h.8l9.2 9.07z" style="line-height:110.00000238%;-inkscape-font-specification:'Concourse C4, Normal';text-align:center" font-family="Concourse C4" letter-spacing="0" word-spacing="0" text-anchor="middle"/><path d="M802.23 548.92h-5.7l-1.3 2.97h-2.63l6.5-13.9h.54l6.55 13.9h-2.62l-1.35-2.98zm-4.8-2.12h3.86l-1.85-4.13h-.2l-1.8 4.13z" style="line-height:110.00000238%;-inkscape-font-specification:'Concourse C4, Normal';text-align:center" font-family="Concourse C4" letter-spacing="0" word-spacing="0" text-anchor="middle"/><path d="M819.95 542.34q0 1.6-.85 2.64-.83 1.02-2.4 1.38l4.5 5.17v.36h-2.87l-4.4-5.3h-1.6v5.3h-2.53v-13.76h5.3q1.08 0 1.96.3.88.3 1.5.88.67.55 1.03 1.32.35.77.35 1.7zm-2.6-.02q0-1.1-.65-1.63-.66-.53-1.7-.53h-2.67v4.43h2.6q1.17 0 1.8-.58.63-.6.63-1.7z" style="line-height:110.00000238%;-inkscape-font-specification:'Concourse C4, Normal';text-align:center" font-family="Concourse C4" letter-spacing="0" word-spacing="0" text-anchor="middle"/><path d="M834.43 540.3h-6.68v3.5h5.85v2.17h-5.85v3.74h6.95v2.2h-9.48v-13.76h9.2v2.17z" style="line-height:110.00000238%;-inkscape-font-specification:'Concourse C4, Normal';text-align:center" font-family="Concourse C4" letter-spacing="0" word-spacing="0" text-anchor="middle"/><path d="M847.62 548.92h-5.7l-1.3 2.97H838l6.48-13.9h.55l6.55 13.9h-2.62l-1.34-2.98zm-4.8-2.12h3.86l-1.84-4.13h-.2l-1.8 4.13z" style="line-height:110.00000238%;-inkscape-font-specification:'Concourse C4, Normal';text-align:center" font-family="Concourse C4" letter-spacing="0" word-spacing="0" text-anchor="middle"/><path d="M658.18 570.56h-6.82v3.63h6v2.16h-6v5.78h-2.53V568.4h9.35v2.16z" style="line-height:110.00000238%;-inkscape-font-specification:'Concourse C4, Normal';text-align:center" font-family="Concourse C4" letter-spacing="0" word-spacing="0" text-anchor="middle"/><path d="M676.03 575.43q0 1.37-.55 2.64-.55 1.26-1.54 2.22-.96.96-2.3 1.53-1.33.58-2.92.58-1.57 0-2.92-.5-1.34-.56-2.33-1.5-1-.96-1.57-2.22-.55-1.27-.55-2.75 0-1.65.6-3 .6-1.38 1.63-2.3 1-.97 2.33-1.5 1.36-.52 2.82-.52 1.43 0 2.75.53 1.32.5 2.34 1.46 1.02.93 1.63 2.3.6 1.35.6 3.03zm-2.58-.06q0-1.1-.4-2-.34-.94-1-1.6-.64-.66-1.52-1.02-.85-.36-1.84-.36-.94 0-1.8.32-.85.33-1.5.97-.67.62-1.08 1.55-.4.9-.4 2.12 0 .9.32 1.8.33.84.93 1.5.63.66 1.54 1.07.92.4 2.07.4 1.08 0 1.93-.4.85-.4 1.46-1.07.63-.66.96-1.5.33-.9.33-1.8z" style="line-height:110.00000238%;-inkscape-font-specification:'Concourse C4, Normal';text-align:center" font-family="Concourse C4" letter-spacing="0" word-spacing="0" text-anchor="middle"/><path d="M690.34 572.6q0 1.6-.85 2.63-.83 1.02-2.4 1.38l4.48 5.18v.36h-2.86l-4.4-5.28h-1.6v5.28h-2.52V568.4h5.3q1.08 0 1.96.3.88.3 1.5.87.67.55 1.03 1.32.34.76.34 1.7zm-2.58-.03q0-1.1-.66-1.63-.66-.52-1.7-.52h-2.67v4.43h2.6q1.16 0 1.8-.58.63-.6.63-1.7z" style="line-height:110.00000238%;-inkscape-font-specification:'Concourse C4, Normal';text-align:center" font-family="Concourse C4" letter-spacing="0" word-spacing="0" text-anchor="middle"/><path d="M712.64 570.56h-6.82v3.63h6v2.16h-6v5.78h-2.53V568.4h9.34v2.16zm7.1 11.58h-2.53V568.4h2.54v13.74z" style="line-height:110.00000238%;-inkscape-font-specification:'Concourse C4, Normal';text-align:center" font-family="Concourse C4" letter-spacing="0" word-spacing="0" text-anchor="middle"/><path d="M727.84 579.96h6.1v2.18h-8.63V568.4h2.54v11.56z" style="line-height:110.00000238%;-inkscape-font-specification:'Concourse C4, Normal';text-align:center" font-family="Concourse C4" letter-spacing="0" word-spacing="0" text-anchor="middle"/><path d="M747.2 570.56h-6.68v3.5h5.86v2.16h-5.86v3.74h6.96v2.18h-9.5V568.4h9.22v2.16z" style="line-height:110.00000238%;-inkscape-font-specification:'Concourse C4, Normal';text-align:center" font-family="Concourse C4" letter-spacing="0" word-spacing="0" text-anchor="middle"/><path d="M751.98 578.73q.88.57 1.93 1.04 1.08.44 2.43.44 1.45 0 2.14-.48.72-.53.72-1.2 0-.8-.8-1.4-.8-.57-2.54-1.25-2.12-.83-3.05-1.7-.93-.9-.93-2.26 0-.68.3-1.37.3-.7.88-1.2.6-.56 1.52-.9.9-.32 2.14-.32 1.58 0 2.73.42 1.16.42 1.87.88l-.63 2.12q-.8-.55-1.84-.88-1.05-.36-2.1-.36-1.23 0-1.83.42-.58.4-.58 1 0 .34.14.65.13.27.5.57.38.28 1 .6.67.3 1.7.75 2.2.9 3.12 1.95.94 1.02.94 2.42 0 .97-.42 1.68-.38.7-1.12 1.16-.72.46-1.7.68-1 .25-2.18.25-1.73 0-3.08-.43-1.32-.47-1.9-1.02l.66-2.22z" style="line-height:110.00000238%;-inkscape-font-specification:'Concourse C4, Normal';text-align:center" font-family="Concourse C4" letter-spacing="0" word-spacing="0" text-anchor="middle"/><path d="M783.85 572.73q0 .72-.28 1.5-.24.76-.85 1.42-.58.63-1.57 1.07-.96.4-2.4.4h-2.24v5.02H774V568.4H779q1.08 0 1.96.3.88.3 1.5.87.67.55 1.03 1.37.35.8.35 1.8zm-2.6-.03q0-1.15-.65-1.67-.66-.55-1.7-.55h-2.4v4.56h2.34q1.16 0 1.8-.58.62-.6.62-1.76z" style="line-height:110.00000238%;-inkscape-font-specification:'Concourse C4, Normal';text-align:center" font-family="Concourse C4" letter-spacing="0" word-spacing="0" text-anchor="middle"/><path d="M798.14 572.6q0 1.6-.85 2.63-.84 1.02-2.4 1.38l4.48 5.18v.36h-2.86l-4.4-5.28h-1.6v5.28H788V568.4h5.3q1.07 0 1.95.3.88.3 1.52.87.66.55 1 1.32.37.76.37 1.7zm-2.58-.03q0-1.1-.66-1.63-.66-.52-1.7-.52h-2.68v4.43h2.62q1.15 0 1.78-.58.64-.6.64-1.7z" style="line-height:110.00000238%;-inkscape-font-specification:'Concourse C4, Normal';text-align:center" font-family="Concourse C4" letter-spacing="0" word-spacing="0" text-anchor="middle"/><path d="M806.1 582.14h-2.52V568.4h2.53v13.74z" style="line-height:110.00000238%;-inkscape-font-specification:'Concourse C4, Normal';text-align:center" font-family="Concourse C4" letter-spacing="0" word-spacing="0" text-anchor="middle"/><path d="M825.4 575.43q0 1.37-.55 2.64-.55 1.26-1.54 2.22-.95.96-2.3 1.53-1.32.58-2.9.58-1.58 0-2.93-.5-1.34-.56-2.33-1.5-1-.96-1.57-2.22-.55-1.27-.55-2.75 0-1.65.6-3 .6-1.38 1.63-2.3 1-.97 2.33-1.5 1.35-.52 2.8-.52 1.44 0 2.76.53 1.32.5 2.34 1.46 1 .93 1.62 2.3.6 1.35.6 3.03zm-2.58-.06q0-1.1-.4-2-.34-.94-1-1.6-.64-.66-1.52-1.02-.85-.36-1.84-.36-.93 0-1.8.32-.84.33-1.5.97-.66.62-1.07 1.55-.4.9-.4 2.12 0 .9.3 1.8.34.84.94 1.5.63.66 1.54 1.07.9.4 2.06.4 1.08 0 1.93-.4.85-.4 1.46-1.07.63-.66.96-1.5.32-.9.32-1.8z" style="line-height:110.00000238%;-inkscape-font-specification:'Concourse C4, Normal';text-align:center" font-family="Concourse C4" letter-spacing="0" word-spacing="0" text-anchor="middle"/><path d="M839.7 572.6q0 1.6-.84 2.63-.82 1.02-2.4 1.38l4.5 5.18v.36h-2.87l-4.4-5.28h-1.6v5.28h-2.53V568.4h5.3q1.08 0 1.96.3.88.3 1.5.87.67.55 1.03 1.32.35.76.35 1.7zm-2.57-.03q0-1.1-.66-1.63-.66-.52-1.7-.52h-2.67v4.43h2.6q1.16 0 1.8-.58.63-.6.63-1.7z" style="line-height:110.00000238%;-inkscape-font-specification:'Concourse C4, Normal';text-align:center" font-family="Concourse C4" letter-spacing="0" word-spacing="0" text-anchor="middle"/><path d="M662.54 600.8v11.6H660v-11.6h-4.67v-2.16h11.94v2.17h-4.73z" style="line-height:110.00000238%;-inkscape-font-specification:'Concourse C4, Normal';text-align:center" font-family="Concourse C4" letter-spacing="0" word-spacing="0" text-anchor="middle"/><path d="M684.63 605.68q0 1.37-.55 2.64-.55 1.26-1.54 2.22-.97.97-2.3 1.54-1.33.58-2.93.58-1.56 0-2.9-.52-1.35-.55-2.34-1.5-1-.95-1.57-2.2-.56-1.28-.56-2.76 0-1.65.6-3 .6-1.38 1.63-2.3 1.02-.97 2.34-1.5 1.35-.52 2.8-.52 1.44 0 2.76.52 1.32.5 2.34 1.46 1.02.94 1.62 2.3.6 1.36.6 3.04zm-2.6-.06q0-1.1-.37-2-.36-.94-1.02-1.6-.63-.66-1.5-1.02t-1.86-.36q-.93 0-1.78.33-.86.33-1.52.97-.66.63-1.07 1.56-.37.9-.37 2.12 0 .9.3 1.8.33.84.93 1.5.64.66 1.54 1.07.9.38 2.07.38 1.07 0 1.92-.4.84-.4 1.45-1.06.63-.66.96-1.5.34-.9.34-1.8z" style="line-height:110.00000238%;-inkscape-font-specification:'Concourse C4, Normal';text-align:center" font-family="Concourse C4" letter-spacing="0" word-spacing="0" text-anchor="middle"/><path d="M703.73 605.26q.63.1 1.13.42.52.3.88.74.38.44.58 1 .22.54.22 1.14 0 1.82-1.35 2.84-1.33 1-3.7 1h-5.03v-13.76h4.7q1.24 0 2.1.33.87.3 1.4.82.55.5.77 1.12.24.63.24 1.3 0 .98-.44 1.72-.4.75-1.5 1.2v.12zM699 606.4v3.9h2.92q.8 0 1.4-.47.63-.5.63-1.5 0-.92-.63-1.42-.63-.5-1.5-.5H699zm4.1-3.9q0-.9-.52-1.33-.53-.44-1.35-.44H699v3.65h2.26q.93 0 1.37-.5.47-.5.47-1.4z" style="line-height:110.00000238%;-inkscape-font-specification:'Concourse C4, Normal';text-align:center" font-family="Concourse C4" letter-spacing="0" word-spacing="0" text-anchor="middle"/><path d="M719.97 600.8h-6.68v3.5h5.85v2.17h-5.86v3.74h6.95v2.2h-9.5v-13.76h9.22v2.17z" style="line-height:110.00000238%;-inkscape-font-specification:'Concourse C4, Normal';text-align:center" font-family="Concourse C4" letter-spacing="0" word-spacing="0" text-anchor="middle"/><path d="M728 612.4h-2.52v-13.76H728v13.75z" style="line-height:110.00000238%;-inkscape-font-specification:'Concourse C4, Normal';text-align:center" font-family="Concourse C4" letter-spacing="0" word-spacing="0" text-anchor="middle"/><path d="M743.6 607.57h.2v-8.93h2.54v13.88h-.82l-9.2-9.04h-.2v8.9h-2.54V598.5h.83l9.2 9.07z" style="line-height:110.00000238%;-inkscape-font-specification:'Concourse C4, Normal';text-align:center" font-family="Concourse C4" letter-spacing="0" word-spacing="0" text-anchor="middle"/><path d="M763.5 610.98q-.97.72-2.5 1.2-1.5.48-3.12.48t-3-.55q-1.35-.54-2.34-1.47-.96-.97-1.5-2.23-.53-1.27-.53-2.72 0-1.74.6-3.08.65-1.35 1.66-2.3 1.05-.95 2.4-1.44 1.34-.5 2.77-.5.77 0 1.5.14.7.14 1.3.36.64.2 1.14.46.5.25.82.5l-.75 2.28q-.22-.16-.6-.4-.4-.26-.9-.48-.5-.25-1.17-.4-.66-.18-1.4-.18-.88 0-1.76.3-.85.28-1.54.9-.7.6-1.1 1.53-.4.93-.4 2.25 0 1.05.34 1.93.4.85 1.02 1.48.66.63 1.54 1 .9.35 1.95.35.88 0 1.65-.17.77-.18 1.32-.54v-2.8h-3.5v-2.17h6.1v6.28z" style="line-height:110.00000238%;-inkscape-font-specification:'Concourse C4, Normal';text-align:center" font-family="Concourse C4" letter-spacing="0" word-spacing="0" text-anchor="middle"/><path d="M775.88 608.98q.88.57 1.93 1.04 1.08.44 2.43.44 1.45 0 2.14-.5.72-.52.72-1.18 0-.82-.8-1.4t-2.54-1.26q-2.12-.83-3.05-1.7-.93-.9-.93-2.26 0-.7.3-1.38.3-.7.88-1.2.6-.56 1.52-.9.9-.32 2.14-.32 1.58 0 2.73.4 1.16.43 1.87.9l-.63 2.1q-.8-.54-1.84-.87-1.05-.37-2.1-.37-1.23 0-1.83.42-.58.4-.58 1 0 .34.14.65.13.27.5.57.38.28 1 .6.67.3 1.7.75 2.2.9 3.12 1.95.94 1.02.94 2.42 0 .96-.42 1.67-.38.7-1.12 1.16-.72.46-1.7.68-1 .26-2.18.26-1.73 0-3.08-.44-1.32-.47-1.9-1.02l.66-2.22z" style="line-height:110.00000238%;-inkscape-font-specification:'Concourse C4, Normal';text-align:center" font-family="Concourse C4" letter-spacing="0" word-spacing="0" text-anchor="middle"/><path d="M799.4 600.8h-6.67v3.5h5.85v2.17h-5.85v3.74h6.95v2.2h-9.48v-13.76h9.2v2.17z" style="line-height:110.00000238%;-inkscape-font-specification:'Concourse C4, Normal';text-align:center" font-family="Concourse C4" letter-spacing="0" word-spacing="0" text-anchor="middle"/><path d="M814.5 607.57h.2v-8.93h2.54v13.88h-.82l-9.2-9.04h-.2v8.9h-2.54V598.5h.83l9.2 9.07z" style="line-height:110.00000238%;-inkscape-font-specification:'Concourse C4, Normal';text-align:center" font-family="Concourse C4" letter-spacing="0" word-spacing="0" text-anchor="middle"/><path d="M828.6 600.8v11.6h-2.52v-11.6h-4.67v-2.16h11.94v2.17h-4.73z" style="line-height:110.00000238%;-inkscape-font-specification:'Concourse C4, Normal';text-align:center" font-family="Concourse C4" letter-spacing="0" word-spacing="0" text-anchor="middle"/><path d="M659.88 631.06v11.58h-2.53v-11.58h-4.68v-2.17h11.94v2.16h-4.72z" style="line-height:110.00000238%;-inkscape-font-specification:'Concourse C4, Normal';text-align:center" font-family="Concourse C4" letter-spacing="0" word-spacing="0" text-anchor="middle"/><path d="M681.97 635.93q0 1.37-.55 2.64-.55 1.26-1.54 2.22-.96.96-2.3 1.53-1.33.58-2.93.58-1.56 0-2.9-.5-1.36-.56-2.35-1.5-1-.96-1.57-2.22-.55-1.27-.55-2.75 0-1.65.6-3 .6-1.38 1.63-2.3 1.03-.97 2.35-1.5 1.35-.52 2.8-.52 1.43 0 2.75.53 1.32.5 2.34 1.46 1.02.93 1.62 2.3.6 1.35.6 3.03zm-2.6-.06q0-1.1-.37-2-.36-.94-1.02-1.6-.63-.66-1.5-1.02-.86-.36-1.85-.36-.94 0-1.8.32-.84.33-1.5.97-.66.62-1.08 1.55-.38.9-.38 2.12 0 .9.3 1.8.33.84.94 1.5.64.66 1.55 1.07.9.4 2.06.4 1.08 0 1.93-.4.86-.4 1.46-1.07.62-.66.95-1.5.33-.9.33-1.8z" style="line-height:110.00000238%;-inkscape-font-specification:'Concourse C4, Normal';text-align:center" font-family="Concourse C4" letter-spacing="0" word-spacing="0" text-anchor="middle"/><path d="M703.96 633.1q0 1.6-.85 2.63-.82 1.02-2.4 1.38l4.5 5.18v.36h-2.86l-4.4-5.28h-1.6v5.28h-2.53V628.9h5.32q1.07 0 1.95.3.88.3 1.5.87.67.55 1.03 1.32.36.76.36 1.7zm-2.6-.03q0-1.1-.65-1.63-.65-.52-1.7-.52h-2.66v4.43h2.6q1.17 0 1.8-.58.63-.6.63-1.7z" style="line-height:110.00000238%;-inkscape-font-specification:'Concourse C4, Normal';text-align:center" font-family="Concourse C4" letter-spacing="0" word-spacing="0" text-anchor="middle"/><path d="M718.44 631.06h-6.68v3.5h5.85v2.16h-5.84v3.74h6.95v2.18h-9.47V628.9h9.2v2.16z" style="line-height:110.00000238%;-inkscape-font-specification:'Concourse C4, Normal';text-align:center" font-family="Concourse C4" letter-spacing="0" word-spacing="0" text-anchor="middle"/><path d="M733.4 633.23q0 .72-.3 1.5-.24.76-.84 1.42-.58.63-1.57 1.07-.97.4-2.4.4h-2.26v5.02h-2.53V628.9h5.05q1.07 0 1.95.3.88.3 1.5.87.67.55 1.03 1.37.36.8.36 1.8zm-2.6-.03q0-1.15-.66-1.67-.66-.55-1.7-.55h-2.4v4.56h2.34q1.16 0 1.8-.58.62-.6.62-1.76z" style="line-height:110.00000238%;-inkscape-font-specification:'Concourse C4, Normal';text-align:center" font-family="Concourse C4" letter-spacing="0" word-spacing="0" text-anchor="middle"/><path d="M751.25 635.93q0 1.37-.55 2.64-.55 1.26-1.54 2.22-.96.96-2.3 1.53-1.32.58-2.92.58-1.57 0-2.9-.5-1.36-.56-2.35-1.5-1-.96-1.58-2.22-.55-1.27-.55-2.75 0-1.65.6-3 .6-1.38 1.63-2.3 1.02-.97 2.34-1.5 1.34-.52 2.8-.52 1.43 0 2.75.53 1.3.5 2.33 1.46 1.02.93 1.62 2.3.6 1.35.6 3.03zm-2.58-.06q0-1.1-.39-2-.35-.94-1-1.6-.65-.66-1.53-1.02-.85-.36-1.84-.36-.92 0-1.78.32-.85.33-1.5.97-.67.62-1.08 1.55-.4.9-.4 2.12 0 .9.32 1.8.33.84.93 1.5.62.66 1.53 1.07.9.4 2.06.4 1.07 0 1.92-.4.85-.4 1.46-1.07.63-.66.96-1.5.33-.9.33-1.8z" style="line-height:110.00000238%;-inkscape-font-specification:'Concourse C4, Normal';text-align:center" font-family="Concourse C4" letter-spacing="0" word-spacing="0" text-anchor="middle"/><path d="M755.4 639.23q.87.57 1.92 1.04 1.07.44 2.42.44 1.45 0 2.14-.48.72-.53.72-1.2 0-.8-.8-1.4-.8-.57-2.53-1.25-2.12-.83-3.05-1.7-.94-.9-.94-2.26 0-.68.3-1.37.3-.7.88-1.2.6-.56 1.52-.9.9-.32 2.14-.32 1.57 0 2.72.42 1.16.42 1.87.88l-.62 2.12q-.8-.55-1.84-.88-1.05-.36-2.1-.36-1.23 0-1.83.42-.57.4-.57 1 0 .34.14.65.13.27.5.57.38.28 1 .6.67.3 1.7.75 2.2.9 3.12 1.95.93 1.02.93 2.42 0 .97-.42 1.68-.37.7-1.1 1.16-.73.46-1.72.68-1 .25-2.17.25-1.72 0-3.07-.43-1.32-.47-1.9-1.02l.66-2.22z" style="line-height:110.00000238%;-inkscape-font-specification:'Concourse C4, Normal';text-align:center" font-family="Concourse C4" letter-spacing="0" word-spacing="0" text-anchor="middle"/><path d="M772.68 642.64h-2.53V628.9h2.53v13.74z" style="line-height:110.00000238%;-inkscape-font-specification:'Concourse C4, Normal';text-align:center" font-family="Concourse C4" letter-spacing="0" word-spacing="0" text-anchor="middle"/><path d="M784.5 631.06v11.58h-2.54v-11.58h-4.68v-2.17h11.94v2.16h-4.73z" style="line-height:110.00000238%;-inkscape-font-specification:'Concourse C4, Normal';text-align:center" font-family="Concourse C4" letter-spacing="0" word-spacing="0" text-anchor="middle"/><path d="M806.58 635.93q0 1.37-.55 2.64-.55 1.26-1.54 2.22-.98.96-2.32 1.53-1.32.58-2.92.58-1.57 0-2.9-.5-1.36-.56-2.35-1.5-.98-.96-1.56-2.22-.55-1.27-.55-2.75 0-1.65.6-3 .6-1.38 1.62-2.3 1.02-.97 2.34-1.5 1.34-.52 2.8-.52 1.43 0 2.75.53 1.33.5 2.35 1.46 1.02.93 1.62 2.3.6 1.35.6 3.03zm-2.6-.06q0-1.1-.37-2-.35-.94-1-1.6-.64-.66-1.52-1.02-.86-.36-1.85-.36-.93 0-1.78.32-.86.33-1.52.97-.66.62-1.07 1.55-.38.9-.38 2.12 0 .9.3 1.8.33.84.93 1.5.65.66 1.55 1.07.9.4 2.07.4 1.07 0 1.92-.4.85-.4 1.46-1.07.63-.66.96-1.5.33-.9.33-1.8z" style="line-height:110.00000238%;-inkscape-font-specification:'Concourse C4, Normal';text-align:center" font-family="Concourse C4" letter-spacing="0" word-spacing="0" text-anchor="middle"/><path d="M820.9 633.1q0 1.6-.86 2.63-.83 1.02-2.4 1.38l4.5 5.18v.36h-2.87l-4.4-5.28h-1.6v5.28h-2.53V628.9h5.3q1.08 0 1.96.3.88.3 1.5.87.67.55 1.03 1.32.36.76.36 1.7zm-2.6-.03q0-1.1-.66-1.63-.66-.52-1.7-.52h-2.67v4.43h2.6q1.17 0 1.8-.58.63-.6.63-1.7z" style="line-height:110.00000238%;-inkscape-font-specification:'Concourse C4, Normal';text-align:center" font-family="Concourse C4" letter-spacing="0" word-spacing="0" text-anchor="middle"/><path d="M830.32 634.8h.1l3.75-5.9h2.7l-5.26 8.15v5.6h-2.52v-5.6l-5.25-8.16h2.7l3.8 5.9z" style="line-height:110.00000238%;-inkscape-font-specification:'Concourse C4, Normal';text-align:center" font-family="Concourse C4" letter-spacing="0" word-spacing="0" text-anchor="middle"/><path d="M1173.07 600.8v11.6h-2.53v-11.6h-4.68v-2.16h11.94v2.17h-4.73z" style="line-height:110.00000238%;-inkscape-font-specification:'Concourse C4, Normal';text-align:center" font-family="Concourse C4" letter-spacing="0" word-spacing="0" text-anchor="middle"/><path d="M1192.12 602.84q0 1.6-.85 2.64-.83 1.02-2.4 1.38l4.5 5.17v.36h-2.87l-4.4-5.3h-1.6v5.3h-2.53v-13.76h5.3q1.08 0 1.96.3.88.3 1.5.88.67.55 1.03 1.32t.36 1.7zm-2.6-.02q0-1.1-.65-1.63-.66-.53-1.7-.53h-2.67v4.43h2.6q1.17 0 1.8-.58.63-.6.63-1.7z" style="line-height:110.00000238%;-inkscape-font-specification:'Concourse C4, Normal';text-align:center" font-family="Concourse C4" letter-spacing="0" word-spacing="0" text-anchor="middle"/><path d="M1205.5 609.42h-5.7l-1.3 2.97h-2.63l6.5-13.9h.54l6.56 13.9h-2.6l-1.36-2.98zm-4.8-2.12h3.86l-1.84-4.13h-.2l-1.8 4.13z" style="line-height:110.00000238%;-inkscape-font-specification:'Concourse C4, Normal';text-align:center" font-family="Concourse C4" letter-spacing="0" word-spacing="0" text-anchor="middle"/><path d="M1223.28 601.96q-.22-.16-.6-.38-.36-.22-.9-.44-.48-.22-1.14-.36-.66-.14-1.43-.14-.87 0-1.75.3-.85.28-1.54.9-.68.6-1.1 1.53-.4.93-.4 2.25 0 1.05.35 1.93.4.85 1.02 1.48.66.63 1.54 1 .92.35 1.96.35 1.27 0 2.3-.47 1.1-.46 1.75-.98l.97 2.06q-.94.7-2.28 1.2-1.33.48-2.8.48-1.6 0-3-.55-1.34-.54-2.33-1.47-.96-.97-1.5-2.23-.53-1.27-.53-2.72 0-1.74.6-3.08.64-1.35 1.65-2.3 1.04-.95 2.4-1.44 1.33-.5 2.76-.5 1.6 0 2.86.5 1.3.46 1.98.96l-.82 2.14z" style="line-height:110.00000238%;-inkscape-font-specification:'Concourse C4, Normal';text-align:center" font-family="Concourse C4" letter-spacing="0" word-spacing="0" text-anchor="middle"/><path d="M1231 607.5v4.9h-2.52v-13.76h2.53v6.2h.12l5.92-6.2h2.94v.13l-6.24 6.52 6.68 6.95v.14h-3.25l-5.4-5.73-.76.82z" style="line-height:110.00000238%;-inkscape-font-specification:'Concourse C4, Normal';text-align:center" font-family="Concourse C4" letter-spacing="0" word-spacing="0" text-anchor="middle"/><path d="M1253.1 600.8h-6.67v3.5h5.86v2.17h-5.87v3.74h6.96v2.2h-9.5v-13.76h9.2v2.17z" style="line-height:110.00000238%;-inkscape-font-specification:'Concourse C4, Normal';text-align:center" font-family="Concourse C4" letter-spacing="0" word-spacing="0" text-anchor="middle"/><path d="M1262.9 610.2q2.13 0 3.32-1.25 1.18-1.3 1.18-3.6 0-1.02-.4-1.85-.43-.85-1.1-1.43-.62-.6-1.44-.93-.8-.33-1.6-.33h-2.14v9.4h2.17zm-4.7 2.2v-13.76h4.55q1.5 0 2.83.5 1.32.5 2.3 1.4.98.87 1.53 2.1.58 1.25.58 2.76 0 1.7-.55 3-.52 1.3-1.48 2.2-.96.88-2.28 1.35-1.32.44-2.9.44h-4.58z" style="line-height:110.00000238%;-inkscape-font-specification:'Concourse C4, Normal';text-align:center" font-family="Concourse C4" letter-spacing="0" word-spacing="0" text-anchor="middle"/><path d="M1295.5 604.14q.34.55.5 1.23.17.7.17 1.38 0 1.46-.6 2.58-.6 1.13-1.62 1.9t-2.37 1.16q-1.32.4-2.75.4-1.6 0-2.9-.44-1.3-.47-2.24-1.24-.92-.8-1.44-1.84-.5-1.05-.5-2.23t.33-2.12q.32-.96.87-1.67.55-.72 1.3-1.24.74-.55 1.54-.94v-.13q-1.4-.7-1.9-1.5t-.5-1.7q0-.93.43-1.75.44-.83 1.18-1.43.75-.6 1.77-.94 1.02-.36 2.2-.36 1.48 0 2.56.44 1.1.43 1.9.95l-.9 2.2q-.76-.55-1.58-.88-.8-.36-1.9-.36-1.26 0-2.14.62-.85.6-.85 1.6 0 .95.64 1.6.62.67 1.77.9v1.73q-1.8.22-2.97 1.48-1.12 1.24-1.12 3.2 0 .87.35 1.6.4.67 1.02 1.17.63.47 1.5.7.84.26 1.8.26 1.1 0 2-.27.92-.32 1.52-.8.63-.5.96-1.2.36-.68.36-1.5 0-.56-.15-1.08-.13-.52-.44-1l-2.3.56-.44-2.03 6.44-1.46.44 1.97-1.93.47z" style="line-height:110.00000238%;-inkscape-font-specification:'Concourse C4, Normal';text-align:center" font-family="Concourse C4" letter-spacing="0" word-spacing="0" text-anchor="middle"/><path d="M1320.33 601.96q-.22-.16-.6-.38-.36-.22-.88-.44-.5-.22-1.16-.36-.67-.14-1.44-.14-.88 0-1.76.3-.85.28-1.54.9-.68.6-1.1 1.53-.4.93-.4 2.25 0 1.05.35 1.93.4.85 1.03 1.48.66.63 1.54 1 .9.35 1.95.35 1.26 0 2.3-.47 1.08-.46 1.74-.98l.96 2.06q-.93.7-2.28 1.2-1.32.48-2.78.48-1.62 0-3-.55-1.34-.54-2.33-1.47-.96-.97-1.5-2.23-.54-1.27-.54-2.72 0-1.74.6-3.08.63-1.35 1.65-2.3 1.04-.95 2.4-1.44 1.34-.5 2.77-.5 1.6 0 2.86.5 1.3.46 1.98.96l-.83 2.14z" style="line-height:110.00000238%;-inkscape-font-specification:'Concourse C4, Normal';text-align:center" font-family="Concourse C4" letter-spacing="0" word-spacing="0" text-anchor="middle"/><path d="M1339 605.68q0 1.37-.56 2.64-.55 1.26-1.54 2.22-.96.97-2.3 1.54-1.33.58-2.92.58-1.57 0-2.92-.52-1.34-.55-2.33-1.5-1-.95-1.57-2.2-.55-1.28-.55-2.76 0-1.65.6-3 .62-1.38 1.64-2.3 1-.97 2.33-1.5 1.35-.52 2.8-.52 1.44 0 2.76.52 1.32.5 2.34 1.46 1 .94 1.62 2.3.6 1.36.6 3.04zm-2.6-.06q0-1.1-.38-2-.35-.94-1-1.6-.65-.66-1.53-1.02-.86-.36-1.85-.36-.93 0-1.8.33-.84.33-1.5.97-.66.63-1.07 1.56-.4.9-.4 2.12 0 .9.32 1.8.33.84.93 1.5.63.66 1.54 1.07.9.38 2.06.38 1.08 0 1.93-.4.85-.4 1.46-1.06.63-.66.96-1.5.33-.9.33-1.8z" style="line-height:110.00000238%;-inkscape-font-specification:'Concourse C4, Normal';text-align:center" font-family="Concourse C4" letter-spacing="0" word-spacing="0" text-anchor="middle"/><path d="M1353.17 607.57h.22v-8.93h2.52v13.88h-.83l-9.2-9.04h-.2v8.9h-2.54V598.5h.82l9.2 9.07z" style="line-height:110.00000238%;-inkscape-font-specification:'Concourse C4, Normal';text-align:center" font-family="Concourse C4" letter-spacing="0" word-spacing="0" text-anchor="middle"/><path d="M1367.3 600.8v11.6h-2.54v-11.6h-4.68v-2.16h11.94v2.17h-4.73z" style="line-height:110.00000238%;-inkscape-font-specification:'Concourse C4, Normal';text-align:center" font-family="Concourse C4" letter-spacing="0" word-spacing="0" text-anchor="middle"/><path d="M1386.34 602.84q0 1.6-.86 2.64-.82 1.02-2.4 1.38l4.5 5.17v.36h-2.87l-4.4-5.3h-1.58v5.3h-2.53v-13.76h5.3q1.07 0 1.95.3.88.3 1.5.88.67.55 1.03 1.32t.36 1.7zm-2.6-.02q0-1.1-.65-1.63-.67-.53-1.7-.53h-2.68v4.43h2.6q1.17 0 1.8-.58.63-.6.63-1.7z" style="line-height:110.00000238%;-inkscape-font-specification:'Concourse C4, Normal';text-align:center" font-family="Concourse C4" letter-spacing="0" word-spacing="0" text-anchor="middle"/><path d="M1405.06 605.68q0 1.37-.55 2.64-.54 1.26-1.53 2.22-.96.97-2.3 1.54-1.33.58-2.93.58-1.56 0-2.9-.52-1.36-.55-2.35-1.5-1-.95-1.58-2.2-.55-1.28-.55-2.76 0-1.65.6-3 .6-1.38 1.63-2.3 1.02-.97 2.34-1.5 1.35-.52 2.8-.52 1.43 0 2.75.52 1.3.5 2.33 1.46 1.02.94 1.62 2.3.6 1.36.6 3.04zm-2.6-.06q0-1.1-.37-2-.37-.94-1.03-1.6-.63-.66-1.5-1.02-.86-.36-1.85-.36-.94 0-1.8.33-.84.33-1.5.97-.66.63-1.08 1.56-.38.9-.38 2.12 0 .9.3 1.8.33.84.94 1.5.63.66 1.54 1.07.9.38 2.06.38 1.07 0 1.92-.4.86-.4 1.46-1.06.63-.66.96-1.5.33-.9.33-1.8z" style="line-height:110.00000238%;-inkscape-font-specification:'Concourse C4, Normal';text-align:center" font-family="Concourse C4" letter-spacing="0" word-spacing="0" text-anchor="middle"/><path d="M1411.75 610.2h6.1v2.2h-8.63v-13.76h2.53v11.57z" style="line-height:110.00000238%;-inkscape-font-specification:'Concourse C4, Normal';text-align:center" font-family="Concourse C4" letter-spacing="0" word-spacing="0" text-anchor="middle"/><path d="M1424.43 610.2h6.1v2.2h-8.63v-13.76h2.53v11.57z" style="line-height:110.00000238%;-inkscape-font-specification:'Concourse C4, Normal';text-align:center" font-family="Concourse C4" letter-spacing="0" word-spacing="0" text-anchor="middle"/><path d="M1443.8 600.8h-6.7v3.5h5.86v2.17h-5.86v3.74h6.96v2.2h-9.5v-13.76h9.23v2.17z" style="line-height:110.00000238%;-inkscape-font-specification:'Concourse C4, Normal';text-align:center" font-family="Concourse C4" letter-spacing="0" word-spacing="0" text-anchor="middle"/><path d="M1453.56 610.2q2.15 0 3.33-1.25 1.17-1.3 1.17-3.6 0-1.02-.4-1.85-.42-.85-1.08-1.43-.64-.6-1.47-.93-.8-.33-1.6-.33h-2.14v9.4h2.16zm-4.7 2.2v-13.76h4.57q1.5 0 2.83.5 1.32.5 2.28 1.4 1 .87 1.54 2.1.58 1.25.58 2.76 0 1.7-.55 3-.5 1.3-1.48 2.2-.96.88-2.28 1.35-1.32.44-2.9.44h-4.58z" style="line-height:110.00000238%;-inkscape-font-specification:'Concourse C4, Normal';text-align:center" font-family="Concourse C4" letter-spacing="0" word-spacing="0" text-anchor="middle"/><path d="M1158.85 631.06h-6.82v3.63h6v2.16h-6v5.78h-2.53V628.9h9.35v2.16zm7.1 11.58h-2.53V628.9h2.53v13.74z" style="line-height:110.00000238%;-inkscape-font-specification:'Concourse C4, Normal';text-align:center" font-family="Concourse C4" letter-spacing="0" word-spacing="0" text-anchor="middle"/><path d="M1174.05 640.46h6.1v2.18h-8.63V628.9h2.53v11.56z" style="line-height:110.00000238%;-inkscape-font-specification:'Concourse C4, Normal';text-align:center" font-family="Concourse C4" letter-spacing="0" word-spacing="0" text-anchor="middle"/><path d="M1193.4 631.06h-6.67v3.5h5.86v2.16h-5.87v3.74h6.96v2.18h-9.5V628.9h9.2v2.16z" style="line-height:110.00000238%;-inkscape-font-specification:'Concourse C4, Normal';text-align:center" font-family="Concourse C4" letter-spacing="0" word-spacing="0" text-anchor="middle"/><path d="M1198.2 639.23q.87.57 1.92 1.04 1.07.44 2.42.44 1.45 0 2.14-.48.72-.53.72-1.2 0-.8-.8-1.4-.8-.57-2.53-1.25-2.12-.83-3.05-1.7-.94-.9-.94-2.26 0-.68.3-1.37.3-.7.88-1.2.6-.56 1.52-.9.9-.32 2.14-.32 1.57 0 2.72.42 1.16.42 1.87.88l-.62 2.12q-.8-.55-1.84-.88-1.05-.36-2.1-.36-1.23 0-1.83.42-.57.4-.57 1 0 .34.14.65.13.27.5.57.38.28 1 .6.67.3 1.7.75 2.2.9 3.12 1.95.93 1.02.93 2.42 0 .97-.42 1.68-.37.7-1.1 1.16-.73.46-1.72.68-1 .25-2.17.25-1.72 0-3.07-.43-1.32-.47-1.9-1.02l.66-2.22z" style="line-height:110.00000238%;-inkscape-font-specification:'Concourse C4, Normal';text-align:center" font-family="Concourse C4" letter-spacing="0" word-spacing="0" text-anchor="middle"/><path d="M1223.16 642.64h-2.53V628.9h2.53v13.74z" style="line-height:110.00000238%;-inkscape-font-specification:'Concourse C4, Normal';text-align:center" font-family="Concourse C4" letter-spacing="0" word-spacing="0" text-anchor="middle"/><path d="M1238.74 637.82h.22v-8.93h2.53v13.87h-.84l-9.18-9.04h-.22v8.9h-2.53v-13.88h.82l9.2 9.07z" style="line-height:110.00000238%;-inkscape-font-specification:'Concourse C4, Normal';text-align:center" font-family="Concourse C4" letter-spacing="0" word-spacing="0" text-anchor="middle"/><path d="M1256.82 640.46h6.1v2.18h-8.63V628.9h2.52v11.56z" style="line-height:110.00000238%;-inkscape-font-specification:'Concourse C4, Normal';text-align:center" font-family="Concourse C4" letter-spacing="0" word-spacing="0" text-anchor="middle"/><path d="M1280.42 635.93q0 1.37-.55 2.64-.55 1.26-1.54 2.22-.96.96-2.3 1.53-1.33.58-2.92.58-1.56 0-2.9-.5-1.36-.56-2.35-1.5-1-.96-1.56-2.22-.56-1.27-.56-2.75 0-1.65.6-3 .6-1.38 1.62-2.3 1.02-.97 2.34-1.5 1.35-.52 2.8-.52 1.44 0 2.76.53 1.32.5 2.33 1.46 1 .93 1.62 2.3.6 1.35.6 3.03zm-2.58-.06q0-1.1-.4-2-.35-.94-1-1.6-.64-.66-1.52-1.02-.85-.36-1.84-.36-.94 0-1.8.32-.84.33-1.5.97-.66.62-1.07 1.55-.38.9-.38 2.12 0 .9.3 1.8.33.84.94 1.5.63.66 1.54 1.07.9.4 2.06.4 1.07 0 1.93-.4.84-.4 1.44-1.07.64-.66.97-1.5.34-.9.34-1.8z" style="line-height:110.00000238%;-inkscape-font-specification:'Concourse C4, Normal';text-align:center" font-family="Concourse C4" letter-spacing="0" word-spacing="0" text-anchor="middle"/><path d="M1295.06 632.2q-.22-.15-.6-.37-.36-.22-.88-.44-.5-.23-1.16-.37-.66-.14-1.43-.14-.9 0-1.77.3-.85.27-1.54.88-.7.6-1.1 1.54-.42.93-.42 2.25 0 1.05.36 1.93.38.85 1.02 1.48.66.63 1.54 1 .9.35 1.95.35 1.26 0 2.3-.47 1.08-.47 1.74-1l.95 2.07q-.93.7-2.28 1.2-1.32.48-2.78.48-1.63 0-3-.54-1.35-.55-2.34-1.48-.96-.97-1.5-2.23-.54-1.27-.54-2.72 0-1.74.6-3.08.64-1.35 1.66-2.3 1.04-.95 2.4-1.44 1.34-.5 2.77-.5 1.6 0 2.86.5 1.3.47 2 .97l-.84 2.14z" style="line-height:110.00000238%;-inkscape-font-specification:'Concourse C4, Normal';text-align:center" font-family="Concourse C4" letter-spacing="0" word-spacing="0" text-anchor="middle"/><path d="M1308.38 639.67h-5.7l-1.28 2.97h-2.64l6.5-13.9h.54l6.54 13.9h-2.6l-1.36-2.97zm-4.78-2.12h3.85l-1.85-4.13h-.2l-1.8 4.13z" style="line-height:110.00000238%;-inkscape-font-specification:'Concourse C4, Normal';text-align:center" font-family="Concourse C4" letter-spacing="0" word-spacing="0" text-anchor="middle"/><path d="M1318.48 640.46h6.1v2.18h-8.63V628.9h2.53v11.56z" style="line-height:110.00000238%;-inkscape-font-specification:'Concourse C4, Normal';text-align:center" font-family="Concourse C4" letter-spacing="0" word-spacing="0" text-anchor="middle"/><path d="M1345.92 633.1q0 1.6-.85 2.63-.83 1.02-2.4 1.38l4.5 5.18v.36h-2.87l-4.4-5.28h-1.6v5.28h-2.53V628.9h5.3q1.08 0 1.96.3.88.3 1.5.87.67.55 1.03 1.32.36.76.36 1.7zm-2.6-.03q0-1.1-.65-1.63-.66-.52-1.7-.52h-2.67v4.43h2.6q1.17 0 1.8-.58.63-.6.63-1.7z" style="line-height:110.00000238%;-inkscape-font-specification:'Concourse C4, Normal';text-align:center" font-family="Concourse C4" letter-spacing="0" word-spacing="0" text-anchor="middle"/><path d="M1360.4 631.06h-6.68v3.5h5.85v2.16h-5.85v3.74h6.95v2.18h-9.48V628.9h9.2v2.16z" style="line-height:110.00000238%;-inkscape-font-specification:'Concourse C4, Normal';text-align:center" font-family="Concourse C4" letter-spacing="0" word-spacing="0" text-anchor="middle"/><path d="M1375.35 633.23q0 .72-.28 1.5-.25.76-.85 1.42-.58.63-1.57 1.07-.96.4-2.4.4H1368v5.02h-2.53V628.9h5.04q1.08 0 1.96.3.88.3 1.5.87.67.55 1.03 1.37.35.8.35 1.8zm-2.6-.03q0-1.15-.65-1.67-.66-.55-1.7-.55h-2.4v4.56h2.34q1.16 0 1.8-.58.62-.6.62-1.76z" style="line-height:110.00000238%;-inkscape-font-specification:'Concourse C4, Normal';text-align:center" font-family="Concourse C4" letter-spacing="0" word-spacing="0" text-anchor="middle"/><path d="M1393.22 635.93q0 1.37-.55 2.64-.55 1.26-1.54 2.22-.97.96-2.3 1.53-1.33.58-2.93.58-1.57 0-2.9-.5-1.36-.56-2.35-1.5-1-.96-1.57-2.22-.55-1.27-.55-2.75 0-1.65.6-3 .6-1.38 1.63-2.3 1.02-.97 2.34-1.5 1.34-.52 2.8-.52 1.43 0 2.75.53 1.32.5 2.34 1.46 1 .93 1.6 2.3.62 1.35.62 3.03zm-2.6-.06q0-1.1-.37-2-.36-.94-1.02-1.6-.63-.66-1.5-1.02t-1.86-.36q-.93 0-1.78.32-.87.33-1.53.97-.66.62-1.07 1.55-.38.9-.38 2.12 0 .9.3 1.8.33.84.93 1.5.64.66 1.54 1.07.9.4 2.06.4 1.07 0 1.92-.4.85-.4 1.46-1.07.63-.66.96-1.5.33-.9.33-1.8z" style="line-height:110.00000238%;-inkscape-font-specification:'Concourse C4, Normal';text-align:center" font-family="Concourse C4" letter-spacing="0" word-spacing="0" text-anchor="middle"/><path d="M1397.35 639.23q.88.57 1.93 1.04 1.07.44 2.42.44 1.45 0 2.14-.48.72-.53.72-1.2 0-.8-.8-1.4-.8-.57-2.53-1.25-2.12-.83-3.05-1.7-.94-.9-.94-2.26 0-.68.3-1.37.3-.7.88-1.2.6-.56 1.52-.9.9-.32 2.14-.32 1.57 0 2.72.42 1.16.42 1.87.88l-.63 2.12q-.8-.55-1.84-.88-1.05-.36-2.1-.36-1.23 0-1.83.42-.58.4-.58 1 0 .34.13.65.13.27.5.57.38.28 1 .6.67.3 1.7.75 2.2.9 3.12 1.95.94 1.02.94 2.42 0 .97-.43 1.68-.38.7-1.12 1.16-.72.46-1.7.68-1 .25-2.18.25-1.73 0-3.08-.43-1.33-.47-1.9-1.02l.65-2.22z" style="line-height:110.00000238%;-inkscape-font-specification:'Concourse C4, Normal';text-align:center" font-family="Concourse C4" letter-spacing="0" word-spacing="0" text-anchor="middle"/><path d="M1414.64 642.64h-2.53V628.9h2.54v13.74z" style="line-height:110.00000238%;-inkscape-font-specification:'Concourse C4, Normal';text-align:center" font-family="Concourse C4" letter-spacing="0" word-spacing="0" text-anchor="middle"/><path d="M1426.45 631.06v11.58h-2.53v-11.58h-4.68v-2.17h11.94v2.16h-4.73z" style="line-height:110.00000238%;-inkscape-font-specification:'Concourse C4, Normal';text-align:center" font-family="Concourse C4" letter-spacing="0" word-spacing="0" text-anchor="middle"/><path d="M1448.54 635.93q0 1.37-.55 2.64-.56 1.26-1.55 2.22-.97.96-2.3 1.53-1.33.58-2.93.58-1.56 0-2.9-.5-1.36-.56-2.35-1.5-1-.96-1.57-2.22-.55-1.27-.55-2.75 0-1.65.6-3 .6-1.38 1.63-2.3 1.02-.97 2.34-1.5 1.34-.52 2.8-.52 1.43 0 2.75.53 1.32.5 2.34 1.46 1.03.93 1.63 2.3.6 1.35.6 3.03zm-2.6-.06q0-1.1-.37-2-.36-.94-1.02-1.6-.63-.66-1.5-1.02t-1.86-.36q-.94 0-1.8.32-.85.33-1.5.97-.67.62-1.08 1.55-.38.9-.38 2.12 0 .9.3 1.8.33.84.94 1.5.63.66 1.53 1.07.92.4 2.08.4 1.07 0 1.92-.4.85-.4 1.46-1.07.63-.66.96-1.5.33-.9.33-1.8z" style="line-height:110.00000238%;-inkscape-font-specification:'Concourse C4, Normal';text-align:center" font-family="Concourse C4" letter-spacing="0" word-spacing="0" text-anchor="middle"/><path d="M1462.85 633.1q0 1.6-.85 2.63-.83 1.02-2.4 1.38l4.5 5.18v.36h-2.87l-4.4-5.28h-1.6v5.28h-2.53V628.9h5.3q1.08 0 1.96.3.88.3 1.5.87.67.55 1.03 1.32.35.76.35 1.7zm-2.6-.03q0-1.1-.65-1.63-.66-.52-1.7-.52h-2.67v4.43h2.6q1.17 0 1.8-.58.63-.6.63-1.7z" style="line-height:110.00000238%;-inkscape-font-specification:'Concourse C4, Normal';text-align:center" font-family="Concourse C4" letter-spacing="0" word-spacing="0" text-anchor="middle"/><path d="M1472.28 634.8h.1l3.75-5.9h2.7l-5.26 8.15v5.6h-2.53v-5.6l-5.25-8.16h2.7l3.78 5.9z" style="line-height:110.00000238%;-inkscape-font-specification:'Concourse C4, Normal';text-align:center" font-family="Concourse C4" letter-spacing="0" word-spacing="0" text-anchor="middle"/><path fill="#c83737" d="M409.52 978.32h-4.45l-1.05 2.67 2 .62v.95h-5.15v-.95l1.7-.63 4.6-11.38h1.52l4.57 11.62 1.5.38v.95h-5.8v-.95l1.67-.38-1.12-2.92zm-3.98-1.18h3.53l-1.63-4.22h-.2l-1.7 4.22z" style="line-height:125%;-inkscape-font-specification:'Equity Caps A, Normal';text-align:center" font-family="Equity Caps A" letter-spacing="0" word-spacing="0" text-anchor="middle"/><path fill="#c83737" d="M417.44 982.57v-.95l1.8-.38v-10.3l-1.8-.37v-.95h5.97q1.7 0 3 .45 1.36.45 2.3 1.3.94.82 1.44 2.05.5 1.22.5 2.75 0 1.55-.58 2.75-.55 1.2-1.55 2.02-1 .8-2.36 1.23-1.35.4-2.95.4h-5.76zm5.75-1.33q.94 0 1.8-.27.9-.28 1.54-.88.67-.63 1.05-1.58.4-.98.4-2.38 0-1.27-.4-2.25-.34-.98-.96-1.63-.63-.68-1.48-1-.82-.33-1.77-.33h-1.7v10.3h1.5z" style="line-height:125%;-inkscape-font-specification:'Equity Caps A, Normal';text-align:center" font-family="Equity Caps A" letter-spacing="0" word-spacing="0" text-anchor="middle"/><path fill="#c83737" d="M434.1 982.57v-.95l1.8-.38v-10.3l-1.8-.37v-.95h5.97q1.67 0 3 .45 1.35.45 2.27 1.3.95.82 1.45 2.05.5 1.22.5 2.75 0 1.55-.58 2.75-.55 1.2-1.55 2.02-1 .8-2.38 1.23-1.36.4-2.96.4h-5.75zm5.74-1.33q.95 0 1.83-.27.87-.28 1.52-.88.67-.63 1.04-1.58.4-.98.4-2.38 0-1.27-.37-2.25-.35-.98-.98-1.63-.63-.68-1.48-1-.83-.33-1.78-.33h-1.67v10.3h1.47z" style="line-height:125%;-inkscape-font-specification:'Equity Caps A, Normal';text-align:center" font-family="Equity Caps A" letter-spacing="0" word-spacing="0" text-anchor="middle"/><path fill="#c83737" d="M468.02 969.62l.35 3.1h-1.07l-1.33-1.88H462v4.48h2.52l.68-1.43h.8v4.17h-.8l-.68-1.58H462v4.74l1.87.38v.95h-6.15v-.95l1.8-.38v-10.3l-1.8-.37v-.95h10.3zm9.6 0v.95l-1.77.37v10.3l1.77.38v.95h-6.05v-.95l1.8-.38v-10.3l-1.8-.37v-.95h6.05z" style="line-height:125%;-inkscape-font-specification:'Equity Caps A, Normal';text-align:center" font-family="Equity Caps A" letter-spacing="0" word-spacing="0" text-anchor="middle"/><path fill="#c83737" d="M481.3 982.57v-.95l1.8-.38v-10.3l-1.8-.37v-.95h6.16v.95l-1.88.37v10.4h3.88l1.67-2.42h1.08l-.52 3.65H481.3z" style="line-height:125%;-inkscape-font-specification:'Equity Caps A, Normal';text-align:center" font-family="Equity Caps A" letter-spacing="0" word-spacing="0" text-anchor="middle"/><path fill="#c83737" d="M503.85 981.34l1.45-2.22h1.08l-.53 3.45h-10.82v-.95l1.8-.38v-10.3l-1.8-.37v-.95h10.17l.33 3.1h-1.05l-1.3-1.88h-3.88v4.48h2.4l.68-1.43h.8v4.17h-.8l-.68-1.58h-2.4v4.84h4.55z" style="line-height:125%;-inkscape-font-specification:'Equity Caps A, Normal';text-align:center" font-family="Equity Caps A" letter-spacing="0" word-spacing="0" text-anchor="middle"/><path fill="#c83737" d="M509.96 978.22h1.2q.37 1.65 1.22 2.55.85.9 2.13.9 1 0 1.6-.55.6-.58.6-1.45 0-.4-.12-.73-.1-.35-.4-.65-.3-.33-.85-.63-.52-.33-1.37-.7-1.85-.8-2.78-1.7-.92-.9-.92-2.25 0-.63.27-1.28.28-.65.8-1.17.53-.53 1.28-.85.78-.33 1.76-.33.85 0 1.4.22.57.2 1 .37l.9-.38h.65l.46 3.92h-1.18q-.47-1.5-1.3-2.2-.82-.7-1.82-.7-.88 0-1.43.48-.55.47-.55 1.37 0 .8.7 1.34.73.53 2.35 1.15 1.65.64 2.53 1.57.87.9.87 2.4 0 .97-.35 1.72-.32.72-.92 1.22-.6.47-1.43.72-.8.25-1.72.25-.64 0-1.34-.23-.7-.2-1.18-.53l-1.07.38h-.94v-4.3z" style="line-height:125%;-inkscape-font-specification:'Equity Caps A, Normal';text-align:center" font-family="Equity Caps A" letter-spacing="0" word-spacing="0" text-anchor="middle"/><path fill="#c83737" d="M368.5 1000.87l.6 3.65H368l-1.65-2.48h-2.55v10.45l1.87.37v.95h-6.23v-.95l1.87-.38v-10.46h-2.55l-1.68 2.48h-1.05l.6-3.65h11.82z" style="line-height:125%;-inkscape-font-specification:'Equity Caps A, Normal';text-align:center" font-family="Equity Caps A" letter-spacing="0" word-spacing="0" text-anchor="middle"/><path fill="#c83737" d="M371.8 1007.42q0-1.55.53-2.8.55-1.25 1.45-2.13.93-.9 2.15-1.38 1.25-.48 2.65-.48 1.45 0 2.68.48 1.25.45 2.15 1.32.9.88 1.4 2.15.5 1.24.5 2.82 0 1.65-.54 2.92-.53 1.25-1.45 2.1-.9.85-2.12 1.28-1.22.42-2.6.42-1.4 0-2.65-.42-1.22-.45-2.15-1.3-.9-.88-1.45-2.13-.52-1.26-.52-2.88zm2.76-.03q0 1.32.32 2.32.33 1 .88 1.7.55.67 1.27 1.02.73.35 1.55.35.8 0 1.53-.28.73-.3 1.28-.95.55-.65.88-1.68.32-1.03.32-2.5 0-1.36-.32-2.38-.3-1.05-.85-1.73-.52-.7-1.27-1.06-.72-.35-1.55-.35-.82 0-1.55.34-.72.35-1.27 1.05-.55.7-.88 1.72-.32 1.02-.32 2.37z" style="line-height:125%;-inkscape-font-specification:'Equity Caps A, Normal';text-align:center" font-family="Equity Caps A" letter-spacing="0" word-spacing="0" text-anchor="middle"/><path fill="#c83737" d="M396.26 1009.47h1.2q.38 1.65 1.23 2.55.84.9 2.1.9 1 0 1.6-.55.6-.58.6-1.45 0-.4-.1-.73-.1-.36-.4-.66-.3-.32-.86-.62-.53-.33-1.38-.7-1.85-.8-2.77-1.7-.94-.9-.94-2.25 0-.63.28-1.28.27-.66.8-1.18.52-.53 1.27-.85.8-.33 1.76-.33.85 0 1.4.23.58.2 1 .37l.9-.37h.65l.46 3.92h-1.17q-.5-1.5-1.3-2.2-.84-.7-1.84-.7-.87 0-1.42.47-.55.47-.55 1.37 0 .8.7 1.35.7.52 2.34 1.14 1.65.65 2.52 1.58.88.9.88 2.4 0 .97-.35 1.72-.34.73-.94 1.23-.6.47-1.42.72-.8.24-1.73.24-.64 0-1.34-.22-.7-.2-1.17-.53l-1.1.37h-.94v-4.3z" style="line-height:125%;-inkscape-font-specification:'Equity Caps A, Normal';text-align:center" font-family="Equity Caps A" letter-spacing="0" word-spacing="0" text-anchor="middle"/><path fill="#c83737" d="M420.98 1000.87l.6 3.65h-1.07l-1.64-2.48h-2.55v10.45l1.88.37v.95h-6.22v-.95l1.87-.38v-10.46h-2.55l-1.67 2.48h-1.04l.6-3.65h11.82z" style="line-height:125%;-inkscape-font-specification:'Equity Caps A, Normal';text-align:center" font-family="Equity Caps A" letter-spacing="0" word-spacing="0" text-anchor="middle"/><path fill="#c83737" d="M431.66 1009.57h-4.45l-1.04 2.67 2 .63v.95H423v-.95l1.7-.63 4.6-11.37h1.54l4.57 11.62 1.5.37v.95h-5.8v-.95l1.7-.38-1.14-2.93zm-3.97-1.18h3.5l-1.6-4.23h-.2l-1.7 4.22z" style="line-height:125%;-inkscape-font-specification:'Equity Caps A, Normal';text-align:center" font-family="Equity Caps A" letter-spacing="0" word-spacing="0" text-anchor="middle"/><path fill="#c83737" d="M446.2 1012.8q.7 0 1.36-.16.7-.17 1.23-.6v-3.25l-2.2-.48v-.95h6.2v.95l-1.54.37v4.07q-.35.2-.82.45-.48.25-1.13.45-.6.2-1.4.32-.76.14-1.7.14-1.4 0-2.64-.42-1.22-.45-2.17-1.3-.94-.88-1.5-2.13-.56-1.26-.56-2.88 0-1.55.52-2.8.55-1.25 1.48-2.13.95-.9 2.2-1.38 1.27-.48 2.7-.48 1.2 0 2.52.43 1.33.4 2.38.97v3.03h-.95q-.66-1.78-1.7-2.48t-2.26-.7q-.83 0-1.6.34-.75.35-1.33 1.05-.54.67-.9 1.7-.3 1.02-.3 2.4 0 1.24.3 2.24.34 1 .9 1.7t1.3 1.08q.76.37 1.6.37z" style="line-height:125%;-inkscape-font-specification:'Equity Caps A, Normal';text-align:center" font-family="Equity Caps A" letter-spacing="0" word-spacing="0" text-anchor="middle"/><path fill="#c83737" d="M462 1000.87v.95l-1.78.37v10.3l1.78.37v.95h-6.05v-.95l1.8-.38v-10.3l-1.8-.38v-.95H462z" style="line-height:125%;-inkscape-font-specification:'Equity Caps A, Normal';text-align:center" font-family="Equity Caps A" letter-spacing="0" word-spacing="0" text-anchor="middle"/><path fill="#c83737" d="M476.73 1009.4v-6.96l-2.05-.62v-.95h5.2v.95l-1.77.62V1014h-.74l-8.5-10h-.3v8.24l2.05.63v.95h-5.02v-.95l1.6-.63v-10.05l-1.6-.38v-.95h3.58l7.27 8.52h.3z" style="line-height:125%;-inkscape-font-specification:'Equity Caps A, Normal';text-align:center" font-family="Equity Caps A" letter-spacing="0" word-spacing="0" text-anchor="middle"/><path fill="#c83737" d="M489.9 1012.8q.7 0 1.37-.16.7-.17 1.22-.6v-3.25l-2.18-.48v-.95h6.2v.95l-1.55.37v4.07q-.35.2-.83.45-.47.25-1.12.45-.63.2-1.4.32-.78.14-1.73.14-1.38 0-2.63-.42-1.23-.45-2.18-1.3-.93-.88-1.5-2.13-.56-1.26-.56-2.88 0-1.55.53-2.8.55-1.25 1.47-2.13.95-.9 2.2-1.38 1.28-.48 2.7-.48 1.2 0 2.53.43 1.32.4 2.37.97v3.03h-.95q-.66-1.78-1.7-2.48-1.03-.7-2.26-.7-.82 0-1.6.34-.75.35-1.32 1.05-.55.67-.9 1.7-.33 1.02-.33 2.4 0 1.24.32 2.24.32 1 .87 1.7.57.7 1.32 1.08.75.37 1.57.37z" style="line-height:125%;-inkscape-font-specification:'Equity Caps A, Normal';text-align:center" font-family="Equity Caps A" letter-spacing="0" word-spacing="0" text-anchor="middle"/><path fill="#c83737" d="M514.23 1009.57h-4.45l-1.05 2.67 2 .63v.95h-5.15v-.95l1.7-.63 4.6-11.37h1.53l4.58 11.62 1.5.37v.95h-5.8v-.95l1.68-.38-1.13-2.93zm-3.97-1.18h3.52l-1.62-4.23h-.2l-1.7 4.22z" style="line-height:125%;-inkscape-font-specification:'Equity Caps A, Normal';text-align:center" font-family="Equity Caps A" letter-spacing="0" word-spacing="0" text-anchor="middle"/><path fill="#c83737" d="M530.03 1007.72q.52.22.95.85.45.62.9 1.37.45.73.92 1.45.48.7 1.05 1.1l1.13.37v.95h-3q-.75-.48-1.33-1.33-.55-.86-1.07-1.76-.53-.9-1.1-1.65-.55-.78-1.3-1.08h-.75v4.47l1.77.37v.95h-6.05v-.95l1.8-.38v-10.3l-1.8-.38v-.95h6.78q.55 0 1.25.15.7.12 1.32.5.65.37 1.08 1.05.45.65.45 1.7 0 1.07-.78 2.02-.75.92-2.22 1.2v.22zm-3.6-.88h1.37q.7 0 1.18-.22.5-.25.82-.6.33-.38.48-.8.15-.45.15-.88 0-1.17-.58-1.65-.57-.5-1.32-.5h-2.1v4.64z" style="line-height:125%;-inkscape-font-specification:'Equity Caps A, Normal';text-align:center" font-family="Equity Caps A" letter-spacing="0" word-spacing="0" text-anchor="middle"/><path fill="#c83737" d="M546.5 1012.6l1.45-2.23h1.08l-.53 3.45h-10.82v-.95l1.8-.38v-10.3l-1.8-.38v-.95h10.17l.33 3.1h-1.05l-1.3-1.88h-3.88v4.47h2.4l.68-1.43h.8v4.18h-.8l-.68-1.58h-2.4v4.85h4.55z" style="line-height:125%;-inkscape-font-specification:'Equity Caps A, Normal';text-align:center" font-family="Equity Caps A" letter-spacing="0" word-spacing="0" text-anchor="middle"/><path fill="#c83737" d="M559.93 1009.57h-4.45l-1.05 2.67 2 .63v.95h-5.15v-.95l1.7-.63 4.6-11.37h1.53l4.58 11.62 1.5.37v.95h-5.8v-.95l1.68-.38-1.13-2.93zm-3.97-1.18h3.52l-1.62-4.23h-.2l-1.7 4.22z" style="line-height:125%;-inkscape-font-specification:'Equity Caps A, Normal';text-align:center" font-family="Equity Caps A" letter-spacing="0" word-spacing="0" text-anchor="middle"/><path fill="#c83737" d="M953.2 981.54q1.62 0 2.57-.8.95-.8 1.45-2.32h.95v2.92q-1.02.65-2.2 1.1-1.15.45-2.87.45-1.43 0-2.68-.43-1.25-.45-2.2-1.3-.92-.88-1.47-2.13-.55-1.25-.55-2.87 0-1.55.52-2.8.55-1.25 1.48-2.13.95-.9 2.2-1.37 1.27-.48 2.7-.48 1.2 0 2.52.42 1.33.4 2.38.97v3.02h-.95q-.65-1.78-1.7-2.48-1.03-.7-2.25-.7-.83 0-1.6.38-.75.37-1.33 1.1-.55.7-.9 1.72-.32 1-.32 2.3 0 1.23.37 2.23.4 1 1 1.7.63.7 1.38 1.1.77.37 1.5.37z" style="line-height:125%;-inkscape-font-specification:'Equity Caps A, Normal';text-align:center" font-family="Equity Caps A" letter-spacing="0" word-spacing="0" text-anchor="middle"/><path fill="#c83737" d="M962.02 976.17q0-1.55.52-2.8.55-1.25 1.45-2.13.92-.9 2.14-1.37 1.25-.48 2.65-.48 1.44 0 2.67.47 1.25.45 2.15 1.32.9.87 1.4 2.14.5 1.25.5 2.83 0 1.65-.55 2.92-.53 1.24-1.45 2.1-.9.84-2.13 1.27-1.23.42-2.6.42-1.4 0-2.66-.43-1.22-.45-2.15-1.3-.9-.88-1.46-2.13-.52-1.25-.52-2.87zm2.75-.03q0 1.33.32 2.33t.87 1.7q.55.67 1.27 1.02.73.34 1.55.34.8 0 1.52-.27.72-.3 1.27-.95.54-.65.87-1.68.32-1.02.32-2.5 0-1.35-.33-2.37-.3-1.05-.85-1.73-.53-.7-1.28-1.05-.72-.36-1.55-.36-.83 0-1.56.35-.72.34-1.27 1.04t-.88 1.73q-.33 1.02-.33 2.37z" style="line-height:125%;-inkscape-font-specification:'Equity Caps A, Normal';text-align:center" font-family="Equity Caps A" letter-spacing="0" word-spacing="0" text-anchor="middle"/><path fill="#c83737" d="M991.12 973.12l-4.05 9.47h-.85l-3.75-9.48h-.28l-.78 7.87 1.75.62v.95h-4.83v-.95l1.73-.63 1-10.06-2-.37v-.95h4.45l3.6 9h.3l3.97-9h4.24v.95l-2.02.37.72 10.3 1.83.38v.95h-6.05v-.95l1.82-.38-.52-8.12h-.3z" style="line-height:125%;-inkscape-font-specification:'Equity Caps A, Normal';text-align:center" font-family="Equity Caps A" letter-spacing="0" word-spacing="0" text-anchor="middle"/><path fill="#c83737" d="M1011.62 973.12l-4.05 9.47h-.85l-3.75-9.48h-.27l-.78 7.87 1.75.62v.95h-4.82v-.95l1.72-.63 1-10.06-2-.37v-.95h4.45l3.6 9h.3l3.98-9h4.25v.95l-2.03.37.73 10.3 1.82.38v.95h-6.05v-.95l1.83-.38-.53-8.12h-.3z" style="line-height:125%;-inkscape-font-specification:'Equity Caps A, Normal';text-align:center" font-family="Equity Caps A" letter-spacing="0" word-spacing="0" text-anchor="middle"/><path fill="#c83737" d="M1026.03 969.62v.95l-1.77.37v10.3l1.77.38v.95h-6.05v-.95l1.8-.38v-10.3l-1.8-.37v-.95h6.05z" style="line-height:125%;-inkscape-font-specification:'Equity Caps A, Normal';text-align:center" font-family="Equity Caps A" letter-spacing="0" word-spacing="0" text-anchor="middle"/><path fill="#c83737" d="M1041.42 969.62l.6 3.65h-1.08l-1.65-2.48h-2.56v10.44l1.88.38v.95h-6.23v-.95l1.87-.38V970.8h-2.55l-1.68 2.47H1029l.6-3.65h11.82z" style="line-height:125%;-inkscape-font-specification:'Equity Caps A, Normal';text-align:center" font-family="Equity Caps A" letter-spacing="0" word-spacing="0" text-anchor="middle"/><path fill="#c83737" d="M1061.28 969.62l.35 3.1h-1.07l-1.33-1.88h-3.97v4.48h2.52l.68-1.43h.8v4.17h-.8l-.68-1.58h-2.52v4.74l1.87.38v.95h-6.15v-.95l1.8-.38v-10.3l-1.8-.37v-.95h10.3zm9.6 0v.95l-1.77.37v10.3l1.78.38v.95h-6.05v-.95l1.8-.38v-10.3l-1.8-.37v-.95h6.05z" style="line-height:125%;-inkscape-font-specification:'Equity Caps A, Normal';text-align:center" font-family="Equity Caps A" letter-spacing="0" word-spacing="0" text-anchor="middle"/><path fill="#c83737" d="M1074.57 982.57v-.95l1.8-.38v-10.3l-1.8-.37v-.95h6.15v.95l-1.88.37v10.4h3.88l1.67-2.42h1.07l-.53 3.65h-10.37z" style="line-height:125%;-inkscape-font-specification:'Equity Caps A, Normal';text-align:center" font-family="Equity Caps A" letter-spacing="0" word-spacing="0" text-anchor="middle"/><path fill="#c83737" d="M1097.1 981.34l1.46-2.22h1.08l-.53 3.45h-10.8v-.95l1.8-.38v-10.3l-1.8-.37v-.95h10.16l.33 3.1h-1.06l-1.3-1.88h-3.88v4.48h2.4l.68-1.43h.8v4.17h-.8l-.68-1.58h-2.4v4.84h4.55z" style="line-height:125%;-inkscape-font-specification:'Equity Caps A, Normal';text-align:center" font-family="Equity Caps A" letter-spacing="0" word-spacing="0" text-anchor="middle"/><path fill="#c83737" d="M1103.22 978.22h1.2q.37 1.65 1.22 2.55.85.9 2.13.9 1 0 1.6-.55.6-.58.6-1.45 0-.4-.13-.73-.1-.35-.4-.65-.3-.33-.85-.63-.53-.33-1.38-.7-1.85-.8-2.78-1.7-.92-.9-.92-2.25 0-.63.27-1.28t.8-1.17q.52-.53 1.27-.85.77-.33 1.75-.33.85 0 1.4.22.57.2 1 .37l.9-.38h.65l.45 3.92h-1.18q-.47-1.5-1.3-2.2-.82-.7-1.82-.7-.88 0-1.43.48-.56.47-.56 1.37 0 .8.7 1.34.73.53 2.35 1.15 1.64.64 2.52 1.57.87.9.87 2.4 0 .97-.36 1.72-.32.72-.92 1.22-.6.47-1.43.72-.8.25-1.73.25-.65 0-1.35-.23-.7-.2-1.18-.53l-1.07.38h-.95v-4.3z" style="line-height:125%;-inkscape-font-specification:'Equity Caps A, Normal';text-align:center" font-family="Equity Caps A" letter-spacing="0" word-spacing="0" text-anchor="middle"/><path fill="#c83737" d="M950.3 1000.87l.6 3.65h-1.07l-1.65-2.48h-2.55v10.45l1.87.37v.95h-6.22v-.95l1.87-.38v-10.46h-2.55l-1.67 2.48h-1.05l.6-3.65h11.82z" style="line-height:125%;-inkscape-font-specification:'Equity Caps A, Normal';text-align:center" font-family="Equity Caps A" letter-spacing="0" word-spacing="0" text-anchor="middle"/><path fill="#c83737" d="M953.62 1007.42q0-1.55.52-2.8.55-1.25 1.45-2.13.92-.9 2.14-1.38 1.25-.48 2.65-.48 1.44 0 2.67.48 1.25.45 2.15 1.32.9.88 1.4 2.15.5 1.24.5 2.82 0 1.65-.55 2.92-.53 1.25-1.45 2.1-.9.85-2.13 1.28-1.23.42-2.6.42-1.4 0-2.66-.42-1.22-.45-2.15-1.3-.9-.88-1.46-2.13-.52-1.26-.52-2.88zm2.75-.03q0 1.32.32 2.32.32 1 .87 1.7.55.67 1.27 1.02.73.35 1.55.35.8 0 1.52-.28.72-.3 1.27-.95.54-.65.87-1.68.32-1.03.32-2.5 0-1.36-.33-2.38-.3-1.05-.85-1.73-.53-.7-1.28-1.06-.72-.35-1.55-.35-.83 0-1.56.34-.72.35-1.27 1.05-.55.7-.88 1.72-.33 1.02-.33 2.37z" style="line-height:125%;-inkscape-font-specification:'Equity Caps A, Normal';text-align:center" font-family="Equity Caps A" letter-spacing="0" word-spacing="0" text-anchor="middle"/><path fill="#c83737" d="M985.42 1007.72q.52.22.95.85.45.62.9 1.37.45.73.92 1.45.47.7 1.04 1.1l1.13.37v.95h-3q-.75-.48-1.33-1.33-.55-.86-1.07-1.76-.53-.9-1.1-1.65-.55-.78-1.3-1.08h-.75v4.47l1.77.37v.95h-6.06v-.95l1.8-.38v-10.3l-1.8-.38v-.95h6.78q.55 0 1.25.15.7.12 1.32.5.64.37 1.07 1.05.45.65.45 1.7 0 1.07-.78 2.02-.75.92-2.22 1.2v.22zm-3.6-.88h1.37q.7 0 1.17-.22.5-.25.82-.6.32-.38.47-.8.15-.45.15-.88 0-1.17-.58-1.65-.57-.5-1.32-.5h-2.1v4.64z" style="line-height:125%;-inkscape-font-specification:'Equity Caps A, Normal';text-align:center" font-family="Equity Caps A" letter-spacing="0" word-spacing="0" text-anchor="middle"/><path fill="#c83737" d="M1001.9 1012.6l1.45-2.23h1.07l-.52 3.45h-10.83v-.95l1.8-.38v-10.3l-1.8-.38v-.95h10.18l.32 3.1h-1.05l-1.3-1.88h-3.87v4.47h2.4l.67-1.43h.8v4.18h-.8l-.67-1.58h-2.4v4.85h4.55z" style="line-height:125%;-inkscape-font-specification:'Equity Caps A, Normal';text-align:center" font-family="Equity Caps A" letter-spacing="0" word-spacing="0" text-anchor="middle"/><path fill="#c83737" d="M1011.75 1008.5v4l2 .37v.95h-6.27v-.95l1.8-.38v-10.3l-1.8-.38v-.95h6.4q.77 0 1.57.2t1.45.65q.68.45 1.1 1.17.43.7.43 1.7 0 1.8-1.35 2.84-1.33 1.05-3.7 1.05h-1.63zm0-1.18h1.83q.92 0 1.6-.7.7-.7.7-1.9 0-1.28-.68-1.9-.67-.63-1.67-.63h-1.78v5.12z" style="line-height:125%;-inkscape-font-specification:'Equity Caps A, Normal';text-align:center" font-family="Equity Caps A" letter-spacing="0" word-spacing="0" text-anchor="middle"/><path fill="#c83737" d="M1021.5 1007.42q0-1.55.5-2.8.56-1.25 1.46-2.13.93-.9 2.15-1.38 1.26-.48 2.66-.48 1.45 0 2.68.48 1.25.45 2.15 1.32.9.88 1.4 2.15.5 1.24.5 2.82 0 1.65-.56 2.92-.53 1.25-1.45 2.1-.9.85-2.14 1.28-1.22.42-2.6.42-1.4 0-2.65-.42-1.2-.45-2.14-1.3-.9-.88-1.45-2.13-.5-1.26-.5-2.88zm2.74-.03q0 1.32.32 2.32.33 1 .88 1.7.55.67 1.27 1.02.74.35 1.56.35.8 0 1.53-.28.7-.3 1.26-.95.55-.65.88-1.68.32-1.03.32-2.5 0-1.36-.32-2.38-.3-1.05-.85-1.73-.54-.7-1.3-1.06-.7-.35-1.54-.35-.82 0-1.55.34-.7.35-1.26 1.05-.55.7-.88 1.72-.32 1.02-.32 2.37z" style="line-height:125%;-inkscape-font-specification:'Equity Caps A, Normal';text-align:center" font-family="Equity Caps A" letter-spacing="0" word-spacing="0" text-anchor="middle"/><path fill="#c83737" d="M1038.96 1009.47h1.2q.37 1.65 1.22 2.55.85.9 2.13.9 1 0 1.6-.55.6-.58.6-1.45 0-.4-.12-.73-.1-.36-.4-.66-.3-.32-.85-.62-.52-.33-1.37-.7-1.85-.8-2.78-1.7-.92-.9-.92-2.25 0-.63.27-1.28.28-.66.8-1.18.53-.53 1.28-.85.78-.33 1.76-.33.85 0 1.4.23.57.2 1 .37l.9-.37h.65l.46 3.92h-1.18q-.47-1.5-1.3-2.2-.82-.7-1.82-.7-.88 0-1.43.47-.55.47-.55 1.37 0 .8.7 1.35.73.52 2.35 1.14 1.65.65 2.53 1.58.87.9.87 2.4 0 .97-.35 1.72-.32.73-.92 1.23-.6.47-1.43.72-.8.24-1.72.24-.64 0-1.34-.22-.7-.2-1.18-.53l-1.07.37h-.94v-4.3z" style="line-height:125%;-inkscape-font-specification:'Equity Caps A, Normal';text-align:center" font-family="Equity Caps A" letter-spacing="0" word-spacing="0" text-anchor="middle"/><path fill="#c83737" d="M1058.3 1000.87v.95l-1.77.37v10.3l1.78.37v.95h-6.04v-.95l1.8-.38v-10.3l-1.8-.38v-.95h6.05z" style="line-height:125%;-inkscape-font-specification:'Equity Caps A, Normal';text-align:center" font-family="Equity Caps A" letter-spacing="0" word-spacing="0" text-anchor="middle"/><path fill="#c83737" d="M1073.7 1000.87l.6 3.65h-1.08l-1.65-2.48h-2.55v10.45l1.87.37v.95h-6.23v-.95l1.87-.38v-10.46H1064l-1.68 2.48h-1.05l.6-3.65h11.82z" style="line-height:125%;-inkscape-font-specification:'Equity Caps A, Normal';text-align:center" font-family="Equity Caps A" letter-spacing="0" word-spacing="0" text-anchor="middle"/><path fill="#c83737" d="M1077 1007.42q0-1.55.53-2.8.55-1.25 1.45-2.13.93-.9 2.15-1.38 1.25-.48 2.65-.48 1.45 0 2.68.48 1.25.45 2.15 1.32.9.88 1.4 2.15.5 1.24.5 2.82 0 1.65-.54 2.92-.53 1.25-1.45 2.1-.9.85-2.12 1.28-1.22.42-2.6.42-1.4 0-2.65-.42-1.22-.45-2.15-1.3-.9-.88-1.45-2.13-.52-1.26-.52-2.88zm2.76-.03q0 1.32.32 2.32.33 1 .88 1.7.55.67 1.27 1.02.73.35 1.55.35.8 0 1.53-.28.73-.3 1.28-.95.55-.65.88-1.68.32-1.03.32-2.5 0-1.36-.32-2.38-.3-1.05-.85-1.73-.52-.7-1.27-1.06-.72-.35-1.55-.35-.82 0-1.55.34-.72.35-1.27 1.05-.55.7-.88 1.72-.32 1.02-.32 2.37z" style="line-height:125%;-inkscape-font-specification:'Equity Caps A, Normal';text-align:center" font-family="Equity Caps A" letter-spacing="0" word-spacing="0" text-anchor="middle"/><path fill="#c83737" d="M1101.83 1007.72q.52.22.95.85.45.62.9 1.37.45.73.92 1.45.48.7 1.05 1.1l1.13.37v.95h-3q-.75-.48-1.33-1.33-.55-.86-1.07-1.76-.53-.9-1.1-1.65-.55-.78-1.3-1.08h-.75v4.47l1.77.37v.95h-6.05v-.95l1.8-.38v-10.3l-1.8-.38v-.95h6.78q.55 0 1.25.15.7.12 1.32.5.65.37 1.08 1.05.45.65.45 1.7 0 1.07-.78 2.02-.75.92-2.22 1.2v.22zm-3.6-.88h1.37q.7 0 1.18-.22.5-.25.82-.6.33-.38.48-.8.15-.45.15-.88 0-1.17-.58-1.65-.57-.5-1.32-.5h-2.1v4.64z" style="line-height:125%;-inkscape-font-specification:'Equity Caps A, Normal';text-align:center" font-family="Equity Caps A" letter-spacing="0" word-spacing="0" text-anchor="middle"/><path fill="#c83737" d="M1118.02 1002.44l-1.97-.62v-.95h5.07v.95l-1.62.62-3.7 6.15v3.9l1.8.37v.95h-6.08v-.95l1.8-.38v-3.9l-3.77-6.4-1.55-.38v-.95h5.8v.95l-1.53.37 2.7 4.72h.35l2.7-4.48z" style="line-height:125%;-inkscape-font-specification:'Equity Caps A, Normal';text-align:center" font-family="Equity Caps A" letter-spacing="0" word-spacing="0" text-anchor="middle"/></g></svg>
