<svg xmlns="http://www.w3.org/2000/svg" width="1200" height="485"><g transform="translate(0 -567.362)"><path fill="none" stroke="#6789c8" stroke-opacity=".998" stroke-width="2" d="M506.82 623.05v100"/><path fill="#fbd140" d="M466.83 567.36c-3.74 0-6.75 3.02-6.75 6.76v35.03c0 3.75 3 6.76 6.75 6.76h21.85c3.5 0 6.74-3.22 6.74-6.73v-19.1l5.12-4.86v-11.08c0-3.74-3-6.76-6.74-6.76h-26.97z"/><rect width="31.545" height="47.563" x="484.16" y="414.534" fill="#ffe9a1" ry="6.743" rx="6.381" transform="matrix(.949 .315 0 1 0 0)"/><path fill="#404030" d="M512.17 603.75q1.92 0 3.42-.6 1.5-.57 2.55-1.65 1.04-1.1 1.6-2.63.55-1.53.55-3.38 0-2.28-.72-3.88-.7-1.62-1.88-2.63-1.14-1.05-2.6-1.54-1.46-.48-2.96-.48h-3.28v16.77h3.3zm-6.37 2.66v-22.1h6.2q2.45 0 4.53.82 2.1.78 3.64 2.25 1.56 1.46 2.44 3.54.88 2.1.88 4.66 0 2.5-.84 4.5-.85 2.03-2.37 3.46-1.53 1.4-3.64 2.14-2.08.75-4.6.75h-6.23z" style="line-height:125%;-inkscape-font-specification:'Concourse T4, Normal';text-align:start" font-family="Concourse T4" letter-spacing="0" word-spacing="0"/><path fill="#404030" d="M527.48 604.7q0-.82.55-1.38.6-.58 1.4-.58.8 0 1.36.58.58.56.58 1.37 0 .8-.6 1.4-.54.54-1.35.54-.8 0-1.4-.55-.55-.6-.55-1.4zm0-10.4q0-.82.55-1.38.6-.58 1.4-.58.8 0 1.36.58.58.56.58 1.37 0 .8-.6 1.4-.54.54-1.35.54-.8 0-1.4-.55-.55-.6-.55-1.4z" style="line-height:125%;-inkscape-font-specification:'Concourse T4, Normal';text-align:start" font-family="Concourse T4" letter-spacing="0" word-spacing="0"/><path fill="#404030" d="M548.43 611.6h-2.6l-11.7-27.94h2.6l11.7 27.95z" style="line-height:125%;-inkscape-font-specification:'Concourse T4, Normal';text-align:start" font-family="Concourse T4" letter-spacing="0" word-spacing="0"/><path fill="#404030" d="M551.28 585.6q.2-.15.72-.44.55-.3 1.33-.6.8-.28 1.82-.5 1.04-.24 2.24-.24 1.46 0 2.72.36 1.27.33 2.2 1.07.96.72 1.5 1.9.56 1.13.56 2.78 0 3.22-2.5 6.54-2.47 3.3-7.02 6.95l.06.2 9.8-.3v3.1h-14.87l-.32-1.15q3.3-2.86 5.56-5.1 2.23-2.27 3.6-4.03 1.36-1.8 1.9-3.15.6-1.4.6-2.48 0-2.05-1.1-3.02-1.08-.98-2.9-.98-1 0-1.92.23-.88.23-1.62.55-.72.3-1.3.62-.56.32-.88.55l-.2-2.86z" style="line-height:125%;-inkscape-font-specification:'Concourse T4, Normal';text-align:start" font-family="Concourse T4" letter-spacing="0" word-spacing="0"/><path fill="#404030" d="M568.5 594.13l1.25-9.82h11.8l-.36 2.84-9.08-.33-.68 5q.48-.05.9-.05.46-.03.92-.03 2.27 0 3.96.55 1.7.56 2.8 1.5 1.1.94 1.65 2.2.56 1.28.56 2.7 0 2-.88 3.52-.88 1.5-2.37 2.6-1.47 1.03-3.42 1.58-1.95.52-4.1.52-.93 0-1.8-.07-.86-.06-1.6-.3l.52-2.62q.6.17 1.46.27.88.06 1.62.06 3.45 0 5.43-1.43 1.97-1.46 1.97-4 0-1.2-.55-2.07-.52-.9-1.53-1.5-1-.58-2.4-.88-1.4-.3-3.16-.3-.75 0-1.5.08-.75.03-1.3.1l-.13-.1z" style="line-height:125%;-inkscape-font-specification:'Concourse T4, Normal';text-align:start" font-family="Concourse T4" letter-spacing="0" word-spacing="0"/><path fill="#404030" d="M601.53 595.13q0 3.1-.6 5.33-.6 2.2-1.67 3.64-1.07 1.43-2.57 2.12-1.47.68-3.23.68-1.7 0-3.18-.62-1.5-.62-2.6-1.98-1.12-1.4-1.77-3.64-.65-2.24-.65-5.53 0-3.02.65-5.16.65-2.15 1.76-3.5 1.1-1.38 2.6-2 1.48-.65 3.17-.65 1.76 0 3.22.72 1.5.68 2.56 2.1 1.07 1.4 1.66 3.55.6 2.1.6 4.93zm-3.12-.06q0-4.23-1.42-6.37-1.4-2.18-3.64-2.18-.97 0-1.88.5-.88.48-1.56 1.55-.68 1.04-1.1 2.66-.4 1.6-.4 3.84 0 2.63.43 4.42.45 1.74 1.17 2.78.7 1.04 1.62 1.5.9.42 1.9.42 2.3 0 3.6-2.1 1.3-2.16 1.3-7.03z" style="line-height:125%;-inkscape-font-specification:'Concourse T4, Normal';text-align:start" font-family="Concourse T4" letter-spacing="0" word-spacing="0"/><path fill="#404030" d="M620.7 595.13q0 3.1-.6 5.33-.6 2.2-1.67 3.64-1.07 1.43-2.57 2.12-1.46.68-3.22.68-1.7 0-3.18-.62-1.5-.62-2.6-1.98-1.1-1.4-1.76-3.64-.65-2.24-.65-5.53 0-3.02.65-5.16.65-2.15 1.76-3.5 1.1-1.38 2.6-2 1.5-.65 3.18-.65 1.76 0 3.22.72 1.5.68 2.57 2.1 1.07 1.4 1.66 3.55.6 2.1.6 4.93zm-3.12-.06q0-4.23-1.43-6.37-1.4-2.18-3.64-2.18-.96 0-1.87.5-.88.48-1.56 1.55-.68 1.04-1.1 2.66-.4 1.6-.4 3.84 0 2.63.43 4.42.45 1.74 1.17 2.78.7 1.04 1.62 1.5.9.42 1.88.42 2.3 0 3.6-2.1 1.3-2.16 1.3-7.03z" style="line-height:125%;-inkscape-font-specification:'Concourse T4, Normal';text-align:start" font-family="Concourse T4" letter-spacing="0" word-spacing="0"/><path fill="#404030" d="M642.04 586.6q-1.56 0-3.02.54-1.43.55-2.54 1.66-1.07 1.1-1.75 2.82-.65 1.7-.65 3.97 0 1.9.58 3.5.62 1.56 1.7 2.7 1.1 1.1 2.6 1.72 1.5.62 3.28.62 1.65 0 2.9-.4 1.26-.38 1.94-1.2v-5.26h-5.92v-2.67h9.04v9.15q-1.56 1.46-3.54 2.3-1.95.85-4.6.85-2.6 0-4.67-.9-2.05-.95-3.52-2.5-1.43-1.57-2.2-3.6-.8-2-.8-4.18 0-2.54.8-4.68.8-2.18 2.27-3.77 1.46-1.63 3.54-2.54 2.07-.9 4.6-.9 1.14 0 2.22.22 1.07.2 1.98.55.94.33 1.7.75.77.4 1.26.75l-.78 2.7q-.4-.33-1-.72-.63-.4-1.47-.7-.8-.34-1.8-.57-1-.2-2.16-.2z" style="line-height:125%;-inkscape-font-specification:'Concourse T4, Normal';text-align:start" font-family="Concourse T4" letter-spacing="0" word-spacing="0"/><path fill="#404030" d="M657.64 591.7v14.7h-2.93V592.1l2.94-.4zm-3.4-5.5q0-.82.54-1.37.58-.58 1.4-.58.8 0 1.36.58.6.55.6 1.37 0 .8-.6 1.4-.55.55-1.36.55-.82 0-1.4-.56-.55-.6-.55-1.4z" style="line-height:125%;-inkscape-font-specification:'Concourse T4, Normal';text-align:start" font-family="Concourse T4" letter-spacing="0" word-spacing="0"/><path fill="#404030" d="M666.27 586.78v5.07h3.4v2.28h-3.4v12.28h-2.93v-12.27h-2.92v-1.34l2.92-1.1v-4.07l2.93-.85z" style="line-height:125%;-inkscape-font-specification:'Concourse T4, Normal';text-align:start" font-family="Concourse T4" letter-spacing="0" word-spacing="0"/><path fill="#404030" d="M692.7 590.68q0 1.56-.6 2.83-.54 1.28-1.58 2.2-1 .9-2.44 1.38-1.43.46-3.18.46h-2.12v8.87h-3.05v-22.1h5.46q1.68 0 3.04.47 1.4.42 2.38 1.26 1 .82 1.52 2.02.56 1.17.56 2.63zm-3.2.07q0-1.82-1.16-2.83-1.17-1.04-3.12-1.04h-2.44v8.1h2.28q.88 0 1.7-.24.8-.22 1.42-.7.62-.5.97-1.3.36-.82.36-2z" style="line-height:125%;-inkscape-font-specification:'Concourse T4, Normal';text-align:start" font-family="Concourse T4" letter-spacing="0" word-spacing="0"/><path fill="#404030" d="M704.1 591.6v3.05h-1.05q-.72.1-1.4.48-.68.36-1.27.98-.55.6-.97 1.37-.4.78-.6 1.7v7.24h-2.93v-14.55h2.5l.26 3.02h.23q.3-.65.78-1.23.48-.62 1.07-1.04.6-.46 1.24-.72.7-.3 1.37-.3h.8z" style="line-height:125%;-inkscape-font-specification:'Concourse T4, Normal';text-align:start" font-family="Concourse T4" letter-spacing="0" word-spacing="0"/><path fill="#404030" d="M718.96 599.26q0 1.66-.55 3.06-.5 1.4-1.46 2.4-.9 1-2.17 1.6-1.24.55-2.64.55-1.43 0-2.7-.56-1.23-.57-2.17-1.58-.9-1-1.43-2.4-.52-1.4-.52-3.06 0-1.7.5-3.12.52-1.46 1.4-2.5.9-1.07 2.14-1.66 1.23-.58 2.66-.58 1.6 0 2.86.6 1.3.6 2.2 1.64.92 1.04 1.4 2.5.5 1.43.5 3.12zm-3-.03q0-2.44-1.06-3.93-1.04-1.5-2.9-1.5-.84 0-1.52.42-.7.4-1.17 1.14-.48.72-.74 1.72-.26.98-.26 2.15 0 2.37 1.04 3.8 1.04 1.43 2.8 1.43 1.65 0 2.72-1.4 1.1-1.4 1.1-3.83z" style="line-height:125%;-inkscape-font-specification:'Concourse T4, Normal';text-align:start" font-family="Concourse T4" letter-spacing="0" word-spacing="0"/><path fill="#404030" d="M722.38 592.08l2.92-.4v15.28q0 1.17-.16 2.05-.16.92-.42 1.6-.26.7-.65 1.2-.36.53-.75.95l-2.73.4v-.9q.93-.7 1.36-2 .42-1.3.42-3.48v-14.7zm-.5-5.88q0-.82.56-1.37.6-.58 1.4-.58.8 0 1.37.58.6.55.6 1.37 0 .8-.6 1.4-.55.55-1.36.55-.8 0-1.4-.56-.55-.6-.55-1.4z" style="line-height:125%;-inkscape-font-specification:'Concourse T4, Normal';text-align:start" font-family="Concourse T4" letter-spacing="0" word-spacing="0"/><path fill="#404030" d="M731.72 599.94q0 1.27.33 2.15.32.83.84 1.35.54.52 1.26.75.75.23 1.6.23.93 0 1.97-.42 1.08-.45 1.8-1.13h.1l.54 2.34q-.8.76-2.08 1.2-1.24.47-2.77.47-1.33 0-2.54-.43-1.18-.42-2.1-1.3-.9-.87-1.45-2.27-.52-1.4-.52-3.35 0-1.8.5-3.28.5-1.5 1.42-2.57.9-1.07 2.1-1.66 1.25-.6 2.68-.6 1.3 0 2.34.45 1.04.46 1.75 1.27.75.78 1.14 1.85.4 1.07.4 2.28 0 .48-.08 1.26-.03.76-.26 1.44h-9zm6.44-2.08q.13-.97-.07-1.72-.17-.75-.6-1.27-.38-.52-.97-.78-.55-.3-1.17-.3-.75 0-1.4.33-.6.3-1.1.84-.46.55-.72 1.3-.26.72-.3 1.6h6.32z" style="line-height:125%;-inkscape-font-specification:'Concourse T4, Normal';text-align:start" font-family="Concourse T4" letter-spacing="0" word-spacing="0"/><path fill="#404030" d="M753.67 595.2q-.7-.62-1.47-.98-.78-.35-1.72-.35-.88 0-1.66.42-.74.38-1.3 1.13-.55.7-.87 1.78-.33 1.05-.33 2.32 0 1.27.3 2.2.32.92.84 1.5.55.6 1.27.88.7.26 1.56.26 1.1 0 1.94-.4.87-.4 1.52-.93l.65 2.28q-.73.66-1.9 1.1-1.17.47-2.4.47-1.5 0-2.77-.52-1.24-.56-2.15-1.5-.87-.97-1.36-2.3-.5-1.34-.5-2.96 0-1.8.56-3.3.6-1.5 1.53-2.56.95-1.1 2.2-1.73 1.26-.6 2.62-.6 1.5 0 2.47.42.97.42 1.94 1.14l-.97 2.24z" style="line-height:125%;-inkscape-font-specification:'Concourse T4, Normal';text-align:start" font-family="Concourse T4" letter-spacing="0" word-spacing="0"/><path fill="#404030" d="M761.86 586.78v5.07h3.4v2.28h-3.4v12.28h-2.92v-12.27H756v-1.34l2.94-1.1v-4.07l2.92-.85z" style="line-height:125%;-inkscape-font-specification:'Concourse T4, Normal';text-align:start" font-family="Concourse T4" letter-spacing="0" word-spacing="0"/><path fill="#404030" d="M775.46 595.43q-1.04-.82-2-1.24-.95-.43-1.9-.43-1.04 0-1.56.45-.48.43-.48.98 0 .42.26.78.26.32.7.68.47.33 1.08.72.65.35 1.4.78 2.05 1.2 2.83 2.24.8 1.04.8 2.4 0 1-.42 1.8-.4.74-1.1 1.26-.7.5-1.6.75-.88.27-1.85.27-1.56 0-2.93-.52-1.33-.52-2.14-1.27l.88-2.18q.94.65 1.9 1.1 1 .46 2.2.46.97 0 1.62-.42.68-.46.68-1.24 0-.42-.3-.8-.25-.4-.74-.76-.46-.4-1.07-.74-.62-.36-1.3-.72-.9-.5-1.6-.94-.68-.5-1.17-.98-.45-.52-.68-1.1-.23-.6-.23-1.33 0-.82.3-1.53.32-.75.94-1.3.6-.55 1.45-.88.88-.32 2.02-.32 1.4 0 2.66.55 1.3.55 2.24 1.33l-.9 2.15z" style="line-height:125%;-inkscape-font-specification:'Concourse T4, Normal';text-align:start" font-family="Concourse T4" letter-spacing="0" word-spacing="0"/><path fill="none" stroke="#6789c8" stroke-width="2" d="M138.26 932.3v-49.94h737.3v49.94"/><path fill="none" stroke="#6789c8" stroke-opacity=".998" stroke-width="2" d="M506.97 782.05v100"/><path fill="#fbd140" d="M466.98 726.36c-3.74 0-6.74 3.02-6.74 6.76v35.03c0 3.75 3 6.76 6.74 6.76h21.85c3.5 0 6.74-3.22 6.74-6.73v-19.1l5.13-4.86v-11.08c0-3.74-3-6.76-6.75-6.76h-26.97z"/><path fill="#ffe9a1" d="M465.75 727.96l17.83 5.9c3.36 1.12 6.06 5.03 6.06 8.76v34.08c0 3.74-2.7 5.85-6.06 4.74l-17.83-5.92c-3.35-1.1-6.05-5-6.05-8.75V732.7c0-3.74 2.7-5.85 6.05-4.74z"/><path fill="#404030" d="M508.62 742.92v22.5h-2.92v-22.1l2.92-.4z" style="line-height:125%;-inkscape-font-specification:'Concourse T4, Normal';text-align:start" font-family="Concourse T4" letter-spacing="0" word-spacing="0"/><path fill="#404030" d="M524.53 764.2l-1.98 1.7q-.5-.33-.9-.8-.44-.5-.7-1.25h-.13q-.74 1-1.88 1.53-1.1.5-2.34.5-.88 0-1.7-.3-.8-.3-1.42-.85-.6-.55-.98-1.37-.35-.8-.35-1.85 0-.8.3-1.6.3-.83 1-1.48.7-.68 1.85-1.1 1.17-.42 2.86-.42.5 0 1.14.06.65.03 1.2.1v-1.43q0-.8-.26-1.33-.23-.56-.62-.88-.4-.36-.88-.5-.48-.15-.94-.15-.94 0-1.88.4-.95.35-2 1.03l-.96-2.18q1.04-.62 2.34-1.1 1.3-.52 3.05-.52.9 0 1.8.26.87.26 1.55.84.68.6 1.1 1.5.43.87.43 2.14v6.7q0 .84.4 1.43.4.55.9.8v.14zm-4.03-5.03q-.46-.06-1.1-.13-.66-.06-1.27-.06-1.56 0-2.38.7-.8.7-.8 1.8 0 1.04.64 1.53.64.5 1.58.5 1.14 0 2.02-.53.88-.52 1.3-1.4v-2.4z" style="line-height:125%;-inkscape-font-specification:'Concourse T4, Normal';text-align:start" font-family="Concourse T4" letter-spacing="0" word-spacing="0"/><path fill="#404030" d="M530.07 751.8q.8-.7 1.72-1.05.93-.35 2.17-.35 1.36 0 2.47.55 1.1.55 1.88 1.6.78 1 1.2 2.43.46 1.4.46 3.1 0 1.68-.55 3.1-.52 1.44-1.5 2.48-.97 1.04-2.3 1.62-1.34.6-2.93.6-1.33 0-2.83-.44-1.5-.42-2.9-1.36V743.3l2.94-.38v8.87h.17zm-.16 10.75q.5.4 1.2.6.72.18 1.5.18.9 0 1.7-.32.8-.32 1.4-.97.6-.68.93-1.7.36-1.03.36-2.43 0-1.07-.24-1.98-.2-.94-.65-1.6-.44-.67-1.2-1.03-.7-.4-1.78-.4-.9 0-1.82.45-.9.46-1.4.95v8.25z" style="line-height:125%;-inkscape-font-specification:'Concourse T4, Normal';text-align:start" font-family="Concourse T4" letter-spacing="0" word-spacing="0"/><path fill="#404030" d="M550.88 756.25v2.73h-8.45v-2.73h8.45z" style="line-height:125%;-inkscape-font-specification:'Concourse T4, Normal';text-align:start" font-family="Concourse T4" letter-spacing="0" word-spacing="0"/><path fill="#404030" d="M569.88 754.13q0 3.1-.6 5.33-.6 2.2-1.67 3.64-1.06 1.43-2.56 2.12-1.46.68-3.22.68-1.7 0-3.18-.62-1.5-.62-2.6-1.98-1.1-1.4-1.76-3.64-.65-2.24-.65-5.53 0-3.02.65-5.16.65-2.15 1.76-3.5 1.1-1.38 2.6-2 1.5-.65 3.18-.65 1.76 0 3.22.72 1.5.68 2.57 2.1 1.08 1.4 1.67 3.55.6 2.1.6 4.93zm-3.12-.06q0-4.23-1.43-6.37-1.4-2.18-3.64-2.18-.98 0-1.9.5-.87.48-1.55 1.55-.68 1.04-1.1 2.66-.4 1.6-.4 3.84 0 2.63.43 4.42.45 1.74 1.17 2.78.7 1.04 1.62 1.5.9.42 1.9.42 2.3 0 3.6-2.1 1.3-2.16 1.3-7.03z" style="line-height:125%;-inkscape-font-specification:'Concourse T4, Normal';text-align:start" font-family="Concourse T4" letter-spacing="0" word-spacing="0"/><path fill="#404030" d="M577.9 765.4v-19.3l-4 .46-.2-2.63 6.64-.85.56.4v21.93h-3z" style="line-height:125%;-inkscape-font-specification:'Concourse T4, Normal';text-align:start" font-family="Concourse T4" letter-spacing="0" word-spacing="0"/><path fill="#404030" d="M595.7 756.25v2.73h-8.46v-2.73h8.45z" style="line-height:125%;-inkscape-font-specification:'Concourse T4, Normal';text-align:start" font-family="Concourse T4" letter-spacing="0" word-spacing="0"/><path fill="#404030" d="M607.1 757.06l-3.22 8.8h-.97l-5.8-15h3l3.33 9.12h.13l3.25-9.32h.85l3.12 9.32h.13l3.12-9.13h3.03l-5.82 15.02h-.98l-2.95-8.8h-.2z" style="line-height:125%;-inkscape-font-specification:'Concourse T4, Normal';text-align:start" font-family="Concourse T4" letter-spacing="0" word-spacing="0"/><path fill="#404030" d="M621.3 758.94q0 1.27.32 2.15.33.83.85 1.35.55.52 1.27.75.74.23 1.6.23.93 0 1.97-.42 1.08-.45 1.8-1.13h.1l.55 2.34q-.8.76-2.08 1.2-1.24.47-2.76.47-1.33 0-2.53-.43-1.17-.42-2.08-1.3-.92-.87-1.47-2.27-.52-1.4-.52-3.35 0-1.8.5-3.28.52-1.5 1.43-2.57.9-1.07 2.1-1.66 1.24-.6 2.67-.6 1.3 0 2.34.45 1.04.46 1.76 1.27.75.78 1.14 1.85.4 1.07.4 2.28 0 .48-.08 1.26-.03.76-.26 1.44h-9zm6.43-2.08q.13-.97-.06-1.72-.16-.75-.6-1.27-.38-.52-.96-.78-.54-.3-1.16-.3-.75 0-1.4.33-.62.3-1.1.84-.46.55-.72 1.3-.26.72-.3 1.6h6.3z" style="line-height:125%;-inkscape-font-specification:'Concourse T4, Normal';text-align:start" font-family="Concourse T4" letter-spacing="0" word-spacing="0"/><path fill="#404030" d="M636.65 751.8q.8-.7 1.72-1.05.94-.35 2.18-.35 1.36 0 2.47.55 1.1.55 1.88 1.6.78 1 1.2 2.43.46 1.4.46 3.1 0 1.68-.55 3.1-.5 1.44-1.5 2.48-.96 1.04-2.3 1.62-1.33.6-2.92.6-1.33 0-2.83-.44-1.5-.42-2.9-1.36V743.3l2.93-.38v8.87h.17zm-.17 10.75q.5.4 1.2.6.72.18 1.5.18.9 0 1.7-.32.8-.32 1.4-.97.6-.68.93-1.7.37-1.03.37-2.43 0-1.07-.23-1.98-.2-.94-.65-1.6-.46-.67-1.2-1.03-.73-.4-1.8-.4-.9 0-1.82.45-.9.46-1.4.95v8.25z" style="line-height:125%;-inkscape-font-specification:'Concourse T4, Normal';text-align:start" font-family="Concourse T4" letter-spacing="0" word-spacing="0"/><path fill="#404030" d="M657.55 754.43q-1.04-.82-2-1.24-.96-.43-1.9-.43-1.04 0-1.56.45-.5.43-.5.98 0 .42.26.78.26.32.72.68.45.33 1.07.72.65.35 1.4.78 2.05 1.2 2.83 2.24.8 1.04.8 2.4 0 1-.4 1.8-.4.74-1.12 1.26-.68.5-1.6.75-.87.27-1.84.27-1.56 0-2.93-.52-1.34-.52-2.15-1.27l.87-2.18q.95.65 1.92 1.1.98.46 2.18.46.97 0 1.62-.42.7-.46.7-1.24 0-.42-.3-.8-.27-.4-.75-.76-.47-.4-1.1-.74-.6-.36-1.3-.72-.9-.5-1.58-.94-.68-.5-1.17-.98-.45-.52-.68-1.1-.23-.6-.23-1.33 0-.82.3-1.53.32-.75.94-1.3.6-.55 1.46-.88.88-.32 2-.32 1.4 0 2.68.55 1.3.55 2.24 1.33l-.9 2.15z" style="line-height:125%;-inkscape-font-specification:'Concourse T4, Normal';text-align:start" font-family="Concourse T4" letter-spacing="0" word-spacing="0"/><path fill="#404030" d="M664.9 750.7v14.7h-2.92V751.1l2.92-.4zm-3.4-5.5q0-.82.54-1.37.6-.58 1.4-.58.8 0 1.36.58.6.55.6 1.37 0 .8-.6 1.4-.55.55-1.36.55-.8 0-1.4-.56-.55-.6-.55-1.4z" style="line-height:125%;-inkscape-font-specification:'Concourse T4, Normal';text-align:start" font-family="Concourse T4" letter-spacing="0" word-spacing="0"/><path fill="#404030" d="M673.53 745.78v5.07h3.4v2.28h-3.4v12.28h-2.93v-12.27h-2.92v-1.34l2.92-1.1v-4.07l2.93-.85z" style="line-height:125%;-inkscape-font-specification:'Concourse T4, Normal';text-align:start" font-family="Concourse T4" letter-spacing="0" word-spacing="0"/><path fill="#404030" d="M681.4 758.94q0 1.27.34 2.15.32.83.84 1.35.55.52 1.27.75.75.23 1.6.23.93 0 1.97-.42 1.08-.45 1.8-1.13h.1l.54 2.34q-.8.76-2.08 1.2-1.23.47-2.76.47-1.33 0-2.54-.43-1.17-.42-2.08-1.3-.9-.87-1.46-2.27-.52-1.4-.52-3.35 0-1.8.5-3.28.5-1.5 1.42-2.57.9-1.07 2.1-1.66 1.25-.6 2.68-.6 1.3 0 2.34.45 1.04.46 1.75 1.27.76.78 1.15 1.85.4 1.07.4 2.28 0 .48-.08 1.26-.03.76-.26 1.44h-9zm6.45-2.08q.13-.97-.07-1.72-.16-.75-.58-1.27-.4-.52-.98-.78-.55-.3-1.17-.3-.75 0-1.4.33-.6.3-1.1.84-.46.55-.72 1.3-.26.72-.3 1.6h6.32z" style="line-height:125%;-inkscape-font-specification:'Concourse T4, Normal';text-align:start" font-family="Concourse T4" letter-spacing="0" word-spacing="0"/><path fill="#15af90" d="M837.26 931.05c-3.74 0-6.75 3-6.75 6.76v35.04c0 3.74 3.02 6.76 6.76 6.76h21.84c3.5 0 6.75-3.24 6.75-6.74v-19.1l5.12-4.86v-11.1c0-3.74-3-6.75-6.74-6.75h-26.97z"/><rect width="31.545" height="47.563" x="874.432" y="655.359" fill="#a2dfd3" ry="6.743" rx="6.381" transform="matrix(.949 .315 0 1 0 0)"/><path fill="#404030" d="M876.13 968.37q0-.8.56-1.36.57-.58 1.38-.58.82 0 1.37.6.58.54.58 1.35 0 .82-.58 1.4-.55.55-1.37.55-.8 0-1.4-.55-.55-.58-.55-1.4z" style="line-height:125%;-inkscape-font-specification:'Concourse T4, Normal';text-align:start" font-family="Concourse T4" letter-spacing="0" word-spacing="0"/><path fill="#404030" d="M889.8 967.63q.92 0 1.86-.36.94-.36 1.7-.98v-7.5q-.5-.47-1.28-.83-.78-.35-1.72-.35-.97 0-1.75.45-.74.42-1.26 1.2t-.8 1.86q-.27 1.04-.27 2.24 0 2.3 1 3.28t2.54.98zm-4.28 5.4q.88.67 1.7.93.8.26 1.84.26.85 0 1.6-.22.77-.23 1.36-.75.62-.5.97-1.3t.35-1.98v-1.37h-.16q-.6.6-1.2.9-.6.34-1.15.5-.55.16-1.04.2-.45.03-.8.03-2.64 0-4.2-1.8-1.52-1.8-1.52-5.22 0-1.65.45-3.1.5-1.5 1.37-2.6.9-1.12 2.17-1.77 1.3-.65 2.93-.65.9 0 1.82.36.9.36 1.66 1.1h.16l1.07-1.2 1.38.23v14.3q0 1.46-.56 2.73-.55 1.3-1.52 2.2-.98.95-2.3 1.47-1.3.55-2.8.55-1.53 0-2.7-.4-1.17-.38-2.08-1.1l1.13-2.3h.07z" style="line-height:125%;-inkscape-font-specification:'Concourse T4, Normal';text-align:start" font-family="Concourse T4" letter-spacing="0" word-spacing="0"/><path fill="#404030" d="M903.27 955.37v14.73h-2.92v-14.34l2.92-.4zm-3.4-5.5q0-.8.54-1.35.6-.6 1.4-.6.82 0 1.37.6.6.55.6 1.36 0 .8-.6 1.4-.55.55-1.36.55-.8 0-1.4-.55-.54-.6-.54-1.4z" style="line-height:125%;-inkscape-font-specification:'Concourse T4, Normal';text-align:start" font-family="Concourse T4" letter-spacing="0" word-spacing="0"/><path fill="#404030" d="M911.9 950.47v5.07h3.4v2.27h-3.4v12.3h-2.93v-12.3h-2.92v-1.32l2.92-1.1v-4.07l2.93-.83z" style="line-height:125%;-inkscape-font-specification:'Concourse T4, Normal';text-align:start" font-family="Concourse T4" letter-spacing="0" word-spacing="0"/><path fill="#e74c3c" d="M50.2 938.95l-2.26-.38v-1h5.6v1l-1.88.38-4.85 16.27h-1.6L42 943.87l-3.4 11.35H37l-4.6-16.27-1.9-.38v-1h6.6v1l-2.04.38 3.15 11.6h.4l2.74-8.9-.75-2.7-1.66-.38v-1h6.35v1l-2.04.38 3.15 11.6h.4l3.4-11.6z" style="line-height:125%;-inkscape-font-specification:'Equity Caps A, Normal';text-align:center" font-family="Equity Caps A" letter-spacing="0" word-spacing="0" text-anchor="middle"/><path fill="#e74c3c" d="M55.48 946.42q0-2.1.68-3.8.67-1.7 1.82-2.87 1.15-1.2 2.68-1.83 1.55-.65 3.27-.65 1.83 0 3.38.63 1.56.62 2.68 1.82 1.13 1.18 1.75 2.88.63 1.7.63 3.82 0 2.28-.68 3.98-.67 1.7-1.82 2.85-1.13 1.12-2.68 1.7-1.52.57-3.25.57-1.72 0-3.27-.6-1.53-.6-2.68-1.75-1.15-1.15-1.82-2.85-.68-1.7-.68-3.9zm2.93-.02q0 2.1.46 3.57.45 1.48 1.2 2.43.77.95 1.77 1.4 1 .42 2.1.42t2.1-.35q1-.35 1.75-1.22.75-.9 1.2-2.4.45-1.53.45-3.85 0-2.15-.42-3.65t-1.17-2.43q-.72-.95-1.72-1.37-1-.43-2.17-.43-1.1 0-2.1.45-1 .43-1.77 1.38-.75.92-1.2 2.42-.45 1.5-.45 3.63z" style="line-height:125%;-inkscape-font-specification:'Equity Caps A, Normal';text-align:center" font-family="Equity Caps A" letter-spacing="0" word-spacing="0" text-anchor="middle"/><path fill="#e74c3c" d="M84.3 947q.74.35 1.34 1.22.62.88 1.22 1.93.6 1.02 1.25 2.05.66 1.02 1.46 1.65l1.58.37v1h-3.78q-.57-.42-1.1-1.12-.5-.7-.97-1.5-.5-.83-.96-1.68-.48-.87-.98-1.62-.5-.75-1.05-1.33-.54-.6-1.16-.87h-.35v6.75l2.44.37v1h-7.3v-1l2.2-.37v-14.9l-2.2-.38v-1h7.87q.7 0 1.56.2.88.18 1.65.7.8.5 1.36 1.4.55.9.55 2.33 0 .62-.24 1.32-.25.68-.8 1.33-.52.62-1.4 1.12-.87.5-2.15.75v.28zm-3.5-1.28h1.7q1 0 1.66-.32.68-.33 1.1-.83.43-.5.6-1.1.2-.62.2-1.2 0-.95-.22-1.57-.2-.65-.58-1.03-.37-.4-.87-.55-.5-.17-1.04-.17H80.8v6.77z" style="line-height:125%;-inkscape-font-specification:'Equity Caps A, Normal';text-align:center" font-family="Equity Caps A" letter-spacing="0" word-spacing="0" text-anchor="middle"/><path fill="#e74c3c" d="M98.9 947.07v6.78l2.18.37v1h-7.03v-1l2.2-.37v-14.9l-2.2-.38v-1h7.03v1l-2.18.38v6.77h.4l6.78-6.77-1.75-.38v-1h5.7v1l-2.03.38-6.8 6.8 8.05 8.1 2.03.37v1H104v-1l1.78-.37-6.55-6.78h-.33z" style="line-height:125%;-inkscape-font-specification:'Equity Caps A, Normal';text-align:center" font-family="Equity Caps A" letter-spacing="0" word-spacing="0" text-anchor="middle"/><path fill="#e74c3c" d="M120.98 937.57v1l-2.2.38v14.9l2.2.37v1h-7.05v-1l2.2-.37v-14.9l-2.2-.38v-1h7.05z" style="line-height:125%;-inkscape-font-specification:'Equity Caps A, Normal';text-align:center" font-family="Equity Caps A" letter-spacing="0" word-spacing="0" text-anchor="middle"/><path fill="#e74c3c" d="M138.88 950.5v-11.55l-2.2-.38v-1h5.75v1l-2.18.38v16.32h-1.12l-11.38-13.97h-.35v12.55l2.2.37v1h-5.55v-1l1.98-.37v-14.9l-1.98-.38v-1h3.98l10.5 12.93h.35z" style="line-height:125%;-inkscape-font-specification:'Equity Caps A, Normal';text-align:center" font-family="Equity Caps A" letter-spacing="0" word-spacing="0" text-anchor="middle"/><path fill="#e74c3c" d="M154.8 954.15q.87 0 1.8-.25.94-.28 1.62-.85v-5.25l-2.93-.38v-1h7.5v1l-1.93.38v6.3q-.48.2-1.13.45-.65.25-1.5.47-.85.2-1.9.35-1.05.15-2.32.15-1.73 0-3.25-.6-1.53-.6-2.65-1.75-1.13-1.15-1.8-2.85-.65-1.7-.65-3.9 0-2.1.72-3.8.74-1.7 2-2.87 1.24-1.2 2.92-1.83 1.67-.65 3.55-.65.72 0 1.5.15.8.15 1.57.4.78.23 1.5.55.75.33 1.4.68v3.52h-.82q-.38-1.12-.95-1.87-.58-.78-1.28-1.25-.68-.5-1.43-.7-.75-.23-1.5-.23-1.25 0-2.4.45-1.13.43-2 1.38-.85.92-1.38 2.42-.5 1.5-.5 3.63 0 2.1.5 3.57.5 1.45 1.34 2.4.85.93 1.98 1.35 1.12.43 2.37.43z" style="line-height:125%;-inkscape-font-specification:'Equity Caps A, Normal';text-align:center" font-family="Equity Caps A" letter-spacing="0" word-spacing="0" text-anchor="middle"/><path fill="#e74c3c" d="M181.9 954.15q2.1 0 3.56-1.03 1.48-1.02 2.13-2.95h.8v3.43q-.7.4-1.4.75t-1.5.62q-.8.25-1.76.4-.95.15-2.13.15-1.76 0-3.34-.6-1.57-.6-2.75-1.75-1.14-1.15-1.8-2.85-.7-1.7-.7-3.9 0-2.1.74-3.8.75-1.7 2-2.87 1.25-1.2 2.92-1.83 1.68-.65 3.55-.65.74 0 1.5.15.8.15 1.6.4.76.23 1.5.55.74.33 1.4.68v3.52h-.84q-.37-1.12-.95-1.87-.56-.78-1.26-1.25-.68-.5-1.43-.7-.74-.23-1.5-.23-1.24 0-2.4.48-1.1.45-2 1.42-.84.98-1.36 2.48-.5 1.47-.5 3.5 0 1.97.52 3.42.53 1.45 1.38 2.43.85.95 1.9 1.42 1.07.48 2.15.48z" style="line-height:125%;-inkscape-font-specification:'Equity Caps A, Normal';text-align:center" font-family="Equity Caps A" letter-spacing="0" word-spacing="0" text-anchor="middle"/><path fill="#e74c3c" d="M192.54 946.42q0-2.1.68-3.8.67-1.7 1.82-2.87 1.15-1.2 2.68-1.83 1.55-.65 3.27-.65 1.82 0 3.37.63 1.55.62 2.67 1.82 1.13 1.18 1.75 2.88.62 1.7.62 3.82 0 2.28-.68 3.98-.67 1.7-1.82 2.85-1.13 1.12-2.68 1.7-1.52.57-3.25.57t-3.28-.6q-1.53-.6-2.68-1.75-1.15-1.15-1.82-2.85-.68-1.7-.68-3.9zm2.93-.02q0 2.1.45 3.57.45 1.48 1.2 2.43.77.95 1.77 1.4 1 .42 2.1.42t2.1-.35q1-.35 1.74-1.22.75-.9 1.2-2.4.45-1.53.45-3.85 0-2.15-.43-3.65t-1.18-2.43q-.73-.95-1.73-1.37-1-.43-2.18-.43-1.1 0-2.1.45-1 .43-1.78 1.38-.75.92-1.2 2.42-.45 1.5-.45 3.63z" style="line-height:125%;-inkscape-font-specification:'Equity Caps A, Normal';text-align:center" font-family="Equity Caps A" letter-spacing="0" word-spacing="0" text-anchor="middle"/><path fill="#e74c3c" d="M217.87 947.55v6.3l2.43.37v1H213v-1l2.2-.37v-14.9l-2.2-.38v-1h6.4q1.1 0 2.22.28 1.13.27 2.03.87.92.6 1.5 1.55.57.95.57 2.33 0 1.12-.45 2.05-.42.9-1.27 1.55-.83.65-2.03 1-1.2.35-2.7.35h-1.4zm0-1.3h1.63q.7 0 1.32-.23.65-.25 1.13-.7.47-.45.75-1.1.27-.65.27-1.47 0-1.03-.27-1.73-.25-.72-.75-1.17-.48-.45-1.15-.65-.68-.2-1.53-.2h-1.4v7.25z" style="line-height:125%;-inkscape-font-specification:'Equity Caps A, Normal';text-align:center" font-family="Equity Caps A" letter-spacing="0" word-spacing="0" text-anchor="middle"/><path fill="#e74c3c" d="M240.03 938.95l-2.22-.38v-1h5.6v1l-1.87.38-4.72 8.07v6.83l2.2.37v1h-7.04v-1l2.2-.37v-6.75l-4.78-8.15-1.82-.38v-1h6.6v1l-2.03.38 3.7 6.37h.4l3.8-6.37z" style="line-height:125%;-inkscape-font-specification:'Equity Caps A, Normal';text-align:center" font-family="Equity Caps A" letter-spacing="0" word-spacing="0" text-anchor="middle"/><path fill="#e74c3c" d="M3.18 980.07q0-1.55.53-2.8.56-1.25 1.46-2.12.92-.9 2.15-1.38 1.26-.47 2.66-.47 1.45 0 2.67.47 1.25.45 2.15 1.33.9.87 1.4 2.15.5 1.25.5 2.82 0 1.65-.55 2.93-.52 1.25-1.45 2.1-.9.85-2.12 1.27-1.23.43-2.6.43-1.4 0-2.65-.43-1.22-.45-2.14-1.3-.9-.87-1.45-2.12-.52-1.25-.52-2.88zm2.75-.02q0 1.32.33 2.32.32 1 .87 1.7.55.68 1.28 1.03t1.56.35q.8 0 1.52-.28.73-.3 1.28-.95.55-.65.87-1.67.33-1.03.33-2.5 0-1.35-.33-2.38-.3-1.05-.85-1.72-.52-.7-1.27-1.05-.72-.35-1.54-.35-.83 0-1.55.35-.72.35-1.27 1.05-.55.7-.87 1.72-.33 1.03-.33 2.38z" style="line-height:125%;-inkscape-font-specification:'Equity Caps A, Normal';text-align:center" font-family="Equity Caps A" letter-spacing="0" word-spacing="0" text-anchor="middle"/><path fill="#e74c3c" d="M30.43 973.52l.35 3.1H29.7l-1.32-1.87H24.4v4.47h2.53l.67-1.42h.8v4.17h-.8l-.67-1.57H24.4v4.75l1.88.37v.95h-6.15v-.95l1.8-.37v-10.3l-1.8-.38v-.95h10.3z" style="line-height:125%;-inkscape-font-specification:'Equity Caps A, Normal';text-align:center" font-family="Equity Caps A" letter-spacing="0" word-spacing="0" text-anchor="middle"/><path fill="#e74c3c" d="M51.03 973.52l.35 3.1H50.3L49 974.75H45v4.47h2.53l.68-1.42h.8v4.17h-.8l-.67-1.57H45v4.75l1.88.37v.95h-6.15v-.95l1.8-.37v-10.3l-1.8-.38v-.95h10.3zm9.6 0v.95l-1.77.38v10.3l1.77.37v.95h-6.05v-.95l1.8-.37v-10.3l-1.8-.38v-.95h6.05z" style="line-height:125%;-inkscape-font-specification:'Equity Caps A, Normal';text-align:center" font-family="Equity Caps A" letter-spacing="0" word-spacing="0" text-anchor="middle"/><path fill="#e74c3c" d="M64.32 986.47v-.95l1.8-.37v-10.3l-1.8-.38v-.95h6.15v.95l-1.88.38v10.4h3.87l1.67-2.43h1.08l-.53 3.65H64.3z" style="line-height:125%;-inkscape-font-specification:'Equity Caps A, Normal';text-align:center" font-family="Equity Caps A" letter-spacing="0" word-spacing="0" text-anchor="middle"/><path fill="#e74c3c" d="M86.86 985.25l1.45-2.23h1.1l-.54 3.45H78.04v-.95l1.8-.37v-10.3l-1.8-.38v-.95H88.2l.34 3.1H87.5l-1.3-1.87h-3.9v4.47h2.4l.7-1.42h.8v4.17h-.8l-.7-1.57h-2.4v4.85h4.56z" style="line-height:125%;-inkscape-font-specification:'Equity Caps A, Normal';text-align:center" font-family="Equity Caps A" letter-spacing="0" word-spacing="0" text-anchor="middle"/><path fill="#e74c3c" d="M92.97 982.12h1.2q.37 1.65 1.22 2.55.84.9 2.12.9 1 0 1.6-.55.6-.57.6-1.45 0-.4-.13-.72-.1-.35-.4-.65-.3-.33-.86-.63-.52-.32-1.37-.7-1.85-.8-2.78-1.7-.93-.9-.93-2.25 0-.62.27-1.27.28-.65.8-1.18.53-.52 1.28-.85.77-.32 1.75-.32.85 0 1.4.22.57.2 1 .38l.9-.38h.65l.45 3.93h-1.18q-.48-1.5-1.3-2.2-.83-.7-1.83-.7-.88 0-1.43.47-.55.48-.55 1.38 0 .8.7 1.35.72.52 2.34 1.15 1.65.65 2.53 1.57.87.9.87 2.4 0 .98-.35 1.73-.33.72-.93 1.22-.6.48-1.43.73-.8.25-1.72.25-.65 0-1.35-.23-.7-.2-1.18-.52l-1.08.37h-.95v-4.3z" style="line-height:125%;-inkscape-font-specification:'Equity Caps A, Normal';text-align:center" font-family="Equity Caps A" letter-spacing="0" word-spacing="0" text-anchor="middle"/><path fill="#e74c3c" d="M120.85 982.22h-4.45l-1.05 2.68 2 .62v.95h-5.15v-.95l1.7-.62 4.6-11.38h1.52l4.58 11.63 1.5.37v.95h-5.8v-.95l1.67-.37-1.12-2.93zm-3.98-1.17h3.53l-1.63-4.23h-.2l-1.7 4.23z" style="line-height:125%;-inkscape-font-specification:'Equity Caps A, Normal';text-align:center" font-family="Equity Caps A" letter-spacing="0" word-spacing="0" text-anchor="middle"/><path fill="#e74c3c" d="M139.8 982.05v-6.95l-2.05-.63v-.95h5.2v.95l-1.78.63v11.55h-.75l-8.5-10h-.3v8.25l2.05.62v.95h-5.02v-.95l1.6-.62v-10.05l-1.6-.38v-.95h3.57l7.28 8.53h.3z" style="line-height:125%;-inkscape-font-specification:'Equity Caps A, Normal';text-align:center" font-family="Equity Caps A" letter-spacing="0" word-spacing="0" text-anchor="middle"/><path fill="#e74c3c" d="M146.1 986.47v-.95l1.8-.37v-10.3l-1.8-.38v-.95h5.98q1.67 0 3 .45 1.35.45 2.27 1.3.95.83 1.45 2.05.5 1.23.5 2.75 0 1.55-.57 2.75-.55 1.2-1.55 2.03-1 .8-2.38 1.22-1.35.4-2.95.4h-5.75zm5.75-1.32q.95 0 1.83-.28.87-.27 1.52-.87.68-.63 1.05-1.58.4-.97.4-2.37 0-1.28-.37-2.25-.35-.98-.98-1.63-.62-.67-1.47-1-.83-.32-1.78-.32h-1.67v10.3h1.47z" style="line-height:125%;-inkscape-font-specification:'Equity Caps A, Normal';text-align:center" font-family="Equity Caps A" letter-spacing="0" word-spacing="0" text-anchor="middle"/><path fill="#e74c3c" d="M180.04 973.52l.35 3.1h-1.1l-1.3-1.87h-4v4.47h2.54l.67-1.42h.8v4.17h-.8l-.66-1.57H174v4.75l1.9.37v.95h-6.16v-.95l1.8-.37v-10.3l-1.8-.38v-.95h10.3z" style="line-height:125%;-inkscape-font-specification:'Equity Caps A, Normal';text-align:center" font-family="Equity Caps A" letter-spacing="0" word-spacing="0" text-anchor="middle"/><path fill="#e74c3c" d="M183.36 980.07q0-1.55.53-2.8.54-1.25 1.44-2.12.92-.9 2.15-1.38 1.24-.47 2.64-.47 1.45 0 2.67.47 1.26.45 2.16 1.33.9.87 1.4 2.15.5 1.25.5 2.82 0 1.65-.55 2.93-.5 1.25-1.44 2.1-.9.85-2.12 1.27-1.23.43-2.6.43-1.4 0-2.65-.43-1.24-.45-2.16-1.3-.9-.87-1.45-2.12-.54-1.25-.54-2.88zm2.75-.02q0 1.32.34 2.32.32 1 .87 1.7.56.68 1.3 1.03.7.35 1.54.35.8 0 1.52-.28.73-.3 1.28-.95.55-.65.87-1.67.34-1.03.34-2.5 0-1.35-.33-2.38-.3-1.05-.84-1.72-.52-.7-1.27-1.05-.74-.35-1.56-.35-.83 0-1.55.35-.74.35-1.3 1.05-.54.7-.86 1.72-.33 1.03-.33 2.38z" style="line-height:125%;-inkscape-font-specification:'Equity Caps A, Normal';text-align:center" font-family="Equity Caps A" letter-spacing="0" word-spacing="0" text-anchor="middle"/><path fill="#e74c3c" d="M200.3 986.47v-.95l1.8-.37v-10.3l-1.8-.38v-.95h6.15v.95l-1.87.38v10.4h3.87l1.68-2.43h1.07l-.52 3.65H200.3z" style="line-height:125%;-inkscape-font-specification:'Equity Caps A, Normal';text-align:center" font-family="Equity Caps A" letter-spacing="0" word-spacing="0" text-anchor="middle"/><path fill="#e74c3c" d="M214.02 986.47v-.95l1.8-.37v-10.3l-1.8-.38v-.95H220q1.67 0 3 .45 1.35.45 2.27 1.3.95.83 1.45 2.05.5 1.23.5 2.75 0 1.55-.57 2.75-.55 1.2-1.55 2.03-1 .8-2.38 1.22-1.35.4-2.95.4h-5.75zm5.75-1.32q.95 0 1.83-.28.87-.27 1.52-.87.68-.63 1.05-1.58.4-.97.4-2.37 0-1.28-.37-2.25-.35-.98-.98-1.63-.62-.67-1.47-1-.83-.32-1.78-.32h-1.67v10.3h1.47z" style="line-height:125%;-inkscape-font-specification:'Equity Caps A, Normal';text-align:center" font-family="Equity Caps A" letter-spacing="0" word-spacing="0" text-anchor="middle"/><path fill="#e74c3c" d="M239.5 985.25l1.45-2.23h1.08l-.53 3.45h-10.82v-.95l1.8-.37v-10.3l-1.8-.38v-.95h10.17l.33 3.1h-1.05l-1.3-1.87h-3.88v4.47h2.4l.68-1.42h.8v4.17h-.8l-.68-1.57h-2.4v4.85h4.55z" style="line-height:125%;-inkscape-font-specification:'Equity Caps A, Normal';text-align:center" font-family="Equity Caps A" letter-spacing="0" word-spacing="0" text-anchor="middle"/><path fill="#e74c3c" d="M252.95 980.37q.53.23.95.85.45.63.9 1.38.45.72.93 1.45.47.7 1.05 1.1l1.12.37v.95h-3q-.75-.47-1.32-1.32-.55-.85-1.08-1.75-.52-.9-1.1-1.65-.55-.78-1.3-1.08h-.75v4.48l1.78.37v.95h-6.05v-.95l1.8-.37v-10.3l-1.8-.38v-.95h6.77q.55 0 1.25.15.7.13 1.33.5.65.38 1.07 1.05.45.65.45 1.7 0 1.08-.77 2.03-.75.92-2.23 1.2v.22zm-3.6-.87h1.38q.7 0 1.17-.23.5-.25.83-.6.32-.37.47-.8.15-.45.15-.87 0-1.18-.57-1.65-.58-.5-1.33-.5h-2.1v4.65z" style="line-height:125%;-inkscape-font-specification:'Equity Caps A, Normal';text-align:center" font-family="Equity Caps A" letter-spacing="0" word-spacing="0" text-anchor="middle"/><path fill="#e74c3c" d="M261.13 982.12h1.2q.38 1.65 1.23 2.55.85.9 2.12.9 1 0 1.6-.55.6-.57.6-1.45 0-.4-.12-.72-.1-.35-.4-.65-.3-.33-.85-.63-.52-.32-1.37-.7-1.85-.8-2.77-1.7-.93-.9-.93-2.25 0-.62.28-1.27t.8-1.18q.53-.52 1.28-.85.78-.32 1.75-.32.85 0 1.4.22.58.2 1 .38l.9-.38h.65l.45 3.93h-1.17q-.48-1.5-1.3-2.2-.83-.7-1.83-.7-.87 0-1.42.47-.54.48-.54 1.38 0 .8.7 1.35.72.52 2.35 1.15 1.66.65 2.53 1.57.88.9.88 2.4 0 .98-.34 1.73-.33.72-.93 1.22-.6.48-1.42.73-.8.25-1.72.25-.65 0-1.35-.23-.7-.2-1.17-.52l-1.08.37h-.95v-4.3z" style="line-height:125%;-inkscape-font-specification:'Equity Caps A, Normal';text-align:center" font-family="Equity Caps A" letter-spacing="0" word-spacing="0" text-anchor="middle"/><path fill="#15af90" d="M927.93 939.94v-1l2.2-.37v-14.9l-2.2-.38v-1h7.15v1l-2.3.37v15.07h5.65l2.52-3.72h1.1l-.9 4.92h-13.22z" style="line-height:125%;-inkscape-font-specification:'Equity Caps A, Normal';text-align:start" font-family="Equity Caps A" letter-spacing="0" word-spacing="0"/><path fill="#15af90" d="M944.88 931.14q0-2.1.67-3.8.68-1.7 1.83-2.87 1.15-1.2 2.67-1.83 1.55-.65 3.28-.65 1.82 0 3.37.62t2.68 1.82q1.12 1.18 1.75 2.88.62 1.7.62 3.82 0 2.28-.67 3.98-.68 1.7-1.83 2.85-1.12 1.12-2.67 1.7-1.53.57-3.25.57-1.73 0-3.28-.6-1.52-.6-2.67-1.75-1.15-1.16-1.83-2.86-.67-1.7-.67-3.9zm2.92-.02q0 2.1.45 3.57.45 1.47 1.2 2.42.78.95 1.78 1.4 1 .42 2.1.42t2.1-.35q1-.36 1.75-1.23.75-.9 1.2-2.4.45-1.53.45-3.85 0-2.15-.43-3.65-.42-1.5-1.17-2.43-.73-.95-1.73-1.37-1-.43-2.17-.43-1.1 0-2.1.45-1 .42-1.78 1.37-.75.92-1.2 2.42-.45 1.5-.45 3.62z" style="line-height:125%;-inkscape-font-specification:'Equity Caps A, Normal';text-align:start" font-family="Equity Caps A" letter-spacing="0" word-spacing="0"/><path fill="#15af90" d="M974.36 938.87q2.1 0 3.57-1.03 1.48-1.02 2.13-2.95h.8v3.42q-.68.4-1.4.75-.7.35-1.5.62-.8.24-1.75.4-.94.14-2.12.14-1.77 0-3.35-.6-1.57-.6-2.75-1.75-1.15-1.16-1.82-2.86-.68-1.7-.68-3.9 0-2.1.73-3.8.76-1.7 2-2.87 1.26-1.2 2.93-1.83 1.68-.65 3.55-.65.73 0 1.5.14.8.15 1.58.4.77.23 1.5.55.75.32 1.4.67v3.52h-.83q-.37-1.13-.95-1.88-.57-.78-1.27-1.25-.67-.5-1.42-.7-.75-.23-1.5-.23-1.25 0-2.4.48-1.12.45-2 1.42-.85.98-1.37 2.48-.5 1.47-.5 3.5 0 1.97.53 3.42t1.38 2.43q.86.95 1.9 1.42 1.08.47 2.16.47z" style="line-height:125%;-inkscape-font-specification:'Equity Caps A, Normal';text-align:start" font-family="Equity Caps A" letter-spacing="0" word-spacing="0"/><path fill="#15af90" d="M994.1 933.84h-5.6l-1.6 4.73 2.27.37v1h-5.6v-1l1.88-.37 5.6-16.28h1.62l5.85 16.27 1.9.37v1h-6.6v-1l2-.37-1.72-4.73zm-5.13-1.37h4.63l-2.15-6.18h-.4l-2.08 6.17z" style="line-height:125%;-inkscape-font-specification:'Equity Caps A, Normal';text-align:start" font-family="Equity Caps A" letter-spacing="0" word-spacing="0"/><path fill="#15af90" d="M1003.08 939.94v-1l2.2-.37v-14.9l-2.2-.38v-1h7.15v1l-2.3.37v15.07h5.65l2.52-3.72h1.1l-.9 4.92h-13.22z" style="line-height:125%;-inkscape-font-specification:'Equity Caps A, Normal';text-align:start" font-family="Equity Caps A" letter-spacing="0" word-spacing="0"/><path fill="#15af90" d="M1035.23 931.72q.72.35 1.32 1.22.63.88 1.23 1.93.6 1.02 1.25 2.05.65 1.02 1.45 1.65l1.57.37v1h-3.77q-.57-.42-1.1-1.12-.5-.7-.97-1.5-.47-.83-.94-1.68-.48-.87-.98-1.62-.5-.75-1.05-1.33-.55-.6-1.17-.88h-.35v6.75l2.46.37v1h-7.3v-1l2.2-.37v-14.9l-2.2-.38v-1h7.87q.68 0 1.55.2.88.17 1.65.7.8.5 1.35 1.4.55.9.55 2.32 0 .62-.25 1.32-.25.68-.8 1.33-.52.62-1.4 1.12-.87.5-2.15.74v.28zm-3.52-1.28h1.73q.97 0 1.65-.32.68-.33 1.1-.83.42-.5.6-1.1.2-.63.2-1.2 0-.96-.23-1.58-.2-.65-.57-1.03-.38-.4-.88-.56-.47-.17-1.02-.17h-2.58v6.77z" style="line-height:125%;-inkscape-font-specification:'Equity Caps A, Normal';text-align:start" font-family="Equity Caps A" letter-spacing="0" word-spacing="0"/><path fill="#15af90" d="M1055.82 938.74l2.28-3.47h1.1l-.9 4.67h-13.33v-1l2.2-.37v-14.9l-2.2-.38v-1h12.55l.4 3.92h-1.1l-1.77-2.73h-5.23v6.47h3.43l.8-2.35h1v6.25h-1l-.8-2.53h-3.43v7.4h6z" style="line-height:125%;-inkscape-font-specification:'Equity Caps A, Normal';text-align:start" font-family="Equity Caps A" letter-spacing="0" word-spacing="0"/><path fill="#15af90" d="M1067.03 932.27v6.3l2.43.37v1h-7.3v-1l2.2-.37v-14.9l-2.2-.38v-1h6.4q1.1 0 2.22.27 1.13.27 2.03.87.93.6 1.5 1.55.58.94.58 2.32 0 1.12-.45 2.05-.42.9-1.27 1.55-.83.65-2.03 1-1.2.35-2.7.35h-1.4zm0-1.3h1.63q.7 0 1.32-.23.65-.25 1.13-.7.48-.45.76-1.1.27-.65.27-1.47 0-1.03-.27-1.73-.25-.72-.75-1.17-.47-.45-1.14-.65-.68-.2-1.53-.2h-1.4v7.25z" style="line-height:125%;-inkscape-font-specification:'Equity Caps A, Normal';text-align:start" font-family="Equity Caps A" letter-spacing="0" word-spacing="0"/><path fill="#15af90" d="M1078.27 931.14q0-2.1.68-3.8.67-1.7 1.82-2.87 1.15-1.2 2.68-1.83 1.55-.65 3.27-.65 1.83 0 3.38.62 1.55.62 2.67 1.82 1.13 1.18 1.75 2.88.63 1.7.63 3.82 0 2.28-.68 3.98-.67 1.7-1.82 2.85-1.13 1.12-2.68 1.7-1.52.57-3.25.57-1.72 0-3.27-.6-1.53-.6-2.68-1.75-1.15-1.16-1.82-2.86-.68-1.7-.68-3.9zm2.93-.02q0 2.1.45 3.57.45 1.47 1.2 2.42.77.95 1.77 1.4 1 .42 2.1.42t2.1-.35q1-.36 1.75-1.23.75-.9 1.2-2.4.45-1.53.45-3.85 0-2.15-.42-3.65-.43-1.5-1.18-2.43-.72-.95-1.72-1.37-1-.43-2.18-.43-1.1 0-2.1.45-1 .42-1.77 1.37-.75.92-1.2 2.42-.45 1.5-.45 3.62z" style="line-height:125%;-inkscape-font-specification:'Equity Caps A, Normal';text-align:start" font-family="Equity Caps A" letter-spacing="0" word-spacing="0"/><path fill="#15af90" d="M1099.08 934.47h1.1q.52 2.27 1.82 3.4 1.3 1.12 3.1 1.12.7 0 1.3-.2.63-.2 1.05-.58.43-.38.68-.88.25-.52.25-1.15 0-.6-.15-1.16-.15-.55-.58-1.07-.42-.53-1.2-1.03-.77-.52-2.05-1.02-1.25-.5-2.15-1.03-.9-.53-1.5-1.16-.6-.65-.9-1.4-.27-.77-.27-1.75 0-.8.37-1.6.38-.83 1.05-1.48.7-.68 1.7-1.1 1.03-.43 2.3-.43 1.2 0 2.08.27.9.27 1.47.5l1.05-.48h.63l.5 5.12h-.93q-.67-2.1-1.97-3.13-1.28-1.03-2.7-1.03-1.3 0-2.2.65-.9.65-.9 1.92 0 1.23 1.05 2.2 1.07.95 3.27 1.83 1 .4 1.83.9.85.47 1.42 1.1.58.62.9 1.45.33.8.33 1.87 0 1.24-.45 2.2-.43.92-1.2 1.57-.78.62-1.83.95-1.05.32-2.25.32-.95 0-1.97-.27-1-.28-1.7-.7l-1.23.5h-1.12v-5.3z" style="line-height:125%;-inkscape-font-specification:'Equity Caps A, Normal';text-align:start" font-family="Equity Caps A" letter-spacing="0" word-spacing="0"/><path fill="#15af90" d="M1121.7 922.3v1l-2.2.37v14.9l2.2.37v1h-7.05v-1l2.2-.37v-14.9l-2.2-.38v-1h7.05z" style="line-height:125%;-inkscape-font-specification:'Equity Caps A, Normal';text-align:start" font-family="Equity Caps A" letter-spacing="0" word-spacing="0"/><path fill="#15af90" d="M1140.4 922.3l1.15 4.92h-1.1l-2.53-3.73h-3.65v15.07l2.3.37v1h-7.25v-1l2.3-.37V923.5h-3.65l-2.52 3.72h-1.1l1.15-4.93h14.9z" style="line-height:125%;-inkscape-font-specification:'Equity Caps A, Normal';text-align:start" font-family="Equity Caps A" letter-spacing="0" word-spacing="0"/><path fill="#15af90" d="M1144.34 931.14q0-2.1.67-3.8.7-1.7 1.84-2.87 1.15-1.2 2.67-1.83 1.56-.65 3.3-.65 1.8 0 3.36.62 1.55.62 2.68 1.82 1.12 1.18 1.75 2.88.6 1.7.6 3.82 0 2.28-.66 3.98-.68 1.7-1.83 2.85-1.1 1.12-2.66 1.7-1.53.57-3.25.57-1.74 0-3.3-.6-1.5-.6-2.66-1.75-1.15-1.16-1.83-2.86-.66-1.7-.66-3.9zm2.92-.02q0 2.1.45 3.57.46 1.47 1.2 2.42.8.95 1.8 1.4 1 .42 2.1.42t2.1-.35q1-.36 1.74-1.23.75-.9 1.2-2.4.45-1.53.45-3.85 0-2.15-.44-3.65-.42-1.5-1.17-2.43-.74-.95-1.74-1.37-1-.43-2.17-.43-1.1 0-2.1.45-1 .42-1.8 1.37-.74.92-1.2 2.42-.44 1.5-.44 3.62z" style="line-height:125%;-inkscape-font-specification:'Equity Caps A, Normal';text-align:start" font-family="Equity Caps A" letter-spacing="0" word-spacing="0"/><path fill="#15af90" d="M1173.17 931.72q.72.35 1.32 1.22.62.88 1.22 1.93.6 1.02 1.25 2.05.65 1.02 1.45 1.65l1.57.37v1h-3.78q-.58-.42-1.1-1.12-.5-.7-.98-1.5-.47-.83-.95-1.68-.48-.87-.98-1.62-.5-.75-1.05-1.33-.55-.6-1.18-.88h-.36v6.75l2.45.37v1h-7.3v-1l2.2-.37v-14.9l-2.2-.38v-1h7.87q.67 0 1.55.2.87.17 1.65.7.8.5 1.35 1.4.55.9.55 2.32 0 .62-.25 1.32-.25.68-.8 1.33-.53.62-1.4 1.12-.88.5-2.15.74v.28zm-3.53-1.28h1.73q.97 0 1.65-.32.67-.33 1.1-.83.42-.5.6-1.1.2-.63.2-1.2 0-.96-.23-1.58-.2-.65-.58-1.03-.38-.4-.88-.56-.47-.17-1.02-.17h-2.58v6.77z" style="line-height:125%;-inkscape-font-specification:'Equity Caps A, Normal';text-align:start" font-family="Equity Caps A" letter-spacing="0" word-spacing="0"/><path fill="#15af90" d="M1193.44 923.67l-2.22-.38v-1h5.6v1l-1.88.37-4.72 8.07v6.83l2.2.37v1h-7.05v-1l2.2-.37v-6.75l-4.78-8.15-1.83-.38v-1h6.6v1l-2.03.37 3.7 6.37h.4l3.8-6.37z" style="line-height:125%;-inkscape-font-specification:'Equity Caps A, Normal';text-align:start" font-family="Equity Caps A" letter-spacing="0" word-spacing="0"/><path fill="#15af90" d="M934.93 970.17q1.62 0 2.57-.8.95-.8 1.45-2.33h.95v2.93q-1.02.65-2.2 1.1-1.15.45-2.87.45-1.43 0-2.68-.43-1.25-.46-2.2-1.3-.92-.88-1.47-2.13-.55-1.25-.55-2.88 0-1.56.52-2.8.55-1.26 1.48-2.13.95-.9 2.2-1.38 1.27-.48 2.7-.48 1.2 0 2.52.42 1.33.4 2.38.98v3.02h-.95q-.65-1.77-1.7-2.47-1.03-.7-2.25-.7-.83 0-1.6.37-.75.38-1.33 1.1-.55.7-.9 1.73-.32 1-.32 2.3 0 1.22.37 2.22.4 1 1 1.7.63.7 1.38 1.1.77.37 1.5.37z" style="line-height:125%;-inkscape-font-specification:'Equity Caps A, Normal';text-align:start" font-family="Equity Caps A" letter-spacing="0" word-spacing="0"/><path fill="#15af90" d="M943.75 964.8q0-1.56.52-2.8.55-1.26 1.45-2.13.93-.9 2.15-1.38 1.25-.48 2.65-.48 1.45 0 2.68.47 1.25.44 2.15 1.32.9.87 1.4 2.15.5 1.25.5 2.82 0 1.64-.55 2.92-.53 1.25-1.45 2.1-.9.85-2.13 1.27-1.22.42-2.6.42-1.4 0-2.65-.43-1.22-.46-2.15-1.3-.9-.88-1.45-2.13-.52-1.25-.52-2.88zm2.75-.03q0 1.32.32 2.32.33 1 .88 1.7.55.67 1.27 1.02.73.35 1.55.35.8 0 1.53-.28.72-.3 1.27-.96.55-.65.88-1.67.32-1.03.32-2.5 0-1.35-.32-2.38-.3-1.06-.85-1.73-.53-.7-1.28-1.05-.72-.35-1.55-.35-.82 0-1.55.35-.72.35-1.27 1.05-.55.7-.88 1.72-.32 1.02-.32 2.37z" style="line-height:125%;-inkscape-font-specification:'Equity Caps A, Normal';text-align:start" font-family="Equity Caps A" letter-spacing="0" word-spacing="0"/><path fill="#15af90" d="M971.72 966.77v-6.95l-2.05-.63v-.96h5.2v.95l-1.78.62v11.55h-.76l-8.5-10h-.3v8.25l2.05.62v.95h-5.03v-.96l1.6-.62v-10.05l-1.6-.38v-.96h3.57l7.28 8.53h.3z" style="line-height:125%;-inkscape-font-specification:'Equity Caps A, Normal';text-align:start" font-family="Equity Caps A" letter-spacing="0" word-spacing="0"/><path fill="#15af90" d="M989.7 958.24l.6 3.65h-1.07l-1.65-2.48h-2.55v10.45l1.87.37v.95h-6.22v-.96l1.87-.37v-10.45H980l-1.67 2.47h-1.05l.6-3.66h11.82z" style="line-height:125%;-inkscape-font-specification:'Equity Caps A, Normal';text-align:start" font-family="Equity Caps A" letter-spacing="0" word-spacing="0"/><path fill="#15af90" d="M1000.38 966.94h-4.45l-1.05 2.68 2 .62v.95h-5.15v-.96l1.7-.62 4.6-11.38h1.52l4.58 11.63 1.5.37v.95h-5.8v-.96l1.67-.37-1.12-2.93zm-3.98-1.17h3.53l-1.63-4.23h-.2l-1.7 4.23z" style="line-height:125%;-inkscape-font-specification:'Equity Caps A, Normal';text-align:start" font-family="Equity Caps A" letter-spacing="0" word-spacing="0"/><path fill="#15af90" d="M1014.6 958.24v.95l-1.77.37v10.3l1.77.37v.95h-6.05v-.96l1.8-.37v-10.3l-1.8-.38v-.96h6.05z" style="line-height:125%;-inkscape-font-specification:'Equity Caps A, Normal';text-align:start" font-family="Equity Caps A" letter-spacing="0" word-spacing="0"/><path fill="#15af90" d="M1029.34 966.77v-6.95l-2.05-.63v-.96h5.2v.95l-1.8.62v11.55h-.74l-8.5-10h-.3v8.25l2.05.62v.95h-5v-.96l1.58-.62v-10.05l-1.6-.38v-.96h3.58l7.28 8.53h.3z" style="line-height:125%;-inkscape-font-specification:'Equity Caps A, Normal';text-align:start" font-family="Equity Caps A" letter-spacing="0" word-spacing="0"/><path fill="#15af90" d="M1036.17 966.84h1.2q.37 1.65 1.22 2.55.84.9 2.12.9 1 0 1.6-.56.6-.57.6-1.45 0-.4-.13-.73-.1-.35-.4-.65-.3-.33-.86-.63-.52-.33-1.37-.7-1.85-.8-2.78-1.7-.93-.9-.93-2.26 0-.62.27-1.27.28-.65.8-1.18.53-.53 1.28-.86.77-.32 1.75-.32.85 0 1.4.22.57.2 1 .38l.9-.38h.65l.45 3.93h-1.18q-.48-1.5-1.3-2.2-.83-.7-1.83-.7-.88 0-1.43.47-.55.48-.55 1.38 0 .8.7 1.35.72.52 2.34 1.15 1.65.65 2.53 1.57.87.9.87 2.4 0 .97-.35 1.72-.33.72-.93 1.22-.6.48-1.43.73-.8.25-1.72.25-.65 0-1.35-.23-.7-.2-1.18-.53l-1.08.37h-.95v-4.3z" style="line-height:125%;-inkscape-font-specification:'Equity Caps A, Normal';text-align:start" font-family="Equity Caps A" letter-spacing="0" word-spacing="0"/><path fill="#15af90" d="M1064.05 966.94h-4.45l-1.05 2.68 2 .62v.95h-5.15v-.96l1.7-.62 4.6-11.38h1.53l4.57 11.63 1.5.37v.95h-5.8v-.96l1.68-.37-1.13-2.93zm-3.97-1.17h3.52l-1.62-4.23h-.2l-1.7 4.23z" style="line-height:125%;-inkscape-font-specification:'Equity Caps A, Normal';text-align:start" font-family="Equity Caps A" letter-spacing="0" word-spacing="0"/><path fill="#15af90" d="M1071.97 971.2v-.96l1.8-.37v-10.3l-1.8-.38v-.96h6.15v.95l-1.87.37v10.4h3.87l1.68-2.43h1.07l-.52 3.65h-10.38z" style="line-height:125%;-inkscape-font-specification:'Equity Caps A, Normal';text-align:start" font-family="Equity Caps A" letter-spacing="0" word-spacing="0"/><path fill="#15af90" d="M1085.7 971.2v-.96l1.8-.37v-10.3l-1.8-.38v-.96h6.14v.95l-1.87.37v10.4h3.87l1.68-2.43h1.07l-.53 3.65h-10.38z" style="line-height:125%;-inkscape-font-specification:'Equity Caps A, Normal';text-align:start" font-family="Equity Caps A" letter-spacing="0" word-spacing="0"/><path fill="#15af90" d="M1106.92 966.84h1.2q.38 1.65 1.23 2.55.85.9 2.12.9 1 0 1.6-.56.6-.57.6-1.45 0-.4-.12-.73-.1-.35-.4-.65-.3-.33-.85-.63-.53-.33-1.38-.7-1.85-.8-2.77-1.7-.93-.9-.93-2.26 0-.62.28-1.27.27-.65.8-1.18.52-.53 1.27-.86.78-.32 1.75-.32.85 0 1.4.22.58.2 1 .38l.9-.38h.65l.45 3.93h-1.17q-.48-1.5-1.3-2.2-.83-.7-1.83-.7-.87 0-1.42.47-.55.48-.55 1.38 0 .8.7 1.35.72.52 2.35 1.15 1.65.65 2.52 1.57.88.9.88 2.4 0 .97-.35 1.72-.33.72-.93 1.22-.6.48-1.42.73-.8.25-1.73.25-.65 0-1.35-.23-.7-.2-1.17-.53l-1.08.37h-.95v-4.3z" style="line-height:125%;-inkscape-font-specification:'Equity Caps A, Normal';text-align:start" font-family="Equity Caps A" letter-spacing="0" word-spacing="0"/><path fill="#15af90" d="M1131.65 958.24l.6 3.65h-1.08l-1.65-2.48h-2.55v10.45l1.88.37v.95h-6.23v-.96l1.88-.37v-10.45h-2.55l-1.68 2.47h-1.05l.6-3.66h11.83z" style="line-height:125%;-inkscape-font-specification:'Equity Caps A, Normal';text-align:start" font-family="Equity Caps A" letter-spacing="0" word-spacing="0"/><path fill="#15af90" d="M1142.32 966.94h-4.45l-1.05 2.68 2 .62v.95h-5.15v-.96l1.7-.62 4.6-11.38h1.53l4.57 11.63 1.5.37v.95h-5.8v-.96l1.68-.37-1.13-2.93zm-3.97-1.17h3.52l-1.62-4.23h-.2l-1.7 4.23z" style="line-height:125%;-inkscape-font-specification:'Equity Caps A, Normal';text-align:start" font-family="Equity Caps A" letter-spacing="0" word-spacing="0"/><path fill="#15af90" d="M1156.85 970.17q.7 0 1.37-.15.7-.18 1.23-.6v-3.25l-2.18-.48v-.96h6.2v.95l-1.55.37v4.07q-.35.2-.82.45-.48.24-1.13.44-.62.2-1.4.33-.77.15-1.72.15-1.38 0-2.63-.43-1.22-.46-2.17-1.3-.93-.88-1.5-2.13-.55-1.25-.55-2.88 0-1.56.52-2.8.55-1.26 1.48-2.13.95-.9 2.2-1.38 1.27-.48 2.7-.48 1.2 0 2.52.42 1.33.4 2.38.98v3.02h-.95q-.65-1.77-1.7-2.47-1.03-.7-2.25-.7-.83 0-1.6.35-.75.35-1.33 1.05-.55.67-.9 1.7-.32 1.02-.32 2.4 0 1.25.32 2.25.33 1 .88 1.7.57.7 1.32 1.07.75.37 1.58.37z" style="line-height:125%;-inkscape-font-specification:'Equity Caps A, Normal';text-align:start" font-family="Equity Caps A" letter-spacing="0" word-spacing="0"/><path fill="#15af90" d="M1175.18 969.97l1.45-2.23h1.08l-.52 3.45h-10.82v-.96l1.8-.37v-10.3l-1.8-.38v-.96h10.17l.33 3.1h-1.05l-1.3-1.87h-3.87v4.47h2.4l.68-1.42h.8v4.17h-.8l-.67-1.58h-2.4v4.85h4.55z" style="line-height:125%;-inkscape-font-specification:'Equity Caps A, Normal';text-align:start" font-family="Equity Caps A" letter-spacing="0" word-spacing="0"/><path fill="#15af90" d="M1180.76 971.2v-.96l1.8-.37v-10.3l-1.8-.38v-.96h5.98q1.67 0 3 .45 1.35.44 2.27 1.3.96.82 1.46 2.04.5 1.23.5 2.75 0 1.54-.57 2.74-.56 1.2-1.56 2.03-1 .8-2.38 1.22-1.35.4-2.95.4h-5.74zm5.75-1.33q.96 0 1.84-.28.87-.28 1.52-.88.68-.63 1.05-1.58.4-.97.4-2.37 0-1.28-.36-2.25-.35-.98-.98-1.63-.62-.68-1.47-1-.84-.33-1.8-.33h-1.66v10.3h1.47z" style="line-height:125%;-inkscape-font-specification:'Equity Caps A, Normal';text-align:start" font-family="Equity Caps A" letter-spacing="0" word-spacing="0"/><path fill="#15af90" d="M935.78 998.2h-4.45l-1.05 2.67 2 .62v.94h-5.15v-.95l1.7-.63 4.6-11.38h1.52l4.58 11.62 1.5.37v.94h-5.8v-.95l1.67-.38-1.12-2.93zM931.8 997h3.53l-1.63-4.23h-.2l-1.7 4.22z" style="line-height:125%;-inkscape-font-specification:'Equity Caps A, Normal';text-align:start" font-family="Equity Caps A" letter-spacing="0" word-spacing="0"/><path fill="#15af90" d="M954.73 998.02v-6.95l-2.05-.63v-.95h5.2v.94l-1.78.63v11.55h-.75l-8.5-10h-.3v8.25l2.05.62v.94h-5.02v-.95l1.6-.63v-10.05l-1.6-.38v-.95h3.57l7.28 8.52h.3z" style="line-height:125%;-inkscape-font-specification:'Equity Caps A, Normal';text-align:start" font-family="Equity Caps A" letter-spacing="0" word-spacing="0"/><path fill="#15af90" d="M961.03 1002.44v-.95l1.8-.38v-10.3l-1.8-.38v-.95H967q1.68 0 3 .44 1.36.45 2.28 1.3.95.83 1.45 2.05.5 1.22.5 2.74 0 1.55-.57 2.75-.55 1.2-1.55 2.02-1 .8-2.37 1.22-1.35.4-2.95.4h-5.75zm5.75-1.32q.95 0 1.83-.28.88-.27 1.53-.87.68-.63 1.05-1.58.4-.98.4-2.38 0-1.28-.37-2.25-.34-.98-.97-1.63-.62-.67-1.47-1-.83-.32-1.78-.32h-1.67v10.3h1.48z" style="line-height:125%;-inkscape-font-specification:'Equity Caps A, Normal';text-align:start" font-family="Equity Caps A" letter-spacing="0" word-spacing="0"/><path fill="#15af90" d="M996.34 989.5l.6 3.64h-1.07l-1.65-2.47h-2.55v10.45l1.87.37v.94h-6.22v-.95l1.87-.38v-10.45h-2.56l-1.67 2.47h-1.05l.6-3.65h11.82z" style="line-height:125%;-inkscape-font-specification:'Equity Caps A, Normal';text-align:start" font-family="Equity Caps A" letter-spacing="0" word-spacing="0"/><path fill="#15af90" d="M1007.53 996.34q.53.23.95.85.45.62.9 1.37.45.72.93 1.45.48.7 1.06 1.1l1.12.37v.94h-3q-.75-.47-1.32-1.32-.55-.85-1.08-1.75-.52-.9-1.1-1.65-.55-.78-1.3-1.08h-.75v4.48l1.78.37v.94h-6.04v-.95l1.8-.38v-10.3l-1.8-.38v-.95h6.77q.55 0 1.25.14.7.13 1.33.5.66.38 1.08 1.05.45.64.45 1.7 0 1.07-.77 2.02-.75.92-2.23 1.2v.22zm-3.6-.87h1.38q.7 0 1.18-.23.5-.25.83-.6.33-.37.48-.8.15-.45.15-.87 0-1.18-.57-1.65-.58-.5-1.33-.5h-2.1v4.65z" style="line-height:125%;-inkscape-font-specification:'Equity Caps A, Normal';text-align:start" font-family="Equity Caps A" letter-spacing="0" word-spacing="0"/><path fill="#15af90" d="M1023.28 998.2h-4.45l-1.05 2.67 2 .62v.94h-5.15v-.95l1.7-.63 4.6-11.38h1.52l4.58 11.62 1.5.37v.94h-5.8v-.95l1.67-.38-1.12-2.93zm-3.98-1.18h3.53l-1.63-4.23h-.2l-1.7 4.22z" style="line-height:125%;-inkscape-font-specification:'Equity Caps A, Normal';text-align:start" font-family="Equity Caps A" letter-spacing="0" word-spacing="0"/><path fill="#15af90" d="M1037.96 1001.42q1.62 0 2.57-.8.95-.8 1.45-2.33h.95v2.92q-1.02.65-2.2 1.1-1.15.45-2.87.45-1.43 0-2.68-.43-1.25-.45-2.2-1.3-.92-.87-1.47-2.12-.54-1.25-.54-2.88 0-1.55.52-2.8.55-1.25 1.48-2.12.95-.9 2.2-1.38 1.27-.47 2.7-.47 1.2 0 2.52.42 1.33.4 2.38.97v3.02h-.95q-.64-1.78-1.7-2.48-1.02-.7-2.24-.7-.83 0-1.6.37-.75.37-1.33 1.1-.55.7-.9 1.72-.32 1-.32 2.3 0 1.22.38 2.22.4 1 1 1.7.63.7 1.38 1.1.77.38 1.5.38z" style="line-height:125%;-inkscape-font-specification:'Equity Caps A, Normal';text-align:start" font-family="Equity Caps A" letter-spacing="0" word-spacing="0"/><path fill="#15af90" d="M1051.05 996.24v4.88l1.65.37v.94h-5.92v-.95l1.8-.38v-10.3l-1.8-.38v-.95h6.05v.94l-1.78.38v4.37h.48l4.4-4.26-1.58-.5v-.95h5.18v.94l-1.88.5-4.25 4.05 5.25 6.2 1.43.3v.94h-5.93v-.95l1.4-.38-4.1-4.88h-.4z" style="line-height:125%;-inkscape-font-specification:'Equity Caps A, Normal';text-align:start" font-family="Equity Caps A" letter-spacing="0" word-spacing="0"/><path fill="#15af90" d="M1071.62 1001.22l1.45-2.23h1.07l-.52 3.44h-10.83v-.95l1.8-.38v-10.3l-1.8-.38v-.95h10.17l.32 3.1h-1.06l-1.3-1.88h-3.87v4.47h2.4l.67-1.43h.8v4.17h-.8l-.67-1.57h-2.4v4.85h4.55z" style="line-height:125%;-inkscape-font-specification:'Equity Caps A, Normal';text-align:start" font-family="Equity Caps A" letter-spacing="0" word-spacing="0"/><path fill="#15af90" d="M1077.2 1002.44v-.95l1.8-.38v-10.3l-1.8-.38v-.95h5.97q1.68 0 3 .44 1.35.45 2.28 1.3.95.83 1.45 2.05.5 1.22.5 2.74 0 1.55-.58 2.75-.55 1.2-1.55 2.02-1 .8-2.37 1.22-1.35.4-2.95.4h-5.75zm5.75-1.32q.95 0 1.82-.28.88-.27 1.53-.87.67-.63 1.05-1.58.4-.98.4-2.38 0-1.28-.38-2.25-.35-.98-.97-1.63-.63-.67-1.48-1-.82-.32-1.77-.32h-1.68v10.3h1.48z" style="line-height:125%;-inkscape-font-specification:'Equity Caps A, Normal';text-align:start" font-family="Equity Caps A" letter-spacing="0" word-spacing="0"/><path fill="#15af90" d="M1111.13 989.5l.35 3.1h-1.08l-1.32-1.88h-3.98v4.47h2.53l.67-1.43h.8v4.17h-.8l-.67-1.57h-2.53v4.75l1.88.37v.94h-6.15v-.95l1.8-.38v-10.3l-1.8-.38v-.95h10.3zm9.6 0v.94l-1.78.38v10.3l1.78.37v.94h-6.05v-.95l1.8-.38v-10.3l-1.8-.38v-.95h6.05z" style="line-height:125%;-inkscape-font-specification:'Equity Caps A, Normal';text-align:start" font-family="Equity Caps A" letter-spacing="0" word-spacing="0"/><path fill="#15af90" d="M1124.4 1002.44v-.95l1.8-.38v-10.3l-1.8-.38v-.95h6.16v.94l-1.87.38v10.4h3.86l1.68-2.43h1.07l-.5 3.64h-10.4z" style="line-height:125%;-inkscape-font-specification:'Equity Caps A, Normal';text-align:start" font-family="Equity Caps A" letter-spacing="0" word-spacing="0"/><path fill="#15af90" d="M1146.96 1001.22l1.45-2.23h1.08l-.52 3.44h-10.83v-.95l1.8-.38v-10.3l-1.8-.38v-.95h10.18l.33 3.1h-1.05l-1.3-1.88h-3.87v4.47h2.4l.68-1.43h.8v4.17h-.8l-.67-1.57h-2.4v4.85h4.56z" style="line-height:125%;-inkscape-font-specification:'Equity Caps A, Normal';text-align:start" font-family="Equity Caps A" letter-spacing="0" word-spacing="0"/><path fill="#15af90" d="M1153.06 998.1h1.2q.38 1.64 1.23 2.54.84.9 2.1.9 1 0 1.6-.55.6-.58.6-1.46 0-.4-.1-.72-.1-.35-.4-.65-.3-.33-.86-.63-.53-.32-1.38-.7-1.85-.8-2.77-1.7-.94-.9-.94-2.25 0-.63.28-1.28.27-.65.8-1.18.52-.52 1.27-.85.8-.33 1.76-.33.85 0 1.4.22.58.2 1 .37l.9-.38h.65l.46 3.92h-1.17q-.5-1.5-1.3-2.2-.84-.7-1.84-.7-.87 0-1.42.47-.55.47-.55 1.37 0 .8.7 1.35.7.52 2.34 1.15 1.65.65 2.52 1.57.88.9.88 2.4 0 .98-.35 1.73-.34.72-.94 1.22-.6.47-1.42.72-.8.25-1.73.25-.64 0-1.34-.23-.7-.2-1.17-.52l-1.1.37h-.94v-4.3z" style="line-height:125%;-inkscape-font-specification:'Equity Caps A, Normal';text-align:start" font-family="Equity Caps A" letter-spacing="0" word-spacing="0"/><path fill="#6789c8" d="M724.83 736.15q.73.35 1.33 1.22.62.88 1.22 1.93.6 1.02 1.25 2.05.65 1.02 1.45 1.65l1.58.37v1h-3.78q-.57-.42-1.1-1.12-.5-.7-.97-1.5-.47-.83-.94-1.68-.48-.87-.98-1.62-.5-.75-1.05-1.33-.55-.6-1.17-.87h-.35V743l2.46.37v1h-7.3v-1l2.2-.37v-14.9l-2.2-.38v-1h7.87q.68 0 1.55.2.88.18 1.65.7.8.5 1.35 1.4.55.9.55 2.33 0 .62-.25 1.32-.25.68-.8 1.33-.52.62-1.4 1.12-.87.5-2.15.75v.28zm-3.52-1.28h1.73q.98 0 1.65-.32.68-.33 1.1-.83.43-.5.6-1.1.2-.62.2-1.2 0-.95-.22-1.57-.2-.65-.58-1.03-.37-.4-.87-.55-.47-.17-1.02-.17h-2.57v6.77z" style="line-height:125%;-inkscape-font-specification:'Equity Caps A, Normal';text-align:start" font-family="Equity Caps A" letter-spacing="0" word-spacing="0"/><path fill="#6789c8" d="M745.42 743.17l2.28-3.47h1.1l-.9 4.67h-13.33v-1l2.2-.37v-14.9l-2.2-.38v-1h12.55l.4 3.93h-1.1l-1.77-2.73h-5.23v6.48h3.43l.8-2.35h1v6.25h-1l-.8-2.53h-3.43v7.4h6z" style="line-height:125%;-inkscape-font-specification:'Equity Caps A, Normal';text-align:start" font-family="Equity Caps A" letter-spacing="0" word-spacing="0"/><path fill="#6789c8" d="M756.64 736.7v6.3l2.42.37v1h-7.3v-1l2.2-.37v-14.9l-2.2-.38v-1h6.4q1.1 0 2.23.28 1.1.27 2 .87.94.6 1.5 1.55.6.95.6 2.33 0 1.12-.46 2.05-.43.9-1.28 1.55-.82.65-2.02 1-1.2.35-2.7.35h-1.4zm0-1.3h1.62q.7 0 1.33-.23.64-.25 1.1-.7.5-.45.76-1.1.28-.65.28-1.47 0-1.03-.28-1.73-.25-.72-.75-1.17-.46-.45-1.14-.65-.67-.2-1.52-.2h-1.4v7.25z" style="line-height:125%;-inkscape-font-specification:'Equity Caps A, Normal';text-align:start" font-family="Equity Caps A" letter-spacing="0" word-spacing="0"/><path fill="#6789c8" d="M767.88 735.57q0-2.1.67-3.8.68-1.7 1.83-2.87 1.15-1.2 2.67-1.83 1.55-.65 3.28-.65 1.82 0 3.37.63 1.55.62 2.68 1.82 1.12 1.18 1.75 2.88.62 1.7.62 3.82 0 2.28-.67 3.98-.68 1.7-1.83 2.85-1.12 1.12-2.67 1.7-1.53.57-3.25.57-1.73 0-3.28-.6-1.52-.6-2.67-1.75t-1.83-2.85q-.67-1.7-.67-3.9zm2.92-.02q0 2.1.45 3.57.45 1.48 1.2 2.43.78.95 1.78 1.4 1 .42 2.1.42t2.1-.35q1-.35 1.75-1.22.75-.9 1.2-2.4.45-1.53.45-3.85 0-2.15-.43-3.65-.42-1.5-1.17-2.43-.73-.95-1.73-1.37-1-.43-2.17-.43-1.1 0-2.1.45-1 .43-1.78 1.38-.75.92-1.2 2.42-.45 1.5-.45 3.63z" style="line-height:125%;-inkscape-font-specification:'Equity Caps A, Normal';text-align:start" font-family="Equity Caps A" letter-spacing="0" word-spacing="0"/><path fill="#6789c8" d="M788.68 738.9h1.1q.53 2.27 1.83 3.4 1.3 1.12 3.1 1.12.7 0 1.3-.2.63-.2 1.06-.57.42-.38.67-.88.25-.52.25-1.15 0-.6-.15-1.15-.15-.55-.57-1.07-.43-.53-1.2-1.03-.78-.52-2.05-1.02-1.24-.5-2.14-1.03-.9-.52-1.5-1.15-.6-.65-.9-1.4-.28-.77-.28-1.75 0-.8.38-1.6.37-.82 1.05-1.47.7-.68 1.7-1.1 1.03-.43 2.3-.43 1.2 0 2.08.28.9.27 1.48.5l1.05-.48h.63l.5 5.13h-.92q-.67-2.1-1.97-3.13-1.27-1.02-2.7-1.02-1.3 0-2.2.65-.9.65-.9 1.92 0 1.23 1.05 2.2 1.08.95 3.28 1.83 1 .4 1.82.9.85.47 1.43 1.1.58.62.9 1.45.33.8.33 1.87 0 1.25-.45 2.2-.42.93-1.2 1.58-.77.62-1.82.95-1.05.32-2.25.32-.94 0-1.97-.27-1-.28-1.7-.7l-1.22.5h-1.12v-5.3z" style="line-height:125%;-inkscape-font-specification:'Equity Caps A, Normal';text-align:start" font-family="Equity Caps A" letter-spacing="0" word-spacing="0"/><path fill="#6789c8" d="M811.3 726.72v1l-2.2.38V743l2.2.37v1h-7.05v-1l2.2-.37v-14.9l-2.2-.38v-1h7.05z" style="line-height:125%;-inkscape-font-specification:'Equity Caps A, Normal';text-align:start" font-family="Equity Caps A" letter-spacing="0" word-spacing="0"/><path fill="#6789c8" d="M830 726.72l1.15 4.93h-1.1l-2.53-3.73h-3.65V743l2.3.37v1h-7.25v-1l2.3-.37v-15.08h-3.65l-2.52 3.73h-1.1l1.15-4.93H830z" style="line-height:125%;-inkscape-font-specification:'Equity Caps A, Normal';text-align:start" font-family="Equity Caps A" letter-spacing="0" word-spacing="0"/><path fill="#6789c8" d="M833.94 735.57q0-2.1.68-3.8.67-1.7 1.82-2.87 1.15-1.2 2.68-1.83 1.55-.65 3.27-.65 1.82 0 3.37.63 1.55.62 2.67 1.82 1.13 1.18 1.75 2.88.62 1.7.62 3.82 0 2.28-.68 3.98-.67 1.7-1.82 2.85-1.13 1.12-2.68 1.7-1.52.57-3.25.57t-3.28-.6q-1.53-.6-2.68-1.75-1.15-1.15-1.82-2.85-.68-1.7-.68-3.9zm2.93-.02q0 2.1.45 3.57.45 1.48 1.2 2.43.77.95 1.77 1.4 1 .42 2.1.42t2.1-.35q1-.35 1.74-1.22.75-.9 1.2-2.4.45-1.53.45-3.85 0-2.15-.43-3.65t-1.18-2.43q-.73-.95-1.73-1.37-1-.43-2.18-.43-1.1 0-2.1.45-1 .43-1.78 1.38-.75.92-1.2 2.42-.45 1.5-.45 3.63z" style="line-height:125%;-inkscape-font-specification:'Equity Caps A, Normal';text-align:start" font-family="Equity Caps A" letter-spacing="0" word-spacing="0"/><path fill="#6789c8" d="M862.77 736.15q.73.35 1.33 1.22.62.88 1.22 1.93.6 1.02 1.25 2.05.65 1.02 1.45 1.65l1.58.37v1h-3.78q-.57-.42-1.1-1.12-.5-.7-.97-1.5-.48-.83-.95-1.68-.48-.87-.98-1.62-.5-.75-1.05-1.33-.55-.6-1.17-.87h-.35V743l2.45.37v1h-7.3v-1l2.2-.37v-14.9l-2.2-.38v-1h7.87q.68 0 1.55.2.88.18 1.65.7.8.5 1.35 1.4.55.9.55 2.33 0 .62-.25 1.32-.25.68-.8 1.33-.52.62-1.4 1.12-.87.5-2.15.75v.28zm-3.52-1.28h1.72q.98 0 1.65-.32.68-.33 1.1-.83.43-.5.6-1.1.2-.62.2-1.2 0-.95-.22-1.57-.2-.65-.58-1.03-.37-.4-.87-.55-.48-.17-1.03-.17h-2.57v6.77z" style="line-height:125%;-inkscape-font-specification:'Equity Caps A, Normal';text-align:start" font-family="Equity Caps A" letter-spacing="0" word-spacing="0"/><path fill="#6789c8" d="M883.04 728.1l-2.22-.38v-1h5.6v1l-1.88.38-4.72 8.07V743l2.2.37v1h-7.05v-1l2.2-.37v-6.75l-4.78-8.15-1.83-.38v-1h6.6v1l-2.03.38 3.7 6.37h.4l3.8-6.37z" style="line-height:125%;-inkscape-font-specification:'Equity Caps A, Normal';text-align:start" font-family="Equity Caps A" letter-spacing="0" word-spacing="0"/><path fill="#6789c8" d="M723.53 781.67q-1.2-1.07-2.3-2.4-1.07-1.3-1.9-2.87-.82-1.55-1.32-3.38-.5-1.82-.5-3.97 0-1.98.46-3.68.45-1.7 1.25-3.17.83-1.48 1.93-2.78 1.1-1.3 2.38-2.47l.76.97q-2.38 2.43-3.45 5.2-1.04 2.78-1.04 5.93 0 3.45 1.07 6.5 1.08 3.05 3.43 5.27l-.73.85z" style="line-height:125%;-inkscape-font-specification:'Equity Caps A, Normal';text-align:start" font-family="Equity Caps A" letter-spacing="0" word-spacing="0"/><path fill="#6789c8" d="M727.5 769.22q0-1.55.52-2.8.55-1.25 1.45-2.12.92-.9 2.15-1.38 1.25-.47 2.65-.47 1.45 0 2.67.47 1.25.45 2.15 1.33.9.87 1.4 2.15.5 1.25.5 2.82 0 1.65-.56 2.93-.52 1.25-1.45 2.1-.9.85-2.13 1.27-1.23.43-2.6.43-1.4 0-2.65-.43-1.23-.45-2.15-1.3-.9-.87-1.45-2.12-.53-1.25-.53-2.88zm2.74-.02q0 1.32.33 2.32.32 1 .87 1.7.55.68 1.28 1.03.72.35 1.55.35.8 0 1.52-.28.72-.3 1.27-.95.55-.65.87-1.67.33-1.03.33-2.5 0-1.35-.33-2.38-.3-1.05-.85-1.72-.53-.7-1.28-1.05-.73-.35-1.55-.35-.83 0-1.55.35-.73.35-1.28 1.05-.55.7-.87 1.72-.33 1.03-.33 2.38z" style="line-height:125%;-inkscape-font-specification:'Equity Caps A, Normal';text-align:start" font-family="Equity Caps A" letter-spacing="0" word-spacing="0"/><path fill="#6789c8" d="M752.3 769.52q.54.23.96.85.45.63.9 1.38.45.72.93 1.45.46.7 1.04 1.1l1.12.37v.95h-3q-.75-.47-1.32-1.32-.55-.85-1.08-1.75-.52-.9-1.1-1.65-.55-.78-1.3-1.08h-.75v4.48l1.8.37v.95h-6.06v-.95l1.8-.37V764l-1.8-.38v-.95h6.77q.56 0 1.26.15.7.13 1.33.5.64.38 1.06 1.05.45.65.45 1.7 0 1.08-.76 2.03-.75.92-2.23 1.2v.22zm-3.6-.87h1.4q.7 0 1.16-.23.5-.25.83-.6.3-.37.46-.8.15-.45.15-.87 0-1.18-.56-1.65-.58-.5-1.33-.5h-2.1v4.65z" style="line-height:125%;-inkscape-font-specification:'Equity Caps A, Normal';text-align:start" font-family="Equity Caps A" letter-spacing="0" word-spacing="0"/><path fill="#6789c8" d="M771.22 770.3v4l2 .37v.95h-6.27v-.95l1.8-.37V764l-1.8-.38v-.95h6.4q.77 0 1.57.2t1.45.65q.68.45 1.1 1.18.43.7.43 1.7 0 1.8-1.35 2.85-1.33 1.05-3.7 1.05h-1.63zm0-1.18h1.83q.92 0 1.6-.7.7-.7.7-1.9 0-1.27-.68-1.9Q774 764 773 764h-1.78v5.12z" style="line-height:125%;-inkscape-font-specification:'Equity Caps A, Normal';text-align:start" font-family="Equity Caps A" letter-spacing="0" word-spacing="0"/><path fill="#6789c8" d="M788.83 769.52q.53.23.95.85.45.63.9 1.38.45.72.93 1.45.48.7 1.06 1.1l1.12.37v.95h-3q-.75-.47-1.32-1.32-.55-.85-1.08-1.75-.52-.9-1.1-1.65-.55-.78-1.3-1.08h-.75v4.48l1.78.37v.95h-6.04v-.95l1.8-.37V764l-1.8-.38v-.95h6.77q.55 0 1.25.15.7.13 1.33.5.66.38 1.08 1.05.45.65.45 1.7 0 1.08-.77 2.03-.75.92-2.23 1.2v.22zm-3.6-.87h1.38q.7 0 1.18-.23.5-.25.83-.6.33-.37.48-.8.15-.45.15-.87 0-1.18-.57-1.65-.58-.5-1.33-.5h-2.1v4.65z" style="line-height:125%;-inkscape-font-specification:'Equity Caps A, Normal';text-align:start" font-family="Equity Caps A" letter-spacing="0" word-spacing="0"/><path fill="#6789c8" d="M796.24 769.22q0-1.55.53-2.8.55-1.25 1.45-2.12.92-.9 2.15-1.38 1.25-.47 2.65-.47 1.45 0 2.67.47 1.24.45 2.14 1.33.9.87 1.4 2.15.5 1.25.5 2.82 0 1.65-.55 2.93-.53 1.25-1.46 2.1-.9.85-2.12 1.27-1.23.43-2.6.43-1.4 0-2.65-.43-1.23-.45-2.15-1.3-.9-.87-1.45-2.12-.53-1.25-.53-2.88zm2.75-.02q0 1.32.32 2.32.32 1 .87 1.7.54.68 1.27 1.03.72.35 1.55.35.8 0 1.52-.28.73-.3 1.28-.95.55-.65.87-1.67.32-1.03.32-2.5 0-1.35-.33-2.38-.3-1.05-.86-1.72-.52-.7-1.27-1.05-.73-.35-1.55-.35-.83 0-1.55.35-.73.35-1.28 1.05-.56.7-.88 1.72-.33 1.03-.33 2.38z" style="line-height:125%;-inkscape-font-specification:'Equity Caps A, Normal';text-align:start" font-family="Equity Caps A" letter-spacing="0" word-spacing="0"/><path fill="#6789c8" d="M815.76 764l-1.92-.38v-.95H820v.95l-1.76.38v10.7q0 1.17-.45 2.2-.46 1.05-1.16 1.85T815.1 780q-.86.47-1.66.47-.83 0-1.4-.35-.58-.32-.58-1.1 0-.6.33-.92.34-.3.8-.3.3 0 .5.12.24.13.4.25.2.15.4.28.2.12.5.12.8 0 1.1-.47.26-.45.26-1.2V764z" style="line-height:125%;-inkscape-font-specification:'Equity Caps A, Normal';text-align:start" font-family="Equity Caps A" letter-spacing="0" word-spacing="0"/><path fill="#6789c8" d="M832.27 774.4l1.45-2.23h1.07l-.53 3.45h-10.83v-.95l1.8-.37V764l-1.8-.38v-.95h10.18l.32 3.1h-1.05l-1.3-1.87h-3.88v4.47h2.4l.67-1.42h.8v4.17h-.8l-.68-1.57h-2.4v4.85h4.55z" style="line-height:125%;-inkscape-font-specification:'Equity Caps A, Normal';text-align:start" font-family="Equity Caps A" letter-spacing="0" word-spacing="0"/><path fill="#6789c8" d="M844.84 774.6q1.63 0 2.58-.8.95-.8 1.45-2.33h.95v2.93q-1.03.65-2.2 1.1-1.15.45-2.88.45-1.42 0-2.67-.43-1.25-.45-2.2-1.3-.93-.87-1.48-2.12-.56-1.25-.56-2.88 0-1.55.53-2.8.55-1.25 1.47-2.12.95-.9 2.2-1.38 1.28-.47 2.7-.47 1.2 0 2.53.42 1.32.4 2.37.98v3.02h-.95q-.66-1.77-1.7-2.47-1.03-.7-2.26-.7-.82 0-1.6.37-.75.38-1.32 1.1-.55.7-.9 1.73-.33 1-.33 2.3 0 1.22.37 2.22.4 1 1 1.7.62.7 1.37 1.1.78.38 1.5.38z" style="line-height:125%;-inkscape-font-specification:'Equity Caps A, Normal';text-align:start" font-family="Equity Caps A" letter-spacing="0" word-spacing="0"/><path fill="#6789c8" d="M865.1 762.67l.6 3.65h-1.08l-1.65-2.47h-2.55v10.45l1.88.37v.95h-6.23v-.95l1.88-.37v-10.45h-2.55l-1.68 2.47h-1.05l.6-3.65h11.83z" style="line-height:125%;-inkscape-font-specification:'Equity Caps A, Normal';text-align:start" font-family="Equity Caps A" letter-spacing="0" word-spacing="0"/><path fill="#6789c8" d="M868.2 780.82q2.36-2.22 3.44-5.27 1.07-3.05 1.07-6.5 0-3.15-1.06-5.93-1.05-2.77-3.43-5.2l.76-.97q1.28 1.17 2.38 2.47 1.1 1.3 1.9 2.78.82 1.47 1.27 3.17.46 1.7.46 3.68 0 2.15-.5 3.97-.5 1.83-1.32 3.38-.83 1.57-1.93 2.87-1.06 1.33-2.26 2.4l-.73-.85z" style="line-height:125%;-inkscape-font-specification:'Equity Caps A, Normal';text-align:start" font-family="Equity Caps A" letter-spacing="0" word-spacing="0"/></g></svg>
