<svg xmlns="http://www.w3.org/2000/svg" width="1050" height="640"><g><g transform="matrix(2.568 0 0 2.568 -1085.032 1201.118)"><path fill="none" stroke="#f79646" stroke-width="5" d="M710-432.72c-12.18 0-13.8 5.36-30.45 29.42"/><path fill="none" stroke="#f79646" stroke-width="5" d="M635-352.64c12.18 0 13.8-5.36 30.45-29.42"/><path fill="none" stroke="#f79646" stroke-width="5" d="M664.78-381.06l15.2-22.86"/><path fill="#f79646" stroke="#fff" stroke-width=".648" d="M-700 422.36l-4.33-7.5-4.33-7.5h17.32l-4.33 7.5z" transform="matrix(.665 .414 .421 -.632 964.738 157.111)" stroke-linejoin="round"/><path fill="none" stroke="#f79646" stroke-width="5" d="M668.95-387.35l2.75-4.12"/><rect width="74" height="16" x="538.924" y="-337.065" fill="#f8f8f8" stroke="#ddd" ry="1.557" rx="1.557" stroke-linecap="round" stroke-linejoin="round"/><path fill="#404030" d="M545-326.38q0-.45.16-.85.17-.4.44-.7.28-.33.62-.55.34-.23.68-.35v-.23q-.76-.46-1.1-1.03-.37-.57-.37-1.22 0-.47.2-.9.22-.45.6-.78.4-.35.96-.56.55-.2 1.26-.2.54 0 1.05.15.53.13.93.42.42.28.67.72.24.42.24 1 0 .4-.14.75-.13.34-.37.63-.2.3-.5.5-.25.23-.5.34v.18q.82.32 1.37.96.56.65.56 1.6 0 .6-.25 1.1-.23.48-.7.83-.44.35-1.1.54-.62.2-1.4.2-.72 0-1.34-.2-.6-.18-1.05-.5-.42-.36-.67-.83-.24-.47-.24-1.02zm1.25-.25q0 .38.12.73.13.35.38.64.26.28.66.45.4.15.97.15.5 0 .9-.13.4-.14.68-.38.28-.25.42-.57.16-.32.16-.67 0-.86-.73-1.44-.7-.58-1.94-.8-1.6.64-1.6 2zm.25-4.74q0 .34.15.63.17.3.47.54.3.25.67.44.4.18.84.32.16-.06.4-.2.27-.17.5-.4.26-.25.43-.6.2-.34.2-.77 0-.8-.5-1.22-.5-.43-1.26-.43-.45 0-.82.16-.36.16-.6.4-.23.24-.36.55-.12.3-.12.58z" style="line-height:1.25;-inkscape-font-specification:'Triplicate T4c, Normal';text-align:start" font-size="15" font-family="Triplicate T4c" letter-spacing="0" word-spacing="0"/><path fill="#404030" d="M554.24-326.38q0-.45.17-.85.18-.4.46-.7.27-.33.6-.55.35-.23.7-.35v-.23q-.76-.46-1.12-1.03-.35-.57-.35-1.22 0-.47.2-.9.2-.45.6-.78.4-.35.95-.56.55-.2 1.26-.2.55 0 1.06.15.52.13.93.42.4.28.65.72.25.42.25 1 0 .4-.14.75-.14.34-.37.63-.23.3-.5.5-.27.23-.52.34v.18q.82.32 1.38.96.55.65.55 1.6 0 .6-.23 1.1-.25.48-.7.83-.46.35-1.1.54-.64.2-1.43.2-.7 0-1.33-.2-.6-.18-1.04-.5-.43-.36-.67-.83-.26-.47-.26-1.02zm1.26-.25q0 .38.13.73.12.35.37.64.26.28.66.45.4.15.96.15.5 0 .9-.13.4-.14.7-.38.27-.25.4-.57.16-.32.16-.67 0-.86-.73-1.44-.7-.58-1.94-.8-1.6.64-1.6 2zm.25-4.74q0 .34.16.63.18.3.47.54.3.25.68.44.4.18.85.32.15-.06.4-.2.26-.17.5-.4.25-.25.42-.6.2-.34.2-.77 0-.8-.5-1.22-.5-.43-1.26-.43-.46 0-.83.16-.35.16-.6.4-.23.24-.36.55-.12.3-.12.58z" style="line-height:1.25;-inkscape-font-specification:'Triplicate T4c, Normal';text-align:start" font-size="15" font-family="Triplicate T4c" letter-spacing="0" word-spacing="0"/><path fill="#404030" d="M568.37-328.12q-.43.38-.94.6-.5.18-1.2.18-.55 0-1.06-.22-.5-.22-.88-.63-.38-.4-.6-.98-.22-.6-.22-1.36 0-.76.27-1.35.28-.6.73-1 .46-.42 1.02-.64.57-.22 1.14-.22.74 0 1.34.28.62.26 1.05.8.45.55.7 1.38.24.84.24 1.94 0 .8-.2 1.6-.2.77-.62 1.44-.38.67-.95 1.2-.56.53-1.28.84-.23.1-.57.22-.33.1-.7.17-.4.1-.8.14-.37.06-.7.08-.1 0-.15-.12-.05-.12-.05-.26 0-.13.05-.27.05-.13.15-.14.6-.1 1.27-.24.68-.15 1.1-.36.78-.33 1.3-1.07.5-.76.76-1.87zm.15-1q.03-.13.05-.3 0-.2 0-.4.03-.18.03-.34 0-.16 0-.26 0-.56-.16-1.02-.15-.48-.4-.82-.27-.35-.66-.54-.37-.2-.8-.2-.4 0-.74.17-.34.16-.6.48-.25.3-.4.78-.15.45-.15 1.03 0 .6.15 1.05.17.44.43.73.26.27.6.4.3.14.64.14.66 0 1.18-.27.54-.27.82-.6z" style="line-height:1.25;-inkscape-font-specification:'Triplicate T4c, Normal';text-align:start" font-size="15" font-family="Triplicate T4c" letter-spacing="0" word-spacing="0"/><path fill="#404030" d="M577.43-329.18q.8.23 1.3.9.5.64.5 1.52 0 .63-.25 1.17-.25.53-.73.92-.46.4-1.15.62-.68.23-1.55.23-.58 0-1.34-.18-.75-.17-1.44-.63-.12-.1-.12-.24 0-.16.1-.3.08-.13.2-.2.14-.1.27-.02.52.32 1.03.5.52.17 1.3.17 1.06 0 1.7-.5.67-.53.67-1.5 0-.96-.57-1.47-.56-.5-1.4-.5h-.67q-.12 0-.17-.13-.06-.13-.06-.28 0-.17.05-.3.05-.13.16-.13h.7q.24 0 .5-.1.23-.08.43-.28.2-.2.35-.54.14-.33.14-.8 0-1-.4-1.4-.4-.45-1.02-.45-.55 0-.84.24-.3.24-.33.62-.02.43-.24.62-.2.2-.55.2-.35 0-.48-.15-.14-.15-.14-.4 0-.24.17-.55.18-.3.52-.57.36-.27.85-.44.5-.2 1.17-.2.5 0 .98.15.48.16.85.45.37.3.6.76.23.46.23 1.1 0 .65-.4 1.2-.4.5-.93.74z" style="line-height:1.25;-inkscape-font-specification:'Triplicate T4c, Normal';text-align:start" font-size="15" font-family="Triplicate T4c" letter-spacing="0" word-spacing="0"/><path fill="#404030" d="M587.6-327.14h.95q.2 0 .3.13.1.12.07.28 0 .15-.1.28-.06.13-.2.13h-1v2.25q0 .12-.18.18-.17.07-.37.07-.18 0-.35-.06-.17-.06-.17-.2v-2.23h-4.1q-.18 0-.25-.18-.08-.2-.1-.46-.03-.24 0-.46.02-.24.05-.3.94-1.42 1.7-2.87.8-1.44 1.2-2.97.03-.2.25-.25.23-.06.48-.03.24 0 .43.1.2.1.16.25-.2.73-.58 1.5-.37.76-.84 1.53-.46.76-.97 1.5-.5.72-1 1.36v.46h3.58v-2.68q0-.12.17-.18t.35-.04q.2 0 .37.07.17.06.17.18z" style="line-height:1.25;-inkscape-font-specification:'Triplicate T4c, Normal';text-align:start" font-size="15" font-family="Triplicate T4c" letter-spacing="0" word-spacing="0"/><path fill="#404030" d="M592.24-327.3q0 1.24.55 1.84.55.58 1.57.58.47 0 .97-.06t.97-.14q.5-.1.9-.2t.72-.23q.1-.05.18.02.1.06.17.16.06.1.06.2.02.1-.06.15-.4.2-.9.37-.47.17-1 .32-.5.13-1.05.2-.52.1-1.03.1-.8 0-1.45-.24-.6-.24-1.05-.65-.4-.42-.63-.97-.2-.57-.2-1.23 0-.9.3-1.6.33-.7.84-1.18.54-.5 1.2-.76.65-.27 1.3-.27.74 0 1.34.22.62.2 1.05.62.44.4.67 1 .25.6.25 1.32 0 .18-.1.3-.07.1-.3.1zm4.36-.67q-.03-.4-.15-.8-.1-.4-.36-.72-.24-.3-.62-.5-.37-.2-.93-.2-.5 0-.9.2-.4.16-.73.47-.3.3-.5.7-.18.4-.2.86z" style="line-height:1.25;-inkscape-font-specification:'Triplicate T4c, Normal';text-align:start" font-size="15" font-family="Triplicate T4c" letter-spacing="0" word-spacing="0"/><path fill="#404030" d="M600.5-326.38q0-.45.17-.85.17-.4.45-.7.28-.33.62-.55.34-.23.67-.35v-.23q-.74-.46-1.1-1.03-.35-.57-.35-1.22 0-.47.2-.9.22-.45.6-.78.4-.35.96-.56.56-.2 1.27-.2.54 0 1.05.15.53.13.93.42.42.28.66.72.26.42.26 1 0 .4-.14.75-.14.34-.37.63-.22.3-.5.5-.26.23-.5.34v.18q.8.32 1.37.96.56.65.56 1.6 0 .6-.25 1.1-.25.48-.7.83-.46.35-1.1.54-.64.2-1.43.2-.7 0-1.32-.2-.6-.18-1.05-.5-.43-.36-.68-.83-.25-.47-.25-1.02zm1.27-.25q0 .38.12.73.1.35.36.64.26.28.66.45.4.15.96.15.5 0 .9-.13.4-.14.7-.38.27-.25.4-.57.16-.32.16-.67 0-.86-.72-1.44-.7-.58-1.95-.8-1.6.64-1.6 2zm.24-4.74q0 .34.17.63.17.3.46.54.3.25.68.44.4.18.86.32.15-.06.4-.2.26-.17.5-.4.26-.25.43-.6.17-.34.17-.77 0-.8-.5-1.22-.5-.43-1.24-.43-.47 0-.84.16-.36.16-.6.4-.24.24-.36.55-.13.3-.13.58z" style="line-height:1.25;-inkscape-font-specification:'Triplicate T4c, Normal';text-align:start" font-size="15" font-family="Triplicate T4c" letter-spacing="0" word-spacing="0"/><rect width="74" height="16" x="458.061" y="-337.065" fill="#f8f8f8" stroke="#ddd" ry="1.557" rx="1.557" stroke-linecap="round" stroke-linejoin="round"/><path fill="#404030" d="M468.8-329.18q.82.23 1.3.9.52.64.52 1.52 0 .63-.26 1.17-.25.53-.73.92-.46.4-1.15.62-.68.23-1.55.23-.58 0-1.34-.18-.77-.17-1.46-.63-.12-.1-.12-.24 0-.16.1-.3.08-.13.2-.2.14-.1.27-.02.5.32 1 .5.53.17 1.3.17 1.07 0 1.7-.5.68-.53.68-1.5 0-.96-.57-1.47-.55-.5-1.4-.5h-.66q-.12 0-.17-.13-.05-.13-.05-.28 0-.17.05-.3.06-.13.17-.13h.7q.24 0 .5-.1.23-.08.43-.28.22-.2.36-.54.14-.33.14-.8 0-1-.4-1.4-.4-.45-1-.45-.56 0-.85.24-.3.24-.33.62-.04.43-.26.62-.2.2-.55.2-.37 0-.5-.15-.14-.15-.14-.4 0-.24.17-.55.18-.3.52-.57.36-.27.85-.44.5-.2 1.17-.2.5 0 1 .15.47.16.84.45.38.3.6.76.24.46.24 1.1 0 .65-.4 1.2-.4.5-.93.74z" style="line-height:1.25;-inkscape-font-specification:'Triplicate T4c, Normal';text-align:start" font-size="15" font-family="Triplicate T4c" letter-spacing="0" word-spacing="0"/><path fill="#404030" d="M479.63-332.6q-1.04 1.95-1.93 4.13-.88 2.2-1.53 4.36-.06.12-.32.2-.27.07-.58.07-.3 0-.54-.07-.23-.06-.13-.27.8-2 1.82-4.1 1-2.1 2.17-4.02l-.12-.2q-.44 0-1 .02-.55 0-1.13.02-.57 0-1.1.03-.52 0-.9.03-.28 0-.42-.16-.14-.2-.15-.4 0-.25.1-.44.1-.18.3-.18.12 0 .38 0 .27 0 .56.02.3 0 .62.02.3 0 .5 0h2.72q.2 0 .34.1.16.1.25.25.1.14.1.32.04.16-.02.3z" style="line-height:1.25;-inkscape-font-specification:'Triplicate T4c, Normal';text-align:start" font-size="15" font-family="Triplicate T4c" letter-spacing="0" word-spacing="0"/><path fill="#404030" d="M485.88-324.73q.34 0 .75-.12.4-.13.77-.44.35-.3.58-.82.23-.52.23-1.33 0-.5-.2-.93-.17-.44-.48-.76-.3-.32-.72-.5-.4-.2-.84-.2-.46 0-.92.15-.45.17-.8.5v3.4q0 .44.4.76.4.3 1.24.3zm-2.94-8.42l-1.02.2q-.1 0-.16-.1-.04-.14-.07-.3-.03-.15 0-.28 0-.14.08-.16.22-.02.6-.08.36-.07.67-.14.3-.08.52-.15.23-.07.37-.1.1-.04.3.07.2.1.15.4-.14.9-.18 1.88-.03.94-.06 1.73l.18.13q.4-.28.9-.47.5-.2 1.05-.2.7 0 1.27.26.58.26 1 .72.42.45.65 1.05.23.58.23 1.24 0 .9-.36 1.57t-.92 1.1q-.54.44-1.22.66-.66.22-1.3.22-.52 0-.87-.1-.37-.1-.57-.16l-.47.36q-.07.06-.2.05-.14-.02-.28-.07-.14-.06-.23-.17-.1-.1-.07-.2.02-.07.03-.24.05-.18.06-.38.02-.2.02-.42 0-.22 0-.37v-7.43z" style="line-height:1.25;-inkscape-font-specification:'Triplicate T4c, Normal';text-align:start" font-size="15" font-family="Triplicate T4c" letter-spacing="0" word-spacing="0"/><path fill="#404030" d="M495.14-324.73q.34 0 .74-.12.4-.13.77-.44.35-.3.6-.82.22-.52.22-1.33 0-.5-.2-.93-.2-.44-.5-.76t-.72-.5q-.4-.2-.84-.2-.45 0-.9.15-.46.17-.8.5v3.4q0 .44.4.76.4.3 1.24.3zm-2.95-8.42l-1.03.2q-.1 0-.15-.1-.05-.14-.08-.3-.02-.15 0-.28.02-.14.1-.16.2-.02.58-.08.37-.07.68-.14.3-.08.52-.15.23-.07.37-.1.1-.04.3.07.2.1.14.4-.12.9-.17 1.88-.03.94-.06 1.73l.2.13q.4-.28.9-.47.48-.2 1.04-.2.7 0 1.28.26.6.26 1 .72.42.45.65 1.05.23.58.23 1.24 0 .9-.35 1.57-.36.67-.9 1.1-.55.44-1.23.66-.67.22-1.3.22-.52 0-.88-.1-.35-.1-.55-.16l-.5.36q-.05.06-.2.05-.13-.02-.27-.07-.14-.06-.23-.17-.1-.1-.06-.2 0-.07.03-.24.03-.18.04-.38.03-.2.03-.42 0-.22 0-.37v-7.43z" style="line-height:1.25;-inkscape-font-specification:'Triplicate T4c, Normal';text-align:start" font-size="15" font-family="Triplicate T4c" letter-spacing="0" word-spacing="0"/><path fill="#404030" d="M507.95-328.93q0 1.2-.27 2.15-.28.95-.8 1.6-.48.66-1.18 1-.7.35-1.5.35-.74 0-1.34-.34-.6-.35-1.05-.94-.42-.6-.67-1.4-.24-.8-.24-1.72 0-1.18.2-2.2.2-1 .64-1.75.44-.74 1.12-1.17.7-.42 1.64-.42.7 0 1.32.3.64.3 1.1.9.48.6.76 1.5.27.92.27 2.13zm-1.38.08q0-1.15-.17-1.96-.17-.83-.48-1.34-1.4 3.6-2.64 7.13.46.44 1.05.44.43 0 .83-.22.4-.22.7-.7.32-.52.5-1.34.2-.83.2-2.03zm-3.8 3.1q.7-1.74 1.33-3.5.63-1.75 1.23-3.52-.4-.26-.9-.26-.6 0-1 .3t-.68.88q-.26.55-.38 1.36-.13.8-.13 1.8 0 .98.14 1.72.14.73.4 1.24z" style="line-height:1.25;-inkscape-font-specification:'Triplicate T4c, Normal';text-align:start" font-size="15" font-family="Triplicate T4c" letter-spacing="0" word-spacing="0"/><path fill="#404030" d="M511.42-333.1q.02-.25.14-.34.14-.1.35-.1h3.07q.3 0 .52-.03.23-.03.44-.07.2-.03.26.14.1.18.03.4-.04.2-.26.4-.2.2-.65.2h-3.1l-.15 2.3.2.13q.18-.1.5-.16.3-.07.8-.07.6 0 1.17.2.58.16 1.05.54.45.38.73.95.3.56.3 1.3t-.33 1.37q-.3.63-.9 1.1-.57.46-1.42.74-.83.27-1.86.27-.28 0-.58-.03-.27-.03-.54-.1-.26-.03-.5-.1-.2-.08-.34-.16-.13-.1-.13-.25.02-.16.1-.3.07-.14.2-.23.13-.08.26 0 .2.13.62.24.42.08 1.07.08.6 0 1.14-.17.56-.2.96-.53.42-.33.65-.8.24-.48.24-1.08 0-.96-.64-1.57-.62-.6-1.9-.6-.44 0-.75.07-.3.1-.52.2-.14.1-.32-.04-.2-.14-.17-.3z" style="line-height:1.25;-inkscape-font-specification:'Triplicate T4c, Normal';text-align:start" font-size="15" font-family="Triplicate T4c" letter-spacing="0" word-spacing="0"/><path fill="#404030" d="M524.42-327.4q-2.02.07-3 .4-.98.34-.98 1.08 0 .54.4.88.4.32 1.07.32.64 0 1.32-.2.7-.2 1.14-.63zm.02 2.65l-.1-.03q-.55.34-1.28.57-.72.2-1.46.2-1.22 0-1.84-.5-.6-.5-.6-1.23 0-.6.34-1 .35-.42 1.03-.7.7-.26 1.7-.4.97-.13 2.22-.17l.03-.7q.02-.4-.1-.7-.1-.28-.3-.47-.18-.2-.44-.27-.25-.1-.53-.1-.48 0-.88.17-.4.14-.62.3-.08.03-.1.1 0 .08 0 .18 0 .45-.2.64-.18.17-.52.17-.26 0-.5-.12-.24-.13-.2-.64 0-.2.05-.35.06-.17.3-.3.37-.16.8-.32.48-.16.95-.28.48-.1.93-.2.46-.06.8-.06.92 0 1.34.58.43.57.43 1.48l-.14 3.9 1.2-.3q.1-.03.2.06.1.08.15.2.04.15.03.26 0 .12-.13.16-.14.05-.43.15-.3.1-.62.2t-.62.2q-.28.1-.4.1-.23.05-.28-.1z" style="line-height:1.25;-inkscape-font-specification:'Triplicate T4c, Normal';text-align:start" font-size="15" font-family="Triplicate T4c" letter-spacing="0" word-spacing="0"/><ellipse cx="575" cy="-352.638" fill="none" stroke="#c0504d" stroke-width="5" ry="7.5" rx="7.5" stroke-linecap="round"/><path fill="none" stroke="#c0504d" stroke-width="5" d="M560-352.64h8"/><path fill="none" stroke="#c0504d" stroke-width="5" d="M582-352.64h8"/><ellipse cx="495" cy="-352.638" fill="none" stroke="#c0504d" stroke-width="5" ry="7.5" rx="7.5" stroke-linecap="round"/><path fill="none" stroke="#c0504d" stroke-width="5" d="M480-352.64h8"/><path fill="none" stroke="#c0504d" stroke-width="5" d="M502-352.64h8"/><path fill="none" stroke="#c0504d" stroke-width="5" d="M507.13-352.64h55"/><path fill="none" stroke="#c0504d" stroke-width="5.045" d="M425-352.64h56" stroke-linecap="round"/><path fill="#c0504d" stroke="#fff" stroke-width=".648" d="M-700 422.36l-4.33-7.5-4.33-7.5h17.32l-4.33 7.5z" transform="matrix(.025 -.783 .76 .001 157.072 -901.064)" stroke-linejoin="round"/><path fill="none" stroke="#c0504d" stroke-width="5" d="M445.45-352.64h4.95"/><path fill="#c0504d" stroke="#fff" stroke-width=".648" d="M-700 422.36l-4.33-7.5-4.33-7.5h17.32l-4.33 7.5z" transform="matrix(.025 -.783 .76 .001 238.697 -901.064)" stroke-linejoin="round"/><path fill="none" stroke="#c0504d" stroke-width="5" d="M527.07-352.64h4.96"/><path fill="#c0504d" d="M430.07-368.52v4.9h-1.34v-3.76q0-1.12-.3-1.56-.3-.45-1.04-.45-.43 0-.78.2-.35.2-.8.68v4.9h-1.33v-6.75h1.33v.9q1-1.03 2-1.03 1.27 0 1.97 1.2 1.07-1.22 2.24-1.22.98 0 1.6.72.64.72.64 2.2v3.97h-1.33v-4q0-.84-.34-1.28-.34-.46-.98-.46-.83 0-1.55.84z" style="line-height:1.25;-inkscape-font-specification:'Gill Sans MT, Normal';text-align:center" font-size="15" font-family="Gill Sans MT" letter-spacing="0" word-spacing="0" text-anchor="middle"/><path fill="#c0504d" d="M440.36-367.68v2.86q0 .35.23.35t.75-.36v.8q-.46.3-.74.4-.26.12-.56.12-.86 0-1-.7-.86.67-1.82.67-.7 0-1.17-.46t-.47-1.16q0-.64.46-1.14.46-.5 1.3-.8l1.7-.58v-.36q0-1.22-1.2-1.22-1.1 0-2.13 1.13v-1.46q.78-.9 2.24-.9 1.1 0 1.75.57.2.18.4.5.16.3.2.6.06.3.06 1.15zm-1.3 2.72v-2l-.9.34q-.7.27-.97.55-.3.27-.3.68 0 .43.27.7.27.26.7.26.63 0 1.18-.52z" style="line-height:1.25;-inkscape-font-specification:'Gill Sans MT, Normal';text-align:center" font-size="15" font-family="Gill Sans MT" letter-spacing="0" word-spacing="0" text-anchor="middle"/><path fill="#c0504d" d="M442.2-364.1v-1.45q.57.4 1.16.64.6.24 1 .24t.7-.2q.3-.2.3-.5t-.18-.48q-.2-.2-.84-.57-1.3-.73-1.7-1.23-.4-.5-.4-1.1 0-.8.6-1.28.62-.5 1.57-.5 1 0 2.04.56v1.3q-1.18-.7-1.94-.7-.4 0-.63.16-.23.17-.23.44 0 .23.2.44.23.22.77.52l.5.27q1.67.94 1.67 2.1 0 .82-.65 1.36-.64.53-1.66.53-.6 0-1.07-.14-.48-.13-1.2-.47z" style="line-height:1.25;-inkscape-font-specification:'Gill Sans MT, Normal';text-align:center" font-size="15" font-family="Gill Sans MT" letter-spacing="0" word-spacing="0" text-anchor="middle"/><path fill="#c0504d" d="M447.37-369.3l2.5-2.46v1.4H452v1.2h-2.13v3.3q0 1.15.96 1.15.72 0 1.52-.5v1.25q-.77.44-1.68.44-.92 0-1.52-.55-.2-.16-.32-.36-.12-.2-.2-.54-.1-.32-.1-1.24v-3h-1.16z" style="line-height:1.25;-inkscape-font-specification:'Gill Sans MT, Normal';text-align:center" font-size="15" font-family="Gill Sans MT" letter-spacing="0" word-spacing="0" text-anchor="middle"/><path fill="#c0504d" d="M459.06-366.88h-4.74q.06.96.65 1.53.6.58 1.54.58 1.33 0 2.45-.82v1.3q-.62.42-1.23.6-.6.17-1.4.17-1.12 0-1.8-.46-.7-.45-1.12-1.23-.4-.78-.4-1.8 0-1.55.86-2.5.87-.97 2.27-.97 1.34 0 2.13.94.8.93.8 2.5zm-4.7-.8h3.38q-.05-.8-.47-1.23-.43-.44-1.14-.44-.72 0-1.18.43-.46.42-.6 1.22z" style="line-height:1.25;-inkscape-font-specification:'Gill Sans MT, Normal';text-align:center" font-size="15" font-family="Gill Sans MT" letter-spacing="0" word-spacing="0" text-anchor="middle"/><path fill="#c0504d" d="M461.93-370.37v1.55l.07-.12q.97-1.56 1.93-1.56.76 0 1.58.76l-.7 1.17q-.7-.66-1.28-.66-.65 0-1.13.62-.47.6-.47 1.45v3.52h-1.34v-6.74z" style="line-height:1.25;-inkscape-font-specification:'Gill Sans MT, Normal';text-align:center" font-size="15" font-family="Gill Sans MT" letter-spacing="0" word-spacing="0" text-anchor="middle"/><path fill="none" stroke="#4f81bd" stroke-width="5" d="M690-272.55c-12.18 0-13.8-5.36-30.45-29.43"/><path fill="none" stroke="#4f81bd" stroke-width="5" d="M615-352.64c12.18 0 13.8 5.36 30.45 29.43"/><path fill="none" stroke="#4f81bd" stroke-width="5" d="M644.78-324.2l15.2 22.85"/><path fill="#4f81bd" stroke="#fff" stroke-width=".648" d="M-700 422.36l-4.33-7.5-4.33-7.5h17.32l-4.33 7.5z" transform="matrix(.665 -.414 .421 .632 944.738 -862.387)" stroke-linejoin="round"/><path fill="none" stroke="#4f81bd" stroke-width="5" d="M648.95-317.93l2.75 4.13"/><path fill="none" stroke="#4f81bd" stroke-width="5" d="M689.5-272.64h35.46" stroke-linecap="round"/><path fill="none" stroke="#c0504d" stroke-width="5.045" d="M590.43-352.64H732.6" stroke-linecap="round"/><path fill="#4f81bd" stroke="#fff" stroke-width=".648" d="M-700 422.36l-4.33-7.5-4.33-7.5h17.32l-4.33 7.5z" transform="matrix(.025 -.783 .76 .001 404.072 -821.064)" stroke-linejoin="round"/><path fill="none" stroke="#4f81bd" stroke-width="5" d="M692.45-272.64h4.95"/><path fill="#4f81bd" d="M600.62-277.75h1.34v10.24h-2.85q-1.5 0-2.38-.96-.9-.94-.9-2.53 0-1.48.94-2.44t2.4-.96q.66 0 1.46.3zm0 9.1v-4.28q-.63-.3-1.26-.3-1 0-1.6.64-.58.66-.58 1.77 0 1.04.5 1.6.32.34.67.46.34.1 1.23.1z" style="line-height:1.25;-inkscape-font-specification:'Gill Sans MT, Normal';text-align:center" font-size="15" font-family="Gill Sans MT" letter-spacing="0" word-spacing="0" text-anchor="middle"/><path fill="#4f81bd" d="M609.5-270.77h-4.73q.05.97.64 1.54.6.57 1.56.57 1.32 0 2.43-.82v1.3q-.62.42-1.23.6-.6.17-1.42.17-1.1 0-1.8-.47-.7-.46-1.1-1.24-.4-.8-.4-1.82 0-1.54.86-2.5.88-.96 2.27-.96 1.34 0 2.14.93.8.94.8 2.52zm-4.7-.8h3.4q-.06-.8-.5-1.23-.4-.43-1.13-.43-.72 0-1.18.43-.46.44-.6 1.24z" style="line-height:1.25;-inkscape-font-specification:'Gill Sans MT, Normal';text-align:center" font-size="15" font-family="Gill Sans MT" letter-spacing="0" word-spacing="0" text-anchor="middle"/><path fill="#4f81bd" d="M614.83-274.25h1.45l-2.98 6.85h-.45l-3.04-6.85h1.47l1.8 4.14z" style="line-height:1.25;-inkscape-font-specification:'Gill Sans MT, Normal';text-align:center" font-size="15" font-family="Gill Sans MT" letter-spacing="0" word-spacing="0" text-anchor="middle"/><path fill="#4f81bd" d="M616.93-271.55h3.64v1.43h-3.64z" style="line-height:1.25;-inkscape-font-specification:'Gill Sans MT, Normal';text-align:center" font-size="15" font-family="Gill Sans MT" letter-spacing="0" word-spacing="0" text-anchor="middle"/><path fill="#4f81bd" d="M625-277.88q1.4 0 2.32 1.48.92 1.47.92 3.74 0 2.33-.92 3.8-.92 1.45-2.38 1.45-1.5 0-2.4-1.44-.9-1.43-.9-3.8 0-2.32.94-3.77.93-1.48 2.42-1.48zm0 1.4h-.06q-.84 0-1.34 1.03-.5 1.04-.5 2.8 0 1.82.5 2.86.48 1.04 1.33 1.04.84 0 1.34-1.03.5-1.03.5-2.8 0-1.78-.5-2.83-.46-1.06-1.26-1.06z" style="line-height:1.25;-inkscape-font-specification:'Gill Sans MT, Normal';text-align:center" font-size="15" font-family="Gill Sans MT" letter-spacing="0" word-spacing="0" text-anchor="middle"/><path fill="#4f81bd" d="M631.72-277.75h1.47v10.24h-1.48z" style="line-height:1.25;-inkscape-font-specification:'Gill Sans MT, Normal';text-align:center" font-size="15" font-family="Gill Sans MT" letter-spacing="0" word-spacing="0" text-anchor="middle"/><path fill="#4f81bd" d="M636.8-271.55h3.64v1.43h-3.65z" style="line-height:1.25;-inkscape-font-specification:'Gill Sans MT, Normal';text-align:center" font-size="15" font-family="Gill Sans MT" letter-spacing="0" word-spacing="0" text-anchor="middle"/><path fill="#4f81bd" d="M642.7-277.1q.32 0 .55.24.23.23.23.56 0 .32-.23.55-.23.24-.56.24-.32 0-.56-.25-.23-.24-.23-.55 0-.3.24-.55.24-.24.55-.24zm-.67 2.85h1.33v6.74h-1.33z" style="line-height:1.25;-inkscape-font-specification:'Gill Sans MT, Normal';text-align:center" font-size="15" font-family="Gill Sans MT" letter-spacing="0" word-spacing="0" text-anchor="middle"/><path fill="#4f81bd" d="M646.6-274.25v.85q.9-.98 2.04-.98.63 0 1.17.32.55.33.83.9.3.56.3 1.8v3.85h-1.34v-3.85q0-1.04-.33-1.47-.3-.45-1.05-.45-.95 0-1.6.94v4.82h-1.37v-6.75z" style="line-height:1.25;-inkscape-font-specification:'Gill Sans MT, Normal';text-align:center" font-size="15" font-family="Gill Sans MT" letter-spacing="0" word-spacing="0" text-anchor="middle"/><path fill="#4f81bd" d="M651.83-273.18l2.5-2.46v1.4h2.14v1.2h-2.13v3.3q0 1.15.96 1.15.72 0 1.5-.47v1.24q-.75.43-1.66.43-.92 0-1.53-.53-.18-.16-.3-.36-.13-.2-.2-.52-.1-.33-.1-1.24v-3h-1.17z" style="line-height:1.25;-inkscape-font-specification:'Gill Sans MT, Normal';text-align:center" font-size="15" font-family="Gill Sans MT" letter-spacing="0" word-spacing="0" text-anchor="middle"/><path fill="#4f81bd" d="M659.22-274.25v1.54l.07-.12q.96-1.56 1.92-1.56.76 0 1.58.76l-.7 1.17q-.7-.66-1.3-.66-.64 0-1.1.6-.48.62-.48 1.46v3.53h-1.34v-6.75z" style="line-height:1.25;-inkscape-font-specification:'Gill Sans MT, Normal';text-align:center" font-size="15" font-family="Gill Sans MT" letter-spacing="0" word-spacing="0" text-anchor="middle"/><path fill="#4f81bd" d="M666.6-274.27q1.53 0 2.55 1 1.02 1 1.02 2.5 0 1.45-1.04 2.4-1.03.97-2.6.97-1.5 0-2.53-.97-1.02-.98-1.02-2.45 0-1.48 1.03-2.46 1.04-1 2.6-1zm-.08 1.2q-.96 0-1.58.63-.6.63-.6 1.6 0 .97.62 1.6.63.6 1.62.6.98 0 1.6-.62.63-.62.63-1.6 0-.95-.64-1.58-.65-.63-1.64-.63z" style="line-height:1.25;-inkscape-font-specification:'Gill Sans MT, Normal';text-align:center" font-size="15" font-family="Gill Sans MT" letter-spacing="0" word-spacing="0" text-anchor="middle"/><rect width="20" height="20" x="764.813" y="-467.638" fill="#f05133" ry="1.947" rx="1.947"/><path fill="#fff" d="M777.4-457.25h-5.27v5.58h1.9q.16 0 .23.18.1.16.1.38.03.2-.04.36-.06.16-.2.16h-4.88q-.15 0-.23-.16-.06-.17-.06-.36.02-.22.1-.37.12-.17.3-.17h1.1v-11.94h-1.57q-.15 0-.23-.16-.07-.17-.07-.37 0-.22.07-.37.06-.17.23-.17h4.28q.18 0 .26.17.1.15.1.37 0 .2-.1.37-.07.15-.23.15h-1.04v5.33h5.26v-5.34h-1.6q-.17 0-.26-.16-.07-.17-.07-.37 0-.22.07-.37.1-.17.24-.17h4.36q.18 0 .26.17.1.15.07.37 0 .2-.1.37-.1.15-.27.15h-1.02v11.93h1.65q.15 0 .24.18.08.16.08.38 0 .2-.08.36-.07.16-.22.16h-4.7q-.18 0-.25-.16-.06-.17-.06-.36.02-.22.1-.37.1-.17.24-.17h1.3z" style="line-height:1.25;-inkscape-font-specification:'Triplicate T4c, Normal';text-align:start" font-size="27.137" font-family="Triplicate T4c" letter-spacing="0" word-spacing="0"/><ellipse cx="735" cy="-272.638" fill="none" stroke="#4f81bd" stroke-width="5" ry="7.5" rx="7.5" stroke-linecap="round"/><path fill="none" stroke="#4f81bd" stroke-width="5" d="M720-272.64h8"/><path fill="none" stroke="#4f81bd" stroke-width="5" d="M742-272.64h8"/><rect width="74" height="16" x="698" y="-257.138" fill="#f8f8f8" stroke="#ddd" ry="1.557" rx="1.557" stroke-linecap="round" stroke-linejoin="round"/><path fill="#404030" d="M708.75-249.25q.8.23 1.3.9.5.64.5 1.52 0 .62-.25 1.16-.25.53-.73.92-.46.4-1.16.6-.66.25-1.53.25-.6 0-1.34-.18-.76-.16-1.45-.63-.13-.1-.13-.24.02-.16.1-.3.1-.14.2-.2.15-.1.28-.02.5.3 1 .48.54.17 1.3.17 1.07 0 1.72-.52.67-.5.67-1.48 0-.97-.57-1.48-.56-.5-1.4-.5h-.67q-.13 0-.17-.12-.04-.14-.04-.28 0-.16.05-.3.07-.12.18-.12h.7q.24 0 .5-.1.23-.08.43-.28.23-.2.37-.53.14-.34.14-.82 0-.98-.4-1.4-.4-.44-1-.44-.55 0-.85.23-.3.23-.32.6-.03.45-.25.64-.2.2-.55.2-.36 0-.5-.15-.13-.14-.13-.4 0-.24.17-.54.18-.3.52-.56.34-.28.84-.45.5-.2 1.17-.2.52 0 1 .14.48.15.85.44.37.3.6.76.23.45.23 1.08 0 .65-.4 1.2-.4.52-.93.75z" style="line-height:1.25;-inkscape-font-specification:'Triplicate T4c, Normal';text-align:start" font-size="15" font-family="Triplicate T4c" letter-spacing="0" word-spacing="0"/><path fill="#404030" d="M714.35-253.18q0-.24.14-.33.13-.1.34-.1h3.06q.3 0 .52-.04.23-.03.45-.08.2-.03.26.15.1.17.03.4-.04.2-.26.4-.2.2-.65.2h-3.1l-.15 2.3.2.13q.18-.1.5-.16.3-.08.8-.08.6 0 1.17.2.58.17 1.05.55.46.38.74.94.3.58.3 1.34 0 .73-.33 1.36-.3.62-.9 1.1-.57.46-1.42.73-.82.27-1.86.27-.27 0-.57-.03-.27-.03-.54-.1-.26-.03-.5-.1-.2-.08-.35-.17-.12-.08-.12-.24.02-.17.1-.3.07-.14.2-.23.13-.1.26 0 .2.13.63.23.42.1 1.06.1.63 0 1.17-.18.56-.2.96-.53.4-.33.65-.8.24-.48.24-1.08 0-.96-.63-1.57-.63-.62-1.92-.62-.44 0-.74.1-.3.08-.53.2-.13.08-.3-.05-.2-.14-.18-.3z" style="line-height:1.25;-inkscape-font-specification:'Triplicate T4c, Normal';text-align:start" font-size="15" font-family="Triplicate T4c" letter-spacing="0" word-spacing="0"/><path fill="#404030" d="M728.18-247.2h.95q.2 0 .3.12.08.13.07.3 0 .14-.1.27-.07.12-.2.12h-1.02v2.26q0 .1-.17.17-.15.08-.36.08-.18 0-.35-.06-.18-.06-.18-.2v-2.24h-4.1q-.17 0-.25-.2-.08-.2-.1-.44-.02-.26 0-.48.02-.23.05-.3.94-1.42 1.7-2.86.8-1.44 1.2-2.97.03-.2.25-.26.23-.07.48-.05.25 0 .43.1.2.1.15.24-.2.73-.58 1.5-.37.76-.83 1.54-.47.76-.98 1.48-.5.73-.98 1.37v.46h3.56v-2.7q0-.1.17-.17.16-.06.34-.04.2 0 .37.06.18.06.18.17z" style="line-height:1.25;-inkscape-font-specification:'Triplicate T4c, Normal';text-align:start" font-size="15" font-family="Triplicate T4c" letter-spacing="0" word-spacing="0"/><path fill="#404030" d="M734.64-245.04v-5.85h-1.25q-.18.03-.25-.06-.08-.1-.08-.2 0-.14.06-.24.06-.1.17-.16.3-.1.54-.25.26-.15.46-.37.2-.23.36-.58.15-.37.26-.9.02-.1.2-.12.16-.03.34 0 .2.02.34.1.16.08.14.23-.03.2-.05.64-.02.44-.02 1.04v6.72l1.93.15q.15 0 .2.12.05.12.05.25t-.07.25q-.06.1-.17.1h-4.96q-.1 0-.16-.1-.04-.12-.04-.25t.04-.25q.07-.1.16-.1z" style="line-height:1.25;-inkscape-font-specification:'Triplicate T4c, Normal';text-align:start" font-size="15" font-family="Triplicate T4c" letter-spacing="0" word-spacing="0"/><path fill="#404030" d="M746.06-251.34q0-.83-.5-1.28-.48-.47-1.17-.47-.4 0-.78.14-.37.13-.54.48v.75q0 .4-.28.58-.26.16-.52.16-.65 0-.65-.56 0-.42.2-.83.25-.4.65-.72.4-.32.97-.5.55-.2 1.2-.2.5 0 1 .15.48.16.9.48.4.3.63.8.25.46.25 1.1 0 .47-.3 1.05-.3.6-.78 1.2-.46.6-1.03 1.2-.56.6-1.1 1.1-.52.48-.96.85-.43.35-.63.5l.1.2h3.3q.46 0 .64-.13.2-.15.33-.3.04-.07.2-.07.2 0 .37.05.18.04.3.13.13.07.1.17l-.42.92q-.1.2-.18.24-.1.03-.28.03h-5.53q-.1 0-.17-.13-.08-.14-.13-.32-.04-.17-.04-.33t.06-.2q.84-.7 1.7-1.5.84-.78 1.5-1.6.7-.8 1.13-1.6.43-.8.43-1.5z" style="line-height:1.25;-inkscape-font-specification:'Triplicate T4c, Normal';text-align:start" font-size="15" font-family="Triplicate T4c" letter-spacing="0" word-spacing="0"/><path fill="#404030" d="M755.3-251.34q0-.83-.48-1.28-.48-.47-1.18-.47-.4 0-.77.14-.37.13-.54.48v.75q0 .4-.28.58-.26.16-.52.16-.65 0-.65-.56 0-.42.22-.83.23-.4.63-.72.42-.32.97-.5.56-.2 1.2-.2.5 0 1 .15.5.16.9.48.4.3.64.8.24.46.24 1.1 0 .47-.3 1.05-.3.6-.78 1.2-.46.6-1.03 1.2-.56.6-1.1 1.1-.52.48-.95.85-.44.35-.64.5l.1.2h3.3q.46 0 .65-.13.2-.15.32-.3.05-.07.22-.07.18 0 .35.05.2.04.3.13.13.07.1.17l-.4.92q-.1.2-.2.24-.1.03-.28.03h-5.52q-.1 0-.17-.13-.08-.14-.12-.32-.05-.17-.05-.33t.06-.2q.85-.7 1.7-1.5.85-.78 1.53-1.6.7-.8 1.1-1.6.44-.8.44-1.5z" style="line-height:1.25;-inkscape-font-specification:'Triplicate T4c, Normal';text-align:start" font-size="15" font-family="Triplicate T4c" letter-spacing="0" word-spacing="0"/><path fill="#404030" d="M764.56-251.34q0-.83-.5-1.28-.47-.47-1.16-.47-.4 0-.78.14-.37.13-.54.48v.75q0 .4-.27.58-.26.16-.52.16-.65 0-.65-.56 0-.42.22-.83.23-.4.63-.72.42-.32.97-.5.56-.2 1.2-.2.5 0 1 .15.5.16.9.48.4.3.64.8.24.46.24 1.1 0 .47-.3 1.05-.3.6-.78 1.2-.47.6-1.04 1.2-.55.6-1.1 1.1-.52.48-.95.85-.43.35-.63.5l.1.2h3.3q.45 0 .64-.13.2-.15.32-.3.05-.07.22-.07.18 0 .35.05.2.04.3.13.14.07.1.17l-.4.92q-.1.2-.2.24-.1.03-.27.03h-5.53q-.1 0-.17-.13-.08-.14-.12-.32-.05-.17-.05-.33t.06-.2q.84-.7 1.7-1.5.84-.78 1.52-1.6.7-.8 1.1-1.6.44-.8.44-1.5z" style="line-height:1.25;-inkscape-font-specification:'Triplicate T4c, Normal';text-align:start" font-size="15" font-family="Triplicate T4c" letter-spacing="0" word-spacing="0"/><path fill="#404030" d="M464.75-312q.2 0 .34.1.13.14.13.33 0 .18-.14.32-.15.13-.35.13-.18 0-.32-.13-.14-.14-.14-.32 0-.17.13-.3.14-.14.32-.14zm-.4 1.6h.8v3.8h-.8z" style="line-height:1.25;-inkscape-font-specification:'Gill Sans MT, Normal';text-align:start" font-size="8.75" font-family="Gill Sans MT" letter-spacing="0" word-spacing="0"/><path fill="#404030" d="M467.1-310.4v.48q.54-.56 1.23-.56.37 0 .7.2.32.17.5.5.16.3.16 1v2.2h-.8v-2.18q0-.6-.2-.84-.2-.25-.63-.25-.57 0-.96.54v2.7h-.8v-3.8z" style="line-height:1.25;-inkscape-font-specification:'Gill Sans MT, Normal';text-align:start" font-size="8.75" font-family="Gill Sans MT" letter-spacing="0" word-spacing="0"/><path fill="#404030" d="M473.5-312.4h.8v5.8h-1.7q-.9 0-1.43-.52-.53-.54-.53-1.44 0-.84.56-1.4.56-.53 1.43-.53.4 0 .88.17zm0 5.17v-2.43q-.37-.17-.75-.17-.6 0-.95.37t-.35 1q0 .58.3.9.2.2.4.26.2.07.74.07z" style="line-height:1.25;-inkscape-font-specification:'Gill Sans MT, Normal';text-align:start" font-size="8.75" font-family="Gill Sans MT" letter-spacing="0" word-spacing="0"/><path fill="#404030" d="M478.84-308.43H476q.03.55.4.87.35.33.9.33.8 0 1.47-.47v.74q-.37.23-.73.33t-.85.1q-.68 0-1.1-.26-.4-.25-.65-.7-.25-.44-.25-1.02 0-.87.52-1.4.53-.56 1.36-.56.8 0 1.28.53t.48 1.42zm-2.82-.45h2.03q-.03-.46-.28-.7-.26-.25-.7-.25-.42 0-.7.25-.27.24-.35.7z" style="line-height:1.25;-inkscape-font-specification:'Gill Sans MT, Normal';text-align:start" font-size="8.75" font-family="Gill Sans MT" letter-spacing="0" word-spacing="0"/><path fill="#404030" d="M482.5-310.4h1.02l-1.67 1.87 1.8 1.94h-1.04l-1.26-1.36-1.2 1.37h-1l1.7-1.93-1.7-1.88h1l1.2 1.3z" style="line-height:1.25;-inkscape-font-specification:'Gill Sans MT, Normal';text-align:start" font-size="8.75" font-family="Gill Sans MT" letter-spacing="0" word-spacing="0"/><path fill="#404030" d="M484.62-307.5q.22 0 .38.13.16.15.16.36 0 .2-.16.34-.15.14-.38.14t-.38-.14q-.15-.14-.15-.35 0-.22.14-.37.15-.14.38-.14z" style="line-height:1.25;-inkscape-font-specification:'Gill Sans MT, Normal';text-align:start" font-size="8.75" font-family="Gill Sans MT" letter-spacing="0" word-spacing="0"/><path fill="#404030" d="M486.16-312.4h.8v2.5q.5-.58 1.24-.58.4 0 .73.2.32.18.47.52.16.33.16 1v2.17h-.8v-2.35q0-.42-.22-.67-.22-.26-.57-.26-.27 0-.5.13-.23.13-.5.43v2.73h-.8z" style="line-height:1.25;-inkscape-font-specification:'Gill Sans MT, Normal';text-align:start" font-size="8.75" font-family="Gill Sans MT" letter-spacing="0" word-spacing="0"/><path fill="#404030" d="M490.1-309.8l1.5-1.4v.8h1.3v.67h-1.3v1.88q0 .65.6.65.42 0 .9-.27v.7q-.46.25-1 .25-.56 0-.92-.3-.12-.1-.2-.2-.07-.12-.12-.3-.05-.2-.05-.7v-1.7h-.7z" style="line-height:1.25;-inkscape-font-specification:'Gill Sans MT, Normal';text-align:start" font-size="8.75" font-family="Gill Sans MT" letter-spacing="0" word-spacing="0"/><path fill="#404030" d="M497-309.36v2.77h-.8v-2.1q0-.65-.2-.9-.17-.25-.62-.25-.25 0-.46.1-.2.12-.47.4v2.76h-.8v-3.8h.8v.5q.6-.58 1.2-.58.76 0 1.18.7.64-.7 1.34-.7.6 0 .97.4.38.4.38 1.24v2.25h-.8v-2.25q0-.48-.2-.73t-.6-.25q-.5 0-.92.47z" style="line-height:1.25;-inkscape-font-specification:'Gill Sans MT, Normal';text-align:start" font-size="8.75" font-family="Gill Sans MT" letter-spacing="0" word-spacing="0"/><path fill="#404030" d="M500.64-312.4h.8v5.8h-.8z" style="line-height:1.25;-inkscape-font-specification:'Gill Sans MT, Normal';text-align:start" font-size="8.75" font-family="Gill Sans MT" letter-spacing="0" word-spacing="0"/><path fill="#404030" d="M507.63-308.88v1.62q0 .2.14.2.15 0 .46-.2v.45q-.28.16-.44.22-.18.06-.36.06-.5 0-.6-.38-.5.37-1.1.37-.4 0-.7-.26-.27-.26-.27-.65 0-.37.27-.65.28-.28.78-.45l1.03-.33v-.2q0-.7-.73-.7-.66 0-1.28.64v-.82q.47-.52 1.34-.52.66 0 1.05.32.13.1.24.28.1.17.13.35.03.17.03.65zm-.78 1.54v-1.14l-.54.2q-.4.15-.57.3-.17.16-.17.4 0 .23.16.38t.42.15q.38 0 .7-.3z" style="line-height:1.25;-inkscape-font-specification:'Gill Sans MT, Normal';text-align:start" font-size="8.75" font-family="Gill Sans MT" letter-spacing="0" word-spacing="0"/><path fill="#404030" d="M511.64-312.4h.8v5.8h-1.7q-.9 0-1.44-.52-.53-.54-.53-1.44 0-.84.56-1.4.56-.53 1.43-.53.4 0 .88.17zm0 5.17v-2.43q-.37-.17-.76-.17-.6 0-.95.37t-.35 1q0 .58.3.9.2.2.4.26.2.07.74.07z" style="line-height:1.25;-inkscape-font-specification:'Gill Sans MT, Normal';text-align:start" font-size="8.75" font-family="Gill Sans MT" letter-spacing="0" word-spacing="0"/><path fill="#404030" d="M516.15-312.4h.8v5.8h-1.7q-.9 0-1.44-.52-.52-.54-.52-1.44 0-.84.56-1.4.56-.53 1.43-.53.4 0 .88.17zm0 5.17v-2.43q-.37-.17-.76-.17-.6 0-.96.37-.35.37-.35 1 0 .58.3.9.18.2.4.26.2.07.73.07z" style="line-height:1.25;-inkscape-font-specification:'Gill Sans MT, Normal';text-align:start" font-size="8.75" font-family="Gill Sans MT" letter-spacing="0" word-spacing="0"/><path fill="#404030" d="M521.5-308.43h-2.85q.03.55.4.87.35.33.9.33.8 0 1.47-.47v.74q-.37.23-.73.33-.37.1-.86.1-.67 0-1.08-.26-.4-.25-.66-.7-.25-.44-.25-1.02 0-.87.52-1.4.53-.56 1.36-.56.8 0 1.3.53.46.53.46 1.42zm-2.83-.45h2.03q-.03-.46-.28-.7-.26-.25-.7-.25-.42 0-.7.25-.27.24-.35.7z" style="line-height:1.25;-inkscape-font-specification:'Gill Sans MT, Normal';text-align:start" font-size="8.75" font-family="Gill Sans MT" letter-spacing="0" word-spacing="0"/><path fill="#404030" d="M525.05-312.4h.8v5.8h-1.7q-.9 0-1.43-.52-.54-.54-.54-1.44 0-.84.56-1.4.57-.53 1.44-.53.4 0 .87.17zm0 5.17v-2.43q-.37-.17-.75-.17-.6 0-.96.37-.35.37-.35 1 0 .58.3.9.2.2.4.26.2.07.73.07z" style="line-height:1.25;-inkscape-font-specification:'Gill Sans MT, Normal';text-align:start" font-size="8.75" font-family="Gill Sans MT" letter-spacing="0" word-spacing="0"/><path fill="#404030" d="M464.14-296.23v-.8q.34.2.7.35.35.14.6.14.24 0 .42-.12.18-.1.18-.27t-.12-.28q-.1-.12-.5-.33-.77-.4-1.02-.7-.23-.28-.23-.62 0-.44.36-.72.36-.28.93-.28.6 0 1.22.32v.74q-.7-.4-1.16-.4-.24 0-.38.1t-.14.25q0 .13.13.25t.45.3l.3.15q1 .53 1 1.2 0 .46-.4.76-.38.3-1 .3-.35 0-.63-.06-.28-.07-.7-.27z" style="line-height:1.25;-inkscape-font-specification:'Gill Sans MT, Normal';text-align:start" font-size="8.75" font-family="Gill Sans MT" letter-spacing="0" word-spacing="0"/><path fill="#404030" d="M467.24-299.17l1.5-1.4v.8h1.28v.68h-1.28v1.88q0 .66.57.66.45 0 .92-.28v.7q-.46.25-1 .25-.55 0-.92-.3-.1-.08-.2-.2-.06-.1-.1-.3-.06-.18-.06-.7v-1.7h-.7z" style="line-height:1.25;-inkscape-font-specification:'Gill Sans MT, Normal';text-align:start" font-size="8.75" font-family="Gill Sans MT" letter-spacing="0" word-spacing="0"/><path fill="#404030" d="M473.28-299.77h.9l-2.86 5.76h-.9l1.4-2.77-1.58-3h.9l1.1 2.15z" style="line-height:1.25;-inkscape-font-specification:'Gill Sans MT, Normal';text-align:start" font-size="8.75" font-family="Gill Sans MT" letter-spacing="0" word-spacing="0"/><path fill="#404030" d="M474.76-301.76h.8v5.8h-.8z" style="line-height:1.25;-inkscape-font-specification:'Gill Sans MT, Normal';text-align:start" font-size="8.75" font-family="Gill Sans MT" letter-spacing="0" word-spacing="0"/><path fill="#404030" d="M480.16-297.8h-2.84q.03.55.38.87.37.33.93.33.8 0 1.46-.47v.74q-.38.23-.74.33t-.85.1q-.66 0-1.07-.26-.42-.26-.67-.7-.24-.44-.24-1.03 0-.86.52-1.4.52-.55 1.36-.55.8 0 1.28.53t.48 1.43zm-2.82-.45h2.03q-.03-.45-.3-.7-.24-.24-.67-.24-.43 0-.7.25-.28.25-.36.7z" style="line-height:1.25;-inkscape-font-specification:'Gill Sans MT, Normal';text-align:start" font-size="8.75" font-family="Gill Sans MT" letter-spacing="0" word-spacing="0"/><path fill="#404030" d="M481.6-296.88q.24 0 .4.15.15.14.15.35 0 .2-.16.35-.16.14-.4.14-.2 0-.37-.13-.15-.14-.15-.35 0-.2.15-.35.16-.15.38-.15z" style="line-height:1.25;-inkscape-font-specification:'Gill Sans MT, Normal';text-align:start" font-size="8.75" font-family="Gill Sans MT" letter-spacing="0" word-spacing="0"/><path fill="#404030" d="M486.2-296.85v.75q-.6.2-1.18.2-.95 0-1.5-.52-.58-.53-.58-1.42 0-.9.55-1.46.54-.55 1.44-.55.3 0 .56.06.25.06.6.22v.8q-.6-.36-1.1-.36-.55 0-.9.36-.35.35-.35.9 0 .6.38.94.37.35 1 .35.47 0 1.07-.25z" style="line-height:1.25;-inkscape-font-specification:'Gill Sans MT, Normal';text-align:start" font-size="8.75" font-family="Gill Sans MT" letter-spacing="0" word-spacing="0"/><path fill="#404030" d="M486.9-296.23v-.8q.35.2.7.35.35.14.6.14t.43-.12q.18-.1.18-.27t-.1-.28q-.13-.12-.5-.33-.8-.4-1.03-.7-.24-.28-.24-.62 0-.44.37-.72.36-.28.93-.28.6 0 1.22.32v.74q-.7-.4-1.17-.4-.23 0-.37.1-.13.1-.13.25 0 .13.12.25t.45.3l.3.15q1 .53 1 1.2 0 .46-.4.76-.38.3-1 .3-.35 0-.63-.06-.3-.07-.7-.27z" style="line-height:1.25;-inkscape-font-specification:'Gill Sans MT, Normal';text-align:start" font-size="8.75" font-family="Gill Sans MT" letter-spacing="0" word-spacing="0"/><path fill="#404030" d="M490.37-296.23v-.8q.34.2.7.35.35.14.6.14.24 0 .42-.12.17-.1.17-.27t-.12-.28q-.1-.12-.5-.33-.77-.4-1-.7-.25-.28-.25-.62 0-.44.36-.72.36-.28.93-.28.6 0 1.2.32v.74q-.7-.4-1.15-.4-.24 0-.38.1t-.14.25q0 .13.13.25t.45.3l.3.15q1 .53 1 1.2 0 .46-.38.76-.4.3-1 .3-.36 0-.64-.06-.28-.07-.7-.27z" style="line-height:1.25;-inkscape-font-specification:'Gill Sans MT, Normal';text-align:start" font-size="8.75" font-family="Gill Sans MT" letter-spacing="0" word-spacing="0"/><path fill="#404030" d="M499.07-298.25v1.62q0 .2.14.2.16 0 .46-.2v.46q-.27.16-.44.22-.16.06-.34.06-.5 0-.6-.37-.52.37-1.1.37-.4 0-.7-.26-.28-.26-.28-.66 0-.36.28-.65.27-.28.78-.45l1.02-.33v-.2q0-.7-.73-.7-.65 0-1.27.65v-.83q.46-.52 1.34-.52.65 0 1.05.32.13.1.24.28.1.17.14.35.03.17.03.65zm-.8 1.54v-1.14l-.52.2q-.4.15-.58.3-.17.16-.17.4 0 .23.16.38t.42.15q.38 0 .7-.3z" style="line-height:1.25;-inkscape-font-specification:'Gill Sans MT, Normal';text-align:start" font-size="8.75" font-family="Gill Sans MT" letter-spacing="0" word-spacing="0"/><path fill="#404030" d="M503.08-301.76h.8v5.8h-1.7q-.9 0-1.44-.53-.53-.53-.53-1.43 0-.84.57-1.38.56-.56 1.43-.56.4 0 .88.16zm0 5.16v-2.42q-.38-.18-.76-.18-.6 0-.95.37t-.35 1q0 .58.3.9.2.2.4.26.2.07.74.07z" style="line-height:1.25;-inkscape-font-specification:'Gill Sans MT, Normal';text-align:start" font-size="8.75" font-family="Gill Sans MT" letter-spacing="0" word-spacing="0"/><path fill="#404030" d="M507.6-301.76h.8v5.8h-1.72q-.9 0-1.43-.53-.53-.53-.53-1.43 0-.84.56-1.38.56-.56 1.43-.56.4 0 .9.16zm0 5.16v-2.42q-.4-.18-.77-.18-.6 0-.95.37t-.35 1q0 .58.3.9.2.2.4.26.2.07.74.07z" style="line-height:1.25;-inkscape-font-specification:'Gill Sans MT, Normal';text-align:start" font-size="8.75" font-family="Gill Sans MT" letter-spacing="0" word-spacing="0"/><path fill="#404030" d="M512.93-297.8h-2.84q.02.55.38.87.36.33.92.33.8 0 1.46-.47v.74q-.37.23-.73.33t-.85.1q-.67 0-1.08-.26-.4-.26-.67-.7-.24-.44-.24-1.03 0-.86.5-1.4.53-.55 1.37-.55.8 0 1.28.53t.48 1.43zm-2.82-.45h2.04q-.03-.45-.28-.7-.26-.24-.7-.24-.42 0-.7.25-.27.25-.35.7z" style="line-height:1.25;-inkscape-font-specification:'Gill Sans MT, Normal';text-align:start" font-size="8.75" font-family="Gill Sans MT" letter-spacing="0" word-spacing="0"/><path fill="#404030" d="M516.5-301.76h.8v5.8h-1.7q-.9 0-1.45-.53-.53-.53-.53-1.43 0-.84.56-1.38.56-.56 1.43-.56.42 0 .9.16zm0 5.16v-2.42q-.38-.18-.76-.18-.6 0-.96.37-.35.37-.35 1 0 .58.3.9.2.2.4.26.2.07.74.07z" style="line-height:1.25;-inkscape-font-specification:'Gill Sans MT, Normal';text-align:start" font-size="8.75" font-family="Gill Sans MT" letter-spacing="0" word-spacing="0"/><path fill="#404030" d="M464.36-291.12h.8v5.8h-.8z" style="line-height:1.25;-inkscape-font-specification:'Gill Sans MT, Normal';text-align:start" font-size="8.75" font-family="Gill Sans MT" letter-spacing="0" word-spacing="0"/><path fill="#404030" d="M468.24-289.15q.92 0 1.54.56.6.57.6 1.43 0 .82-.6 1.37-.63.54-1.57.54-.9 0-1.5-.55-.62-.56-.62-1.4 0-.83.6-1.4.63-.55 1.56-.55zm-.04.68q-.58 0-.95.36-.37.34-.37.9 0 .55.38.9.38.34.97.34.6 0 .97-.35.37-.36.37-.9 0-.56-.4-.9-.38-.37-.97-.37z" style="line-height:1.25;-inkscape-font-specification:'Gill Sans MT, Normal';text-align:start" font-size="8.75" font-family="Gill Sans MT" letter-spacing="0" word-spacing="0"/><path fill="#404030" d="M471.08-287.82q0-.6.47-.97.47-.34 1.3-.34h1.66v.6h-.8q.22.22.32.4.1.2.1.43 0 .3-.2.58-.17.3-.46.44-.28.15-.92.25-.46.06-.46.3 0 .12.17.2.17.1.62.18.74.16.95.25.2.08.4.24.28.28.28.7 0 .54-.52.86-.5.33-1.36.33-.87 0-1.4-.33-.5-.33-.5-.87 0-.78 1-1-.4-.25-.4-.5 0-.17.18-.32.17-.14.47-.2-.9-.4-.9-1.22zm1.5-.67q-.33 0-.55.22-.23.2-.23.5t.22.5q.23.18.57.18.33 0 .55-.2.23-.2.23-.5t-.23-.5q-.23-.2-.57-.2zm-.2 3.36q-.4 0-.65.16-.26.16-.26.4 0 .6 1.13.6.53 0 .82-.15.3-.14.3-.4 0-.28-.38-.45-.36-.16-.95-.16z" style="line-height:1.25;-inkscape-font-specification:'Gill Sans MT, Normal';text-align:start" font-size="8.75" font-family="Gill Sans MT" letter-spacing="0" word-spacing="0"/><path fill="#404030" d="M477-289.15q.9 0 1.52.56.6.57.6 1.43 0 .82-.6 1.37-.63.54-1.57.54-.9 0-1.52-.55-.6-.56-.6-1.4 0-.83.6-1.4.63-.55 1.56-.55zm-.06.68q-.57 0-.94.36-.37.34-.37.9 0 .55.38.9.4.34.98.34.6 0 .96-.35.38-.36.38-.9 0-.56-.4-.9-.38-.37-.98-.37z" style="line-height:1.25;-inkscape-font-specification:'Gill Sans MT, Normal';text-align:start" font-size="8.75" font-family="Gill Sans MT" letter-spacing="0" word-spacing="0"/><path fill="#404030" d="M480.18-286.25q.22 0 .38.15.16.14.16.35 0 .2-.16.35-.15.14-.38.14-.22 0-.38-.14-.15-.14-.15-.35 0-.2.15-.35.16-.15.38-.15z" style="line-height:1.25;-inkscape-font-specification:'Gill Sans MT, Normal';text-align:start" font-size="8.75" font-family="Gill Sans MT" letter-spacing="0" word-spacing="0"/><path fill="#404030" d="M481.7-283.37v-5.77h1.4q1.07 0 1.67.5.6.5.6 1.42 0 .86-.57 1.4-.56.56-1.43.56-.4 0-.86-.16v2.05zm1.38-5.07h-.57v2.35q.38.2.78.2.56 0 .92-.38.36-.37.36-.95 0-.37-.17-.66-.18-.28-.47-.4-.3-.14-.85-.14z" style="line-height:1.25;-inkscape-font-specification:'Gill Sans MT, Normal';text-align:start" font-size="8.75" font-family="Gill Sans MT" letter-spacing="0" word-spacing="0"/><path fill="#404030" d="M487.04-289.14v.48q.54-.56 1.22-.56.38 0 .7.2.33.17.5.5.17.32.17 1v2.2h-.8v-2.18q0-.58-.2-.83-.18-.26-.62-.26-.56 0-.96.55v2.73h-.8v-3.82z" style="line-height:1.25;-inkscape-font-specification:'Gill Sans MT, Normal';text-align:start" font-size="8.75" font-family="Gill Sans MT" letter-spacing="0" word-spacing="0"/><path fill="#404030" d="M490.54-287.82q0-.6.47-.97.48-.34 1.3-.34h1.67v.6h-.82q.24.22.33.4.1.2.1.43 0 .3-.2.58-.17.3-.45.44-.3.15-.93.25-.45.06-.45.3 0 .12.16.2.18.1.63.18.74.16.95.25.22.08.4.24.28.28.28.7 0 .54-.52.86-.5.33-1.36.33-.87 0-1.4-.33-.5-.33-.5-.87 0-.78 1-1-.4-.25-.4-.5 0-.17.18-.32.18-.14.47-.2-.9-.4-.9-1.22zm1.5-.67q-.32 0-.55.22-.24.2-.24.5t.22.5q.23.18.57.18.34 0 .56-.2.24-.2.24-.5t-.23-.5q-.22-.2-.56-.2zm-.2 3.36q-.4 0-.65.16-.27.16-.27.4 0 .6 1.13.6.53 0 .82-.15.3-.14.3-.4 0-.28-.37-.45-.36-.16-.95-.16z" style="line-height:1.25;-inkscape-font-specification:'Gill Sans MT, Normal';text-align:start" font-size="8.75" font-family="Gill Sans MT" letter-spacing="0" word-spacing="0"/><path fill="#404030" d="M499.63-287.62v1.63q0 .2.14.2.15 0 .46-.2v.46q-.28.16-.44.22-.18.06-.36.06-.5 0-.6-.38-.5.38-1.1.38-.4 0-.7-.27-.27-.26-.27-.66 0-.35.27-.63.28-.3.78-.46l1.03-.32v-.2q0-.7-.73-.7-.66 0-1.28.65v-.83q.47-.52 1.34-.52.66 0 1.05.33.13.1.24.28.1.18.13.35.03.17.03.65zm-.78 1.54v-1.13l-.54.18q-.4.16-.57.32-.17.15-.17.38 0 .24.16.4.16.14.42.14.38 0 .7-.3z" style="line-height:1.25;-inkscape-font-specification:'Gill Sans MT, Normal';text-align:start" font-size="8.75" font-family="Gill Sans MT" letter-spacing="0" word-spacing="0"/><path fill="#404030" d="M503.64-291.12h.8v5.8h-1.7q-.9 0-1.44-.54-.53-.53-.53-1.43 0-.84.56-1.38.56-.55 1.43-.55.4 0 .88.17zm0 5.15v-2.42q-.37-.17-.75-.17-.6 0-.97.37-.35.37-.35 1 0 .6.3.9.2.2.4.26.2.07.74.07z" style="line-height:1.25;-inkscape-font-specification:'Gill Sans MT, Normal';text-align:start" font-size="8.75" font-family="Gill Sans MT" letter-spacing="0" word-spacing="0"/><path fill="#404030" d="M508.15-291.12h.8v5.8h-1.7q-.9 0-1.44-.54-.52-.53-.52-1.43 0-.84.56-1.38.56-.55 1.43-.55.4 0 .88.17zm0 5.15v-2.42q-.37-.17-.76-.17-.6 0-.96.37-.35.37-.35 1 0 .6.3.9.18.2.4.26.2.07.73.07z" style="line-height:1.25;-inkscape-font-specification:'Gill Sans MT, Normal';text-align:start" font-size="8.75" font-family="Gill Sans MT" letter-spacing="0" word-spacing="0"/><path fill="#404030" d="M513.5-287.17h-2.85q.03.55.4.88.35.33.92.33.8 0 1.45-.46v.73q-.36.24-.73.34-.37.1-.86.1-.67 0-1.08-.27-.4-.26-.66-.7-.25-.44-.25-1.02 0-.88.52-1.42.53-.55 1.36-.55.8 0 1.3.53.47.55.47 1.44zm-2.83-.45h2.03q-.03-.45-.28-.7-.26-.24-.7-.24-.42 0-.7.24-.27.25-.35.7z" style="line-height:1.25;-inkscape-font-specification:'Gill Sans MT, Normal';text-align:start" font-size="8.75" font-family="Gill Sans MT" letter-spacing="0" word-spacing="0"/><path fill="#404030" d="M517.06-291.12h.8v5.8h-1.7q-.9 0-1.44-.54-.53-.53-.53-1.43 0-.84.54-1.38.57-.55 1.44-.55.4 0 .88.17zm0 5.15v-2.42q-.38-.17-.76-.17-.6 0-.95.37-.36.37-.36 1 0 .6.3.9.2.2.4.26.2.07.74.07z" style="line-height:1.25;-inkscape-font-specification:'Gill Sans MT, Normal';text-align:start" font-size="8.75" font-family="Gill Sans MT" letter-spacing="0" word-spacing="0"/><rect width="74" height="39.5" x="458" y="-317.388" fill="none" stroke="#ddd" ry="1.557" rx="1.557" stroke-linecap="round" stroke-linejoin="round"/><path fill="#404030" d="M540.84-312.26q.2 0 .34.12.14.13.14.32 0 .18-.14.32-.14.13-.34.13t-.33-.13q-.13-.14-.13-.32 0-.17.14-.3.15-.14.34-.14zm-.4 1.6h.8v3.82h-.8z" style="line-height:1.25;-inkscape-font-specification:'Gill Sans MT, Normal';text-align:start" font-size="8.75" font-family="Gill Sans MT" letter-spacing="0" word-spacing="0"/><path fill="#404030" d="M543.2-310.66v.5q.53-.57 1.2-.57.4 0 .7.2.34.17.5.5.18.3.18 1v2.2h-.8v-2.18q0-.6-.2-.85-.18-.25-.62-.25-.57 0-.97.54v2.72h-.82v-3.82z" style="line-height:1.25;-inkscape-font-specification:'Gill Sans MT, Normal';text-align:start" font-size="8.75" font-family="Gill Sans MT" letter-spacing="0" word-spacing="0"/><path fill="#404030" d="M549.6-312.64h.8v5.8h-1.7q-.9 0-1.44-.53-.54-.54-.54-1.44 0-.85.56-1.4.56-.54 1.43-.54.42 0 .9.16zm0 5.16v-2.43q-.38-.18-.76-.18-.6 0-.96.37-.35.36-.35.98 0 .6.3.9.2.2.4.27t.74.07z" style="line-height:1.25;-inkscape-font-specification:'Gill Sans MT, Normal';text-align:start" font-size="8.75" font-family="Gill Sans MT" letter-spacing="0" word-spacing="0"/><path fill="#404030" d="M554.93-308.68h-2.84q.02.55.37.87.36.32.93.32.8 0 1.46-.47v.74q-.37.22-.74.32-.36.1-.84.1-.67 0-1.08-.26-.42-.26-.67-.7-.24-.45-.24-1.03 0-.87.5-1.4.53-.56 1.37-.56.8 0 1.28.53t.48 1.42zm-2.83-.45h2.04q-.03-.46-.3-.7-.24-.25-.67-.25-.43 0-.7.25-.28.24-.37.7z" style="line-height:1.25;-inkscape-font-specification:'Gill Sans MT, Normal';text-align:start" font-size="8.75" font-family="Gill Sans MT" letter-spacing="0" word-spacing="0"/><path fill="#404030" d="M558.58-310.66h1.03l-1.66 1.88 1.78 1.94h-1.02l-1.27-1.37-1.2 1.36h-1l1.7-1.94-1.7-1.88h1l1.2 1.32z" style="line-height:1.25;-inkscape-font-specification:'Gill Sans MT, Normal';text-align:start" font-size="8.75" font-family="Gill Sans MT" letter-spacing="0" word-spacing="0"/><path fill="#404030" d="M560.7-307.76q.23 0 .4.14.15.15.15.36 0 .2-.16.35-.17.13-.4.13-.22 0-.37-.14-.16-.15-.16-.36 0-.2.16-.36.15-.14.37-.14z" style="line-height:1.25;-inkscape-font-specification:'Gill Sans MT, Normal';text-align:start" font-size="8.75" font-family="Gill Sans MT" letter-spacing="0" word-spacing="0"/><path fill="#404030" d="M562.24-312.64h.8v2.5q.5-.6 1.25-.6.4 0 .7.2.33.2.5.53.14.32.14 1v2.16h-.8v-2.36q0-.42-.2-.67-.23-.26-.6-.26-.25 0-.48.13-.24.13-.52.43v2.73h-.8z" style="line-height:1.25;-inkscape-font-specification:'Gill Sans MT, Normal';text-align:start" font-size="8.75" font-family="Gill Sans MT" letter-spacing="0" word-spacing="0"/><path fill="#404030" d="M566.2-310.05l1.5-1.4v.8h1.28v.67h-1.28v1.88q0 .65.57.65.43 0 .9-.27v.7q-.45.25-1 .25-.54 0-.9-.3-.12-.1-.2-.2-.07-.12-.12-.3-.05-.2-.05-.7v-1.7h-.7z" style="line-height:1.25;-inkscape-font-specification:'Gill Sans MT, Normal';text-align:start" font-size="8.75" font-family="Gill Sans MT" letter-spacing="0" word-spacing="0"/><path fill="#404030" d="M573.08-309.6v2.76h-.8v-2.12q0-.64-.18-.9-.18-.24-.63-.24-.25 0-.46.1-.2.12-.47.4v2.76h-.8v-3.82h.8v.5q.6-.57 1.2-.57.77 0 1.2.7.63-.7 1.33-.7.6 0 .97.4.38.4.38 1.24v2.26h-.8v-2.26q0-.48-.2-.73t-.6-.25q-.5 0-.92.47z" style="line-height:1.25;-inkscape-font-specification:'Gill Sans MT, Normal';text-align:start" font-size="8.75" font-family="Gill Sans MT" letter-spacing="0" word-spacing="0"/><path fill="#404030" d="M576.73-312.64h.8v5.8h-.8z" style="line-height:1.25;-inkscape-font-specification:'Gill Sans MT, Normal';text-align:start" font-size="8.75" font-family="Gill Sans MT" letter-spacing="0" word-spacing="0"/><path fill="#404030" d="M584.2-307.73v.75q-.6.2-1.17.2-.95 0-1.5-.52-.58-.53-.58-1.43 0-.9.55-1.45.55-.55 1.45-.55.3 0 .56.06.26.05.62.2v.8q-.6-.36-1.12-.36-.54 0-.9.37-.34.35-.34.9 0 .6.38.94.37.34 1 .34.47 0 1.07-.25z" style="line-height:1.25;-inkscape-font-specification:'Gill Sans MT, Normal';text-align:start" font-size="8.75" font-family="Gill Sans MT" letter-spacing="0" word-spacing="0"/><path fill="#404030" d="M585.1-312.64h.8v2.5q.5-.6 1.24-.6.4 0 .73.2.32.2.47.53.16.32.16 1v2.16h-.8v-2.36q0-.42-.22-.67-.22-.26-.57-.26-.25 0-.5.13-.22.13-.5.43v2.73h-.8z" style="line-height:1.25;-inkscape-font-specification:'Gill Sans MT, Normal';text-align:start" font-size="8.75" font-family="Gill Sans MT" letter-spacing="0" word-spacing="0"/><path fill="#404030" d="M592.16-309.13v1.62q0 .2.14.2t.45-.22v.46q-.27.17-.44.23-.15.06-.33.06-.52 0-.6-.38-.52.37-1.1.37-.42 0-.7-.26-.28-.27-.28-.66 0-.37.26-.65.28-.28.8-.45l1-.33v-.2q0-.7-.72-.7-.65 0-1.27.64v-.8q.46-.53 1.34-.53.66 0 1.06.32.13.1.23.27t.13.35q.03.17.03.65zm-.8 1.54v-1.13l-.53.2q-.4.15-.58.3-.16.16-.16.4 0 .23.14.38.17.15.42.15.38 0 .7-.3z" style="line-height:1.25;-inkscape-font-specification:'Gill Sans MT, Normal';text-align:start" font-size="8.75" font-family="Gill Sans MT" letter-spacing="0" word-spacing="0"/><path fill="#404030" d="M594.27-310.66v.5q.53-.57 1.2-.57.4 0 .72.2.3.17.48.5.17.3.17 1v2.2h-.8v-2.18q0-.6-.2-.85-.18-.25-.62-.25-.57 0-.96.54v2.72h-.82v-3.82z" style="line-height:1.25;-inkscape-font-specification:'Gill Sans MT, Normal';text-align:start" font-size="8.75" font-family="Gill Sans MT" letter-spacing="0" word-spacing="0"/><path fill="#404030" d="M597.76-309.34q0-.6.47-.96.48-.36 1.3-.36h1.66v.6h-.83q.24.22.33.4.1.2.1.44 0 .3-.2.6-.17.27-.45.43-.28.16-.93.25-.45.06-.45.3 0 .13.16.22.18.08.62.17.74.15.95.24.22.1.4.25.28.27.28.7 0 .53-.5.86-.52.3-1.38.3-.87 0-1.4-.32-.5-.32-.5-.87 0-.76 1.02-1-.4-.23-.4-.48 0-.18.16-.33.18-.16.47-.23-.9-.37-.9-1.2zm1.5-.66q-.32 0-.55.2-.22.2-.22.5t.23.5q.23.2.57.2.34 0 .57-.2.22-.2.22-.5t-.22-.5q-.23-.2-.58-.2zm-.2 3.34q-.4 0-.65.16-.24.17-.24.42 0 .6 1.12.6.53 0 .82-.16.3-.15.3-.42 0-.26-.37-.43-.37-.16-.96-.16z" style="line-height:1.25;-inkscape-font-specification:'Gill Sans MT, Normal';text-align:start" font-size="8.75" font-family="Gill Sans MT" letter-spacing="0" word-spacing="0"/><path fill="#404030" d="M605.26-308.68h-2.84q.03.55.4.87.35.32.9.32.8 0 1.47-.47v.74q-.38.22-.74.32t-.85.1q-.66 0-1.07-.26-.4-.26-.66-.7-.25-.45-.25-1.03 0-.87.52-1.4.53-.56 1.36-.56.8 0 1.28.53t.48 1.42zm-2.82-.45h2.03q-.03-.46-.28-.7-.27-.25-.7-.25-.43 0-.7.25-.28.24-.36.7z" style="line-height:1.25;-inkscape-font-specification:'Gill Sans MT, Normal';text-align:start" font-size="8.75" font-family="Gill Sans MT" letter-spacing="0" word-spacing="0"/><path fill="#404030" d="M608.82-312.64h.8v5.8h-1.7q-.9 0-1.43-.53-.55-.54-.55-1.44 0-.85.56-1.4.57-.54 1.44-.54.4 0 .88.16zm0 5.16v-2.43q-.37-.18-.75-.18-.6 0-.96.37-.34.36-.34.98 0 .6.3.9.2.2.4.27t.74.07z" style="line-height:1.25;-inkscape-font-specification:'Gill Sans MT, Normal';text-align:start" font-size="8.75" font-family="Gill Sans MT" letter-spacing="0" word-spacing="0"/><rect width="74" height="17" x="538" y="-317.638" fill="none" stroke="#ddd" ry="1.557" rx="1.557" stroke-linecap="round" stroke-linejoin="round"/><path fill="#404030" d="M701.3-231.6q.85 0 1.4.83.55.83.55 2.12 0 1.32-.55 2.15-.55.83-1.43.83-.9 0-1.43-.8-.54-.82-.54-2.16 0-1.32.55-2.15.56-.83 1.45-.83zm0 .78h-.03q-.5 0-.8.6-.3.58-.3 1.58 0 1.03.3 1.62.28.58.8.58.5 0 .8-.58.3-.6.3-1.6t-.3-1.6q-.28-.6-.76-.6z" style="line-height:1.25;-inkscape-font-specification:'Gill Sans MT, Normal';text-align:start" font-size="8.75" font-family="Gill Sans MT" letter-spacing="0" word-spacing="0"/><path fill="#404030" d="M705.34-231.53h.88v5.8h-.88z" style="line-height:1.25;-inkscape-font-specification:'Gill Sans MT, Normal';text-align:start" font-size="8.75" font-family="Gill Sans MT" letter-spacing="0" word-spacing="0"/><path fill="#404030" d="M708.38-228.02h2.2v.8h-2.2z" style="line-height:1.25;-inkscape-font-specification:'Gill Sans MT, Normal';text-align:start" font-size="8.75" font-family="Gill Sans MT" letter-spacing="0" word-spacing="0"/><path fill="#404030" d="M711.92-231.16q.2 0 .34.13t.14.3q0 .2-.14.33t-.34.13q-.2 0-.33-.13-.15-.14-.15-.32 0-.17.14-.3.13-.14.32-.14zm-.4 1.6h.8v3.83h-.8z" style="line-height:1.25;-inkscape-font-specification:'Gill Sans MT, Normal';text-align:start" font-size="8.75" font-family="Gill Sans MT" letter-spacing="0" word-spacing="0"/><path fill="#404030" d="M714.27-229.55v.48q.54-.56 1.22-.56.37 0 .7.2.32.17.5.5.16.32.16 1v2.2h-.8v-2.18q0-.6-.2-.84-.18-.26-.62-.26-.57 0-.97.54v2.73h-.8v-3.82z" style="line-height:1.25;-inkscape-font-specification:'Gill Sans MT, Normal';text-align:start" font-size="8.75" font-family="Gill Sans MT" letter-spacing="0" word-spacing="0"/><path fill="#404030" d="M717.4-228.95l1.5-1.4v.8h1.3v.68h-1.3v1.87q0 .66.6.66.42 0 .9-.28v.7q-.46.25-1 .25-.56 0-.92-.3-.12-.1-.2-.2-.07-.12-.12-.3-.05-.2-.05-.7v-1.7h-.7z" style="line-height:1.25;-inkscape-font-specification:'Gill Sans MT, Normal';text-align:start" font-size="8.75" font-family="Gill Sans MT" letter-spacing="0" word-spacing="0"/><path fill="#404030" d="M721.84-229.55v.87l.04-.06q.58-.9 1.16-.9.46 0 .95.44l-.43.67q-.42-.38-.78-.38-.4 0-.68.34-.28.35-.28.83v2h-.8v-3.82z" style="line-height:1.25;-inkscape-font-specification:'Gill Sans MT, Normal';text-align:start" font-size="8.75" font-family="Gill Sans MT" letter-spacing="0" word-spacing="0"/><path fill="#404030" d="M726.26-229.56q.93 0 1.54.56.6.56.6 1.42 0 .82-.6 1.37-.63.53-1.57.53-.9 0-1.52-.55-.6-.56-.6-1.4 0-.82.6-1.38.63-.56 1.56-.56zm-.04.68q-.58 0-.94.36-.37.35-.37.9t.38.9q.38.35.98.35.58 0 .96-.35t.38-.9q0-.55-.4-.9-.4-.36-.98-.36z" style="line-height:1.25;-inkscape-font-specification:'Gill Sans MT, Normal';text-align:start" font-size="8.75" font-family="Gill Sans MT" letter-spacing="0" word-spacing="0"/><path fill="#404030" d="M729.46-226.66q.22 0 .38.15.16.13.16.34 0 .2-.16.35-.16.13-.38.13-.23 0-.38-.14-.16-.15-.16-.36 0-.2.16-.35.15-.16.38-.16z" style="line-height:1.25;-inkscape-font-specification:'Gill Sans MT, Normal';text-align:start" font-size="8.75" font-family="Gill Sans MT" letter-spacing="0" word-spacing="0"/><path fill="#404030" d="M731-231.53h.8v2.48q.5-.58 1.25-.58.4 0 .72.2.32.18.48.52.15.33.15 1v2.17h-.8v-2.37q0-.42-.22-.67-.2-.26-.57-.26-.25 0-.48.13-.24.13-.52.43v2.74h-.8z" style="line-height:1.25;-inkscape-font-specification:'Gill Sans MT, Normal';text-align:start" font-size="8.75" font-family="Gill Sans MT" letter-spacing="0" word-spacing="0"/><path fill="#404030" d="M734.95-228.95l1.5-1.4v.8h1.3v.68h-1.3v1.87q0 .66.58.66.43 0 .9-.28v.7q-.45.25-1 .25-.54 0-.9-.3-.12-.1-.2-.2-.07-.12-.12-.3-.04-.2-.04-.7v-1.7h-.7z" style="line-height:1.25;-inkscape-font-specification:'Gill Sans MT, Normal';text-align:start" font-size="8.75" font-family="Gill Sans MT" letter-spacing="0" word-spacing="0"/><path fill="#404030" d="M741.84-228.5v2.77h-.8v-2.13q0-.63-.18-.88-.18-.26-.63-.26-.25 0-.46.1-.2.12-.48.4v2.77h-.8v-3.82h.8v.5q.6-.58 1.2-.58.76 0 1.18.7.64-.7 1.34-.7.6 0 .97.4t.37 1.24v2.27h-.8V-228q0-.47-.2-.73-.2-.25-.6-.25-.5 0-.93.47z" style="line-height:1.25;-inkscape-font-specification:'Gill Sans MT, Normal';text-align:start" font-size="8.75" font-family="Gill Sans MT" letter-spacing="0" word-spacing="0"/><path fill="#404030" d="M745.5-231.53h.8v5.8h-.8z" style="line-height:1.25;-inkscape-font-specification:'Gill Sans MT, Normal';text-align:start" font-size="8.75" font-family="Gill Sans MT" letter-spacing="0" word-spacing="0"/><path fill="#404030" d="M752.48-228.03v1.62q0 .2.14.2t.45-.2v.45q-.27.16-.44.22-.16.06-.34.06-.53 0-.62-.38-.5.38-1.08.38-.43 0-.7-.27-.3-.26-.3-.66 0-.36.28-.64.28-.3.8-.46l1-.33v-.2q0-.7-.72-.7-.65 0-1.27.65v-.83q.45-.53 1.33-.53.65 0 1.05.33.13.1.23.27.12.17.15.35.03.17.03.65zm-.8 1.54v-1.12l-.53.2q-.4.15-.58.3-.16.16-.16.4 0 .23.17.38.16.15.4.15.4 0 .72-.3z" style="line-height:1.25;-inkscape-font-specification:'Gill Sans MT, Normal';text-align:start" font-size="8.75" font-family="Gill Sans MT" letter-spacing="0" word-spacing="0"/><path fill="#404030" d="M756.5-231.53h.8v5.8h-1.72q-.9 0-1.43-.54-.53-.53-.53-1.44 0-.85.55-1.4.57-.54 1.44-.54.4 0 .9.17zm0 5.15v-2.42q-.4-.18-.77-.18-.6 0-.95.37-.36.36-.36 1 0 .58.3.9.2.2.4.25.2.07.75.07z" style="line-height:1.25;-inkscape-font-specification:'Gill Sans MT, Normal';text-align:start" font-size="8.75" font-family="Gill Sans MT" letter-spacing="0" word-spacing="0"/><path fill="#404030" d="M761-231.53h.8v5.8h-1.7q-.9 0-1.44-.54-.53-.53-.53-1.44 0-.85.55-1.4.57-.54 1.44-.54.4 0 .88.17zm0 5.15v-2.42q-.38-.18-.76-.18-.6 0-.95.37-.37.36-.37 1 0 .58.3.9.2.2.4.25.2.07.75.07z" style="line-height:1.25;-inkscape-font-specification:'Gill Sans MT, Normal';text-align:start" font-size="8.75" font-family="Gill Sans MT" letter-spacing="0" word-spacing="0"/><path fill="#404030" d="M766.34-227.58h-2.84q.03.55.38.88.36.32.93.32.8 0 1.47-.47v.74q-.37.23-.73.33t-.85.1q-.68 0-1.1-.27-.4-.26-.66-.7-.24-.44-.24-1.02 0-.88.52-1.42.52-.55 1.36-.55.8 0 1.28.53t.48 1.43zm-2.83-.45h2.05q-.03-.45-.3-.7-.24-.24-.67-.24-.43 0-.7.24-.28.25-.37.7z" style="line-height:1.25;-inkscape-font-specification:'Gill Sans MT, Normal';text-align:start" font-size="8.75" font-family="Gill Sans MT" letter-spacing="0" word-spacing="0"/><path fill="#404030" d="M769.9-231.53h.8v5.8H769q-.9 0-1.44-.54-.53-.53-.53-1.44 0-.85.56-1.4.55-.54 1.42-.54.4 0 .88.17zm0 5.15v-2.42q-.37-.18-.76-.18-.6 0-.95.37-.36.36-.36 1 0 .58.3.9.2.2.4.25.2.07.74.07z" style="line-height:1.25;-inkscape-font-specification:'Gill Sans MT, Normal';text-align:start" font-size="8.75" font-family="Gill Sans MT" letter-spacing="0" word-spacing="0"/><rect width="74" height="17" x="698" y="-237.138" fill="none" stroke="#ddd" ry="1.557" rx="1.557" stroke-linecap="round" stroke-linejoin="round"/><path fill="none" stroke="#f79646" stroke-width="5" d="M707.84-432.72h21.9" stroke-linecap="round"/><path fill="none" stroke="#4f81bd" stroke-width="5" d="M745.84-272.64h82.87" stroke-linecap="round"/><path fill="#4f81bd" stroke="#fff" stroke-width=".648" d="M-700 422.36l-4.33-7.5-4.33-7.5h17.32l-4.33 7.5z" transform="matrix(.025 -.783 .76 .001 480.1 -821.064)" stroke-linejoin="round"/><path fill="none" stroke="#4f81bd" stroke-width="5" d="M768.47-272.64h4.96"/><path fill="none" stroke="#c0504d" stroke-width="5.045" d="M686.5-352.64h142.18" stroke-linecap="round"/><path fill="#c0504d" stroke="#fff" stroke-width=".648" d="M-700 422.36l-4.33-7.5-4.33-7.5h17.32l-4.33 7.5z" transform="matrix(.025 -.783 .76 .001 480.1 -901.064)" stroke-linejoin="round"/><path fill="none" stroke="#c0504d" stroke-width="5" d="M768.47-352.64h4.96"/><path fill="#f79646" d="M610.1-437.83h1.34v10.23h-2.85q-1.5 0-2.4-.94-.9-.95-.9-2.54 0-1.48.94-2.44t2.4-.96q.67 0 1.46.28zm0 9.1v-4.28q-.63-.33-1.26-.33-1 0-1.6.66-.58.65-.58 1.75 0 1.04.5 1.6.32.34.67.46.34.12 1.23.12z" style="line-height:1.25;-inkscape-font-specification:'Gill Sans MT, Normal';text-align:center" font-size="15" font-family="Gill Sans MT" letter-spacing="0" word-spacing="0" text-anchor="middle"/><path fill="#f79646" d="M619-430.85h-4.75q.05.97.64 1.54.6.56 1.54.56 1.32 0 2.43-.82v1.3q-.6.4-1.22.6-.6.16-1.42.16-1.1 0-1.8-.46t-1.1-1.24q-.4-.78-.4-1.8 0-1.54.86-2.5.86-.97 2.25-.97 1.34 0 2.14.94t.8 2.5zm-4.72-.8h3.4q-.06-.8-.5-1.23-.4-.43-1.13-.43-.72 0-1.18.42-.45.43-.6 1.23z" style="line-height:1.25;-inkscape-font-specification:'Gill Sans MT, Normal';text-align:center" font-size="15" font-family="Gill Sans MT" letter-spacing="0" word-spacing="0" text-anchor="middle"/><path fill="#f79646" d="M624.3-434.34h1.46l-2.98 6.86h-.44l-3.05-6.86h1.45l1.8 4.15z" style="line-height:1.25;-inkscape-font-specification:'Gill Sans MT, Normal';text-align:center" font-size="15" font-family="Gill Sans MT" letter-spacing="0" word-spacing="0" text-anchor="middle"/><path fill="#f79646" d="M626.4-431.63h3.65v1.42h-3.64z" style="line-height:1.25;-inkscape-font-specification:'Gill Sans MT, Normal';text-align:center" font-size="15" font-family="Gill Sans MT" letter-spacing="0" word-spacing="0" text-anchor="middle"/><path fill="#f79646" d="M634.48-437.96q1.4 0 2.32 1.48.92 1.47.92 3.74 0 2.33-.92 3.8-.9 1.44-2.38 1.44-1.5 0-2.4-1.42-.9-1.43-.9-3.8 0-2.32.94-3.78.93-1.46 2.42-1.46zm0 1.4h-.06q-.84 0-1.34 1.03-.5 1.03-.5 2.8 0 1.82.5 2.85.48 1.04 1.33 1.04.86 0 1.35-1.04.5-1.03.5-2.8 0-1.78-.5-2.84-.46-1.05-1.26-1.05z" style="line-height:1.25;-inkscape-font-specification:'Gill Sans MT, Normal';text-align:center" font-size="15" font-family="Gill Sans MT" letter-spacing="0" word-spacing="0" text-anchor="middle"/><path fill="#f79646" d="M641.26-429h3.9v1.4h-6.48v-.1l.62-.73q1.44-1.78 2.3-3.03.85-1.24 1.1-1.88.27-.64.27-1.26 0-.86-.5-1.38-.48-.53-1.3-.53-.6 0-1.2.35-.6.36-1.08 1.02V-437q1.18-.96 2.45-.96 1.34 0 2.2.9.88.88.88 2.26 0 .62-.22 1.32-.2.7-.76 1.6-.55.92-1.86 2.5z" style="line-height:1.25;-inkscape-font-specification:'Gill Sans MT, Normal';text-align:center" font-size="15" font-family="Gill Sans MT" letter-spacing="0" word-spacing="0" text-anchor="middle"/><path fill="#f79646" d="M646.27-431.63h3.65v1.42h-3.65z" style="line-height:1.25;-inkscape-font-specification:'Gill Sans MT, Normal';text-align:center" font-size="15" font-family="Gill Sans MT" letter-spacing="0" word-spacing="0" text-anchor="middle"/><path fill="#f79646" d="M655.7-431.65v2.86q0 .36.25.36.24 0 .75-.36v.8q-.45.3-.73.4-.27.12-.57.12-.86 0-1-.68-.86.66-1.82.66-.7 0-1.17-.46-.46-.47-.46-1.17 0-.64.45-1.13.45-.5 1.3-.8l1.7-.6v-.35q0-1.22-1.22-1.22-1.1 0-2.12 1.12v-1.45q.78-.92 2.23-.92 1.1 0 1.75.57.2.2.4.5.17.3.2.6.06.3.06 1.15zm-1.3 2.72v-2l-.9.34q-.67.28-.96.56-.28.27-.28.68 0 .42.27.68.27.27.7.27.63 0 1.17-.53z" style="line-height:1.25;-inkscape-font-specification:'Gill Sans MT, Normal';text-align:center" font-size="15" font-family="Gill Sans MT" letter-spacing="0" word-spacing="0" text-anchor="middle"/><path fill="#f79646" d="M657.84-437.83h1.33v3.98q.86-.63 1.84-.63 1.3 0 2.1.96.82.97.82 2.5 0 1.6-.97 2.58-.97.96-2.6.96-.65 0-1.37-.14-.72-.14-1.14-.35zm1.33 5.25v3.65q.68.2 1.4.2.88 0 1.44-.63.57-.63.57-1.62 0-1-.52-1.63-.52-.64-1.37-.64-.74 0-1.5.66z" style="line-height:1.25;-inkscape-font-specification:'Gill Sans MT, Normal';text-align:center" font-size="15" font-family="Gill Sans MT" letter-spacing="0" word-spacing="0" text-anchor="middle"/><path fill="#f79646" d="M668.62-434.35q1.54 0 2.55 1 1.02.98 1.02 2.48 0 1.46-1.04 2.43-1.03.96-2.6.96-1.52 0-2.54-.98-1-.98-1-2.44 0-1.48 1-2.46 1.04-1 2.6-1zm-.08 1.2q-.96 0-1.57.63-.62.63-.62 1.6 0 .97.63 1.6.63.6 1.62.6.98 0 1.6-.62.64-.62.64-1.6 0-.95-.66-1.58-.65-.63-1.64-.63z" style="line-height:1.25;-inkscape-font-specification:'Gill Sans MT, Normal';text-align:center" font-size="15" font-family="Gill Sans MT" letter-spacing="0" word-spacing="0" text-anchor="middle"/><path fill="#f79646" d="M677.98-427.6v-.86q-.43.47-.98.72-.54.26-1.08.26-.64 0-1.18-.32-.53-.32-.8-.86-.28-.55-.28-1.82v-3.86H675v3.85q0 1.07.3 1.5.3.4 1.06.4.95 0 1.62-.92v-4.82h1.33v6.74z" style="line-height:1.25;-inkscape-font-specification:'Gill Sans MT, Normal';text-align:center" font-size="15" font-family="Gill Sans MT" letter-spacing="0" word-spacing="0" text-anchor="middle"/><path fill="#f79646" d="M680.24-433.27l2.5-2.46v1.4h2.14v1.2h-2.13v3.3q0 1.15.95 1.15.72 0 1.52-.48v1.25q-.77.42-1.68.42-.9 0-1.52-.54-.2-.16-.3-.36-.14-.2-.23-.52-.1-.33-.1-1.25v-3h-1.16z" style="line-height:1.25;-inkscape-font-specification:'Gill Sans MT, Normal';text-align:center" font-size="15" font-family="Gill Sans MT" letter-spacing="0" word-spacing="0" text-anchor="middle"/><path fill="none" stroke="#f79646" d="M605-424.64c80 0 80 0 80 0"/><path fill="none" stroke="#f79646" stroke-width="5" d="M735-432.14h28.67" stroke-linecap="round"/><ellipse cx="774.813" cy="-432.138" fill="none" stroke="#f79646" stroke-width="5" ry="7.5" rx="7.5" stroke-linecap="round"/><path fill="none" stroke="#f79646" stroke-width="5" d="M759.8-432.14h8"/><path fill="none" stroke="#f79646" stroke-width="5" d="M781.8-432.14h8"/><path fill="none" stroke="#f79646" stroke-width="5" d="M788.35-432.14h40.36" stroke-linecap="round"/><path fill="#f79646" stroke="#fff" stroke-width=".648" d="M-700 422.36l-4.33-7.5-4.33-7.5h17.32l-4.33 7.5z" transform="matrix(.025 -.783 .76 .001 512.6 -980.564)" stroke-linejoin="round"/><path fill="none" stroke="#f79646" stroke-width="5" d="M800.97-432.14h4.96"/><path fill="#f8f8f8" stroke="#ddd" d="M741.8-417.64h66c2.23 0 4 1.8 4 4v8c0 2.22-1.77 4-4 4h-66c-2.2 0-4-1.78-4-4v-8c0-2.2 1.8-4 4-4z" stroke-linecap="round" stroke-linejoin="round"/><text x="721.794" y="-416.293" fill="#404030" transform="scale(1.029 .972)" style="line-height:0%;-inkscape-font-specification:'Triplicate T4c, Normal';text-align:start" font-family="Triplicate T4c" letter-spacing="0" word-spacing="0"><tspan x="721.794" y="-416.293" style="line-height:1.25" font-size="15">decb633</tspan></text><rect width="79" height="17" x="735.313" y="-397.638" fill="none" stroke="#ddd" ry="1.557" rx="1.557" stroke-linecap="round" stroke-linejoin="round"/><path fill="#f79646" stroke="#fff" stroke-width=".648" d="M-700 422.36l-4.33-7.5-4.33-7.5h17.32l-4.33 7.5z" transform="matrix(.025 .783 .76 -.001 439.072 115.704)" stroke-linejoin="round"/><path fill="none" stroke="#f79646" stroke-width="5" d="M727.45-432.72h4.95"/><path fill="#404030" d="M739.47-392.1q.85 0 1.4.83.55.83.55 2.12 0 1.32-.55 2.15-.55.83-1.43.83-.9 0-1.44-.8-.54-.82-.54-2.16 0-1.32.56-2.15.56-.83 1.45-.83zm0 .78h-.03q-.5 0-.8.6-.3.58-.3 1.58 0 1.03.3 1.62.28.58.8.58.5 0 .8-.58.3-.6.3-1.6t-.3-1.6q-.28-.6-.76-.6z" style="line-height:1.25;-inkscape-font-specification:'Gill Sans MT, Normal';text-align:start" font-size="8.75" font-family="Gill Sans MT" letter-spacing="0" word-spacing="0"/><path fill="#404030" d="M743.54-387.03h2.34v.8H742v-.06l.36-.4q.87-1.02 1.38-1.72.5-.7.67-1.07.17-.35.17-.7 0-.5-.3-.8-.3-.3-.78-.3-.38 0-.74.22-.36.2-.64.58v-1.06q.72-.55 1.48-.55.8 0 1.32.5t.52 1.28q0 .35-.13.75-.12.4-.45.92-.33.5-1.12 1.4z" style="line-height:1.25;-inkscape-font-specification:'Gill Sans MT, Normal';text-align:start" font-size="8.75" font-family="Gill Sans MT" letter-spacing="0" word-spacing="0"/><path fill="#404030" d="M746.55-388.52h2.2v.8h-2.2z" style="line-height:1.25;-inkscape-font-specification:'Gill Sans MT, Normal';text-align:start" font-size="8.75" font-family="Gill Sans MT" letter-spacing="0" word-spacing="0"/><path fill="#404030" d="M752.2-388.53v1.62q0 .2.16.2.14 0 .45-.2v.45q-.26.16-.43.22-.16.06-.34.06-.52 0-.6-.38-.52.38-1.1.38-.42 0-.7-.27-.28-.26-.28-.66 0-.36.27-.64.28-.3.78-.46l1.03-.33v-.2q0-.7-.73-.7-.66 0-1.28.65v-.83q.47-.53 1.34-.53.66 0 1.05.33.15.1.25.27t.13.35q.03.17.03.65zm-.77 1.54v-1.12l-.54.2q-.42.15-.6.3-.16.16-.16.4 0 .23.16.38.17.15.42.15.38 0 .7-.3z" style="line-height:1.25;-inkscape-font-specification:'Gill Sans MT, Normal';text-align:start" font-size="8.75" font-family="Gill Sans MT" letter-spacing="0" word-spacing="0"/><path fill="#404030" d="M753.5-392.03h.8v2.25q.5-.36 1.1-.36.77 0 1.25.55.5.56.5 1.42 0 .92-.6 1.47-.57.53-1.55.53-.4 0-.83-.08-.43-.07-.68-.2zm.8 2.97v2.07q.4.13.83.13.53 0 .86-.36.33-.36.33-.92 0-.57-.3-.92-.33-.36-.83-.36-.45 0-.9.37z" style="line-height:1.25;-inkscape-font-specification:'Gill Sans MT, Normal';text-align:start" font-size="8.75" font-family="Gill Sans MT" letter-spacing="0" word-spacing="0"/><path fill="#404030" d="M759.96-390.06q.92 0 1.53.56.6.56.6 1.42 0 .82-.62 1.37-.62.53-1.56.53-.9 0-1.52-.55-.6-.56-.6-1.4 0-.82.6-1.38.63-.56 1.56-.56zm-.05.68q-.56 0-.93.36-.37.35-.37.9t.38.9q.38.35.97.35.6 0 .96-.35.4-.35.4-.9t-.4-.9q-.4-.36-1-.36z" style="line-height:1.25;-inkscape-font-specification:'Gill Sans MT, Normal';text-align:start" font-size="8.75" font-family="Gill Sans MT" letter-spacing="0" word-spacing="0"/><path fill="#404030" d="M765.58-386.23v-.5q-.26.27-.6.42-.3.13-.64.13-.38 0-.7-.17-.33-.2-.5-.5-.16-.3-.16-1.02v-2.2h.8v2.2q0 .6.18.83.2.24.64.24.58 0 .98-.52v-2.73h.8v3.82z" style="line-height:1.25;-inkscape-font-specification:'Gill Sans MT, Normal';text-align:start" font-size="8.75" font-family="Gill Sans MT" letter-spacing="0" word-spacing="0"/><path fill="#404030" d="M766.93-389.45l1.5-1.4v.8h1.3v.68h-1.3v1.87q0 .66.58.66.44 0 .92-.28v.7q-.46.25-1 .25-.55 0-.92-.3-.1-.1-.2-.2-.06-.12-.1-.3-.06-.2-.06-.7v-1.7h-.7z" style="line-height:1.25;-inkscape-font-specification:'Gill Sans MT, Normal';text-align:start" font-size="8.75" font-family="Gill Sans MT" letter-spacing="0" word-spacing="0"/><path fill="#404030" d="M770.92-387.16q.22 0 .38.15.16.13.16.34 0 .2-.16.35-.15.13-.38.13-.22 0-.38-.14-.15-.15-.15-.36 0-.2.14-.35.16-.16.38-.16z" style="line-height:1.25;-inkscape-font-specification:'Gill Sans MT, Normal';text-align:start" font-size="8.75" font-family="Gill Sans MT" letter-spacing="0" word-spacing="0"/><path fill="#404030" d="M772.46-392.03h.8v2.48q.5-.58 1.24-.58.4 0 .73.2.32.18.47.52.16.33.16 1v2.17h-.8v-2.37q0-.42-.22-.67-.2-.26-.57-.26-.26 0-.5.13-.23.13-.5.43v2.74h-.8z" style="line-height:1.25;-inkscape-font-specification:'Gill Sans MT, Normal';text-align:start" font-size="8.75" font-family="Gill Sans MT" letter-spacing="0" word-spacing="0"/><path fill="#404030" d="M776.4-389.45l1.5-1.4v.8h1.3v.68h-1.3v1.87q0 .66.6.66.42 0 .9-.28v.7q-.46.25-1 .25-.56 0-.92-.3-.12-.1-.2-.2-.07-.12-.12-.3-.05-.2-.05-.7v-1.7h-.7z" style="line-height:1.25;-inkscape-font-specification:'Gill Sans MT, Normal';text-align:start" font-size="8.75" font-family="Gill Sans MT" letter-spacing="0" word-spacing="0"/><path fill="#404030" d="M783.3-389v2.77h-.8v-2.13q0-.63-.2-.88-.17-.26-.62-.26-.25 0-.46.1-.2.12-.47.4v2.77h-.8v-3.82h.8v.5q.6-.58 1.2-.58.76 0 1.18.7.65-.7 1.35-.7.58 0 .96.4t.38 1.24v2.27h-.8v-2.27q0-.47-.2-.73-.2-.25-.6-.25-.5 0-.92.47z" style="line-height:1.25;-inkscape-font-specification:'Gill Sans MT, Normal';text-align:start" font-size="8.75" font-family="Gill Sans MT" letter-spacing="0" word-spacing="0"/><path fill="#404030" d="M786.95-392.03h.8v5.8h-.8z" style="line-height:1.25;-inkscape-font-specification:'Gill Sans MT, Normal';text-align:start" font-size="8.75" font-family="Gill Sans MT" letter-spacing="0" word-spacing="0"/><path fill="#404030" d="M793.93-388.53v1.62q0 .2.14.2.15 0 .46-.2v.45q-.28.16-.44.22-.17.06-.36.06-.5 0-.6-.38-.5.38-1.1.38-.4 0-.7-.27-.27-.26-.27-.66 0-.36.27-.64.28-.3.78-.46l1.03-.33v-.2q0-.7-.73-.7-.66 0-1.28.65v-.83q.47-.53 1.34-.53.66 0 1.05.33.14.1.24.27.1.17.13.35.03.17.03.65zm-.78 1.54v-1.12l-.54.2q-.4.15-.57.3-.17.16-.17.4 0 .23.16.38t.42.15q.38 0 .7-.3z" style="line-height:1.25;-inkscape-font-specification:'Gill Sans MT, Normal';text-align:start" font-size="8.75" font-family="Gill Sans MT" letter-spacing="0" word-spacing="0"/><path fill="#404030" d="M797.94-392.03h.8v5.8h-1.7q-.9 0-1.44-.54-.53-.53-.53-1.44 0-.85.56-1.4.56-.54 1.43-.54.4 0 .88.17zm0 5.15v-2.42q-.37-.18-.75-.18-.6 0-.97.37-.35.36-.35 1 0 .58.3.9.2.2.4.25.2.07.74.07z" style="line-height:1.25;-inkscape-font-specification:'Gill Sans MT, Normal';text-align:start" font-size="8.75" font-family="Gill Sans MT" letter-spacing="0" word-spacing="0"/><path fill="#404030" d="M802.45-392.03h.8v5.8h-1.7q-.9 0-1.44-.54-.52-.53-.52-1.44 0-.85.56-1.4.56-.54 1.43-.54.4 0 .88.17zm0 5.15v-2.42q-.37-.18-.75-.18-.6 0-.96.37-.35.36-.35 1 0 .58.3.9.18.2.4.25.2.07.73.07z" style="line-height:1.25;-inkscape-font-specification:'Gill Sans MT, Normal';text-align:start" font-size="8.75" font-family="Gill Sans MT" letter-spacing="0" word-spacing="0"/><path fill="#404030" d="M807.8-388.08h-2.85q.03.55.4.88.35.32.92.32.8 0 1.46-.47v.74q-.37.23-.74.33t-.86.1q-.66 0-1.08-.27-.4-.26-.66-.7-.25-.44-.25-1.02 0-.88.53-1.42.52-.55 1.35-.55.8 0 1.3.53.47.53.47 1.43zm-2.83-.45H807q-.03-.45-.28-.7-.26-.24-.7-.24-.42 0-.7.24-.27.25-.35.7z" style="line-height:1.25;-inkscape-font-specification:'Gill Sans MT, Normal';text-align:start" font-size="8.75" font-family="Gill Sans MT" letter-spacing="0" word-spacing="0"/><path fill="#404030" d="M811.36-392.03h.8v5.8h-1.7q-.9 0-1.44-.54-.53-.53-.53-1.44 0-.85.54-1.4.57-.54 1.44-.54.4 0 .88.17zm0 5.15v-2.42q-.38-.18-.76-.18-.6 0-.95.37-.35.36-.35 1 0 .58.3.9.2.2.4.25.2.07.74.07z" style="line-height:1.25;-inkscape-font-specification:'Gill Sans MT, Normal';text-align:start" font-size="8.75" font-family="Gill Sans MT" letter-spacing="0" word-spacing="0"/></g></g></svg>
