<svg xmlns="http://www.w3.org/2000/svg" width="630" height="350" xmlns:xlink="http://www.w3.org/1999/xlink"><defs><linearGradient id="b"><stop offset="0" stop-color="#15af90"/><stop offset="1" stop-color="#1590af"/></linearGradient><marker orient="auto" overflow="visible"><path fill-rule="evenodd" stroke="#000" stroke-width=".8pt" d="M-4.62 0L2.3-4v8l-6.92-4z"/></marker><marker orient="auto" overflow="visible"><path fill="#c00000" fill-rule="evenodd" stroke="#c00000" stroke-width=".8pt" d="M-4.62 0L2.3-4v8l-6.92-4z"/></marker><marker orient="auto" overflow="visible"><path fill-rule="evenodd" stroke="#000" stroke-width=".6875" d="M10.7 4.44L-1.34.02 10.7-4.4c-1.93 2.6-1.92 6.18 0 8.84z" stroke-linejoin="round"/></marker><marker orient="auto" overflow="visible"><path fill-rule="evenodd" stroke="#000" stroke-width=".4pt" d="M2.3 0l-3.45 2v-4L2.3 0z"/></marker><marker orient="auto" overflow="visible"><path fill="#f05133" fill-rule="evenodd" stroke="#f05133" stroke-width=".4pt" d="M2.3 0l-3.45 2v-4L2.3 0z"/></marker><marker orient="auto" overflow="visible"><path fill-rule="evenodd" stroke="#000" stroke-width=".4pt" d="M2.3 0l-3.45 2v-4L2.3 0z"/></marker><marker orient="auto" overflow="visible"><path fill="#404030" fill-rule="evenodd" stroke="#404030" stroke-width=".8pt" d="M4.62 0L-2.3 4v-8l6.92 4z"/></marker><marker orient="auto" overflow="visible"><path fill-rule="evenodd" stroke="#000" stroke-width=".375" d="M-5.23-2.42l6.55 2.4-6.55 2.42c1.05-1.42 1.04-3.37 0-4.82z" stroke-linejoin="round"/></marker><marker orient="auto" overflow="visible"><path fill="#4f81bd" fill-rule="evenodd" stroke="#4f81bd" stroke-width=".4pt" d="M2.3 0l-3.45 2v-4L2.3 0z"/></marker><marker orient="auto" overflow="visible"><path fill-rule="evenodd" stroke="#000" stroke-width=".8pt" d="M4.62 0L-2.3 4v-8l6.92 4z"/></marker><marker orient="auto" overflow="visible"><path fill-rule="evenodd" stroke="#000" stroke-width=".6875" d="M10.7 4.44L-1.34.02 10.7-4.4c-1.93 2.6-1.92 6.18 0 8.84z" stroke-linejoin="round"/></marker><marker orient="auto" overflow="visible"><path fill-rule="evenodd" stroke="#000" stroke-width=".6875" d="M-10.7-4.44L1.34-.02-10.7 4.4c1.93-2.6 1.92-6.18 0-8.84z" stroke-linejoin="round"/></marker><linearGradient><stop offset="0" stop-color="#4c4c4c"/><stop offset="1" stop-color="#656565"/></linearGradient><linearGradient><stop offset="0" stop-color="#4c4c4c"/><stop offset="1" stop-color="#656565"/></linearGradient><linearGradient><stop offset="0" stop-color="#4c4c4c"/><stop offset="1" stop-color="#656565"/></linearGradient><linearGradient><stop offset="0" stop-color="#4c4c4c"/><stop offset="1" stop-color="#656565"/></linearGradient><linearGradient><stop offset="0" stop-color="#4c4c4c"/><stop offset="1" stop-color="#656565"/></linearGradient><linearGradient><stop offset="0" stop-color="#4c4c4c"/><stop offset="1" stop-color="#656565"/></linearGradient><linearGradient><stop offset="0" stop-color="#4c4c4c"/><stop offset="1" stop-color="#656565"/></linearGradient><linearGradient><stop offset="0" stop-color="#4c4c4c"/><stop offset="1" stop-color="#656565"/></linearGradient><linearGradient><stop offset="0" stop-color="#4c4c4c"/><stop offset="1" stop-color="#656565"/></linearGradient><linearGradient><stop offset="0" stop-color="#4c4c4c"/><stop offset="1" stop-color="#656565"/></linearGradient><linearGradient><stop offset="0" stop-color="#4c4c4c"/><stop offset="1" stop-color="#656565"/></linearGradient><linearGradient><stop offset="0" stop-color="#4c4c4c"/><stop offset="1" stop-color="#656565"/></linearGradient><linearGradient><stop offset="0" stop-color="#4c4c4c"/><stop offset="1" stop-color="#656565"/></linearGradient><linearGradient><stop offset="0" stop-color="#4c4c4c"/><stop offset="1" stop-color="#656565"/></linearGradient><linearGradient><stop offset="0" stop-color="#4c4c4c"/><stop offset="1" stop-color="#656565"/></linearGradient><linearGradient><stop offset="0" stop-color="#4c4c4c"/><stop offset="1" stop-color="#656565"/></linearGradient><linearGradient><stop offset="0" stop-color="#4c4c4c"/><stop offset="1" stop-color="#656565"/></linearGradient><linearGradient><stop offset="0" stop-color="#4c4c4c"/><stop offset="1" stop-color="#656565"/></linearGradient><linearGradient><stop offset="0" stop-color="#4c4c4c"/><stop offset="1" stop-color="#656565"/></linearGradient><linearGradient><stop offset="0" stop-color="#4c4c4c"/><stop offset="1" stop-color="#656565"/></linearGradient><linearGradient><stop offset="0" stop-color="#4c4c4c"/><stop offset="1" stop-color="#656565"/></linearGradient><linearGradient><stop offset="0" stop-color="#4c4c4c"/><stop offset="1" stop-color="#656565"/></linearGradient><linearGradient><stop offset="0" stop-color="#4c4c4c"/><stop offset="1" stop-color="#656565"/></linearGradient><linearGradient><stop offset="0" stop-color="#4c4c4c"/><stop offset="1" stop-color="#656565"/></linearGradient><linearGradient><stop offset="0" stop-color="#4c4c4c"/><stop offset="1" stop-color="#656565"/></linearGradient><linearGradient><stop offset="0" stop-color="#4c4c4c"/><stop offset="1" stop-color="#656565"/></linearGradient><linearGradient><stop offset="0" stop-color="#4c4c4c"/><stop offset="1" stop-color="#656565"/></linearGradient><linearGradient><stop offset="0" stop-color="#4c4c4c"/><stop offset="1" stop-color="#656565"/></linearGradient><linearGradient><stop offset="0" stop-color="#4c4c4c"/><stop offset="1" stop-color="#656565"/></linearGradient><linearGradient><stop offset="0" stop-color="#4c4c4c"/><stop offset="1" stop-color="#656565"/></linearGradient><linearGradient><stop offset="0" stop-color="#4c4c4c"/><stop offset="1" stop-color="#656565"/></linearGradient><linearGradient><stop offset="0" stop-color="#4c4c4c"/><stop offset="1" stop-color="#656565"/></linearGradient><linearGradient><stop offset="0" stop-color="#4c4c4c"/><stop offset="1" stop-color="#656565"/></linearGradient><linearGradient><stop offset="0" stop-color="#4c4c4c"/><stop offset="1" stop-color="#656565"/></linearGradient><linearGradient><stop offset="0" stop-color="#4c4c4c"/><stop offset="1" stop-color="#656565"/></linearGradient><linearGradient><stop offset="0" stop-color="#4c4c4c"/><stop offset="1" stop-color="#656565"/></linearGradient><linearGradient><stop offset="0" stop-color="#4c4c4c"/><stop offset="1" stop-color="#656565"/></linearGradient><linearGradient><stop offset="0" stop-color="#4c4c4c"/><stop offset="1" stop-color="#656565"/></linearGradient><linearGradient><stop offset="0" stop-color="#4c4c4c"/><stop offset="1" stop-color="#656565"/></linearGradient><linearGradient><stop offset="0" stop-color="#4c4c4c"/><stop offset="1" stop-color="#656565"/></linearGradient><linearGradient><stop offset="0" stop-color="#4c4c4c"/><stop offset="1" stop-color="#656565"/></linearGradient><linearGradient><stop offset="0" stop-color="#4c4c4c"/><stop offset="1" stop-color="#656565"/></linearGradient><linearGradient><stop offset="0" stop-color="#4c4c4c"/><stop offset="1" stop-color="#656565"/></linearGradient><linearGradient><stop offset="0" stop-color="#4c4c4c"/><stop offset="1" stop-color="#656565"/></linearGradient><linearGradient><stop offset="0" stop-color="#4c4c4c"/><stop offset="1" stop-color="#656565"/></linearGradient><linearGradient><stop offset="0" stop-color="#4c4c4c"/><stop offset="1" stop-color="#656565"/></linearGradient><linearGradient><stop offset="0" stop-color="#4c4c4c"/><stop offset="1" stop-color="#656565"/></linearGradient><linearGradient><stop offset="0" stop-color="#4c4c4c"/><stop offset="1" stop-color="#656565"/></linearGradient><linearGradient><stop offset="0" stop-color="#4c4c4c"/><stop offset="1" stop-color="#656565"/></linearGradient><linearGradient><stop offset="0" stop-color="#4c4c4c"/><stop offset="1" stop-color="#656565"/></linearGradient><linearGradient><stop offset="0" stop-color="#4c4c4c"/><stop offset="1" stop-color="#656565"/></linearGradient><linearGradient><stop offset="0" stop-color="#4c4c4c"/><stop offset="1" stop-color="#656565"/></linearGradient><linearGradient><stop offset="0" stop-color="#4c4c4c"/><stop offset="1" stop-color="#656565"/></linearGradient><linearGradient><stop offset="0" stop-color="#4c4c4c"/><stop offset="1" stop-color="#656565"/></linearGradient><linearGradient><stop offset="0" stop-color="#4c4c4c"/><stop offset="1" stop-color="#656565"/></linearGradient><linearGradient><stop offset="0" stop-color="#4c4c4c"/><stop offset="1" stop-color="#656565"/></linearGradient><linearGradient><stop offset="0" stop-color="#4c4c4c"/><stop offset="1" stop-color="#656565"/></linearGradient><linearGradient><stop offset="0" stop-color="#4c4c4c"/><stop offset="1" stop-color="#656565"/></linearGradient><linearGradient><stop offset="0" stop-color="#4c4c4c"/><stop offset="1" stop-color="#656565"/></linearGradient><linearGradient><stop offset="0" stop-color="#4c4c4c"/><stop offset="1" stop-color="#656565"/></linearGradient><linearGradient><stop offset="0" stop-color="#4c4c4c"/><stop offset="1" stop-color="#656565"/></linearGradient><linearGradient><stop offset="0" stop-color="#4c4c4c"/><stop offset="1" stop-color="#656565"/></linearGradient><linearGradient><stop offset="0" stop-color="#4c4c4c"/><stop offset="1" stop-color="#656565"/></linearGradient><linearGradient><stop offset="0" stop-color="#4c4c4c"/><stop offset="1" stop-color="#656565"/></linearGradient><linearGradient><stop offset="0" stop-color="#4c4c4c"/><stop offset="1" stop-color="#656565"/></linearGradient><linearGradient><stop offset="0" stop-color="#4c4c4c"/><stop offset="1" stop-color="#656565"/></linearGradient><linearGradient><stop offset="0" stop-color="#4c4c4c"/><stop offset="1" stop-color="#656565"/></linearGradient><linearGradient><stop offset="0" stop-color="#4c4c4c"/><stop offset="1" stop-color="#656565"/></linearGradient><linearGradient><stop offset="0" stop-color="#4c4c4c"/><stop offset="1" stop-color="#656565"/></linearGradient><linearGradient><stop offset="0" stop-color="#4c4c4c"/><stop offset="1" stop-color="#656565"/></linearGradient><linearGradient><stop offset="0" stop-color="#4c4c4c"/><stop offset="1" stop-color="#656565"/></linearGradient><linearGradient><stop offset="0" stop-color="#4c4c4c"/><stop offset="1" stop-color="#656565"/></linearGradient><linearGradient><stop offset="0" stop-color="#4c4c4c"/><stop offset="1" stop-color="#656565"/></linearGradient><linearGradient><stop offset="0" stop-color="#4c4c4c"/><stop offset="1" stop-color="#656565"/></linearGradient><linearGradient><stop offset="0" stop-color="#4c4c4c"/><stop offset="1" stop-color="#656565"/></linearGradient><linearGradient><stop offset="0" stop-color="#4c4c4c"/><stop offset="1" stop-color="#656565"/></linearGradient><linearGradient><stop offset="0" stop-color="#4c4c4c"/><stop offset="1" stop-color="#656565"/></linearGradient><linearGradient><stop offset="0" stop-color="#4c4c4c"/><stop offset="1" stop-color="#656565"/></linearGradient><linearGradient><stop offset="0" stop-color="#4c4c4c"/><stop offset="1" stop-color="#656565"/></linearGradient><linearGradient><stop offset="0" stop-color="#4c4c4c"/><stop offset="1" stop-color="#656565"/></linearGradient><linearGradient><stop offset="0" stop-color="#4c4c4c"/><stop offset="1" stop-color="#656565"/></linearGradient><linearGradient><stop offset="0" stop-color="#4c4c4c"/><stop offset="1" stop-color="#656565"/></linearGradient><linearGradient><stop offset="0" stop-color="#4c4c4c"/><stop offset="1" stop-color="#656565"/></linearGradient><linearGradient><stop offset="0" stop-color="#4c4c4c"/><stop offset="1" stop-color="#656565"/></linearGradient><linearGradient><stop offset="0" stop-color="#4c4c4c"/><stop offset="1" stop-color="#656565"/></linearGradient><linearGradient><stop offset="0" stop-color="#4c4c4c"/><stop offset="1" stop-color="#656565"/></linearGradient><linearGradient><stop offset="0" stop-color="#4c4c4c"/><stop offset="1" stop-color="#656565"/></linearGradient><linearGradient><stop offset="0" stop-color="#4c4c4c"/><stop offset="1" stop-color="#656565"/></linearGradient><linearGradient><stop offset="0" stop-color="#4c4c4c"/><stop offset="1" stop-color="#656565"/></linearGradient><linearGradient><stop offset="0" stop-color="#4c4c4c"/><stop offset="1" stop-color="#656565"/></linearGradient><linearGradient><stop offset="0" stop-color="#4c4c4c"/><stop offset="1" stop-color="#656565"/></linearGradient><linearGradient><stop offset="0" stop-color="#4c4c4c"/><stop offset="1" stop-color="#656565"/></linearGradient><linearGradient><stop offset="0" stop-color="#4c4c4c"/><stop offset="1" stop-color="#656565"/></linearGradient><linearGradient><stop offset="0" stop-color="#4c4c4c"/><stop offset="1" stop-color="#656565"/></linearGradient><linearGradient><stop offset="0" stop-color="#4c4c4c"/><stop offset="1" stop-color="#656565"/></linearGradient><linearGradient><stop offset="0" stop-color="#4c4c4c"/><stop offset="1" stop-color="#656565"/></linearGradient><linearGradient><stop offset="0" stop-color="#4c4c4c"/><stop offset="1" stop-color="#656565"/></linearGradient><linearGradient><stop offset="0" stop-color="#4c4c4c"/><stop offset="1" stop-color="#656565"/></linearGradient><linearGradient><stop offset="0" stop-color="#4c4c4c"/><stop offset="1" stop-color="#656565"/></linearGradient><linearGradient><stop offset="0" stop-color="#4c4c4c"/><stop offset="1" stop-color="#656565"/></linearGradient><linearGradient><stop offset="0" stop-color="#4c4c4c"/><stop offset="1" stop-color="#656565"/></linearGradient><linearGradient><stop offset="0" stop-color="#4c4c4c"/><stop offset="1" stop-color="#656565"/></linearGradient><linearGradient><stop offset="0" stop-color="#4c4c4c"/><stop offset="1" stop-color="#656565"/></linearGradient><linearGradient><stop offset="0" stop-color="#4c4c4c"/><stop offset="1" stop-color="#656565"/></linearGradient><linearGradient><stop offset="0" stop-color="#4c4c4c"/><stop offset="1" stop-color="#656565"/></linearGradient><linearGradient><stop offset="0" stop-color="#4c4c4c"/><stop offset="1" stop-color="#656565"/></linearGradient><linearGradient><stop offset="0" stop-color="#4c4c4c"/><stop offset="1" stop-color="#656565"/></linearGradient><linearGradient><stop offset="0" stop-color="#4c4c4c"/><stop offset="1" stop-color="#656565"/></linearGradient><linearGradient><stop offset="0" stop-color="#4c4c4c"/><stop offset="1" stop-color="#656565"/></linearGradient><linearGradient><stop offset="0" stop-color="#4c4c4c"/><stop offset="1" stop-color="#656565"/></linearGradient><linearGradient><stop offset="0" stop-color="#4c4c4c"/><stop offset="1" stop-color="#656565"/></linearGradient><linearGradient><stop offset="0" stop-color="#4c4c4c"/><stop offset="1" stop-color="#656565"/></linearGradient><linearGradient><stop offset="0" stop-color="#4c4c4c"/><stop offset="1" stop-color="#656565"/></linearGradient><linearGradient><stop offset="0" stop-color="#4c4c4c"/><stop offset="1" stop-color="#656565"/></linearGradient><linearGradient><stop offset="0" stop-color="#4c4c4c"/><stop offset="1" stop-color="#656565"/></linearGradient><linearGradient><stop offset="0" stop-color="#4c4c4c"/><stop offset="1" stop-color="#656565"/></linearGradient><linearGradient><stop offset="0" stop-color="#4c4c4c"/><stop offset="1" stop-color="#656565"/></linearGradient><linearGradient><stop offset="0" stop-color="#4c4c4c"/><stop offset="1" stop-color="#656565"/></linearGradient><linearGradient><stop offset="0" stop-color="#4c4c4c"/><stop offset="1" stop-color="#656565"/></linearGradient><linearGradient><stop offset="0" stop-color="#4c4c4c"/><stop offset="1" stop-color="#656565"/></linearGradient><linearGradient><stop offset="0" stop-color="#4c4c4c"/><stop offset="1" stop-color="#656565"/></linearGradient><linearGradient><stop offset="0" stop-color="#4c4c4c"/><stop offset="1" stop-color="#656565"/></linearGradient><linearGradient><stop offset="0" stop-color="#4c4c4c"/><stop offset="1" stop-color="#656565"/></linearGradient><linearGradient><stop offset="0" stop-color="#4c4c4c"/><stop offset="1" stop-color="#656565"/></linearGradient><linearGradient><stop offset="0" stop-color="#4c4c4c"/><stop offset="1" stop-color="#656565"/></linearGradient><linearGradient><stop offset="0" stop-color="#4c4c4c"/><stop offset="1" stop-color="#656565"/></linearGradient><linearGradient><stop offset="0" stop-color="#4c4c4c"/><stop offset="1" stop-color="#656565"/></linearGradient><linearGradient><stop offset="0" stop-color="#4c4c4c"/><stop offset="1" stop-color="#656565"/></linearGradient><linearGradient><stop offset="0" stop-color="#4c4c4c"/><stop offset="1" stop-color="#656565"/></linearGradient><linearGradient><stop offset="0" stop-color="#4c4c4c"/><stop offset="1" stop-color="#656565"/></linearGradient><linearGradient><stop offset="0" stop-color="#4c4c4c"/><stop offset="1" stop-color="#656565"/></linearGradient><linearGradient><stop offset="0" stop-color="#4c4c4c"/><stop offset="1" stop-color="#656565"/></linearGradient><linearGradient><stop offset="0" stop-color="#4c4c4c"/><stop offset="1" stop-color="#656565"/></linearGradient><linearGradient><stop offset="0" stop-color="#4c4c4c"/><stop offset="1" stop-color="#656565"/></linearGradient><linearGradient><stop offset="0" stop-color="#4c4c4c"/><stop offset="1" stop-color="#656565"/></linearGradient><linearGradient><stop offset="0" stop-color="#4c4c4c"/><stop offset="1" stop-color="#656565"/></linearGradient><linearGradient><stop offset="0" stop-color="#4c4c4c"/><stop offset="1" stop-color="#656565"/></linearGradient><linearGradient><stop offset="0" stop-color="#4c4c4c"/><stop offset="1" stop-color="#656565"/></linearGradient><linearGradient><stop offset="0" stop-color="#4c4c4c"/><stop offset="1" stop-color="#656565"/></linearGradient><linearGradient><stop offset="0" stop-color="#4c4c4c"/><stop offset="1" stop-color="#656565"/></linearGradient><linearGradient><stop offset="0" stop-color="#4c4c4c"/><stop offset="1" stop-color="#656565"/></linearGradient><linearGradient><stop offset="0" stop-color="#4c4c4c"/><stop offset="1" stop-color="#656565"/></linearGradient><linearGradient><stop offset="0" stop-color="#4c4c4c"/><stop offset="1" stop-color="#656565"/></linearGradient><linearGradient><stop offset="0" stop-color="#4c4c4c"/><stop offset="1" stop-color="#656565"/></linearGradient><linearGradient><stop offset="0" stop-color="#4c4c4c"/><stop offset="1" stop-color="#656565"/></linearGradient><linearGradient><stop offset="0" stop-color="#4c4c4c"/><stop offset="1" stop-color="#656565"/></linearGradient><linearGradient><stop offset="0" stop-color="#4c4c4c"/><stop offset="1" stop-color="#656565"/></linearGradient><linearGradient><stop offset="0" stop-color="#4c4c4c"/><stop offset="1" stop-color="#656565"/></linearGradient><linearGradient><stop offset="0" stop-color="#4c4c4c"/><stop offset="1" stop-color="#656565"/></linearGradient><linearGradient><stop offset="0" stop-color="#4c4c4c"/><stop offset="1" stop-color="#656565"/></linearGradient><linearGradient><stop offset="0" stop-color="#4c4c4c"/><stop offset="1" stop-color="#656565"/></linearGradient><linearGradient><stop offset="0" stop-color="#4c4c4c"/><stop offset="1" stop-color="#656565"/></linearGradient><linearGradient><stop offset="0" stop-color="#4c4c4c"/><stop offset="1" stop-color="#656565"/></linearGradient><linearGradient><stop offset="0" stop-color="#4c4c4c"/><stop offset="1" stop-color="#656565"/></linearGradient><linearGradient><stop offset="0" stop-color="#4c4c4c"/><stop offset="1" stop-color="#656565"/></linearGradient><linearGradient><stop offset="0" stop-color="#4c4c4c"/><stop offset="1" stop-color="#656565"/></linearGradient><linearGradient><stop offset="0" stop-color="#4c4c4c"/><stop offset="1" stop-color="#656565"/></linearGradient><linearGradient><stop offset="0" stop-color="#4c4c4c"/><stop offset="1" stop-color="#656565"/></linearGradient><linearGradient><stop offset="0" stop-color="#4c4c4c"/><stop offset="1" stop-color="#656565"/></linearGradient><linearGradient><stop offset="0" stop-color="#4c4c4c"/><stop offset="1" stop-color="#656565"/></linearGradient><linearGradient><stop offset="0" stop-color="#4c4c4c"/><stop offset="1" stop-color="#656565"/></linearGradient><linearGradient><stop offset="0" stop-color="#4c4c4c"/><stop offset="1" stop-color="#656565"/></linearGradient><linearGradient><stop offset="0" stop-color="#4c4c4c"/><stop offset="1" stop-color="#656565"/></linearGradient><linearGradient><stop offset="0" stop-color="#4c4c4c"/><stop offset="1" stop-color="#656565"/></linearGradient><linearGradient><stop offset="0" stop-color="#4c4c4c"/><stop offset="1" stop-color="#656565"/></linearGradient><linearGradient><stop offset="0" stop-color="#4c4c4c"/><stop offset="1" stop-color="#656565"/></linearGradient><linearGradient><stop offset="0" stop-color="#4c4c4c"/><stop offset="1" stop-color="#656565"/></linearGradient><linearGradient><stop offset="0" stop-color="#4c4c4c"/><stop offset="1" stop-color="#656565"/></linearGradient><linearGradient><stop offset="0" stop-color="#4c4c4c"/><stop offset="1" stop-color="#656565"/></linearGradient><linearGradient><stop offset="0" stop-color="#4c4c4c"/><stop offset="1" stop-color="#656565"/></linearGradient><linearGradient><stop offset="0" stop-color="#4c4c4c"/><stop offset="1" stop-color="#656565"/></linearGradient><linearGradient><stop offset="0" stop-color="#4c4c4c"/><stop offset="1" stop-color="#656565"/></linearGradient><linearGradient><stop offset="0" stop-color="#4c4c4c"/><stop offset="1" stop-color="#656565"/></linearGradient><linearGradient><stop offset="0" stop-color="#4c4c4c"/><stop offset="1" stop-color="#656565"/></linearGradient><linearGradient><stop offset="0" stop-color="#4c4c4c"/><stop offset="1" stop-color="#656565"/></linearGradient><linearGradient id="a"><stop offset="0" stop-color="#4887d2"/><stop offset="1" stop-color="#71a2dc"/></linearGradient><linearGradient x1="1975.884" x2="3466.778" y1="-5656.661" y2="-6315.289" xlink:href="#a" gradientUnits="userSpaceOnUse"/><linearGradient x1="1975.884" x2="3466.778" y1="-5656.661" y2="-6315.289" xlink:href="#a" gradientUnits="userSpaceOnUse"/><linearGradient x1="1975.884" x2="3466.778" y1="-5656.661" y2="-6315.289" xlink:href="#a" gradientUnits="userSpaceOnUse" gradientTransform="translate(583.61 3916.609)"/><linearGradient x1="1975.884" x2="3466.778" y1="-5656.661" y2="-6315.289" xlink:href="#a" gradientUnits="userSpaceOnUse" gradientTransform="translate(137.304 1781.357)"/><linearGradient x1="1975.884" x2="3466.778" y1="-5656.661" y2="-6315.289" xlink:href="#a" gradientUnits="userSpaceOnUse" gradientTransform="translate(137.304 1781.357)"/><linearGradient x1="1975.884" x2="3466.778" y1="-5656.661" y2="-6315.289" xlink:href="#a" gradientUnits="userSpaceOnUse"/><linearGradient x1="1975.884" x2="3466.778" y1="-5656.661" y2="-6315.289" xlink:href="#a" gradientUnits="userSpaceOnUse"/><linearGradient x1="1975.884" x2="3466.778" y1="-5656.661" y2="-6315.289" xlink:href="#a" gradientUnits="userSpaceOnUse"/><linearGradient x1="1975.884" x2="3466.778" y1="-5656.661" y2="-6315.289" xlink:href="#a" gradientUnits="userSpaceOnUse" gradientTransform="translate(507.231 -1205.157)"/><linearGradient x1="1975.884" x2="3466.778" y1="-5656.661" y2="-6315.289" xlink:href="#a" gradientUnits="userSpaceOnUse" gradientTransform="translate(953.42 929.153)"/><linearGradient x1="1975.884" x2="3466.778" y1="-5656.661" y2="-6315.289" xlink:href="#a" gradientUnits="userSpaceOnUse" gradientTransform="translate(507.231 -1205.157)"/><marker orient="auto" overflow="visible"><path fill-rule="evenodd" stroke="#000" stroke-width=".8pt" d="M4.62 0L-2.3 4v-8l6.92 4z"/></marker><marker orient="auto" overflow="visible"><path fill="#4f81bd" fill-rule="evenodd" stroke="#4f81bd" stroke-width=".4pt" d="M2.3 0l-3.45 2v-4L2.3 0z"/></marker><marker orient="auto" overflow="visible"><path fill-rule="evenodd" stroke="#000" stroke-width=".4pt" d="M2.3 0l-3.45 2v-4L2.3 0z"/></marker><marker orient="auto" overflow="visible"><path fill-rule="evenodd" stroke="#000" stroke-width=".4pt" d="M2.3 0l-3.45 2v-4L2.3 0z"/></marker><marker orient="auto" overflow="visible"><path fill-rule="evenodd" stroke="#000" stroke-width=".4pt" d="M2.3 0l-3.45 2v-4L2.3 0z"/></marker><marker orient="auto" overflow="visible"><path fill-rule="evenodd" stroke="#000" stroke-width=".4pt" d="M2.3 0l-3.45 2v-4L2.3 0z"/></marker><marker orient="auto" overflow="visible"><path fill-rule="evenodd" stroke="#000" stroke-width=".4pt" d="M2.3 0l-3.45 2v-4L2.3 0z"/></marker><marker orient="auto" overflow="visible"><path fill-rule="evenodd" stroke="#000" stroke-width=".4pt" d="M2.3 0l-3.45 2v-4L2.3 0z"/></marker><marker orient="auto" overflow="visible"><path fill-rule="evenodd" stroke="#000" stroke-width=".4pt" d="M2.3 0l-3.45 2v-4L2.3 0z"/></marker><marker orient="auto" overflow="visible"><path fill-rule="evenodd" stroke="#000" stroke-width=".4pt" d="M2.3 0l-3.45 2v-4L2.3 0z"/></marker><marker orient="auto" overflow="visible"><path fill-rule="evenodd" stroke="#000" stroke-width=".4pt" d="M2.3 0l-3.45 2v-4L2.3 0z"/></marker><marker orient="auto" overflow="visible"><path fill-rule="evenodd" stroke="#000" stroke-width=".4pt" d="M2.3 0l-3.45 2v-4L2.3 0z"/></marker><marker orient="auto" overflow="visible"><path fill-rule="evenodd" stroke="#000" stroke-width=".4pt" d="M2.3 0l-3.45 2v-4L2.3 0z"/></marker><marker orient="auto" overflow="visible"><path fill-rule="evenodd" stroke="#000" stroke-width=".4pt" d="M2.3 0l-3.45 2v-4L2.3 0z"/></marker><marker orient="auto" overflow="visible"><path fill-rule="evenodd" stroke="#000" stroke-width=".8pt" d="M4.62 0L-2.3 4v-8l6.92 4z"/></marker><marker orient="auto" overflow="visible"><path fill-rule="evenodd" stroke="#000" stroke-width=".8pt" d="M4.62 0L-2.3 4v-8l6.92 4z"/></marker><marker orient="auto" overflow="visible"><path fill="#789440" fill-rule="evenodd" stroke="#789440" stroke-width=".8pt" d="M4.62 0L-2.3 4v-8l6.92 4z"/></marker><marker orient="auto" overflow="visible"><path fill="#789440" fill-rule="evenodd" stroke="#789440" stroke-width=".8pt" d="M4.62 0L-2.3 4v-8l6.92 4z"/></marker><marker orient="auto" overflow="visible"><path fill="#ffc000" fill-rule="evenodd" stroke="#ffc000" stroke-width=".8pt" d="M-4.62 0L2.3-4v8l-6.92-4z"/></marker><marker orient="auto" overflow="visible"><path fill="#ffc000" fill-rule="evenodd" stroke="#ffc000" stroke-width=".4pt" d="M2.3 0l-3.45 2v-4L2.3 0z"/></marker><marker orient="auto" overflow="visible"><path fill-rule="evenodd" stroke="#000" stroke-width=".8pt" d="M4.62 0L-2.3 4v-8l6.92 4z"/></marker><marker orient="auto" overflow="visible"><path fill="#4f81bd" fill-rule="evenodd" stroke="#4f81bd" stroke-width=".4pt" d="M2.3 0l-3.45 2v-4L2.3 0z"/></marker><linearGradient x1="218.218" x2="814.159" y1="553.207" y2="553.207" gradientTransform="matrix(-1 0 0 -1 1032.377 1384.428)" xlink:href="#b" gradientUnits="userSpaceOnUse"/><marker orient="auto" overflow="visible"><path fill="#f05133" fill-rule="evenodd" stroke="#f05133" stroke-width=".4pt" d="M2.3 0l-3.45 2v-4L2.3 0z"/></marker><marker orient="auto" overflow="visible"><path fill="#f05133" fill-rule="evenodd" stroke="#f05133" stroke-width=".4pt" d="M2.3 0l-3.45 2v-4L2.3 0z"/></marker><marker orient="auto" overflow="visible"><path fill="#f05133" fill-rule="evenodd" stroke="#f05133" stroke-width=".4pt" d="M2.3 0l-3.45 2v-4L2.3 0z"/></marker><marker orient="auto" overflow="visible"><path fill="#f05133" fill-rule="evenodd" stroke="#f05133" stroke-width=".4pt" d="M2.3 0l-3.45 2v-4L2.3 0z"/></marker></defs><g><g transform="matrix(2.797 0 0 2.797 -1062.608 1224.522)"><path fill="none" stroke="#c0504d" stroke-width="5.045" d="M382.54-417.64h124.94" stroke-linecap="round"/><path fill="#c0504d" stroke="#fff" stroke-width=".648" d="M-700 422.36l-4.33-7.5-4.33-7.5h17.32l-4.33 7.5z" transform="matrix(.025 -.783 .76 .001 112.072 -966.064)" stroke-linejoin="round"/><path fill="none" stroke="#c0504d" stroke-width="5" d="M400.45-417.64h4.95"/><path fill="#c0504d" d="M385.58-434.52v4.9h-1.34v-3.76q0-1.12-.3-1.56-.3-.45-1.05-.45-.42 0-.78.2-.34.2-.8.68v4.9H380v-6.75h1.33v.9q1.02-1.03 2-1.03 1.28 0 1.98 1.2 1.08-1.22 2.24-1.22 1 0 1.62.72.63.72.63 2.2v3.97h-1.34v-4q0-.84-.34-1.28-.35-.46-1-.46-.82 0-1.54.84z" style="line-height:125%;-inkscape-font-specification:'Gill Sans MT, Normal';text-align:center" font-family="Gill Sans MT" letter-spacing="0" word-spacing="0" text-anchor="middle"/><path fill="#c0504d" d="M395.86-433.68v2.86q0 .35.24.35t.75-.36v.8q-.45.3-.73.4-.27.12-.57.12-.86 0-1-.7-.86.67-1.82.67-.7 0-1.17-.46t-.47-1.16q0-.64.44-1.14.46-.5 1.3-.8l1.7-.58v-.36q0-1.22-1.2-1.22-1.1 0-2.13 1.13v-1.46q.8-.9 2.25-.9 1.1 0 1.75.57.22.18.4.5.17.3.2.6.06.3.06 1.15zm-1.3 2.72v-2l-.9.34q-.68.27-.97.55-.3.27-.3.68 0 .43.28.7.27.26.7.26.63 0 1.17-.52z" style="line-height:125%;-inkscape-font-specification:'Gill Sans MT, Normal';text-align:center" font-family="Gill Sans MT" letter-spacing="0" word-spacing="0" text-anchor="middle"/><path fill="#c0504d" d="M397.72-430.1v-1.45q.56.4 1.15.64.6.24 1 .24t.7-.2q.3-.2.3-.5t-.2-.48q-.18-.2-.82-.57-1.3-.73-1.7-1.23-.4-.5-.4-1.1 0-.8.6-1.28.62-.5 1.57-.5 1 0 2.03.56v1.3q-1.2-.7-1.94-.7-.38 0-.62.16-.23.17-.23.44 0 .23.2.44.23.22.77.52l.48.27q1.68.94 1.68 2.1 0 .82-.65 1.36-.65.53-1.66.53-.6 0-1.07-.14-.47-.13-1.18-.47z" style="line-height:125%;-inkscape-font-specification:'Gill Sans MT, Normal';text-align:center" font-family="Gill Sans MT" letter-spacing="0" word-spacing="0" text-anchor="middle"/><path fill="#c0504d" d="M402.87-435.3l2.5-2.46v1.4h2.14v1.2h-2.12v3.3q0 1.15.96 1.15.72 0 1.5-.5v1.25q-.76.44-1.66.44-.92 0-1.53-.55-.2-.16-.3-.36-.14-.2-.22-.54-.08-.32-.08-1.24v-3h-1.18v-.12z" style="line-height:125%;-inkscape-font-specification:'Gill Sans MT, Normal';text-align:center" font-family="Gill Sans MT" letter-spacing="0" word-spacing="0" text-anchor="middle"/><path fill="#c0504d" d="M414.57-432.88h-4.74q.05.96.65 1.53.6.58 1.54.58 1.32 0 2.43-.82v1.3q-.6.42-1.22.6-.6.17-1.4.17-1.13 0-1.82-.46-.67-.45-1.1-1.23-.4-.78-.4-1.8 0-1.55.87-2.5.87-.97 2.26-.97 1.34 0 2.14.94.8.93.8 2.5v.18zm-4.7-.8h3.38q-.05-.8-.47-1.23-.43-.44-1.15-.44-.7 0-1.18.43-.45.42-.6 1.22z" style="line-height:125%;-inkscape-font-specification:'Gill Sans MT, Normal';text-align:center" font-family="Gill Sans MT" letter-spacing="0" word-spacing="0" text-anchor="middle"/><path fill="#c0504d" d="M417.43-436.37v1.55l.08-.12q.97-1.56 1.94-1.56.76 0 1.58.76l-.7 1.17q-.7-.66-1.3-.66-.64 0-1.12.62-.47.6-.47 1.45v3.52h-1.34v-6.74h1.33z" style="line-height:125%;-inkscape-font-specification:'Gill Sans MT, Normal';text-align:center" font-family="Gill Sans MT" letter-spacing="0" word-spacing="0" text-anchor="middle"/><path fill="#c0504d" fill-rule="evenodd" stroke="#c0504d" d="M380-426.64c41 0 41 0 41 0"/><path fill="#404030" d="M390.12-322.33l1.5-1.4v.8h1.28v.67h-1.27v1.88q0 .65.57.65.43 0 .9-.27v.7q-.45.25-1 .25t-.9-.3q-.12-.1-.2-.2-.07-.12-.13-.3-.04-.2-.04-.7v-1.7h-.7v-.08z" style="line-height:125%;-inkscape-font-specification:'Gill Sans MT, Normal';text-align:start" font-family="Gill Sans MT" letter-spacing="0" word-spacing="0"/><path fill="#404030" d="M397.14-320.96h-2.84q.03.55.38.87.36.34.93.34.8 0 1.47-.47v.74q-.37.24-.73.34-.36.1-.85.1-.68 0-1.1-.26-.4-.26-.66-.7-.24-.45-.24-1.03 0-.87.52-1.4.52-.56 1.36-.56.8 0 1.28.52.48.53.48 1.42v.1zm-2.82-.45h2.03q-.03-.47-.3-.7-.24-.26-.67-.26-.43 0-.7.25-.28.23-.36.7z" style="line-height:125%;-inkscape-font-specification:'Gill Sans MT, Normal';text-align:start" font-family="Gill Sans MT" letter-spacing="0" word-spacing="0"/><path fill="#404030" d="M397.8-319.4v-.8q.34.22.7.36.35.14.6.14.24 0 .42-.12.18-.1.18-.28 0-.16-.12-.27-.1-.1-.5-.32-.77-.4-1-.68-.25-.3-.25-.63 0-.46.36-.73.36-.28.93-.28.6 0 1.22.3v.75q-.72-.4-1.17-.4-.23 0-.38.1-.14.08-.14.24 0 .12.13.24.12.12.45.3l.28.14q1 .54 1 1.2 0 .47-.38.77-.38.3-1 .3-.36 0-.64-.07-.27-.07-.7-.27z" style="line-height:125%;-inkscape-font-specification:'Gill Sans MT, Normal';text-align:start" font-family="Gill Sans MT" letter-spacing="0" word-spacing="0"/><path fill="#404030" d="M400.9-322.33l1.5-1.4v.8h1.28v.67h-1.28v1.88q0 .65.58.65.43 0 .9-.27v.7q-.45.25-1 .25t-.9-.3q-.13-.1-.2-.2-.08-.12-.13-.3-.05-.2-.05-.7v-1.7h-.7v-.08z" style="line-height:125%;-inkscape-font-specification:'Gill Sans MT, Normal';text-align:start" font-family="Gill Sans MT" letter-spacing="0" word-spacing="0"/><path fill="#404030" d="M404.9-320.04q.2 0 .37.14.16.15.16.36 0 .2-.16.35-.16.15-.38.15-.24 0-.4-.14-.15-.13-.15-.34 0-.2.16-.36.16-.14.4-.14z" style="line-height:125%;-inkscape-font-specification:'Gill Sans MT, Normal';text-align:start" font-family="Gill Sans MT" letter-spacing="0" word-spacing="0"/><path fill="#404030" d="M405.87-322.33l1.5-1.4v.8h1.3v.67h-1.3v1.88q0 .65.58.65.43 0 .9-.27v.7q-.45.25-1 .25-.54 0-.9-.3-.12-.1-.2-.2-.07-.12-.12-.3-.05-.2-.05-.7v-1.7h-.7v-.08z" style="line-height:125%;-inkscape-font-specification:'Gill Sans MT, Normal';text-align:start" font-family="Gill Sans MT" letter-spacing="0" word-spacing="0"/><path fill="#404030" d="M412.24-322.94h1.02l-1.66 1.88 1.78 1.94h-1.02l-1.27-1.37-1.2 1.38h-1.02l1.7-1.94-1.7-1.88h1l1.2 1.32 1.16-1.32z" style="line-height:125%;-inkscape-font-specification:'Gill Sans MT, Normal';text-align:start" font-family="Gill Sans MT" letter-spacing="0" word-spacing="0"/><path fill="#404030" d="M413.38-322.33l1.5-1.4v.8h1.28v.67h-1.28v1.88q0 .65.58.65.43 0 .9-.27v.7q-.45.25-1 .25t-.9-.3q-.12-.1-.2-.2-.07-.12-.13-.3-.05-.2-.05-.7v-1.7h-.7v-.08z" style="line-height:125%;-inkscape-font-specification:'Gill Sans MT, Normal';text-align:start" font-family="Gill Sans MT" letter-spacing="0" word-spacing="0"/><path fill="#404030" d="M436.8-324.28h.88l-2.6 5.83h-.2l-2.63-5.83h.88l1.85 4.07 1.83-4.08z" style="line-height:125%;-inkscape-font-specification:'Gill Sans MT, Normal';text-align:start" font-family="Gill Sans MT" letter-spacing="0" word-spacing="0"/><path fill="#404030" d="M439.96-324.36q.85 0 1.4.84.55.84.55 2.13 0 1.33-.54 2.15-.55.83-1.43.83-.9 0-1.43-.8-.54-.82-.54-2.16 0-1.32.55-2.14.57-.84 1.46-.84zm0 .8h-.03q-.5 0-.8.58-.3.6-.3 1.6 0 1.02.3 1.6.28.6.8.6.5 0 .8-.6.3-.58.3-1.58t-.3-1.6q-.28-.6-.76-.6z" style="line-height:125%;-inkscape-font-specification:'Gill Sans MT, Normal';text-align:start" font-family="Gill Sans MT" letter-spacing="0" word-spacing="0"/><path fill="#404030" d="M444-324.28h.88v5.8H444v-5.8z" style="line-height:125%;-inkscape-font-specification:'Gill Sans MT, Normal';text-align:start" font-family="Gill Sans MT" letter-spacing="0" word-spacing="0"/><path fill="#e74e3f" stroke="#e74e3f" d="M384.5-347.14c-2.22 0-4 1.8-4 4v12.5h74v-12.5c0-2.2-1.78-4-4-4h-66z" stroke-linecap="round" stroke-linejoin="round"/><text x="417.543" y="-336.056" fill="#fff" style="line-height:125%;-inkscape-font-specification:'Gill Sans MT, Normal';text-align:center" font-size="12.5" font-family="Gill Sans MT" letter-spacing="0" word-spacing="0" text-anchor="middle"><tspan x="417.543" y="-336.056">Working</tspan></text><rect width="74" height="34" x="380.5" y="-347.138" fill="none" stroke="#e74e3f" ry="1.43" rx="1.43" stroke-linecap="round" stroke-linejoin="round"/><path fill="#f39d14" stroke="#f39d15" d="M459.5-347.14c-2.22 0-4 1.8-4 4v12.5h74v-12.5c0-2.2-1.78-4-4-4h-66z" stroke-linecap="round" stroke-linejoin="round"/><path fill="#fff" d="M479.1-339.63l-.9-.56q-.9-.52-1.26-1.04t-.36-1.2q0-1 .7-1.62.7-.63 1.8-.63 1.08 0 1.97.6v1.4q-.92-.9-1.98-.9-.6 0-1 .3-.37.26-.37.7 0 .38.28.72.28.33.9.7l.94.55q1.57.92 1.57 2.36 0 1.03-.7 1.67-.7.64-1.8.64-1.25 0-2.3-.77v-1.55q1 1.25 2.3 1.25.58 0 .95-.32.4-.32.4-.8 0-.8-1.14-1.48z" style="line-height:125%;-inkscape-font-specification:'Gill Sans MT, Normal';text-align:center" font-family="Gill Sans MT" letter-spacing="0" word-spacing="0" text-anchor="middle"/><path fill="#fff" d="M481.8-340.78l2.1-2.05v1.16h1.76v1h-1.77v2.75q0 .97.8.97.6 0 1.25-.4v1.03q-.64.36-1.4.36-.76 0-1.27-.44-.15-.14-.26-.3-.1-.17-.18-.44-.06-.28-.06-1.04v-2.5h-.98v-.1z" style="line-height:125%;-inkscape-font-specification:'Gill Sans MT, Normal';text-align:center" font-family="Gill Sans MT" letter-spacing="0" word-spacing="0" text-anchor="middle"/><path fill="#fff" d="M490.3-339.43v2.4q0 .27.2.27t.6-.3v.68q-.36.24-.6.33-.22.1-.47.1-.72 0-.84-.57-.72.55-1.52.55-.6 0-.98-.38-.4-.4-.4-.98 0-.53.4-.95.37-.42 1.08-.66l1.42-.5v-.3q0-1-1.02-1-.9 0-1.77.94v-1.22q.66-.76 1.88-.76.9 0 1.46.48.18.15.32.4.15.25.2.5.03.26.03.97zm-1.1 2.26v-1.66l-.75.28q-.56.23-.8.46-.23.24-.23.58 0 .35.22.57.22.22.58.22.53 0 .98-.44z" style="line-height:125%;-inkscape-font-specification:'Gill Sans MT, Normal';text-align:center" font-family="Gill Sans MT" letter-spacing="0" word-spacing="0" text-anchor="middle"/><path fill="#fff" d="M491.82-339.73q0-.9.66-1.42.65-.52 1.8-.52h2.3v.87h-1.13q.33.33.46.6.13.28.13.63 0 .44-.25.87-.25.42-.64.65-.4.22-1.3.36-.62.1-.62.44 0 .2.23.33.24.12.86.25 1.04.23 1.33.36.3.12.54.36.4.4.4 1.02 0 .8-.7 1.27-.72.48-1.9.48-1.2 0-1.93-.48-.72-.47-.72-1.28 0-1.14 1.4-1.47-.55-.36-.55-.7 0-.28.24-.5.25-.22.66-.32-1.24-.55-1.24-1.78zm2.1-.98q-.46 0-.78.3t-.32.73q0 .43.3.72.33.28.8.28.47 0 .78-.28.32-.3.32-.73 0-.44-.32-.73-.3-.3-.8-.3zm-.27 4.9q-.56 0-.92.24t-.36.62q0 .86 1.56.86.74 0 1.15-.22.4-.2.4-.6 0-.4-.5-.65-.52-.24-1.33-.24z" style="line-height:125%;-inkscape-font-specification:'Gill Sans MT, Normal';text-align:center" font-family="Gill Sans MT" letter-spacing="0" word-spacing="0" text-anchor="middle"/><path fill="#fff" d="M502.24-338.77h-3.95q.03.8.53 1.3.5.46 1.3.46 1.1 0 2-.7v1.1q-.5.34-1 .48-.5.15-1.18.15-.93 0-1.5-.38-.58-.4-.93-1.04-.34-.64-.34-1.5 0-1.28.73-2.08t1.9-.8q1.1 0 1.78.78.66.78.66 2.1v.13zm-3.92-.66h2.82q-.04-.67-.4-1.03-.35-.36-.95-.36t-1 .36q-.37.36-.48 1.03z" style="line-height:125%;-inkscape-font-specification:'Gill Sans MT, Normal';text-align:center" font-family="Gill Sans MT" letter-spacing="0" word-spacing="0" text-anchor="middle"/><path fill="#fff" d="M507.2-344.58h1.1v8.52h-2.37q-1.25 0-2-.78-.73-.8-.73-2.1 0-1.25.77-2.05.8-.8 2-.8.56 0 1.22.24v-3.02zm0 7.57v-3.57q-.53-.26-1.06-.26-.83 0-1.33.54-.48.56-.48 1.48 0 .87.43 1.34.26.28.54.37.28.1 1.02.1h.87z" style="line-height:125%;-inkscape-font-specification:'Gill Sans MT, Normal';text-align:center" font-family="Gill Sans MT" letter-spacing="0" word-spacing="0" text-anchor="middle"/><rect width="74" height="34" x="455.5" y="-347.138" fill="none" stroke="#f39d14" ry="1.43" rx="1.43" stroke-linecap="round" stroke-linejoin="round"/><path fill="#18b091" stroke="#18b091" d="M534.5-347.14c-2.22 0-4 1.8-4 4v12.5h74v-12.5c0-2.2-1.78-4-4-4h-66z" stroke-linecap="round" stroke-linejoin="round"/><path fill="#fff" d="M561.1-344.58h1.2v8.52h-1.2v-3.7h-4.8v3.7h-1.22v-8.52h1.22v3.68h4.8v-3.68z" style="line-height:125%;-inkscape-font-specification:'Gill Sans MT, Normal';text-align:center" font-family="Gill Sans MT" letter-spacing="0" word-spacing="0" text-anchor="middle"/><path fill="#fff" d="M568.82-338.77h-3.95q.04.8.54 1.3.5.46 1.3.46 1.1 0 2.02-.7v1.1q-.5.34-1.02.48-.5.15-1.18.15-.92 0-1.5-.38-.57-.4-.92-1.04-.34-.64-.34-1.5 0-1.28.72-2.08.73-.8 1.9-.8 1.1 0 1.77.78.67.78.67 2.1v.13zm-3.93-.66h2.82q-.04-.67-.4-1.03-.35-.36-.95-.36t-.98.36q-.4.36-.5 1.03z" style="line-height:125%;-inkscape-font-specification:'Gill Sans MT, Normal';text-align:center" font-family="Gill Sans MT" letter-spacing="0" word-spacing="0" text-anchor="middle"/><path fill="#fff" d="M573.54-339.43v2.4q0 .27.2.27t.63-.3v.68q-.38.24-.6.33-.24.1-.5.1-.7 0-.83-.57-.7.55-1.5.55-.6 0-1-.38-.38-.4-.38-.98 0-.53.38-.95.4-.42 1.1-.66l1.4-.5v-.3q0-1-1-1-.9 0-1.77.94v-1.22q.64-.76 1.86-.76.9 0 1.46.48.17.15.32.4.14.25.18.5.04.26.04.97zm-1.1 2.26v-1.66l-.73.28q-.56.23-.8.46-.23.24-.23.58 0 .35.22.57.2.22.57.22.53 0 .98-.44z" style="line-height:125%;-inkscape-font-specification:'Gill Sans MT, Normal';text-align:center" font-family="Gill Sans MT" letter-spacing="0" word-spacing="0" text-anchor="middle"/><path fill="#fff" d="M579.1-344.58h1.13v8.52h-2.38q-1.24 0-2-.78-.73-.8-.73-2.1 0-1.25.78-2.05.78-.8 2-.8.55 0 1.2.24v-3.02zm0 7.57v-3.57q-.5-.26-1.04-.26-.83 0-1.33.54-.48.56-.48 1.48 0 .87.42 1.34.26.28.55.37.28.1 1.03.1h.86z" style="line-height:125%;-inkscape-font-specification:'Gill Sans MT, Normal';text-align:center" font-family="Gill Sans MT" letter-spacing="0" word-spacing="0" text-anchor="middle"/><rect width="74" height="34" x="530.5" y="-347.138" fill="none" stroke="#18b091" ry="1.43" rx="1.43" stroke-linecap="round" stroke-linejoin="round"/><path fill="#404030" fill-rule="evenodd" stroke="#404030" d="M380-368.14c223.9 0 223.9 0 223.9 0"/><path fill="#404030" d="M383.05-357.05l-1.12-.67q-1.04-.64-1.5-1.25-.43-.63-.43-1.43 0-1.2.83-1.96.85-.76 2.2-.76 1.27 0 2.34.72v1.66q-1.1-1.06-2.38-1.06-.73 0-1.2.34-.45.33-.45.85 0 .45.33.85.34.4 1.1.84l1.12.65q1.87 1.12 1.87 2.84 0 1.22-.83 2-.82.76-2.13.76-1.5 0-2.76-.93v-1.86q1.2 1.5 2.75 1.5.68 0 1.13-.38.46-.4.46-.97 0-.94-1.35-1.78z" style="line-height:125%;-inkscape-font-specification:'Gill Sans MT, Normal';text-align:center" font-family="Gill Sans MT" letter-spacing="0" word-spacing="0" text-anchor="middle"/><path fill="#404030" d="M386.27-358.42l2.5-2.46v1.4h2.14v1.2h-2.13v3.3q0 1.15.96 1.15.72 0 1.52-.5v1.26q-.77.43-1.68.43-.9 0-1.52-.53-.2-.16-.32-.36-.12-.2-.2-.53-.1-.33-.1-1.24v-3h-1.16v-.12z" style="line-height:125%;-inkscape-font-specification:'Gill Sans MT, Normal';text-align:center" font-family="Gill Sans MT" letter-spacing="0" word-spacing="0" text-anchor="middle"/><path fill="#404030" d="M395.45-359.5q1.53 0 2.55 1 1.02.98 1.02 2.48 0 1.46-1.03 2.42-1.04.96-2.6.96-1.53 0-2.55-.97-1-1-1-2.46 0-1.48 1-2.46 1.04-1 2.6-1zm-.08 1.2q-.96 0-1.57.62-.62.63-.62 1.6 0 .97.63 1.6.64.6 1.63.6.98 0 1.6-.62.64-.62.64-1.6 0-.95-.66-1.58-.64-.63-1.63-.63z" style="line-height:125%;-inkscape-font-specification:'Gill Sans MT, Normal';text-align:center" font-family="Gill Sans MT" letter-spacing="0" word-spacing="0" text-anchor="middle"/><path fill="#404030" d="M401.94-359.5v1.55l.08-.12q.96-1.56 1.93-1.56.75 0 1.57.77l-.7 1.17q-.7-.65-1.3-.65-.63 0-1.1.6-.48.63-.48 1.47v3.53h-1.34v-6.74h1.34z" style="line-height:125%;-inkscape-font-specification:'Gill Sans MT, Normal';text-align:center" font-family="Gill Sans MT" letter-spacing="0" word-spacing="0" text-anchor="middle"/><path fill="#404030" d="M411.9-356h-4.73q.05.96.65 1.53.6.57 1.54.57 1.32 0 2.43-.82v1.3q-.62.42-1.23.6-.6.17-1.4.17-1.13 0-1.8-.46-.7-.48-1.12-1.25-.4-.8-.4-1.8 0-1.55.86-2.5.88-.98 2.27-.98 1.34 0 2.14.94.8.95.8 2.52v.17zm-4.7-.8h3.4q-.06-.8-.48-1.24-.43-.43-1.15-.43-.7 0-1.17.43-.46.44-.6 1.23z" style="line-height:125%;-inkscape-font-specification:'Gill Sans MT, Normal';text-align:center" font-family="Gill Sans MT" letter-spacing="0" word-spacing="0" text-anchor="middle"/><path fill="#404030" d="M417.84-363h1.34v10.25h-2.84q-1.5 0-2.4-.95-.88-.94-.88-2.53 0-1.5.93-2.45.93-.96 2.38-.96.67 0 1.46.3V-363zm0 9.1v-4.27q-.62-.3-1.26-.3-1 0-1.58.64-.6.65-.6 1.76 0 1.04.52 1.6.3.34.65.46.35.1 1.24.1h1.04z" style="line-height:125%;-inkscape-font-specification:'Gill Sans MT, Normal';text-align:center" font-family="Gill Sans MT" letter-spacing="0" word-spacing="0" text-anchor="middle"/><path fill="#404030" d="M425.3-359.5v-.4q0-1.62.7-2.42.7-.8 1.66-.8.42 0 1 .13v1.32q-.33-.12-.63-.12-.78 0-1.1.42-.3.4-.3 1.48v.4h1.2v1.2h-1.2v5.55h-1.32v-5.54h-.96v-1.2h.97z" style="line-height:125%;-inkscape-font-specification:'Gill Sans MT, Normal';text-align:center" font-family="Gill Sans MT" letter-spacing="0" word-spacing="0" text-anchor="middle"/><path fill="#404030" d="M429.6-362.33q.32 0 .56.23.23.23.23.56 0 .32-.24.55-.24.25-.57.25-.32 0-.55-.24-.23-.23-.23-.54 0-.3.23-.55.23-.23.54-.23zm-.67 2.84h1.34v6.75h-1.34v-6.74z" style="line-height:125%;-inkscape-font-specification:'Gill Sans MT, Normal';text-align:center" font-family="Gill Sans MT" letter-spacing="0" word-spacing="0" text-anchor="middle"/><path fill="#404030" d="M432.2-363h1.35v10.25h-1.34V-363z" style="line-height:125%;-inkscape-font-specification:'Gill Sans MT, Normal';text-align:center" font-family="Gill Sans MT" letter-spacing="0" word-spacing="0" text-anchor="middle"/><path fill="#404030" d="M441.2-356h-4.73q.05.96.64 1.53.6.57 1.56.57 1.32 0 2.43-.82v1.3q-.62.42-1.23.6-.6.17-1.42.17-1.1 0-1.8-.46-.7-.48-1.1-1.25-.4-.8-.4-1.8 0-1.55.86-2.5.88-.98 2.27-.98 1.34 0 2.14.94.8.95.8 2.52v.17zm-4.7-.8h3.4q-.06-.8-.5-1.24-.4-.43-1.13-.43-.72 0-1.18.43-.46.44-.6 1.23z" style="line-height:125%;-inkscape-font-specification:'Gill Sans MT, Normal';text-align:center" font-family="Gill Sans MT" letter-spacing="0" word-spacing="0" text-anchor="middle"/><path fill="#404030" d="M442.3-353.24v-1.43q.58.4 1.16.64.6.24 1 .24.42 0 .72-.2t.3-.48q0-.3-.2-.5-.2-.18-.83-.55-1.3-.72-1.7-1.22-.4-.52-.4-1.12 0-.77.6-1.26.62-.5 1.57-.5 1 0 2.03.56v1.32q-1.2-.72-1.94-.72-.38 0-.62.17-.24.16-.24.43 0 .24.22.45.2.2.76.5l.47.28q1.68.96 1.68 2.1 0 .84-.65 1.37-.65.53-1.67.53-.6 0-1.07-.12-.48-.13-1.2-.48z" style="line-height:125%;-inkscape-font-specification:'Gill Sans MT, Normal';text-align:center" font-family="Gill Sans MT" letter-spacing="0" word-spacing="0" text-anchor="middle"/></g></g></svg>
