<svg xmlns="http://www.w3.org/2000/svg" width="1075" height="440"><defs><marker id="a" orient="auto" overflow="visible"><path fill="#404030" fill-rule="evenodd" stroke="#404030" stroke-width=".8pt" d="M4.62 0L-2.3 4v-8l6.92 4z"/></marker><marker id="b" orient="auto" overflow="visible"><path fill="#f05133" fill-rule="evenodd" stroke="#f05133" stroke-width=".4pt" d="M2.3 0l-3.45 2v-4L2.3 0z"/></marker></defs><g transform="translate(0 -612.362)"><ellipse cx="536.457" cy="703.673" fill="none" stroke="#c0504d" stroke-width="16.768" rx="25.152" ry="25.152" stroke-linecap="round"/><path fill="none" stroke="#c0504d" stroke-width="16.768" d="M486.15 703.67h26.83"/><path fill="none" stroke="#c0504d" stroke-width="16.768" d="M559.93 703.67h26.83"/><rect width="248.165" height="53.657" x="415.728" y="755.653" fill="#f8f8f8" stroke="#ddd" stroke-width="3.354" ry="4" rx="4" stroke-linecap="round" stroke-linejoin="round"/><path fill="#404030" d="M436.06 791.48q0-1.52.57-2.84.57-1.32 1.5-2.4.93-1.07 2.07-1.8 1.14-.78 2.28-1.18v-.78q-2.54-1.5-3.73-3.42-1.2-1.96-1.2-4.16 0-1.56.68-3.03.73-1.47 2.02-2.6 1.35-1.16 3.2-1.85 1.87-.68 4.25-.68 1.8 0 3.52.5 1.76.47 3.1 1.45 1.4.92 2.23 2.4.83 1.4.83 3.36 0 1.32-.47 2.5-.45 1.17-1.23 2.15-.72 1-1.65 1.72-.88.73-1.7 1.12v.6q2.73 1.07 4.6 3.22 1.86 2.15 1.86 5.33 0 2-.83 3.66-.83 1.6-2.38 2.78-1.5 1.18-3.67 1.8-2.13.7-4.77.7-2.38 0-4.45-.64-2-.64-3.52-1.76-1.44-1.17-2.27-2.74-.84-1.56-.84-3.42zm4.24-.83q0 1.27.42 2.44.4 1.17 1.24 2.14.88.93 2.22 1.52 1.35.54 3.2.54 1.72 0 3.07-.44 1.34-.5 2.27-1.27.93-.84 1.4-1.92.52-1.08.52-2.25 0-2.88-2.43-4.84-2.37-1.97-6.5-2.65-5.4 2.1-5.4 6.7zm.83-15.9q0 1.13.52 2.1.57 1 1.55 1.82.98.83 2.28 1.46 1.34.64 2.84 1.08.52-.2 1.35-.67.88-.54 1.7-1.32.84-.83 1.4-1.95.63-1.17.63-2.64 0-2.68-1.66-4.05-1.66-1.42-4.2-1.42-1.54 0-2.8.54-1.18.5-2 1.32-.78.77-1.2 1.8-.4.98-.4 1.96z" style="line-height:125%;-inkscape-font-specification:'Triplicate T4c, Normal';text-align:start" font-family="Triplicate T4c" letter-spacing="0" word-spacing="0"/><path fill="#404030" d="M467.1 791.48q0-1.52.56-2.84.57-1.32 1.5-2.4.93-1.07 2.07-1.8 1.14-.78 2.28-1.18v-.78q-2.53-1.5-3.72-3.42-1.2-1.96-1.2-4.16 0-1.56.68-3.03.73-1.47 2.02-2.6 1.35-1.16 3.2-1.85 1.87-.68 4.25-.68 1.8 0 3.52.5 1.76.47 3.1 1.45 1.4.92 2.23 2.4.83 1.4.83 3.36 0 1.32-.46 2.5-.46 1.17-1.24 2.15-.72 1-1.65 1.72-.88.73-1.7 1.12v.6q2.73 1.07 4.6 3.22 1.86 2.15 1.86 5.33 0 2-.82 3.66-.83 1.6-2.38 2.78-1.5 1.18-3.68 1.8-2.12.7-4.76.7-2.38 0-4.45-.64-2-.64-3.5-1.76-1.46-1.17-2.28-2.74-.83-1.56-.83-3.42zm4.23-.83q0 1.27.42 2.44.4 1.17 1.24 2.14.87.93 2.2 1.52 1.36.54 3.22.54 1.7 0 3.06-.44 1.34-.5 2.27-1.27.93-.84 1.4-1.92.52-1.08.52-2.25 0-2.88-2.44-4.84-2.38-1.97-6.52-2.65-5.37 2.1-5.37 6.7zm.83-15.9q0 1.13.52 2.1.57 1 1.55 1.82.98.83 2.28 1.46 1.35.64 2.85 1.08.52-.2 1.35-.67.88-.54 1.7-1.32.83-.83 1.4-1.95.62-1.17.62-2.64 0-2.68-1.65-4.05-1.66-1.42-4.2-1.42-1.55 0-2.8.54-1.18.5-2 1.32-.78.77-1.2 1.8-.4.98-.4 1.96z" style="line-height:125%;-inkscape-font-specification:'Triplicate T4c, Normal';text-align:start" font-family="Triplicate T4c" letter-spacing="0" word-spacing="0"/><path fill="#404030" d="M514.47 785.66q-1.45 1.27-3.16 1.96-1.64.63-4.02.63-1.8 0-3.52-.73-1.66-.74-2.95-2.1-1.23-1.37-2-3.33-.73-2-.73-4.56 0-2.54.93-4.54t2.43-3.38q1.55-1.42 3.42-2.15 1.9-.73 3.82-.73 2.5 0 4.5.93 2.08.88 3.53 2.73 1.5 1.8 2.32 4.6.83 2.8.83 6.5 0 2.7-.72 5.33-.67 2.6-2.02 4.84-1.28 2.25-3.2 4.06-1.86 1.76-4.3 2.8-.77.38-1.9.72-1.1.35-2.4.6-1.28.28-2.58.43-1.3.2-2.43.25-.32 0-.47-.4-.16-.4-.16-.88 0-.44.16-.88.15-.44.5-.5 2.03-.28 4.26-.77 2.26-.5 3.66-1.17 2.64-1.13 4.35-3.62 1.72-2.53 2.6-6.25l-.73-.4zm.52-3.33q.1-.48.14-1.07.06-.64.06-1.27.05-.65.05-1.2 0-.52 0-.87 0-1.85-.52-3.42-.52-1.6-1.4-2.73-.88-1.17-2.17-1.8-1.24-.7-2.7-.7-1.34 0-2.48.6-1.13.53-2 1.6-.84 1.04-1.36 2.6-.47 1.52-.47 3.47 0 2.06.52 3.52.57 1.42 1.45 2.4.88.93 1.97 1.37 1.07.44 2.16.44 2.23 0 4-.88 1.8-.94 2.73-2.07z" style="line-height:125%;-inkscape-font-specification:'Triplicate T4c, Normal';text-align:start" font-family="Triplicate T4c" letter-spacing="0" word-spacing="0"/><path fill="#404030" d="M544.88 782.1q2.7.77 4.35 2.97 1.7 2.2 1.7 5.14 0 2.1-.88 3.92-.82 1.76-2.43 3.08-1.55 1.32-3.88 2.05-2.28.8-5.17.8-1.97 0-4.5-.6-2.54-.54-4.87-2.1-.4-.3-.4-.8.04-.52.3-.96.3-.5.72-.75.47-.3.88-.05 1.7 1.03 3.42 1.62 1.75.58 4.34.58 3.57 0 5.75-1.7 2.23-1.72 2.23-5 0-3.22-1.9-4.93-1.88-1.7-4.72-1.7h-2.22q-.4 0-.57-.4-.14-.45-.14-.94 0-.53.15-.97.22-.44.58-.44h2.38q.78 0 1.6-.3.84-.3 1.5-.97.73-.7 1.2-1.76.46-1.14.46-2.75 0-3.28-1.34-4.7Q542.03 769 540 769q-1.85 0-2.83.77-.98.78-1.1 2.05-.1 1.47-.82 2.1-.72.64-1.86.64-1.2 0-1.67-.5-.46-.48-.46-1.3 0-.84.57-1.87.62-1.03 1.76-1.9 1.2-.94 2.84-1.53 1.7-.64 3.94-.64 1.7 0 3.3.5 1.6.48 2.85 1.46 1.25.97 2.02 2.53.78 1.52.78 3.62 0 2.2-1.35 4-1.34 1.77-3.1 2.55v.6z" style="line-height:125%;-inkscape-font-specification:'Triplicate T4c, Normal';text-align:start" font-family="Triplicate T4c" letter-spacing="0" word-spacing="0"/><path fill="#404030" d="M579 788.94h3.17q.67 0 .98.44.3.44.26.97 0 .5-.3.93-.26.44-.72.44H579v7.58q0 .4-.56.6-.57.23-1.24.23-.62 0-1.2-.2-.56-.2-.56-.63v-7.53h-13.76q-.57 0-.83-.63-.26-.7-.36-1.52-.06-.83 0-1.56.1-.8.2-1.03 3.15-4.74 5.74-9.58 2.6-4.85 3.93-9.98.16-.64.88-.83.78-.25 1.6-.15.83.04 1.45.38.62.3.52.8-.72 2.43-1.97 5.02-1.24 2.54-2.8 5.14-1.54 2.54-3.25 4.98-1.7 2.45-3.3 4.6v1.52h11.94v-9q0-.4.57-.6.58-.18 1.2-.13.67 0 1.24.25.57.2.57.6v8.9z" style="line-height:125%;-inkscape-font-specification:'Triplicate T4c, Normal';text-align:start" font-family="Triplicate T4c" letter-spacing="0" word-spacing="0"/><path fill="#404030" d="M594.52 788.4q.05 4.15 1.86 6.16 1.86 1.96 5.28 1.96 1.6 0 3.26-.2 1.7-.2 3.26-.5 1.6-.28 2.95-.62 1.4-.4 2.43-.8.3-.13.62.1.36.2.57.55.2.34.2.68.06.35-.2.5-1.34.63-3 1.2-1.6.6-3.36 1.1-1.72.43-3.53.67-1.76.3-3.47.3-2.7 0-4.8-.78-2.08-.8-3.53-2.16-1.4-1.4-2.12-3.27-.73-1.92-.73-4.12 0-2.98 1.1-5.33 1.08-2.4 2.78-4 1.76-1.67 3.94-2.55 2.22-.88 4.45-.88 2.42 0 4.44.73 2.07.74 3.52 2.1 1.5 1.37 2.27 3.38.83 1.95.83 4.4 0 .63-.3 1.03-.27.34-1.04.4l-17.7-.06zm14.64-2.25q-.1-1.37-.5-2.7-.38-1.36-1.2-2.4-.78-1.06-2.08-1.7-1.24-.63-3.1-.63-1.66 0-3.05.58-1.35.6-2.44 1.62-1.04 1.02-1.66 2.4-.62 1.3-.67 2.83h14.7z" style="line-height:125%;-inkscape-font-specification:'Triplicate T4c, Normal';text-align:start" font-family="Triplicate T4c" letter-spacing="0" word-spacing="0"/><path fill="#404030" d="M622.23 791.48q0-1.52.57-2.84.57-1.32 1.5-2.4.94-1.07 2.07-1.8 1.14-.78 2.28-1.18v-.78q-2.53-1.5-3.72-3.42-1.2-1.96-1.2-4.16 0-1.56.68-3.03.73-1.47 2.03-2.6 1.34-1.16 3.2-1.85 1.87-.68 4.25-.68 1.8 0 3.52.5 1.76.47 3.1 1.45 1.4.92 2.23 2.4.83 1.4.83 3.36 0 1.32-.47 2.5-.48 1.17-1.25 2.15-.73 1-1.66 1.72-.9.73-1.72 1.12v.6q2.75 1.07 4.6 3.22 1.87 2.15 1.87 5.33 0 2-.83 3.66-.82 1.6-2.38 2.78-1.5 1.18-3.67 1.8-2.12.7-4.76.7-2.37 0-4.44-.64-2.02-.64-3.52-1.76-1.45-1.17-2.28-2.74-.83-1.56-.83-3.42zm4.25-.83q0 1.27.4 2.44.43 1.17 1.25 2.14.88.93 2.23 1.52 1.34.54 3.2.54 1.72 0 3.06-.44 1.35-.5 2.28-1.27.93-.84 1.4-1.92.5-1.08.5-2.25 0-2.88-2.42-4.84-2.38-1.97-6.52-2.65-5.38 2.1-5.38 6.7zm.83-15.9q0 1.13.52 2.1.57 1 1.56 1.82.98.83 2.27 1.46 1.35.64 2.85 1.08.52-.2 1.34-.67.88-.54 1.7-1.32.84-.83 1.4-1.95.63-1.17.63-2.64 0-2.68-1.66-4.05-1.64-1.42-4.18-1.42-1.55 0-2.8.54-1.18.5-2 1.32-.8.77-1.2 1.8-.4.98-.4 1.96z" style="line-height:125%;-inkscape-font-specification:'Triplicate T4c, Normal';text-align:start" font-family="Triplicate T4c" letter-spacing="0" word-spacing="0"/><ellipse cx="268.171" cy="703.673" fill="none" stroke="#c0504d" stroke-width="16.768" rx="25.152" ry="25.152" stroke-linecap="round"/><path fill="none" stroke="#c0504d" stroke-width="16.768" d="M217.87 703.67h26.83"/><path fill="none" stroke="#c0504d" stroke-width="16.768" d="M291.65 703.67h26.82"/><path fill="none" stroke="#c0504d" stroke-width="16.768" d="M308.83 703.67h184.45"/><rect width="248.165" height="53.657" x="144.089" y="755.653" fill="#f8f8f8" stroke="#ddd" stroke-width="3.354" ry="4" rx="4" stroke-linecap="round" stroke-linejoin="round"/><path fill="#404030" d="M180.15 782.1q2.7.77 4.35 2.97 1.7 2.2 1.7 5.14 0 2.1-.87 3.92-.83 1.76-2.44 3.08-1.56 1.32-3.9 2.05-2.26.8-5.16.8-1.97 0-4.5-.6-2.54-.54-4.87-2.1-.4-.3-.4-.8.04-.52.3-.96.3-.5.72-.75.46-.3.87-.05 1.7 1.03 3.42 1.62 1.75.58 4.34.58 3.57 0 5.74-1.7 2.22-1.72 2.22-5 0-3.22-1.9-4.93-1.87-1.7-4.72-1.7h-2.22q-.42 0-.57-.4-.17-.45-.17-.94 0-.53.16-.97.2-.44.56-.44h2.38q.77 0 1.6-.3.83-.3 1.5-.97.73-.7 1.2-1.76.46-1.14.46-2.75 0-3.28-1.35-4.7-1.34-1.46-3.36-1.46-1.88 0-2.86.77-.98.78-1.1 2.05-.1 1.47-.8 2.1-.74.64-1.88.64-1.2 0-1.65-.5-.46-.48-.46-1.3 0-.84.57-1.87.63-1.03 1.77-1.9 1.2-.94 2.85-1.53 1.7-.64 3.93-.64 1.7 0 3.3.5 1.62.48 2.86 1.46 1.25.97 2.03 2.53.77 1.52.77 3.62 0 2.2-1.34 4-1.35 1.77-3.1 2.55v.6z" style="line-height:125%;-inkscape-font-specification:'Triplicate T4c, Normal';text-align:start" font-family="Triplicate T4c" letter-spacing="0" word-spacing="0"/><path fill="#404030" d="M216.4 770.65q-3.46 6.5-6.46 13.84-2.95 7.32-5.12 14.6-.2.45-1.1.7-.87.24-1.9.24-1.04 0-1.82-.25-.77-.2-.46-.9 2.7-6.7 6.1-13.73 3.42-7.04 7.3-13.5l-.36-.68q-1.5 0-3.37.04-1.85 0-3.76.05-1.92 0-3.68.1-1.76.03-3.05.08-.92.05-1.4-.53-.45-.64-.5-1.37 0-.8.3-1.42.37-.64 1.1-.64.35 0 1.23.05.88 0 1.87.05 1.03 0 2.07.05 1.03 0 1.7 0h9.1q.63 0 1.15.34.52.35.83.84.3.44.36 1.03.1.54-.1.98z" style="line-height:125%;-inkscape-font-specification:'Triplicate T4c, Normal';text-align:start" font-family="Triplicate T4c" letter-spacing="0" word-spacing="0"/><path fill="#404030" d="M237.4 797q1.14 0 2.48-.4 1.4-.43 2.6-1.45 1.18-1.03 1.96-2.8.77-1.75.77-4.44 0-1.65-.66-3.12-.62-1.47-1.66-2.54-1.03-1.08-2.43-1.7-1.34-.65-2.8-.65-1.55-.06-3.1.48-1.5.54-2.7 1.66v11.4q0 1.46 1.36 2.54 1.4 1.02 4.2 1.02zm-9.9-28.2l-3.4.63q-.3.04-.52-.35-.15-.44-.26-.93-.05-.53 0-.97.05-.5.3-.54.74-.1 1.98-.3 1.24-.24 2.28-.48.98-.25 1.76-.5.77-.24 1.24-.38.36-.1.98.3.67.33.52 1.3-.42 3.1-.57 6.32-.1 3.18-.2 5.82l.62.4q1.35-.94 3-1.58 1.66-.68 3.52-.68 2.38 0 4.3.88 1.96.88 3.36 2.4 1.4 1.5 2.18 3.52.77 2 .77 4.2 0 3.03-1.2 5.28-1.18 2.2-3.04 3.67-1.8 1.48-4.08 2.2-2.23.74-4.4.74-1.7 0-2.9-.34-1.2-.3-1.86-.54l-1.6 1.23q-.2.18-.68.13-.46-.05-.93-.24-.46-.2-.77-.55-.3-.3-.2-.7.04-.18.1-.77.1-.58.15-1.27.05-.67.05-1.4.05-.74.05-1.23v-24.9l-.52-.38z" style="line-height:125%;-inkscape-font-specification:'Triplicate T4c, Normal';text-align:start" font-family="Triplicate T4c" letter-spacing="0" word-spacing="0"/><path fill="#404030" d="M268.43 797q1.14 0 2.48-.4 1.4-.43 2.6-1.45 1.2-1.03 1.96-2.8.78-1.75.78-4.44 0-1.65-.67-3.12-.62-1.47-1.66-2.54-1.02-1.08-2.42-1.7-1.35-.65-2.8-.65-1.55-.06-3.1.48-1.5.54-2.7 1.66v11.4q0 1.46 1.36 2.54 1.4 1.02 4.2 1.02zm-9.9-28.2l-3.4.63q-.3.04-.52-.35-.15-.44-.25-.93-.05-.53 0-.97.05-.5.3-.54.74-.1 1.98-.3 1.24-.24 2.28-.48 1-.25 1.76-.5.78-.24 1.25-.38.37-.1 1 .3.66.33.5 1.3-.4 3.1-.56 6.32-.1 3.18-.2 5.82l.6.4q1.36-.94 3-1.58 1.67-.68 3.53-.68 2.38 0 4.3.88 1.96.88 3.36 2.4 1.4 1.5 2.17 3.52.78 2 .78 4.2 0 3.03-1.2 5.28-1.18 2.2-3.04 3.67-1.8 1.48-4.1 2.2-2.22.74-4.4.74-1.7 0-2.9-.34-1.18-.3-1.85-.54l-1.6 1.23q-.22.18-.7.13-.45-.05-.92-.24-.46-.2-.77-.55-.3-.3-.2-.7.05-.18.1-.77.1-.58.16-1.27.05-.67.05-1.4.06-.74.06-1.23v-24.9l-.52-.38z" style="line-height:125%;-inkscape-font-specification:'Triplicate T4c, Normal';text-align:start" font-family="Triplicate T4c" letter-spacing="0" word-spacing="0"/><path fill="#404030" d="M311.4 782.92q0 4.06-.92 7.24-.93 3.18-2.64 5.38-1.66 2.2-4 3.37-2.3 1.14-5.06 1.14-2.43 0-4.45-1.13-2.02-1.16-3.52-3.17-1.44-2-2.26-4.64-.83-2.7-.83-5.78 0-3.96.68-7.34.73-3.42 2.18-5.9 1.5-2.5 3.77-3.93 2.33-1.4 5.5-1.4 2.32 0 4.44 1 2.12 1 3.67 3.04 1.6 2 2.54 5.03.93 3.03.93 7.1zm-4.65.3q0-3.87-.57-6.6-.57-2.74-1.6-4.46-4.66 12.03-8.85 23.92 1.55 1.5 3.52 1.5 1.45 0 2.8-.72 1.34-.74 2.37-2.4 1.04-1.7 1.66-4.45.67-2.78.67-6.78zm-12.68 10.4q2.28-5.86 4.4-11.73 2.12-5.92 4.14-11.84-1.33-.88-3.04-.88-1.97 0-3.36 1.03-1.35 1.03-2.23 2.94-.88 1.86-1.3 4.55-.4 2.68-.4 6 0 3.28.46 5.77.46 2.45 1.34 4.16z" style="line-height:125%;-inkscape-font-specification:'Triplicate T4c, Normal';text-align:start" font-family="Triplicate T4c" letter-spacing="0" word-spacing="0"/><path fill="#404030" d="M323.03 768.94q.06-.83.47-1.13.46-.33 1.2-.33h10.24q.98 0 1.76-.1.77-.1 1.5-.24.62-.1.88.5.3.57.1 1.3-.16.74-.88 1.38-.73.64-2.17.64h-10.4l-.52 7.73.68.44q.62-.33 1.66-.53 1.03-.24 2.74-.24 1.96 0 3.88.63 1.97.6 3.52 1.86 1.55 1.27 2.48 3.18 1 1.9 1 4.45 0 2.44-1.1 4.54-1.04 2.1-3 3.66-1.92 1.57-4.76 2.5-2.8.88-6.27.88-.93 0-1.9-.1-.94-.1-1.82-.3-.87-.14-1.65-.4-.72-.23-1.2-.52-.4-.3-.4-.84.05-.53.3-.97.27-.48.68-.78.47-.3.88-.04.74.48 2.13.83 1.4.3 3.57.3 2.07 0 3.9-.6 1.85-.62 3.2-1.75 1.4-1.12 2.17-2.7.83-1.6.83-3.6 0-3.23-2.13-5.3-2.07-2.04-6.4-2.04-1.46 0-2.5.3-1.03.3-1.76.7-.45.28-1.07-.16-.62-.5-.57-1.03l.77-12.06z" style="line-height:125%;-inkscape-font-specification:'Triplicate T4c, Normal';text-align:start" font-family="Triplicate T4c" letter-spacing="0" word-spacing="0"/><path fill="#404030" d="M366.64 788.06q-6.78.24-10.1 1.37-3.25 1.12-3.25 3.6 0 1.82 1.28 2.95 1.35 1.07 3.62 1.07 2.12 0 4.4-.63 2.33-.7 3.83-2.15l.2-6.2zm.05 8.9l-.37-.1q-1.8 1.12-4.25 1.9-2.43.74-4.9.74-4.1 0-6.17-1.66-2.06-1.72-2.06-4.16 0-2 1.2-3.37 1.18-1.4 3.46-2.3 2.33-.92 5.64-1.36 3.3-.44 7.5-.6l.1-2.3q.06-1.36-.3-2.33-.37-.97-1.04-1.6-.62-.64-1.5-.94-.83-.3-1.76-.3-1.66 0-3 .55-1.35.5-2.07 1-.26.13-.3.38 0 .24 0 .58 0 1.47-.7 2.1-.6.6-1.75.6-.88 0-1.7-.45-.78-.43-.68-2.14.06-.63.2-1.17.22-.55 1.05-.94 1.18-.6 2.68-1.13 1.55-.53 3.15-.93 1.6-.4 3.1-.63 1.5-.25 2.65-.25 3.1 0 4.5 1.96 1.45 1.9 1.45 4.94l-.47 13.1 4.04-1.02q.3-.1.62.2.36.3.52.73.15.44.1.83-.05.4-.46.54-.47.14-1.45.48-1 .35-2.07.7-1.1.33-2.07.62-.94.35-1.36.4-.77.14-.93-.4l-.6-2.24z" style="line-height:125%;-inkscape-font-specification:'Triplicate T4c, Normal';text-align:start" font-family="Triplicate T4c" letter-spacing="0" word-spacing="0"/><path fill="none" stroke="#c0504d" stroke-width="16.92" d="M33.42 703.67h187.8" stroke-linecap="round"/><path fill="none" stroke="#c0504d" stroke-width="16.92" d="M585.7 703.67h478.53" stroke-linecap="round"/><path fill="#c0504d" stroke="#fff" stroke-width=".648" d="M-700 422.36l-4.33-7.5-4.33-7.5h17.32l-4.33 7.5z" transform="matrix(.085 -2.626 2.548 .003 -865.096 -1135.515)" stroke-linejoin="round"/><path fill="none" stroke="#c0504d" stroke-width="16.768" d="M102 703.66l16.6.02"/><path fill="#c0504d" stroke="#fff" stroke-width=".648" d="M-700 422.36l-4.33-7.5-4.33-7.5h17.32l-4.33 7.5z" transform="matrix(.085 -2.626 2.548 .003 -315.11 -1135.515)" stroke-linejoin="round"/><path fill="none" stroke="#c0504d" stroke-width="16.768" d="M651.97 703.66l16.62.02"/><path fill="#c0504d" stroke="#fff" stroke-width=".648" d="M-700 422.36l-4.33-7.5-4.33-7.5h17.32l-4.33 7.5z" transform="matrix(.085 -2.626 2.548 .003 -591.361 -1135.515)" stroke-linejoin="round"/><path fill="none" stroke="#c0504d" stroke-width="16.768" d="M375.72 703.66l16.62.02"/><path fill="#c0504d" d="M804.42 653.34v16.4h-4.5v-12.57q0-3.76-1-5.23-1-1.5-3.52-1.5-1.4 0-2.58.64-1.15.64-2.65 2.26v16.4h-4.47v-22.6h4.47v2.98q3.4-3.42 6.68-3.42 4.3 0 6.66 4.08 3.6-4.12 7.5-4.12 3.3 0 5.4 2.4 2.14 2.4 2.14 7.35v13.34h-4.47v-13.38q0-2.83-1.16-4.33-1.14-1.5-3.3-1.5-2.78 0-5.18 2.8z" style="line-height:125%;-inkscape-font-specification:'Gill Sans MT, Normal';text-align:center" font-family="Gill Sans MT" letter-spacing="0" word-spacing="0" text-anchor="middle"/><path fill="#c0504d" d="M838.9 656.16v9.6q0 1.16.8 1.16t2.52-1.2v2.72q-1.53.98-2.46 1.33-.9.37-1.92.37-2.87 0-3.38-2.26-2.85 2.2-6.07 2.2-2.37 0-3.94-1.54-1.57-1.57-1.57-3.93 0-2.13 1.5-3.8 1.56-1.7 4.38-2.67l5.72-1.97v-1.2q0-4.08-4.07-4.08-3.66 0-7.13 3.78v-4.9q2.6-3.06 7.5-3.06 3.66 0 5.87 1.92.73.6 1.32 1.65.58 1 .73 2.03.17 1 .17 3.86zm-4.4 9.1v-6.7l-3 1.16q-2.28.9-3.23 1.84-.94.9-.94 2.3t.9 2.27q.9.9 2.32.9 2.14 0 3.95-1.76z" style="line-height:125%;-inkscape-font-specification:'Gill Sans MT, Normal';text-align:center" font-family="Gill Sans MT" letter-spacing="0" word-spacing="0" text-anchor="middle"/><path fill="#c0504d" d="M845.12 668.12v-4.8q1.9 1.3 3.85 2.15 2 .8 3.34.8 1.4 0 2.42-.68 1-.7 1-1.65 0-1-.66-1.62-.64-.67-2.8-1.9-4.32-2.4-5.67-4.1-1.34-1.72-1.34-3.73 0-2.6 2.02-4.25 2.04-1.65 5.23-1.65 3.32 0 6.8 1.87V653q-3.97-2.4-6.5-2.4-1.3 0-2.1.55-.8.54-.8 1.45 0 .8.72 1.5.73.7 2.55 1.72l1.6.9q5.65 3.2 5.65 7.08 0 2.78-2.2 4.57-2.15 1.77-5.56 1.77-2.02 0-3.6-.42-1.56-.44-3.94-1.6z" style="line-height:125%;-inkscape-font-specification:'Gill Sans MT, Normal';text-align:center" font-family="Gill Sans MT" letter-spacing="0" word-spacing="0" text-anchor="middle"/><path fill="#c0504d" d="M862.4 650.73l8.4-8.25v4.67h7.16v4.02h-7.15v11.08q0 3.88 3.23 3.88 2.4 0 5.08-1.62v4.2q-2.57 1.44-5.62 1.44-3.07 0-5.1-1.8-.64-.54-1.06-1.2-.42-.7-.7-1.77-.28-1.1-.28-4.17v-10.03h-3.93v-.44z" style="line-height:125%;-inkscape-font-specification:'Gill Sans MT, Normal';text-align:center" font-family="Gill Sans MT" letter-spacing="0" word-spacing="0" text-anchor="middle"/><path fill="#c0504d" d="M901.63 658.84h-15.9q.18 3.24 2.17 5.16 2.02 1.9 5.2 1.9 4.4 0 8.14-2.74v4.37q-2.06 1.38-4.1 1.97-2.02.6-4.74.6-3.74 0-6.04-1.56-2.3-1.55-3.7-4.15-1.4-2.64-1.4-6.08 0-5.16 2.93-8.37 2.92-3.25 7.58-3.25 4.5 0 7.18 3.15 2.67 3.14 2.67 8.42v.57zm-15.8-2.68h11.38q-.16-2.68-1.58-4.13-1.43-1.44-3.84-1.44-2.4 0-3.95 1.43-1.52 1.45-2 4.13z" style="line-height:125%;-inkscape-font-specification:'Gill Sans MT, Normal';text-align:center" font-family="Gill Sans MT" letter-spacing="0" word-spacing="0" text-anchor="middle"/><path fill="#c0504d" d="M911.24 647.15v5.18l.24-.4q3.24-5.23 6.5-5.23 2.52 0 5.27 2.56l-2.36 3.93q-2.34-2.22-4.33-2.22-2.16 0-3.76 2.06-1.56 2.06-1.56 4.9v11.8h-4.5v-22.6h4.5z" style="line-height:125%;-inkscape-font-specification:'Gill Sans MT, Normal';text-align:center" font-family="Gill Sans MT" letter-spacing="0" word-spacing="0" text-anchor="middle"/><path fill="#c0504d" d="M940.15 635.43h4.47v13.34q2.9-2.1 6.2-2.1 4.3 0 7 3.23 2.74 3.24 2.74 8.32 0 5.46-3.27 8.7-3.25 3.22-8.7 3.22-2.2 0-4.62-.47-2.4-.47-3.83-1.18v-33.07zm4.47 17.6v12.24q2.28.7 4.7.7 2.96 0 4.83-2.12 1.9-2.1 1.9-5.43 0-3.36-1.78-5.48-1.74-2.1-4.57-2.1-2.5 0-5.08 2.2z" style="line-height:125%;-inkscape-font-specification:'Gill Sans MT, Normal';text-align:center" font-family="Gill Sans MT" letter-spacing="0" word-spacing="0" text-anchor="middle"/><path fill="#c0504d" d="M970.28 647.15v5.18l.25-.4q3.24-5.23 6.5-5.23 2.5 0 5.27 2.56l-2.36 3.93q-2.34-2.22-4.32-2.22-2.17 0-3.76 2.06-1.58 2.06-1.58 4.9v11.8h-4.5v-22.6h4.5z" style="line-height:125%;-inkscape-font-specification:'Gill Sans MT, Normal';text-align:center" font-family="Gill Sans MT" letter-spacing="0" word-spacing="0" text-anchor="middle"/><path fill="#c0504d" d="M999.64 656.16v9.6q0 1.16.78 1.16.8 0 2.53-1.2v2.72q-1.52.98-2.45 1.33-.9.37-1.92.37-2.87 0-3.4-2.26-2.84 2.2-6.06 2.2-2.35 0-3.93-1.54-1.58-1.57-1.58-3.93 0-2.13 1.53-3.8 1.54-1.7 4.37-2.67l5.72-1.97v-1.2q0-4.08-4.08-4.08-3.66 0-7.12 3.78v-4.9q2.6-3.06 7.5-3.06 3.65 0 5.86 1.92.74.6 1.33 1.65.6 1 .73 2.03.18 1 .18 3.86zm-4.4 9.1v-6.7l-3 1.16q-2.28.9-3.24 1.84-.93.9-.93 2.3t.88 2.27q.9.9 2.34.9 2.12 0 3.94-1.76z" style="line-height:125%;-inkscape-font-specification:'Gill Sans MT, Normal';text-align:center" font-family="Gill Sans MT" letter-spacing="0" word-spacing="0" text-anchor="middle"/><path fill="#c0504d" d="M1011.43 647.15v2.87q3-3.32 6.8-3.32 2.1 0 3.93 1.1 1.82 1.1 2.75 3 .97 1.9.97 6.02v12.92h-4.47v-12.87q0-3.46-1.06-4.93-1.05-1.5-3.53-1.5-3.16 0-5.37 3.17v16.14h-4.57v-22.6h4.57z" style="line-height:125%;-inkscape-font-specification:'Gill Sans MT, Normal';text-align:center" font-family="Gill Sans MT" letter-spacing="0" word-spacing="0" text-anchor="middle"/><path fill="#c0504d" d="M1049.06 664.46v4.42q-3.37 1.26-6.6 1.26-5.3 0-8.46-3.15-3.14-3.15-3.14-8.43 0-5.33 3.07-8.6 3.07-3.27 8.08-3.27 1.75 0 3.13.35 1.4.32 3.43 1.23v4.76q-3.38-2.16-6.28-2.16-3.02 0-4.96 2.14-1.94 2.1-1.94 5.4 0 3.46 2.08 5.5 2.12 2.04 5.68 2.04 2.58 0 5.92-1.5z" style="line-height:125%;-inkscape-font-specification:'Gill Sans MT, Normal';text-align:center" font-family="Gill Sans MT" letter-spacing="0" word-spacing="0" text-anchor="middle"/><path fill="#c0504d" d="M1054.02 635.43h4.47v14.7q2.8-3.43 6.94-3.43 2.26 0 4.05 1.13 1.8 1.13 2.64 3.12.9 2 .9 5.92v12.87h-4.48v-13.97q0-2.48-1.23-3.98-1.2-1.53-3.2-1.53-1.47 0-2.77.76t-2.87 2.53v16.18H1054v-34.3z" style="line-height:125%;-inkscape-font-specification:'Gill Sans MT, Normal';text-align:center" font-family="Gill Sans MT" letter-spacing="0" word-spacing="0" text-anchor="middle"/><path fill="none" stroke="#404030" stroke-width="3.354" d="M34.4 955.2c0 67.06 0 67.06 0 67.06"/><path fill="none" stroke="#404030" stroke-width="3.354" d="M1.97 988.73H936.4" marker-end="url(#a)"/><path fill="#404030" d="M954.1 963.34h33.46v5.1H973.6v35h-5.76v-35H954.1v-5.1z" style="line-height:125%;-inkscape-font-specification:'Gill Sans MT, Normal';text-align:start" font-family="Gill Sans MT" letter-spacing="0" word-spacing="0"/><path fill="#404030" d="M994.92 965.98q1.3 0 2.2.9.92.88.92 2.17 0 1.26-.9 2.17-.93.92-2.22.92-1.2 0-2.12-.92-.92-.94-.92-2.17 0-1.2.92-2.12.92-.95 2.12-.95zm-2.58 11.1h5.22v26.35h-5.22v-26.36z" style="line-height:125%;-inkscape-font-specification:'Gill Sans MT, Normal';text-align:start" font-family="Gill Sans MT" letter-spacing="0" word-spacing="0"/><path fill="#404030" d="M1026.67 984.3v19.13h-5.24v-14.67q0-4.38-1.18-6.1-1.17-1.75-4.1-1.75-1.63 0-3 .76-1.35.74-3.1 2.63v19.13h-5.2v-26.36h5.2v3.47q3.98-4 7.8-4 5 0 7.76 4.77 4.2-4.8 8.75-4.8 3.84 0 6.3 2.8 2.5 2.8 2.5 8.57v15.56h-5.22v-15.6q0-3.3-1.34-5.06-1.36-1.74-3.88-1.74-3.24 0-6.05 3.26z" style="line-height:125%;-inkscape-font-specification:'Gill Sans MT, Normal';text-align:start" font-family="Gill Sans MT" letter-spacing="0" word-spacing="0"/><path fill="#404030" d="M1072.8 990.7h-18.53q.2 3.8 2.52 6.03 2.34 2.23 6.04 2.23 5.15 0 9.5-3.2v5.1q-2.4 1.6-4.78 2.3-2.35.68-5.53.68-4.35 0-7.05-1.8-2.7-1.82-4.32-4.85-1.6-3.08-1.6-7.1 0-6 3.4-9.76 3.4-3.8 8.86-3.8 5.24 0 8.36 3.68 3.13 3.67 3.13 9.83v.66zm-18.42-3.1h13.27q-.2-3.14-1.86-4.83-1.67-1.7-4.48-1.7-2.8 0-4.62 1.7-1.77 1.7-2.32 4.82z" style="line-height:125%;-inkscape-font-specification:'Gill Sans MT, Normal';text-align:start" font-family="Gill Sans MT" letter-spacing="0" word-spacing="0"/><path fill="#404030" d="M207.2 643.63v6.3q-6.3 3.44-14.57 3.44-6.7 0-11.37-2.7-4.67-2.7-7.4-7.42-2.72-4.72-2.72-10.23 0-8.74 6.22-14.7 6.25-5.96 15.4-5.96 6.3 0 14 3.3v6.16q-7.02-4-13.73-4-6.87 0-11.43 4.34-4.53 4.33-4.53 10.86 0 6.6 4.47 10.84t11.44 4.24q7.28 0 14.2-4.47z" style="line-height:125%;-inkscape-font-specification:'Gill Sans MT, Normal';text-align:start" font-family="Gill Sans MT" letter-spacing="0" word-spacing="0"/><path fill="#404030" d="M226.2 626.5q6 0 10 3.9 3.97 3.86 3.97 9.73 0 5.7-4.04 9.5-4.04 3.74-10.17 3.74-5.93 0-9.9-3.8-4-3.85-4-9.58 0-5.8 4-9.64 4.05-3.87 10.13-3.87zm-.3 4.7q-3.75 0-6.16 2.45-2.4 2.47-2.4 6.28 0 3.78 2.46 6.2 2.46 2.37 6.33 2.37 3.84 0 6.28-2.4 2.47-2.45 2.47-6.23 0-3.75-2.55-6.22-2.55-2.46-6.42-2.46z" style="line-height:125%;-inkscape-font-specification:'Gill Sans MT, Normal';text-align:start" font-family="Gill Sans MT" letter-spacing="0" word-spacing="0"/><path fill="#404030" d="M267.63 633.77v19.14h-5.25v-14.66q0-4.4-1.17-6.1-1.17-1.75-4.1-1.75-1.62 0-3 .73-1.35.75-3.1 2.64v19.14h-5.2v-26.35h5.2V630q4-3.97 7.8-3.97 5.02 0 7.77 4.76 4.18-4.83 8.74-4.83 3.85 0 6.3 2.8 2.5 2.82 2.5 8.58v15.56h-5.2v-15.6q0-3.3-1.36-5.05-1.35-1.75-3.87-1.75-3.24 0-6.04 3.27z" style="line-height:125%;-inkscape-font-specification:'Gill Sans MT, Normal';text-align:start" font-family="Gill Sans MT" letter-spacing="0" word-spacing="0"/><path fill="#404030" d="M312.9 633.77v19.14h-5.24v-14.66q0-4.4-1.18-6.1-1.17-1.75-4.1-1.75-1.63 0-3 .73-1.35.75-3.1 2.64v19.14h-5.2v-26.35h5.2V630q4-3.97 7.8-3.97 5 0 7.76 4.76 4.2-4.83 8.74-4.83 3.84 0 6.3 2.8 2.5 2.82 2.5 8.58v15.56h-5.22v-15.6q0-3.3-1.34-5.05-1.35-1.75-3.87-1.75-3.24 0-6.05 3.27z" style="line-height:125%;-inkscape-font-specification:'Gill Sans MT, Normal';text-align:start" font-family="Gill Sans MT" letter-spacing="0" word-spacing="0"/><path fill="#404030" d="M339.27 615.46q1.3 0 2.2.9.92.87.92 2.16 0 1.26-.93 2.18-.9.92-2.2.92-1.2 0-2.12-.92-.92-.94-.92-2.18 0-1.2.92-2.12.9-.94 2.12-.94zm-2.58 11.1h5.2v26.35h-5.2v-26.35z" style="line-height:125%;-inkscape-font-specification:'Gill Sans MT, Normal';text-align:start" font-family="Gill Sans MT" letter-spacing="0" word-spacing="0"/><path fill="#404030" d="M345.7 630.73l9.8-9.63v5.45h8.35v4.7h-8.34v12.92q0 4.53 3.77 4.53 2.8 0 5.93-1.9v4.88q-3 1.7-6.56 1.7-3.58 0-5.96-2.1-.75-.63-1.23-1.4-.5-.8-.84-2.07-.3-1.28-.3-4.86v-11.7h-4.6v-.5z" style="line-height:125%;-inkscape-font-specification:'Gill Sans MT, Normal';text-align:start" font-family="Gill Sans MT" letter-spacing="0" word-spacing="0"/><path fill="#404030" d="M475.48 643.63v6.3q-6.3 3.44-14.56 3.44-6.7 0-11.38-2.7-4.67-2.7-7.4-7.42-2.7-4.72-2.7-10.23 0-8.74 6.2-14.7 6.25-5.96 15.4-5.96 6.3 0 14 3.3v6.16q-7-4-13.72-4-6.88 0-11.43 4.34-4.54 4.33-4.54 10.86 0 6.6 4.47 10.84t11.43 4.24q7.28 0 14.22-4.47z" style="line-height:125%;-inkscape-font-specification:'Gill Sans MT, Normal';text-align:start" font-family="Gill Sans MT" letter-spacing="0" word-spacing="0"/><path fill="#404030" d="M494.48 626.5q6 0 10 3.9 3.98 3.86 3.98 9.73 0 5.7-4.04 9.5-4.04 3.74-10.17 3.74-5.94 0-9.92-3.8-3.98-3.85-3.98-9.58 0-5.8 4-9.64 4.05-3.87 10.13-3.87zm-.3 4.7q-3.74 0-6.15 2.45-2.4 2.47-2.4 6.28 0 3.78 2.46 6.2 2.45 2.37 6.32 2.37 3.84 0 6.27-2.4 2.46-2.45 2.46-6.23 0-3.75-2.55-6.22-2.54-2.46-6.4-2.46z" style="line-height:125%;-inkscape-font-specification:'Gill Sans MT, Normal';text-align:start" font-family="Gill Sans MT" letter-spacing="0" word-spacing="0"/><path fill="#404030" d="M535.9 633.77v19.14h-5.23v-14.66q0-4.4-1.18-6.1-1.18-1.75-4.1-1.75-1.64 0-3 .73-1.36.75-3.1 2.64v19.14h-5.22v-26.35h5.2V630q4-3.97 7.8-3.97 5.02 0 7.77 4.76 4.2-4.83 8.74-4.83 3.83 0 6.3 2.8 2.5 2.82 2.5 8.58v15.56h-5.23v-15.6q0-3.3-1.34-5.05-1.35-1.75-3.87-1.75-3.24 0-6.05 3.27z" style="line-height:125%;-inkscape-font-specification:'Gill Sans MT, Normal';text-align:start" font-family="Gill Sans MT" letter-spacing="0" word-spacing="0"/><path fill="#404030" d="M581.2 633.77v19.14h-5.26v-14.66q0-4.4-1.17-6.1-1.17-1.75-4.1-1.75-1.63 0-3 .73-1.35.75-3.1 2.64v19.14h-5.22v-26.35h5.22V630q3.98-3.97 7.8-3.97 5 0 7.76 4.76 4.18-4.83 8.74-4.83 3.84 0 6.3 2.8 2.5 2.82 2.5 8.58v15.56h-5.22v-15.6q0-3.3-1.35-5.05-1.34-1.75-3.86-1.75-3.24 0-6.05 3.27z" style="line-height:125%;-inkscape-font-specification:'Gill Sans MT, Normal';text-align:start" font-family="Gill Sans MT" letter-spacing="0" word-spacing="0"/><path fill="#404030" d="M607.55 615.46q1.3 0 2.2.9.93.87.93 2.16 0 1.26-.92 2.18-.92.92-2.2.92-1.2 0-2.13-.92-.9-.94-.9-2.18 0-1.2.9-2.12.92-.94 2.12-.94zm-2.58 11.1h5.22v26.35h-5.23v-26.35z" style="line-height:125%;-inkscape-font-specification:'Gill Sans MT, Normal';text-align:start" font-family="Gill Sans MT" letter-spacing="0" word-spacing="0"/><path fill="#404030" d="M614 630.73l9.8-9.63v5.45h8.34v4.7h-8.34v12.92q0 4.53 3.75 4.53 2.8 0 5.94-1.9v4.88q-3.02 1.7-6.58 1.7-3.58 0-5.96-2.1-.74-.63-1.23-1.4-.5-.8-.83-2.07-.3-1.28-.3-4.86v-11.7H614v-.5z" style="line-height:125%;-inkscape-font-specification:'Gill Sans MT, Normal';text-align:start" font-family="Gill Sans MT" letter-spacing="0" word-spacing="0"/><rect width="67.072" height="67.072" x="714.196" y="670.137" fill="#f05133" rx="5" ry="5"/><path fill="#fff" d="M756.36 704.98h-17.62v18.7h6.4q.52 0 .74.6.3.5.36 1.23.07.67-.15 1.25-.22.5-.66.5h-16.38q-.5 0-.8-.5-.22-.58-.22-1.24.07-.7.36-1.22.37-.6 1.02-.6h3.64v-40.03h-5.24q-.5 0-.8-.5-.22-.6-.22-1.25 0-.72.22-1.23.22-.6.8-.6h14.34q.58 0 .88.6.3.5.3 1.23 0 .66-.3 1.24-.3.5-.8.5h-3.5v17.92h17.62v-17.9h-5.32q-.58 0-.87-.52-.22-.58-.22-1.24 0-.72.22-1.23.3-.6.8-.6h14.64q.6 0 .88.6.3.5.22 1.23 0 .66-.37 1.24-.3.5-.87.5h-3.42v40.05h5.53q.5 0 .8.58.3.5.3 1.23 0 .67-.3 1.25-.22.5-.73.5h-15.8q-.58 0-.8-.5-.2-.58-.2-1.24.06-.7.35-1.22.28-.6.8-.6h4.36V705z" style="line-height:125%;-inkscape-font-specification:'Triplicate T4c, Normal';text-align:start" font-family="Triplicate T4c" letter-spacing="0" word-spacing="0"/><path fill="none" stroke="#f05133" stroke-width="3.354" d="M746 780.8h-62.6" stroke-linecap="square" marker-end="url(#b)"/><path fill="none" stroke="#f05133" stroke-width="3.354" d="M747.73 732.42v48.38" stroke-linecap="square"/><path fill="#404030" d="M166.73 840.75q.67 0 1.14.43.47.43.47 1.06 0 .6-.47 1.05-.47.44-1.14.44-.62 0-1.1-.45-.46-.47-.46-1.06 0-.6.47-1.03.47-.45 1.1-.45zm-1.32 5.4h2.7v12.8h-2.7v-12.8z" style="line-height:125%;-inkscape-font-specification:'Gill Sans MT, Normal';text-align:start" font-family="Gill Sans MT" letter-spacing="0" word-spacing="0"/><path fill="#404030" d="M174.63 846.14v1.63q1.8-1.88 4.1-1.88 1.25 0 2.34.6 1.1.62 1.65 1.7.58 1.08.58 3.42v7.33h-2.68v-7.3q0-1.96-.64-2.8-.63-.85-2.12-.85-1.9 0-3.23 1.8v9.15h-2.74v-12.8h2.73z" style="line-height:125%;-inkscape-font-specification:'Gill Sans MT, Normal';text-align:start" font-family="Gill Sans MT" letter-spacing="0" word-spacing="0"/><path fill="#404030" d="M196.1 839.5h2.7v19.45h-5.74q-3 0-4.8-1.8-1.8-1.8-1.8-4.82 0-2.82 1.88-4.65 1.9-1.82 4.8-1.82 1.36 0 2.95.54v-6.9zm0 17.28v-8.12q-1.26-.6-2.54-.6-2 0-3.2 1.24-1.18 1.24-1.18 3.34 0 1.98 1.03 3.05.63.63 1.32.85.7.23 2.5.23h2.07z" style="line-height:125%;-inkscape-font-specification:'Gill Sans MT, Normal';text-align:start" font-family="Gill Sans MT" letter-spacing="0" word-spacing="0"/><path fill="#404030" d="M214 852.77h-9.55q.1 1.83 1.3 2.92 1.2 1.08 3.1 1.08 2.66 0 4.9-1.56v2.48q-1.24.78-2.46 1.1-1.22.34-2.85.34-2.24 0-3.63-.87-1.4-.88-2.23-2.36-.83-1.48-.83-3.43 0-2.92 1.75-4.75 1.76-1.83 4.56-1.83 2.7 0 4.3 1.77 1.6 1.78 1.6 4.78v.32zm-9.5-1.52h6.83q-.1-1.52-.95-2.34-.86-.8-2.3-.8-1.45 0-2.38.8-.9.83-1.2 2.35z" style="line-height:125%;-inkscape-font-specification:'Gill Sans MT, Normal';text-align:start" font-family="Gill Sans MT" letter-spacing="0" word-spacing="0"/><path fill="#404030" d="M226.24 846.14h3.43l-5.6 6.3 6 6.5h-3.44l-4.26-4.6-4.02 4.6h-3.37l5.7-6.5-5.7-6.3h3.37l4.02 4.4 3.87-4.4z" style="line-height:125%;-inkscape-font-specification:'Gill Sans MT, Normal';text-align:start" font-family="Gill Sans MT" letter-spacing="0" word-spacing="0"/><path fill="#404030" d="M233.36 855.84q.75 0 1.28.5.53.48.53 1.2 0 .7-.53 1.16-.52.47-1.28.47t-1.27-.47q-.53-.47-.53-1.17t.52-1.2q.5-.5 1.26-.5z" style="line-height:125%;-inkscape-font-specification:'Gill Sans MT, Normal';text-align:start" font-family="Gill Sans MT" letter-spacing="0" word-spacing="0"/><path fill="#404030" d="M238.5 839.5h2.7v8.32q1.68-1.93 4.17-1.93 1.35 0 2.43.63 1.08.64 1.6 1.76t.52 3.35v7.3h-2.68v-7.93q0-1.4-.74-2.25-.72-.87-1.9-.87-.9 0-1.68.44-.78.43-1.72 1.43v9.18h-2.7V839.5z" style="line-height:125%;-inkscape-font-specification:'Gill Sans MT, Normal';text-align:start" font-family="Gill Sans MT" letter-spacing="0" word-spacing="0"/><path fill="#404030" d="M251.77 848.17l5.04-4.68v2.64h4.3v2.28h-4.3v6.28q0 2.2 1.94 2.2 1.44 0 3.05-.92v2.37q-1.56.82-3.4.82-1.83 0-3.05-1-.4-.32-.64-.7-.24-.4-.4-1-.18-.63-.18-2.37v-5.68h-2.35v-.25z" style="line-height:125%;-inkscape-font-specification:'Gill Sans MT, Normal';text-align:start" font-family="Gill Sans MT" letter-spacing="0" word-spacing="0"/><path fill="#404030" d="M274.86 849.65v9.3h-2.7v-7.13q0-2.13-.6-2.97-.6-.85-2.1-.85-.85 0-1.55.36-.7.37-1.6 1.3v9.3h-2.67v-12.82h2.68v1.68q2.06-1.93 4.02-1.93 2.58 0 4 2.3 2.15-2.34 4.5-2.34 1.97 0 3.24 1.36 1.28 1.37 1.28 4.17v7.55h-2.68v-7.6q0-1.6-.7-2.44-.7-.84-2-.84-1.65 0-3.1 1.6z" style="line-height:125%;-inkscape-font-specification:'Gill Sans MT, Normal';text-align:start" font-family="Gill Sans MT" letter-spacing="0" word-spacing="0"/><path fill="#404030" d="M287.1 839.5h2.68v19.45h-2.68V839.5z" style="line-height:125%;-inkscape-font-specification:'Gill Sans MT, Normal';text-align:start" font-family="Gill Sans MT" letter-spacing="0" word-spacing="0"/><path fill="#404030" d="M310.53 851.25v5.44q0 .65.47.65.5 0 1.52-.68v1.54q-.9.57-1.47.76-.55.2-1.15.2-1.73 0-2.04-1.27-1.7 1.24-3.64 1.24-1.4 0-2.35-.87-.95-.9-.95-2.23 0-1.2.92-2.16.93-.96 2.62-1.52l3.43-1.1v-.7q0-2.3-2.45-2.3-2.2 0-4.28 2.14v-2.77q1.57-1.74 4.5-1.74 2.2 0 3.52 1.07.43.35.8.93.34.58.43 1.16.1.57.1 2.2zm-2.64 5.16v-3.8l-1.8.67q-1.37.5-1.95 1.04-.56.53-.56 1.3 0 .8.52 1.3.55.5 1.4.5 1.28 0 2.37-1z" style="line-height:125%;-inkscape-font-specification:'Gill Sans MT, Normal';text-align:start" font-family="Gill Sans MT" letter-spacing="0" word-spacing="0"/><path fill="#404030" d="M323.98 839.5h2.7v19.45h-5.74q-3 0-4.8-1.8-1.8-1.8-1.8-4.82 0-2.82 1.88-4.65 1.9-1.82 4.8-1.82 1.36 0 2.96.54v-6.9zm0 17.28v-8.12q-1.26-.6-2.54-.6-2 0-3.2 1.24-1.18 1.24-1.18 3.34 0 1.98 1.03 3.05.6.63 1.3.85.7.23 2.5.23h2.08z" style="line-height:125%;-inkscape-font-specification:'Gill Sans MT, Normal';text-align:start" font-family="Gill Sans MT" letter-spacing="0" word-spacing="0"/><path fill="#404030" d="M339.1 839.5h2.7v19.45h-5.74q-3 0-4.8-1.8-1.8-1.8-1.8-4.82 0-2.82 1.9-4.65 1.87-1.82 4.8-1.82 1.35 0 2.94.54v-6.9zm0 17.28v-8.12q-1.25-.6-2.54-.6-2 0-3.2 1.24-1.17 1.24-1.17 3.34 0 1.98 1.02 3.05.62.63 1.3.85.7.23 2.5.23h2.08z" style="line-height:125%;-inkscape-font-specification:'Gill Sans MT, Normal';text-align:start" font-family="Gill Sans MT" letter-spacing="0" word-spacing="0"/><path fill="#404030" d="M357.02 852.77h-9.53q.1 1.83 1.28 2.92 1.2 1.08 3.1 1.08 2.67 0 4.9-1.56v2.48q-1.23.78-2.46 1.1-1.2.34-2.84.34-2.24 0-3.63-.87-1.38-.88-2.22-2.36-.83-1.48-.83-3.43 0-2.92 1.76-4.75 1.75-1.83 4.55-1.83 2.7 0 4.32 1.77 1.6 1.78 1.6 4.78v.32zm-9.48-1.52h6.83q-.1-1.52-.96-2.34-.84-.8-2.3-.8-1.43 0-2.36.8-.92.83-1.2 2.35z" style="line-height:125%;-inkscape-font-specification:'Gill Sans MT, Normal';text-align:start" font-family="Gill Sans MT" letter-spacing="0" word-spacing="0"/><path fill="#404030" d="M368.96 839.5h2.7v19.45h-5.74q-3 0-4.8-1.8-1.78-1.8-1.78-4.82 0-2.82 1.87-4.65 1.9-1.82 4.8-1.82 1.37 0 2.96.54v-6.9zm0 17.28v-8.12q-1.25-.6-2.53-.6-2 0-3.2 1.24-1.18 1.24-1.18 3.34 0 1.98 1.03 3.05.62.63 1.3.85.7.23 2.5.23h2.08z" style="line-height:125%;-inkscape-font-specification:'Gill Sans MT, Normal';text-align:start" font-family="Gill Sans MT" letter-spacing="0" word-spacing="0"/><path fill="#404030" d="M164.68 893.7v-2.74q1.14.75 2.32 1.22 1.2.46 2 .46.84 0 1.45-.4.6-.38.6-.92 0-.56-.4-.92-.38-.38-1.68-1.07-2.6-1.37-3.4-2.33-.8-.97-.8-2.12 0-1.47 1.2-2.4 1.23-.94 3.15-.94 2 0 4.08 1.06v2.5q-2.38-1.36-3.9-1.36-.78 0-1.27.32-.47.3-.47.82 0 .45.43.85.43.4 1.52.98l.96.52q3.4 1.8 3.4 4 0 1.6-1.33 2.6-1.3 1-3.34 1-1.2 0-2.14-.23-.95-.26-2.38-.9z" style="line-height:125%;-inkscape-font-specification:'Gill Sans MT, Normal';text-align:start" font-family="Gill Sans MT" letter-spacing="0" word-spacing="0"/><path fill="#404030" d="M175.06 883.82l5.04-4.68v2.65h4.3v2.28h-4.3v6.28q0 2.2 1.93 2.2 1.45 0 3.05-.92V894q-1.54.83-3.37.83t-3.06-1.02q-.38-.3-.63-.67-.24-.4-.42-1-.16-.63-.16-2.37v-5.68h-2.36v-.26z" style="line-height:125%;-inkscape-font-specification:'Gill Sans MT, Normal';text-align:start" font-family="Gill Sans MT" letter-spacing="0" word-spacing="0"/><path fill="#404030" d="M195.34 881.8h3.02l-9.6 19.34h-2.98l4.6-9.28-5.24-10.07h3.05l3.65 7.22 3.5-7.23z" style="line-height:125%;-inkscape-font-specification:'Gill Sans MT, Normal';text-align:start" font-family="Gill Sans MT" letter-spacing="0" word-spacing="0"/><path fill="#404030" d="M200.3 875.15h2.7v19.45h-2.7v-19.45z" style="line-height:125%;-inkscape-font-specification:'Gill Sans MT, Normal';text-align:start" font-family="Gill Sans MT" letter-spacing="0" word-spacing="0"/><path fill="#404030" d="M218.4 888.42h-9.53q.1 1.84 1.3 2.93 1.2 1.08 3.1 1.08 2.66 0 4.9-1.56v2.48q-1.23.78-2.46 1.12-1.2.33-2.83.33-2.24 0-3.63-.88-1.38-.88-2.22-2.35-.83-1.5-.83-3.44 0-2.93 1.74-4.75 1.76-1.84 4.56-1.84 2.7 0 4.3 1.78 1.6 1.8 1.6 4.78v.32zm-9.47-1.52h6.83q-.1-1.52-.96-2.34-.86-.82-2.3-.82-1.45 0-2.37.82-.92.82-1.2 2.34z" style="line-height:125%;-inkscape-font-specification:'Gill Sans MT, Normal';text-align:start" font-family="Gill Sans MT" letter-spacing="0" word-spacing="0"/><path fill="#404030" d="M223.27 891.5q.76 0 1.3.5.52.47.52 1.18 0 .7-.54 1.17-.52.48-1.3.48-.74 0-1.25-.48-.5-.47-.5-1.17t.5-1.2q.52-.48 1.27-.48z" style="line-height:125%;-inkscape-font-specification:'Gill Sans MT, Normal';text-align:start" font-family="Gill Sans MT" letter-spacing="0" word-spacing="0"/><path fill="#404030" d="M238.66 891.6v2.52q-2.02.7-3.95.7-3.17 0-5.07-1.78-1.9-1.78-1.9-4.77 0-3.02 1.85-4.88 1.84-1.86 4.85-1.86 1.05 0 1.87.2.84.18 2.07.7v2.7q-2.04-1.23-3.78-1.23-1.82 0-2.98 1.22-1.17 1.2-1.17 3.06 0 1.97 1.25 3.12 1.27 1.16 3.4 1.16 1.56 0 3.56-.85z" style="line-height:125%;-inkscape-font-specification:'Gill Sans MT, Normal';text-align:start" font-family="Gill Sans MT" letter-spacing="0" word-spacing="0"/><path fill="#404030" d="M241.04 893.7v-2.74q1.13.75 2.3 1.22 1.2.46 2 .46.85 0 1.46-.4.6-.38.6-.92 0-.56-.4-.92-.38-.38-1.68-1.07-2.6-1.37-3.4-2.33-.8-.97-.8-2.12 0-1.47 1.2-2.4 1.24-.94 3.15-.94 2 0 4.08 1.06v2.5q-2.38-1.36-3.9-1.36-.78 0-1.27.32-.47.3-.47.82 0 .45.44.85.44.4 1.53.98l.96.52q3.4 1.8 3.4 4 0 1.6-1.32 2.6-1.3 1-3.34 1-1.2 0-2.15-.23-.94-.26-2.36-.9z" style="line-height:125%;-inkscape-font-specification:'Gill Sans MT, Normal';text-align:start" font-family="Gill Sans MT" letter-spacing="0" word-spacing="0"/><path fill="#404030" d="M252.65 893.7v-2.74q1.13.75 2.3 1.22 1.2.46 2.02.46.84 0 1.44-.4.62-.38.62-.92 0-.56-.4-.92-.38-.38-1.68-1.07-2.6-1.37-3.4-2.33-.8-.97-.8-2.12 0-1.47 1.2-2.4 1.23-.94 3.15-.94 1.98 0 4.07 1.06v2.5q-2.4-1.36-3.9-1.36-.8 0-1.27.32-.48.3-.48.82 0 .45.43.85.44.4 1.53.98l.96.52q3.4 1.8 3.4 4 0 1.6-1.32 2.6-1.3 1-3.34 1-1.2 0-2.16-.23-.94-.26-2.37-.9z" style="line-height:125%;-inkscape-font-specification:'Gill Sans MT, Normal';text-align:start" font-family="Gill Sans MT" letter-spacing="0" word-spacing="0"/><path fill="#404030" d="M281.82 886.9v5.45q0 .65.47.65.48 0 1.5-.68v1.55q-.9.55-1.46.75-.55.2-1.15.2-1.74 0-2.05-1.27-1.7 1.25-3.64 1.25-1.4 0-2.35-.88-.94-.9-.94-2.23 0-1.22.92-2.17.93-.96 2.63-1.5l3.43-1.13v-.68q0-2.3-2.45-2.3-2.2 0-4.27 2.13v-2.77q1.56-1.74 4.5-1.74 2.2 0 3.52 1.1.44.33.8.92.35.57.44 1.16.1.57.1 2.18zm-2.64 5.17v-3.8l-1.8.65q-1.37.52-1.94 1.05-.56.5-.56 1.3t.53 1.3q.55.5 1.4.5 1.3 0 2.38-1z" style="line-height:125%;-inkscape-font-specification:'Gill Sans MT, Normal';text-align:start" font-family="Gill Sans MT" letter-spacing="0" word-spacing="0"/><path fill="#404030" d="M295.26 875.15h2.7v19.45h-5.73q-3 0-4.8-1.8-1.8-1.8-1.8-4.8 0-2.84 1.88-4.66 1.9-1.83 4.8-1.83 1.37 0 2.96.56v-6.9zm0 17.28v-8.12q-1.25-.6-2.53-.6-2 0-3.2 1.25-1.18 1.24-1.18 3.35 0 1.97 1.03 3.05.62.64 1.3.86.7.23 2.5.23h2.08z" style="line-height:125%;-inkscape-font-specification:'Gill Sans MT, Normal';text-align:start" font-family="Gill Sans MT" letter-spacing="0" word-spacing="0"/><path fill="#404030" d="M310.4 875.15h2.68v19.45h-5.73q-3 0-4.8-1.8-1.8-1.8-1.8-4.8 0-2.84 1.88-4.66 1.9-1.83 4.8-1.83 1.36 0 2.96.56v-6.9zm0 17.28v-8.12q-1.27-.6-2.55-.6-2 0-3.2 1.25-1.18 1.24-1.18 3.35 0 1.97 1.03 3.05.62.64 1.32.86.7.23 2.5.23h2.07z" style="line-height:125%;-inkscape-font-specification:'Gill Sans MT, Normal';text-align:start" font-family="Gill Sans MT" letter-spacing="0" word-spacing="0"/><path fill="#404030" d="M328.3 888.42h-9.53q.1 1.84 1.3 2.93 1.2 1.08 3.1 1.08 2.66 0 4.9-1.56v2.48q-1.24.78-2.46 1.12-1.2.33-2.83.33-2.24 0-3.63-.88-1.38-.88-2.22-2.35-.83-1.5-.83-3.44 0-2.93 1.74-4.75 1.76-1.84 4.56-1.84 2.7 0 4.3 1.78 1.6 1.8 1.6 4.78v.32zm-9.47-1.52h6.83q-.1-1.52-.96-2.34-.86-.82-2.3-.82-1.45 0-2.37.82-.92.82-1.2 2.34z" style="line-height:125%;-inkscape-font-specification:'Gill Sans MT, Normal';text-align:start" font-family="Gill Sans MT" letter-spacing="0" word-spacing="0"/><path fill="#404030" d="M340.25 875.15h2.7v19.45h-5.74q-3 0-4.8-1.8-1.78-1.8-1.78-4.8 0-2.84 1.87-4.66 1.88-1.83 4.8-1.83 1.36 0 2.95.56v-6.9zm0 17.28v-8.12q-1.25-.6-2.54-.6-2 0-3.2 1.25-1.16 1.24-1.16 3.35 0 1.97 1.03 3.05.62.64 1.3.86.7.23 2.5.23h2.08z" style="line-height:125%;-inkscape-font-specification:'Gill Sans MT, Normal';text-align:start" font-family="Gill Sans MT" letter-spacing="0" word-spacing="0"/><path fill="#404030" d="M165.4 910.8h2.7v19.46h-2.7V910.8z" style="line-height:125%;-inkscape-font-specification:'Gill Sans MT, Normal';text-align:start" font-family="Gill Sans MT" letter-spacing="0" word-spacing="0"/><path fill="#404030" d="M178.44 917.42q3.1 0 5.14 1.9 2.05 1.87 2.05 4.73 0 2.77-2.08 4.6-2.08 1.83-5.23 1.83-3.05 0-5.1-1.85-2.05-1.87-2.05-4.65 0-2.8 2.06-4.68 2.08-1.88 5.2-1.88zm-.15 2.28q-1.94 0-3.18 1.2-1.24 1.2-1.24 3.05 0 1.84 1.27 3 1.27 1.17 3.26 1.17 1.98 0 3.23-1.17 1.27-1.2 1.27-3.03 0-1.82-1.3-3.02-1.32-1.2-3.3-1.2z" style="line-height:125%;-inkscape-font-specification:'Gill Sans MT, Normal';text-align:start" font-family="Gill Sans MT" letter-spacing="0" word-spacing="0"/><path fill="#404030" d="M187.94 921.88q0-2.05 1.58-3.24 1.6-1.2 4.33-1.2h5.6v1.98h-2.75q.8.77 1.1 1.4.3.62.3 1.43 0 1-.6 1.98-.6.96-1.55 1.48-.95.52-3.1.83-1.53.2-1.53 1 0 .43.56.72.57.28 2.06.6 2.5.5 3.2.8.72.3 1.3.83.97.92.97 2.3 0 1.84-1.7 2.93-1.72 1.1-4.6 1.1-2.9 0-4.64-1.1-1.73-1.1-1.73-2.93 0-2.6 3.4-3.36-1.35-.8-1.35-1.62 0-.6.58-1.1.6-.5 1.57-.75-3-1.26-3-4.05zm5.04-2.23q-1.1 0-1.85.7-.77.7-.77 1.66 0 1 .75 1.66.76.64 1.9.64 1.15 0 1.9-.66.77-.66.77-1.65 0-1.02-.77-1.68-.77-.67-1.92-.67zm-.63 11.2q-1.36 0-2.23.55-.85.55-.85 1.4 0 1.97 3.77 1.97 1.8 0 2.76-.5 1-.5 1-1.4 0-.88-1.25-1.45-1.24-.56-3.2-.56z" style="line-height:125%;-inkscape-font-specification:'Gill Sans MT, Normal';text-align:start" font-family="Gill Sans MT" letter-spacing="0" word-spacing="0"/><path fill="#404030" d="M207.77 917.42q3.1 0 5.14 1.9 2.06 1.87 2.06 4.73 0 2.77-2.08 4.6-2.08 1.83-5.23 1.83-3.05 0-5.1-1.85-2.05-1.87-2.05-4.65 0-2.8 2.06-4.68 2.08-1.88 5.2-1.88zm-.15 2.28q-1.93 0-3.17 1.2t-1.24 3.05q0 1.84 1.28 3 1.27 1.17 3.26 1.17 1.97 0 3.23-1.17 1.26-1.2 1.26-3.03 0-1.82-1.3-3.02-1.32-1.2-3.3-1.2z" style="line-height:125%;-inkscape-font-specification:'Gill Sans MT, Normal';text-align:start" font-family="Gill Sans MT" letter-spacing="0" word-spacing="0"/><path fill="#404030" d="M218.47 927.15q.75 0 1.28.5.53.48.53 1.2 0 .7-.53 1.16-.5.48-1.28.48-.75 0-1.27-.47-.5-.46-.5-1.16t.5-1.2q.52-.5 1.27-.5z" style="line-height:125%;-inkscape-font-specification:'Gill Sans MT, Normal';text-align:start" font-family="Gill Sans MT" letter-spacing="0" word-spacing="0"/><path fill="#404030" d="M223.54 936.8v-19.35h4.7q3.6 0 5.62 1.7t2.02 4.74q0 2.88-1.9 4.73-1.9 1.85-4.83 1.85-1.3 0-2.87-.54v6.85h-2.74zm4.64-17h-1.9v7.9q1.24.6 2.6.6 1.88 0 3.08-1.24 1.2-1.24 1.2-3.2 0-1.25-.57-2.2-.57-.97-1.56-1.4-.97-.45-2.86-.45z" style="line-height:125%;-inkscape-font-specification:'Gill Sans MT, Normal';text-align:start" font-family="Gill Sans MT" letter-spacing="0" word-spacing="0"/><path fill="#404030" d="M241.5 917.45v1.63q1.8-1.88 4.07-1.88 1.27 0 2.36.62 1.1.62 1.65 1.7.58 1.07.58 3.4v7.34h-2.68v-7.3q0-1.96-.64-2.8-.63-.85-2.12-.85-1.9 0-3.23 1.8v9.16h-2.75v-12.8h2.74z" style="line-height:125%;-inkscape-font-specification:'Gill Sans MT, Normal';text-align:start" font-family="Gill Sans MT" letter-spacing="0" word-spacing="0"/><path fill="#404030" d="M253.2 921.88q0-2.05 1.6-3.24 1.58-1.2 4.32-1.2h5.6v1.98h-2.75q.8.77 1.1 1.4.3.62.3 1.43 0 1-.6 1.98-.6.96-1.56 1.48-.93.52-3.1.83-1.5.2-1.5 1 0 .43.55.72.57.28 2.06.6 2.5.5 3.2.8.73.3 1.3.83.98.92.98 2.3 0 1.84-1.73 2.93-1.7 1.1-4.58 1.1-2.9 0-4.64-1.1-1.73-1.1-1.73-2.93 0-2.6 3.4-3.36-1.35-.8-1.35-1.62 0-.6.58-1.1.58-.5 1.57-.75-3-1.26-3-4.05zm5.05-2.23q-1.1 0-1.86.7-.77.7-.77 1.66 0 1 .75 1.66.75.64 1.9.64 1.14 0 1.9-.66.75-.66.75-1.65 0-1.02-.76-1.68-.77-.67-1.92-.67zm-.63 11.2q-1.36 0-2.23.55-.86.55-.86 1.4 0 1.97 3.77 1.97 1.8 0 2.77-.5.98-.5.98-1.4 0-.88-1.23-1.45-1.24-.56-3.2-.56z" style="line-height:125%;-inkscape-font-specification:'Gill Sans MT, Normal';text-align:start" font-family="Gill Sans MT" letter-spacing="0" word-spacing="0"/><path fill="#404030" d="M283.7 922.56V928q0 .66.48.66t1.52-.68v1.54q-.92.56-1.48.75-.54.2-1.15.2-1.72 0-2.03-1.27-1.7 1.25-3.64 1.25-1.42 0-2.36-.87-.94-.9-.94-2.23 0-1.2.9-2.16.94-.97 2.63-1.53l3.44-1.1v-.7q0-2.3-2.45-2.3-2.2 0-4.27 2.14v-2.76q1.56-1.74 4.5-1.74 2.2 0 3.52 1.08.44.35.8.94.34.57.43 1.15.1.57.1 2.2zm-2.63 5.17v-3.8l-1.8.65q-1.37.5-1.95 1.04-.56.52-.56 1.3 0 .8.53 1.3.54.5 1.4.5 1.28 0 2.37-1z" style="line-height:125%;-inkscape-font-specification:'Gill Sans MT, Normal';text-align:start" font-family="Gill Sans MT" letter-spacing="0" word-spacing="0"/><path fill="#404030" d="M297.15 910.8h2.7v19.46h-5.74q-3 0-4.8-1.8-1.78-1.8-1.78-4.82 0-2.82 1.88-4.65 1.88-1.83 4.8-1.83 1.36 0 2.95.54v-6.9zm0 17.3v-8.13q-1.25-.6-2.54-.6-2 0-3.18 1.24-1.18 1.25-1.18 3.35 0 1.98 1.03 3.05.62.64 1.3.86.7.23 2.5.23h2.08z" style="line-height:125%;-inkscape-font-specification:'Gill Sans MT, Normal';text-align:start" font-family="Gill Sans MT" letter-spacing="0" word-spacing="0"/><path fill="#404030" d="M312.27 910.8h2.7v19.46h-5.73q-3 0-4.8-1.8-1.8-1.8-1.8-4.82 0-2.82 1.88-4.65 1.9-1.83 4.8-1.83 1.36 0 2.95.54v-6.9zm0 17.3v-8.13q-1.25-.6-2.53-.6-2 0-3.2 1.24-1.18 1.25-1.18 3.35 0 1.98 1.03 3.05.6.64 1.3.86.7.23 2.5.23h2.07z" style="line-height:125%;-inkscape-font-specification:'Gill Sans MT, Normal';text-align:start" font-family="Gill Sans MT" letter-spacing="0" word-spacing="0"/><path fill="#404030" d="M330.2 924.08h-9.54q.1 1.83 1.3 2.92 1.2 1.1 3.1 1.1 2.66 0 4.9-1.57V929q-1.24.8-2.46 1.12-1.2.33-2.85.33-2.24 0-3.62-.87-1.4-.88-2.23-2.36-.82-1.5-.82-3.44 0-2.92 1.75-4.75t4.55-1.83q2.7 0 4.3 1.78 1.62 1.78 1.62 4.78v.32zm-9.48-1.52h6.82q-.1-1.52-.96-2.34-.85-.82-2.3-.82-1.44 0-2.37.82-.9.82-1.18 2.34z" style="line-height:125%;-inkscape-font-specification:'Gill Sans MT, Normal';text-align:start" font-family="Gill Sans MT" letter-spacing="0" word-spacing="0"/><path fill="#404030" d="M342.13 910.8h2.7v19.46h-5.73q-3 0-4.8-1.8-1.8-1.8-1.8-4.82 0-2.82 1.88-4.65 1.9-1.83 4.8-1.83 1.36 0 2.95.54v-6.9zm0 17.3v-8.13q-1.25-.6-2.53-.6-2 0-3.2 1.24-1.18 1.25-1.18 3.35 0 1.98 1.03 3.05.62.64 1.32.86.7.23 2.5.23h2.06z" style="line-height:125%;-inkscape-font-specification:'Gill Sans MT, Normal';text-align:start" font-family="Gill Sans MT" letter-spacing="0" word-spacing="0"/><rect width="248.165" height="132.466" x="144.089" y="822.724" fill="none" stroke="#ddd" stroke-width="3.354" ry="4" stroke-linecap="round" stroke-linejoin="round" rx="4"/><path fill="#404030" d="M421.9 839.07q.66 0 1.13.43.47.43.47 1.06 0 .6-.47 1.06-.47.44-1.14.44-.63 0-1.1-.44-.47-.46-.47-1.06 0-.6.47-1.03.47-.46 1.1-.46zm-1.33 5.4h2.68v12.8h-2.68v-12.8z" style="line-height:125%;-inkscape-font-specification:'Gill Sans MT, Normal';text-align:start" font-family="Gill Sans MT" letter-spacing="0" word-spacing="0"/><path fill="#404030" d="M429.8 844.46v1.63q1.8-1.9 4.08-1.9 1.26 0 2.35.64 1.1.6 1.66 1.7.56 1.07.56 3.4v7.33h-2.68v-7.3q0-1.96-.64-2.8-.63-.84-2.12-.84-1.9 0-3.23 1.8v9.14h-2.75v-12.8h2.74z" style="line-height:125%;-inkscape-font-specification:'Gill Sans MT, Normal';text-align:start" font-family="Gill Sans MT" letter-spacing="0" word-spacing="0"/><path fill="#404030" d="M451.25 837.82h2.7v19.45h-5.73q-3 0-4.8-1.8-1.8-1.8-1.8-4.8 0-2.84 1.88-4.67 1.9-1.82 4.8-1.82 1.36 0 2.95.54v-6.9zm0 17.28v-8.12q-1.25-.6-2.53-.6-2 0-3.2 1.24-1.18 1.24-1.18 3.34 0 1.98 1.03 3.05.62.65 1.3.88.7.22 2.5.22h2.08z" style="line-height:125%;-inkscape-font-specification:'Gill Sans MT, Normal';text-align:start" font-family="Gill Sans MT" letter-spacing="0" word-spacing="0"/><path fill="#404030" d="M469.15 851.1h-9.54q.1 1.83 1.3 2.9 1.22 1.1 3.12 1.1 2.65 0 4.9-1.56v2.48q-1.25.78-2.47 1.1-1.2.35-2.84.35-2.23 0-3.62-.88-1.4-.9-2.23-2.36-.82-1.5-.82-3.44 0-2.93 1.75-4.75 1.76-1.84 4.56-1.84 2.7 0 4.3 1.8 1.6 1.77 1.6 4.77v.32zm-9.48-1.53h6.83q-.1-1.52-.96-2.34-.86-.82-2.3-.82-1.45 0-2.38.83-.9.82-1.2 2.34z" style="line-height:125%;-inkscape-font-specification:'Gill Sans MT, Normal';text-align:start" font-family="Gill Sans MT" letter-spacing="0" word-spacing="0"/><path fill="#404030" d="M481.4 844.46h3.43l-5.6 6.3 6 6.5h-3.44l-4.26-4.58-4.03 4.6h-3.36l5.7-6.5-5.7-6.32h3.37l4.04 4.4 3.86-4.4z" style="line-height:125%;-inkscape-font-specification:'Gill Sans MT, Normal';text-align:start" font-family="Gill Sans MT" letter-spacing="0" word-spacing="0"/><path fill="#404030" d="M488.52 854.17q.75 0 1.28.48.53.5.53 1.2t-.53 1.17q-.52.48-1.28.48t-1.27-.48q-.52-.47-.52-1.17t.52-1.2q.5-.48 1.27-.48z" style="line-height:125%;-inkscape-font-specification:'Gill Sans MT, Normal';text-align:start" font-family="Gill Sans MT" letter-spacing="0" word-spacing="0"/><path fill="#404030" d="M493.68 837.82h2.68v8.32q1.68-1.93 4.17-1.93 1.36 0 2.43.65 1.08.64 1.6 1.77t.52 3.35v7.3h-2.68v-7.92q0-1.4-.74-2.26-.72-.87-1.9-.87-.9 0-1.68.43-.78.43-1.72 1.43v9.17h-2.68v-19.45z" style="line-height:125%;-inkscape-font-specification:'Gill Sans MT, Normal';text-align:start" font-family="Gill Sans MT" letter-spacing="0" word-spacing="0"/><path fill="#404030" d="M506.93 846.5l5.04-4.7v2.66h4.3v2.28h-4.3v6.28q0 2.2 1.93 2.2 1.44 0 3.05-.9v2.35q-1.55.83-3.38.83-1.84 0-3.06-1.02-.38-.3-.63-.68-.25-.4-.42-1-.17-.63-.17-2.37v-5.7h-2.35v-.24z" style="line-height:125%;-inkscape-font-specification:'Gill Sans MT, Normal';text-align:start" font-family="Gill Sans MT" letter-spacing="0" word-spacing="0"/><path fill="#404030" d="M530.02 847.97v9.3h-2.7v-7.13q0-2.13-.6-2.97-.6-.84-2.1-.84-.85 0-1.55.36-.7.35-1.6 1.27v9.3h-2.68v-12.8h2.67v1.67q2.05-1.93 4-1.93 2.6 0 4 2.32 2.16-2.34 4.5-2.34 1.98 0 3.25 1.37 1.28 1.36 1.28 4.16v7.57h-2.68v-7.6q0-1.6-.7-2.44-.7-.85-2-.85-1.65 0-3.1 1.6z" style="line-height:125%;-inkscape-font-specification:'Gill Sans MT, Normal';text-align:start" font-family="Gill Sans MT" letter-spacing="0" word-spacing="0"/><path fill="#404030" d="M542.26 837.82h2.68v19.45h-2.68v-19.45z" style="line-height:125%;-inkscape-font-specification:'Gill Sans MT, Normal';text-align:start" font-family="Gill Sans MT" letter-spacing="0" word-spacing="0"/><path fill="#404030" d="M567.34 854.28v2.5q-2.02.72-3.95.72-3.2 0-5.1-1.8-1.88-1.77-1.88-4.76 0-3.03 1.84-4.88 1.85-1.85 4.85-1.85 1.06 0 1.9.2.83.18 2.05.7v2.7q-2.03-1.22-3.77-1.22-1.82 0-2.98 1.2-1.17 1.2-1.17 3.07 0 1.97 1.26 3.12 1.25 1.16 3.4 1.16 1.54 0 3.54-.85z" style="line-height:125%;-inkscape-font-specification:'Gill Sans MT, Normal';text-align:start" font-family="Gill Sans MT" letter-spacing="0" word-spacing="0"/><path fill="#404030" d="M570.32 837.82H573v8.32q1.68-1.93 4.18-1.93 1.35 0 2.43.65 1.08.64 1.6 1.77.53 1.13.53 3.35v7.3h-2.68v-7.92q0-1.4-.74-2.26-.7-.87-1.9-.87-.9 0-1.67.43-.78.43-1.73 1.43v9.17h-2.68v-19.45z" style="line-height:125%;-inkscape-font-specification:'Gill Sans MT, Normal';text-align:start" font-family="Gill Sans MT" letter-spacing="0" word-spacing="0"/><path fill="#404030" d="M594 849.57v5.45q0 .65.47.65.48 0 1.5-.68v1.53q-.9.56-1.46.76-.54.2-1.14.2-1.72 0-2.03-1.3-1.7 1.27-3.65 1.27-1.4 0-2.35-.88-.95-.9-.95-2.24 0-1.2.92-2.16.93-.96 2.62-1.52l3.44-1.1v-.7q0-2.3-2.45-2.3-2.2 0-4.27 2.14v-2.77q1.57-1.74 4.5-1.74 2.2 0 3.52 1.1.44.34.8.93.35.57.44 1.15.1.57.1 2.2zm-2.65 5.17v-3.8l-1.8.65q-1.36.5-1.94 1.03-.55.52-.55 1.3 0 .8.53 1.3.55.5 1.4.5 1.28 0 2.37-1z" style="line-height:125%;-inkscape-font-specification:'Gill Sans MT, Normal';text-align:start" font-family="Gill Sans MT" letter-spacing="0" word-spacing="0"/><path fill="#404030" d="M601.07 844.46v1.63q1.8-1.9 4.08-1.9 1.27 0 2.36.64 1.1.6 1.66 1.7.58 1.07.58 3.4v7.33h-2.7v-7.3q0-1.96-.62-2.8-.63-.84-2.12-.84-1.9 0-3.23 1.8v9.14h-2.74v-12.8h2.74z" style="line-height:125%;-inkscape-font-specification:'Gill Sans MT, Normal';text-align:start" font-family="Gill Sans MT" letter-spacing="0" word-spacing="0"/><path fill="#404030" d="M612.8 848.9q0-2.06 1.56-3.24 1.6-1.2 4.34-1.2h5.58v1.98h-2.74q.8.76 1.1 1.4.32.62.32 1.42 0 1-.6 1.98-.6.96-1.57 1.48-.95.5-3.12.82-1.52.2-1.52 1 0 .43.56.73.58.28 2.07.58 2.48.52 3.18.8.73.3 1.3.85.97.9.97 2.3 0 1.83-1.72 2.92-1.7 1.08-4.58 1.08-2.9 0-4.65-1.1-1.72-1.08-1.72-2.92 0-2.6 3.4-3.36-1.35-.82-1.35-1.63 0-.62.57-1.12.6-.5 1.58-.74-3-1.25-3-4.05zm5.03-2.24q-1.1 0-1.86.7-.77.7-.77 1.67 0 1 .76 1.64.75.64 1.9.64 1.13 0 1.88-.64.77-.67.77-1.66 0-1-.76-1.67-.76-.67-1.9-.67zm-.64 11.2q-1.36 0-2.23.55-.86.56-.86 1.4 0 2 3.8 2 1.77 0 2.74-.52 1-.48 1-1.4 0-.88-1.25-1.45-1.25-.56-3.2-.56z" style="line-height:125%;-inkscape-font-specification:'Gill Sans MT, Normal';text-align:start" font-family="Gill Sans MT" letter-spacing="0" word-spacing="0"/><path fill="#404030" d="M637.95 851.1h-9.54q.1 1.83 1.3 2.9 1.22 1.1 3.12 1.1 2.65 0 4.9-1.56v2.48q-1.25.78-2.47 1.1-1.2.35-2.84.35-2.24 0-3.62-.88-1.4-.9-2.23-2.36-.82-1.5-.82-3.44 0-2.93 1.75-4.75 1.76-1.84 4.56-1.84 2.7 0 4.3 1.8 1.6 1.77 1.6 4.77v.32zm-9.48-1.53h6.82q-.1-1.52-.96-2.34-.86-.82-2.3-.82-1.45 0-2.38.83-.9.82-1.2 2.34z" style="line-height:125%;-inkscape-font-specification:'Gill Sans MT, Normal';text-align:start" font-family="Gill Sans MT" letter-spacing="0" word-spacing="0"/><path fill="#404030" d="M649.9 837.82h2.68v19.45h-5.73q-3 0-4.8-1.8-1.8-1.8-1.8-4.8 0-2.84 1.88-4.67 1.9-1.82 4.8-1.82 1.36 0 2.96.54v-6.9zm0 17.28v-8.12q-1.27-.6-2.55-.6-2 0-3.2 1.24-1.18 1.24-1.18 3.34 0 1.98 1.04 3.05.62.65 1.32.88.7.22 2.5.22h2.07z" style="line-height:125%;-inkscape-font-specification:'Gill Sans MT, Normal';text-align:start" font-family="Gill Sans MT" letter-spacing="0" word-spacing="0"/><rect width="248.165" height="57.011" x="412.375" y="821.048" fill="none" stroke="#ddd" stroke-width="3.354" ry="4" stroke-linecap="round" stroke-linejoin="round" rx="4"/></g></svg>
