<?xml version="1.0" encoding="UTF-8" standalone="no"?>
<svg
   xmlns:dc="http://purl.org/dc/elements/1.1/"
   xmlns:cc="http://creativecommons.org/ns#"
   xmlns:rdf="http://www.w3.org/1999/02/22-rdf-syntax-ns#"
   xmlns:svg="http://www.w3.org/2000/svg"
   xmlns="http://www.w3.org/2000/svg"
   xmlns:sodipodi="http://sodipodi.sourceforge.net/DTD/sodipodi-0.dtd"
   xmlns:inkscape="http://www.inkscape.org/namespaces/inkscape"
   width="320"
   height="150"
   version="1.1"
   id="svg266"
   sodipodi:docname="fig-02-12.svg"
   inkscape:version="0.92.1 r15371">
  <metadata
     id="metadata270">
    <rdf:RDF>
      <cc:Work
         rdf:about="">
        <dc:format>image/svg+xml</dc:format>
        <dc:type
           rdf:resource="http://purl.org/dc/dcmitype/StillImage" />
        <dc:title></dc:title>
      </cc:Work>
    </rdf:RDF>
  </metadata>
  <sodipodi:namedview
     pagecolor="#ffffff"
     bordercolor="#666666"
     borderopacity="1"
     objecttolerance="10"
     gridtolerance="10"
     guidetolerance="10"
     inkscape:pageopacity="0"
     inkscape:pageshadow="2"
     inkscape:window-width="2560"
     inkscape:window-height="1378"
     id="namedview268"
     showgrid="false"
     inkscape:zoom="0.8875"
     inkscape:cx="19.71831"
     inkscape:cy="75"
     inkscape:window-x="2552"
     inkscape:window-y="-8"
     inkscape:window-maximized="1"
     inkscape:current-layer="svg266" />
  <defs
     id="defs10">
    <marker
       orient="auto"
       overflow="visible"
       id="marker4">
      <path
         fill="#404030"
         fill-rule="evenodd"
         stroke="#404030"
         stroke-width=".8pt"
         d="M4.62 0L-2.3 4v-8l6.92 4z"
         id="path2" />
    </marker>
    <marker
       orient="auto"
       overflow="visible"
       id="marker8">
      <path
         fill="#f05133"
         fill-rule="evenodd"
         stroke="#f05133"
         stroke-width=".4pt"
         d="M2.3 0l-3.45 2v-4L2.3 0z"
         id="path6" />
    </marker>
  </defs>
  <g
     transform="translate(0 -902.362)"
     id="g264">
    <ellipse
       cx="159.689"
       cy="929.59"
       fill="none"
       stroke="#c0504d"
       stroke-width="5"
       rx="7.5"
       ry="7.5"
       stroke-linecap="round"
       id="ellipse12" />
    <path
       fill="none"
       stroke="#c0504d"
       stroke-width="5"
       d="M144.7 929.6h8"
       id="path14" />
    <path
       fill="none"
       stroke="#c0504d"
       stroke-width="5"
       d="M166.7 929.6h8"
       id="path16" />
    <rect
       width="74"
       height="16"
       x="123.689"
       y="945.09"
       fill="#f8f8f8"
       stroke="#ddd"
       rx="4"
       ry="4"
       stroke-linecap="round"
       stroke-linejoin="round"
       id="rect18" />
    <path
       fill="#404030"
       d="M129.75 955.77q0-.45.17-.84.17-.4.45-.72.28-.3.62-.53.33-.23.67-.35v-.23q-.76-.46-1.12-1.03-.35-.58-.35-1.24 0-.47.2-.9.22-.44.6-.78.4-.35.96-.55.55-.2 1.26-.2.54 0 1.05.14.53.15.93.44.42.28.66.7.25.44.25 1.02 0 .4-.13.74-.14.35-.37.64-.22.3-.5.5-.26.23-.5.35v.17q.8.33 1.37.97.56.64.56 1.6 0 .58-.25 1.08-.25.48-.7.83-.46.35-1.1.54-.64.2-1.43.2-.7 0-1.32-.18-.6-.2-1.05-.53-.43-.34-.68-.8-.25-.47-.25-1.03zm1.27-.24q0 .37.12.72t.37.65q.27.27.67.45.4.16.96.16.5 0 .9-.12.4-.15.7-.38.27-.25.4-.57.16-.32.16-.67 0-.86-.73-1.45-.7-.57-1.95-.77-1.6.62-1.6 2zm.24-4.74q0 .32.16.6.17.3.46.55.3.25.68.44.4.18.85.3.16-.05.4-.2.27-.15.52-.4.25-.23.42-.57.18-.35.18-.8 0-.8-.5-1.2-.5-.42-1.24-.42-.47 0-.84.17-.35.15-.6.4-.23.23-.35.53-.14.3-.14.6z"
       style="line-height:125%;-inkscape-font-specification:'Triplicate T4c, Normal';text-align:start"
       font-family="Triplicate T4c"
       letter-spacing="0"
       word-spacing="0"
       id="path20" />
    <path
       fill="#404030"
       d="M139 955.77q0-.45.17-.84.17-.4.45-.72.28-.3.62-.53.34-.23.68-.35v-.23q-.76-.46-1.1-1.03-.37-.58-.37-1.24 0-.47.2-.9.22-.44.6-.78.4-.35.96-.55.57-.2 1.28-.2.54 0 1.05.14.52.15.92.44.42.28.66.7.26.44.26 1.02 0 .4-.14.74-.14.35-.37.64-.2.3-.5.5-.25.23-.5.35v.17q.82.33 1.37.97.56.64.56 1.6 0 .58-.25 1.08-.25.48-.7.83-.46.35-1.1.54-.64.2-1.42.2-.7 0-1.32-.18-.6-.2-1.05-.53-.43-.34-.68-.8-.25-.47-.25-1.03zm1.27-.24q0 .37.12.72t.36.65q.27.27.67.45.4.16.95.16.5 0 .9-.12.42-.15.7-.38.27-.25.4-.57.16-.32.16-.67 0-.86-.72-1.45-.7-.57-1.95-.77-1.6.62-1.6 2zm.25-4.74q0 .32.15.6.17.3.46.55.3.25.68.44.4.18.86.3.16-.05.4-.2.26-.15.5-.4.26-.23.43-.57.17-.35.17-.8 0-.8-.5-1.2-.48-.42-1.24-.42-.46 0-.83.17-.36.15-.6.4-.24.23-.36.53-.12.3-.12.6z"
       style="line-height:125%;-inkscape-font-specification:'Triplicate T4c, Normal';text-align:start"
       font-family="Triplicate T4c"
       letter-spacing="0"
       word-spacing="0"
       id="path22" />
    <path
       fill="#404030"
       d="M153.13 954.04q-.43.38-.94.58-.5.2-1.2.2-.55 0-1.06-.23-.5-.23-.88-.64-.37-.4-.6-1-.22-.58-.22-1.34 0-.76.28-1.36.28-.6.72-1 .47-.43 1.02-.65.57-.2 1.14-.2.75 0 1.35.27.6.26 1.05.82.44.53.7 1.36.24.83.24 1.94 0 .8-.22 1.6-.2.76-.6 1.43-.4.67-.96 1.2-.55.54-1.28.84-.23.12-.57.22-.3.1-.7.17-.38.08-.77.13-.4.06-.73.07-.1 0-.13-.12-.05-.1-.05-.26 0-.14.05-.27.04-.13.15-.15.6-.08 1.27-.23.66-.15 1.08-.35.8-.34 1.3-1.08.5-.76.77-1.87l-.22-.1zm.16-1q.02-.14.03-.3.02-.2.02-.4 0-.18 0-.34 0-.16 0-.27 0-.55-.14-1.02t-.4-.8q-.27-.35-.65-.54-.38-.2-.8-.2-.4 0-.75.17-.34.16-.6.48-.25.32-.4.78-.14.45-.14 1.04 0 .6.15 1.05.18.42.45.7.26.3.58.42.33.12.65.12.66 0 1.2-.26.53-.28.8-.6z"
       style="line-height:125%;-inkscape-font-specification:'Triplicate T4c, Normal';text-align:start"
       font-family="Triplicate T4c"
       letter-spacing="0"
       word-spacing="0"
       id="path24" />
    <path
       fill="#404030"
       d="M162.2 952.97q.8.24 1.3.9.5.65.5 1.52 0 .62-.26 1.16-.24.53-.72.92-.46.4-1.16.6-.68.24-1.54.24-.6 0-1.34-.17-.76-.16-1.46-.63-.12-.08-.12-.23.02-.17.1-.3.1-.15.2-.22.15-.1.27-.02.5.3 1.02.5.52.16 1.3.16 1.05 0 1.7-.5.66-.52.66-1.5 0-.96-.57-1.47-.56-.5-1.4-.5H160q-.12 0-.17-.13-.04-.13-.04-.27 0-.16.05-.3.07-.13.17-.13h.7q.25 0 .5-.08.24-.1.44-.3.22-.2.36-.52.13-.34.13-.82 0-.97-.4-1.4-.4-.43-1-.43-.56 0-.85.23-.3.23-.32.6-.03.45-.25.64-.22.2-.56.2-.35 0-.5-.16-.13-.14-.13-.4 0-.24.17-.55.2-.3.54-.56.35-.28.85-.46t1.16-.18q.5 0 1 .15.46.15.83.44.36.3.6.77.23.45.23 1.07 0 .66-.4 1.2-.4.53-.93.76v.17z"
       style="line-height:125%;-inkscape-font-specification:'Triplicate T4c, Normal';text-align:start"
       font-family="Triplicate T4c"
       letter-spacing="0"
       word-spacing="0"
       id="path26" />
    <path
       fill="#404030"
       d="M172.38 955h.94q.2 0 .3.15.1.13.07.3 0 .13-.1.26-.08.15-.22.15h-1v2.26q0 .12-.17.18-.16.07-.36.07-.2 0-.36-.05-.17-.06-.17-.2v-2.24h-4.1q-.16 0-.24-.2-.07-.2-.1-.44-.02-.25 0-.47.03-.23.06-.3.94-1.42 1.7-2.86.78-1.46 1.18-3 .05-.18.26-.23.24-.08.48-.05.25.02.43.12.2.1.16.23-.22.73-.6 1.5-.36.76-.82 1.53-.45.76-.96 1.5-.5.72-1 1.36v.45h3.57v-2.67q0-.1.18-.17.17-.06.36-.05.2 0 .37.1.18.04.18.16V955z"
       style="line-height:125%;-inkscape-font-specification:'Triplicate T4c, Normal';text-align:start"
       font-family="Triplicate T4c"
       letter-spacing="0"
       word-spacing="0"
       id="path28" />
    <path
       fill="#404030"
       d="M177 954.85q.02 1.24.56 1.84.55.57 1.57.57.48 0 .97-.05.5-.06.98-.15.47-.1.88-.2.4-.1.72-.22.1-.05.2.03.1.06.16.16t.06.2q0 .1-.06.15-.4.18-.9.35-.48.18-1 .32-.5.13-1.05.2-.54.1-1.05.1-.8 0-1.43-.24-.62-.23-1.05-.64-.42-.43-.63-1-.22-.56-.22-1.2 0-.9.33-1.6.32-.72.83-1.2.52-.5 1.17-.76.66-.26 1.33-.26.72 0 1.33.22.62.22 1.05.63.45.4.68 1 .25.6.25 1.32 0 .2-.1.3-.07.1-.3.12l-5.28-.02zm4.37-.67q-.03-.4-.16-.8-.1-.4-.34-.7-.23-.33-.62-.52-.37-.2-.92-.2-.5 0-.9.18t-.74.48q-.3.3-.5.72-.18.4-.2.84h4.4z"
       style="line-height:125%;-inkscape-font-specification:'Triplicate T4c, Normal';text-align:start"
       font-family="Triplicate T4c"
       letter-spacing="0"
       word-spacing="0"
       id="path30" />
    <path
       fill="#404030"
       d="M185.27 955.77q0-.45.17-.84.17-.4.44-.72.28-.3.62-.53.34-.23.68-.35v-.23q-.76-.46-1.1-1.03-.37-.58-.37-1.24 0-.47.22-.9.2-.44.6-.78.4-.35.95-.55.56-.2 1.27-.2.54 0 1.05.14.5.15.9.44.43.28.68.7.24.44.24 1.02 0 .4-.13.74-.15.35-.38.64-.22.3-.5.5-.26.23-.5.35v.17q.8.33 1.37.97.54.64.54 1.6 0 .58-.25 1.08-.25.48-.72.83-.44.35-1.1.54-.62.2-1.4.2-.72 0-1.34-.18-.6-.2-1.05-.53-.44-.34-.7-.8-.23-.47-.23-1.03zm1.26-.24q0 .37.13.72.12.35.37.65.26.27.66.45.4.16.95.16.5 0 .9-.12.4-.15.7-.38.26-.25.4-.57.16-.32.16-.67 0-.86-.72-1.45-.7-.57-1.94-.77-1.6.62-1.6 2zm.25-4.74q0 .32.15.6.17.3.47.55.3.25.68.44.4.18.84.3.16-.05.4-.2.27-.15.5-.4.26-.23.43-.57.2-.35.2-.8 0-.8-.5-1.2-.5-.42-1.26-.42-.47 0-.84.17-.36.15-.6.4-.23.23-.36.53-.12.3-.12.6z"
       style="line-height:125%;-inkscape-font-specification:'Triplicate T4c, Normal';text-align:start"
       font-family="Triplicate T4c"
       letter-spacing="0"
       word-spacing="0"
       id="path32" />
    <ellipse
       cx="79.689"
       cy="929.59"
       fill="none"
       stroke="#c0504d"
       stroke-width="5"
       rx="7.5"
       ry="7.5"
       stroke-linecap="round"
       id="ellipse34" />
    <path
       fill="none"
       stroke="#c0504d"
       stroke-width="5"
       d="M64.7 929.6h8"
       id="path36" />
    <path
       fill="none"
       stroke="#c0504d"
       stroke-width="5"
       d="M86.7 929.6h8"
       id="path38" />
    <path
       fill="none"
       stroke="#c0504d"
       stroke-width="5"
       d="M91.8 929.6h55"
       id="path40" />
    <rect
       width="74"
       height="16"
       x="42.689"
       y="945.09"
       fill="#f8f8f8"
       stroke="#ddd"
       rx="4"
       ry="4"
       stroke-linecap="round"
       stroke-linejoin="round"
       id="rect42" />
    <path
       fill="#404030"
       d="M53.44 952.97q.8.24 1.3.9.5.65.5 1.52 0 .62-.25 1.16-.26.53-.74.92-.46.4-1.16.6-.68.24-1.54.24-.6 0-1.34-.17-.76-.16-1.45-.63-.13-.08-.13-.23.02-.17.1-.3.1-.15.2-.22.15-.1.27-.02.52.3 1.03.5.53.16 1.3.16 1.06 0 1.7-.5.68-.52.68-1.5 0-.96-.57-1.47-.55-.5-1.4-.5h-.66q-.13 0-.17-.13-.05-.13-.05-.27 0-.16.05-.3.06-.13.17-.13h.7q.24 0 .5-.08.23-.1.43-.3.22-.2.36-.52.14-.34.14-.82 0-.97-.4-1.4-.4-.43-1-.43-.56 0-.86.23-.3.23-.32.6-.03.45-.25.64-.2.2-.55.2-.36 0-.5-.16-.14-.14-.14-.4 0-.24.17-.55.2-.3.53-.56.35-.28.85-.46t1.17-.18q.5 0 1 .15.47.15.84.44.37.3.6.77.23.45.23 1.07 0 .66-.4 1.2-.4.53-.93.76v.17z"
       style="line-height:125%;-inkscape-font-specification:'Triplicate T4c, Normal';text-align:start"
       font-family="Triplicate T4c"
       letter-spacing="0"
       word-spacing="0"
       id="path44" />
    <path
       fill="#404030"
       d="M64.25 949.56q-1.03 1.94-1.93 4.13-.87 2.17-1.52 4.35-.06.13-.33.2-.26.07-.57.07-.3 0-.54-.07-.23-.06-.14-.26.8-2 1.82-4.1 1.02-2.1 2.18-4.03l-.1-.2q-.46 0-1 0-.57 0-1.14.02-.57 0-1.1.02-.52.02-.9.03-.28.02-.42-.16-.14-.2-.15-.42 0-.23.1-.42.1-.2.32-.2.1 0 .37.02.25 0 .55.02.3 0 .62 0 .3 0 .5 0h2.72q.18 0 .33.12.15.1.25.24.1.13.1.3.04.17-.03.3z"
       style="line-height:125%;-inkscape-font-specification:'Triplicate T4c, Normal';text-align:start"
       font-family="Triplicate T4c"
       letter-spacing="0"
       word-spacing="0"
       id="path46" />
    <path
       fill="#404030"
       d="M70.5 957.42q.35 0 .75-.12.42-.13.77-.43.36-.3.6-.83.22-.53.22-1.33 0-.5-.2-.92-.18-.44-.5-.76-.3-.32-.72-.5-.4-.2-.83-.2-.47-.02-.94.14-.44.16-.8.5v3.4q0 .43.4.75.42.32 1.25.32zm-2.93-8.4l-1.02.18q-.1 0-.16-.1-.05-.14-.08-.28-.02-.16 0-.3 0-.14.1-.15.2-.03.57-.1.36-.06.67-.14.3-.07.53-.14.23-.1.37-.13.1-.03.3.1.2.1.15.38-.13.92-.17 1.88-.03.95-.07 1.74l.2.1q.4-.26.88-.45.5-.2 1.05-.2.72 0 1.3.26.58.26 1 .7.4.46.65 1.06.23.6.23 1.25 0 .9-.36 1.57-.35.65-.9 1.1-.55.43-1.23.65-.67.22-1.32.22-.5 0-.86-.1t-.56-.17l-.48.37q-.06.06-.2.04-.14 0-.28-.07-.13-.05-.23-.15-.1-.1-.06-.2.03-.06.04-.24.03-.16.05-.37 0-.2 0-.42.02-.2.02-.35v-7.43l-.15-.1z"
       style="line-height:125%;-inkscape-font-specification:'Triplicate T4c, Normal';text-align:start"
       font-family="Triplicate T4c"
       letter-spacing="0"
       word-spacing="0"
       id="path48" />
    <path
       fill="#404030"
       d="M79.77 957.42q.33 0 .74-.12.42-.13.78-.43.35-.3.58-.83.24-.53.24-1.33 0-.5-.2-.92-.2-.44-.5-.76t-.72-.5q-.4-.2-.84-.2-.46-.02-.92.14-.45.16-.8.5v3.4q0 .43.4.75t1.25.32zm-2.95-8.4l-1.02.18q-.1 0-.15-.1-.05-.14-.08-.28-.02-.16 0-.3 0-.14.1-.15.2-.03.58-.1.37-.06.68-.14.3-.07.52-.14.23-.1.37-.13.1-.03.3.1.2.1.15.38-.12.92-.17 1.88-.03.95-.06 1.74l.18.1q.4-.26.9-.45.5-.2 1.05-.2.7 0 1.28.26.58.26 1 .7.42.46.65 1.06.23.6.23 1.25 0 .9-.36 1.57-.35.65-.9 1.1-.55.43-1.22.65-.67.22-1.32.22-.5 0-.86-.1t-.56-.17l-.46.37q-.07.06-.2.04-.14 0-.28-.07-.14-.05-.23-.15-.1-.1-.07-.2.02-.06.04-.24.03-.16.04-.37.02-.2.02-.42 0-.2 0-.35v-7.43l-.14-.1z"
       style="line-height:125%;-inkscape-font-specification:'Triplicate T4c, Normal';text-align:start"
       font-family="Triplicate T4c"
       letter-spacing="0"
       word-spacing="0"
       id="path50" />
    <path
       fill="#404030"
       d="M92.58 953.22q0 1.2-.28 2.16-.27.95-.78 1.6-.5.66-1.2 1-.68.34-1.5.34-.73 0-1.33-.33-.6-.36-1.06-.96-.43-.6-.68-1.38-.24-.8-.24-1.72 0-1.2.2-2.2.2-1 .64-1.76.45-.74 1.13-1.16.68-.43 1.63-.43.7 0 1.32.3.64.3 1.1.9.48.6.75 1.5.28.9.28 2.12zm-1.4.1q0-1.16-.16-1.98-.17-.82-.47-1.33-1.4 3.6-2.64 7.14.47.46 1.06.46.43 0 .83-.22.4-.22.7-.72.3-.5.5-1.32.2-.84.2-2.03zm-3.77 3.1q.7-1.76 1.32-3.5.64-1.77 1.24-3.53-.4-.28-.9-.28-.6 0-1 .3-.42.32-.68.9-.26.54-.38 1.34-.13.8-.13 1.8 0 .97.14 1.72.15.72.4 1.23z"
       style="line-height:125%;-inkscape-font-specification:'Triplicate T4c, Normal';text-align:start"
       font-family="Triplicate T4c"
       letter-spacing="0"
       word-spacing="0"
       id="path52" />
    <path
       fill="#404030"
       d="M96.05 949.05q0-.25.14-.33.13-.1.34-.1h3.06q.3 0 .52-.04.23-.02.45-.07.18-.02.26.16.1.17.03.4-.04.2-.26.4t-.65.2h-3.1l-.15 2.3.2.12q.18-.1.5-.16.3-.07.8-.07.6 0 1.17.2.58.17 1.05.54.46.37.74.94.3.57.3 1.33 0 .73-.33 1.35-.3.63-.9 1.1-.57.47-1.42.74-.82.26-1.86.26-.27 0-.57-.02-.28-.03-.54-.1-.26-.04-.5-.1-.2-.08-.35-.17-.12-.1-.12-.25.02-.16.1-.3.07-.13.2-.22.13-.1.26-.02.2.15.63.25.42.08 1.06.08.63 0 1.17-.18.56-.2.96-.52.4-.34.65-.8.24-.48.24-1.08 0-.96-.63-1.58-.63-.6-1.92-.6-.44 0-.74.08-.3.1-.53.2-.13.1-.3-.04-.2-.15-.18-.3l.23-3.6z"
       style="line-height:125%;-inkscape-font-specification:'Triplicate T4c, Normal';text-align:start"
       font-family="Triplicate T4c"
       letter-spacing="0"
       word-spacing="0"
       id="path54" />
    <path
       fill="#404030"
       d="M109.05 954.75q-2.02.08-3 .4-.98.35-.98 1.1 0 .53.4.86.4.34 1.07.34.63 0 1.3-.2.7-.2 1.15-.64l.05-1.85zm.02 2.66l-.1-.02q-.55.33-1.28.57-.73.2-1.47.2-1.22 0-1.84-.48-.63-.5-.63-1.24 0-.6.36-1 .35-.43 1.03-.7.7-.27 1.68-.4 1-.13 2.24-.18l.03-.68q.03-.4-.08-.7-.1-.3-.3-.48-.2-.2-.46-.3-.24-.08-.52-.08-.5 0-.9.16-.4.15-.6.3-.1.04-.1.1 0 .1 0 .2 0 .42-.2.6-.2.2-.53.2-.25 0-.5-.14-.23-.13-.2-.64 0-.2.06-.35.06-.16.3-.28.36-.18.8-.34.47-.16.95-.27.5-.12.94-.2.45-.07.8-.07.9 0 1.33.58.43.57.43 1.47l-.14 3.9 1.2-.3q.1-.03.2.06.1.1.14.23.05.13.04.25-.02.1-.14.16-.14.04-.44.14t-.6.2q-.34.1-.63.2-.28.1-.4.1-.23.06-.28-.1l-.18-.67z"
       style="line-height:125%;-inkscape-font-specification:'Triplicate T4c, Normal';text-align:start"
       font-family="Triplicate T4c"
       letter-spacing="0"
       word-spacing="0"
       id="path56" />
    <path
       fill="none"
       stroke="#c0504d"
       stroke-width="5.045"
       d="M9.7 929.6h56"
       stroke-linecap="round"
       id="path58" />
    <path
       fill="none"
       stroke="#c0504d"
       stroke-width="5.045"
       d="M174.37 929.6h142.7"
       stroke-linecap="round"
       id="path60" />
    <path
       fill="#c0504d"
       stroke="#fff"
       stroke-width=".648"
       d="M-700 422.36l-4.33-7.5-4.33-7.5h17.32l-4.33 7.5z"
       transform="matrix(.025 -.783 .76 .001 -258.239 381.164)"
       stroke-linejoin="round"
       id="path62" />
    <path
       fill="none"
       stroke="#c0504d"
       stroke-width="5"
       d="M30.13 929.6h4.96"
       id="path64" />
    <path
       fill="#c0504d"
       stroke="#fff"
       stroke-width=".648"
       d="M-700 422.36l-4.33-7.5-4.33-7.5h17.32l-4.33 7.5z"
       transform="matrix(.025 -.783 .76 .001 -94.239 381.164)"
       stroke-linejoin="round"
       id="path66" />
    <path
       fill="none"
       stroke="#c0504d"
       stroke-width="5"
       d="M194.13 929.6h4.96"
       id="path68" />
    <path
       fill="#c0504d"
       stroke="#fff"
       stroke-width=".648"
       d="M-700 422.36l-4.33-7.5-4.33-7.5h17.32l-4.33 7.5z"
       transform="matrix(.025 -.783 .76 .001 -176.614 381.164)"
       stroke-linejoin="round"
       id="path70" />
    <path
       fill="none"
       stroke="#c0504d"
       stroke-width="5"
       d="M111.76 929.6h4.95"
       id="path72" />
    <path
       fill="#c0504d"
       d="M239.6 914.58v4.9h-1.35v-3.76q0-1.12-.3-1.56-.3-.44-1.05-.44-.4 0-.77.2-.34.18-.8.66v4.9h-1.32v-6.75h1.34v.9q1.02-1.03 2-1.03 1.28 0 1.98 1.22 1.07-1.23 2.23-1.23 1 0 1.62.7.63.72.63 2.2v3.97h-1.33v-4q0-.83-.34-1.28-.35-.45-1-.45-.82 0-1.54.83z"
       style="line-height:125%;-inkscape-font-specification:'Gill Sans MT, Normal';text-align:center"
       font-family="Gill Sans MT"
       letter-spacing="0"
       word-spacing="0"
       text-anchor="middle"
       id="path74" />
    <path
       fill="#c0504d"
       d="M249.87 915.42v2.87q0 .33.24.33.25 0 .76-.36v.8q-.45.3-.73.4-.27.12-.57.12-.86 0-1-.68-.86.66-1.82.66-.7 0-1.17-.47-.47-.45-.47-1.16 0-.64.45-1.13.46-.5 1.3-.8l1.7-.58v-.36q0-1.2-1.2-1.2-1.1 0-2.13 1.12v-1.46q.78-.92 2.24-.92 1.1 0 1.75.57.23.2.4.5.18.3.22.6.05.3.05 1.15zm-1.3 2.72v-2l-.9.34q-.68.28-.97.55-.28.27-.28.7 0 .4.27.67.26.26.68.26.64 0 1.18-.52z"
       style="line-height:125%;-inkscape-font-specification:'Gill Sans MT, Normal';text-align:center"
       font-family="Gill Sans MT"
       letter-spacing="0"
       word-spacing="0"
       text-anchor="middle"
       id="path76" />
    <path
       fill="#c0504d"
       d="M251.73 919v-1.45q.56.4 1.15.65.6.24 1 .24t.7-.2q.3-.2.3-.5t-.2-.48q-.18-.2-.82-.56-1.3-.72-1.7-1.23-.4-.5-.4-1.1 0-.8.6-1.28.62-.5 1.57-.5 1 0 2.03.56v1.32q-1.2-.72-1.94-.72-.4 0-.63.17-.24.16-.24.43 0 .23.2.45.23.22.77.52l.48.27q1.7.94 1.7 2.1 0 .83-.66 1.36-.65.53-1.66.53-.6 0-1.07-.13-.46-.14-1.17-.48z"
       style="line-height:125%;-inkscape-font-specification:'Gill Sans MT, Normal';text-align:center"
       font-family="Gill Sans MT"
       letter-spacing="0"
       word-spacing="0"
       text-anchor="middle"
       id="path78" />
    <path
       fill="#c0504d"
       d="M256.88 913.8l2.5-2.46v1.4h2.14v1.2h-2.13v3.3q0 1.16.95 1.16.72 0 1.5-.5v1.26q-.75.43-1.66.43-.93 0-1.54-.54-.2-.17-.3-.36-.14-.2-.22-.53-.08-.33-.08-1.25v-2.98h-1.18v-.14z"
       style="line-height:125%;-inkscape-font-specification:'Gill Sans MT, Normal';text-align:center"
       font-family="Gill Sans MT"
       letter-spacing="0"
       word-spacing="0"
       text-anchor="middle"
       id="path80" />
    <path
       fill="#c0504d"
       d="M268.58 916.22h-4.74q.05.97.65 1.54.6.57 1.53.57 1.32 0 2.43-.82v1.3q-.6.42-1.22.6-.6.18-1.4.18-1.13 0-1.82-.47-.68-.45-1.1-1.22-.4-.8-.4-1.8 0-1.55.86-2.5.87-.98 2.26-.98 1.34 0 2.14.94t.8 2.5v.18zm-4.7-.8h3.38q-.05-.8-.47-1.23-.44-.44-1.16-.44-.7 0-1.18.43-.45.42-.6 1.22z"
       style="line-height:125%;-inkscape-font-specification:'Gill Sans MT, Normal';text-align:center"
       font-family="Gill Sans MT"
       letter-spacing="0"
       word-spacing="0"
       text-anchor="middle"
       id="path82" />
    <path
       fill="#c0504d"
       d="M271.44 912.73v1.55l.08-.12q.96-1.56 1.93-1.56.76 0 1.58.76l-.7 1.18q-.7-.66-1.3-.66-.64 0-1.12.6-.46.63-.46 1.47v3.52h-1.34v-6.74h1.34z"
       style="line-height:125%;-inkscape-font-specification:'Gill Sans MT, Normal';text-align:center"
       font-family="Gill Sans MT"
       letter-spacing="0"
       word-spacing="0"
       text-anchor="middle"
       id="path84" />
    <path
       fill="#c0504d"
       d="M280.06 909.24h1.34v3.98q.86-.63 1.84-.63 1.3 0 2.1.95.8.97.8 2.5 0 1.6-.96 2.58-.97.96-2.6.96-.65 0-1.37-.15-.7-.14-1.14-.35v-9.86zm1.34 5.25v3.64q.68.2 1.4.2.88 0 1.44-.62.56-.63.56-1.62 0-1-.52-1.64-.52-.63-1.37-.63-.73 0-1.5.66z"
       style="line-height:125%;-inkscape-font-specification:'Gill Sans MT, Normal';text-align:center"
       font-family="Gill Sans MT"
       letter-spacing="0"
       word-spacing="0"
       text-anchor="middle"
       id="path86" />
    <path
       fill="#c0504d"
       d="M289.05 912.73v1.55l.08-.12q.96-1.56 1.93-1.56.75 0 1.57.76l-.7 1.18q-.7-.66-1.3-.66-.63 0-1.1.6-.48.63-.48 1.47v3.52h-1.34v-6.74h1.35z"
       style="line-height:125%;-inkscape-font-specification:'Gill Sans MT, Normal';text-align:center"
       font-family="Gill Sans MT"
       letter-spacing="0"
       word-spacing="0"
       text-anchor="middle"
       id="path88" />
    <path
       fill="#c0504d"
       d="M297.8 915.42v2.87q0 .33.24.33t.75-.36v.8q-.46.3-.74.4-.27.12-.57.12-.87 0-1.02-.68-.85.66-1.8.66-.7 0-1.18-.47-.47-.45-.47-1.16 0-.64.45-1.13.46-.5 1.3-.8l1.7-.58v-.36q0-1.2-1.2-1.2-1.1 0-2.13 1.12v-1.46q.78-.92 2.24-.92 1.08 0 1.74.57.22.2.4.5.17.3.2.6.06.3.06 1.15zm-1.3 2.72v-2l-.9.34q-.68.28-.97.55-.28.27-.28.7 0 .4.27.67.27.26.7.26.63 0 1.17-.52z"
       style="line-height:125%;-inkscape-font-specification:'Gill Sans MT, Normal';text-align:center"
       font-family="Gill Sans MT"
       letter-spacing="0"
       word-spacing="0"
       text-anchor="middle"
       id="path90" />
    <path
       fill="#c0504d"
       d="M301.32 912.73v.86q.9-1 2.03-1 .63 0 1.17.33.54.32.82.9.3.56.3 1.8v3.84h-1.35v-3.84q0-1.03-.32-1.47-.32-.44-1.06-.44-.94 0-1.6.94v4.8h-1.36v-6.73h1.36z"
       style="line-height:125%;-inkscape-font-specification:'Gill Sans MT, Normal';text-align:center"
       font-family="Gill Sans MT"
       letter-spacing="0"
       word-spacing="0"
       text-anchor="middle"
       id="path92" />
    <path
       fill="#c0504d"
       d="M312.54 917.9v1.32q-1 .37-1.96.37-1.58 0-2.53-.95-.94-.93-.94-2.5 0-1.6.93-2.57.9-.98 2.4-.98.53 0 .94.1.42.1 1.02.37v1.42q-1.02-.65-1.88-.65-.9 0-1.48.64-.58.6-.58 1.6 0 1.03.62 1.64.63.6 1.7.6.76 0 1.76-.44z"
       style="line-height:125%;-inkscape-font-specification:'Gill Sans MT, Normal';text-align:center"
       font-family="Gill Sans MT"
       letter-spacing="0"
       word-spacing="0"
       text-anchor="middle"
       id="path94" />
    <path
       fill="#c0504d"
       d="M314.02 909.24h1.33v4.38q.84-1.02 2.08-1.02.67 0 1.2.34.54.34.8.93.26.6.26 1.76v3.84h-1.34v-4.16q0-.73-.37-1.18-.37-.46-.96-.46-.44 0-.83.23-.38.22-.85.75v4.82h-1.33v-10.23z"
       style="line-height:125%;-inkscape-font-specification:'Gill Sans MT, Normal';text-align:center"
       font-family="Gill Sans MT"
       letter-spacing="0"
       word-spacing="0"
       text-anchor="middle"
       id="path96" />
    <path
       fill="none"
       stroke="#404030"
       d="M9.98 1004.6c0 20 0 20 0 20"
       id="path98" />
    <path
       fill="none"
       stroke="#404030"
       d="M.3 1014.6h278.65"
       id="path100"
       style="marker-end:url(#marker4)" />
    <path
       fill="#404030"
       d="M284.23 1007.02h9.97v1.52h-4.16v10.44h-1.72v-10.44h-4.1v-1.52z"
       style="line-height:125%;-inkscape-font-specification:'Gill Sans MT, Normal';text-align:start"
       font-family="Gill Sans MT"
       letter-spacing="0"
       word-spacing="0"
       id="path102" />
    <path
       fill="#404030"
       d="M296.4 1007.8q.38 0 .66.27.27.27.27.65t-.27.65q-.28.27-.66.27-.36 0-.63-.27-.28-.28-.28-.65 0-.36.27-.63.27-.3.63-.3zm-.77 3.3h1.55v7.88h-1.55v-7.87z"
       style="line-height:125%;-inkscape-font-specification:'Gill Sans MT, Normal';text-align:start"
       font-family="Gill Sans MT"
       letter-spacing="0"
       word-spacing="0"
       id="path104" />
    <path
       fill="#404030"
       d="M305.87 1013.27v5.7h-1.57v-4.37q0-1.3-.35-1.82t-1.22-.52q-.5 0-.9.22t-.92.8v5.7h-1.55v-7.87h1.56v1.05q1.2-1.2 2.33-1.2 1.5 0 2.32 1.43 1.25-1.44 2.6-1.44 1.15 0 1.9.84.73.84.73 2.56v4.64h-1.56v-4.66q0-.98-.4-1.5-.4-.53-1.15-.53-.97 0-1.8.97z"
       style="line-height:125%;-inkscape-font-specification:'Gill Sans MT, Normal';text-align:start"
       font-family="Gill Sans MT"
       letter-spacing="0"
       word-spacing="0"
       id="path106" />
    <path
       fill="#404030"
       d="M319.62 1015.18h-5.53q.05 1.13.75 1.8.7.66 1.8.66 1.54 0 2.84-.95v1.5q-.73.5-1.44.7-.7.2-1.65.2-1.3 0-2.1-.54t-1.28-1.45q-.48-.9-.48-2.1 0-1.8 1.02-2.9 1-1.14 2.64-1.14 1.56 0 2.5 1.1.92 1.1.92 2.93v.18zm-5.5-.93h3.96q-.05-.93-.55-1.44-.5-.5-1.33-.5-.84 0-1.38.5-.53.52-.7 1.45z"
       style="line-height:125%;-inkscape-font-specification:'Gill Sans MT, Normal';text-align:start"
       font-family="Gill Sans MT"
       letter-spacing="0"
       word-spacing="0"
       id="path108" />
    <path
       fill="#404030"
       d="M61.5 911.68v1.88q-1.87 1.03-4.34 1.03-2 0-3.4-.8-1.38-.82-2.2-2.23-.8-1.4-.8-3.05 0-2.6 1.85-4.38 1.87-1.78 4.6-1.78 1.88 0 4.18.98v1.84q-2.1-1.2-4.1-1.2-2.05 0-3.4 1.3-1.36 1.3-1.36 3.24 0 1.97 1.34 3.23 1.33 1.27 3.4 1.27 2.18 0 4.25-1.34z"
       style="line-height:125%;-inkscape-font-specification:'Gill Sans MT, Normal';text-align:start"
       font-family="Gill Sans MT"
       letter-spacing="0"
       word-spacing="0"
       id="path110" />
    <path
       fill="#404030"
       d="M67.17 906.57q1.8 0 2.98 1.17 1.2 1.15 1.2 2.9 0 1.7-1.2 2.83-1.22 1.12-3.05 1.12-1.77 0-2.95-1.15-1.2-1.14-1.2-2.85 0-1.73 1.2-2.87 1.2-1.16 3.02-1.16zm-.08 1.4q-1.13 0-1.85.74-.72.75-.72 1.88t.74 1.85q.73.7 1.88.7t1.87-.7q.74-.74.74-1.86T69 908.7q-.76-.72-1.9-.72z"
       style="line-height:125%;-inkscape-font-specification:'Gill Sans MT, Normal';text-align:start"
       font-family="Gill Sans MT"
       letter-spacing="0"
       word-spacing="0"
       id="path112" />
    <path
       fill="#404030"
       d="M79.53 908.75v5.7h-1.57v-4.37q0-1.3-.35-1.82-.34-.52-1.2-.52-.5 0-.9.22t-.93.8v5.7h-1.55v-7.87h1.55v1.03q1.2-1.2 2.32-1.2 1.5 0 2.3 1.43 1.26-1.44 2.62-1.44 1.14 0 1.88.84t.74 2.55v4.65h-1.56v-4.65q0-1-.4-1.5-.4-.53-1.15-.53-.97 0-1.8.98z"
       style="line-height:125%;-inkscape-font-specification:'Gill Sans MT, Normal';text-align:start"
       font-family="Gill Sans MT"
       letter-spacing="0"
       word-spacing="0"
       id="path114" />
    <path
       fill="#404030"
       d="M93.03 908.75v5.7h-1.57v-4.37q0-1.3-.35-1.82-.34-.52-1.2-.52-.5 0-.9.22t-.93.8v5.7h-1.55v-7.87h1.55v1.03q1.2-1.2 2.33-1.2 1.5 0 2.3 1.43 1.26-1.44 2.62-1.44 1.14 0 1.88.84t.74 2.55v4.65H96.4v-4.65q0-1-.42-1.5-.4-.53-1.15-.53-.96 0-1.8.98z"
       style="line-height:125%;-inkscape-font-specification:'Gill Sans MT, Normal';text-align:start"
       font-family="Gill Sans MT"
       letter-spacing="0"
       word-spacing="0"
       id="path116" />
    <path
       fill="#404030"
       d="M100.9 903.3q.37 0 .65.25.27.26.27.65 0 .38-.27.65-.28.27-.66.27-.37 0-.64-.27-.28-.28-.28-.65 0-.36.28-.63.27-.28.63-.28zm-.78 3.3h1.56v7.85h-1.56v-7.86z"
       style="line-height:125%;-inkscape-font-specification:'Gill Sans MT, Normal';text-align:start"
       font-family="Gill Sans MT"
       letter-spacing="0"
       word-spacing="0"
       id="path118" />
    <path
       fill="#404030"
       d="M102.8 907.84l2.93-2.87v1.62h2.5v1.4h-2.5v3.85q0 1.35 1.12 1.35.84 0 1.77-.57v1.46q-.9.5-1.95.5-1.07 0-1.78-.63-.23-.2-.38-.42-.14-.24-.25-.62-.1-.38-.1-1.45v-3.5h-1.36v-.14z"
       style="line-height:125%;-inkscape-font-specification:'Gill Sans MT, Normal';text-align:start"
       font-family="Gill Sans MT"
       letter-spacing="0"
       word-spacing="0"
       id="path120" />
    <path
       fill="#404030"
       d="M141.5 911.68v1.88q-1.87 1.03-4.34 1.03-2 0-3.4-.8-1.38-.82-2.2-2.23-.8-1.4-.8-3.05 0-2.6 1.85-4.38 1.87-1.78 4.6-1.78 1.88 0 4.18.98v1.84q-2.1-1.2-4.1-1.2-2.05 0-3.4 1.3-1.36 1.3-1.36 3.24 0 1.97 1.34 3.23 1.33 1.27 3.4 1.27 2.18 0 4.25-1.34z"
       style="line-height:125%;-inkscape-font-specification:'Gill Sans MT, Normal';text-align:start"
       font-family="Gill Sans MT"
       letter-spacing="0"
       word-spacing="0"
       id="path122" />
    <path
       fill="#404030"
       d="M147.17 906.57q1.8 0 2.98 1.17 1.2 1.15 1.2 2.9 0 1.7-1.2 2.83-1.22 1.12-3.05 1.12-1.77 0-2.95-1.15-1.2-1.14-1.2-2.85 0-1.73 1.2-2.87 1.2-1.16 3.02-1.16zm-.08 1.4q-1.13 0-1.85.74-.72.75-.72 1.88t.74 1.85q.73.7 1.88.7t1.87-.7q.74-.74.74-1.86t-.76-1.86q-.76-.72-1.9-.72z"
       style="line-height:125%;-inkscape-font-specification:'Gill Sans MT, Normal';text-align:start"
       font-family="Gill Sans MT"
       letter-spacing="0"
       word-spacing="0"
       id="path124" />
    <path
       fill="#404030"
       d="M159.53 908.75v5.7h-1.57v-4.37q0-1.3-.35-1.82-.34-.52-1.2-.52-.5 0-.9.22t-.93.8v5.7h-1.55v-7.87h1.55v1.03q1.2-1.2 2.32-1.2 1.5 0 2.3 1.43 1.26-1.44 2.62-1.44 1.14 0 1.88.84t.74 2.55v4.65h-1.56v-4.65q0-1-.4-1.5-.4-.53-1.15-.53-.97 0-1.8.98z"
       style="line-height:125%;-inkscape-font-specification:'Gill Sans MT, Normal';text-align:start"
       font-family="Gill Sans MT"
       letter-spacing="0"
       word-spacing="0"
       id="path126" />
    <path
       fill="#404030"
       d="M173.03 908.75v5.7h-1.57v-4.37q0-1.3-.35-1.82-.34-.52-1.2-.52-.5 0-.9.22t-.93.8v5.7h-1.55v-7.87h1.55v1.03q1.2-1.2 2.33-1.2 1.5 0 2.3 1.43 1.26-1.44 2.62-1.44 1.14 0 1.88.84t.74 2.55v4.65h-1.55v-4.65q0-1-.42-1.5-.4-.53-1.15-.53-.96 0-1.8.98z"
       style="line-height:125%;-inkscape-font-specification:'Gill Sans MT, Normal';text-align:start"
       font-family="Gill Sans MT"
       letter-spacing="0"
       word-spacing="0"
       id="path128" />
    <path
       fill="#404030"
       d="M180.9 903.3q.37 0 .65.25.27.26.27.65 0 .38-.27.65-.28.27-.66.27-.37 0-.64-.27-.28-.28-.28-.65 0-.36.28-.63.27-.28.63-.28zm-.78 3.3h1.56v7.85h-1.56v-7.86z"
       style="line-height:125%;-inkscape-font-specification:'Gill Sans MT, Normal';text-align:start"
       font-family="Gill Sans MT"
       letter-spacing="0"
       word-spacing="0"
       id="path130" />
    <path
       fill="#404030"
       d="M182.8 907.84l2.93-2.87v1.62h2.5v1.4h-2.5v3.85q0 1.35 1.12 1.35.84 0 1.77-.57v1.46q-.9.5-1.95.5-1.07 0-1.78-.63-.23-.2-.38-.42-.14-.24-.25-.62-.1-.38-.1-1.45v-3.5h-1.36v-.14z"
       style="line-height:125%;-inkscape-font-specification:'Gill Sans MT, Normal';text-align:start"
       font-family="Gill Sans MT"
       letter-spacing="0"
       word-spacing="0"
       id="path132" />
    <rect
       width="20"
       height="20"
       x="212.689"
       y="919.59"
       fill="#f05133"
       rx="5"
       ry="5"
       id="rect134" />
    <path
       fill="#fff"
       d="M225.26 929.98H220v5.58h1.92q.15 0 .22.17.08.16.1.37.03.2-.04.37-.06.15-.2.15h-4.88q-.15 0-.24-.15-.06-.17-.06-.37.02-.2.1-.37.1-.17.3-.17h1.1v-11.94h-1.57q-.15 0-.24-.15-.05-.18-.05-.37 0-.22.06-.37.08-.17.25-.17h4.28q.17 0 .26.17.08.15.08.37 0 .2-.1.37-.08.15-.23.15H220v5.34h5.26v-5.34h-1.58q-.18 0-.26-.15-.07-.18-.07-.37 0-.22.07-.37.08-.17.24-.17h4.36q.17 0 .26.17.1.15.06.37 0 .2-.1.37-.1.15-.26.15h-1.02v11.94h1.64q.16 0 .24.17.1.16.1.37 0 .2-.1.37-.06.15-.2.15h-4.72q-.18 0-.24-.15-.07-.17-.07-.37.03-.2.12-.37.1-.17.24-.17h1.3v-5.58z"
       style="line-height:125%;-inkscape-font-specification:'Triplicate T4c, Normal';text-align:start"
       font-family="Triplicate T4c"
       letter-spacing="0"
       word-spacing="0"
       id="path136" />
    <path
       fill="none"
       stroke="#f05133"
       d="M222.17 952.6H203.5"
       stroke-linecap="square"
       id="path138" />
    <path
       fill="none"
       stroke="#f05133"
       d="M222.7 938.16v14.43"
       stroke-linecap="square"
       id="path140" />
    <path
       fill="#404030"
       d="M49.44 970.46q.2 0 .34.13.14.12.14.3 0 .2-.14.32-.14.14-.34.14-.18 0-.32-.14-.14-.13-.14-.3 0-.2.14-.32.14-.14.32-.14zm-.4 1.6h.8v3.83h-.8v-3.83z"
       style="line-height:125%;-inkscape-font-specification:'Gill Sans MT, Normal';text-align:start"
       font-family="Gill Sans MT"
       letter-spacing="0"
       word-spacing="0"
       id="path142" />
    <path
       fill="#404030"
       d="M51.8 972.07v.5q.53-.57 1.2-.57.4 0 .72.18.32.2.5.5.16.33.16 1.03v2.2h-.8v-2.18q0-.6-.2-.84-.18-.25-.62-.25-.57 0-.96.53v2.73h-.82v-3.83h.82z"
       style="line-height:125%;-inkscape-font-specification:'Gill Sans MT, Normal';text-align:start"
       font-family="Gill Sans MT"
       letter-spacing="0"
       word-spacing="0"
       id="path144" />
    <path
       fill="#404030"
       d="M58.2 970.1h.8v5.8h-1.7q-.9 0-1.44-.54-.53-.54-.53-1.44 0-.84.55-1.4.57-.53 1.44-.53.4 0 .88.15v-2.06zm0 5.14v-2.42q-.38-.18-.76-.18-.6 0-.95.37-.36.38-.36 1 0 .6.3.92.2.2.4.26t.74.06h.62z"
       style="line-height:125%;-inkscape-font-specification:'Gill Sans MT, Normal';text-align:start"
       font-family="Gill Sans MT"
       letter-spacing="0"
       word-spacing="0"
       id="path146" />
    <path
       fill="#404030"
       d="M63.53 974.05H60.7q.02.55.38.87.36.32.92.32.8 0 1.46-.46v.74q-.37.23-.73.33t-.85.1q-.67 0-1.08-.26-.4-.27-.67-.7-.24-.46-.24-1.04 0-.87.5-1.42.53-.54 1.37-.54.8 0 1.28.53t.48 1.42v.1zm-2.82-.45h2.04q-.03-.46-.28-.7-.26-.25-.7-.25-.42 0-.7.25-.27.24-.35.7z"
       style="line-height:125%;-inkscape-font-specification:'Gill Sans MT, Normal';text-align:start"
       font-family="Gill Sans MT"
       letter-spacing="0"
       word-spacing="0"
       id="path148" />
    <path
       fill="#404030"
       d="M67.18 972.07h1.03l-1.66 1.88 1.8 1.94H67.3l-1.27-1.38-1.2 1.37h-1l1.7-1.95-1.7-1.88h1l1.2 1.3 1.15-1.3z"
       style="line-height:125%;-inkscape-font-specification:'Gill Sans MT, Normal';text-align:start"
       font-family="Gill Sans MT"
       letter-spacing="0"
       word-spacing="0"
       id="path150" />
    <path
       fill="#404030"
       d="M69.3 974.97q.23 0 .4.14.15.16.15.37 0 .2-.16.35-.16.14-.4.14-.22 0-.37-.14t-.15-.35q0-.2.15-.36.15-.13.38-.13z"
       style="line-height:125%;-inkscape-font-specification:'Gill Sans MT, Normal';text-align:start"
       font-family="Gill Sans MT"
       letter-spacing="0"
       word-spacing="0"
       id="path152" />
    <path
       fill="#404030"
       d="M70.85 970.1h.8v2.47q.5-.57 1.24-.57.4 0 .7.2.34.18.5.5.15.35.15 1.02v2.17h-.8v-2.37q0-.42-.22-.67-.22-.26-.57-.26-.27 0-.5.13-.23.13-.5.43v2.73h-.8v-5.8z"
       style="line-height:125%;-inkscape-font-specification:'Gill Sans MT, Normal';text-align:start"
       font-family="Gill Sans MT"
       letter-spacing="0"
       word-spacing="0"
       id="path154" />
    <path
       fill="#404030"
       d="M74.8 972.68l1.5-1.4v.8h1.28v.67H76.3v1.88q0 .65.58.65.43 0 .9-.27v.7q-.46.26-1 .26-.55 0-.9-.3-.13-.1-.2-.2-.08-.12-.13-.3-.05-.2-.05-.7v-1.7h-.7v-.08z"
       style="line-height:125%;-inkscape-font-specification:'Gill Sans MT, Normal';text-align:start"
       font-family="Gill Sans MT"
       letter-spacing="0"
       word-spacing="0"
       id="path156" />
    <path
       fill="#404030"
       d="M81.68 973.12v2.77h-.8v-2.13q0-.64-.18-.9-.18-.24-.63-.24-.25 0-.46.1-.2.1-.46.4v2.76h-.8v-3.83h.8v.5q.6-.57 1.2-.57.76 0 1.18.7.64-.7 1.34-.7.6 0 .97.4.38.4.38 1.24v2.25h-.8v-2.27q0-.48-.2-.73-.2-.26-.6-.26-.48 0-.92.48z"
       style="line-height:125%;-inkscape-font-specification:'Gill Sans MT, Normal';text-align:start"
       font-family="Gill Sans MT"
       letter-spacing="0"
       word-spacing="0"
       id="path158" />
    <path
       fill="#404030"
       d="M85.33 970.1h.8v5.8h-.8v-5.8z"
       style="line-height:125%;-inkscape-font-specification:'Gill Sans MT, Normal';text-align:start"
       font-family="Gill Sans MT"
       letter-spacing="0"
       word-spacing="0"
       id="path160" />
    <path
       fill="#404030"
       d="M92.32 973.6v1.62q0 .2.14.2.15 0 .45-.2v.45q-.26.17-.43.23-.16.06-.34.06-.5 0-.6-.38-.5.37-1.1.37-.4 0-.7-.26-.27-.28-.27-.68 0-.36.27-.64.27-.3.78-.45l1.03-.33v-.2q0-.7-.73-.7-.65 0-1.27.64v-.82q.47-.52 1.34-.52.66 0 1.05.32.13.1.24.28.1.17.13.34.02.17.02.66zm-.8 1.54V974l-.52.2q-.4.15-.58.3-.17.16-.17.4 0 .23.16.38.17.15.43.15.38 0 .7-.3z"
       style="line-height:125%;-inkscape-font-specification:'Gill Sans MT, Normal';text-align:start"
       font-family="Gill Sans MT"
       letter-spacing="0"
       word-spacing="0"
       id="path162" />
    <path
       fill="#404030"
       d="M96.33 970.1h.8v5.8h-1.7q-.9 0-1.44-.54-.54-.54-.54-1.44 0-.84.56-1.4.56-.53 1.43-.53.4 0 .88.15v-2.06zm0 5.14v-2.42q-.37-.18-.76-.18-.6 0-.95.37-.35.38-.35 1 0 .6.3.92.2.2.4.26t.74.06h.63z"
       style="line-height:125%;-inkscape-font-specification:'Gill Sans MT, Normal';text-align:start"
       font-family="Gill Sans MT"
       letter-spacing="0"
       word-spacing="0"
       id="path164" />
    <path
       fill="#404030"
       d="M100.84 970.1h.8v5.8h-1.7q-.9 0-1.44-.54-.53-.54-.53-1.44 0-.84.56-1.4.56-.53 1.43-.53.4 0 .88.15v-2.06zm0 5.14v-2.42q-.37-.18-.76-.18-.6 0-.95.37-.35.38-.35 1 0 .6.3.92.2.2.4.26t.74.06h.62z"
       style="line-height:125%;-inkscape-font-specification:'Gill Sans MT, Normal';text-align:start"
       font-family="Gill Sans MT"
       letter-spacing="0"
       word-spacing="0"
       id="path166" />
    <path
       fill="#404030"
       d="M106.18 974.05h-2.84q.03.55.4.87.35.32.9.32.8 0 1.47-.46v.74q-.36.23-.72.33t-.85.1q-.67 0-1.08-.26-.4-.27-.66-.7-.26-.46-.26-1.04 0-.87.52-1.42.53-.54 1.36-.54.8 0 1.28.53t.48 1.42v.1zm-2.82-.45h2.03q-.04-.46-.3-.7-.25-.25-.68-.25-.43 0-.7.25-.28.24-.36.7z"
       style="line-height:125%;-inkscape-font-specification:'Gill Sans MT, Normal';text-align:start"
       font-family="Gill Sans MT"
       letter-spacing="0"
       word-spacing="0"
       id="path168" />
    <path
       fill="#404030"
       d="M109.74 970.1h.8v5.8h-1.7q-.9 0-1.43-.54-.53-.54-.53-1.44 0-.84.56-1.4.56-.53 1.43-.53.4 0 .88.15v-2.06zm0 5.14v-2.42q-.37-.18-.75-.18-.6 0-.97.37-.35.38-.35 1 0 .6.3.92.2.2.4.26t.74.06h.62z"
       style="line-height:125%;-inkscape-font-specification:'Gill Sans MT, Normal';text-align:start"
       font-family="Gill Sans MT"
       letter-spacing="0"
       word-spacing="0"
       id="path170" />
    <path
       fill="#404030"
       d="M48.83 986.25v-.8q.34.2.7.35.35.14.6.14.24 0 .42-.12.18-.1.18-.28 0-.16-.12-.27-.1-.1-.5-.32-.76-.4-1-.7-.24-.28-.24-.62 0-.45.36-.72.36-.27.93-.27.6 0 1.22.3v.76q-.7-.42-1.16-.42-.23 0-.37.1-.14.1-.14.25 0 .13.1.25.15.12.47.3l.3.14q1 .54 1 1.2 0 .47-.4.77-.38.3-1 .3-.35 0-.63-.08-.28-.07-.7-.27z"
       style="line-height:125%;-inkscape-font-specification:'Gill Sans MT, Normal';text-align:start"
       font-family="Gill Sans MT"
       letter-spacing="0"
       word-spacing="0"
       id="path172" />
    <path
       fill="#404030"
       d="M51.92 983.3l1.5-1.4v.8h1.3v.68h-1.3v1.88q0 .65.58.65.43 0 .9-.26v.7q-.45.25-1 .25-.54 0-.9-.3-.12-.1-.2-.22-.07-.1-.12-.3-.05-.18-.05-.7v-1.7h-.7v-.07z"
       style="line-height:125%;-inkscape-font-specification:'Gill Sans MT, Normal';text-align:start"
       font-family="Gill Sans MT"
       letter-spacing="0"
       word-spacing="0"
       id="path174" />
    <path
       fill="#404030"
       d="M57.97 982.7h.9L56 988.47h-.88l1.38-2.76-1.57-3h.9l1.1 2.16 1.04-2.16z"
       style="line-height:125%;-inkscape-font-specification:'Gill Sans MT, Normal';text-align:start"
       font-family="Gill Sans MT"
       letter-spacing="0"
       word-spacing="0"
       id="path176" />
    <path
       fill="#404030"
       d="M59.45 980.72h.8v5.8h-.8v-5.8z"
       style="line-height:125%;-inkscape-font-specification:'Gill Sans MT, Normal';text-align:start"
       font-family="Gill Sans MT"
       letter-spacing="0"
       word-spacing="0"
       id="path178" />
    <path
       fill="#404030"
       d="M64.85 984.68H62q.04.55.4.87.35.33.92.33.8 0 1.46-.47v.75q-.37.23-.73.33t-.85.1q-.67 0-1.08-.26-.42-.26-.67-.7-.24-.45-.24-1.03 0-.88.53-1.42.52-.55 1.36-.55.8 0 1.27.53.48.53.48 1.42v.1zm-2.83-.45h2.04q-.03-.46-.3-.7-.24-.25-.67-.25-.44 0-.72.25-.27.24-.36.7z"
       style="line-height:125%;-inkscape-font-specification:'Gill Sans MT, Normal';text-align:start"
       font-family="Gill Sans MT"
       letter-spacing="0"
       word-spacing="0"
       id="path180" />
    <path
       fill="#404030"
       d="M66.3 985.6q.23 0 .38.14.16.15.16.36 0 .2-.16.35-.15.14-.38.14-.22 0-.38-.15-.15-.14-.15-.35 0-.2.15-.36.16-.14.38-.14z"
       style="line-height:125%;-inkscape-font-specification:'Gill Sans MT, Normal';text-align:start"
       font-family="Gill Sans MT"
       letter-spacing="0"
       word-spacing="0"
       id="path182" />
    <path
       fill="#404030"
       d="M70.9 985.63v.75q-.6.2-1.2.2-.94 0-1.5-.52-.57-.53-.57-1.43 0-.9.55-1.45.55-.55 1.45-.55.3 0 .56.06.24.04.6.2v.8q-.6-.37-1.12-.37-.54 0-.9.37-.34.35-.34.9 0 .6.38.94.37.34 1 .34.47 0 1.07-.25z"
       style="line-height:125%;-inkscape-font-specification:'Gill Sans MT, Normal';text-align:start"
       font-family="Gill Sans MT"
       letter-spacing="0"
       word-spacing="0"
       id="path184" />
    <path
       fill="#404030"
       d="M71.6 986.25v-.8q.34.2.7.35.34.14.6.14.24 0 .42-.12.18-.1.18-.28 0-.16-.12-.27-.12-.1-.5-.32-.78-.4-1.02-.7-.24-.28-.24-.62 0-.45.36-.72.37-.27.94-.27.6 0 1.22.3v.76q-.7-.42-1.17-.42-.23 0-.37.1-.15.1-.15.25 0 .13.13.25t.46.3l.28.14q1.02.54 1.02 1.2 0 .47-.4.77-.38.3-1 .3-.35 0-.63-.08-.28-.07-.7-.27z"
       style="line-height:125%;-inkscape-font-specification:'Gill Sans MT, Normal';text-align:start"
       font-family="Gill Sans MT"
       letter-spacing="0"
       word-spacing="0"
       id="path186" />
    <path
       fill="#404030"
       d="M75.06 986.25v-.8q.34.2.7.35.35.14.6.14.24 0 .42-.12.18-.1.18-.28 0-.16-.12-.27-.1-.1-.5-.32-.77-.4-1.02-.7-.23-.28-.23-.62 0-.45.35-.72.36-.27.93-.27.6 0 1.22.3v.76q-.7-.42-1.16-.42-.24 0-.38.1t-.14.25q0 .13.13.25t.45.3l.3.14q1 .54 1 1.2 0 .47-.4.77-.38.3-1 .3-.35 0-.63-.08-.28-.07-.7-.27z"
       style="line-height:125%;-inkscape-font-specification:'Gill Sans MT, Normal';text-align:start"
       font-family="Gill Sans MT"
       letter-spacing="0"
       word-spacing="0"
       id="path188" />
    <path
       fill="#404030"
       d="M83.76 984.23v1.62q0 .2.14.2t.45-.2v.45q-.27.17-.44.23-.15.06-.33.06-.5 0-.6-.4-.52.38-1.1.38-.4 0-.7-.26-.28-.27-.28-.66 0-.37.27-.65.27-.27.78-.44l1.02-.33v-.2q0-.7-.73-.7-.65 0-1.27.64v-.82q.46-.52 1.34-.52.66 0 1.06.32.13.1.24.28.1.17.13.35.03.17.03.65zm-.8 1.54v-1.14l-.52.2q-.4.15-.58.3-.17.16-.17.4 0 .23.15.38.16.16.4.16.4 0 .72-.3z"
       style="line-height:125%;-inkscape-font-specification:'Gill Sans MT, Normal';text-align:start"
       font-family="Gill Sans MT"
       letter-spacing="0"
       word-spacing="0"
       id="path190" />
    <path
       fill="#404030"
       d="M87.77 980.72h.8v5.8h-1.7q-.9 0-1.44-.53-.53-.55-.53-1.45 0-.84.56-1.4.56-.53 1.43-.53.4 0 .87.16v-2.06zm0 5.16v-2.43q-.38-.17-.76-.17-.6 0-.94.37-.35.37-.35 1 0 .58.3.9.2.2.4.26.2.08.75.08h.62z"
       style="line-height:125%;-inkscape-font-specification:'Gill Sans MT, Normal';text-align:start"
       font-family="Gill Sans MT"
       letter-spacing="0"
       word-spacing="0"
       id="path192" />
    <path
       fill="#404030"
       d="M92.28 980.72h.8v5.8h-1.7q-.9 0-1.44-.53-.53-.55-.53-1.45 0-.84.57-1.4.56-.53 1.43-.53.4 0 .88.16v-2.06zm0 5.16v-2.43q-.38-.17-.76-.17-.6 0-.95.37t-.35 1q0 .58.3.9.2.2.4.26.2.08.74.08h.62z"
       style="line-height:125%;-inkscape-font-specification:'Gill Sans MT, Normal';text-align:start"
       font-family="Gill Sans MT"
       letter-spacing="0"
       word-spacing="0"
       id="path194" />
    <path
       fill="#404030"
       d="M97.62 984.68h-2.84q.03.55.38.87.36.33.93.33.78 0 1.45-.47v.75q-.37.23-.73.33t-.85.1q-.67 0-1.08-.26-.43-.26-.68-.7-.24-.45-.24-1.03 0-.88.52-1.42.52-.55 1.36-.55.8 0 1.28.53t.48 1.42v.1zm-2.82-.45h2.03q-.03-.46-.3-.7-.24-.25-.67-.25-.43 0-.7.25-.28.24-.36.7z"
       style="line-height:125%;-inkscape-font-specification:'Gill Sans MT, Normal';text-align:start"
       font-family="Gill Sans MT"
       letter-spacing="0"
       word-spacing="0"
       id="path196" />
    <path
       fill="#404030"
       d="M101.18 980.72h.8v5.8h-1.7q-.9 0-1.44-.53-.53-.55-.53-1.45 0-.84.57-1.4.56-.53 1.43-.53.4 0 .88.16v-2.06zm0 5.16v-2.43q-.37-.17-.75-.17-.6 0-.96.37-.35.37-.35 1 0 .58.3.9.2.2.4.26.2.08.74.08h.62z"
       style="line-height:125%;-inkscape-font-specification:'Gill Sans MT, Normal';text-align:start"
       font-family="Gill Sans MT"
       letter-spacing="0"
       word-spacing="0"
       id="path198" />
    <path
       fill="#404030"
       d="M49.05 991.35h.8v5.8h-.8v-5.8z"
       style="line-height:125%;-inkscape-font-specification:'Gill Sans MT, Normal';text-align:start"
       font-family="Gill Sans MT"
       letter-spacing="0"
       word-spacing="0"
       id="path200" />
    <path
       fill="#404030"
       d="M52.93 993.33q.92 0 1.53.56.62.55.62 1.4 0 .83-.62 1.38-.62.54-1.56.54-.9 0-1.53-.55-.6-.56-.6-1.4 0-.83.6-1.38.63-.57 1.56-.57zm-.04.68q-.6 0-.96.37-.37.35-.37.9t.38.9q.38.35.97.35.6 0 .96-.35.38-.36.38-.9 0-.55-.4-.9-.38-.36-.97-.36z"
       style="line-height:125%;-inkscape-font-specification:'Gill Sans MT, Normal';text-align:start"
       font-family="Gill Sans MT"
       letter-spacing="0"
       word-spacing="0"
       id="path202" />
    <path
       fill="#404030"
       d="M55.77 994.66q0-.6.47-.97.47-.36 1.3-.36h1.65v.58h-.82q.23.23.33.42.1.2.1.43 0 .3-.18.6-.18.27-.47.43-.28.15-.93.24-.45.07-.45.3 0 .13.17.22.17.08.6.17.76.16.97.24.22.1.4.25.3.28.3.7 0 .54-.53.86-.5.32-1.37.32-.86 0-1.38-.32-.5-.33-.5-.88 0-.77 1-1-.4-.24-.4-.48 0-.2.17-.34.16-.15.46-.22-.9-.37-.9-1.2zm1.5-.67q-.33 0-.55.2-.23.2-.23.5t.2.5q.23.18.58.18.34 0 .56-.2.23-.2.23-.5t-.23-.5q-.23-.2-.57-.2zm-.2 3.33q-.4 0-.65.17-.26.16-.26.4 0 .6 1.13.6.52 0 .8-.15.3-.14.3-.4 0-.28-.37-.45-.37-.17-.95-.17z"
       style="line-height:125%;-inkscape-font-specification:'Gill Sans MT, Normal';text-align:start"
       font-family="Gill Sans MT"
       letter-spacing="0"
       word-spacing="0"
       id="path204" />
    <path
       fill="#404030"
       d="M61.68 993.33q.92 0 1.53.56.62.55.62 1.4 0 .83-.62 1.38-.62.54-1.56.54-.9 0-1.52-.55-.6-.56-.6-1.4 0-.83.6-1.38.63-.57 1.56-.57zm-.05.68q-.57 0-.94.37-.38.35-.38.9t.38.9q.38.35.97.35.6 0 .96-.35.38-.36.38-.9 0-.55-.38-.9-.4-.36-1-.36z"
       style="line-height:125%;-inkscape-font-specification:'Gill Sans MT, Normal';text-align:start"
       font-family="Gill Sans MT"
       letter-spacing="0"
       word-spacing="0"
       id="path206" />
    <path
       fill="#404030"
       d="M64.87 996.23q.22 0 .38.15.16.14.16.35 0 .2-.15.35-.15.14-.38.14t-.38-.14q-.16-.14-.16-.35 0-.2.15-.35.14-.15.37-.15z"
       style="line-height:125%;-inkscape-font-specification:'Gill Sans MT, Normal';text-align:start"
       font-family="Gill Sans MT"
       letter-spacing="0"
       word-spacing="0"
       id="path208" />
    <path
       fill="#404030"
       d="M66.38 999.1v-5.76h1.4q1.08 0 1.68.5.6.5.6 1.42 0 .86-.57 1.4-.57.56-1.45.56-.38 0-.85-.16v2.04h-.82zm1.38-5.06h-.56v2.35q.37.17.77.17.56 0 .92-.37.35-.37.35-.95 0-.37-.17-.66-.17-.3-.46-.43-.3-.13-.86-.13z"
       style="line-height:125%;-inkscape-font-specification:'Gill Sans MT, Normal';text-align:start"
       font-family="Gill Sans MT"
       letter-spacing="0"
       word-spacing="0"
       id="path210" />
    <path
       fill="#404030"
       d="M71.73 993.34v.48q.54-.56 1.22-.56.38 0 .7.2.33.17.5.5.17.3.17 1v2.2h-.8v-2.18q0-.6-.2-.84-.18-.25-.62-.25-.57 0-.97.53v2.73h-.8v-3.82h.8z"
       style="line-height:125%;-inkscape-font-specification:'Gill Sans MT, Normal';text-align:start"
       font-family="Gill Sans MT"
       letter-spacing="0"
       word-spacing="0"
       id="path212" />
    <path
       fill="#404030"
       d="M75.23 994.66q0-.6.47-.97.47-.36 1.3-.36h1.66v.58h-.82q.24.23.33.42.1.2.1.43 0 .3-.2.6-.17.27-.46.43-.27.15-.9.24-.47.07-.47.3 0 .13.17.22.17.08.62.17.74.16.95.24.22.1.4.25.28.28.28.7 0 .54-.52.86-.5.32-1.36.32-.87 0-1.4-.32-.5-.33-.5-.88 0-.77 1-1-.4-.24-.4-.48 0-.2.18-.34.18-.15.47-.22-.9-.37-.9-1.2zm1.5-.67q-.32 0-.55.2-.23.2-.23.5t.22.5q.23.18.57.18.34 0 .56-.2.23-.2.23-.5t-.23-.5q-.23-.2-.57-.2zm-.2 3.33q-.4 0-.65.17-.26.16-.26.4 0 .6 1.13.6.53 0 .82-.15.3-.14.3-.4 0-.28-.37-.45-.37-.17-.96-.17z"
       style="line-height:125%;-inkscape-font-specification:'Gill Sans MT, Normal';text-align:start"
       font-family="Gill Sans MT"
       letter-spacing="0"
       word-spacing="0"
       id="path214" />
    <path
       fill="#404030"
       d="M84.32 994.86v1.62q0 .2.14.2.15 0 .45-.2v.46q-.26.16-.42.22-.17.06-.35.06-.5 0-.6-.38-.5.37-1.1.37-.4 0-.7-.25-.27-.26-.27-.66 0-.37.27-.66.28-.28.78-.45l1.03-.34v-.2q0-.7-.72-.7-.65 0-1.27.65v-.82q.47-.52 1.34-.52.66 0 1.05.32.13.1.24.28.1.17.13.35.02.18.02.66zm-.8 1.54v-1.13l-.52.2q-.4.15-.58.3-.17.16-.17.4 0 .23.16.38.17.14.43.14.38 0 .7-.3z"
       style="line-height:125%;-inkscape-font-specification:'Gill Sans MT, Normal';text-align:start"
       font-family="Gill Sans MT"
       letter-spacing="0"
       word-spacing="0"
       id="path216" />
    <path
       fill="#404030"
       d="M88.33 991.35h.8v5.8h-1.7q-.9 0-1.44-.53-.54-.54-.54-1.44 0-.84.56-1.38.56-.55 1.43-.55.4 0 .88.16v-2.05zm0 5.16v-2.4q-.37-.2-.76-.2-.6 0-.95.38-.35.37-.35 1 0 .58.3.9.2.2.4.26.2.07.74.07h.63z"
       style="line-height:125%;-inkscape-font-specification:'Gill Sans MT, Normal';text-align:start"
       font-family="Gill Sans MT"
       letter-spacing="0"
       word-spacing="0"
       id="path218" />
    <path
       fill="#404030"
       d="M92.84 991.35h.8v5.8h-1.7q-.9 0-1.44-.53-.53-.54-.53-1.44 0-.84.56-1.38.56-.55 1.43-.55.4 0 .88.16v-2.05zm0 5.16v-2.4q-.37-.2-.76-.2-.6 0-.95.38-.35.37-.35 1 0 .58.3.9.2.2.4.26.2.07.74.07h.62z"
       style="line-height:125%;-inkscape-font-specification:'Gill Sans MT, Normal';text-align:start"
       font-family="Gill Sans MT"
       letter-spacing="0"
       word-spacing="0"
       id="path220" />
    <path
       fill="#404030"
       d="M98.18 995.3h-2.84q.03.56.4.88.35.33.9.33.8 0 1.47-.46v.74q-.36.23-.72.33t-.85.1q-.67 0-1.08-.25-.4-.26-.66-.7-.26-.44-.26-1.03 0-.87.52-1.4.53-.56 1.36-.56.8 0 1.28.53.48.52.48 1.42v.1zm-2.82-.44h2.03q-.04-.45-.3-.7-.25-.24-.68-.24-.43 0-.7.24-.28.25-.36.7z"
       style="line-height:125%;-inkscape-font-specification:'Gill Sans MT, Normal';text-align:start"
       font-family="Gill Sans MT"
       letter-spacing="0"
       word-spacing="0"
       id="path222" />
    <path
       fill="#404030"
       d="M101.74 991.35h.8v5.8h-1.7q-.9 0-1.43-.53-.53-.54-.53-1.44 0-.84.56-1.38.56-.55 1.44-.55.4 0 .87.16v-2.05zm0 5.16v-2.4q-.37-.2-.75-.2-.6 0-.97.38-.35.37-.35 1 0 .58.3.9.2.2.4.26.2.07.74.07h.62z"
       style="line-height:125%;-inkscape-font-specification:'Gill Sans MT, Normal';text-align:start"
       font-family="Gill Sans MT"
       letter-spacing="0"
       word-spacing="0"
       id="path224" />
    <rect
       width="74"
       height="39.5"
       x="42.689"
       y="965.09"
       fill="none"
       stroke="#ddd"
       rx="4"
       ry="4"
       stroke-linecap="round"
       stroke-linejoin="round"
       id="rect226" />
    <path
       fill="#404030"
       d="M125.53 969.96q.2 0 .34.13.14.12.14.3 0 .2-.13.32-.15.14-.34.14-.2 0-.33-.14-.14-.13-.14-.3 0-.2.14-.32.14-.14.33-.14zm-.4 1.6h.8v3.83h-.8v-3.83z"
       style="line-height:125%;-inkscape-font-specification:'Gill Sans MT, Normal';text-align:start"
       font-family="Gill Sans MT"
       letter-spacing="0"
       word-spacing="0"
       id="path228" />
    <path
       fill="#404030"
       d="M127.88 971.57v.5q.54-.57 1.22-.57.38 0 .7.18.33.2.5.5.17.33.17 1.03v2.2h-.8v-2.18q0-.6-.2-.84-.18-.25-.62-.25-.57 0-.97.53v2.73h-.8v-3.83h.8z"
       style="line-height:125%;-inkscape-font-specification:'Gill Sans MT, Normal';text-align:start"
       font-family="Gill Sans MT"
       letter-spacing="0"
       word-spacing="0"
       id="path230" />
    <path
       fill="#404030"
       d="M134.28 969.6h.8v5.8h-1.7q-.9 0-1.44-.54-.53-.54-.53-1.44 0-.84.57-1.4.56-.53 1.43-.53.4 0 .88.15v-2.06zm0 5.14v-2.42q-.37-.18-.75-.18-.6 0-.96.37-.35.38-.35 1 0 .6.3.92.2.2.4.26t.74.06h.62z"
       style="line-height:125%;-inkscape-font-specification:'Gill Sans MT, Normal';text-align:start"
       font-family="Gill Sans MT"
       letter-spacing="0"
       word-spacing="0"
       id="path232" />
    <path
       fill="#404030"
       d="M139.62 973.55h-2.85q.04.55.4.87.35.32.92.32.78 0 1.45-.46v.74q-.37.23-.74.33-.35.1-.83.1-.67 0-1.1-.26-.4-.27-.65-.7-.25-.46-.25-1.04 0-.87.53-1.42.52-.54 1.36-.54.8 0 1.28.53t.48 1.42v.1zm-2.83-.45h2.03q-.03-.46-.3-.7-.24-.25-.67-.25-.43 0-.7.25-.28.24-.37.7z"
       style="line-height:125%;-inkscape-font-specification:'Gill Sans MT, Normal';text-align:start"
       font-family="Gill Sans MT"
       letter-spacing="0"
       word-spacing="0"
       id="path234" />
    <path
       fill="#404030"
       d="M143.27 971.57h1.02l-1.67 1.88 1.78 1.94h-1L142.1 974l-1.2 1.37h-1l1.7-1.95-1.7-1.88h1l1.2 1.3 1.15-1.3z"
       style="line-height:125%;-inkscape-font-specification:'Gill Sans MT, Normal';text-align:start"
       font-family="Gill Sans MT"
       letter-spacing="0"
       word-spacing="0"
       id="path236" />
    <path
       fill="#404030"
       d="M145.4 974.47q.22 0 .38.14.15.16.15.37 0 .2-.15.35-.16.14-.4.14-.2 0-.36-.14-.16-.14-.16-.35 0-.2.16-.36.15-.13.37-.13z"
       style="line-height:125%;-inkscape-font-specification:'Gill Sans MT, Normal';text-align:start"
       font-family="Gill Sans MT"
       letter-spacing="0"
       word-spacing="0"
       id="path238" />
    <path
       fill="#404030"
       d="M146.93 969.6h.8v2.47q.5-.57 1.25-.57.4 0 .72.2.32.18.48.5.15.35.15 1.02v2.17h-.8v-2.37q0-.42-.22-.67-.2-.26-.56-.26-.26 0-.5.13-.23.13-.5.42v2.74h-.8v-5.8z"
       style="line-height:125%;-inkscape-font-specification:'Gill Sans MT, Normal';text-align:start"
       font-family="Gill Sans MT"
       letter-spacing="0"
       word-spacing="0"
       id="path240" />
    <path
       fill="#404030"
       d="M150.88 972.18l1.5-1.4v.8h1.3v.67h-1.3v1.88q0 .65.58.65.43 0 .9-.27v.7q-.45.26-1 .26-.54 0-.9-.3-.12-.1-.2-.2-.07-.12-.13-.3-.04-.2-.04-.7v-1.7h-.72v-.08z"
       style="line-height:125%;-inkscape-font-specification:'Gill Sans MT, Normal';text-align:start"
       font-family="Gill Sans MT"
       letter-spacing="0"
       word-spacing="0"
       id="path242" />
    <path
       fill="#404030"
       d="M157.77 972.62v2.77h-.8v-2.13q0-.64-.18-.9-.2-.24-.64-.24-.25 0-.46.1-.2.1-.48.4v2.76h-.8v-3.83h.8v.5q.6-.57 1.2-.57.77 0 1.2.7.63-.7 1.33-.7.6 0 .97.4.38.4.38 1.24v2.25h-.8v-2.27q0-.48-.2-.73-.22-.26-.6-.26-.5 0-.93.48z"
       style="line-height:125%;-inkscape-font-specification:'Gill Sans MT, Normal';text-align:start"
       font-family="Gill Sans MT"
       letter-spacing="0"
       word-spacing="0"
       id="path244" />
    <path
       fill="#404030"
       d="M161.42 969.6h.8v5.8h-.8v-5.8z"
       style="line-height:125%;-inkscape-font-specification:'Gill Sans MT, Normal';text-align:start"
       font-family="Gill Sans MT"
       letter-spacing="0"
       word-spacing="0"
       id="path246" />
    <path
       fill="#404030"
       d="M168.9 974.5v.75q-.6.2-1.18.2-.95 0-1.52-.52-.56-.53-.56-1.43 0-.9.55-1.45.54-.55 1.44-.55.3 0 .56.05.25.06.6.2v.82q-.6-.37-1.1-.37-.55 0-.9.36t-.35.92q0 .58.37.93.38.35 1.02.35.46 0 1.06-.25z"
       style="line-height:125%;-inkscape-font-specification:'Gill Sans MT, Normal';text-align:start"
       font-family="Gill Sans MT"
       letter-spacing="0"
       word-spacing="0"
       id="path248" />
    <path
       fill="#404030"
       d="M169.8 969.6h.8v2.47q.5-.57 1.23-.57.4 0 .73.2.32.18.47.5.16.35.16 1.02v2.17h-.8v-2.37q0-.42-.23-.67-.22-.26-.57-.26-.27 0-.5.13-.23.13-.5.42v2.74h-.8v-5.8z"
       style="line-height:125%;-inkscape-font-specification:'Gill Sans MT, Normal';text-align:start"
       font-family="Gill Sans MT"
       letter-spacing="0"
       word-spacing="0"
       id="path250" />
    <path
       fill="#404030"
       d="M176.85 973.1v1.62q0 .2.14.2.13 0 .44-.2v.45q-.27.17-.44.23-.16.06-.34.06-.52 0-.6-.38-.52.37-1.1.37-.42 0-.7-.26-.28-.28-.28-.68 0-.36.27-.64.28-.3.78-.45l1.03-.33v-.2q0-.7-.73-.7-.66 0-1.28.64v-.82q.47-.52 1.35-.52.65 0 1.05.32.13.1.23.28.1.17.13.34.05.17.05.66zm-.8 1.54v-1.14l-.53.2q-.4.15-.58.3-.16.16-.16.4 0 .23.15.38.17.15.42.15.38 0 .7-.3z"
       style="line-height:125%;-inkscape-font-specification:'Gill Sans MT, Normal';text-align:start"
       font-family="Gill Sans MT"
       letter-spacing="0"
       word-spacing="0"
       id="path252" />
    <path
       fill="#404030"
       d="M178.96 971.57v.5q.53-.57 1.2-.57.4 0 .72.18.32.2.5.5.16.33.16 1.03v2.2h-.8v-2.18q0-.6-.2-.84-.18-.25-.62-.25-.57 0-.96.53v2.73h-.82v-3.83h.82z"
       style="line-height:125%;-inkscape-font-specification:'Gill Sans MT, Normal';text-align:start"
       font-family="Gill Sans MT"
       letter-spacing="0"
       word-spacing="0"
       id="path254" />
    <path
       fill="#404030"
       d="M182.45 972.9q0-.62.47-.97.47-.36 1.3-.36h1.66v.6h-.82q.24.22.33.4.08.2.08.43 0 .3-.18.6-.18.28-.46.43-.3.16-.93.25-.44.06-.44.3 0 .13.16.2.17.1.62.2.74.14.95.23.2.1.38.26.3.27.3.7 0 .53-.53.86-.5.32-1.36.32-.88 0-1.4-.33-.5-.3-.5-.86 0-.78 1-1-.4-.25-.4-.5 0-.17.17-.32.18-.15.47-.22-.9-.37-.9-1.2zm1.5-.67q-.32 0-.55.2-.23.2-.23.5t.22.5q.22.18.56.18.34 0 .56-.18.23-.2.23-.5t-.23-.5q-.22-.2-.57-.2zm-.2 3.34q-.4 0-.65.16t-.25.42q0 .6 1.12.6.53 0 .82-.16.3-.16.3-.43 0-.26-.38-.43-.37-.17-.96-.17z"
       style="line-height:125%;-inkscape-font-specification:'Gill Sans MT, Normal';text-align:start"
       font-family="Gill Sans MT"
       letter-spacing="0"
       word-spacing="0"
       id="path256" />
    <path
       fill="#404030"
       d="M189.95 973.55h-2.84q.04.55.4.87.36.32.92.32.8 0 1.46-.46v.74q-.37.23-.73.33t-.85.1q-.67 0-1.08-.26-.4-.27-.67-.7-.24-.46-.24-1.04 0-.87.53-1.42.52-.54 1.36-.54.8 0 1.27.53.48.53.48 1.42v.1zm-2.82-.45h2.03q-.03-.46-.28-.7-.26-.25-.7-.25-.42 0-.7.25-.27.24-.35.7z"
       style="line-height:125%;-inkscape-font-specification:'Gill Sans MT, Normal';text-align:start"
       font-family="Gill Sans MT"
       letter-spacing="0"
       word-spacing="0"
       id="path258" />
    <path
       fill="#404030"
       d="M193.5 969.6h.82v5.8h-1.7q-.9 0-1.45-.54-.53-.54-.53-1.44 0-.84.56-1.4.56-.53 1.43-.53.4 0 .88.15v-2.06zm0 5.14v-2.42q-.36-.18-.74-.18-.6 0-.96.37-.35.38-.35 1 0 .6.3.92.2.2.4.26t.74.06h.6z"
       style="line-height:125%;-inkscape-font-specification:'Gill Sans MT, Normal';text-align:start"
       font-family="Gill Sans MT"
       letter-spacing="0"
       word-spacing="0"
       id="path260" />
    <rect
       width="74"
       height="17"
       x="122.689"
       y="964.59"
       fill="none"
       stroke="#ddd"
       rx="4"
       ry="4"
       stroke-linecap="round"
       stroke-linejoin="round"
       id="rect262" />
  </g>
</svg>
