<?xml version="1.0" encoding="UTF-8" standalone="no"?>
<svg
   xmlns:dc="http://purl.org/dc/elements/1.1/"
   xmlns:cc="http://creativecommons.org/ns#"
   xmlns:rdf="http://www.w3.org/1999/02/22-rdf-syntax-ns#"
   xmlns:svg="http://www.w3.org/2000/svg"
   xmlns="http://www.w3.org/2000/svg"
   xmlns:sodipodi="http://sodipodi.sourceforge.net/DTD/sodipodi-0.dtd"
   xmlns:inkscape="http://www.inkscape.org/namespaces/inkscape"
   width="315"
   height="150"
   version="1.1"
   id="svg248"
   sodipodi:docname="fig-02-13.svg"
   inkscape:version="0.92.1 r15371">
  <metadata
     id="metadata254">
    <rdf:RDF>
      <cc:Work
         rdf:about="">
        <dc:format>image/svg+xml</dc:format>
        <dc:type
           rdf:resource="http://purl.org/dc/dcmitype/StillImage" />
        <dc:title></dc:title>
      </cc:Work>
    </rdf:RDF>
  </metadata>
  <defs
     id="defs252">
    <marker
       inkscape:stockid="TriangleOutM"
       orient="auto"
       refY="0.0"
       refX="0.0"
       id="TriangleOutM"
       style="overflow:visible"
       inkscape:isstock="true">
      <path
         id="path4876"
         d="M 5.77,0.0 L -2.88,5.0 L -2.88,-5.0 L 5.77,0.0 z "
         style="fill-rule:evenodd;stroke:#f05133;stroke-width:1pt;stroke-opacity:1;fill:#f05133;fill-opacity:1"
         transform="scale(0.4)" />
    </marker>
  </defs>
  <sodipodi:namedview
     pagecolor="#ffffff"
     bordercolor="#666666"
     borderopacity="1"
     objecttolerance="10"
     gridtolerance="10"
     guidetolerance="10"
     inkscape:pageopacity="0"
     inkscape:pageshadow="2"
     inkscape:window-width="2560"
     inkscape:window-height="1378"
     id="namedview250"
     showgrid="false"
     inkscape:zoom="3.6063492"
     inkscape:cx="120.74302"
     inkscape:cy="52.058459"
     inkscape:window-x="2552"
     inkscape:window-y="-8"
     inkscape:window-maximized="1"
     inkscape:current-layer="svg248" />
  <g
     transform="translate(0 -902.362)"
     id="g246">
    <ellipse
       cx="152.957"
       cy="920.486"
       fill="none"
       stroke="#c0504d"
       stroke-width="5"
       rx="7.5"
       ry="7.5"
       stroke-linecap="round"
       id="ellipse2" />
    <path
       fill="none"
       stroke="#c0504d"
       stroke-width="5"
       d="M137.96 920.5h8"
       id="path4" />
    <path
       fill="none"
       stroke="#c0504d"
       stroke-width="5"
       d="M159.96 920.5h8"
       id="path6" />
    <ellipse
       cx="72.957"
       cy="920.486"
       fill="none"
       stroke="#c0504d"
       stroke-width="5"
       rx="7.5"
       ry="7.5"
       stroke-linecap="round"
       id="ellipse8" />
    <path
       fill="none"
       stroke="#c0504d"
       stroke-width="5"
       d="M57.96 920.5h8"
       id="path10" />
    <path
       fill="none"
       stroke="#c0504d"
       stroke-width="5"
       d="M79.96 920.5h8"
       id="path12" />
    <path
       fill="none"
       stroke="#c0504d"
       stroke-width="5"
       d="M85.08 920.5h55"
       id="path14" />
    <path
       fill="none"
       stroke="#c0504d"
       stroke-width="5.045"
       d="M2.96 920.5h56"
       stroke-linecap="round"
       id="path16" />
    <path
       fill="#c0504d"
       stroke="#fff"
       stroke-width=".648"
       d="M-700 422.36l-4.33-7.5-4.33-7.5h17.32l-4.33 7.5z"
       transform="matrix(.025 -.783 .76 .001 -264.971 372.06)"
       stroke-linejoin="round"
       id="path18" />
    <path
       fill="none"
       stroke="#c0504d"
       stroke-width="5"
       d="M23.4 920.48h4.96"
       id="path20" />
    <path
       fill="#c0504d"
       stroke="#fff"
       stroke-width=".648"
       d="M-700 422.36l-4.33-7.5-4.33-7.5h17.32l-4.33 7.5z"
       transform="matrix(.025 -.783 .76 .001 -183.346 372.06)"
       stroke-linejoin="round"
       id="path22" />
    <path
       fill="none"
       stroke="#c0504d"
       stroke-width="5"
       d="M105.03 920.48h4.95"
       id="path24" />
    <path
       fill="#c0504d"
       d="M277.7 905.6v4.9h-1.34v-3.76q0-1.12-.3-1.56-.3-.44-1.05-.44-.4 0-.76.2-.35.18-.8.66v4.9h-1.33v-6.75h1.35v.9q1.02-1.03 2-1.03 1.27 0 1.97 1.22 1.07-1.23 2.24-1.23.98 0 1.6.73.65.7.65 2.2v3.96h-1.33v-4q0-.84-.34-1.3-.34-.44-1-.44-.82 0-1.53.84z"
       style="line-height:125%;-inkscape-font-specification:'Gill Sans MT, Normal';text-align:center"
       font-family="Gill Sans MT"
       letter-spacing="0"
       word-spacing="0"
       text-anchor="middle"
       id="path26" />
    <path
       fill="#c0504d"
       d="M287.98 906.44v2.87q0 .35.23.35.25 0 .77-.36v.8q-.46.3-.73.4-.28.1-.58.1-.85 0-1-.66-.86.65-1.82.65-.7 0-1.17-.47t-.47-1.17q0-.64.46-1.13.46-.5 1.3-.8l1.7-.6v-.35q0-1.2-1.2-1.2-1.1 0-2.13 1.1v-1.44q.77-.92 2.23-.92 1.1 0 1.75.57.23.18.4.48.18.3.23.6.05.3.05 1.16zm-1.3 2.72v-2l-.9.34q-.7.27-.97.55-.27.27-.27.68 0 .42.26.7.26.25.7.25.63 0 1.17-.52z"
       style="line-height:125%;-inkscape-font-specification:'Gill Sans MT, Normal';text-align:center"
       font-family="Gill Sans MT"
       letter-spacing="0"
       word-spacing="0"
       text-anchor="middle"
       id="path28" />
    <path
       fill="#c0504d"
       d="M289.83 910v-1.43q.57.4 1.15.65.6.24 1 .24.42 0 .72-.2t.3-.5q0-.3-.2-.48-.2-.2-.84-.56-1.3-.72-1.7-1.23-.38-.52-.38-1.12 0-.78.6-1.27.6-.48 1.56-.48 1 0 2.03.56v1.32q-1.2-.72-1.95-.72-.38 0-.63.17-.24.16-.24.43 0 .23.2.45.23.2.77.5l.48.28q1.7.96 1.7 2.12 0 .83-.66 1.36-.64.53-1.66.53-.6 0-1.07-.12-.46-.13-1.17-.47z"
       style="line-height:125%;-inkscape-font-specification:'Gill Sans MT, Normal';text-align:center"
       font-family="Gill Sans MT"
       letter-spacing="0"
       word-spacing="0"
       text-anchor="middle"
       id="path30" />
    <path
       fill="#c0504d"
       d="M295 904.82l2.5-2.46v1.4h2.12v1.2h-2.13v3.3q0 1.16.95 1.16.72 0 1.52-.5v1.26q-.77.43-1.68.43-.92 0-1.53-.53-.2-.16-.32-.35-.12-.2-.2-.53-.1-.34-.1-1.26v-3H295v-.12z"
       style="line-height:125%;-inkscape-font-specification:'Gill Sans MT, Normal';text-align:center"
       font-family="Gill Sans MT"
       letter-spacing="0"
       word-spacing="0"
       text-anchor="middle"
       id="path32" />
    <path
       fill="#c0504d"
       d="M306.68 907.24h-4.73q.05.97.64 1.54.6.57 1.54.57 1.3 0 2.43-.82v1.3q-.62.4-1.23.6-.6.16-1.4.16-1.12 0-1.8-.47-.7-.46-1.12-1.23-.4-.8-.4-1.8 0-1.55.86-2.5.88-.98 2.27-.98 1.34 0 2.14.94.78.94.78 2.5v.18zm-4.7-.8h3.4q-.06-.8-.5-1.23-.4-.42-1.13-.42-.72 0-1.18.43-.46.44-.6 1.24z"
       style="line-height:125%;-inkscape-font-specification:'Gill Sans MT, Normal';text-align:center"
       font-family="Gill Sans MT"
       letter-spacing="0"
       word-spacing="0"
       text-anchor="middle"
       id="path34" />
    <path
       fill="#c0504d"
       d="M309.55 903.75v1.55l.07-.12q.97-1.56 1.94-1.56.75 0 1.57.76l-.7 1.18q-.7-.66-1.3-.66-.64 0-1.1.6-.48.63-.48 1.47v3.52h-1.34v-6.75h1.35z"
       style="line-height:125%;-inkscape-font-specification:'Gill Sans MT, Normal';text-align:center"
       font-family="Gill Sans MT"
       letter-spacing="0"
       word-spacing="0"
       text-anchor="middle"
       id="path36" />
    <path
       fill="none"
       stroke="#4f81bd"
       stroke-width="5"
       d="M267.96 1000.57c-12.18 0-13.8-5.36-30.45-29.43"
       id="path38" />
    <path
       fill="none"
       stroke="#4f81bd"
       stroke-width="5"
       d="M192.96 920.5c12.18 0 13.8 5.34 30.44 29.4"
       id="path40" />
    <path
       fill="none"
       stroke="#4f81bd"
       stroke-width="5"
       d="M222.74 948.9l15.2 22.87"
       id="path42" />
    <path
       fill="#4f81bd"
       stroke="#fff"
       stroke-width=".648"
       d="M-700 422.36l-4.33-7.5-4.33-7.5h17.32l-4.33 7.5z"
       transform="matrix(.665 -.414 .421 .632 522.695 410.737)"
       stroke-linejoin="round"
       id="path44" />
    <path
       fill="none"
       stroke="#4f81bd"
       stroke-width="5"
       d="M226.9 955.2l2.76 4.12"
       id="path46" />
    <path
       fill="none"
       stroke="#4f81bd"
       stroke-width="5"
       d="M267.96 1000.5h44.1"
       stroke-linecap="round"
       id="path48" />
    <path
       fill="none"
       stroke="#c0504d"
       stroke-width="5.045"
       d="M168.4 920.5h142.17"
       stroke-linecap="round"
       id="path50" />
    <path
       fill="#4f81bd"
       stroke="#fff"
       stroke-width=".648"
       d="M-700 422.36l-4.33-7.5-4.33-7.5h17.32l-4.33 7.5z"
       transform="matrix(.025 -.783 .76 .001 -17.971 452.06)"
       stroke-linejoin="round"
       id="path52" />
    <path
       fill="none"
       stroke="#4f81bd"
       stroke-width="5"
       d="M270.4 1000.48h4.96"
       id="path54" />
    <path
       fill="#c0504d"
       stroke="#fff"
       stroke-width=".648"
       d="M-700 422.36l-4.33-7.5-4.33-7.5h17.32l-4.33 7.5z"
       transform="matrix(.025 -.783 .76 .001 -17.971 372.06)"
       stroke-linejoin="round"
       id="path56" />
    <path
       fill="none"
       stroke="#c0504d"
       stroke-width="5"
       d="M270.4 920.48h4.96"
       id="path58" />
    <path
       fill="#4f81bd"
       d="M245.05 1010.62h1.34v10.23h-2.86q-1.5 0-2.4-.95-.87-.94-.87-2.53 0-1.5.93-2.45.94-.96 2.4-.96.66 0 1.45.3v-3.64zm0 9.1v-4.28q-.62-.32-1.26-.32-1 0-1.6.65-.58.66-.58 1.76 0 1.04.5 1.6.32.34.66.46.34.1 1.24.1h1.03z"
       style="line-height:125%;-inkscape-font-specification:'Gill Sans MT, Normal';text-align:center"
       font-family="Gill Sans MT"
       letter-spacing="0"
       word-spacing="0"
       text-anchor="middle"
       id="path60" />
    <path
       fill="#4f81bd"
       d="M253.94 1017.6h-4.74q.05.96.65 1.54.6.57 1.54.57 1.3 0 2.43-.8v1.3q-.62.4-1.23.58-.6.17-1.4.17-1.12 0-1.8-.46-.7-.47-1.12-1.25-.4-.78-.4-1.8 0-1.54.86-2.5.87-.97 2.27-.97 1.35 0 2.14.94.8.93.8 2.5v.18zm-4.7-.8h3.38q-.05-.8-.47-1.23-.43-.43-1.14-.43-.7 0-1.17.43-.46.43-.6 1.23z"
       style="line-height:125%;-inkscape-font-specification:'Gill Sans MT, Normal';text-align:center"
       font-family="Gill Sans MT"
       letter-spacing="0"
       word-spacing="0"
       text-anchor="middle"
       id="path62" />
    <path
       fill="#4f81bd"
       d="M259.27 1014.1h1.44l-2.96 6.87h-.45l-3.06-6.86h1.46l1.82 4.16 1.75-4.15z"
       style="line-height:125%;-inkscape-font-specification:'Gill Sans MT, Normal';text-align:center"
       font-family="Gill Sans MT"
       letter-spacing="0"
       word-spacing="0"
       text-anchor="middle"
       id="path64" />
    <path
       fill="#4f81bd"
       d="M261.36 1016.8H265v1.44h-3.64v-1.43z"
       style="line-height:125%;-inkscape-font-specification:'Gill Sans MT, Normal';text-align:center"
       font-family="Gill Sans MT"
       letter-spacing="0"
       word-spacing="0"
       text-anchor="middle"
       id="path66" />
    <path
       fill="#4f81bd"
       d="M269.43 1010.5q1.4 0 2.32 1.47.93 1.47.93 3.74 0 2.34-.93 3.8-.9 1.45-2.38 1.45t-2.38-1.43q-.9-1.42-.9-3.78 0-2.33.92-3.8.93-1.45 2.4-1.45zm.02 1.38h-.08q-.84 0-1.34 1.04-.5 1.03-.5 2.8 0 1.82.5 2.85.48 1.03 1.33 1.03.85 0 1.34-1.03.5-1.03.5-2.8 0-1.78-.5-2.84-.45-1.05-1.25-1.05z"
       style="line-height:125%;-inkscape-font-specification:'Gill Sans MT, Normal';text-align:center"
       font-family="Gill Sans MT"
       letter-spacing="0"
       word-spacing="0"
       text-anchor="middle"
       id="path68" />
    <path
       fill="#4f81bd"
       d="M276.16 1010.62h1.46v10.23h-1.46v-10.23z"
       style="line-height:125%;-inkscape-font-specification:'Gill Sans MT, Normal';text-align:center"
       font-family="Gill Sans MT"
       letter-spacing="0"
       word-spacing="0"
       text-anchor="middle"
       id="path70" />
    <path
       fill="#4f81bd"
       d="M281.23 1016.8h3.64v1.44h-3.64v-1.43z"
       style="line-height:125%;-inkscape-font-specification:'Gill Sans MT, Normal';text-align:center"
       font-family="Gill Sans MT"
       letter-spacing="0"
       word-spacing="0"
       text-anchor="middle"
       id="path72" />
    <path
       fill="#4f81bd"
       d="M287.12 1011.28q.33 0 .57.22.22.23.22.56 0 .32-.23.56-.25.23-.58.23-.3 0-.54-.23-.24-.24-.24-.56 0-.3.24-.54.23-.24.54-.24zm-.66 2.83h1.33v6.75h-1.34v-6.74z"
       style="line-height:125%;-inkscape-font-specification:'Gill Sans MT, Normal';text-align:center"
       font-family="Gill Sans MT"
       letter-spacing="0"
       word-spacing="0"
       text-anchor="middle"
       id="path74" />
    <path
       fill="#4f81bd"
       d="M291.05 1014.1v.87q.9-1 2.03-1 .63 0 1.17.34.54.33.82.9.28.57.28 1.8v3.85h-1.33V1017q0-1.02-.3-1.46-.33-.45-1.07-.45-.94 0-1.6.94v4.8h-1.37v-6.73h1.37z"
       style="line-height:125%;-inkscape-font-specification:'Gill Sans MT, Normal';text-align:center"
       font-family="Gill Sans MT"
       letter-spacing="0"
       word-spacing="0"
       text-anchor="middle"
       id="path76" />
    <path
       fill="#4f81bd"
       d="M296.27 1015.18l2.5-2.46v1.4h2.14v1.2h-2.13v3.3q0 1.15.96 1.15.72 0 1.52-.48v1.23q-.77.44-1.68.44-.9 0-1.52-.54-.2-.16-.32-.36-.12-.2-.2-.52-.1-.33-.1-1.25v-3h-1.16v-.12z"
       style="line-height:125%;-inkscape-font-specification:'Gill Sans MT, Normal';text-align:center"
       font-family="Gill Sans MT"
       letter-spacing="0"
       word-spacing="0"
       text-anchor="middle"
       id="path78" />
    <path
       fill="#4f81bd"
       d="M303.65 1014.1v1.56l.08-.12q.96-1.56 1.93-1.56.75 0 1.57.76l-.7 1.17q-.7-.65-1.3-.65-.63 0-1.1.62-.48.6-.48 1.46v3.52h-1.34v-6.74h1.35z"
       style="line-height:125%;-inkscape-font-specification:'Gill Sans MT, Normal';text-align:center"
       font-family="Gill Sans MT"
       letter-spacing="0"
       word-spacing="0"
       text-anchor="middle"
       id="path80" />
    <path
       fill="#4f81bd"
       d="M311.03 1014.1q1.54 0 2.55 1 1.02.98 1.02 2.48 0 1.46-1.03 2.43-1.03.97-2.6.97-1.52 0-2.54-.98-1-1-1-2.45 0-1.48 1-2.46 1.04-1 2.6-1zm-.08 1.2q-.96 0-1.57.63-.62.63-.62 1.6 0 .97.63 1.58.62.62 1.6.62 1 0 1.62-.6.63-.64.63-1.6 0-.96-.66-1.6-.66-.62-1.65-.62z"
       style="line-height:125%;-inkscape-font-specification:'Gill Sans MT, Normal';text-align:center"
       font-family="Gill Sans MT"
       letter-spacing="0"
       word-spacing="0"
       text-anchor="middle"
       id="path82" />
    <rect
       width="20"
       height="20"
       x="247.957"
       y="990.486"
       fill="#f05133"
       rx="5"
       ry="5"
       id="rect84" />
    <path
       fill="#fff"
       d="M260.53 1000.88h-5.25v5.58h1.9q.16 0 .22.17.1.15.1.37.03.2-.03.37-.07.15-.2.15h-4.88q-.16 0-.25-.15-.07-.18-.07-.37.03-.22.1-.37.12-.17.32-.17h1.08v-11.94h-1.56q-.15 0-.24-.16-.06-.17-.06-.37 0-.22.06-.37.07-.18.24-.18h4.28q.17 0 .26.18.08.15.08.36 0 .2-.08.36-.1.16-.24.16h-1.04v5.34h5.25v-5.34h-1.6q-.16 0-.25-.16-.06-.17-.06-.37 0-.22.06-.37.1-.18.24-.18h4.37q.16 0 .25.18.08.15.06.36 0 .2-.1.36-.08.16-.26.16h-1.02v11.94h1.65q.15 0 .24.17.1.15.1.37 0 .2-.1.37-.05.15-.2.15h-4.72q-.17 0-.24-.15-.06-.18-.06-.37.02-.22.1-.37.1-.17.25-.17h1.3v-5.58z"
       style="line-height:125%;-inkscape-font-specification:'Triplicate T4c, Normal';text-align:start"
       font-family="Triplicate T4c"
       letter-spacing="0"
       word-spacing="0"
       id="path86" />
    <path
       fill="none"
       stroke="#f05133"
       d="M152.96 1000v-22.13"
       stroke-linecap="square"
       id="path88"
       style="marker-end:url(#TriangleOutM)" />
    <path
       fill="none"
       stroke="#f05133"
       d="M152.96 1000.5h95"
       stroke-linecap="square"
       id="path90" />
    <rect
       width="74"
       height="16"
       x="116.957"
       y="935.986"
       fill="#f8f8f8"
       stroke="#ddd"
       rx="4"
       ry="4"
       stroke-linecap="round"
       stroke-linejoin="round"
       id="rect92" />
    <path
       fill="#404030"
       d="M123.02 946.67q0-.45.17-.85.16-.4.44-.7.27-.33.6-.55.35-.23.7-.35V944q-.76-.47-1.12-1.03-.35-.6-.35-1.24 0-.47.2-.9.2-.45.6-.78.4-.35.96-.56.55-.2 1.26-.2.53 0 1.04.14.53.14.93.43.4.28.66.72.25.4.25 1 0 .4-.14.74-.14.35-.37.64-.22.3-.5.5-.26.23-.5.35v.17q.8.32 1.37.96.55.64.55 1.6 0 .6-.25 1.1-.25.47-.7.82-.46.35-1.1.54-.64.2-1.43.2-.7 0-1.33-.2-.6-.18-1.05-.5-.44-.36-.68-.83-.25-.48-.25-1.03zm1.27-.25q0 .38.1.73.13.35.38.64.26.27.66.44.4.16.96.16.5 0 .9-.13.4-.14.7-.38.27-.25.4-.58.16-.32.16-.67 0-.86-.73-1.44-.7-.57-1.94-.78-1.6.63-1.6 2zm.23-4.74q0 .34.16.63.16.3.45.55.3.25.68.44.4.18.85.3.15-.05.4-.2.26-.16.5-.4.25-.24.42-.57.2-.35.2-.8 0-.8-.5-1.2-.5-.42-1.25-.42-.47 0-.84.17-.34.14-.6.4-.22.22-.34.53-.13.3-.13.58z"
       style="line-height:125%;-inkscape-font-specification:'Triplicate T4c, Normal';text-align:start"
       font-family="Triplicate T4c"
       letter-spacing="0"
       word-spacing="0"
       id="path94" />
    <path
       fill="#404030"
       d="M132.27 946.67q0-.45.17-.85.17-.4.45-.7.27-.33.6-.55.35-.23.7-.35V944q-.77-.47-1.13-1.03-.35-.6-.35-1.24 0-.47.2-.9.22-.45.6-.78.4-.35.96-.56.55-.2 1.26-.2.54 0 1.05.14.52.14.92.43.42.28.66.72.25.4.25 1 0 .4-.14.74-.15.35-.38.64-.22.3-.5.5-.26.23-.5.35v.17q.82.32 1.37.96.55.64.55 1.6 0 .6-.25 1.1-.25.47-.7.82-.46.35-1.1.54-.64.2-1.43.2-.7 0-1.32-.2-.6-.18-1.05-.5-.43-.36-.68-.83-.25-.48-.25-1.03zm1.27-.25q0 .38.12.73t.37.64q.26.27.66.44.4.16.95.16.5 0 .9-.13.4-.14.7-.38.27-.25.4-.58.16-.32.16-.67 0-.86-.7-1.44-.72-.57-1.96-.78-1.6.63-1.6 2zm.24-4.74q0 .34.16.63.17.3.46.55.3.25.68.44.4.18.85.3.15-.05.4-.2.26-.16.5-.4.26-.24.43-.57.18-.35.18-.8 0-.8-.5-1.2-.5-.42-1.24-.42-.46 0-.84.17-.35.14-.6.4-.23.22-.35.53-.12.3-.12.58z"
       style="line-height:125%;-inkscape-font-specification:'Triplicate T4c, Normal';text-align:start"
       font-family="Triplicate T4c"
       letter-spacing="0"
       word-spacing="0"
       id="path96" />
    <path
       fill="#404030"
       d="M146.4 944.93q-.43.38-.94.6-.5.18-1.2.18-.54 0-1.05-.2-.5-.23-.87-.64-.37-.4-.6-1-.22-.6-.22-1.35 0-.75.3-1.34.26-.6.7-1 .48-.43 1.03-.65.57-.2 1.14-.2.74 0 1.35.27.6.26 1.04.8.45.55.7 1.38.25.84.25 1.94 0 .8-.2 1.58t-.6 1.45q-.4.67-.97 1.2-.55.53-1.28.84-.23.1-.57.22-.32.1-.7.16-.4.1-.78.13-.4.05-.73.07-.1 0-.14-.12-.04-.12-.04-.26t.03-.28q.05-.13.16-.14.6-.1 1.25-.23.68-.15 1.1-.35.8-.34 1.3-1.08.5-.76.77-1.87l-.22-.12zm.16-1q.03-.13.04-.3.02-.2.02-.4 0-.18 0-.34 0-.17 0-.27 0-.55-.14-1.02-.16-.47-.42-.8-.26-.36-.65-.55-.36-.2-.8-.2-.4 0-.73.17-.34.16-.6.48-.25.3-.4.78-.14.45-.14 1.03 0 .63.15 1.06.17.43.43.72.28.27.6.4.33.14.65.14.66 0 1.2-.27.53-.27.8-.6z"
       style="line-height:125%;-inkscape-font-specification:'Triplicate T4c, Normal';text-align:start"
       font-family="Triplicate T4c"
       letter-spacing="0"
       word-spacing="0"
       id="path98" />
    <path
       fill="#404030"
       d="M155.47 943.87q.8.23 1.3.9.5.64.5 1.52 0 .62-.26 1.16-.24.52-.7.9-.48.4-1.17.63-.68.22-1.54.22-.6 0-1.36-.17-.75-.17-1.45-.63-.13-.1-.13-.23 0-.18.1-.3.08-.15.2-.23.15-.08.27 0 .5.3 1.02.47.52.18 1.3.18 1.06 0 1.7-.5.67-.52.67-1.5 0-.96-.57-1.47-.56-.5-1.4-.5h-.67q-.13 0-.18-.13-.04-.13-.04-.28 0-.16.04-.3.06-.12.17-.12h.7q.23 0 .48-.1.25-.08.45-.28t.35-.52q.14-.34.14-.82 0-.98-.4-1.4-.4-.44-1-.44-.56 0-.85.23-.3.23-.32.6-.04.44-.25.63-.22.2-.56.2-.35 0-.5-.15-.13-.15-.13-.4 0-.24.18-.55.18-.3.52-.57.36-.28.85-.45.5-.18 1.18-.18.5 0 .98.15.5.14.86.43.37.3.6.76.24.45.24 1.08 0 .66-.4 1.2-.4.52-.93.75v.17z"
       style="line-height:125%;-inkscape-font-specification:'Triplicate T4c, Normal';text-align:start"
       font-family="Triplicate T4c"
       letter-spacing="0"
       word-spacing="0"
       id="path100" />
    <path
       fill="#404030"
       d="M165.65 945.9h.94q.2 0 .28.14.1.13.08.3 0 .14-.1.27-.07.14-.2.14h-1V949q0 .12-.18.18-.17.07-.37.07-.18 0-.35-.06-.17-.07-.17-.2v-2.24h-4.1q-.17 0-.25-.2-.08-.2-.1-.45-.02-.23 0-.45.02-.24.05-.3.95-1.42 1.72-2.87.77-1.44 1.17-2.97.05-.18.26-.24.23-.07.48-.04.26 0 .44.1.2.1.16.25-.22.73-.6 1.5-.36.76-.82 1.53-.47.76-.97 1.5-.5.72-.98 1.36v.45h3.56v-2.67q0-.12.17-.18t.36-.04q.2 0 .38.08.17.06.17.18v2.65z"
       style="line-height:125%;-inkscape-font-specification:'Triplicate T4c, Normal';text-align:start"
       font-family="Triplicate T4c"
       letter-spacing="0"
       word-spacing="0"
       id="path102" />
    <path
       fill="#404030"
       d="M170.27 945.75q.02 1.24.56 1.84.55.57 1.57.57.48 0 .97-.06.5-.05.97-.13.48-.1.88-.2.42-.1.73-.23.1-.04.18.03.1.06.17.16t.07.2q0 .1-.07.15-.4.2-.9.37-.47.17-1 .32-.5.13-1.04.2-.53.1-1.04.1-.8 0-1.43-.24-.63-.24-1.06-.64-.42-.44-.63-1-.2-.56-.2-1.22 0-.9.3-1.6.34-.7.85-1.18.52-.5 1.17-.76.66-.26 1.33-.26.72 0 1.32.22.62.22 1.05.62.45.4.68 1 .25.6.25 1.32 0 .2-.1.3-.07.1-.3.12h-5.28zm4.37-.67q-.03-.4-.16-.8-.1-.4-.35-.72-.23-.32-.62-.5-.36-.2-.92-.2-.5 0-.9.18-.4.17-.73.48-.3.3-.5.7-.18.4-.2.86h4.4z"
       style="line-height:125%;-inkscape-font-specification:'Triplicate T4c, Normal';text-align:start"
       font-family="Triplicate T4c"
       letter-spacing="0"
       word-spacing="0"
       id="path104" />
    <path
       fill="#404030"
       d="M178.54 946.67q0-.45.16-.85.17-.4.45-.7.28-.33.62-.55.34-.23.68-.35V944q-.76-.47-1.1-1.03-.37-.6-.37-1.24 0-.47.2-.9.22-.45.6-.78.4-.35.96-.56.56-.2 1.27-.2.55 0 1.06.14.52.14.92.43.42.28.67.72.24.4.24 1 0 .4-.15.74-.14.35-.37.64-.2.3-.5.5-.25.23-.5.35v.17q.82.32 1.37.96.56.64.56 1.6 0 .6-.24 1.1-.24.47-.7.82-.45.35-1.1.54-.64.2-1.42.2-.7 0-1.33-.2-.6-.18-1.04-.5-.43-.36-.68-.83-.24-.48-.24-1.03zm1.26-.25q0 .38.12.73.13.35.37.64.26.27.66.44.4.16.95.16.52 0 .92-.13.4-.14.68-.38.28-.25.42-.58.15-.32.15-.67 0-.86-.72-1.44-.7-.57-1.94-.78-1.6.63-1.6 2zm.25-4.74q0 .34.15.63.17.3.46.55.3.25.68.44.4.18.85.3.15-.05.4-.2.26-.16.5-.4.25-.24.42-.57.18-.35.18-.8 0-.8-.5-1.2-.48-.42-1.24-.42-.46 0-.83.17-.36.14-.6.4-.24.22-.36.53-.12.3-.12.58z"
       style="line-height:125%;-inkscape-font-specification:'Triplicate T4c, Normal';text-align:start"
       font-family="Triplicate T4c"
       letter-spacing="0"
       word-spacing="0"
       id="path106" />
    <rect
       width="74"
       height="16"
       x="35.957"
       y="935.986"
       fill="#f8f8f8"
       stroke="#ddd"
       rx="4"
       ry="4"
       stroke-linecap="round"
       stroke-linejoin="round"
       id="rect108" />
    <path
       fill="#404030"
       d="M46.7 943.87q.8.23 1.3.9.52.64.52 1.52 0 .62-.27 1.16-.24.52-.72.9-.46.4-1.16.63-.68.22-1.54.22-.6 0-1.34-.17-.77-.17-1.46-.63-.13-.1-.13-.23.03-.18.1-.3.1-.15.22-.23.14-.08.26 0 .5.3 1.02.47.53.18 1.3.18 1.06 0 1.7-.5.67-.52.67-1.5 0-.96-.57-1.47-.55-.5-1.4-.5h-.67q-.12 0-.16-.13-.05-.13-.05-.28 0-.16.05-.3.06-.12.16-.12h.7q.25 0 .5-.1.24-.08.44-.28.22-.2.36-.52.13-.34.13-.82 0-.98-.4-1.4-.4-.44-1-.44-.56 0-.85.23-.28.23-.3.6-.04.44-.26.63-.22.2-.55.2-.37 0-.5-.15-.15-.15-.15-.4 0-.24.17-.55.2-.3.53-.57.35-.28.85-.45.5-.18 1.17-.18.5 0 1 .15.46.14.83.43.37.3.6.76.24.45.24 1.08 0 .66-.4 1.2-.4.52-.93.75v.17z"
       style="line-height:125%;-inkscape-font-specification:'Triplicate T4c, Normal';text-align:start"
       font-family="Triplicate T4c"
       letter-spacing="0"
       word-spacing="0"
       id="path110" />
    <path
       fill="#404030"
       d="M57.52 940.46q-1.03 1.94-1.93 4.12-.9 2.2-1.53 4.36-.07.13-.33.2-.26.08-.57.08-.3 0-.54-.07-.23-.06-.14-.27.8-2 1.8-4.1 1.03-2.1 2.2-4.02l-.12-.2q-.45 0-1 0-.56 0-1.13.03-.57 0-1.1.02-.52 0-.9.03-.28 0-.42-.16-.14-.2-.16-.42 0-.24.1-.42.1-.2.32-.2.1 0 .36.02.26 0 .56 0 .3 0 .6.03.32 0 .52 0h2.72q.18 0 .34.1.15.1.24.26.1.13.1.3.04.17-.02.3z"
       style="line-height:125%;-inkscape-font-specification:'Triplicate T4c, Normal';text-align:start"
       font-family="Triplicate T4c"
       letter-spacing="0"
       word-spacing="0"
       id="path112" />
    <path
       fill="#404030"
       d="M63.78 948.32q.34 0 .74-.12.42-.13.77-.44.35-.3.58-.83.23-.52.23-1.33 0-.5-.2-.93-.17-.44-.48-.76-.3-.3-.73-.5-.4-.2-.84-.2-.47 0-.93.16-.45.16-.8.5v3.4q0 .43.4.75.42.32 1.25.32zm-2.95-8.42l-1.02.2q-.08 0-.14-.1-.05-.14-.08-.3 0-.15 0-.28.02-.14.1-.16.2-.03.58-.1.37-.06.68-.13.3-.07.53-.15.23-.07.37-.1.1-.04.3.07.2.1.14.4-.12.92-.17 1.88-.02.95-.05 1.73l.2.12q.4-.28.88-.47.5-.2 1.05-.2.7 0 1.28.27.6.26 1 .72.42.44.65 1.04.25.6.25 1.25 0 .9-.36 1.56t-.92 1.1q-.54.44-1.22.65-.66.23-1.3.23-.52 0-.87-.1-.37-.1-.57-.16l-.48.36q-.06.06-.2.05-.14-.02-.28-.07t-.23-.15q-.1-.1-.06-.2.02-.07.03-.24.04-.17.06-.37 0-.2 0-.42.03-.2.03-.36v-7.42l-.17-.12z"
       style="line-height:125%;-inkscape-font-specification:'Triplicate T4c, Normal';text-align:start"
       font-family="Triplicate T4c"
       letter-spacing="0"
       word-spacing="0"
       id="path114" />
    <path
       fill="#404030"
       d="M73.03 948.32q.34 0 .74-.12.42-.13.78-.44.35-.3.58-.83.23-.52.23-1.33 0-.5-.2-.93-.18-.44-.5-.76-.3-.3-.72-.5-.4-.2-.83-.2-.45 0-.92.16-.44.16-.8.5v3.4q0 .43.4.75.42.32 1.25.32zm-2.94-8.42l-1.03.2q-.1 0-.16-.1-.03-.14-.06-.3-.02-.15 0-.28 0-.14.1-.16.2-.03.58-.1.37-.06.67-.13.3-.07.52-.15.23-.07.37-.1.1-.04.28.07.2.1.16.4-.13.92-.17 1.88-.03.95-.06 1.73l.2.12q.4-.28.9-.47.48-.2 1.03-.2.7 0 1.3.27.57.26 1 .72.4.44.64 1.04.23.6.23 1.25 0 .9-.36 1.56-.35.66-.9 1.1-.55.44-1.23.65-.65.23-1.3.23-.5 0-.86-.1t-.56-.16l-.48.36q-.06.06-.2.05-.14-.02-.27-.07-.14-.05-.24-.15-.1-.1-.07-.2.02-.07.03-.24.03-.17.05-.37.02-.2.02-.42.02-.2.02-.36v-7.42l-.15-.12z"
       style="line-height:125%;-inkscape-font-specification:'Triplicate T4c, Normal';text-align:start"
       font-family="Triplicate T4c"
       letter-spacing="0"
       word-spacing="0"
       id="path116" />
    <path
       fill="#404030"
       d="M85.85 944.12q0 1.2-.28 2.15t-.78 1.6q-.5.66-1.2 1-.7.35-1.5.35-.74 0-1.34-.34-.6-.35-1.05-.94-.42-.6-.67-1.4-.25-.8-.25-1.7 0-1.2.2-2.2.22-1.02.65-1.76.45-.74 1.13-1.17.7-.4 1.63-.4.7 0 1.32.3.63.3 1.1.9.47.6.75 1.5t.28 2.12zm-1.4.08q0-1.15-.16-1.96-.18-.82-.5-1.33-1.38 3.6-2.63 7.14.47.45 1.05.45.44 0 .84-.23.4-.22.7-.7.32-.52.5-1.34.2-.83.2-2.03zm-3.77 3.1q.68-1.74 1.3-3.5.65-1.75 1.25-3.52-.4-.26-.9-.26-.6 0-1.02.3-.4.3-.65.88-.26.55-.4 1.36-.1.8-.1 1.8 0 .97.13 1.7.14.74.4 1.25z"
       style="line-height:125%;-inkscape-font-specification:'Triplicate T4c, Normal';text-align:start"
       font-family="Triplicate T4c"
       letter-spacing="0"
       word-spacing="0"
       id="path118" />
    <path
       fill="#404030"
       d="M89.32 939.95q0-.25.14-.34.13-.1.35-.1h3.07q.3 0 .52-.02.22-.03.44-.07.18-.02.26.15.1.18.03.4-.05.22-.26.4-.22.2-.65.2h-3.1l-.16 2.3.2.13q.2-.1.5-.16.3-.07.82-.07.58 0 1.15.2.6.16 1.05.54.47.37.74.94.3.57.3 1.32 0 .73-.33 1.36-.32.63-.9 1.1-.57.46-1.42.74-.83.26-1.87.26-.27 0-.56-.03-.28-.04-.54-.1-.26-.04-.5-.1-.2-.1-.35-.17-.12-.1-.12-.25 0-.16.1-.3.07-.14.2-.23.13-.08.25 0 .22.13.64.24.4.07 1.06.07.62 0 1.16-.17.55-.2.96-.53.4-.33.64-.8.25-.48.25-1.08 0-.97-.64-1.58-.62-.6-1.92-.6-.43 0-.74.07-.3.08-.52.2-.14.1-.33-.05-.18-.14-.17-.3l.24-3.6z"
       style="line-height:125%;-inkscape-font-specification:'Triplicate T4c, Normal';text-align:start"
       font-family="Triplicate T4c"
       letter-spacing="0"
       word-spacing="0"
       id="path120" />
    <path
       fill="#404030"
       d="M102.32 945.65q-2.02.07-3 .4-.98.34-.98 1.1 0 .52.38.86.4.33 1.08.33.64 0 1.32-.2.7-.2 1.14-.63l.06-1.85zm0 2.65l-.1-.03q-.53.34-1.26.57-.72.22-1.47.22-1.22 0-1.84-.5-.62-.5-.62-1.24 0-.6.36-1 .35-.42 1.03-.7.7-.26 1.68-.4 1-.13 2.25-.17l.03-.7q.02-.4-.1-.7-.1-.28-.3-.47-.2-.2-.45-.27-.25-.08-.52-.08-.5 0-.9.16-.4.15-.6.3-.08.03-.1.1 0 .08 0 .18 0 .44-.2.63-.18.16-.52.16-.27 0-.5-.13-.24-.13-.2-.64 0-.2.05-.36.06-.16.3-.28.36-.17.8-.33.47-.16.95-.28.48-.1.93-.2.45-.06.8-.06.92 0 1.34.57.43.57.43 1.48l-.14 3.9 1.2-.3q.1-.03.2.06.1.1.14.22.05.14.03.25 0 .12-.14.16-.13.05-.43.15-.3.1-.6.2-.34.1-.63.2-.28.1-.4.1-.23.05-.28-.1l-.2-.68z"
       style="line-height:125%;-inkscape-font-specification:'Triplicate T4c, Normal';text-align:start"
       font-family="Triplicate T4c"
       letter-spacing="0"
       word-spacing="0"
       id="path122" />
    <path
       fill="#404030"
       d="M42.7 961.36q.2 0 .35.13.14.12.14.3 0 .2-.15.32-.14.13-.34.13-.18 0-.32-.13-.14-.14-.14-.32 0-.17.14-.3.14-.14.33-.14zm-.4 1.6h.8v3.83h-.8v-3.83z"
       style="line-height:125%;-inkscape-font-specification:'Gill Sans MT, Normal';text-align:start"
       font-family="Gill Sans MT"
       letter-spacing="0"
       word-spacing="0"
       id="path124" />
    <path
       fill="#404030"
       d="M45.06 962.97v.48q.54-.56 1.22-.56.38 0 .7.18.33.18.5.5.17.33.17 1.02v2.2h-.8v-2.2q0-.57-.2-.82-.18-.26-.62-.26-.57 0-.97.54v2.73h-.8v-3.83h.8z"
       style="line-height:125%;-inkscape-font-specification:'Gill Sans MT, Normal';text-align:start"
       font-family="Gill Sans MT"
       letter-spacing="0"
       word-spacing="0"
       id="path126" />
    <path
       fill="#404030"
       d="M51.46 961h.8v5.8h-1.7q-.9 0-1.43-.55-.54-.53-.54-1.44 0-.83.55-1.37.57-.55 1.44-.55.4 0 .86.17V961zm0 5.14v-2.42q-.37-.18-.75-.18-.6 0-.95.37-.35.38-.35 1 0 .6.3.92.2.2.4.25.2.07.74.07h.62z"
       style="line-height:125%;-inkscape-font-specification:'Gill Sans MT, Normal';text-align:start"
       font-family="Gill Sans MT"
       letter-spacing="0"
       word-spacing="0"
       id="path128" />
    <path
       fill="#404030"
       d="M56.8 964.94h-2.84q.03.55.38.88.36.32.93.32.8 0 1.46-.47v.74q-.37.25-.73.35-.36.1-.85.1-.67 0-1.08-.27-.42-.26-.67-.7-.24-.44-.24-1.02 0-.88.52-1.42.52-.55 1.36-.55.8 0 1.28.52.48.54.48 1.43v.1zm-2.83-.45H56q-.02-.46-.28-.7-.25-.25-.68-.25-.43 0-.7.24-.28.24-.37.7z"
       style="line-height:125%;-inkscape-font-specification:'Gill Sans MT, Normal';text-align:start"
       font-family="Gill Sans MT"
       letter-spacing="0"
       word-spacing="0"
       id="path130" />
    <path
       fill="#404030"
       d="M60.45 962.97h1.03l-1.67 1.88 1.8 1.94h-1.03l-1.27-1.38-1.2 1.37h-1l1.7-1.95-1.7-1.88h1l1.2 1.3 1.15-1.3z"
       style="line-height:125%;-inkscape-font-specification:'Gill Sans MT, Normal';text-align:start"
       font-family="Gill Sans MT"
       letter-spacing="0"
       word-spacing="0"
       id="path132" />
    <path
       fill="#404030"
       d="M62.58 965.86q.22 0 .38.15t.16.36q0 .2-.16.35-.16.15-.38.15-.23 0-.38-.14-.16-.13-.16-.34 0-.2.16-.35.15-.14.38-.14z"
       style="line-height:125%;-inkscape-font-specification:'Gill Sans MT, Normal';text-align:start"
       font-family="Gill Sans MT"
       letter-spacing="0"
       word-spacing="0"
       id="path134" />
    <path
       fill="#404030"
       d="M64.1 961h.8v2.47q.5-.58 1.26-.58.4 0 .72.18.32.2.48.53.16.35.16 1v2.2h-.8v-2.38q0-.4-.22-.67-.22-.26-.58-.26-.26 0-.5.12-.22.13-.5.43v2.74h-.8V961z"
       style="line-height:125%;-inkscape-font-specification:'Gill Sans MT, Normal';text-align:start"
       font-family="Gill Sans MT"
       letter-spacing="0"
       word-spacing="0"
       id="path136" />
    <path
       fill="#404030"
       d="M68.07 963.57l1.5-1.4v.8h1.28v.68h-1.28v1.87q0 .66.57.66.43 0 .9-.28v.7q-.45.25-1 .25-.54 0-.9-.3-.12-.1-.2-.2-.07-.12-.12-.3-.05-.2-.05-.7v-1.7h-.7v-.08z"
       style="line-height:125%;-inkscape-font-specification:'Gill Sans MT, Normal';text-align:start"
       font-family="Gill Sans MT"
       letter-spacing="0"
       word-spacing="0"
       id="path138" />
    <path
       fill="#404030"
       d="M74.95 964v2.8h-.8v-2.14q0-.63-.18-.88-.18-.26-.63-.26-.25 0-.46.1-.2.12-.48.4v2.77h-.8v-3.83h.8v.5q.6-.58 1.2-.58.77 0 1.2.68.63-.7 1.33-.7.6 0 .97.4.38.42.38 1.25v2.26h-.8v-2.28q0-.47-.2-.73t-.6-.26q-.5 0-.93.47z"
       style="line-height:125%;-inkscape-font-specification:'Gill Sans MT, Normal';text-align:start"
       font-family="Gill Sans MT"
       letter-spacing="0"
       word-spacing="0"
       id="path140" />
    <path
       fill="#404030"
       d="M78.6 961h.8v5.8h-.8V961z"
       style="line-height:125%;-inkscape-font-specification:'Gill Sans MT, Normal';text-align:start"
       font-family="Gill Sans MT"
       letter-spacing="0"
       word-spacing="0"
       id="path142" />
    <path
       fill="#404030"
       d="M85.6 964.5v1.6q0 .2.13.2.14 0 .45-.2v.47q-.27.16-.44.22-.16.05-.34.05-.5 0-.6-.38-.52.38-1.1.38-.4 0-.7-.27-.28-.26-.28-.66 0-.36.28-.64.27-.3.78-.46l1.02-.33v-.2q0-.7-.73-.7-.65 0-1.27.64v-.83q.46-.5 1.34-.5.65 0 1.05.32.12.1.23.27.1.16.13.34.03.17.03.65zm-.8 1.53v-1.13l-.53.2q-.4.15-.58.3-.18.16-.18.4 0 .23.16.38t.4.15q.4 0 .72-.3z"
       style="line-height:125%;-inkscape-font-specification:'Gill Sans MT, Normal';text-align:start"
       font-family="Gill Sans MT"
       letter-spacing="0"
       word-spacing="0"
       id="path144" />
    <path
       fill="#404030"
       d="M89.6 961h.8v5.8h-1.7q-.9 0-1.44-.55-.53-.53-.53-1.44 0-.83.56-1.37.55-.55 1.42-.55.4 0 .88.17V961zm0 5.14v-2.42q-.38-.18-.76-.18-.6 0-.95.37-.36.38-.36 1 0 .6.3.92.2.2.4.25.2.07.74.07h.62z"
       style="line-height:125%;-inkscape-font-specification:'Gill Sans MT, Normal';text-align:start"
       font-family="Gill Sans MT"
       letter-spacing="0"
       word-spacing="0"
       id="path146" />
    <path
       fill="#404030"
       d="M94.1 961h.8v5.8h-1.7q-.9 0-1.43-.55-.53-.53-.53-1.44 0-.83.55-1.37.56-.55 1.43-.55.4 0 .88.17V961zm0 5.14v-2.42q-.37-.18-.75-.18-.6 0-.95.37-.35.38-.35 1 0 .6.3.92.2.2.4.25.2.07.74.07h.6z"
       style="line-height:125%;-inkscape-font-specification:'Gill Sans MT, Normal';text-align:start"
       font-family="Gill Sans MT"
       letter-spacing="0"
       word-spacing="0"
       id="path148" />
    <path
       fill="#404030"
       d="M99.45 964.94H96.6q.04.55.4.88.35.32.92.32.8 0 1.46-.47v.74q-.37.25-.73.35-.36.1-.85.1-.67 0-1.08-.27-.42-.26-.67-.7-.24-.44-.24-1.02 0-.88.53-1.42.52-.55 1.36-.55.8 0 1.27.52.48.54.48 1.43v.1zm-2.82-.45h2.03q-.03-.46-.3-.7-.24-.25-.67-.25-.44 0-.72.24-.27.24-.35.7z"
       style="line-height:125%;-inkscape-font-specification:'Gill Sans MT, Normal';text-align:start"
       font-family="Gill Sans MT"
       letter-spacing="0"
       word-spacing="0"
       id="path150" />
    <path
       fill="#404030"
       d="M103 961h.82v5.8h-1.7q-.9 0-1.45-.55-.53-.53-.53-1.44 0-.83.56-1.37.56-.55 1.43-.55.4 0 .88.17V961zm0 5.14v-2.42q-.36-.18-.74-.18-.6 0-.96.37-.35.38-.35 1 0 .6.3.92.2.2.4.25.2.07.74.07h.6z"
       style="line-height:125%;-inkscape-font-specification:'Gill Sans MT, Normal';text-align:start"
       font-family="Gill Sans MT"
       letter-spacing="0"
       word-spacing="0"
       id="path152" />
    <path
       fill="#404030"
       d="M42.1 977.15v-.82q.34.23.7.37.34.13.6.13.24 0 .42-.1.18-.13.18-.3 0-.16-.12-.26-.12-.12-.5-.32-.78-.4-1.02-.7-.24-.3-.24-.63 0-.44.36-.72.37-.28.94-.28.6 0 1.22.32v.75q-.7-.42-1.17-.42-.23 0-.37.1-.14.1-.14.24 0 .13.12.25.13.12.46.3l.3.15q1 .54 1 1.2 0 .46-.4.77-.38.3-1 .3-.35 0-.63-.08t-.7-.27z"
       style="line-height:125%;-inkscape-font-specification:'Gill Sans MT, Normal';text-align:start"
       font-family="Gill Sans MT"
       letter-spacing="0"
       word-spacing="0"
       id="path154" />
    <path
       fill="#404030"
       d="M45.2 974.2l1.5-1.4v.8h1.27v.68H46.7v1.87q0 .66.57.66.43 0 .9-.26v.7q-.45.25-1 .25-.54 0-.9-.32-.12-.1-.2-.2-.07-.12-.13-.3-.04-.2-.04-.7v-1.7h-.7v-.07z"
       style="line-height:125%;-inkscape-font-specification:'Gill Sans MT, Normal';text-align:start"
       font-family="Gill Sans MT"
       letter-spacing="0"
       word-spacing="0"
       id="path156" />
    <path
       fill="#404030"
       d="M51.24 973.6h.9l-2.86 5.77h-.9l1.38-2.77-1.56-3h.9l1.1 2.15 1.04-2.15z"
       style="line-height:125%;-inkscape-font-specification:'Gill Sans MT, Normal';text-align:start"
       font-family="Gill Sans MT"
       letter-spacing="0"
       word-spacing="0"
       id="path158" />
    <path
       fill="#404030"
       d="M52.72 971.62h.8v5.8h-.8v-5.8z"
       style="line-height:125%;-inkscape-font-specification:'Gill Sans MT, Normal';text-align:start"
       font-family="Gill Sans MT"
       letter-spacing="0"
       word-spacing="0"
       id="path160" />
    <path
       fill="#404030"
       d="M58.12 975.58h-2.84q.03.54.38.87.36.32.93.32.78 0 1.45-.46v.75q-.37.23-.74.33-.35.1-.83.1-.67 0-1.1-.26-.4-.27-.65-.7-.24-.45-.24-1.03 0-.88.52-1.43.52-.55 1.36-.55.8 0 1.28.54.48.53.48 1.42v.1zm-2.83-.46h2.03q-.03-.45-.3-.7-.24-.24-.67-.24-.43 0-.7.25-.28.24-.37.7z"
       style="line-height:125%;-inkscape-font-specification:'Gill Sans MT, Normal';text-align:start"
       font-family="Gill Sans MT"
       letter-spacing="0"
       word-spacing="0"
       id="path162" />
    <path
       fill="#404030"
       d="M59.57 976.5q.22 0 .38.14t.16.36q0 .2-.15.34-.15.15-.38.15t-.38-.16q-.16-.14-.16-.34 0-.22.15-.36.14-.15.37-.15z"
       style="line-height:125%;-inkscape-font-specification:'Gill Sans MT, Normal';text-align:start"
       font-family="Gill Sans MT"
       letter-spacing="0"
       word-spacing="0"
       id="path164" />
    <path
       fill="#404030"
       d="M64.16 976.53v.74q-.6.22-1.18.22-.95 0-1.52-.55-.56-.53-.56-1.42 0-.9.55-1.45.55-.56 1.45-.56.3 0 .55.06.26.06.62.2v.82q-.6-.37-1.13-.37-.54 0-.88.36-.35.35-.35.9 0 .6.38.94.38.34 1.02.34.46 0 1.06-.25z"
       style="line-height:125%;-inkscape-font-specification:'Gill Sans MT, Normal';text-align:start"
       font-family="Gill Sans MT"
       letter-spacing="0"
       word-spacing="0"
       id="path166" />
    <path
       fill="#404030"
       d="M64.87 977.15v-.82q.33.23.7.37.34.13.58.13.25 0 .43-.1.18-.13.18-.3 0-.16-.1-.26-.13-.12-.52-.32-.77-.4-1-.7-.25-.3-.25-.63 0-.44.35-.72.37-.28.94-.28.58 0 1.2.32v.75q-.7-.42-1.16-.42-.23 0-.38.1-.14.1-.14.24 0 .13.13.25t.46.3l.3.15q1 .54 1 1.2 0 .46-.4.77-.37.3-1 .3-.35 0-.63-.08t-.7-.27z"
       style="line-height:125%;-inkscape-font-specification:'Gill Sans MT, Normal';text-align:start"
       font-family="Gill Sans MT"
       letter-spacing="0"
       word-spacing="0"
       id="path168" />
    <path
       fill="#404030"
       d="M68.33 977.15v-.82q.34.23.7.37.34.13.6.13.24 0 .42-.1.18-.13.18-.3 0-.16-.12-.26-.1-.12-.5-.32-.77-.4-1-.7-.24-.3-.24-.63 0-.44.36-.72.36-.28.93-.28.6 0 1.22.32v.75q-.7-.42-1.17-.42-.23 0-.37.1-.14.1-.14.24 0 .13.1.25.15.12.47.3l.3.15q1 .54 1 1.2 0 .46-.4.77-.38.3-1 .3-.35 0-.63-.08t-.7-.27z"
       style="line-height:125%;-inkscape-font-specification:'Gill Sans MT, Normal';text-align:start"
       font-family="Gill Sans MT"
       letter-spacing="0"
       word-spacing="0"
       id="path170" />
    <path
       fill="#404030"
       d="M77.03 975.12v1.63q0 .2.14.2t.45-.2v.45q-.27.17-.44.22-.16.07-.34.07-.52 0-.6-.4-.52.38-1.1.38-.42 0-.7-.26-.28-.27-.28-.67 0-.36.27-.64.28-.28.8-.44l1-.34v-.2q0-.7-.72-.7-.64 0-1.26.65v-.83q.46-.52 1.34-.52.65 0 1.05.33.13.1.23.28.1.17.14.34.03.17.03.65zm-.8 1.54v-1.13l-.53.2q-.4.15-.58.3-.16.16-.16.4 0 .23.16.38.16.16.4.16.4 0 .72-.3z"
       style="line-height:125%;-inkscape-font-specification:'Gill Sans MT, Normal';text-align:start"
       font-family="Gill Sans MT"
       letter-spacing="0"
       word-spacing="0"
       id="path172" />
    <path
       fill="#404030"
       d="M81.04 971.62h.8v5.8h-1.7q-.9 0-1.44-.54-.53-.53-.53-1.43 0-.85.55-1.4.57-.53 1.44-.53.4 0 .88.16v-2.06zm0 5.15v-2.42q-.38-.18-.76-.18-.6 0-.95.37-.36.37-.36 1 0 .6.3.9.2.2.4.27t.75.07h.62z"
       style="line-height:125%;-inkscape-font-specification:'Gill Sans MT, Normal';text-align:start"
       font-family="Gill Sans MT"
       letter-spacing="0"
       word-spacing="0"
       id="path174" />
    <path
       fill="#404030"
       d="M85.54 971.62h.8v5.8h-1.7q-.9 0-1.43-.54-.53-.53-.53-1.43 0-.85.56-1.4.57-.53 1.44-.53.4 0 .87.16v-2.06zm0 5.15v-2.42q-.37-.18-.75-.18-.6 0-.96.37t-.36 1q0 .6.3.9.2.2.4.27t.75.07h.6z"
       style="line-height:125%;-inkscape-font-specification:'Gill Sans MT, Normal';text-align:start"
       font-family="Gill Sans MT"
       letter-spacing="0"
       word-spacing="0"
       id="path176" />
    <path
       fill="#404030"
       d="M90.9 975.58h-2.85q.03.54.38.87.36.32.93.32.8 0 1.46-.46v.75q-.37.23-.73.33-.38.1-.86.1-.67 0-1.08-.26-.42-.27-.67-.7-.25-.45-.25-1.03 0-.88.52-1.43.52-.55 1.36-.55.8 0 1.28.54.5.53.5 1.42v.1zm-2.84-.46h2.04q-.03-.45-.3-.7-.24-.24-.67-.24-.43 0-.7.25-.28.24-.37.7z"
       style="line-height:125%;-inkscape-font-specification:'Gill Sans MT, Normal';text-align:start"
       font-family="Gill Sans MT"
       letter-spacing="0"
       word-spacing="0"
       id="path178" />
    <path
       fill="#404030"
       d="M94.45 971.62h.8v5.8h-1.7q-.9 0-1.44-.54-.52-.53-.52-1.43 0-.85.56-1.4.56-.53 1.43-.53.4 0 .88.16v-2.06zm0 5.15v-2.42q-.37-.18-.76-.18-.6 0-.96.37-.35.37-.35 1 0 .6.3.9.18.2.4.27.2.07.73.07h.62z"
       style="line-height:125%;-inkscape-font-specification:'Gill Sans MT, Normal';text-align:start"
       font-family="Gill Sans MT"
       letter-spacing="0"
       word-spacing="0"
       id="path180" />
    <path
       fill="#404030"
       d="M42.3 982.25h.8v5.8h-.8v-5.8z"
       style="line-height:125%;-inkscape-font-specification:'Gill Sans MT, Normal';text-align:start"
       font-family="Gill Sans MT"
       letter-spacing="0"
       word-spacing="0"
       id="path182" />
    <path
       fill="#404030"
       d="M46.2 984.22q.92 0 1.53.57.6.55.6 1.4 0 .83-.6 1.37-.63.55-1.57.55-.9 0-1.52-.55-.6-.56-.6-1.4 0-.83.6-1.4.63-.55 1.56-.55zm-.05.68q-.57 0-.94.36-.36.36-.36.9 0 .56.38.9.38.35.97.35.58 0 .95-.34.38-.35.38-.9 0-.54-.4-.9-.38-.36-.98-.36z"
       style="line-height:125%;-inkscape-font-specification:'Gill Sans MT, Normal';text-align:start"
       font-family="Gill Sans MT"
       letter-spacing="0"
       word-spacing="0"
       id="path184" />
    <path
       fill="#404030"
       d="M49.03 985.55q0-.6.47-.96.48-.37 1.3-.37h1.66v.6h-.82q.24.22.33.4.1.2.1.43 0 .3-.18.6-.2.28-.48.43-.28.15-.93.24-.46.06-.46.3 0 .13.17.2.18.1.62.2.75.14.96.23.2.1.38.25.3.27.3.7 0 .53-.52.86-.5.32-1.37.32-.86 0-1.38-.33-.53-.32-.53-.87 0-.78 1.02-1-.42-.25-.42-.5 0-.17.18-.32.17-.15.47-.22-.9-.37-.9-1.2zm1.5-.66q-.32 0-.55.2-.23.2-.23.5t.23.48q.22.2.57.2.33 0 .56-.2.24-.2.24-.5t-.23-.5q-.22-.2-.56-.2zm-.18 3.33q-.4 0-.67.16-.25.15-.25.4 0 .6 1.12.6.54 0 .83-.15.3-.15.3-.42 0-.26-.38-.43-.37-.17-.95-.17z"
       style="line-height:125%;-inkscape-font-specification:'Gill Sans MT, Normal';text-align:start"
       font-family="Gill Sans MT"
       letter-spacing="0"
       word-spacing="0"
       id="path186" />
    <path
       fill="#404030"
       d="M54.95 984.22q.92 0 1.53.57.6.55.6 1.4 0 .83-.6 1.37-.63.55-1.57.55-.9 0-1.5-.55-.62-.56-.62-1.4 0-.83.6-1.4.63-.55 1.57-.55zm-.05.68q-.57 0-.94.36t-.37.9q0 .56.37.9.37.35.97.35t.96-.34q.38-.35.38-.9 0-.54-.4-.9t-.98-.36z"
       style="line-height:125%;-inkscape-font-specification:'Gill Sans MT, Normal';text-align:start"
       font-family="Gill Sans MT"
       letter-spacing="0"
       word-spacing="0"
       id="path188" />
    <path
       fill="#404030"
       d="M58.14 987.13q.22 0 .38.14.16.15.16.36 0 .2-.16.35-.16.14-.38.14-.23 0-.38-.14-.16-.14-.16-.35 0-.2.16-.36.15-.14.38-.14z"
       style="line-height:125%;-inkscape-font-specification:'Gill Sans MT, Normal';text-align:start"
       font-family="Gill Sans MT"
       letter-spacing="0"
       word-spacing="0"
       id="path190" />
    <path
       fill="#404030"
       d="M59.65 990v-5.77h1.4q1.08 0 1.67.5.6.5.6 1.42 0 .86-.56 1.42-.56.55-1.44.55-.38 0-.85-.16V990h-.82zm1.38-5.06h-.56v2.35q.36.17.77.17.56 0 .92-.37t.36-.95q0-.38-.17-.66-.17-.3-.46-.43-.3-.13-.87-.13z"
       style="line-height:125%;-inkscape-font-specification:'Gill Sans MT, Normal';text-align:start"
       font-family="Gill Sans MT"
       letter-spacing="0"
       word-spacing="0"
       id="path192" />
    <path
       fill="#404030"
       d="M65 984.23v.5q.54-.57 1.22-.57.38 0 .7.18.33.2.5.5.17.33.17 1.03v2.18h-.8v-2.17q0-.6-.2-.84-.2-.25-.64-.25-.56 0-.96.52v2.73h-.82v-3.82H65z"
       style="line-height:125%;-inkscape-font-specification:'Gill Sans MT, Normal';text-align:start"
       font-family="Gill Sans MT"
       letter-spacing="0"
       word-spacing="0"
       id="path194" />
    <path
       fill="#404030"
       d="M68.5 985.55q0-.6.47-.96.47-.37 1.3-.37h1.65v.6h-.8q.22.22.32.4.1.2.1.43 0 .3-.2.6-.17.28-.46.43-.28.15-.92.24-.46.06-.46.3 0 .13.17.2.17.1.6.2.76.14.97.23.2.1.4.25.28.27.28.7 0 .53-.52.86-.5.32-1.37.32-.86 0-1.38-.33-.5-.32-.5-.87 0-.78 1-1-.4-.25-.4-.5 0-.17.17-.32t.47-.22q-.9-.37-.9-1.2zm1.5-.66q-.33 0-.55.2-.23.2-.23.5t.22.48q.22.2.57.2t.57-.2q.23-.2.23-.5t-.23-.5q-.23-.2-.57-.2zm-.2 3.33q-.4 0-.65.16-.26.15-.26.4 0 .6 1.12.6.53 0 .82-.15.3-.15.3-.42 0-.26-.38-.43-.37-.17-.95-.17z"
       style="line-height:125%;-inkscape-font-specification:'Gill Sans MT, Normal';text-align:start"
       font-family="Gill Sans MT"
       letter-spacing="0"
       word-spacing="0"
       id="path196" />
    <path
       fill="#404030"
       d="M77.6 985.75v1.63q0 .2.13.2.15 0 .45-.2v.45q-.27.17-.44.23-.16.06-.34.06-.5 0-.6-.38-.52.37-1.1.37-.4 0-.7-.25-.28-.27-.28-.67 0-.36.28-.64.27-.3.78-.45l1.02-.35v-.2q0-.7-.73-.7-.65 0-1.27.65v-.82q.46-.52 1.34-.52.65 0 1.05.32.12.1.23.28.1.17.13.34t.03.65zm-.8 1.55v-1.14l-.53.2q-.4.15-.58.3-.18.16-.18.4 0 .23.16.38t.42.15q.38 0 .7-.3z"
       style="line-height:125%;-inkscape-font-specification:'Gill Sans MT, Normal';text-align:start"
       font-family="Gill Sans MT"
       letter-spacing="0"
       word-spacing="0"
       id="path198" />
    <path
       fill="#404030"
       d="M81.6 982.25h.8v5.8h-1.7q-.9 0-1.44-.53-.53-.54-.53-1.44 0-.84.56-1.4.55-.53 1.42-.53.4 0 .88.16v-2.05zm0 5.15v-2.42q-.38-.18-.76-.18-.6 0-.95.37-.36.37-.36 1 0 .6.3.9.2.2.4.27.2.06.74.06h.62z"
       style="line-height:125%;-inkscape-font-specification:'Gill Sans MT, Normal';text-align:start"
       font-family="Gill Sans MT"
       letter-spacing="0"
       word-spacing="0"
       id="path200" />
    <path
       fill="#404030"
       d="M86.1 982.25h.8v5.8h-1.7q-.9 0-1.43-.53-.53-.54-.53-1.44 0-.84.56-1.4.56-.53 1.43-.53.4 0 .88.16v-2.05zm0 5.15v-2.42q-.37-.18-.75-.18-.6 0-.95.37t-.35 1q0 .6.3.9.2.2.4.27.2.06.74.06h.6z"
       style="line-height:125%;-inkscape-font-specification:'Gill Sans MT, Normal';text-align:start"
       font-family="Gill Sans MT"
       letter-spacing="0"
       word-spacing="0"
       id="path202" />
    <path
       fill="#404030"
       d="M91.45 986.2H88.6q.04.56.4.88.36.32.92.32.8 0 1.46-.46v.74q-.37.23-.73.33t-.85.1q-.67 0-1.08-.25-.4-.26-.67-.7-.24-.45-.24-1.03 0-.87.53-1.42.52-.54 1.36-.54.8 0 1.27.53.48.52.48 1.4v.1zm-2.82-.45h2.03q-.03-.45-.28-.7-.26-.24-.7-.24-.42 0-.7.26-.27.24-.35.7z"
       style="line-height:125%;-inkscape-font-specification:'Gill Sans MT, Normal';text-align:start"
       font-family="Gill Sans MT"
       letter-spacing="0"
       word-spacing="0"
       id="path204" />
    <path
       fill="#404030"
       d="M95 982.25h.82v5.8h-1.7q-.9 0-1.45-.53-.53-.54-.53-1.44 0-.84.56-1.4.56-.53 1.43-.53.4 0 .88.16v-2.05zm0 5.15v-2.42q-.36-.18-.74-.18-.6 0-.96.37-.35.37-.35 1 0 .6.3.9.2.2.4.27.2.06.74.06h.6z"
       style="line-height:125%;-inkscape-font-specification:'Gill Sans MT, Normal';text-align:start"
       font-family="Gill Sans MT"
       letter-spacing="0"
       word-spacing="0"
       id="path206" />
    <rect
       width="74"
       height="39.5"
       x="35.957"
       y="955.986"
       fill="none"
       stroke="#ddd"
       rx="4"
       ry="4"
       stroke-linecap="round"
       stroke-linejoin="round"
       id="rect208" />
    <path
       fill="#404030"
       d="M118.8 960.86q.2 0 .33.13.14.12.14.3 0 .2-.14.32-.14.13-.33.13-.2 0-.33-.13-.14-.14-.14-.32 0-.17.14-.3.14-.14.33-.14zm-.4 1.6h.8v3.83h-.8v-3.83z"
       style="line-height:125%;-inkscape-font-specification:'Gill Sans MT, Normal';text-align:start"
       font-family="Gill Sans MT"
       letter-spacing="0"
       word-spacing="0"
       id="path210" />
    <path
       fill="#404030"
       d="M121.15 962.47v.48q.54-.56 1.22-.56.38 0 .7.18.33.18.5.5.17.33.17 1.02v2.2h-.8v-2.2q0-.57-.2-.82-.18-.26-.63-.26-.55 0-.95.54v2.73h-.82v-3.83h.82z"
       style="line-height:125%;-inkscape-font-specification:'Gill Sans MT, Normal';text-align:start"
       font-family="Gill Sans MT"
       letter-spacing="0"
       word-spacing="0"
       id="path212" />
    <path
       fill="#404030"
       d="M127.55 960.5h.8v5.8h-1.7q-.9 0-1.44-.55-.52-.53-.52-1.44 0-.83.56-1.37.56-.55 1.43-.55.4 0 .88.17v-2.06zm0 5.14v-2.42q-.37-.18-.76-.18-.6 0-.96.37-.35.38-.35 1 0 .6.3.92.18.2.4.25.2.07.73.07h.62z"
       style="line-height:125%;-inkscape-font-specification:'Gill Sans MT, Normal';text-align:start"
       font-family="Gill Sans MT"
       letter-spacing="0"
       word-spacing="0"
       id="path214" />
    <path
       fill="#404030"
       d="M132.9 964.44h-2.86q.03.55.4.88.35.32.92.32.8 0 1.46-.47v.74q-.37.25-.74.35-.36.1-.85.1-.66 0-1.08-.27-.4-.26-.66-.7-.26-.44-.26-1.02 0-.88.53-1.42.52-.55 1.35-.55.8 0 1.3.52.47.54.47 1.43v.1zm-2.84-.45h2.04q-.04-.46-.3-.7-.25-.25-.68-.25-.43 0-.7.24-.28.24-.36.7z"
       style="line-height:125%;-inkscape-font-specification:'Gill Sans MT, Normal';text-align:start"
       font-family="Gill Sans MT"
       letter-spacing="0"
       word-spacing="0"
       id="path216" />
    <path
       fill="#404030"
       d="M136.54 962.47h1.02l-1.66 1.88 1.78 1.94h-1.02l-1.27-1.38-1.2 1.37h-1.02l1.7-1.95-1.7-1.88h1l1.2 1.3 1.16-1.3z"
       style="line-height:125%;-inkscape-font-specification:'Gill Sans MT, Normal';text-align:start"
       font-family="Gill Sans MT"
       letter-spacing="0"
       word-spacing="0"
       id="path218" />
    <path
       fill="#404030"
       d="M138.66 965.36q.23 0 .38.15.16.15.16.36 0 .2-.16.35-.15.15-.38.15-.22 0-.38-.14-.15-.13-.15-.34 0-.2.15-.35.16-.14.38-.14z"
       style="line-height:125%;-inkscape-font-specification:'Gill Sans MT, Normal';text-align:start"
       font-family="Gill Sans MT"
       letter-spacing="0"
       word-spacing="0"
       id="path220" />
    <path
       fill="#404030"
       d="M140.2 960.5h.8v2.47q.5-.58 1.24-.58.4 0 .73.18.32.2.47.53.16.35.16 1v2.2h-.8v-2.38q0-.4-.22-.67-.2-.26-.57-.26-.25 0-.5.12-.22.13-.5.43v2.74h-.8v-5.8z"
       style="line-height:125%;-inkscape-font-specification:'Gill Sans MT, Normal';text-align:start"
       font-family="Gill Sans MT"
       letter-spacing="0"
       word-spacing="0"
       id="path222" />
    <path
       fill="#404030"
       d="M144.15 963.07l1.5-1.4v.8h1.28v.68h-1.28v1.87q0 .66.58.66.43 0 .9-.28v.7q-.45.25-1 .25t-.9-.3q-.13-.1-.2-.2-.07-.12-.13-.3-.05-.2-.05-.7v-1.7h-.7v-.08z"
       style="line-height:125%;-inkscape-font-specification:'Gill Sans MT, Normal';text-align:start"
       font-family="Gill Sans MT"
       letter-spacing="0"
       word-spacing="0"
       id="path224" />
    <path
       fill="#404030"
       d="M151.04 963.5v2.8h-.8v-2.14q0-.63-.2-.88-.17-.26-.6-.26-.27 0-.48.1-.2.12-.47.4v2.77h-.8v-3.83h.8v.5q.6-.58 1.18-.58.77 0 1.2.68.64-.7 1.34-.7.6 0 .96.4.4.42.4 1.25v2.26h-.8V964q0-.47-.22-.73-.2-.26-.6-.26-.5 0-.92.47z"
       style="line-height:125%;-inkscape-font-specification:'Gill Sans MT, Normal';text-align:start"
       font-family="Gill Sans MT"
       letter-spacing="0"
       word-spacing="0"
       id="path226" />
    <path
       fill="#404030"
       d="M154.7 960.5h.8v5.8h-.8v-5.8z"
       style="line-height:125%;-inkscape-font-specification:'Gill Sans MT, Normal';text-align:start"
       font-family="Gill Sans MT"
       letter-spacing="0"
       word-spacing="0"
       id="path228" />
    <path
       fill="#404030"
       d="M162.17 965.4v.74q-.6.2-1.18.2-.96 0-1.53-.52-.56-.53-.56-1.42 0-.9.56-1.46.55-.55 1.45-.55.32 0 .56.05.25.05.62.2v.8q-.6-.35-1.13-.35-.54 0-.88.36-.35.36-.35.9 0 .6.37.94.37.35 1 .35.47 0 1.07-.26z"
       style="line-height:125%;-inkscape-font-specification:'Gill Sans MT, Normal';text-align:start"
       font-family="Gill Sans MT"
       letter-spacing="0"
       word-spacing="0"
       id="path230" />
    <path
       fill="#404030"
       d="M163.06 960.5h.8v2.47q.5-.58 1.24-.58.4 0 .72.18.32.2.48.53.16.35.16 1v2.2h-.8v-2.38q0-.4-.22-.67-.22-.26-.57-.26-.27 0-.5.12-.23.13-.52.43v2.74h-.8v-5.8z"
       style="line-height:125%;-inkscape-font-specification:'Gill Sans MT, Normal';text-align:start"
       font-family="Gill Sans MT"
       letter-spacing="0"
       word-spacing="0"
       id="path232" />
    <path
       fill="#404030"
       d="M170.1 964v1.6q0 .2.15.2t.46-.2v.47q-.27.16-.43.22-.17.05-.35.05-.5 0-.6-.38-.5.38-1.1.38-.4 0-.7-.27-.27-.26-.27-.66 0-.36.27-.64.28-.3.78-.46l1.03-.33v-.2q0-.7-.73-.7-.66 0-1.28.64v-.83q.47-.5 1.34-.5.66 0 1.05.32.15.1.25.27.1.16.13.34.03.17.03.65zm-.77 1.53v-1.13l-.54.2q-.42.15-.6.3-.16.16-.16.4 0 .23.16.38t.42.15q.38 0 .7-.3z"
       style="line-height:125%;-inkscape-font-specification:'Gill Sans MT, Normal';text-align:start"
       font-family="Gill Sans MT"
       letter-spacing="0"
       word-spacing="0"
       id="path234" />
    <path
       fill="#404030"
       d="M172.22 962.47v.48q.54-.56 1.22-.56.38 0 .7.18.33.18.5.5.17.33.17 1.02v2.2h-.8v-2.2q0-.57-.18-.82-.2-.26-.63-.26-.58 0-.98.54v2.73h-.8v-3.83h.8z"
       style="line-height:125%;-inkscape-font-specification:'Gill Sans MT, Normal';text-align:start"
       font-family="Gill Sans MT"
       letter-spacing="0"
       word-spacing="0"
       id="path236" />
    <path
       fill="#404030"
       d="M175.72 963.8q0-.62.47-.98.46-.35 1.28-.35h1.67v.6h-.82q.24.2.33.4.1.2.1.43 0 .3-.2.6-.17.28-.46.43-.28.15-.92.24-.46.07-.46.3 0 .13.17.22.16.07.6.16.75.16.96.24.22.1.4.25.28.28.28.7 0 .54-.52.86-.5.34-1.36.34-.87 0-1.4-.33-.5-.32-.5-.86 0-.78 1-1-.4-.25-.4-.5 0-.17.18-.32t.47-.22q-.88-.38-.88-1.2zm1.5-.68q-.32 0-.55.2-.23.22-.23.5 0 .3.22.5.23.2.57.2.34 0 .56-.2.22-.2.22-.5t-.23-.5q-.24-.2-.58-.2zm-.2 3.35q-.4 0-.65.16-.26.16-.26.4 0 .6 1.14.6.53 0 .82-.15.3-.14.3-.4 0-.28-.37-.45-.38-.16-.97-.16z"
       style="line-height:125%;-inkscape-font-specification:'Gill Sans MT, Normal';text-align:start"
       font-family="Gill Sans MT"
       letter-spacing="0"
       word-spacing="0"
       id="path238" />
    <path
       fill="#404030"
       d="M183.22 964.44h-2.84q.03.55.38.88.36.32.93.32.78 0 1.45-.47v.74q-.37.25-.73.35-.36.1-.85.1-.67 0-1.08-.27-.43-.26-.68-.7-.24-.44-.24-1.02 0-.88.52-1.42.52-.55 1.36-.55.8 0 1.28.52.48.54.48 1.43v.1zm-2.83-.45h2.03q-.03-.46-.3-.7-.24-.25-.67-.25-.43 0-.7.24-.28.24-.37.7z"
       style="line-height:125%;-inkscape-font-specification:'Gill Sans MT, Normal';text-align:start"
       font-family="Gill Sans MT"
       letter-spacing="0"
       word-spacing="0"
       id="path240" />
    <path
       fill="#404030"
       d="M186.78 960.5h.8v5.8h-1.7q-.9 0-1.44-.55-.53-.53-.53-1.44 0-.83.57-1.37.56-.55 1.43-.55.4 0 .88.17v-2.06zm0 5.14v-2.42q-.37-.18-.76-.18-.6 0-.95.37-.35.38-.35 1 0 .6.3.92.2.2.4.25.2.07.74.07h.62z"
       style="line-height:125%;-inkscape-font-specification:'Gill Sans MT, Normal';text-align:start"
       font-family="Gill Sans MT"
       letter-spacing="0"
       word-spacing="0"
       id="path242" />
    <rect
       width="74"
       height="17"
       x="115.957"
       y="955.486"
       fill="none"
       stroke="#ddd"
       rx="4"
       ry="4"
       stroke-linecap="round"
       stroke-linejoin="round"
       id="rect244" />
  </g>
</svg>
