<?xml version="1.0" encoding="UTF-8" standalone="no"?>
<svg
   xmlns:dc="http://purl.org/dc/elements/1.1/"
   xmlns:cc="http://creativecommons.org/ns#"
   xmlns:rdf="http://www.w3.org/1999/02/22-rdf-syntax-ns#"
   xmlns:svg="http://www.w3.org/2000/svg"
   xmlns="http://www.w3.org/2000/svg"
   xmlns:sodipodi="http://sodipodi.sourceforge.net/DTD/sodipodi-0.dtd"
   xmlns:inkscape="http://www.inkscape.org/namespaces/inkscape"
   width="1050"
   height="430"
   version="1.1"
   id="svg254"
   sodipodi:docname="fig-02-13-lrg.svg"
   inkscape:version="0.92.1 r15371">
  <metadata
     id="metadata258">
    <rdf:RDF>
      <cc:Work
         rdf:about="">
        <dc:format>image/svg+xml</dc:format>
        <dc:type
           rdf:resource="http://purl.org/dc/dcmitype/StillImage" />
        <dc:title></dc:title>
      </cc:Work>
    </rdf:RDF>
  </metadata>
  <sodipodi:namedview
     pagecolor="#ffffff"
     bordercolor="#666666"
     borderopacity="1"
     objecttolerance="10"
     gridtolerance="10"
     guidetolerance="10"
     inkscape:pageopacity="0"
     inkscape:pageshadow="2"
     inkscape:window-width="2560"
     inkscape:window-height="1378"
     id="namedview256"
     showgrid="false"
     inkscape:zoom="1.5300444"
     inkscape:cx="411.56168"
     inkscape:cy="147.64858"
     inkscape:window-x="2552"
     inkscape:window-y="-8"
     inkscape:window-maximized="1"
     inkscape:current-layer="svg254" />
  <defs
     id="defs6">
    <marker
       orient="auto"
       overflow="visible"
       id="marker4">
      <path
         fill="#f05133"
         fill-rule="evenodd"
         stroke="#f05133"
         stroke-width=".4pt"
         d="M2.3 0l-3.45 2v-4L2.3 0z"
         id="path2" />
    </marker>
  </defs>
  <g
     transform="translate(0 -622.362)"
     id="g252">
    <ellipse
       cx="509.818"
       cy="682.927"
       fill="none"
       stroke="#c0504d"
       stroke-width="16.709"
       rx="25.063"
       ry="25.063"
       stroke-linecap="round"
       id="ellipse8" />
    <path
       fill="none"
       stroke="#c0504d"
       stroke-width="16.709"
       d="M459.7 682.93h26.73"
       id="path10" />
    <path
       fill="none"
       stroke="#c0504d"
       stroke-width="16.709"
       d="M533.2 682.93h26.75"
       id="path12" />
    <ellipse
       cx="242.475"
       cy="682.927"
       fill="none"
       stroke="#c0504d"
       stroke-width="16.709"
       rx="25.063"
       ry="25.063"
       stroke-linecap="round"
       id="ellipse14" />
    <path
       fill="none"
       stroke="#c0504d"
       stroke-width="16.709"
       d="M192.35 682.93h26.73"
       id="path16" />
    <path
       fill="none"
       stroke="#c0504d"
       stroke-width="16.709"
       d="M265.87 682.93h26.73"
       id="path18" />
    <path
       fill="none"
       stroke="#c0504d"
       stroke-width="16.709"
       d="M283 682.93h183.8"
       id="path20" />
    <path
       fill="none"
       stroke="#c0504d"
       stroke-width="16.86"
       d="M8.55 682.93H195.7"
       stroke-linecap="round"
       id="path22" />
    <path
       fill="#c0504d"
       stroke="#fff"
       stroke-width=".648"
       d="M-700 422.36l-4.33-7.5-4.33-7.5h17.32l-4.33 7.5z"
       transform="matrix(.084 -2.616 2.539 .003 -886.809 -1149.796)"
       stroke-linejoin="round"
       id="path24" />
    <path
       fill="none"
       stroke="#c0504d"
       stroke-width="16.709"
       d="M76.88 682.9l16.55.03"
       id="path26" />
    <path
       fill="#c0504d"
       stroke="#fff"
       stroke-width=".648"
       d="M-700 422.36l-4.33-7.5-4.33-7.5h17.32l-4.33 7.5z"
       transform="matrix(.084 -2.616 2.539 .003 -614.035 -1149.796)"
       stroke-linejoin="round"
       id="path28" />
    <path
       fill="none"
       stroke="#c0504d"
       stroke-width="16.709"
       d="M349.65 682.9l16.56.03"
       id="path30" />
    <path
       fill="#c0504d"
       d="M926.67 633.18v16.35h-4.48V637q0-3.75-1-5.2-1.02-1.5-3.5-1.5-1.4 0-2.58.63-1.15.64-2.65 2.25v16.35h-4.45V627h4.45v2.97q3.4-3.4 6.66-3.4 4.28 0 6.63 4.07 3.58-4.12 7.47-4.12 3.28 0 5.38 2.4 2.14 2.4 2.14 7.32v13.3h-4.45v-13.35q0-2.82-1.16-4.32-1.15-1.5-3.3-1.5-2.77 0-5.17 2.8z"
       style="line-height:125%;-inkscape-font-specification:'Gill Sans MT, Normal';text-align:center"
       font-family="Gill Sans MT"
       letter-spacing="0"
       word-spacing="0"
       text-anchor="middle"
       id="path32" />
    <path
       fill="#c0504d"
       d="M961.03 636v9.57q0 1.15.8 1.15t2.5-1.2v2.7q-1.5 1-2.44 1.34-.92.36-1.92.36-2.86 0-3.38-2.25-2.84 2.2-6.04 2.2-2.35 0-3.92-1.54-1.57-1.57-1.57-3.9 0-2.14 1.52-3.8 1.53-1.7 4.35-2.68l5.7-1.95v-1.2q0-4.07-4.06-4.07-3.66 0-7.1 3.77v-4.87q2.58-3.06 7.46-3.06 3.64 0 5.85 1.9.74.62 1.33 1.65.58 1 .73 2.03.17 1 .17 3.85zm-4.38 9.08v-6.7l-2.98 1.16q-2.28.9-3.24 1.84-.93.9-.93 2.28 0 1.4.9 2.27.9.88 2.3.88 2.14 0 3.95-1.72z"
       style="line-height:125%;-inkscape-font-specification:'Gill Sans MT, Normal';text-align:center"
       font-family="Gill Sans MT"
       letter-spacing="0"
       word-spacing="0"
       text-anchor="middle"
       id="path34" />
    <path
       fill="#c0504d"
       d="M967.22 647.92v-4.8q1.9 1.32 3.85 2.15 1.98.8 3.33.8 1.4 0 2.4-.68 1-.7 1-1.65 0-.97-.66-1.6-.64-.67-2.8-1.9-4.3-2.4-5.65-4.08-1.33-1.72-1.33-3.72 0-2.6 2-4.24 2.04-1.63 5.22-1.63 3.3 0 6.77 1.86v4.4q-3.96-2.4-6.48-2.4-1.3 0-2.12.57-.78.54-.78 1.45 0 .78.7 1.5.74.7 2.55 1.7l1.6.9q5.62 3.2 5.62 7.06 0 2.77-2.18 4.56-2.16 1.76-5.56 1.76-2 0-3.57-.4-1.57-.45-3.95-1.6z"
       style="line-height:125%;-inkscape-font-specification:'Gill Sans MT, Normal';text-align:center"
       font-family="Gill Sans MT"
       letter-spacing="0"
       word-spacing="0"
       text-anchor="middle"
       id="path36" />
    <path
       fill="#c0504d"
       d="M984.46 630.6l8.37-8.24V627h7.12v4.03h-7.12v11.04q0 3.86 3.2 3.86 2.4 0 5.07-1.6v4.15q-2.57 1.44-5.6 1.44-3.06 0-5.1-1.78-.63-.54-1.05-1.2-.42-.7-.7-1.77-.28-1.1-.28-4.16v-9.97h-3.9v-.44z"
       style="line-height:125%;-inkscape-font-specification:'Gill Sans MT, Normal';text-align:center"
       font-family="Gill Sans MT"
       letter-spacing="0"
       word-spacing="0"
       text-anchor="middle"
       id="path38" />
    <path
       fill="#c0504d"
       d="M1023.54 638.66h-15.83q.18 3.23 2.16 5.14 2 1.9 5.17 1.9 4.4 0 8.12-2.73v4.36q-2.05 1.37-4.1 1.96-2 .57-4.7.57-3.73 0-6.03-1.54-2.3-1.54-3.7-4.14-1.37-2.62-1.37-6.05 0-5.14 2.92-8.35 2.9-3.23 7.56-3.23 4.48 0 7.15 3.13 2.66 3.14 2.66 8.4v.56zM1007.8 636h11.34q-.17-2.67-1.6-4.12-1.4-1.44-3.8-1.44t-3.95 1.44q-1.53 1.45-2 4.12z"
       style="line-height:125%;-inkscape-font-specification:'Gill Sans MT, Normal';text-align:center"
       font-family="Gill Sans MT"
       letter-spacing="0"
       word-spacing="0"
       text-anchor="middle"
       id="path40" />
    <path
       fill="#c0504d"
       d="M1033.1 627v5.18l.26-.4q3.23-5.2 6.46-5.2 2.52 0 5.26 2.54l-2.35 3.9q-2.32-2.2-4.3-2.2-2.16 0-3.75 2.07-1.57 2.04-1.57 4.86v11.77h-4.46V627h4.47z"
       style="line-height:125%;-inkscape-font-specification:'Gill Sans MT, Normal';text-align:center"
       font-family="Gill Sans MT"
       letter-spacing="0"
       word-spacing="0"
       text-anchor="middle"
       id="path42" />
    <path
       fill="none"
       stroke="#4f81bd"
       stroke-width="16.709"
       d="M894.12 950.55c-40.7 0-46.13-17.9-101.74-98.33"
       id="path44" />
    <path
       fill="none"
       stroke="#4f81bd"
       stroke-width="16.709"
       d="M643.5 682.93c40.7 0 46.12 17.9 101.74 98.33"
       id="path46" />
    <path
       fill="none"
       stroke="#4f81bd"
       stroke-width="16.709"
       d="M743 777.9l50.77 76.4"
       id="path48" />
    <path
       fill="#4f81bd"
       stroke="#fff"
       stroke-width=".648"
       d="M-700 422.36l-4.33-7.5-4.33-7.5h17.32l-4.33 7.5z"
       transform="matrix(2.222 -1.384 1.408 2.113 1745.403 -1020.545)"
       stroke-linejoin="round"
       id="path50" />
    <path
       fill="none"
       stroke="#4f81bd"
       stroke-width="16.709"
       d="M756.96 798.93l9.18 13.78"
       id="path52" />
    <path
       fill="none"
       stroke="#4f81bd"
       stroke-width="16.709"
       d="M894.12 950.27h147.4"
       stroke-linecap="round"
       id="path54" />
    <path
       fill="none"
       stroke="#c0504d"
       stroke-width="16.86"
       d="M561.38 682.93h475.15"
       stroke-linecap="round"
       id="path56" />
    <path
       fill="#4f81bd"
       stroke="#fff"
       stroke-width=".648"
       d="M-700 422.36l-4.33-7.5-4.33-7.5h17.32l-4.33 7.5z"
       transform="matrix(.084 -2.616 2.539 .003 -61.387 -882.453)"
       stroke-linejoin="round"
       id="path58" />
    <path
       fill="none"
       stroke="#4f81bd"
       stroke-width="16.709"
       d="M902.3 950.26l16.56.02"
       id="path60" />
    <path
       fill="#c0504d"
       stroke="#fff"
       stroke-width=".648"
       d="M-700 422.36l-4.33-7.5-4.33-7.5h17.32l-4.33 7.5z"
       transform="matrix(.084 -2.616 2.539 .003 -61.387 -1149.796)"
       stroke-linejoin="round"
       id="path62" />
    <path
       fill="none"
       stroke="#c0504d"
       stroke-width="16.709"
       d="M902.3 682.9l16.56.03"
       id="path64" />
    <path
       fill="#4f81bd"
       d="M817.58 984.13h4.48v34.2h-9.53q-5 0-7.98-3.17-2.96-3.15-2.96-8.46 0-4.97 3.1-8.18 3.13-3.2 7.98-3.2 2.25 0 4.9.95v-12.14zm0 30.37v-14.27q-2.08-1.05-4.2-1.05-3.34 0-5.33 2.18-1.95 2.18-1.95 5.87 0 3.48 1.7 5.36 1.04 1.12 2.2 1.5 1.14.4 4.12.4h3.46z"
       style="line-height:125%;-inkscape-font-specification:'Gill Sans MT, Normal';text-align:center"
       font-family="Gill Sans MT"
       letter-spacing="0"
       word-spacing="0"
       text-anchor="middle"
       id="path66" />
    <path
       fill="#4f81bd"
       d="M847.3 1007.45h-15.85q.18 3.23 2.16 5.14 2 1.9 5.17 1.9 4.4 0 8.13-2.74v4.36q-2.06 1.37-4.1 1.96-2 .58-4.7.58-3.73 0-6.03-1.54-2.3-1.54-3.7-4.13-1.37-2.63-1.37-6.06 0-5.14 2.9-8.35 2.92-3.24 7.57-3.24 4.48 0 7.15 3.14 2.67 3.13 2.67 8.4v.55zm-15.75-2.66h11.33q-.17-2.68-1.6-4.13-1.4-1.44-3.8-1.44t-3.95 1.44q-1.5 1.45-1.98 4.12z"
       style="line-height:125%;-inkscape-font-specification:'Gill Sans MT, Normal';text-align:center"
       font-family="Gill Sans MT"
       letter-spacing="0"
       word-spacing="0"
       text-anchor="middle"
       id="path68" />
    <path
       fill="#4f81bd"
       d="M865.08 995.8h4.83l-9.93 22.9h-1.5l-10.18-22.9h4.86l6.07 13.86 5.85-13.86z"
       style="line-height:125%;-inkscape-font-specification:'Gill Sans MT, Normal';text-align:center"
       font-family="Gill Sans MT"
       letter-spacing="0"
       word-spacing="0"
       text-anchor="middle"
       id="path70" />
    <path
       fill="#4f81bd"
       d="M872.08 1004.84h12.2v4.77h-12.2v-4.76z"
       style="line-height:125%;-inkscape-font-specification:'Gill Sans MT, Normal';text-align:center"
       font-family="Gill Sans MT"
       letter-spacing="0"
       word-spacing="0"
       text-anchor="middle"
       id="path72" />
    <path
       fill="#4f81bd"
       d="M899.06 983.7q4.7 0 7.76 4.93 3.08 4.92 3.08 12.5 0 7.8-3.08 12.66-3.06 4.86-7.96 4.86-4.97 0-7.98-4.77-3-4.78-3-12.66 0-7.8 3.1-12.66 3.1-4.9 8.08-4.9zm.05 4.64h-.24q-2.8 0-4.48 3.47-1.64 3.47-1.64 9.4 0 6.06 1.62 9.5 1.6 3.46 4.45 3.46t4.5-3.45q1.63-3.44 1.63-9.36 0-5.95-1.6-9.48-1.56-3.52-4.22-3.52z"
       style="line-height:125%;-inkscape-font-specification:'Gill Sans MT, Normal';text-align:center"
       font-family="Gill Sans MT"
       letter-spacing="0"
       word-spacing="0"
       text-anchor="middle"
       id="path74" />
    <path
       fill="#4f81bd"
       d="M921.53 984.13h4.9v34.2h-4.9v-34.2z"
       style="line-height:125%;-inkscape-font-specification:'Gill Sans MT, Normal';text-align:center"
       font-family="Gill Sans MT"
       letter-spacing="0"
       word-spacing="0"
       text-anchor="middle"
       id="path76" />
    <path
       fill="#4f81bd"
       d="M938.46 1004.84h12.2v4.77h-12.2v-4.76z"
       style="line-height:125%;-inkscape-font-specification:'Gill Sans MT, Normal';text-align:center"
       font-family="Gill Sans MT"
       letter-spacing="0"
       word-spacing="0"
       text-anchor="middle"
       id="path78" />
    <path
       fill="#4f81bd"
       d="M958.17 986.33q1.1 0 1.88.76.78.75.78 1.85 0 1.08-.78 1.86-.78.8-1.88.8-1.03 0-1.82-.8-.78-.8-.78-1.85 0-1.03.78-1.8.8-.82 1.82-.82zm-2.2 9.47h4.45v22.52h-4.46V995.8z"
       style="line-height:125%;-inkscape-font-specification:'Gill Sans MT, Normal';text-align:center"
       font-family="Gill Sans MT"
       letter-spacing="0"
       word-spacing="0"
       text-anchor="middle"
       id="path80" />
    <path
       fill="#4f81bd"
       d="M971.3 995.8v2.87q2.97-3.3 6.76-3.3 2.1 0 3.92 1.1 1.8 1.07 2.74 2.98.96 1.9.96 6v12.87h-4.46v-12.82q0-3.46-1.05-4.92-1.05-1.5-3.52-1.5-3.16 0-5.36 3.16v16.08h-4.57V995.8h4.56z"
       style="line-height:125%;-inkscape-font-specification:'Gill Sans MT, Normal';text-align:center"
       font-family="Gill Sans MT"
       letter-spacing="0"
       word-spacing="0"
       text-anchor="middle"
       id="path82" />
    <path
       fill="#4f81bd"
       d="M988.74 999.38l8.37-8.23v4.65h7.13v4.02h-7.12v11.04q0 3.86 3.2 3.86 2.4 0 5.08-1.6v4.15q-2.57 1.44-5.6 1.44-3.06 0-5.1-1.77-.63-.54-1.05-1.2-.4-.7-.7-1.77-.28-1.1-.28-4.16v-9.98h-3.9v-.44z"
       style="line-height:125%;-inkscape-font-specification:'Gill Sans MT, Normal';text-align:center"
       font-family="Gill Sans MT"
       letter-spacing="0"
       word-spacing="0"
       text-anchor="middle"
       id="path84" />
    <path
       fill="#4f81bd"
       d="M1013.4 995.8v5.17l.25-.4q3.23-5.2 6.46-5.2 2.54 0 5.28 2.54l-2.35 3.92q-2.33-2.2-4.3-2.2-2.16 0-3.76 2.06-1.56 2.05-1.56 4.87v11.77h-4.47V995.8h4.48z"
       style="line-height:125%;-inkscape-font-specification:'Gill Sans MT, Normal';text-align:center"
       font-family="Gill Sans MT"
       letter-spacing="0"
       word-spacing="0"
       text-anchor="middle"
       id="path86" />
    <path
       fill="#4f81bd"
       d="M1038.06 995.75q5.14 0 8.54 3.33 3.4 3.3 3.4 8.33 0 4.88-3.45 8.1-3.45 3.2-8.7 3.2-5.06 0-8.46-3.24-3.4-3.28-3.4-8.18 0-4.94 3.42-8.22 3.45-3.3 8.64-3.3zm-.25 4.02q-3.2 0-5.25 2.1-2.06 2.1-2.06 5.36 0 3.23 2.1 5.3 2.1 2.02 5.4 2.02 3.3 0 5.37-2.05 2.1-2.08 2.1-5.3 0-3.22-2.18-5.33-2.18-2.1-5.5-2.1z"
       style="line-height:125%;-inkscape-font-specification:'Gill Sans MT, Normal';text-align:center"
       font-family="Gill Sans MT"
       letter-spacing="0"
       word-spacing="0"
       text-anchor="middle"
       id="path88" />
    <rect
       width="66.836"
       height="66.836"
       x="827.288"
       y="916.852"
       fill="#f05133"
       rx="5"
       ry="5"
       id="rect90" />
    <path
       fill="#fff"
       d="M869.3 951.58h-17.55v18.64h6.38q.5 0 .73.58.3.5.36 1.24.07.65-.15 1.23-.2.5-.65.5H842.1q-.5 0-.8-.5-.22-.58-.22-1.23.07-.73.36-1.24.37-.58 1.02-.58h3.63v-39.9h-5.24q-.5 0-.8-.5-.2-.6-.2-1.24 0-.73.2-1.24.22-.58.8-.58h14.3q.58 0 .87.58.3.5.3 1.24 0 .65-.3 1.23-.3.52-.8.52h-3.48v17.85h17.55v-17.85H864q-.57 0-.86-.5-.22-.6-.22-1.24 0-.73.22-1.24.3-.58.8-.58h14.58q.58 0 .87.58.28.5.2 1.24 0 .65-.36 1.23-.3.52-.87.52h-3.4v39.9h5.5q.5 0 .8.58.3.5.3 1.24 0 .65-.3 1.23-.2.5-.72.5H864.8q-.58 0-.8-.5-.2-.58-.2-1.23.06-.73.35-1.24.3-.58.8-.58h4.35v-18.64z"
       style="line-height:125%;-inkscape-font-specification:'Triplicate T4c, Normal';text-align:start"
       font-family="Triplicate T4c"
       letter-spacing="0"
       word-spacing="0"
       id="path92" />
    <path
       fill="none"
       stroke="#f05133"
       stroke-width="3.342"
       d="M509.82 948.65V874.7"
       stroke-linecap="square"
       id="path94"
       style="stroke-width:3.342;stroke-miterlimit:4;stroke-dasharray:none;marker-end:url(#marker4)" />
    <path
       fill="none"
       stroke="#f05133"
       stroke-width="3.342"
       d="M509.82 950.27H827.3"
       stroke-linecap="square"
       id="path96" />
    <rect
       width="247.292"
       height="53.469"
       x="389.514"
       y="734.725"
       fill="#f8f8f8"
       stroke="#ddd"
       stroke-width="3.342"
       ry="4"
       rx="4"
       stroke-linecap="round"
       stroke-linejoin="round"
       id="rect98" />
    <path
       fill="#404030"
       d="M409.77 770.42q0-1.5.57-2.82.57-1.32 1.5-2.4.93-1.06 2.06-1.8 1.13-.77 2.27-1.16v-.78q-2.53-1.5-3.7-3.4-1.2-1.96-1.2-4.15 0-1.55.67-3 .72-1.48 2-2.6 1.35-1.17 3.2-1.85 1.86-.68 4.24-.68 1.8 0 3.5.5 1.76.47 3.1 1.45 1.4.92 2.2 2.4.84 1.4.84 3.35 0 1.3-.46 2.48-.47 1.17-1.24 2.15-.72.97-1.65 1.7-.88.73-1.7 1.12v.6q2.73 1.06 4.6 3.2 1.84 2.15 1.84 5.32 0 2-.8 3.65-.84 1.6-2.4 2.77-1.48 1.17-3.65 1.8-2.1.68-4.74.68-2.36 0-4.43-.63-2-.63-3.5-1.76-1.45-1.16-2.27-2.72-.83-1.56-.83-3.42zm4.23-.82q0 1.26.42 2.43.4 1.17 1.23 2.15.88.92 2.22 1.5 1.34.54 3.2.54 1.7 0 3.04-.44 1.35-.48 2.28-1.26.93-.83 1.4-1.9.5-1.07.5-2.24 0-2.88-2.42-4.83-2.37-1.95-6.5-2.63-5.36 2.1-5.36 6.68zm.83-15.84q0 1.12.5 2.1.58.97 1.56 1.8.97.83 2.26 1.46 1.34.63 2.84 1.07.5-.2 1.34-.7.87-.53 1.7-1.3.82-.83 1.4-1.95.6-1.17.6-2.64 0-2.67-1.64-4.03-1.65-1.4-4.18-1.4-1.55 0-2.78.52-1.2.48-2 1.3-.8.8-1.2 1.8-.4 1-.4 1.96z"
       style="line-height:125%;-inkscape-font-specification:'Triplicate T4c, Normal';text-align:start"
       font-family="Triplicate T4c"
       letter-spacing="0"
       word-spacing="0"
       id="path100" />
    <path
       fill="#404030"
       d="M440.7 770.42q0-1.5.56-2.82.57-1.32 1.5-2.4.93-1.06 2.06-1.8 1.13-.77 2.27-1.16v-.78q-2.54-1.5-3.72-3.4-1.2-1.96-1.2-4.15 0-1.55.68-3 .72-1.48 2-2.6 1.35-1.17 3.2-1.85 1.86-.68 4.24-.68 1.8 0 3.5.5 1.76.47 3.1 1.45 1.4.92 2.2 2.4.84 1.4.84 3.35 0 1.3-.46 2.48-.47 1.17-1.24 2.15-.72.97-1.65 1.7-.9.73-1.7 1.12v.6q2.72 1.06 4.58 3.2 1.85 2.15 1.85 5.32 0 2-.82 3.65-.82 1.6-2.37 2.77-1.5 1.17-3.66 1.8-2.1.68-4.74.68-2.37 0-4.44-.63-2.02-.63-3.5-1.76-1.46-1.16-2.28-2.72-.83-1.56-.83-3.42zm4.22-.82q0 1.26.42 2.43.4 1.17 1.23 2.15.88.92 2.22 1.5 1.33.54 3.2.54 1.7 0 3.03-.44 1.34-.48 2.27-1.26.93-.83 1.4-1.9.5-1.07.5-2.24 0-2.88-2.42-4.83-2.37-1.95-6.5-2.63-5.36 2.1-5.36 6.68zm.83-15.84q0 1.12.5 2.1.58.97 1.56 1.8 1 .83 2.28 1.46 1.34.63 2.84 1.07.5-.2 1.34-.7.87-.53 1.7-1.3.82-.83 1.4-1.95.6-1.17.6-2.64 0-2.67-1.64-4.03-1.65-1.4-4.18-1.4-1.54 0-2.78.52-1.2.48-2 1.3-.8.8-1.2 1.8-.4 1-.4 1.96z"
       style="line-height:125%;-inkscape-font-specification:'Triplicate T4c, Normal';text-align:start"
       font-family="Triplicate T4c"
       letter-spacing="0"
       word-spacing="0"
       id="path102" />
    <path
       fill="#404030"
       d="M487.9 764.63q-1.43 1.26-3.14 1.95-1.65.63-4.02.63-1.8 0-3.5-.72-1.66-.73-2.94-2.1-1.24-1.36-2.02-3.3-.72-2-.72-4.54t.93-4.53q.92-2 2.4-3.36 1.56-1.4 3.42-2.14 1.9-.73 3.8-.73 2.5 0 4.5.92 2.06.87 3.5 2.72 1.5 1.8 2.33 4.58.82 2.78.82 6.48 0 2.68-.72 5.32-.67 2.58-2 4.82-1.3 2.24-3.2 4.04-1.86 1.76-4.3 2.78-.76.4-1.9.73-1.08.34-2.37.6-1.3.28-2.58.43-1.3.2-2.42.24-.3 0-.46-.4-.16-.38-.16-.87 0-.44.16-.87.15-.44.5-.5 2.02-.28 4.24-.77 2.27-.5 3.66-1.17 2.63-1.12 4.33-3.6 1.7-2.54 2.58-6.24l-.72-.4zm.53-3.32q.1-.47.15-1.06.05-.63.05-1.27.05-.63.05-1.17 0-.53 0-.87 0-1.85-.5-3.4-.53-1.62-1.4-2.74-.88-1.18-2.17-1.8-1.23-.7-2.67-.7-1.34 0-2.48.6-1.13.52-2 1.6-.83 1.02-1.35 2.58-.46 1.5-.46 3.46 0 2.04.5 3.5.58 1.42 1.46 2.4.87.92 1.96 1.36 1.08.44 2.16.44 2.22 0 3.97-.88 1.8-.93 2.73-2.05z"
       style="line-height:125%;-inkscape-font-specification:'Triplicate T4c, Normal';text-align:start"
       font-family="Triplicate T4c"
       letter-spacing="0"
       word-spacing="0"
       id="path104" />
    <path
       fill="#404030"
       d="M518.2 761.07q2.7.78 4.34 2.97 1.7 2.2 1.7 5.12 0 2.1-.87 3.9-.83 1.75-2.43 3.07-1.54 1.3-3.86 2.04-2.27.78-5.16.78-1.96 0-4.5-.58-2.5-.54-4.83-2.1-.43-.3-.43-.78.06-.54.3-.98.32-.5.73-.73.47-.3.88-.06 1.7 1.02 3.4 1.6 1.76.6 4.34.6 3.55 0 5.72-1.7 2.22-1.72 2.22-4.98 0-3.22-1.9-4.93-1.87-1.7-4.7-1.7h-2.22q-.4 0-.57-.4-.15-.43-.15-.92 0-.52.15-.96.2-.44.57-.44h2.37q.8 0 1.6-.3.84-.28 1.5-.97.73-.68 1.2-1.75.46-1.12.46-2.73 0-3.26-1.34-4.68-1.35-1.46-3.36-1.46-1.85 0-2.83.8-.98.77-1.1 2.04-.1 1.46-.8 2.1-.73.63-1.87.63-1.18 0-1.65-.5-.45-.48-.45-1.3 0-.84.57-1.86.6-1 1.75-1.9 1.2-.92 2.84-1.5 1.7-.63 3.92-.63 1.7 0 3.3.48 1.6.5 2.84 1.47 1.24.97 2 2.53.8 1.5.8 3.6 0 2.2-1.36 4-1.34 1.76-3.1 2.53v.6z"
       style="line-height:125%;-inkscape-font-specification:'Triplicate T4c, Normal';text-align:start"
       font-family="Triplicate T4c"
       letter-spacing="0"
       word-spacing="0"
       id="path106" />
    <path
       fill="#404030"
       d="M552.22 767.9h3.15q.67 0 .98.43.3.44.26.97 0 .5-.3.93-.26.44-.72.44h-3.36v7.55q0 .4-.56.6-.57.23-1.24.23-.62 0-1.2-.2-.55-.2-.55-.63v-7.5h-13.72q-.57 0-.83-.64-.25-.68-.36-1.5-.05-.84 0-1.57.1-.77.2-1 3.16-4.74 5.73-9.56 2.57-4.82 3.9-9.94.17-.63.9-.83.76-.24 1.6-.14.8.04 1.43.4.62.28.52.76-.72 2.43-1.96 5-1.25 2.55-2.8 5.13-1.54 2.53-3.24 4.97-1.7 2.44-3.3 4.58v1.5h11.9v-8.95q0-.4.57-.6.57-.18 1.2-.14.66 0 1.23.24.56.2.56.58v8.87z"
       style="line-height:125%;-inkscape-font-specification:'Triplicate T4c, Normal';text-align:start"
       font-family="Triplicate T4c"
       letter-spacing="0"
       word-spacing="0"
       id="path108" />
    <path
       fill="#404030"
       d="M567.67 767.36q.06 4.14 1.86 6.13 1.86 1.94 5.26 1.94 1.6 0 3.24-.2 1.7-.2 3.25-.48 1.6-.3 2.93-.63 1.4-.4 2.42-.78.3-.15.62.1.36.2.57.53.2.34.2.68.06.35-.2.5-1.34.62-3 1.2-1.6.6-3.35 1.08-1.7.44-3.5.68-1.76.3-3.47.3-2.68 0-4.8-.78-2.06-.78-3.5-2.15-1.4-1.42-2.1-3.27-.74-1.9-.74-4.1 0-2.97 1.08-5.3 1.08-2.4 2.78-4 1.76-1.66 3.92-2.54 2.22-.88 4.44-.88 2.42 0 4.43.73 2.06.73 3.5 2.1 1.5 1.36 2.28 3.36.82 1.95.82 4.4 0 .62-.3 1-.27.36-1.04.4l-17.63-.04zm14.6-2.25q-.1-1.35-.52-2.67-.36-1.36-1.18-2.38-.78-1.08-2.07-1.7-1.23-.64-3.1-.64-1.64 0-3.03.6-1.34.58-2.43 1.6-1.03 1.02-1.65 2.4-.63 1.3-.68 2.8h14.65z"
       style="line-height:125%;-inkscape-font-specification:'Triplicate T4c, Normal';text-align:start"
       font-family="Triplicate T4c"
       letter-spacing="0"
       word-spacing="0"
       id="path110" />
    <path
       fill="#404030"
       d="M595.3 770.42q0-1.5.56-2.82.57-1.32 1.5-2.4.93-1.06 2.06-1.8 1.13-.77 2.27-1.16v-.78q-2.54-1.5-3.72-3.4-1.2-1.96-1.2-4.15 0-1.55.68-3 .72-1.48 2-2.6 1.35-1.17 3.2-1.85 1.87-.68 4.24-.68 1.8 0 3.5.5 1.76.47 3.1 1.45 1.4.92 2.22 2.4.82 1.4.82 3.35 0 1.3-.46 2.48-.47 1.17-1.24 2.15-.72.97-1.65 1.7-.9.73-1.7 1.12v.6q2.72 1.06 4.58 3.2 1.85 2.15 1.85 5.32 0 2-.82 3.65-.82 1.6-2.36 2.77-1.5 1.17-3.67 1.8-2.1.68-4.74.68-2.37 0-4.43-.63-2.02-.63-3.5-1.76-1.46-1.16-2.28-2.72-.83-1.56-.83-3.42zm4.22-.82q0 1.26.42 2.43.4 1.17 1.23 2.15.88.92 2.22 1.5 1.33.54 3.2.54 1.7 0 3.03-.44 1.34-.48 2.27-1.26.93-.83 1.4-1.9.5-1.07.5-2.24 0-2.88-2.42-4.83-2.37-1.95-6.5-2.63-5.36 2.1-5.36 6.68zm.83-15.84q0 1.12.5 2.1.58.97 1.56 1.8 1 .83 2.28 1.46 1.34.63 2.84 1.07.5-.2 1.34-.7.87-.53 1.7-1.3.82-.83 1.4-1.95.6-1.17.6-2.64 0-2.67-1.64-4.03-1.65-1.4-4.18-1.4-1.54 0-2.78.52-1.2.48-2 1.3-.8.8-1.2 1.8-.4 1-.4 1.96z"
       style="line-height:125%;-inkscape-font-specification:'Triplicate T4c, Normal';text-align:start"
       font-family="Triplicate T4c"
       letter-spacing="0"
       word-spacing="0"
       id="path112" />
    <rect
       width="247.292"
       height="53.469"
       x="118.829"
       y="734.725"
       fill="#f8f8f8"
       stroke="#ddd"
       stroke-width="3.342"
       ry="4"
       rx="4"
       stroke-linecap="round"
       stroke-linejoin="round"
       id="rect114" />
    <path
       fill="#404030"
       d="M154.77 761.07q2.68.78 4.33 2.97 1.7 2.2 1.7 5.12 0 2.1-.88 3.9-.82 1.75-2.42 3.07-1.55 1.3-3.87 2.04-2.27.78-5.16.78-1.96 0-4.48-.58-2.54-.54-4.86-2.1-.4-.3-.4-.78.04-.54.3-.98.3-.5.72-.73.46-.3.88-.06 1.7 1.02 3.4 1.6 1.75.6 4.33.6 3.56 0 5.73-1.7 2.2-1.72 2.2-4.98 0-3.22-1.9-4.93-1.85-1.7-4.7-1.7h-2.2q-.42 0-.57-.4-.16-.43-.16-.92 0-.52.16-.96.2-.44.56-.44h2.37q.77 0 1.6-.3.82-.28 1.5-.97.7-.68 1.18-1.75.46-1.12.46-2.73 0-3.26-1.33-4.68-1.34-1.46-3.35-1.46-1.86 0-2.84.8-.98.77-1.08 2.04-.1 1.46-.83 2.1-.72.63-1.85.63-1.2 0-1.65-.5-.47-.48-.47-1.3 0-.84.57-1.86.62-1 1.75-1.9 1.2-.92 2.84-1.5 1.7-.63 3.92-.63 1.7 0 3.3.48 1.6.5 2.84 1.47 1.23.97 2 2.53.78 1.5.78 3.6 0 2.2-1.34 4-1.34 1.76-3.1 2.53v.6z"
       style="line-height:125%;-inkscape-font-specification:'Triplicate T4c, Normal';text-align:start"
       font-family="Triplicate T4c"
       letter-spacing="0"
       word-spacing="0"
       id="path116" />
    <path
       fill="#404030"
       d="M190.9 749.67q-3.46 6.48-6.45 13.8-2.94 7.3-5.1 14.56-.2.43-1.1.68-.87.25-1.9.25-1.03 0-1.8-.24-.78-.2-.47-.87 2.68-6.67 6.1-13.7 3.4-7 7.26-13.44l-.36-.7q-1.5 0-3.35.06-1.86 0-3.77.05-1.9 0-3.66.1-1.75.05-3.04.1-.93.05-1.4-.54-.46-.63-.5-1.36 0-.78.3-1.4.36-.65 1.08-.65.36 0 1.24.05.88 0 1.86.05 1.03 0 2.06.05 1.03 0 1.7 0h9.08q.62 0 1.13.34.53.34.84.83.3.44.36 1.02.1.53-.1.97z"
       style="line-height:125%;-inkscape-font-specification:'Triplicate T4c, Normal';text-align:start"
       font-family="Triplicate T4c"
       letter-spacing="0"
       word-spacing="0"
       id="path118" />
    <path
       fill="#404030"
       d="M211.8 775.93q1.14 0 2.5-.4 1.38-.43 2.56-1.45 1.2-1.02 1.96-2.78.78-1.75.78-4.43 0-1.66-.67-3.12-.62-1.46-1.65-2.53-1.04-1.08-2.43-1.7-1.34-.64-2.78-.64-1.55-.05-3.1.48-1.5.54-2.68 1.66v11.35q0 1.47 1.33 2.54 1.4 1.03 4.18 1.03zm-9.84-28.1l-3.4.62q-.3.05-.52-.34-.15-.43-.26-.92-.05-.53 0-.97.06-.48.3-.53.74-.1 1.97-.3 1.24-.23 2.27-.48.98-.25 1.76-.5.77-.24 1.23-.38.37-.1 1 .3.66.33.5 1.3-.4 3.07-.56 6.3-.1 3.16-.2 5.8l.6.38q1.35-.93 3-1.56 1.65-.68 3.5-.68 2.38 0 4.3.87 1.95.88 3.34 2.4 1.4 1.5 2.17 3.5t.77 4.2q0 3-1.18 5.25-1.2 2.2-3.05 3.66-1.8 1.46-4.08 2.2-2.22.72-4.38.72-1.7 0-2.9-.34-1.18-.3-1.85-.54l-1.6 1.22q-.2.2-.68.15-.46-.05-.92-.25-.47-.2-.78-.53-.3-.3-.2-.68.05-.2.1-.8.1-.58.15-1.26.05-.68.05-1.4.06-.75.06-1.23v-24.8l-.52-.38z"
       style="line-height:125%;-inkscape-font-specification:'Triplicate T4c, Normal';text-align:start"
       font-family="Triplicate T4c"
       letter-spacing="0"
       word-spacing="0"
       id="path120" />
    <path
       fill="#404030"
       d="M242.73 775.93q1.13 0 2.48-.4 1.4-.43 2.58-1.45 1.2-1.02 1.96-2.78.78-1.75.78-4.43 0-1.66-.67-3.12-.62-1.46-1.65-2.53-1.03-1.08-2.43-1.7-1.34-.64-2.78-.64-1.56-.05-3.1.48-1.5.54-2.7 1.66v11.35q0 1.47 1.35 2.54 1.4 1.03 4.18 1.03zm-9.85-28.1l-3.4.62q-.3.05-.52-.34-.15-.43-.26-.92-.05-.53 0-.97.06-.48.3-.53.74-.1 1.97-.3 1.24-.23 2.27-.48.98-.25 1.76-.5.77-.24 1.23-.38.36-.1.98.3.68.33.53 1.3-.4 3.07-.57 6.3-.1 3.16-.2 5.8l.6.38q1.35-.93 3-1.56 1.65-.68 3.5-.68 2.38 0 4.3.87 1.95.88 3.34 2.4 1.4 1.5 2.17 3.5t.77 4.2q0 3-1.18 5.25-1.2 2.2-3.05 3.66-1.8 1.46-4.06 2.2-2.22.72-4.38.72-1.7 0-2.9-.34-1.18-.3-1.85-.54l-1.6 1.22q-.2.2-.66.15-.46-.05-.92-.25-.47-.2-.78-.53-.3-.3-.2-.68.05-.2.1-.8.1-.58.15-1.26.05-.68.05-1.4.05-.75.05-1.23v-24.8l-.52-.38z"
       style="line-height:125%;-inkscape-font-specification:'Triplicate T4c, Normal';text-align:start"
       font-family="Triplicate T4c"
       letter-spacing="0"
       word-spacing="0"
       id="path122" />
    <path
       fill="#404030"
       d="M285.56 761.9q0 4.04-.93 7.2-.92 3.18-2.63 5.37-1.65 2.2-3.97 3.36-2.32 1.12-5.05 1.12-2.42 0-4.43-1.12-2.02-1.17-3.5-3.17-1.46-2-2.28-4.62-.83-2.68-.83-5.75 0-3.96.68-7.32.72-3.4 2.16-5.9 1.5-2.48 3.77-3.9 2.32-1.4 5.46-1.4 2.33 0 4.45 1 2.1 1 3.66 3.03 1.6 2 2.53 5.03.93 3.02.93 7.07zm-4.64.3q0-3.86-.57-6.6-.56-2.72-1.6-4.42-4.64 11.98-8.8 23.83 1.53 1.52 3.5 1.52 1.44 0 2.78-.74 1.34-.73 2.37-2.38 1.03-1.7 1.65-4.44.67-2.77.67-6.77zm-12.63 10.37q2.26-5.85 4.37-11.7 2.1-5.9 4.13-11.8-1.34-.86-3.05-.86-1.96 0-3.35 1.03-1.34 1.02-2.22 2.92-.87 1.85-1.28 4.53-.42 2.68-.42 6 0 3.26.47 5.75.46 2.43 1.34 4.14z"
       style="line-height:125%;-inkscape-font-specification:'Triplicate T4c, Normal';text-align:start"
       font-family="Triplicate T4c"
       letter-spacing="0"
       word-spacing="0"
       id="path124" />
    <path
       fill="#404030"
       d="M297.14 747.96q.06-.83.47-1.12.47-.34 1.2-.34H309q.98 0 1.76-.1.77-.1 1.5-.24.6-.1.87.5.3.57.1 1.3-.15.73-.87 1.37-.72.63-2.17.63h-10.37l-.52 7.7.68.44q.62-.34 1.65-.54 1.03-.24 2.73-.24 1.96 0 3.87.63 1.96.6 3.5 1.85 1.56 1.27 2.48 3.17 1 1.9 1 4.43 0 2.44-1.1 4.54-1.02 2.1-2.98 3.65-1.9 1.55-4.74 2.47-2.8.88-6.24.88-.93 0-1.9-.1-.94-.1-1.82-.3-.87-.13-1.65-.38-.72-.24-1.18-.53-.43-.3-.43-.83.06-.53.3-.97.27-.48.68-.78.47-.3.88-.04.72.5 2.1.83 1.4.3 3.57.3 2.07 0 3.87-.6 1.86-.62 3.2-1.74 1.4-1.13 2.16-2.7.83-1.6.83-3.6 0-3.2-2.12-5.26-2.06-2.05-6.4-2.05-1.43 0-2.47.28-1.03.3-1.75.7-.46.28-1.08-.16-.62-.5-.57-1.02l.77-12.04z"
       style="line-height:125%;-inkscape-font-specification:'Triplicate T4c, Normal';text-align:start"
       font-family="Triplicate T4c"
       letter-spacing="0"
       word-spacing="0"
       id="path126" />
    <path
       fill="#404030"
       d="M340.6 767q-6.76.26-10.06 1.38-3.25 1.12-3.25 3.6 0 1.8 1.28 2.93 1.34 1.08 3.6 1.08 2.12 0 4.4-.63 2.3-.7 3.8-2.15l.22-6.2zm.05 8.88l-.36-.1q-1.82 1.13-4.24 1.9-2.43.74-4.9.74-4.07 0-6.14-1.66-2.06-1.7-2.06-4.14 0-2 1.2-3.36 1.17-1.42 3.44-2.3 2.32-.92 5.62-1.36 3.3-.44 7.48-.58l.1-2.3q.05-1.36-.3-2.33-.37-1-1.04-1.62-.62-.63-1.5-.93-.82-.3-1.75-.3-1.64 0-2.98.55-1.34.48-2.06.97-.26.15-.3.4 0 .23 0 .58 0 1.46-.68 2.1-.62.58-1.75.58-.88 0-1.7-.44-.78-.45-.68-2.16.06-.63.2-1.17.22-.53 1.04-.92 1.18-.6 2.67-1.12 1.55-.54 3.15-.93 1.6-.4 3.1-.63 1.5-.25 2.62-.25 3.1 0 4.5 1.95 1.43 1.9 1.43 4.93l-.46 13.05 4.03-1.02q.3-.1.62.2.36.3.52.73.15.44.1.82-.05.4-.47.54-.46.15-1.44.5-.98.33-2.06.67-1.1.33-2.06.62-.93.34-1.35.4-.78.14-.93-.4l-.62-2.24z"
       style="line-height:125%;-inkscape-font-specification:'Triplicate T4c, Normal';text-align:start"
       font-family="Triplicate T4c"
       letter-spacing="0"
       word-spacing="0"
       id="path128" />
    <path
       fill="#404030"
       d="M141.4 819.52q.65 0 1.12.43.47.43.47 1.05 0 .6-.48 1.06-.47.44-1.13.44-.62 0-1.1-.44-.46-.46-.46-1.06 0-.58.47-1.02.48-.46 1.1-.46zm-1.33 5.37h2.67v12.76h-2.67V824.9z"
       style="line-height:125%;-inkscape-font-specification:'Gill Sans MT, Normal';text-align:start"
       font-family="Gill Sans MT"
       letter-spacing="0"
       word-spacing="0"
       id="path130" />
    <path
       fill="#404030"
       d="M149.27 824.9v1.6q1.8-1.86 4.06-1.86 1.27 0 2.35.62 1.1.62 1.65 1.7.57 1.07.57 3.4v7.3h-2.67v-7.27q0-1.97-.63-2.8-.63-.85-2.12-.85-1.9 0-3.2 1.8v9.1h-2.75V824.9h2.74z"
       style="line-height:125%;-inkscape-font-specification:'Gill Sans MT, Normal';text-align:start"
       font-family="Gill Sans MT"
       letter-spacing="0"
       word-spacing="0"
       id="path132" />
    <path
       fill="#404030"
       d="M170.65 818.27h2.7v19.4h-5.72q-3 0-4.8-1.8-1.77-1.8-1.77-4.8 0-2.82 1.87-4.64 1.88-1.82 4.78-1.82 1.37 0 2.95.55v-6.88zm0 17.22v-8.1q-1.25-.6-2.52-.6-2 0-3.2 1.24-1.17 1.24-1.17 3.33 0 1.97 1.03 3.04.6.65 1.3.87.7.22 2.48.22h2.07z"
       style="line-height:125%;-inkscape-font-specification:'Gill Sans MT, Normal';text-align:start"
       font-family="Gill Sans MT"
       letter-spacing="0"
       word-spacing="0"
       id="path134" />
    <path
       fill="#404030"
       d="M188.48 831.5h-9.5q.1 1.83 1.3 2.9 1.2 1.1 3.1 1.1 2.63 0 4.87-1.56v2.47q-1.24.8-2.46 1.12-1.2.33-2.84.33-2.23 0-3.6-.87-1.4-.88-2.23-2.35-.82-1.48-.82-3.43 0-2.9 1.75-4.73 1.75-1.83 4.54-1.83 2.68 0 4.28 1.78 1.6 1.77 1.6 4.76v.32zm-9.44-1.52h6.8q-.1-1.5-.96-2.33-.85-.82-2.3-.82-1.43 0-2.35.82-.9.82-1.2 2.33z"
       style="line-height:125%;-inkscape-font-specification:'Gill Sans MT, Normal';text-align:start"
       font-family="Gill Sans MT"
       letter-spacing="0"
       word-spacing="0"
       id="path136" />
    <path
       fill="#404030"
       d="M200.7 824.9h3.4l-5.56 6.28 5.97 6.48h-3.42l-4.24-4.58-4 4.58h-3.37l5.68-6.48-5.68-6.3h3.36l4 4.4 3.86-4.4z"
       style="line-height:125%;-inkscape-font-specification:'Gill Sans MT, Normal';text-align:start"
       font-family="Gill Sans MT"
       letter-spacing="0"
       word-spacing="0"
       id="path138" />
    <path
       fill="#404030"
       d="M207.78 834.56q.75 0 1.28.5.53.47.53 1.18 0 .7-.54 1.17-.5.48-1.28.48-.75 0-1.26-.47-.5-.46-.5-1.16t.5-1.2q.5-.48 1.26-.48z"
       style="line-height:125%;-inkscape-font-specification:'Gill Sans MT, Normal';text-align:start"
       font-family="Gill Sans MT"
       letter-spacing="0"
       word-spacing="0"
       id="path140" />
    <path
       fill="#404030"
       d="M212.92 818.27h2.68v8.3q1.67-1.93 4.15-1.93 1.35 0 2.43.64 1.07.64 1.58 1.76.53 1.13.53 3.35v7.26h-2.68v-7.9q0-1.4-.74-2.25-.72-.85-1.9-.85-.9 0-1.67.43-.76.43-1.7 1.43v9.16h-2.68v-19.4z"
       style="line-height:125%;-inkscape-font-specification:'Gill Sans MT, Normal';text-align:start"
       font-family="Gill Sans MT"
       letter-spacing="0"
       word-spacing="0"
       id="path142" />
    <path
       fill="#404030"
       d="M226.13 826.92l5.02-4.67v2.64h4.27v2.27h-4.27v6.26q0 2.2 1.92 2.2 1.44 0 3.05-.93v2.36q-1.55.82-3.37.82-1.83 0-3.05-1-.4-.32-.63-.7-.25-.38-.43-1-.16-.62-.16-2.35v-5.66h-2.35v-.25z"
       style="line-height:125%;-inkscape-font-specification:'Gill Sans MT, Normal';text-align:start"
       font-family="Gill Sans MT"
       letter-spacing="0"
       word-spacing="0"
       id="path144" />
    <path
       fill="#404030"
       d="M249.14 828.4v9.26h-2.68v-7.1q0-2.13-.6-2.96-.6-.85-2.1-.85-.84 0-1.55.36-.68.37-1.58 1.3v9.26h-2.67V824.9h2.67v1.67q2.05-1.93 4-1.93 2.57 0 3.98 2.3 2.14-2.33 4.48-2.33 1.97 0 3.23 1.37 1.3 1.36 1.3 4.15v7.54h-2.68v-7.57q0-1.6-.7-2.45-.68-.84-1.98-.84-1.66 0-3.1 1.6z"
       style="line-height:125%;-inkscape-font-specification:'Gill Sans MT, Normal';text-align:start"
       font-family="Gill Sans MT"
       letter-spacing="0"
       word-spacing="0"
       id="path146" />
    <path
       fill="#404030"
       d="M261.33 818.27H264v19.4h-2.67v-19.4z"
       style="line-height:125%;-inkscape-font-specification:'Gill Sans MT, Normal';text-align:start"
       font-family="Gill Sans MT"
       letter-spacing="0"
       word-spacing="0"
       id="path148" />
    <path
       fill="#404030"
       d="M284.7 829.98v5.43q0 .66.46.66.48 0 1.5-.68v1.54q-.9.56-1.46.75-.54.2-1.14.2-1.72 0-2.03-1.27-1.7 1.25-3.63 1.25-1.4 0-2.35-.87-.94-.9-.94-2.22 0-1.2.92-2.15.93-.95 2.62-1.5l3.42-1.12v-.68q0-2.3-2.44-2.3-2.2 0-4.26 2.14v-2.77q1.56-1.73 4.48-1.73 2.2 0 3.5 1.08.45.35.8.93.36.57.45 1.15.1.57.1 2.18zm-2.64 5.15v-3.8l-1.8.67q-1.36.5-1.93 1.04-.56.5-.56 1.3 0 .78.53 1.28.54.5 1.4.5 1.27 0 2.36-1z"
       style="line-height:125%;-inkscape-font-specification:'Gill Sans MT, Normal';text-align:start"
       font-family="Gill Sans MT"
       letter-spacing="0"
       word-spacing="0"
       id="path150" />
    <path
       fill="#404030"
       d="M298.08 818.27h2.7v19.4h-5.72q-3 0-4.8-1.8-1.77-1.8-1.77-4.8 0-2.82 1.86-4.64 1.88-1.82 4.8-1.82 1.34 0 2.92.55v-6.88zm0 17.22v-8.1q-1.24-.6-2.52-.6-2 0-3.2 1.24-1.17 1.24-1.17 3.33 0 1.97 1.02 3.04.62.65 1.3.87.7.22 2.5.22h2.06z"
       style="line-height:125%;-inkscape-font-specification:'Gill Sans MT, Normal';text-align:start"
       font-family="Gill Sans MT"
       letter-spacing="0"
       word-spacing="0"
       id="path152" />
    <path
       fill="#404030"
       d="M313.15 818.27h2.7v19.4h-5.72q-3 0-4.8-1.8-1.77-1.8-1.77-4.8 0-2.82 1.87-4.64 1.88-1.82 4.8-1.82 1.34 0 2.92.55v-6.88zm0 17.22v-8.1q-1.25-.6-2.52-.6-2 0-3.2 1.24-1.17 1.24-1.17 3.33 0 1.97 1.03 3.04.6.65 1.3.87.7.22 2.48.22h2.07z"
       style="line-height:125%;-inkscape-font-specification:'Gill Sans MT, Normal';text-align:start"
       font-family="Gill Sans MT"
       letter-spacing="0"
       word-spacing="0"
       id="path154" />
    <path
       fill="#404030"
       d="M331 831.5h-9.5q.1 1.83 1.3 2.9 1.2 1.1 3.1 1.1 2.65 0 4.88-1.56v2.47q-1.24.8-2.45 1.12-1.2.33-2.84.33-2.24 0-3.62-.87-1.38-.88-2.22-2.35-.82-1.48-.82-3.43 0-2.9 1.75-4.73 1.73-1.83 4.52-1.83 2.7 0 4.3 1.78 1.6 1.77 1.6 4.76v.32zm-9.43-1.52h6.8q-.1-1.5-.95-2.33-.86-.82-2.3-.82t-2.36.82q-.9.82-1.2 2.33z"
       style="line-height:125%;-inkscape-font-specification:'Gill Sans MT, Normal';text-align:start"
       font-family="Gill Sans MT"
       letter-spacing="0"
       word-spacing="0"
       id="path156" />
    <path
       fill="#404030"
       d="M342.9 818.27h2.7v19.4h-5.7q-3 0-4.8-1.8-1.78-1.8-1.78-4.8 0-2.82 1.87-4.64 1.87-1.82 4.77-1.82 1.35 0 2.94.55v-6.88zm0 17.22v-8.1q-1.24-.6-2.52-.6-2 0-3.18 1.24-1.18 1.24-1.18 3.33 0 1.97 1.03 3.04.62.65 1.3.87.7.22 2.5.22h2.06z"
       style="line-height:125%;-inkscape-font-specification:'Gill Sans MT, Normal';text-align:start"
       font-family="Gill Sans MT"
       letter-spacing="0"
       word-spacing="0"
       id="path158" />
    <path
       fill="#404030"
       d="M139.35 872.27v-2.72q1.13.75 2.3 1.22 1.2.46 2 .46.84 0 1.44-.4.6-.38.6-.92t-.4-.9q-.38-.38-1.67-1.07-2.6-1.36-3.4-2.32-.8-.96-.8-2.1 0-1.47 1.2-2.4 1.23-.93 3.14-.93 2 0 4.07 1.05v2.5q-2.38-1.36-3.9-1.36-.77 0-1.25.32-.48.3-.48.82 0 .45.42.85.44.4 1.53.97l.95.5q3.38 1.82 3.38 4 0 1.58-1.3 2.6-1.3 1-3.34 1-1.2 0-2.14-.25-.94-.25-2.37-.9z"
       style="line-height:125%;-inkscape-font-specification:'Gill Sans MT, Normal';text-align:start"
       font-family="Gill Sans MT"
       letter-spacing="0"
       word-spacing="0"
       id="path160" />
    <path
       fill="#404030"
       d="M149.7 862.45l5.02-4.67v2.64H159v2.28h-4.28v6.26q0 2.2 1.92 2.2 1.44 0 3.04-.93v2.36q-1.54.8-3.36.8-1.84 0-3.06-1-.38-.3-.63-.68-.25-.4-.43-1-.16-.63-.16-2.36v-5.66h-2.35v-.25z"
       style="line-height:125%;-inkscape-font-specification:'Gill Sans MT, Normal';text-align:start"
       font-family="Gill Sans MT"
       letter-spacing="0"
       word-spacing="0"
       id="path162" />
    <path
       fill="#404030"
       d="M169.9 860.42h3l-9.55 19.28h-2.98l4.6-9.25-5.23-10.03h3.04l3.64 7.2 3.48-7.2z"
       style="line-height:125%;-inkscape-font-specification:'Gill Sans MT, Normal';text-align:start"
       font-family="Gill Sans MT"
       letter-spacing="0"
       word-spacing="0"
       id="path164" />
    <path
       fill="#404030"
       d="M174.85 853.8h2.68v19.4h-2.68v-19.4z"
       style="line-height:125%;-inkscape-font-specification:'Gill Sans MT, Normal';text-align:start"
       font-family="Gill Sans MT"
       letter-spacing="0"
       word-spacing="0"
       id="path166" />
    <path
       fill="#404030"
       d="M192.9 867.03h-9.5q.1 1.83 1.28 2.9 1.2 1.1 3.1 1.1 2.64 0 4.87-1.56v2.47q-1.23.78-2.45 1.1-1.2.34-2.83.34-2.24 0-3.62-.87t-2.2-2.34q-.84-1.48-.84-3.43 0-2.9 1.76-4.73 1.75-1.83 4.54-1.83 2.7 0 4.3 1.78 1.6 1.77 1.6 4.76v.33zm-9.46-1.52h6.8q-.1-1.5-.95-2.32-.86-.82-2.3-.82t-2.37.82q-.9.82-1.2 2.33z"
       style="line-height:125%;-inkscape-font-specification:'Gill Sans MT, Normal';text-align:start"
       font-family="Gill Sans MT"
       letter-spacing="0"
       word-spacing="0"
       id="path168" />
    <path
       fill="#404030"
       d="M197.74 870.1q.74 0 1.27.48.54.48.54 1.2 0 .7-.53 1.16-.5.47-1.26.47-.75 0-1.27-.46-.5-.47-.5-1.17t.5-1.2q.52-.48 1.27-.48z"
       style="line-height:125%;-inkscape-font-specification:'Gill Sans MT, Normal';text-align:start"
       font-family="Gill Sans MT"
       letter-spacing="0"
       word-spacing="0"
       id="path170" />
    <path
       fill="#404030"
       d="M213.07 870.2v2.5q-2 .7-3.94.7-3.17 0-5.06-1.77-1.88-1.77-1.88-4.76 0-3 1.82-4.85 1.84-1.85 4.83-1.85 1.05 0 1.87.2.84.17 2.06.7v2.68q-2.03-1.22-3.76-1.22-1.8 0-2.97 1.2-1.16 1.2-1.16 3.06 0 1.95 1.24 3.1 1.26 1.15 3.4 1.15 1.53 0 3.53-.85z"
       style="line-height:125%;-inkscape-font-specification:'Gill Sans MT, Normal';text-align:start"
       font-family="Gill Sans MT"
       letter-spacing="0"
       word-spacing="0"
       id="path172" />
    <path
       fill="#404030"
       d="M215.43 872.27v-2.72q1.14.75 2.3 1.22 1.2.46 2 .46.85 0 1.45-.4.6-.38.6-.92t-.4-.9q-.38-.38-1.67-1.07-2.58-1.36-3.38-2.32-.8-.96-.8-2.1 0-1.47 1.2-2.4 1.23-.93 3.14-.93 1.98 0 4.06 1.05v2.5q-2.38-1.36-3.9-1.36-.77 0-1.25.32-.47.3-.47.82 0 .45.42.85.45.4 1.53.97l.96.5q3.4 1.82 3.4 4 0 1.58-1.32 2.6-1.3 1-3.34 1-1.2 0-2.14-.25-.94-.25-2.37-.9z"
       style="line-height:125%;-inkscape-font-specification:'Gill Sans MT, Normal';text-align:start"
       font-family="Gill Sans MT"
       letter-spacing="0"
       word-spacing="0"
       id="path174" />
    <path
       fill="#404030"
       d="M227 872.27v-2.72q1.14.75 2.3 1.22 1.2.46 2 .46.85 0 1.45-.4.6-.38.6-.92t-.4-.9q-.37-.38-1.67-1.07-2.58-1.36-3.4-2.32-.78-.96-.78-2.1 0-1.47 1.2-2.4 1.22-.93 3.13-.93 1.98 0 4.07 1.05v2.5q-2.38-1.36-3.9-1.36-.77 0-1.26.32-.47.3-.47.82 0 .45.43.85.44.4 1.53.97l.95.5q3.38 1.82 3.38 4 0 1.58-1.3 2.6-1.3 1-3.34 1-1.2 0-2.15-.25-.94-.25-2.36-.9z"
       style="line-height:125%;-inkscape-font-specification:'Gill Sans MT, Normal';text-align:start"
       font-family="Gill Sans MT"
       letter-spacing="0"
       word-spacing="0"
       id="path176" />
    <path
       fill="#404030"
       d="M256.08 865.5v5.44q0 .65.47.65.48 0 1.5-.7v1.55q-.9.56-1.46.75-.55.2-1.16.2-1.7 0-2.02-1.27-1.7 1.25-3.63 1.25-1.42 0-2.36-.87-.94-.88-.94-2.2 0-1.22.9-2.16.94-.96 2.62-1.52l3.43-1.1v-.7q0-2.3-2.44-2.3-2.18 0-4.25 2.15v-2.77q1.56-1.73 4.48-1.73 2.2 0 3.5 1.08.45.35.8.93.36.57.44 1.15.1.57.1 2.18zm-2.63 5.16v-3.8l-1.8.67q-1.36.5-1.93 1.04-.56.5-.56 1.3 0 .78.53 1.28t1.38.5q1.28 0 2.37-1z"
       style="line-height:125%;-inkscape-font-specification:'Gill Sans MT, Normal';text-align:start"
       font-family="Gill Sans MT"
       letter-spacing="0"
       word-spacing="0"
       id="path178" />
    <path
       fill="#404030"
       d="M269.47 853.8h2.7v19.4h-5.72q-3 0-4.8-1.8-1.77-1.8-1.77-4.8 0-2.82 1.87-4.64 1.88-1.82 4.78-1.82 1.36 0 2.94.54v-6.88zm0 17.22v-8.1q-1.25-.58-2.52-.58-2 0-3.2 1.23-1.17 1.24-1.17 3.33 0 1.97 1.03 3.04.63.64 1.32.86.7.22 2.48.22h2.07z"
       style="line-height:125%;-inkscape-font-specification:'Gill Sans MT, Normal';text-align:start"
       font-family="Gill Sans MT"
       letter-spacing="0"
       word-spacing="0"
       id="path180" />
    <path
       fill="#404030"
       d="M284.54 853.8h2.7v19.4h-5.72q-3 0-4.8-1.8-1.77-1.8-1.77-4.8 0-2.82 1.87-4.64 1.88-1.82 4.78-1.82 1.36 0 2.94.54v-6.88zm0 17.22v-8.1q-1.25-.58-2.53-.58-1.98 0-3.17 1.23-1.18 1.24-1.18 3.33 0 1.97 1.03 3.04.62.64 1.3.86.7.22 2.5.22h2.06z"
       style="line-height:125%;-inkscape-font-specification:'Gill Sans MT, Normal';text-align:start"
       font-family="Gill Sans MT"
       letter-spacing="0"
       word-spacing="0"
       id="path182" />
    <path
       fill="#404030"
       d="M302.4 867.03h-9.5q.1 1.83 1.3 2.9 1.2 1.1 3.1 1.1 2.63 0 4.87-1.56v2.47q-1.24.78-2.46 1.1-1.2.34-2.82.34-2.23 0-3.6-.87-1.4-.87-2.23-2.34-.82-1.48-.82-3.43 0-2.9 1.74-4.73 1.75-1.83 4.54-1.83 2.7 0 4.3 1.78 1.6 1.77 1.6 4.76v.33zm-9.44-1.52h6.8q-.1-1.5-.96-2.32-.85-.82-2.3-.82-1.43 0-2.35.82-.9.82-1.2 2.33z"
       style="line-height:125%;-inkscape-font-specification:'Gill Sans MT, Normal';text-align:start"
       font-family="Gill Sans MT"
       letter-spacing="0"
       word-spacing="0"
       id="path184" />
    <path
       fill="#404030"
       d="M314.3 853.8h2.7v19.4h-5.73q-3 0-4.78-1.8-1.8-1.8-1.8-4.8 0-2.82 1.87-4.64 1.88-1.82 4.8-1.82 1.34 0 2.93.54v-6.88zm0 17.22v-8.1q-1.25-.58-2.53-.58-2 0-3.18 1.23-1.2 1.24-1.2 3.33 0 1.97 1.04 3.04.62.64 1.3.86.7.22 2.5.22h2.06z"
       style="line-height:125%;-inkscape-font-specification:'Gill Sans MT, Normal';text-align:start"
       font-family="Gill Sans MT"
       letter-spacing="0"
       word-spacing="0"
       id="path186" />
    <path
       fill="#404030"
       d="M140.07 889.33h2.67v19.4h-2.67v-19.4z"
       style="line-height:125%;-inkscape-font-specification:'Gill Sans MT, Normal';text-align:start"
       font-family="Gill Sans MT"
       letter-spacing="0"
       word-spacing="0"
       id="path188" />
    <path
       fill="#404030"
       d="M153.06 895.92q3.08 0 5.12 1.9 2.04 1.86 2.04 4.7 0 2.77-2.07 4.6-2.07 1.82-5.2 1.82-3.05 0-5.1-1.85-2.04-1.87-2.04-4.64 0-2.8 2.07-4.66 2.07-1.88 5.2-1.88zm-.15 2.28q-1.92 0-3.15 1.2t-1.23 3.03q0 1.83 1.26 3 1.26 1.15 3.25 1.15 1.96 0 3.2-1.16 1.28-1.18 1.28-3.02 0-1.8-1.3-3t-3.3-1.2z"
       style="line-height:125%;-inkscape-font-specification:'Gill Sans MT, Normal';text-align:start"
       font-family="Gill Sans MT"
       letter-spacing="0"
       word-spacing="0"
       id="path190" />
    <path
       fill="#404030"
       d="M162.53 900.36q0-2.04 1.57-3.22 1.6-1.2 4.32-1.2H174v1.98h-2.75q.8.76 1.1 1.4.3.6.3 1.42 0 1-.6 1.97t-1.55 1.48q-.94.5-3.1.82-1.5.2-1.5.98 0 .45.55.74.57.28 2.06.58 2.5.52 3.2.8.7.3 1.3.84.96.92.96 2.3 0 1.82-1.72 2.9-1.7 1.1-4.57 1.1-2.9 0-4.63-1.1-1.72-1.1-1.72-2.92 0-2.6 3.4-3.35-1.35-.82-1.35-1.62 0-.6.57-1.1.6-.5 1.57-.75-2.97-1.25-2.97-4.04zm5.02-2.22q-1.08 0-1.85.7-.76.7-.76 1.66 0 1 .75 1.64.74.64 1.88.64 1.13 0 1.88-.65.77-.67.77-1.66 0-1-.77-1.66-.76-.66-1.9-.66zm-.63 11.18q-1.35 0-2.22.54-.85.54-.85 1.38 0 1.98 3.76 1.98 1.8 0 2.76-.5.98-.5.98-1.4 0-.88-1.23-1.45-1.23-.55-3.18-.55z"
       style="line-height:125%;-inkscape-font-specification:'Gill Sans MT, Normal';text-align:start"
       font-family="Gill Sans MT"
       letter-spacing="0"
       word-spacing="0"
       id="path192" />
    <path
       fill="#404030"
       d="M182.28 895.92q3.1 0 5.13 1.9 2.05 1.86 2.05 4.7 0 2.77-2.07 4.6-2.07 1.82-5.2 1.82-3.05 0-5.1-1.85-2.04-1.87-2.04-4.64 0-2.8 2.06-4.66 2.07-1.88 5.18-1.88zm-.14 2.28q-1.93 0-3.16 1.2-1.23 1.2-1.23 3.03 0 1.83 1.26 3 1.27 1.15 3.25 1.15 1.97 0 3.22-1.16 1.26-1.18 1.26-3.02 0-1.8-1.3-3t-3.3-1.2z"
       style="line-height:125%;-inkscape-font-specification:'Gill Sans MT, Normal';text-align:start"
       font-family="Gill Sans MT"
       letter-spacing="0"
       word-spacing="0"
       id="path194" />
    <path
       fill="#404030"
       d="M192.95 905.62q.75 0 1.28.5.52.47.52 1.18 0 .7-.52 1.17t-1.28.47q-.75 0-1.27-.47-.5-.47-.5-1.17t.5-1.2q.52-.48 1.27-.48z"
       style="line-height:125%;-inkscape-font-specification:'Gill Sans MT, Normal';text-align:start"
       font-family="Gill Sans MT"
       letter-spacing="0"
       word-spacing="0"
       id="path196" />
    <path
       fill="#404030"
       d="M198 915.23v-19.28h4.7q3.58 0 5.58 1.7t2 4.73q0 2.87-1.88 4.7-1.88 1.86-4.8 1.86-1.3 0-2.87-.54v6.83H198zm4.63-16.92h-1.9v7.86q1.24.6 2.6.6 1.87 0 3.06-1.23 1.2-1.24 1.2-3.18 0-1.25-.58-2.2-.56-.97-1.54-1.4-.97-.44-2.85-.44z"
       style="line-height:125%;-inkscape-font-specification:'Gill Sans MT, Normal';text-align:start"
       font-family="Gill Sans MT"
       letter-spacing="0"
       word-spacing="0"
       id="path198" />
    <path
       fill="#404030"
       d="M215.9 895.95v1.62q1.78-1.87 4.06-1.87 1.26 0 2.35.62 1.1.62 1.65 1.7.58 1.07.58 3.4v7.3h-2.68v-7.27q0-1.96-.63-2.8-.63-.84-2.1-.84-1.9 0-3.23 1.8v9.12h-2.74v-12.77h2.73z"
       style="line-height:125%;-inkscape-font-specification:'Gill Sans MT, Normal';text-align:start"
       font-family="Gill Sans MT"
       letter-spacing="0"
       word-spacing="0"
       id="path200" />
    <path
       fill="#404030"
       d="M227.57 900.36q0-2.04 1.57-3.22 1.58-1.2 4.32-1.2h5.56v1.98h-2.73q.78.76 1.1 1.4.3.6.3 1.42 0 1-.6 1.97t-1.56 1.48q-.94.5-3.1.82-1.5.2-1.5.98 0 .45.55.74.56.28 2.04.58 2.5.52 3.2.8.7.3 1.28.84.97.92.97 2.3 0 1.82-1.72 2.9-1.7 1.1-4.57 1.1-2.9 0-4.62-1.1-1.72-1.1-1.72-2.92 0-2.6 3.4-3.35-1.36-.82-1.36-1.62 0-.6.58-1.1.58-.5 1.57-.75-2.98-1.25-2.98-4.04zm5.02-2.22q-1.1 0-1.86.7t-.76 1.66q0 1 .74 1.64.75.64 1.9.64 1.13 0 1.88-.65.76-.67.76-1.66 0-1-.76-1.66-.76-.66-1.9-.66zm-.64 11.18q-1.35 0-2.22.54-.85.54-.85 1.38 0 1.98 3.75 1.98 1.78 0 2.75-.5.98-.5.98-1.4 0-.88-1.23-1.45-1.24-.55-3.2-.55z"
       style="line-height:125%;-inkscape-font-specification:'Gill Sans MT, Normal';text-align:start"
       font-family="Gill Sans MT"
       letter-spacing="0"
       word-spacing="0"
       id="path202" />
    <path
       fill="#404030"
       d="M257.96 901.04v5.43q0 .65.47.65.48 0 1.5-.68v1.54q-.9.56-1.46.75-.54.2-1.15.2-1.7 0-2.02-1.27-1.7 1.25-3.63 1.25-1.4 0-2.35-.86-.94-.9-.94-2.22 0-1.2.9-2.15.94-.96 2.62-1.52l3.43-1.1v-.7q0-2.3-2.44-2.3-2.2 0-4.27 2.15v-2.77q1.56-1.73 4.48-1.73 2.2 0 3.52 1.08.44.35.8.93.35.58.43 1.16.1.57.1 2.18zm-2.63 5.15v-3.8l-1.8.66q-1.36.5-1.93 1.04-.56.5-.56 1.3 0 .78.53 1.28.54.5 1.4.5 1.27 0 2.36-1z"
       style="line-height:125%;-inkscape-font-specification:'Gill Sans MT, Normal';text-align:start"
       font-family="Gill Sans MT"
       letter-spacing="0"
       word-spacing="0"
       id="path204" />
    <path
       fill="#404030"
       d="M271.35 889.33h2.7v19.4h-5.72q-3 0-4.8-1.8-1.77-1.8-1.77-4.8 0-2.82 1.87-4.64 1.88-1.83 4.78-1.83 1.37 0 2.95.54v-6.87zm0 17.22v-8.1q-1.25-.6-2.52-.6-2 0-3.2 1.25-1.17 1.24-1.17 3.33 0 1.97 1.03 3.04.6.64 1.3.86.7.22 2.48.22h2.07z"
       style="line-height:125%;-inkscape-font-specification:'Gill Sans MT, Normal';text-align:start"
       font-family="Gill Sans MT"
       letter-spacing="0"
       word-spacing="0"
       id="path206" />
    <path
       fill="#404030"
       d="M286.42 889.33h2.7v19.4h-5.72q-3 0-4.8-1.8-1.77-1.8-1.77-4.8 0-2.82 1.87-4.64 1.88-1.83 4.78-1.83 1.36 0 2.94.54v-6.87zm0 17.22v-8.1q-1.25-.6-2.52-.6-2 0-3.2 1.25-1.17 1.24-1.17 3.33 0 1.97 1.03 3.04.62.64 1.3.86.7.22 2.5.22h2.06z"
       style="line-height:125%;-inkscape-font-specification:'Gill Sans MT, Normal';text-align:start"
       font-family="Gill Sans MT"
       letter-spacing="0"
       word-spacing="0"
       id="path208" />
    <path
       fill="#404030"
       d="M304.28 902.56h-9.5q.1 1.83 1.3 2.9 1.2 1.1 3.1 1.1 2.63 0 4.87-1.56v2.47q-1.24.78-2.46 1.1-1.2.34-2.84.34-2.23 0-3.6-.86-1.4-.88-2.23-2.35-.82-1.5-.82-3.44 0-2.9 1.75-4.73 1.75-1.83 4.54-1.83 2.68 0 4.28 1.78 1.6 1.77 1.6 4.76v.32zm-9.44-1.52h6.8q-.1-1.5-.96-2.33-.85-.8-2.3-.8-1.43 0-2.35.8-.9.83-1.2 2.34z"
       style="line-height:125%;-inkscape-font-specification:'Gill Sans MT, Normal';text-align:start"
       font-family="Gill Sans MT"
       letter-spacing="0"
       word-spacing="0"
       id="path210" />
    <path
       fill="#404030"
       d="M316.18 889.33h2.7v19.4h-5.73q-3 0-4.78-1.8-1.78-1.8-1.78-4.8 0-2.82 1.85-4.64 1.88-1.83 4.8-1.83 1.34 0 2.93.54v-6.87zm0 17.22v-8.1q-1.25-.6-2.53-.6-2 0-3.18 1.25-1.18 1.24-1.18 3.33 0 1.97 1.02 3.04.62.64 1.3.86.7.22 2.5.22h2.06z"
       style="line-height:125%;-inkscape-font-specification:'Gill Sans MT, Normal';text-align:start"
       font-family="Gill Sans MT"
       letter-spacing="0"
       word-spacing="0"
       id="path212" />
    <rect
       width="247.292"
       height="132.001"
       x="118.829"
       y="801.561"
       fill="none"
       stroke="#ddd"
       stroke-width="3.342"
       ry="4"
       stroke-linecap="round"
       stroke-linejoin="round"
       rx="4"
       id="rect214" />
    <path
       fill="#404030"
       d="M395.66 817.85q.66 0 1.13.43.46.43.46 1.05 0 .6-.47 1.06-.48.43-1.14.43-.62 0-1.1-.44-.46-.47-.46-1.07 0-.58.47-1.02.47-.45 1.1-.45zm-1.33 5.37H397V836h-2.67V823.2z"
       style="line-height:125%;-inkscape-font-specification:'Gill Sans MT, Normal';text-align:start"
       font-family="Gill Sans MT"
       letter-spacing="0"
       word-spacing="0"
       id="path216" />
    <path
       fill="#404030"
       d="M403.53 823.22v1.62q1.8-1.87 4.07-1.87 1.26 0 2.35.62 1.08.6 1.64 1.7.57 1.06.57 3.4v7.3h-2.68v-7.3q0-1.94-.64-2.77-.63-.85-2.1-.85-1.9 0-3.23 1.8v9.1h-2.73v-12.76h2.73z"
       style="line-height:125%;-inkscape-font-specification:'Gill Sans MT, Normal';text-align:start"
       font-family="Gill Sans MT"
       letter-spacing="0"
       word-spacing="0"
       id="path218" />
    <path
       fill="#404030"
       d="M424.9 816.6h2.7V836h-5.7q-3 0-4.8-1.8-1.78-1.8-1.78-4.8 0-2.82 1.87-4.64 1.87-1.82 4.78-1.82 1.35 0 2.93.54v-6.88zm0 17.22v-8.1q-1.23-.6-2.5-.6-2 0-3.2 1.25-1.17 1.23-1.17 3.33 0 1.97 1.02 3.04.62.64 1.3.86.7.22 2.5.22h2.06z"
       style="line-height:125%;-inkscape-font-specification:'Gill Sans MT, Normal';text-align:start"
       font-family="Gill Sans MT"
       letter-spacing="0"
       word-spacing="0"
       id="path220" />
    <path
       fill="#404030"
       d="M442.75 829.83h-9.5q.1 1.83 1.3 2.9 1.2 1.1 3.08 1.1 2.65 0 4.88-1.56v2.47q-1.22.78-2.44 1.1-1.2.34-2.84.34-2.23 0-3.6-.87-1.4-.87-2.23-2.34-.83-1.48-.83-3.43 0-2.9 1.75-4.73 1.75-1.83 4.54-1.83 2.68 0 4.28 1.78 1.6 1.77 1.6 4.76v.33zm-9.45-1.52h6.8q-.1-1.5-.95-2.32-.85-.82-2.3-.82-1.43 0-2.36.82-.92.82-1.2 2.33z"
       style="line-height:125%;-inkscape-font-specification:'Gill Sans MT, Normal';text-align:start"
       font-family="Gill Sans MT"
       letter-spacing="0"
       word-spacing="0"
       id="path222" />
    <path
       fill="#404030"
       d="M454.95 823.22h3.42l-5.56 6.3 5.97 6.47h-3.42l-4.25-4.6-4 4.6h-3.37l5.68-6.5-5.67-6.28h3.36l4 4.38 3.85-4.38z"
       style="line-height:125%;-inkscape-font-specification:'Gill Sans MT, Normal';text-align:start"
       font-family="Gill Sans MT"
       letter-spacing="0"
       word-spacing="0"
       id="path224" />
    <path
       fill="#404030"
       d="M462.05 832.9q.74 0 1.27.48t.53 1.2q0 .7-.53 1.16-.5.47-1.27.47-.75 0-1.27-.46-.5-.47-.5-1.17t.5-1.2q.52-.48 1.27-.48z"
       style="line-height:125%;-inkscape-font-specification:'Gill Sans MT, Normal';text-align:start"
       font-family="Gill Sans MT"
       letter-spacing="0"
       word-spacing="0"
       id="path226" />
    <path
       fill="#404030"
       d="M467.2 816.6h2.66v8.3q1.67-1.93 4.16-1.93 1.35 0 2.42.64 1.07.65 1.6 1.77.5 1.12.5 3.34v7.3h-2.66v-7.9q0-1.4-.73-2.26-.72-.86-1.9-.86-.9 0-1.67.43-.78.44-1.72 1.44V836h-2.67v-19.4z"
       style="line-height:125%;-inkscape-font-specification:'Gill Sans MT, Normal';text-align:start"
       font-family="Gill Sans MT"
       letter-spacing="0"
       word-spacing="0"
       id="path228" />
    <path
       fill="#404030"
       d="M480.4 825.25l5-4.67v2.64h4.3v2.27h-4.3v6.25q0 2.2 1.94 2.2 1.44 0 3.04-.92v2.36q-1.54.8-3.36.8-1.84 0-3.06-1-.38-.3-.63-.68-.25-.4-.43-1-.16-.63-.16-2.36v-5.67h-2.35v-.25z"
       style="line-height:125%;-inkscape-font-specification:'Gill Sans MT, Normal';text-align:start"
       font-family="Gill Sans MT"
       letter-spacing="0"
       word-spacing="0"
       id="path230" />
    <path
       fill="#404030"
       d="M503.4 826.72V836h-2.68v-7.12q0-2.12-.6-2.95-.6-.85-2.1-.85-.84 0-1.55.36-.7.36-1.58 1.28V836h-2.7V823.2h2.7v1.68q2.03-1.93 3.98-1.93 2.57 0 3.98 2.3 2.15-2.33 4.48-2.33 1.97 0 3.23 1.36 1.28 1.36 1.28 4.15V836h-2.67v-7.58q0-1.6-.7-2.44-.68-.85-1.97-.85-1.65 0-3.1 1.6z"
       style="line-height:125%;-inkscape-font-specification:'Gill Sans MT, Normal';text-align:start"
       font-family="Gill Sans MT"
       letter-spacing="0"
       word-spacing="0"
       id="path232" />
    <path
       fill="#404030"
       d="M515.6 816.6h2.67V836h-2.67v-19.4z"
       style="line-height:125%;-inkscape-font-specification:'Gill Sans MT, Normal';text-align:start"
       font-family="Gill Sans MT"
       letter-spacing="0"
       word-spacing="0"
       id="path234" />
    <path
       fill="#404030"
       d="M540.6 833v2.5q-2.02.7-3.94.7-3.17 0-5.07-1.77-1.9-1.77-1.9-4.76 0-3 1.85-4.86 1.83-1.83 4.83-1.83 1.04 0 1.87.2.83.17 2.05.7v2.68q-2.02-1.22-3.76-1.22-1.8 0-2.96 1.2t-1.16 3.06q0 1.95 1.24 3.1 1.27 1.15 3.4 1.15 1.54 0 3.54-.85z"
       style="line-height:125%;-inkscape-font-specification:'Gill Sans MT, Normal';text-align:start"
       font-family="Gill Sans MT"
       letter-spacing="0"
       word-spacing="0"
       id="path236" />
    <path
       fill="#404030"
       d="M543.56 816.6h2.68v8.3q1.67-1.93 4.15-1.93 1.34 0 2.42.64 1.07.65 1.58 1.77.53 1.12.53 3.34v7.3h-2.67v-7.9q0-1.4-.74-2.26-.72-.86-1.9-.86-.9 0-1.66.43-.78.44-1.72 1.44V836h-2.68v-19.4z"
       style="line-height:125%;-inkscape-font-specification:'Gill Sans MT, Normal';text-align:start"
       font-family="Gill Sans MT"
       letter-spacing="0"
       word-spacing="0"
       id="path238" />
    <path
       fill="#404030"
       d="M567.15 828.3v5.44q0 .65.47.65.5 0 1.52-.7v1.55q-.92.56-1.47.75-.55.2-1.15.2-1.72 0-2.03-1.27-1.7 1.25-3.63 1.25-1.4 0-2.35-.87-.94-.88-.94-2.2 0-1.22.9-2.16.93-.96 2.62-1.52l3.42-1.1v-.7q0-2.3-2.44-2.3-2.18 0-4.25 2.15v-2.77q1.55-1.73 4.48-1.73 2.2 0 3.52 1.08.44.35.8.93.34.57.43 1.15.1.57.1 2.18zm-2.63 5.16v-3.8l-1.8.66q-1.35.52-1.93 1.05-.57.5-.57 1.3 0 .78.53 1.28.55.5 1.4.5 1.28 0 2.36-1z"
       style="line-height:125%;-inkscape-font-specification:'Gill Sans MT, Normal';text-align:start"
       font-family="Gill Sans MT"
       letter-spacing="0"
       word-spacing="0"
       id="path240" />
    <path
       fill="#404030"
       d="M574.2 823.22v1.62q1.8-1.87 4.07-1.87 1.26 0 2.35.62 1.1.6 1.65 1.7.57 1.06.57 3.4v7.3h-2.67v-7.3q0-1.94-.64-2.77-.63-.85-2.1-.85-1.9 0-3.23 1.8v9.1h-2.73v-12.76h2.73z"
       style="line-height:125%;-inkscape-font-specification:'Gill Sans MT, Normal';text-align:start"
       font-family="Gill Sans MT"
       letter-spacing="0"
       word-spacing="0"
       id="path242" />
    <path
       fill="#404030"
       d="M585.88 827.63q0-2.04 1.57-3.22 1.6-1.18 4.32-1.18h5.57v1.97h-2.74q.8.75 1.1 1.38.3.62.3 1.43 0 1-.6 1.98-.6.96-1.55 1.47-.94.5-3.1.82-1.5.2-1.5.98 0 .45.55.74.57.27 2.06.57 2.48.52 3.18.8.72.3 1.3.84.97.93.97 2.3 0 1.83-1.7 2.9-1.72 1.1-4.58 1.1-2.9 0-4.63-1.1-1.73-1.08-1.73-2.9 0-2.6 3.4-3.36-1.35-.82-1.35-1.62 0-.6.57-1.1.58-.5 1.56-.75-2.98-1.25-2.98-4.04zm5.02-2.22q-1.08 0-1.85.7-.76.7-.76 1.67 0 1 .74 1.64.75.65 1.9.65 1.12 0 1.87-.66.78-.67.78-1.66 0-1-.77-1.66-.75-.67-1.9-.67zm-.63 11.18q-1.35 0-2.22.55-.85.54-.85 1.38 0 1.98 3.76 1.98 1.78 0 2.75-.5 1-.48 1-1.38 0-.9-1.24-1.46-1.24-.56-3.2-.56z"
       style="line-height:125%;-inkscape-font-specification:'Gill Sans MT, Normal';text-align:start"
       font-family="Gill Sans MT"
       letter-spacing="0"
       word-spacing="0"
       id="path244" />
    <path
       fill="#404030"
       d="M610.95 829.83h-9.5q.1 1.83 1.3 2.9 1.2 1.1 3.1 1.1 2.63 0 4.87-1.56v2.47q-1.24.78-2.46 1.1-1.2.34-2.83.34-2.23 0-3.6-.87-1.4-.87-2.23-2.34-.82-1.48-.82-3.43 0-2.9 1.74-4.73 1.75-1.83 4.54-1.83 2.7 0 4.3 1.78 1.6 1.77 1.6 4.76v.33zm-9.44-1.52h6.8q-.1-1.5-.95-2.32-.85-.82-2.3-.82-1.43 0-2.35.82-.9.82-1.2 2.33z"
       style="line-height:125%;-inkscape-font-specification:'Gill Sans MT, Normal';text-align:start"
       font-family="Gill Sans MT"
       letter-spacing="0"
       word-spacing="0"
       id="path246" />
    <path
       fill="#404030"
       d="M622.85 816.6h2.7V836h-5.73q-3 0-4.8-1.8-1.76-1.8-1.76-4.8 0-2.82 1.86-4.64 1.88-1.82 4.8-1.82 1.34 0 2.93.54v-6.88zm0 17.22v-8.1q-1.25-.6-2.53-.6-2 0-3.18 1.25-1.18 1.23-1.18 3.33 0 1.97 1.03 3.04.6.64 1.3.86.7.22 2.48.22h2.07z"
       style="line-height:125%;-inkscape-font-specification:'Gill Sans MT, Normal';text-align:start"
       font-family="Gill Sans MT"
       letter-spacing="0"
       word-spacing="0"
       id="path248" />
    <rect
       width="247.292"
       height="56.81"
       x="386.172"
       y="799.89"
       fill="none"
       stroke="#ddd"
       stroke-width="3.342"
       ry="4"
       stroke-linecap="round"
       stroke-linejoin="round"
       rx="4"
       id="rect250" />
  </g>
</svg>
