<svg xmlns="http://www.w3.org/2000/svg" width="765" height="140"><g transform="translate(0 -912.362)"><path fill="#404030" d="M42.6 988q.2 0 .33.1.14.14.14.33 0 .18-.14.32-.14.13-.34.13t-.34-.13q-.14-.14-.14-.32 0-.17.14-.3.15-.14.33-.14zm-.4 1.6h.8v3.8h-.8v-3.8z" style="line-height:125%;-inkscape-font-specification:'Gill Sans MT, Normal';text-align:start" font-family="Gill Sans MT" letter-spacing="0" word-spacing="0"/><path fill="#404030" d="M44.95 989.6v.48q.53-.56 1.2-.56.4 0 .72.2.32.17.5.5.16.3.16 1v2.2h-.8v-2.18q0-.6-.2-.84-.18-.25-.62-.25-.56 0-.95.54v2.7h-.82v-3.8h.82z" style="line-height:125%;-inkscape-font-specification:'Gill Sans MT, Normal';text-align:start" font-family="Gill Sans MT" letter-spacing="0" word-spacing="0"/><path fill="#404030" d="M51.34 987.6h.8v5.8h-1.7q-.9 0-1.43-.52-.53-.54-.53-1.44 0-.84.56-1.4.57-.53 1.44-.53.4 0 .87.17v-2.06zm0 5.17v-2.43q-.37-.17-.75-.17-.6 0-.96.37t-.36 1q0 .58.3.9.2.2.4.26.2.07.75.07h.6z" style="line-height:125%;-inkscape-font-specification:'Gill Sans MT, Normal';text-align:start" font-family="Gill Sans MT" letter-spacing="0" word-spacing="0"/><path fill="#404030" d="M56.68 991.57h-2.84q.03.55.38.87.36.33.93.33.8 0 1.46-.47v.74q-.36.23-.72.33t-.85.1q-.67 0-1.08-.26-.42-.25-.67-.7-.24-.44-.24-1.02 0-.87.52-1.4.52-.56 1.36-.56.8 0 1.28.53t.48 1.42v.1zm-2.83-.45h2.04q-.04-.46-.3-.7-.25-.25-.68-.25-.43 0-.7.25-.28.24-.37.7z" style="line-height:125%;-inkscape-font-specification:'Gill Sans MT, Normal';text-align:start" font-family="Gill Sans MT" letter-spacing="0" word-spacing="0"/><path fill="#404030" d="M60.33 989.6h1.03l-1.67 1.87 1.78 1.94h-1.03l-1.27-1.36-1.2 1.37h-1l1.7-1.93-1.7-1.88h1l1.2 1.3 1.15-1.3z" style="line-height:125%;-inkscape-font-specification:'Gill Sans MT, Normal';text-align:start" font-family="Gill Sans MT" letter-spacing="0" word-spacing="0"/><path fill="#404030" d="M62.46 992.5q.22 0 .38.13.16.15.16.36 0 .2-.16.34t-.38.14q-.23 0-.38-.14-.16-.14-.16-.35 0-.22.16-.37.15-.14.38-.14z" style="line-height:125%;-inkscape-font-specification:'Gill Sans MT, Normal';text-align:start" font-family="Gill Sans MT" letter-spacing="0" word-spacing="0"/><path fill="#404030" d="M64 987.6h.8v2.5q.5-.58 1.24-.58.4 0 .72.2.32.18.48.52.16.33.16 1v2.17h-.8v-2.35q0-.42-.22-.67-.22-.26-.57-.26-.26 0-.5.13-.22.13-.5.43v2.73H64v-5.8z" style="line-height:125%;-inkscape-font-specification:'Gill Sans MT, Normal';text-align:start" font-family="Gill Sans MT" letter-spacing="0" word-spacing="0"/><path fill="#404030" d="M67.95 990.2l1.5-1.4v.8h1.28v.67h-1.28v1.88q0 .65.57.65.44 0 .9-.27v.7q-.45.25-1 .25-.54 0-.9-.3-.12-.1-.2-.2-.07-.12-.12-.3-.05-.2-.05-.7v-1.7h-.7v-.08z" style="line-height:125%;-inkscape-font-specification:'Gill Sans MT, Normal';text-align:start" font-family="Gill Sans MT" letter-spacing="0" word-spacing="0"/><path fill="#404030" d="M74.83 990.64v2.77h-.8v-2.1q0-.65-.18-.9t-.63-.25q-.25 0-.46.1-.2.12-.48.4v2.76h-.8v-3.8h.8v.5q.6-.58 1.2-.58.77 0 1.2.7.63-.7 1.33-.7.6 0 .98.4t.38 1.24v2.25h-.8v-2.25q0-.48-.2-.73t-.6-.25q-.5 0-.93.47z" style="line-height:125%;-inkscape-font-specification:'Gill Sans MT, Normal';text-align:start" font-family="Gill Sans MT" letter-spacing="0" word-spacing="0"/><path fill="#404030" d="M78.48 987.6h.8v5.8h-.8v-5.8z" style="line-height:125%;-inkscape-font-specification:'Gill Sans MT, Normal';text-align:start" font-family="Gill Sans MT" letter-spacing="0" word-spacing="0"/><path fill="#404030" d="M85.47 991.12v1.62q0 .2.14.2.16 0 .46-.2v.45q-.27.16-.44.22-.16.06-.34.06-.5 0-.6-.38-.52.37-1.1.37-.4 0-.7-.26-.28-.26-.28-.65 0-.37.28-.65.27-.28.78-.45l1.02-.33v-.2q0-.7-.73-.7-.65 0-1.27.64v-.82q.46-.52 1.34-.52.65 0 1.05.32.13.1.24.28.1.17.14.35.03.17.03.65zm-.8 1.54v-1.14l-.52.2q-.4.15-.58.3-.17.16-.17.4 0 .23.16.38t.42.15q.38 0 .7-.3z" style="line-height:125%;-inkscape-font-specification:'Gill Sans MT, Normal';text-align:start" font-family="Gill Sans MT" letter-spacing="0" word-spacing="0"/><path fill="#404030" d="M89.48 987.6h.8v5.8h-1.7q-.9 0-1.44-.52-.53-.54-.53-1.44 0-.84.57-1.4.56-.53 1.43-.53.4 0 .88.17v-2.06zm0 5.17v-2.43q-.38-.17-.76-.17-.6 0-.95.37t-.35 1q0 .58.3.9.2.2.4.26.2.07.74.07h.62z" style="line-height:125%;-inkscape-font-specification:'Gill Sans MT, Normal';text-align:start" font-family="Gill Sans MT" letter-spacing="0" word-spacing="0"/><path fill="#404030" d="M94 987.6h.8v5.8h-1.72q-.9 0-1.43-.52-.53-.54-.53-1.44 0-.84.56-1.4.56-.53 1.43-.53.4 0 .9.17v-2.06zm0 5.17v-2.43q-.4-.17-.77-.17-.6 0-.95.37t-.35 1q0 .58.3.9.2.2.4.26.2.07.74.07H94z" style="line-height:125%;-inkscape-font-specification:'Gill Sans MT, Normal';text-align:start" font-family="Gill Sans MT" letter-spacing="0" word-spacing="0"/><path fill="#404030" d="M99.33 991.57H96.5q.02.55.37.87.37.33.93.33.8 0 1.46-.47v.74q-.37.23-.73.33t-.85.1q-.67 0-1.08-.26-.42-.25-.67-.7-.24-.44-.24-1.02 0-.87.5-1.4.53-.56 1.37-.56.8 0 1.28.53t.48 1.42v.1zm-2.82-.45h2.04q-.03-.46-.28-.7-.26-.25-.7-.25-.42 0-.7.25-.27.24-.35.7z" style="line-height:125%;-inkscape-font-specification:'Gill Sans MT, Normal';text-align:start" font-family="Gill Sans MT" letter-spacing="0" word-spacing="0"/><path fill="#404030" d="M102.9 987.6h.8v5.8H102q-.9 0-1.45-.52-.53-.54-.53-1.44 0-.84.56-1.4.56-.53 1.43-.53.42 0 .9.17v-2.06zm0 5.17v-2.43q-.38-.17-.76-.17-.6 0-.96.37-.35.37-.35 1 0 .58.3.9.2.2.4.26.2.07.74.07h.62z" style="line-height:125%;-inkscape-font-specification:'Gill Sans MT, Normal';text-align:start" font-family="Gill Sans MT" letter-spacing="0" word-spacing="0"/><path fill="#404030" d="M41.98 1003.77v-.8q.34.2.7.35.34.14.6.14.24 0 .42-.12.18-.1.18-.27t-.12-.28q-.12-.12-.5-.33-.78-.4-1.02-.7-.23-.28-.23-.62 0-.44.37-.72.36-.28.93-.28.6 0 1.22.32v.74q-.7-.4-1.17-.4-.23 0-.37.1-.14.1-.14.25 0 .13.12.25.14.12.46.3l.3.15q1 .54 1 1.2 0 .46-.4.76-.38.3-1 .3-.35 0-.63-.06-.3-.07-.72-.27z" style="line-height:125%;-inkscape-font-specification:'Gill Sans MT, Normal';text-align:start" font-family="Gill Sans MT" letter-spacing="0" word-spacing="0"/><path fill="#404030" d="M45.07 1000.83l1.5-1.4v.8h1.3v.68h-1.3v1.88q0 .66.58.66.43 0 .9-.28v.7q-.45.25-1 .25-.54 0-.9-.3-.12-.08-.2-.2-.07-.1-.13-.3-.04-.18-.04-.7v-1.7h-.7v-.07z" style="line-height:125%;-inkscape-font-specification:'Gill Sans MT, Normal';text-align:start" font-family="Gill Sans MT" letter-spacing="0" word-spacing="0"/><path fill="#404030" d="M51.12 1000.23h.9l-2.86 5.76h-.9l1.38-2.77-1.56-3h.9l1.1 2.15 1.04-2.15z" style="line-height:125%;-inkscape-font-specification:'Gill Sans MT, Normal';text-align:start" font-family="Gill Sans MT" letter-spacing="0" word-spacing="0"/><path fill="#404030" d="M52.6 998.24h.8v5.8h-.8v-5.8z" style="line-height:125%;-inkscape-font-specification:'Gill Sans MT, Normal';text-align:start" font-family="Gill Sans MT" letter-spacing="0" word-spacing="0"/><path fill="#404030" d="M58 1002.2h-2.84q.03.55.38.87.36.33.93.33.8 0 1.46-.47v.74q-.37.23-.74.33t-.85.1q-.67 0-1.08-.26-.42-.26-.67-.7-.24-.44-.24-1.02 0-.88.52-1.42.52-.55 1.36-.55.8 0 1.28.53t.48 1.43v.1zm-2.83-.45h2.04q-.02-.45-.28-.7-.25-.24-.68-.24-.43 0-.7.25-.28.25-.37.7z" style="line-height:125%;-inkscape-font-specification:'Gill Sans MT, Normal';text-align:start" font-family="Gill Sans MT" letter-spacing="0" word-spacing="0"/><path fill="#404030" d="M59.45 1003.12q.22 0 .38.15.16.14.16.35 0 .2-.17.35-.15.14-.38.14-.22 0-.38-.13-.15-.14-.15-.35 0-.2.15-.35.16-.15.38-.15z" style="line-height:125%;-inkscape-font-specification:'Gill Sans MT, Normal';text-align:start" font-family="Gill Sans MT" letter-spacing="0" word-spacing="0"/><path fill="#404030" d="M64.04 1003.15v.75q-.6.2-1.18.2-.95 0-1.52-.52-.56-.53-.56-1.42 0-.9.55-1.46.55-.55 1.45-.55.3 0 .56.06.25.06.6.22v.8q-.6-.36-1.1-.36-.56 0-.9.36-.35.35-.35.9 0 .6.36.94.38.35 1.02.35.46 0 1.06-.25z" style="line-height:125%;-inkscape-font-specification:'Gill Sans MT, Normal';text-align:start" font-family="Gill Sans MT" letter-spacing="0" word-spacing="0"/><path fill="#404030" d="M64.75 1003.77v-.8q.33.2.7.35.34.14.58.14.25 0 .43-.12.18-.1.18-.27t-.1-.28q-.13-.12-.52-.33-.77-.4-1-.7-.25-.28-.25-.62 0-.44.36-.72.37-.28.94-.28.6 0 1.22.32v.74q-.73-.4-1.18-.4-.23 0-.38.1-.14.1-.14.25 0 .13.13.25t.46.3l.27.15q1 .54 1 1.2 0 .46-.38.76-.4.3-1 .3-.37 0-.65-.06-.28-.07-.7-.27z" style="line-height:125%;-inkscape-font-specification:'Gill Sans MT, Normal';text-align:start" font-family="Gill Sans MT" letter-spacing="0" word-spacing="0"/><path fill="#404030" d="M68.2 1003.77v-.8q.35.2.7.35.36.14.6.14.25 0 .43-.12.18-.1.18-.27t-.1-.28q-.12-.12-.5-.33-.8-.4-1.03-.7-.23-.28-.23-.62 0-.44.36-.72.36-.28.93-.28.6 0 1.22.32v.74q-.7-.4-1.16-.4-.25 0-.4.1-.13.1-.13.25 0 .13.12.25.13.12.45.3l.3.15q1 .54 1 1.2 0 .46-.4.76-.38.3-1 .3-.35 0-.63-.06-.28-.07-.7-.27z" style="line-height:125%;-inkscape-font-specification:'Gill Sans MT, Normal';text-align:start" font-family="Gill Sans MT" letter-spacing="0" word-spacing="0"/><path fill="#404030" d="M76.9 1001.75v1.62q0 .2.15.2.14 0 .45-.2v.46q-.27.16-.44.22-.16.06-.34.06-.52 0-.6-.37-.52.37-1.1.37-.42 0-.7-.26-.28-.26-.28-.66 0-.36.27-.65.3-.28.8-.45l1.02-.33v-.2q0-.7-.73-.7-.66 0-1.28.65v-.83q.46-.52 1.34-.52.65 0 1.05.32.14.1.24.28.1.17.14.35.03.17.03.65zm-.78 1.54v-1.14l-.54.2q-.4.15-.58.3-.16.16-.16.4 0 .23.16.38t.4.15q.4 0 .72-.3z" style="line-height:125%;-inkscape-font-specification:'Gill Sans MT, Normal';text-align:start" font-family="Gill Sans MT" letter-spacing="0" word-spacing="0"/><path fill="#404030" d="M80.92 998.24h.8v5.8h-1.7q-.9 0-1.44-.53-.53-.53-.53-1.43 0-.84.55-1.38.57-.56 1.44-.56.4 0 .88.16v-2.06zm0 5.16v-2.42q-.38-.18-.76-.18-.6 0-.95.37t-.35 1q0 .58.3.9.2.2.4.26.2.07.75.07h.62z" style="line-height:125%;-inkscape-font-specification:'Gill Sans MT, Normal';text-align:start" font-family="Gill Sans MT" letter-spacing="0" word-spacing="0"/><path fill="#404030" d="M85.43 998.24h.8v5.8h-1.7q-.9 0-1.44-.53-.54-.53-.54-1.43 0-.84.55-1.38.58-.56 1.45-.56.4 0 .88.16v-2.06zm0 5.16v-2.42q-.38-.18-.76-.18-.6 0-.95.37-.36.37-.36 1 0 .58.3.9.2.2.4.26.2.07.75.07h.63z" style="line-height:125%;-inkscape-font-specification:'Gill Sans MT, Normal';text-align:start" font-family="Gill Sans MT" letter-spacing="0" word-spacing="0"/><path fill="#404030" d="M90.77 1002.2h-2.84q.03.55.38.87.37.33.94.33.8 0 1.46-.47v.74q-.37.23-.73.33t-.85.1q-.67 0-1.08-.26-.42-.26-.67-.7-.24-.44-.24-1.02 0-.88.52-1.42.52-.55 1.36-.55.8 0 1.3.53.47.53.47 1.43v.1zm-2.83-.45h2.04q-.03-.45-.3-.7-.24-.24-.67-.24-.42 0-.7.25-.27.25-.36.7z" style="line-height:125%;-inkscape-font-specification:'Gill Sans MT, Normal';text-align:start" font-family="Gill Sans MT" letter-spacing="0" word-spacing="0"/><path fill="#404030" d="M94.33 998.24h.8v5.8h-1.7q-.9 0-1.44-.53-.54-.53-.54-1.43 0-.84.56-1.38.56-.56 1.43-.56.4 0 .88.16v-2.06zm0 5.16v-2.42q-.37-.18-.76-.18-.6 0-.95.37t-.35 1q0 .58.3.9.2.2.4.26.2.07.74.07h.63z" style="line-height:125%;-inkscape-font-specification:'Gill Sans MT, Normal';text-align:start" font-family="Gill Sans MT" letter-spacing="0" word-spacing="0"/><path fill="#404030" d="M42.2 1008.88h.8v5.8h-.8v-5.8z" style="line-height:125%;-inkscape-font-specification:'Gill Sans MT, Normal';text-align:start" font-family="Gill Sans MT" letter-spacing="0" word-spacing="0"/><path fill="#404030" d="M46.08 1010.85q.92 0 1.53.56.62.57.62 1.43 0 .82-.62 1.37-.62.54-1.56.54-.9 0-1.52-.55-.6-.56-.6-1.4 0-.83.6-1.4.63-.55 1.56-.55zm-.04.68q-.58 0-.95.36-.38.34-.38.9 0 .55.38.9.38.34.97.34.6 0 .96-.35.38-.36.38-.9 0-.56-.38-.9-.4-.37-.98-.37z" style="line-height:125%;-inkscape-font-specification:'Gill Sans MT, Normal';text-align:start" font-family="Gill Sans MT" letter-spacing="0" word-spacing="0"/><path fill="#404030" d="M48.9 1012.18q0-.6.48-.97.48-.34 1.3-.34h1.66v.6h-.8q.22.22.3.4.1.2.1.43 0 .3-.17.58-.18.3-.47.44-.28.15-.93.25-.45.06-.45.3 0 .12.17.2.16.1.6.18.75.16.96.25.2.08.38.24.3.28.3.7 0 .54-.52.86-.5.33-1.37.33-.86 0-1.38-.33-.52-.33-.52-.87 0-.78 1.02-1-.4-.25-.4-.5 0-.17.17-.32.17-.14.47-.2-.9-.4-.9-1.22zm1.52-.67q-.33 0-.56.22-.22.2-.22.5t.22.5q.22.18.57.18.33 0 .56-.2.22-.2.22-.5t-.23-.5q-.24-.2-.58-.2zm-.2 3.36q-.4 0-.66.16-.25.16-.25.4 0 .6 1.14.6.53 0 .82-.15.3-.14.3-.4 0-.28-.38-.45-.37-.16-.95-.16z" style="line-height:125%;-inkscape-font-specification:'Gill Sans MT, Normal';text-align:start" font-family="Gill Sans MT" letter-spacing="0" word-spacing="0"/><path fill="#404030" d="M54.83 1010.85q.92 0 1.53.56.6.57.6 1.43 0 .82-.6 1.37-.63.54-1.57.54-.92 0-1.53-.55-.6-.56-.6-1.4 0-.83.6-1.4.62-.55 1.56-.55zm-.05.68q-.57 0-.94.36-.37.34-.37.9 0 .55.38.9.37.34.97.34t.96-.35q.38-.36.38-.9 0-.56-.4-.9-.38-.37-.98-.37z" style="line-height:125%;-inkscape-font-specification:'Gill Sans MT, Normal';text-align:start" font-family="Gill Sans MT" letter-spacing="0" word-spacing="0"/><path fill="#404030" d="M58.02 1013.75q.22 0 .38.15.16.14.16.35 0 .2-.16.35-.15.14-.38.14t-.38-.14q-.15-.14-.15-.35 0-.2.14-.35.15-.15.38-.15z" style="line-height:125%;-inkscape-font-specification:'Gill Sans MT, Normal';text-align:start" font-family="Gill Sans MT" letter-spacing="0" word-spacing="0"/><path fill="#404030" d="M59.53 1016.63v-5.77h1.4q1.08 0 1.68.5.6.5.6 1.42 0 .86-.56 1.4-.56.56-1.44.56-.38 0-.85-.16v2.05h-.82zm1.38-5.07h-.55v2.35q.37.2.77.2.56 0 .92-.38.36-.37.36-.95 0-.37-.17-.66-.17-.28-.46-.4-.3-.14-.86-.14z" style="line-height:125%;-inkscape-font-specification:'Gill Sans MT, Normal';text-align:start" font-family="Gill Sans MT" letter-spacing="0" word-spacing="0"/><path fill="#404030" d="M64.88 1010.86v.48q.54-.56 1.22-.56.38 0 .7.2.33.17.5.5.17.32.17 1v2.2h-.8v-2.18q0-.58-.2-.83-.18-.26-.63-.26-.56 0-.96.55v2.73h-.82v-3.82h.82z" style="line-height:125%;-inkscape-font-specification:'Gill Sans MT, Normal';text-align:start" font-family="Gill Sans MT" letter-spacing="0" word-spacing="0"/><path fill="#404030" d="M68.38 1012.18q0-.6.47-.97.47-.34 1.3-.34h1.65v.6H71q.22.22.32.4.1.2.1.43 0 .3-.2.58-.17.3-.46.44-.28.15-.92.25-.46.06-.46.3 0 .12.17.2.17.1.62.18.74.16.95.25.2.08.4.24.28.28.28.7 0 .54-.52.86-.5.33-1.37.33-.85 0-1.37-.33-.5-.33-.5-.87 0-.78 1-1-.4-.25-.4-.5 0-.17.17-.32.17-.14.47-.2-.9-.4-.9-1.22zm1.5-.67q-.33 0-.55.22-.23.2-.23.5t.22.5q.23.18.57.18.33 0 .55-.2.23-.2.23-.5t-.23-.5q-.23-.2-.57-.2zm-.2 3.36q-.4 0-.65.16-.26.16-.26.4 0 .6 1.13.6.53 0 .82-.15.3-.14.3-.4 0-.28-.38-.45-.36-.16-.95-.16z" style="line-height:125%;-inkscape-font-specification:'Gill Sans MT, Normal';text-align:start" font-family="Gill Sans MT" letter-spacing="0" word-spacing="0"/><path fill="#404030" d="M77.47 1012.38v1.63q0 .2.14.2.16 0 .46-.2v.46q-.27.16-.44.22-.16.06-.34.06-.5 0-.6-.38-.52.38-1.1.38-.4 0-.7-.27-.28-.26-.28-.66 0-.35.28-.63.27-.3.78-.46l1.02-.32v-.2q0-.7-.73-.7-.65 0-1.27.65v-.83q.47-.52 1.34-.52.65 0 1.05.33.13.1.24.28.1.17.14.35.03.17.03.65zm-.8 1.54v-1.13l-.52.18q-.4.16-.58.32-.17.15-.17.38 0 .24.16.4.16.14.42.14.38 0 .7-.3z" style="line-height:125%;-inkscape-font-specification:'Gill Sans MT, Normal';text-align:start" font-family="Gill Sans MT" letter-spacing="0" word-spacing="0"/><path fill="#404030" d="M81.48 1008.88h.8v5.8h-1.7q-.9 0-1.44-.54-.53-.53-.53-1.43 0-.84.57-1.38.56-.55 1.43-.55.4 0 .88.17v-2.06zm0 5.15v-2.42q-.38-.17-.76-.17-.6 0-.95.37t-.35 1q0 .6.3.9.2.2.4.26.2.07.74.07h.62z" style="line-height:125%;-inkscape-font-specification:'Gill Sans MT, Normal';text-align:start" font-family="Gill Sans MT" letter-spacing="0" word-spacing="0"/><path fill="#404030" d="M86 1008.88h.8v5.8h-1.72q-.9 0-1.43-.54-.53-.53-.53-1.43 0-.84.56-1.38.56-.55 1.43-.55.4 0 .9.17v-2.06zm0 5.15v-2.42q-.4-.17-.77-.17-.6 0-.95.37t-.35 1q0 .6.3.9.2.2.4.26.2.07.74.07H86z" style="line-height:125%;-inkscape-font-specification:'Gill Sans MT, Normal';text-align:start" font-family="Gill Sans MT" letter-spacing="0" word-spacing="0"/><path fill="#404030" d="M91.33 1012.83H88.5q.02.55.38.88.36.33.92.33.8 0 1.46-.46v.73q-.37.24-.73.34-.36.1-.85.1-.67 0-1.08-.27-.4-.26-.66-.7-.25-.44-.25-1.02 0-.87.5-1.42.54-.55 1.37-.55.8 0 1.28.53.48.55.48 1.44v.1zm-2.82-.45h2.04q-.03-.45-.28-.7-.26-.24-.7-.24-.42 0-.7.24-.27.25-.35.7z" style="line-height:125%;-inkscape-font-specification:'Gill Sans MT, Normal';text-align:start" font-family="Gill Sans MT" letter-spacing="0" word-spacing="0"/><path fill="#404030" d="M94.9 1008.88h.8v5.8H94q-.9 0-1.45-.54-.53-.53-.53-1.43 0-.84.56-1.38.56-.55 1.43-.55.42 0 .9.17v-2.06zm0 5.15v-2.42q-.38-.17-.76-.17-.6 0-.96.37-.35.37-.35 1 0 .6.3.9.2.2.4.26.2.07.74.07h.62z" style="line-height:125%;-inkscape-font-specification:'Gill Sans MT, Normal';text-align:start" font-family="Gill Sans MT" letter-spacing="0" word-spacing="0"/><rect width="74" height="39.5" x="35.838" y="982.612" fill="none" stroke="#ddd" rx="4" ry="4" stroke-linecap="round" stroke-linejoin="round"/><rect width="20" height="20" x="622.412" y="912.362" fill="#f05133" rx="5" ry="5"/><path fill="#fff" d="M634.98 922.75h-5.25v5.58h1.9q.16 0 .23.18.08.16.1.38.03.2-.04.36-.06.16-.2.16h-4.88q-.15 0-.24-.16-.06-.17-.06-.36.02-.22.1-.37.12-.17.3-.17h1.1V916.4h-1.57q-.15 0-.23-.16-.07-.17-.07-.37 0-.22.07-.37.06-.17.23-.17h4.28q.17 0 .26.17.1.15.1.37 0 .2-.1.37-.08.15-.23.15h-1.04v5.33h5.25v-5.34h-1.58q-.17 0-.26-.16-.07-.17-.07-.37 0-.22.07-.37.1-.17.24-.17h4.36q.18 0 .26.17.1.15.07.37 0 .2-.1.37-.1.15-.27.15h-1.02v11.93h1.65q.15 0 .24.18.08.16.08.38 0 .2-.08.36-.07.16-.22.16h-4.7q-.2 0-.25-.16-.07-.17-.07-.36.03-.22.1-.37.1-.17.25-.17h1.3v-5.58z" style="line-height:125%;-inkscape-font-specification:'Triplicate T4c, Normal';text-align:start" font-family="Triplicate T4c" letter-spacing="0" word-spacing="0"/><rect width="74" height="16" x="116.761" y="962.935" fill="#f8f8f8" stroke="#ddd" rx="4" ry="4" stroke-linecap="round" stroke-linejoin="round"/><path fill="#404030" d="M122.82 973.62q0-.45.17-.85.16-.4.44-.7.28-.33.62-.55.34-.23.68-.35v-.23q-.76-.46-1.1-1.03-.37-.57-.37-1.22 0-.47.2-.9.22-.45.6-.78.4-.35.96-.56.56-.2 1.27-.2.54 0 1.04.15.53.13.93.42.42.28.66.72.25.42.25 1 0 .4-.14.75-.14.34-.37.63-.2.3-.5.5-.25.23-.5.34v.18q.82.32 1.37.96.56.65.56 1.6 0 .6-.25 1.1-.25.48-.7.83-.46.35-1.1.54-.64.2-1.42.2-.7 0-1.33-.2-.6-.18-1.05-.5-.43-.36-.68-.83-.25-.47-.25-1.02zm1.27-.25q0 .38.1.73.14.35.38.64.27.28.67.45.4.15.95.15.5 0 .9-.13.4-.14.7-.38.27-.25.4-.57.16-.32.16-.67 0-.86-.72-1.44-.7-.58-1.95-.8-1.6.64-1.6 2zm.24-4.74q0 .34.15.63.16.3.45.54.3.25.68.44.4.18.85.32.16-.06.4-.2.26-.17.5-.4.26-.25.43-.6.2-.34.2-.77 0-.8-.5-1.22-.5-.43-1.25-.43-.46 0-.83.16-.36.16-.6.4-.24.24-.36.55-.12.3-.12.58z" style="line-height:125%;-inkscape-font-specification:'Triplicate T4c, Normal';text-align:start" font-family="Triplicate T4c" letter-spacing="0" word-spacing="0"/><path fill="#404030" d="M132.08 973.62q0-.45.17-.85.17-.4.44-.7.27-.33.6-.55.35-.23.7-.35v-.23q-.77-.46-1.12-1.03-.36-.57-.36-1.22 0-.47.2-.9.22-.45.6-.78.4-.35.96-.56.56-.2 1.27-.2.54 0 1.05.15.52.13.92.42.42.28.67.72.23.42.23 1 0 .4-.14.75-.14.34-.38.63-.2.3-.5.5-.25.23-.5.34v.18q.82.32 1.37.96.55.65.55 1.6 0 .6-.25 1.1-.24.48-.7.83-.45.35-1.1.54-.63.2-1.42.2-.7 0-1.33-.2-.6-.18-1.05-.5-.43-.36-.68-.83-.24-.47-.24-1.02zm1.26-.25q0 .38.13.73.12.35.37.64.26.28.66.45.4.15.96.15.5 0 .9-.13.4-.14.7-.38.26-.25.4-.57.16-.32.16-.67 0-.86-.73-1.44-.72-.58-1.95-.8-1.6.64-1.6 2zm.25-4.74q0 .34.14.63.17.3.47.54.3.25.68.44.4.18.85.32.16-.06.4-.2.27-.17.5-.4.26-.25.43-.6.2-.34.2-.77 0-.8-.5-1.22-.5-.43-1.26-.43-.46 0-.83.16-.36.16-.6.4-.23.24-.36.55-.1.3-.1.58z" style="line-height:125%;-inkscape-font-specification:'Triplicate T4c, Normal';text-align:start" font-family="Triplicate T4c" letter-spacing="0" word-spacing="0"/><path fill="#404030" d="M146.2 971.88q-.43.38-.94.6-.5.18-1.2.18-.54 0-1.05-.22-.48-.22-.87-.63-.37-.4-.6-.98-.22-.6-.22-1.36 0-.76.3-1.35.27-.6.72-1 .46-.42 1-.64.6-.22 1.16-.22.74 0 1.34.28.62.26 1.05.8.45.55.7 1.38.24.84.24 1.94 0 .8-.2 1.6-.2.77-.6 1.44-.4.67-.96 1.2-.56.53-1.3.84-.22.1-.56.22-.32.1-.7.17-.4.1-.78.14-.38.06-.72.08-.1 0-.14-.12-.05-.12-.05-.26 0-.13.04-.27.04-.13.15-.14.6-.1 1.26-.24.68-.15 1.1-.36.78-.33 1.3-1.07.5-.76.76-1.87l-.2-.12zm.16-1q.03-.13.05-.3.02-.2.02-.4.02-.18.02-.34 0-.16 0-.26 0-.56-.16-1.02-.15-.48-.4-.82-.28-.35-.66-.54-.37-.2-.8-.2-.4 0-.75.17-.34.16-.6.48-.24.3-.4.78-.14.45-.14 1.03 0 .6.16 1.05.16.44.42.73.26.27.6.4.3.14.63.14.67 0 1.2-.27.53-.27.8-.6z" style="line-height:125%;-inkscape-font-specification:'Triplicate T4c, Normal';text-align:start" font-family="Triplicate T4c" letter-spacing="0" word-spacing="0"/><path fill="#404030" d="M155.27 970.82q.8.23 1.3.9.5.64.5 1.52 0 .63-.25 1.17-.25.53-.73.92-.47.4-1.17.62-.68.23-1.54.23-.6 0-1.35-.18-.76-.17-1.45-.63-.13-.1-.13-.24.02-.16.1-.3.1-.13.2-.2.15-.1.27-.02.5.32 1.02.5.53.17 1.3.17 1.06 0 1.7-.5.68-.53.68-1.5 0-.96-.58-1.47-.55-.5-1.4-.5h-.66q-.13 0-.17-.13-.05-.13-.05-.28 0-.17.05-.3.06-.13.17-.13h.7q.24 0 .48-.1.25-.08.45-.28.22-.2.36-.54.13-.33.13-.8 0-1-.4-1.4-.4-.45-1-.45-.56 0-.86.24-.3.24-.32.62-.03.43-.25.62-.2.2-.55.2-.36 0-.5-.15t-.14-.4q0-.24.18-.55.2-.3.53-.57.36-.27.86-.44.5-.2 1.17-.2.5 0 1 .15.47.16.84.45.37.3.6.76.23.46.23 1.1 0 .65-.4 1.2-.4.5-.93.74v.18z" style="line-height:125%;-inkscape-font-specification:'Triplicate T4c, Normal';text-align:start" font-family="Triplicate T4c" letter-spacing="0" word-spacing="0"/><path fill="#404030" d="M165.45 972.86h.94q.2 0 .3.13.08.12.06.28 0 .15-.1.28-.07.13-.2.13h-1v2.25q0 .12-.18.18-.17.07-.37.07-.17 0-.34-.06t-.17-.2v-2.23h-4.12q-.17 0-.25-.18-.07-.2-.1-.46-.02-.24 0-.46.03-.24.06-.3.93-1.42 1.7-2.87.77-1.44 1.17-2.97.05-.2.27-.25.23-.06.47-.03.26 0 .45.1.18.1.15.25-.22.73-.6 1.5-.36.76-.82 1.53-.46.76-.97 1.5-.5.72-.98 1.36v.46h3.57v-2.68q0-.12.16-.18.17-.06.35-.04.2 0 .38.07.17.06.17.18v2.66z" style="line-height:125%;-inkscape-font-specification:'Triplicate T4c, Normal';text-align:start" font-family="Triplicate T4c" letter-spacing="0" word-spacing="0"/><path fill="#404030" d="M170.07 972.7q.02 1.24.56 1.84.56.58 1.57.58.48 0 .98-.06t.97-.14q.48-.1.88-.2t.72-.23q.1-.05.2.02.1.06.16.16.07.1.07.2t-.06.15q-.4.2-.9.37-.47.17-1 .32-.5.13-1.04.2-.52.1-1.03.1-.8 0-1.44-.24-.63-.24-1.06-.65-.4-.42-.63-.97-.2-.57-.2-1.23 0-.9.32-1.6.32-.7.83-1.18.53-.5 1.17-.76.67-.27 1.33-.27.73 0 1.33.22.6.2 1.05.62.44.4.68 1 .25.6.25 1.32 0 .18-.1.3-.07.1-.3.1h-5.28zm4.37-.67q-.03-.4-.15-.8t-.37-.72q-.23-.3-.62-.5-.36-.2-.9-.2-.5 0-.92.2-.4.16-.73.47-.3.3-.5.7-.18.4-.2.86h4.4z" style="line-height:125%;-inkscape-font-specification:'Triplicate T4c, Normal';text-align:start" font-family="Triplicate T4c" letter-spacing="0" word-spacing="0"/><path fill="#404030" d="M178.34 973.62q0-.45.17-.85.18-.4.46-.7.27-.33.6-.55.35-.23.7-.35v-.23q-.76-.46-1.12-1.03-.35-.57-.35-1.22 0-.47.2-.9.2-.45.6-.78.4-.35.95-.56.55-.2 1.26-.2.55 0 1.06.15.53.13.93.42.4.28.65.72.25.42.25 1 0 .4-.14.75-.14.34-.37.63-.23.3-.5.5-.27.23-.52.34v.18q.82.32 1.38.96.55.65.55 1.6 0 .6-.23 1.1-.25.48-.7.83-.46.35-1.1.54-.64.2-1.43.2-.7 0-1.33-.2-.6-.18-1.04-.5-.43-.36-.67-.83-.26-.47-.26-1.02zm1.26-.25q0 .38.13.73.12.35.37.64.26.28.66.45.4.15.96.15.5 0 .9-.13.4-.14.7-.38.27-.25.4-.57.16-.32.16-.67 0-.86-.73-1.44-.7-.58-1.94-.8-1.6.64-1.6 2zm.25-4.74q0 .34.16.63.18.3.47.54.3.25.68.44.4.18.85.32.15-.06.4-.2.26-.17.5-.4.25-.25.42-.6.2-.34.2-.77 0-.8-.5-1.22-.5-.43-1.26-.43-.46 0-.83.16-.35.16-.6.4-.23.24-.36.55-.12.3-.12.58z" style="line-height:125%;-inkscape-font-specification:'Triplicate T4c, Normal';text-align:start" font-family="Triplicate T4c" letter-spacing="0" word-spacing="0"/><rect width="74" height="16" x="35.898" y="962.935" fill="#f8f8f8" stroke="#ddd" rx="4" ry="4" stroke-linecap="round" stroke-linejoin="round"/><path fill="#404030" d="M46.65 970.82q.8.23 1.3.9.5.64.5 1.52 0 .63-.25 1.17-.25.53-.73.92-.46.4-1.16.62-.67.23-1.53.23-.6 0-1.34-.18-.76-.17-1.45-.63-.13-.1-.13-.24.02-.16.1-.3.1-.13.2-.2.15-.1.27-.02.5.32 1.02.5.53.17 1.3.17 1.06 0 1.7-.5.68-.53.68-1.5 0-.96-.58-1.47-.55-.5-1.4-.5h-.66q-.13 0-.17-.13-.04-.13-.04-.28 0-.17.05-.3.07-.13.18-.13h.7q.24 0 .48-.1.25-.08.45-.28.23-.2.37-.54.14-.33.14-.8 0-1-.4-1.4-.4-.45-1-.45-.55 0-.85.24-.3.24-.32.62-.03.43-.25.62-.2.2-.55.2-.36 0-.5-.15t-.14-.4q0-.24.16-.55.2-.3.53-.57.34-.27.84-.44.5-.2 1.17-.2.52 0 1 .15.48.16.85.45.37.3.6.76.23.46.23 1.1 0 .65-.4 1.2-.4.5-.93.74v.18z" style="line-height:125%;-inkscape-font-specification:'Triplicate T4c, Normal';text-align:start" font-family="Triplicate T4c" letter-spacing="0" word-spacing="0"/><path fill="#404030" d="M57.46 967.4q-1.03 1.95-1.93 4.13-.88 2.2-1.52 4.36-.06.12-.32.2-.26.07-.57.07-.3 0-.53-.07-.23-.06-.14-.27.8-2 1.82-4.1 1.02-2.1 2.18-4.02l-.1-.2q-.46 0-1 .02-.57 0-1.14.02-.58 0-1.1.03-.53 0-.9.03-.3 0-.43-.16-.14-.2-.16-.4 0-.25.1-.44.12-.18.33-.18.1 0 .37 0 .26 0 .56.02.3 0 .6.02.32 0 .52 0h2.72q.18 0 .34.1.15.1.25.25.08.14.1.32.02.16-.04.3z" style="line-height:125%;-inkscape-font-specification:'Triplicate T4c, Normal';text-align:start" font-family="Triplicate T4c" letter-spacing="0" word-spacing="0"/><path fill="#404030" d="M63.72 975.27q.34 0 .74-.12.42-.13.77-.44.36-.3.6-.82.22-.52.22-1.33 0-.5-.2-.93-.18-.44-.5-.76-.3-.32-.72-.5-.4-.2-.83-.2-.46 0-.93.15-.44.17-.8.5v3.4q0 .44.4.76.42.3 1.25.3zm-2.95-8.42l-1 .2q-.1 0-.17-.1-.04-.14-.08-.3 0-.15 0-.28.02-.14.1-.16.2-.02.58-.08.37-.07.68-.14.3-.08.53-.15.24-.07.38-.1.1-.04.3.07.2.1.15.4-.13.9-.17 1.88-.04.94-.07 1.73l.18.13q.4-.28.9-.47.5-.2 1.04-.2.7 0 1.28.26.6.26 1 .72.42.45.66 1.05.23.58.23 1.24 0 .9-.37 1.57-.35.67-.9 1.1-.55.44-1.23.66-.66.22-1.3.22-.52 0-.87-.1-.36-.1-.56-.16l-.48.36q-.07.06-.2.05-.15-.02-.3-.07-.12-.06-.22-.17-.1-.1-.06-.2.02-.07.03-.24.03-.18.05-.38 0-.2 0-.42.03-.22.03-.37v-7.43l-.16-.12z" style="line-height:125%;-inkscape-font-specification:'Triplicate T4c, Normal';text-align:start" font-family="Triplicate T4c" letter-spacing="0" word-spacing="0"/><path fill="#404030" d="M72.97 975.27q.34 0 .75-.12.4-.13.77-.44.34-.3.57-.82.23-.52.23-1.33 0-.5-.2-.93-.18-.44-.5-.76-.3-.32-.7-.5-.42-.2-.85-.2-.46 0-.92.15-.45.17-.8.5v3.4q0 .44.4.76.4.3 1.24.3zm-2.94-8.42l-1.02.2q-.08 0-.15-.1-.04-.14-.07-.3-.02-.15 0-.28 0-.14.1-.16.2-.02.58-.08.37-.07.68-.14.3-.08.52-.15.23-.07.37-.1.1-.04.3.07.2.1.15.4-.13.9-.17 1.88-.02.94-.05 1.73l.18.13q.4-.28.9-.47.5-.2 1.05-.2.7 0 1.28.26.58.26 1 .72.42.45.65 1.05.24.58.24 1.24 0 .9-.36 1.57-.35.67-.9 1.1-.55.44-1.23.66-.66.22-1.3.22-.52 0-.87-.1-.36-.1-.56-.16l-.47.36q-.07.06-.2.05-.14-.02-.28-.07-.14-.06-.23-.17-.1-.1-.07-.2.02-.07.03-.24.04-.18.05-.38.02-.2.02-.42 0-.22 0-.37v-7.43l-.14-.12z" style="line-height:125%;-inkscape-font-specification:'Triplicate T4c, Normal';text-align:start" font-family="Triplicate T4c" letter-spacing="0" word-spacing="0"/><path fill="#404030" d="M85.8 971.07q0 1.2-.3 2.15-.26.95-.77 1.6-.5.66-1.2 1-.7.35-1.5.35-.73 0-1.33-.34-.6-.35-1.05-.94-.43-.6-.68-1.4-.25-.8-.25-1.72 0-1.18.2-2.2.22-1 .65-1.75.45-.74 1.13-1.17.7-.42 1.64-.42.7 0 1.32.3.64.3 1.1.9.48.6.75 1.5.3.92.3 2.13zm-1.4.08q0-1.15-.17-1.96-.17-.83-.48-1.34-1.38 3.6-2.63 7.13.46.44 1.05.44.43 0 .83-.22.4-.22.7-.7.32-.52.5-1.34.2-.83.2-2.03zm-3.78 3.1q.68-1.74 1.3-3.5.65-1.75 1.25-3.52-.4-.26-.9-.26-.6 0-1 .3-.42.3-.68.88-.27.55-.4 1.36-.12.8-.12 1.8 0 .98.14 1.72.14.73.4 1.24z" style="line-height:125%;-inkscape-font-specification:'Triplicate T4c, Normal';text-align:start" font-family="Triplicate T4c" letter-spacing="0" word-spacing="0"/><path fill="#404030" d="M89.26 966.9q0-.25.14-.34.14-.1.35-.1h3.06q.3 0 .53-.03.23-.03.45-.07.18-.03.26.14.1.18.03.4-.04.2-.26.4-.2.2-.64.2h-3.1l-.15 2.3.2.13q.2-.1.5-.16.3-.07.82-.07.58 0 1.16.2.58.16 1.04.54.47.38.75.95.3.56.3 1.3t-.34 1.37q-.3.63-.9 1.1-.56.46-1.4.74-.84.27-1.88.27-.28 0-.57-.03-.28-.03-.54-.1-.26-.03-.5-.1-.2-.08-.35-.16-.13-.1-.13-.25 0-.16.1-.3.07-.14.2-.23.13-.08.26 0 .2.13.63.24.4.08 1.06.08.62 0 1.16-.17.56-.2.96-.53.4-.33.64-.8.25-.48.25-1.08 0-.96-.63-1.57-.62-.6-1.9-.6-.45 0-.76.07-.3.1-.52.2-.14.1-.32-.04-.2-.14-.17-.3l.23-3.6z" style="line-height:125%;-inkscape-font-specification:'Triplicate T4c, Normal';text-align:start" font-family="Triplicate T4c" letter-spacing="0" word-spacing="0"/><path fill="#404030" d="M102.26 972.6q-2.02.07-3 .4-.98.34-.98 1.08 0 .54.38.88.4.32 1.08.32.64 0 1.32-.2.7-.2 1.14-.63l.06-1.85zm.02 2.65l-.1-.03q-.55.34-1.28.57-.72.2-1.46.2-1.22 0-1.84-.5-.62-.5-.62-1.23 0-.6.36-1 .35-.42 1.03-.7.7-.26 1.68-.4 1-.13 2.24-.17l.02-.7q.02-.4-.1-.7-.1-.28-.3-.47-.18-.2-.45-.27-.24-.1-.52-.1-.5 0-.9.17-.4.14-.6.3-.1.03-.1.1 0 .08 0 .18 0 .45-.2.64-.2.17-.53.17-.26 0-.5-.12-.24-.13-.2-.64 0-.2.05-.35.06-.17.3-.3.36-.16.8-.32.47-.16.95-.28.48-.1.93-.2.45-.06.8-.06.9 0 1.33.58.43.57.43 1.48l-.13 3.9 1.2-.3q.1-.03.2.06.1.08.14.2.06.15.05.26-.02.12-.14.16-.13.05-.43.15-.3.1-.6.2-.34.1-.63.2-.28.1-.4.1-.23.05-.28-.1l-.18-.68z" style="line-height:125%;-inkscape-font-specification:'Triplicate T4c, Normal';text-align:start" font-family="Triplicate T4c" letter-spacing="0" word-spacing="0"/><ellipse cx="152.838" cy="947.362" fill="none" stroke="#c0504d" stroke-width="5" rx="7.5" ry="7.5" stroke-linecap="round"/><path fill="none" stroke="#c0504d" stroke-width="5" d="M137.84 947.36h8"/><path fill="none" stroke="#c0504d" stroke-width="5" d="M159.84 947.36h8"/><ellipse cx="72.838" cy="947.362" fill="none" stroke="#c0504d" stroke-width="5" rx="7.5" ry="7.5" stroke-linecap="round"/><path fill="none" stroke="#c0504d" stroke-width="5" d="M57.84 947.36h8"/><path fill="none" stroke="#c0504d" stroke-width="5" d="M79.84 947.36h8"/><path fill="none" stroke="#c0504d" stroke-width="5" d="M84.96 947.36h55"/><path fill="none" stroke="#c0504d" stroke-width="5.045" d="M2.84 947.36h56" stroke-linecap="round"/><path fill="#c0504d" stroke="#fff" stroke-width=".648" d="M-700 422.36l-4.33-7.5-4.33-7.5h17.32l-4.33 7.5z" transform="matrix(.025 -.783 .76 .001 -265.091 398.936)" stroke-linejoin="round"/><path fill="none" stroke="#c0504d" stroke-width="5" d="M23.28 947.36h4.96"/><path fill="#c0504d" stroke="#fff" stroke-width=".648" d="M-700 422.36l-4.33-7.5-4.33-7.5h17.32l-4.33 7.5z" transform="matrix(.025 -.783 .76 .001 -183.466 398.936)" stroke-linejoin="round"/><path fill="none" stroke="#c0504d" stroke-width="5" d="M104.9 947.36h4.96"/><path fill="#c0504d" d="M7.9 931.48v4.9H6.58v-3.76q0-1.12-.3-1.56-.3-.45-1.05-.45-.4 0-.77.2-.34.2-.8.68v4.9H2.34v-6.75h1.33v.9q1.02-1.03 2-1.03 1.28 0 1.98 1.2 1.07-1.22 2.23-1.22 1 0 1.62.72.62.72.62 2.2v3.97H10.8v-4q0-.84-.36-1.28-.34-.46-.98-.46-.83 0-1.55.84z" style="line-height:125%;-inkscape-font-specification:'Gill Sans MT, Normal';text-align:center" font-family="Gill Sans MT" letter-spacing="0" word-spacing="0" text-anchor="middle"/><path fill="#c0504d" d="M18.2 932.32v2.86q0 .35.23.35.24 0 .75-.36v.8q-.45.3-.73.4-.27.12-.57.12-.86 0-1-.7-.86.67-1.82.67-.7 0-1.17-.46-.48-.46-.48-1.16 0-.64.45-1.14.46-.5 1.3-.8l1.7-.58v-.36q0-1.22-1.2-1.22-1.1 0-2.13 1.13v-1.46q.78-.9 2.24-.9 1.1 0 1.75.57.22.18.4.5.17.3.2.6.06.3.06 1.15zm-1.32 2.72v-2l-.9.34q-.67.27-.96.55-.28.27-.28.68 0 .43.27.7.28.26.7.26.64 0 1.18-.52z" style="line-height:125%;-inkscape-font-specification:'Gill Sans MT, Normal';text-align:center" font-family="Gill Sans MT" letter-spacing="0" word-spacing="0" text-anchor="middle"/><path fill="#c0504d" d="M20.05 935.9v-1.45q.56.4 1.15.64.6.24 1 .24t.7-.2q.3-.2.3-.5t-.2-.48q-.18-.2-.82-.57-1.3-.73-1.7-1.23-.4-.5-.4-1.1 0-.8.6-1.28.62-.5 1.57-.5 1 0 2.03.56v1.3q-1.2-.7-1.94-.7-.4 0-.63.16-.22.17-.22.44 0 .23.2.44.23.22.77.52l.48.27q1.68.94 1.68 2.1 0 .82-.64 1.36-.65.53-1.66.53-.6 0-1.07-.14-.47-.13-1.18-.47z" style="line-height:125%;-inkscape-font-specification:'Gill Sans MT, Normal';text-align:center" font-family="Gill Sans MT" letter-spacing="0" word-spacing="0" text-anchor="middle"/><path fill="#c0504d" d="M25.2 930.7l2.5-2.46v1.4h2.14v1.2H27.7v3.3q0 1.15.97 1.15.72 0 1.5-.5v1.25q-.76.44-1.66.44-.9 0-1.52-.55-.2-.16-.3-.36-.14-.2-.22-.54-.08-.32-.08-1.24v-3H25.2v-.12z" style="line-height:125%;-inkscape-font-specification:'Gill Sans MT, Normal';text-align:center" font-family="Gill Sans MT" letter-spacing="0" word-spacing="0" text-anchor="middle"/><path fill="#c0504d" d="M36.9 933.12h-4.74q.05.96.65 1.53.6.58 1.55.58 1.32 0 2.43-.82v1.3q-.6.42-1.22.6-.6.17-1.4.17-1.13 0-1.82-.46-.68-.45-1.1-1.23-.4-.78-.4-1.8 0-1.55.86-2.5.87-.97 2.26-.97 1.34 0 2.14.94.8.93.8 2.5v.18zm-4.7-.8h3.38q-.05-.8-.47-1.23-.42-.44-1.14-.44-.7 0-1.18.43-.45.42-.6 1.22z" style="line-height:125%;-inkscape-font-specification:'Gill Sans MT, Normal';text-align:center" font-family="Gill Sans MT" letter-spacing="0" word-spacing="0" text-anchor="middle"/><path fill="#c0504d" d="M39.76 929.63v1.55l.08-.12q.96-1.56 1.93-1.56.75 0 1.58.76l-.7 1.17q-.7-.66-1.3-.66-.64 0-1.12.62-.47.6-.47 1.45v3.52h-1.34v-6.74h1.34z" style="line-height:125%;-inkscape-font-specification:'Gill Sans MT, Normal';text-align:center" font-family="Gill Sans MT" letter-spacing="0" word-spacing="0" text-anchor="middle"/><path fill="none" stroke="#c0504d" stroke-width="5.045" d="M166.54 947.36h53.8" stroke-linecap="round"/><rect width="74" height="16" x="195.412" y="962.862" fill="#f8f8f8" stroke="#ddd" rx="4" ry="4" stroke-linecap="round" stroke-linejoin="round"/><path fill="#404030" d="M206.17 970.75q.8.23 1.3.88.5.66.5 1.54 0 .62-.26 1.16-.24.53-.72.92-.46.4-1.15.6-.68.25-1.55.25-.58 0-1.34-.18-.76-.16-1.45-.63-.13-.1-.13-.24 0-.16.1-.3.08-.14.2-.2.14-.1.27-.02.5.3 1.02.48.52.17 1.3.17 1.06 0 1.7-.52.67-.5.67-1.48 0-.97-.57-1.48-.56-.5-1.4-.5h-.67q-.13 0-.18-.12-.05-.14-.05-.28 0-.16.05-.3.06-.12.17-.12h.7q.23 0 .48-.1.24-.08.45-.28.2-.2.35-.53.14-.34.14-.82 0-.98-.4-1.4-.4-.44-1-.44-.56 0-.85.23-.3.23-.33.6-.03.45-.24.64-.22.2-.56.2-.36 0-.5-.15-.13-.14-.13-.4 0-.24.18-.54.18-.3.52-.56.36-.28.85-.45.5-.2 1.17-.2.5 0 1 .14.47.15.84.44.37.3.6.76.23.45.23 1.08 0 .65-.4 1.2-.4.52-.93.75v.18z" style="line-height:125%;-inkscape-font-specification:'Triplicate T4c, Normal';text-align:start" font-family="Triplicate T4c" letter-spacing="0" word-spacing="0"/><path fill="#404030" d="M211.76 966.82q.02-.24.14-.33.14-.1.35-.1h3.06q.3 0 .53-.04.24-.03.45-.08.2-.03.26.15.1.17.04.4-.05.2-.27.4-.2.2-.64.2h-3.1l-.15 2.3.2.13q.2-.1.5-.16.3-.08.82-.08.6 0 1.16.2.58.17 1.05.55.46.38.74.94.3.58.3 1.34 0 .73-.33 1.36-.3.62-.9 1.1-.57.46-1.42.73-.83.27-1.86.27-.28 0-.58-.03-.27-.03-.54-.1-.26-.03-.5-.1-.2-.08-.34-.17-.13-.08-.13-.24.02-.17.1-.3.07-.14.2-.23.13-.1.26 0 .2.13.63.23.42.1 1.07.1.6 0 1.15-.18.56-.2.96-.53.42-.33.65-.8.23-.48.23-1.08 0-.96-.63-1.57-.62-.62-1.9-.62-.44 0-.75.1-.3.08-.53.2-.14.08-.32-.05-.2-.14-.17-.3l.23-3.6z" style="line-height:125%;-inkscape-font-specification:'Triplicate T4c, Normal';text-align:start" font-family="Triplicate T4c" letter-spacing="0" word-spacing="0"/><path fill="#404030" d="M225.6 972.8h.94q.2 0 .3.12.08.13.07.3 0 .14-.08.27-.08.12-.22.12h-1v2.26q0 .1-.17.17-.17.08-.37.08-.2 0-.36-.06-.17-.06-.17-.2v-2.24h-4.1q-.17 0-.25-.2-.08-.2-.1-.44-.02-.26 0-.48.02-.23.05-.3.94-1.42 1.72-2.86.77-1.44 1.17-2.97.05-.2.26-.26.23-.07.48-.05.25 0 .43.1t.15.24q-.22.73-.6 1.5-.36.76-.82 1.54-.47.76-.98 1.48-.5.73-.98 1.37v.46h3.56v-2.7q0-.1.17-.17.17-.06.36-.04.2 0 .37.06.17.06.17.17v2.66z" style="line-height:125%;-inkscape-font-specification:'Triplicate T4c, Normal';text-align:start" font-family="Triplicate T4c" letter-spacing="0" word-spacing="0"/><path fill="#404030" d="M232.06 974.96v-5.85h-1.25q-.16.03-.24-.06-.08-.1-.08-.2 0-.14.06-.24.07-.1.17-.16.3-.1.55-.25.27-.15.47-.37.2-.23.35-.58.16-.37.26-.9.02-.1.2-.12.16-.03.34 0 .2.02.34.1.17.08.15.23-.03.2-.04.64 0 .44 0 1.04v6.72l1.92.15q.14 0 .18.12.07.12.07.25t-.08.25q-.07.1-.18.1h-4.97q-.1 0-.15-.1-.05-.12-.05-.25t.05-.25q.06-.1.15-.1l1.8-.16z" style="line-height:125%;-inkscape-font-specification:'Triplicate T4c, Normal';text-align:start" font-family="Triplicate T4c" letter-spacing="0" word-spacing="0"/><path fill="#404030" d="M243.47 968.66q0-.83-.5-1.28-.47-.47-1.17-.47-.4 0-.77.14-.37.13-.54.48v.75q0 .4-.3.58-.25.16-.5.16-.66 0-.66-.56 0-.42.22-.83.23-.4.63-.72.4-.32.96-.5.56-.2 1.2-.2.5 0 1 .15.5.16.9.48.4.3.64.8.24.46.24 1.1 0 .47-.3 1.05-.3.6-.78 1.2-.46.6-1.03 1.2-.56.6-1.1 1.1-.52.48-.95.85-.44.35-.64.5l.1.2h3.3q.46 0 .65-.13.2-.15.3-.3.06-.07.23-.07.18 0 .35.05.2.04.3.13.13.07.1.17l-.4.92q-.1.2-.2.24-.1.03-.28.03h-5.52q-.1 0-.17-.13-.07-.14-.1-.32-.06-.17-.06-.33t.06-.2q.85-.7 1.7-1.5.85-.78 1.53-1.6.7-.8 1.1-1.6.44-.8.44-1.5z" style="line-height:125%;-inkscape-font-specification:'Triplicate T4c, Normal';text-align:start" font-family="Triplicate T4c" letter-spacing="0" word-spacing="0"/><path fill="#404030" d="M252.72 968.66q0-.83-.5-1.28-.47-.47-1.17-.47-.4 0-.77.14-.37.13-.54.48v.75q0 .4-.27.58-.27.16-.53.16-.65 0-.65-.56 0-.42.2-.83.24-.4.64-.72.42-.32.97-.5.57-.2 1.22-.2.5 0 .98.15.5.16.9.48.4.3.65.8.24.46.24 1.1 0 .47-.3 1.05-.3.6-.8 1.2-.45.6-1.02 1.2-.55.6-1.1 1.1-.52.48-.95.85-.43.35-.63.5l.1.2h3.3q.45 0 .64-.13.2-.15.32-.3.05-.07.22-.07.18 0 .35.05.2.04.3.13.14.07.1.17l-.4.92q-.1.2-.2.24-.1.03-.27.03h-5.53q-.1 0-.17-.13-.08-.14-.12-.32-.05-.17-.05-.33t.05-.2q.85-.7 1.7-1.5.85-.78 1.53-1.6.7-.8 1.1-1.6.44-.8.44-1.5z" style="line-height:125%;-inkscape-font-specification:'Triplicate T4c, Normal';text-align:start" font-family="Triplicate T4c" letter-spacing="0" word-spacing="0"/><path fill="#404030" d="M261.97 968.66q0-.83-.5-1.28-.47-.47-1.16-.47-.4 0-.76.14-.37.13-.54.48v.75q0 .4-.28.58-.26.16-.53.16-.65 0-.65-.56 0-.42.2-.83.24-.4.64-.72.4-.32.97-.5.55-.2 1.2-.2.5 0 1 .15.48.16.88.48.4.3.65.8.25.46.25 1.1 0 .47-.3 1.05-.3.6-.78 1.2-.47.6-1.04 1.2-.55.6-1.1 1.1-.52.48-.95.85-.43.35-.63.5l.1.2h3.3q.46 0 .64-.13.2-.15.32-.3.04-.07.2-.07.2 0 .37.05.17.04.3.13.12.07.07.17l-.4.92q-.1.2-.18.24-.1.03-.3.03h-5.52q-.1 0-.17-.13-.06-.14-.1-.32-.06-.17-.06-.33t.07-.2q.85-.7 1.7-1.5.85-.78 1.53-1.6.7-.8 1.1-1.6.44-.8.44-1.5z" style="line-height:125%;-inkscape-font-specification:'Triplicate T4c, Normal';text-align:start" font-family="Triplicate T4c" letter-spacing="0" word-spacing="0"/><path fill="#404030" d="M118.68 987.74q.2 0 .33.12.15.13.15.32 0 .18-.14.32-.13.13-.32.13-.2 0-.33-.13-.14-.14-.14-.32 0-.17.15-.3.14-.14.33-.14zm-.4 1.6h.8v3.82h-.8v-3.82z" style="line-height:125%;-inkscape-font-specification:'Gill Sans MT, Normal';text-align:start" font-family="Gill Sans MT" letter-spacing="0" word-spacing="0"/><path fill="#404030" d="M121.03 989.34v.5q.54-.57 1.22-.57.38 0 .7.2.33.17.5.5.17.3.17 1v2.2h-.8v-2.18q0-.6-.2-.85-.18-.25-.63-.25-.57 0-.97.54v2.72h-.82v-3.82h.83z" style="line-height:125%;-inkscape-font-specification:'Gill Sans MT, Normal';text-align:start" font-family="Gill Sans MT" letter-spacing="0" word-spacing="0"/><path fill="#404030" d="M127.43 987.36h.8v5.8h-1.7q-.9 0-1.44-.53-.54-.54-.54-1.44 0-.85.56-1.4.56-.54 1.43-.54.4 0 .88.16v-2.06zm0 5.16v-2.43q-.37-.18-.76-.18-.6 0-.95.37-.35.36-.35.98 0 .6.3.9.2.2.4.27t.74.07h.63z" style="line-height:125%;-inkscape-font-specification:'Gill Sans MT, Normal';text-align:start" font-family="Gill Sans MT" letter-spacing="0" word-spacing="0"/><path fill="#404030" d="M132.77 991.32h-2.85q.03.55.4.87.35.32.92.32.8 0 1.46-.47v.74q-.37.22-.74.32-.36.1-.85.1-.65 0-1.07-.26-.4-.26-.66-.7-.25-.45-.25-1.03 0-.87.53-1.4.52-.56 1.35-.56.8 0 1.3.53.47.53.47 1.42v.1zm-2.83-.45h2.04q-.04-.46-.3-.7-.24-.25-.68-.25-.43 0-.7.25-.28.24-.36.7z" style="line-height:125%;-inkscape-font-specification:'Gill Sans MT, Normal';text-align:start" font-family="Gill Sans MT" letter-spacing="0" word-spacing="0"/><path fill="#404030" d="M136.42 989.34h1.02l-1.66 1.88 1.78 1.94h-1.02l-1.27-1.37-1.2 1.36h-1l1.7-1.94-1.7-1.88h1l1.2 1.32 1.15-1.32z" style="line-height:125%;-inkscape-font-specification:'Gill Sans MT, Normal';text-align:start" font-family="Gill Sans MT" letter-spacing="0" word-spacing="0"/><path fill="#404030" d="M138.54 992.24q.23 0 .38.14.16.15.16.36 0 .2-.16.35-.15.13-.38.13-.22 0-.38-.14-.15-.15-.15-.36 0-.2.16-.36.16-.14.38-.14z" style="line-height:125%;-inkscape-font-specification:'Gill Sans MT, Normal';text-align:start" font-family="Gill Sans MT" letter-spacing="0" word-spacing="0"/><path fill="#404030" d="M140.08 987.36h.8v2.5q.5-.6 1.24-.6.4 0 .73.2.32.2.47.53.16.32.16 1v2.16h-.8v-2.36q0-.42-.22-.67-.2-.26-.57-.26-.27 0-.5.13-.24.13-.52.43v2.73h-.8v-5.8z" style="line-height:125%;-inkscape-font-specification:'Gill Sans MT, Normal';text-align:start" font-family="Gill Sans MT" letter-spacing="0" word-spacing="0"/><path fill="#404030" d="M144.03 989.95l1.5-1.4v.8h1.28v.67h-1.27v1.88q0 .65.58.65.44 0 .92-.27v.7q-.46.25-1 .25-.56 0-.92-.3-.1-.1-.2-.2-.06-.12-.12-.3-.04-.2-.04-.7v-1.7h-.7v-.08z" style="line-height:125%;-inkscape-font-specification:'Gill Sans MT, Normal';text-align:start" font-family="Gill Sans MT" letter-spacing="0" word-spacing="0"/><path fill="#404030" d="M150.92 990.4v2.76h-.8v-2.12q0-.64-.2-.9-.17-.24-.6-.24-.26 0-.48.1-.2.12-.47.4v2.76h-.8v-3.82h.8v.5q.6-.57 1.2-.57.76 0 1.2.7.63-.7 1.33-.7.6 0 .96.4.4.4.4 1.24v2.26h-.8v-2.26q0-.48-.22-.73-.2-.25-.6-.25-.5 0-.92.47z" style="line-height:125%;-inkscape-font-specification:'Gill Sans MT, Normal';text-align:start" font-family="Gill Sans MT" letter-spacing="0" word-spacing="0"/><path fill="#404030" d="M154.57 987.36h.8v5.8h-.8v-5.8z" style="line-height:125%;-inkscape-font-specification:'Gill Sans MT, Normal';text-align:start" font-family="Gill Sans MT" letter-spacing="0" word-spacing="0"/><path fill="#404030" d="M162.05 992.27v.75q-.6.2-1.18.2-.95 0-1.52-.52-.56-.53-.56-1.43 0-.9.54-1.45.55-.55 1.45-.55.3 0 .54.06.26.05.62.2v.8q-.6-.36-1.13-.36-.54 0-.88.37-.35.35-.35.9 0 .6.37.94.38.34 1.02.34.45 0 1.05-.25z" style="line-height:125%;-inkscape-font-specification:'Gill Sans MT, Normal';text-align:start" font-family="Gill Sans MT" letter-spacing="0" word-spacing="0"/><path fill="#404030" d="M162.94 987.36h.8v2.5q.5-.6 1.24-.6.4 0 .72.2.33.2.48.53.16.32.16 1v2.16h-.8v-2.36q0-.42-.22-.67-.22-.26-.57-.26-.27 0-.5.13-.23.13-.5.43v2.73h-.8v-5.8z" style="line-height:125%;-inkscape-font-specification:'Gill Sans MT, Normal';text-align:start" font-family="Gill Sans MT" letter-spacing="0" word-spacing="0"/><path fill="#404030" d="M170 990.87v1.62q0 .2.13.2.15 0 .46-.22v.46q-.28.17-.45.23-.16.06-.34.06-.5 0-.6-.38-.5.37-1.1.37-.4 0-.7-.26-.27-.27-.27-.66 0-.37.27-.65.28-.28.78-.45l1.03-.33v-.2q0-.7-.72-.7-.66 0-1.28.64v-.8q.47-.53 1.34-.53.66 0 1.05.32.13.1.23.27t.13.35q.03.17.03.65zm-.8 1.54v-1.13l-.53.2q-.4.15-.58.3-.18.16-.18.4 0 .23.16.38t.42.15q.38 0 .7-.3z" style="line-height:125%;-inkscape-font-specification:'Gill Sans MT, Normal';text-align:start" font-family="Gill Sans MT" letter-spacing="0" word-spacing="0"/><path fill="#404030" d="M172.1 989.34v.5q.54-.57 1.22-.57.38 0 .7.2.33.17.5.5.17.3.17 1v2.2h-.8v-2.18q0-.6-.2-.85t-.63-.25q-.57 0-.97.54v2.72h-.8v-3.82h.8z" style="line-height:125%;-inkscape-font-specification:'Gill Sans MT, Normal';text-align:start" font-family="Gill Sans MT" letter-spacing="0" word-spacing="0"/><path fill="#404030" d="M175.6 990.66q0-.6.47-.96t1.3-.36h1.66v.6h-.82q.25.22.34.4.1.2.1.44 0 .3-.2.6-.17.27-.46.43-.28.16-.92.25-.46.06-.46.3 0 .13.17.22.17.08.62.17.73.15.94.24.22.1.4.25.28.27.28.7 0 .53-.52.86-.5.3-1.36.3-.87 0-1.4-.32-.5-.32-.5-.87 0-.76 1-1-.4-.23-.4-.48 0-.18.18-.33.18-.16.47-.23-.9-.37-.9-1.2zm1.5-.66q-.32 0-.55.2-.23.2-.23.5t.22.5q.23.2.57.2.35 0 .57-.2.23-.2.23-.5t-.23-.5q-.23-.2-.57-.2zm-.2 3.34q-.4 0-.65.16-.26.17-.26.42 0 .6 1.12.6.53 0 .82-.16.3-.15.3-.42 0-.26-.37-.43-.37-.16-.96-.16z" style="line-height:125%;-inkscape-font-specification:'Gill Sans MT, Normal';text-align:start" font-family="Gill Sans MT" letter-spacing="0" word-spacing="0"/><path fill="#404030" d="M183.1 991.32h-2.84q.03.55.38.87.36.32.93.32.8 0 1.46-.47v.74q-.37.22-.73.32t-.85.1q-.67 0-1.08-.26-.42-.26-.67-.7-.24-.45-.24-1.03 0-.87.52-1.4.52-.56 1.36-.56.8 0 1.28.53t.48 1.42v.1zm-2.83-.45h2.04q-.02-.46-.28-.7-.25-.25-.68-.25-.43 0-.7.25-.28.24-.37.7z" style="line-height:125%;-inkscape-font-specification:'Gill Sans MT, Normal';text-align:start" font-family="Gill Sans MT" letter-spacing="0" word-spacing="0"/><path fill="#404030" d="M186.66 987.36h.8v5.8h-1.7q-.9 0-1.44-.53-.53-.54-.53-1.44 0-.85.55-1.4.56-.54 1.43-.54.4 0 .88.16v-2.06zm0 5.16v-2.43q-.37-.18-.76-.18-.6 0-.95.37-.35.36-.35.98 0 .6.3.9.2.2.4.27t.74.07h.62z" style="line-height:125%;-inkscape-font-specification:'Gill Sans MT, Normal';text-align:start" font-family="Gill Sans MT" letter-spacing="0" word-spacing="0"/><rect width="74" height="17" x="115.838" y="982.362" fill="none" stroke="#ddd" rx="4" ry="4" stroke-linecap="round" stroke-linejoin="round"/><path fill="#404030" d="M198.72 988.4q.84 0 1.4.83.54.83.54 2.12 0 1.32-.55 2.15-.54.83-1.42.83-.9 0-1.43-.8-.54-.82-.54-2.16 0-1.32.57-2.15.55-.83 1.45-.83zm0 .78h-.04q-.5 0-.8.6-.3.58-.3 1.58 0 1.03.3 1.62.28.58.8.58.5 0 .8-.58.3-.6.3-1.6t-.3-1.6q-.28-.6-.76-.6z" style="line-height:125%;-inkscape-font-specification:'Gill Sans MT, Normal';text-align:start" font-family="Gill Sans MT" letter-spacing="0" word-spacing="0"/><path fill="#404030" d="M202.75 988.47h.88v5.8h-.88v-5.8z" style="line-height:125%;-inkscape-font-specification:'Gill Sans MT, Normal';text-align:start" font-family="Gill Sans MT" letter-spacing="0" word-spacing="0"/><path fill="#404030" d="M205.8 991.98h2.18v.8h-2.2v-.8z" style="line-height:125%;-inkscape-font-specification:'Gill Sans MT, Normal';text-align:start" font-family="Gill Sans MT" letter-spacing="0" word-spacing="0"/><path fill="#404030" d="M209.33 988.84q.2 0 .34.13t.14.3q0 .2-.13.33-.14.13-.34.13-.18 0-.33-.13-.14-.14-.14-.32 0-.17.14-.3.15-.14.33-.14zm-.4 1.6h.8v3.83h-.8v-3.82z" style="line-height:125%;-inkscape-font-specification:'Gill Sans MT, Normal';text-align:start" font-family="Gill Sans MT" letter-spacing="0" word-spacing="0"/><path fill="#404030" d="M211.7 990.45v.48q.52-.56 1.2-.56.38 0 .7.2.33.17.5.5.17.32.17 1v2.2h-.8v-2.18q0-.6-.2-.84-.18-.26-.62-.26-.57 0-.96.54v2.73h-.83v-3.82h.82z" style="line-height:125%;-inkscape-font-specification:'Gill Sans MT, Normal';text-align:start" font-family="Gill Sans MT" letter-spacing="0" word-spacing="0"/><path fill="#404030" d="M214.82 991.05l1.5-1.4v.8h1.28v.68h-1.28V993q0 .66.58.66.43 0 .9-.28v.7q-.45.25-1 .25t-.9-.3q-.13-.1-.2-.2-.08-.12-.13-.3-.05-.2-.05-.7v-1.7h-.7v-.08z" style="line-height:125%;-inkscape-font-specification:'Gill Sans MT, Normal';text-align:start" font-family="Gill Sans MT" letter-spacing="0" word-spacing="0"/><path fill="#404030" d="M219.25 990.45v.87l.04-.06q.57-.9 1.15-.9.46 0 .95.44l-.42.67q-.42-.38-.78-.38-.38 0-.67.34-.28.35-.28.83v2h-.8v-3.82h.8z" style="line-height:125%;-inkscape-font-specification:'Gill Sans MT, Normal';text-align:start" font-family="Gill Sans MT" letter-spacing="0" word-spacing="0"/><path fill="#404030" d="M223.68 990.44q.92 0 1.53.56.62.56.62 1.42 0 .82-.62 1.37-.62.53-1.56.53-.9 0-1.52-.55-.6-.56-.6-1.4 0-.82.6-1.38.62-.56 1.56-.56zm-.05.68q-.57 0-.94.36-.38.35-.38.9t.38.9q.37.35.97.35t.96-.35q.38-.35.38-.9t-.38-.9q-.4-.36-1-.36z" style="line-height:125%;-inkscape-font-specification:'Gill Sans MT, Normal';text-align:start" font-family="Gill Sans MT" letter-spacing="0" word-spacing="0"/><path fill="#404030" d="M226.87 993.34q.22 0 .38.15.16.13.16.34 0 .2-.15.35-.15.13-.38.13t-.38-.14q-.16-.15-.16-.36 0-.2.15-.35.14-.16.37-.16z" style="line-height:125%;-inkscape-font-specification:'Gill Sans MT, Normal';text-align:start" font-family="Gill Sans MT" letter-spacing="0" word-spacing="0"/><path fill="#404030" d="M228.4 988.47h.8v2.48q.52-.58 1.26-.58.4 0 .72.2.32.18.48.52.16.33.16 1v2.17h-.8v-2.37q0-.42-.22-.67-.22-.26-.58-.26-.26 0-.5.13-.22.13-.5.43v2.74h-.8v-5.8z" style="line-height:125%;-inkscape-font-specification:'Gill Sans MT, Normal';text-align:start" font-family="Gill Sans MT" letter-spacing="0" word-spacing="0"/><path fill="#404030" d="M232.37 991.05l1.5-1.4v.8h1.28v.68h-1.28V993q0 .66.57.66.44 0 .9-.28v.7q-.45.25-1 .25-.54 0-.9-.3-.12-.1-.2-.2-.07-.12-.12-.3-.05-.2-.05-.7v-1.7h-.7v-.08z" style="line-height:125%;-inkscape-font-specification:'Gill Sans MT, Normal';text-align:start" font-family="Gill Sans MT" letter-spacing="0" word-spacing="0"/><path fill="#404030" d="M239.25 991.5v2.77h-.8v-2.13q0-.63-.18-.88-.18-.26-.63-.26-.25 0-.46.1-.2.12-.48.4v2.77h-.8v-3.82h.8v.5q.6-.58 1.2-.58.77 0 1.2.7.63-.7 1.33-.7.6 0 .97.4.38.4.38 1.24v2.27h-.8V992q0-.47-.2-.73-.2-.25-.6-.25-.5 0-.93.47z" style="line-height:125%;-inkscape-font-specification:'Gill Sans MT, Normal';text-align:start" font-family="Gill Sans MT" letter-spacing="0" word-spacing="0"/><path fill="#404030" d="M242.9 988.47h.8v5.8h-.8v-5.8z" style="line-height:125%;-inkscape-font-specification:'Gill Sans MT, Normal';text-align:start" font-family="Gill Sans MT" letter-spacing="0" word-spacing="0"/><path fill="#404030" d="M249.9 991.97v1.62q0 .2.13.2.14 0 .45-.2v.45q-.27.16-.44.22-.16.06-.34.06-.5 0-.6-.38-.52.38-1.1.38-.4 0-.7-.27-.28-.26-.28-.66 0-.36.28-.64.27-.3.78-.46l1.02-.33v-.2q0-.7-.73-.7-.65 0-1.27.65v-.83q.46-.53 1.34-.53.65 0 1.05.33.12.1.23.27.1.17.13.35.03.17.03.65zm-.8 1.54v-1.12l-.53.2q-.4.15-.58.3-.18.16-.18.4 0 .23.16.38t.4.15q.4 0 .72-.3z" style="line-height:125%;-inkscape-font-specification:'Gill Sans MT, Normal';text-align:start" font-family="Gill Sans MT" letter-spacing="0" word-spacing="0"/><path fill="#404030" d="M253.9 988.47h.8v5.8H253q-.9 0-1.44-.54-.53-.53-.53-1.44 0-.85.56-1.4.55-.54 1.42-.54.4 0 .88.17v-2.06zm0 5.15v-2.42q-.38-.18-.76-.18-.6 0-.95.37-.36.36-.36 1 0 .58.3.9.2.2.4.25.2.07.74.07h.62z" style="line-height:125%;-inkscape-font-specification:'Gill Sans MT, Normal';text-align:start" font-family="Gill Sans MT" letter-spacing="0" word-spacing="0"/><path fill="#404030" d="M258.4 988.47h.8v5.8h-1.7q-.9 0-1.43-.54-.53-.53-.53-1.44 0-.85.56-1.4.56-.54 1.43-.54.4 0 .88.17v-2.06zm0 5.15v-2.42q-.37-.18-.75-.18-.6 0-.95.37-.35.36-.35 1 0 .58.3.9.2.2.4.25.2.07.74.07h.6z" style="line-height:125%;-inkscape-font-specification:'Gill Sans MT, Normal';text-align:start" font-family="Gill Sans MT" letter-spacing="0" word-spacing="0"/><path fill="#404030" d="M263.75 992.42h-2.84q.04.55.4.88.36.32.92.32.8 0 1.46-.47v.74q-.37.23-.73.33t-.85.1q-.67 0-1.08-.27-.42-.26-.67-.7-.24-.44-.24-1.02 0-.88.53-1.42.52-.55 1.36-.55.8 0 1.27.53.48.53.48 1.43v.1zm-2.82-.45h2.03q-.03-.45-.3-.7-.24-.24-.67-.24-.44 0-.72.24-.27.25-.35.7z" style="line-height:125%;-inkscape-font-specification:'Gill Sans MT, Normal';text-align:start" font-family="Gill Sans MT" letter-spacing="0" word-spacing="0"/><path fill="#404030" d="M267.3 988.47h.82v5.8h-1.7q-.9 0-1.45-.54-.53-.53-.53-1.44 0-.85.56-1.4.56-.54 1.43-.54.4 0 .88.17v-2.06zm0 5.15v-2.42q-.36-.18-.74-.18-.6 0-.96.37-.35.36-.35 1 0 .58.3.9.2.2.4.25.2.07.74.07h.6z" style="line-height:125%;-inkscape-font-specification:'Gill Sans MT, Normal';text-align:start" font-family="Gill Sans MT" letter-spacing="0" word-spacing="0"/><rect width="74" height="17" x="195.412" y="982.862" fill="none" stroke="#ddd" rx="4" ry="4" stroke-linecap="round" stroke-linejoin="round"/><path fill="none" stroke="#c0504d" stroke-width="5.045" d="M642.4 947.36h119.76" stroke-linecap="round"/><rect width="74" height="16" x="275.412" y="962.362" fill="#f8f8f8" stroke="#ddd" rx="4" ry="4" stroke-linecap="round" stroke-linejoin="round"/><path fill="#404030" d="M286.3 969.76q-.3-.2-.75-.3-.45-.12-.9-.12-.4 0-.83.16-.42.15-.74.45-.33.3-.54.76-.2.46-.2 1.08 0 .7.17 1.22.2.5.5.83.3.32.74.48.45.16.96.16.35 0 .8-.1.46-.1.8-.32v-4.28zm.08 5.22l-.18-.1q-.48.28-.96.43-.48.14-1.17.14-.65 0-1.22-.27-.56-.26-.97-.7-.4-.46-.64-1.07-.23-.62-.23-1.3 0-.73.3-1.36.3-.63.8-1.08.5-.46 1.12-.73.63-.26 1.32-.26.47 0 .95.1.48.06.83.2l.05-2.7-1.23.13q-.17 0-.27-.1-.07-.1-.1-.22 0-.14.04-.25.06-.12.16-.13.5-.1.98-.22.5-.13.95-.26.13-.03.22-.06.1-.03.17-.03.13 0 .2.1t.05.33l-.1 3.7v5h1.08q.07 0 .12.1.05.1.06.23.03.1-.02.22-.03.1-.12.14-.5.13-1.02.26-.53.13-.83.22-.1.03-.18.03-.1 0-.1-.12l-.04-.37z" style="line-height:125%;-inkscape-font-specification:'Triplicate T4c, Normal';text-align:start" font-family="Triplicate T4c" letter-spacing="0" word-spacing="0"/><path fill="#404030" d="M291.7 972.13q.03 1.24.57 1.83.56.6 1.57.6.48 0 .98-.07t.97-.16q.47-.08.87-.2.4-.1.72-.22.1-.04.18.03.1.06.17.16.06.1.06.2.02.12-.05.16-.4.2-.9.36-.48.18-1 .32-.5.14-1.05.2-.52.1-1.03.1-.8 0-1.44-.24-.62-.23-1.05-.64-.4-.42-.63-.98-.22-.56-.22-1.22 0-.9.33-1.6.32-.7.83-1.2.52-.48 1.16-.74.67-.27 1.33-.27.72 0 1.32.22.62.22 1.05.63.44.4.68 1 .24.6.24 1.32 0 .2-.1.3-.08.1-.3.12h-5.3zm4.38-.67q-.03-.4-.15-.8-.1-.4-.36-.72-.23-.32-.62-.5-.37-.2-.92-.2-.5 0-.9.17-.4.2-.74.5-.32.3-.5.7-.2.4-.2.86h4.38z" style="line-height:125%;-inkscape-font-specification:'Triplicate T4c, Normal';text-align:start" font-family="Triplicate T4c" letter-spacing="0" word-spacing="0"/><path fill="#404030" d="M304.6 970.38q-.07-.5-.35-.8-.27-.28-.95-.28-.53 0-.96.13-.43.13-.76.45-.3.3-.5.82-.16.5-.16 1.24 0 .67.2 1.15.22.47.57.8.35.3.8.44.47.15.98.15 1 0 1.67-.27.7-.27 1.1-.5.13-.1.26 0 .15.1.24.25.1.14.1.3 0 .16-.12.25-.74.47-1.66.7-.93.2-1.73.2-.85 0-1.53-.23-.68-.24-1.16-.67-.48-.44-.74-1-.24-.57-.24-1.23 0-.95.3-1.65t.82-1.18q.5-.46 1.16-.68.66-.25 1.37-.25.44 0 .83.1.4.06.7.18.3.12.53.25.24.12.38.22.3.2.3.62v.65q0 .35-.27.5-.25.12-.5.12-.34 0-.46-.17-.1-.16-.2-.65z" style="line-height:125%;-inkscape-font-specification:'Triplicate T4c, Normal';text-align:start" font-family="Triplicate T4c" letter-spacing="0" word-spacing="0"/><path fill="#404030" d="M312.5 974.7q.33 0 .73-.12.42-.14.77-.44.35-.3.6-.83.22-.52.22-1.32 0-.5-.2-.93-.2-.44-.5-.76-.3-.33-.72-.52-.4-.2-.83-.2-.47 0-.93.16-.45.16-.8.5v3.4q0 .43.4.75.4.3 1.25.3zm-2.96-8.42l-1.02.2q-.1 0-.15-.1-.05-.14-.08-.3-.02-.15 0-.28 0-.15.08-.16.22-.03.6-.1.36-.06.67-.14.3-.07.52-.14.23-.07.37-.12.1-.03.3.1.2.1.15.38-.13.92-.18 1.88-.03.95-.06 1.74l.18.12q.4-.28.9-.47.5-.2 1.05-.2.7 0 1.27.25.6.26 1 .7.42.46.65 1.06.23.6.23 1.27 0 .9-.35 1.57-.36.66-.9 1.1-.55.43-1.23.65-.67.2-1.3.2-.52 0-.88-.1-.36-.08-.56-.15l-.48.36q-.06.07-.2.06-.14-.02-.28-.08t-.23-.16q-.1-.1-.06-.2 0-.06.02-.24.03-.17.04-.37.02-.2.02-.42 0-.22 0-.36v-7.42l-.14-.12z" style="line-height:125%;-inkscape-font-specification:'Triplicate T4c, Normal';text-align:start" font-family="Triplicate T4c" letter-spacing="0" word-spacing="0"/><path fill="#404030" d="M320.17 970.1q.43-.36.94-.6.53-.26 1.24-.26.54 0 1.05.2.5.16.9.54t.62.97q.23.58.23 1.38 0 .77-.3 1.4-.27.6-.73 1.02-.47.4-1.05.63-.57.22-1.14.22-.75 0-1.36-.28-.62-.28-1.08-.83-.46-.58-.7-1.43-.25-.86-.25-2 0-1.12.37-2.06.38-.96 1.05-1.67.66-.73 1.57-1.17.93-.45 2.02-.57.1-.02.14.1.05.1.05.24 0 .14-.05.27-.05.12-.15.14-1.55.25-2.47 1.18-.93.93-1.16 2.48l.25.1zm-.1.87q-.04.12-.07.3-.02.17-.03.38-.02.18-.04.36 0 .18 0 .3 0 .54.16 1 .14.47.42.82.28.34.65.53.37.2.82.2.77 0 1.3-.67.57-.65.57-1.9 0-.6-.17-1-.15-.4-.42-.67-.26-.25-.6-.37-.34-.13-.7-.13-.6 0-1.13.26-.5.26-.78.6z" style="line-height:125%;-inkscape-font-specification:'Triplicate T4c, Normal';text-align:start" font-family="Triplicate T4c" letter-spacing="0" word-spacing="0"/><path fill="#404030" d="M332.43 970.25q.8.23 1.3.88.5.66.5 1.54 0 .62-.26 1.16-.25.53-.72.92-.47.4-1.16.6-.7.25-1.55.25-.6 0-1.35-.18-.75-.16-1.45-.63-.12-.1-.12-.24 0-.16.1-.3.08-.14.2-.2.15-.1.27-.02.5.3 1.02.48.52.17 1.3.17 1.06 0 1.7-.52.67-.5.67-1.48 0-.97-.58-1.48-.56-.5-1.4-.5h-.67q-.12 0-.17-.12-.04-.14-.04-.28 0-.16.04-.3.06-.12.17-.12h.7q.24 0 .5-.1.24-.08.44-.28t.34-.53q.14-.34.14-.82 0-.98-.4-1.4-.4-.44-1-.44-.56 0-.85.23-.3.23-.33.6-.03.45-.24.64-.22.2-.56.2-.35 0-.5-.15-.13-.14-.13-.4 0-.24.17-.54.18-.3.52-.56.36-.28.85-.45.52-.2 1.2-.2.5 0 .97.14.48.15.85.44.37.3.6.76.24.45.24 1.08 0 .65-.4 1.2-.4.52-.93.75v.18z" style="line-height:125%;-inkscape-font-specification:'Triplicate T4c, Normal';text-align:start" font-family="Triplicate T4c" letter-spacing="0" word-spacing="0"/><path fill="#404030" d="M341.68 970.25q.8.23 1.3.88.5.66.5 1.54 0 .62-.26 1.16-.24.53-.72.92-.46.4-1.16.6-.68.25-1.54.25-.6 0-1.34-.18-.76-.16-1.45-.63-.12-.1-.12-.24.02-.16.1-.3.1-.14.2-.2.15-.1.27-.02.5.3 1.02.48.53.17 1.3.17 1.06 0 1.7-.52.67-.5.67-1.48 0-.97-.57-1.48-.55-.5-1.4-.5h-.67q-.12 0-.16-.12-.05-.14-.05-.28 0-.16.04-.3.06-.12.16-.12h.7q.25 0 .5-.1.24-.08.44-.28.22-.2.36-.53.13-.34.13-.82 0-.98-.4-1.4-.4-.44-1-.44-.56 0-.85.23-.3.23-.32.6-.03.45-.25.64-.2.2-.55.2-.35 0-.5-.15-.13-.14-.13-.4 0-.24.17-.54.18-.3.52-.56.35-.28.85-.45.5-.2 1.17-.2.5 0 1 .14.46.15.83.44.37.3.6.76.24.45.24 1.08 0 .65-.4 1.2-.4.52-.92.75v.18z" style="line-height:125%;-inkscape-font-specification:'Triplicate T4c, Normal';text-align:start" font-family="Triplicate T4c" letter-spacing="0" word-spacing="0"/><rect width="79" height="17" x="272.912" y="982.362" fill="none" stroke="#ddd" rx="4" ry="4" stroke-linecap="round" stroke-linejoin="round"/><path fill="#404030" d="M277.07 987.9q.85 0 1.4.83.55.83.55 2.12 0 1.32-.55 2.15-.55.83-1.43.83-.9 0-1.44-.8-.54-.82-.54-2.16 0-1.32.56-2.15.56-.83 1.45-.83zm0 .78h-.03q-.5 0-.8.6-.3.58-.3 1.58 0 1.03.3 1.62.28.58.8.58.5 0 .8-.58.3-.6.3-1.6t-.3-1.6q-.28-.6-.76-.6z" style="line-height:125%;-inkscape-font-specification:'Gill Sans MT, Normal';text-align:start" font-family="Gill Sans MT" letter-spacing="0" word-spacing="0"/><path fill="#404030" d="M281.14 992.97h2.34v.8h-3.9v-.06l.38-.4q.87-1.02 1.38-1.72.5-.7.67-1.07.17-.35.17-.7 0-.5-.3-.8-.3-.3-.78-.3-.38 0-.74.22-.36.2-.64.58v-1.06q.7-.55 1.47-.55.8 0 1.32.5t.52 1.28q0 .35-.13.75-.12.4-.45.92-.33.5-1.12 1.4l-.2.22z" style="line-height:125%;-inkscape-font-specification:'Gill Sans MT, Normal';text-align:start" font-family="Gill Sans MT" letter-spacing="0" word-spacing="0"/><path fill="#404030" d="M284.15 991.48h2.2v.8h-2.2v-.8z" style="line-height:125%;-inkscape-font-specification:'Gill Sans MT, Normal';text-align:start" font-family="Gill Sans MT" letter-spacing="0" word-spacing="0"/><path fill="#404030" d="M289.8 991.47v1.62q0 .2.15.2t.46-.2v.45q-.27.16-.43.22-.17.06-.35.06-.5 0-.6-.38-.5.38-1.1.38-.4 0-.7-.27-.27-.26-.27-.66 0-.36.27-.64.28-.3.78-.46l1.03-.33v-.2q0-.7-.73-.7-.66 0-1.28.65v-.83q.47-.53 1.34-.53.66 0 1.05.33.15.1.25.27t.13.35q.03.17.03.65zm-.77 1.54v-1.12l-.54.2q-.42.15-.6.3-.16.16-.16.4 0 .23.16.38t.42.15q.38 0 .7-.3z" style="line-height:125%;-inkscape-font-specification:'Gill Sans MT, Normal';text-align:start" font-family="Gill Sans MT" letter-spacing="0" word-spacing="0"/><path fill="#404030" d="M291.1 987.97h.8v2.25q.5-.36 1.1-.36.76 0 1.25.55.5.56.5 1.42 0 .92-.6 1.47-.57.53-1.55.53-.4 0-.83-.08-.43-.07-.68-.2v-5.58zm.8 2.97V993q.4.13.83.13.53 0 .86-.36.33-.36.33-.92 0-.57-.3-.92-.33-.36-.83-.36-.45 0-.9.37z" style="line-height:125%;-inkscape-font-specification:'Gill Sans MT, Normal';text-align:start" font-family="Gill Sans MT" letter-spacing="0" word-spacing="0"/><path fill="#404030" d="M297.56 989.94q.92 0 1.53.56.6.56.6 1.4 0 .84-.62 1.4-.62.53-1.56.53-.9 0-1.52-.55-.6-.56-.6-1.4 0-.82.6-1.38.63-.56 1.56-.56zm-.05.68q-.56 0-.93.36-.37.35-.37.9t.38.9q.38.35.97.35.6 0 .96-.35.4-.35.4-.9t-.4-.9q-.4-.36-1-.36z" style="line-height:125%;-inkscape-font-specification:'Gill Sans MT, Normal';text-align:start" font-family="Gill Sans MT" letter-spacing="0" word-spacing="0"/><path fill="#404030" d="M303.17 993.77v-.5q-.25.27-.58.42-.33.13-.66.13-.38 0-.7-.17-.33-.2-.5-.5-.16-.3-.16-1.02v-2.2h.8v2.2q0 .6.18.83.2.24.64.24.58 0 .97-.52v-2.73h.8v3.82h-.8z" style="line-height:125%;-inkscape-font-specification:'Gill Sans MT, Normal';text-align:start" font-family="Gill Sans MT" letter-spacing="0" word-spacing="0"/><path fill="#404030" d="M304.53 990.55l1.5-1.4v.8h1.3v.68h-1.3v1.87q0 .66.58.66.44 0 .92-.28v.7q-.46.25-1 .25-.55 0-.92-.3-.1-.1-.2-.2-.06-.12-.12-.3-.04-.2-.04-.7v-1.7h-.7v-.08z" style="line-height:125%;-inkscape-font-specification:'Gill Sans MT, Normal';text-align:start" font-family="Gill Sans MT" letter-spacing="0" word-spacing="0"/><path fill="#404030" d="M308.52 992.84q.22 0 .38.15.16.13.16.34 0 .2-.16.35-.15.13-.38.13-.22 0-.38-.14-.15-.15-.15-.36 0-.2.14-.35.16-.16.38-.16z" style="line-height:125%;-inkscape-font-specification:'Gill Sans MT, Normal';text-align:start" font-family="Gill Sans MT" letter-spacing="0" word-spacing="0"/><path fill="#404030" d="M310.06 987.97h.8v2.48q.5-.58 1.24-.58.4 0 .73.2.32.18.47.52.16.33.16 1v2.17h-.8v-2.37q0-.42-.22-.67-.22-.26-.57-.26-.27 0-.5.13-.23.13-.5.43v2.74h-.8v-5.8z" style="line-height:125%;-inkscape-font-specification:'Gill Sans MT, Normal';text-align:start" font-family="Gill Sans MT" letter-spacing="0" word-spacing="0"/><path fill="#404030" d="M314 990.55l1.5-1.4v.8h1.3v.68h-1.3v1.87q0 .66.6.66.42 0 .9-.28v.7q-.46.25-1 .25-.56 0-.92-.3-.12-.1-.2-.2-.07-.12-.12-.3-.05-.2-.05-.7v-1.7h-.7v-.08z" style="line-height:125%;-inkscape-font-specification:'Gill Sans MT, Normal';text-align:start" font-family="Gill Sans MT" letter-spacing="0" word-spacing="0"/><path fill="#404030" d="M320.9 991v2.77h-.8v-2.13q0-.63-.2-.88-.17-.26-.62-.26-.25 0-.46.1-.2.12-.47.4v2.77h-.8v-3.82h.8v.5q.6-.58 1.2-.58.76 0 1.18.7.65-.7 1.34-.7.6 0 .97.4.38.4.38 1.24v2.27h-.8v-2.27q0-.47-.2-.73-.2-.25-.6-.25-.5 0-.92.47z" style="line-height:125%;-inkscape-font-specification:'Gill Sans MT, Normal';text-align:start" font-family="Gill Sans MT" letter-spacing="0" word-spacing="0"/><path fill="#404030" d="M324.54 987.97h.8v5.8h-.8v-5.8z" style="line-height:125%;-inkscape-font-specification:'Gill Sans MT, Normal';text-align:start" font-family="Gill Sans MT" letter-spacing="0" word-spacing="0"/><path fill="#404030" d="M331.53 991.47v1.62q0 .2.14.2.15 0 .46-.2v.45q-.28.16-.44.22-.18.06-.36.06-.5 0-.6-.38-.5.38-1.1.38-.4 0-.7-.27-.27-.26-.27-.66 0-.36.27-.64.28-.3.78-.46l1.03-.33v-.2q0-.7-.73-.7-.66 0-1.28.65v-.83q.47-.53 1.34-.53.66 0 1.05.33.13.1.24.27.1.17.13.35.03.17.03.65zm-.78 1.54v-1.12l-.54.2q-.4.15-.57.3-.17.16-.17.4 0 .23.16.38t.42.15q.38 0 .7-.3z" style="line-height:125%;-inkscape-font-specification:'Gill Sans MT, Normal';text-align:start" font-family="Gill Sans MT" letter-spacing="0" word-spacing="0"/><path fill="#404030" d="M335.54 987.97h.8v5.8h-1.7q-.9 0-1.44-.54-.53-.53-.53-1.44 0-.85.56-1.4.56-.54 1.43-.54.4 0 .88.17v-2.06zm0 5.15v-2.42q-.37-.18-.75-.18-.6 0-.97.37-.35.36-.35 1 0 .58.3.9.2.2.4.25.2.07.74.07h.62z" style="line-height:125%;-inkscape-font-specification:'Gill Sans MT, Normal';text-align:start" font-family="Gill Sans MT" letter-spacing="0" word-spacing="0"/><path fill="#404030" d="M340.05 987.97h.8v5.8h-1.7q-.9 0-1.44-.54-.52-.53-.52-1.44 0-.85.56-1.4.56-.54 1.43-.54.4 0 .88.17v-2.06zm0 5.15v-2.42q-.37-.18-.76-.18-.6 0-.96.37-.35.36-.35 1 0 .58.3.9.18.2.4.25.2.07.73.07h.62z" style="line-height:125%;-inkscape-font-specification:'Gill Sans MT, Normal';text-align:start" font-family="Gill Sans MT" letter-spacing="0" word-spacing="0"/><path fill="#404030" d="M345.4 991.92h-2.85q.03.55.4.88.35.32.92.32.8 0 1.46-.47v.74q-.37.23-.74.33t-.86.1q-.67 0-1.08-.27-.4-.26-.66-.7-.25-.44-.25-1.02 0-.88.52-1.42.53-.55 1.36-.55.8 0 1.3.53.47.53.47 1.43v.1zm-2.83-.45h2.03q-.03-.45-.28-.7-.26-.24-.7-.24-.42 0-.7.24-.27.25-.35.7z" style="line-height:125%;-inkscape-font-specification:'Gill Sans MT, Normal';text-align:start" font-family="Gill Sans MT" letter-spacing="0" word-spacing="0"/><path fill="#404030" d="M348.96 987.97h.8v5.8h-1.7q-.9 0-1.44-.54-.53-.53-.53-1.44 0-.85.54-1.4.57-.54 1.44-.54.4 0 .88.17v-2.06zm0 5.15v-2.42q-.38-.18-.76-.18-.6 0-.95.37-.36.36-.36 1 0 .58.3.9.2.2.4.25.2.07.74.07h.62z" style="line-height:125%;-inkscape-font-specification:'Gill Sans MT, Normal';text-align:start" font-family="Gill Sans MT" letter-spacing="0" word-spacing="0"/><path fill="#f8f8f8" stroke="#ddd" d="M359.4 962.86h66c2.23 0 4 1.8 4 4v8c0 2.22-1.77 4-4 4h-66c-2.2 0-4-1.78-4-4v-8c0-2.2 1.8-4 4-4z" stroke-linecap="round" stroke-linejoin="round"/><text x="350.073" y="1003.872" fill="#404030" style="line-height:125%;-inkscape-font-specification:'Triplicate T4c, Normal';text-align:start" transform="scale(1.029 .972)" font-size="15" font-family="Triplicate T4c" letter-spacing="0" word-spacing="0"><tspan x="350.073" y="1003.872">6454cdc</tspan></text><path fill="#404030" d="M362 994v-.82q.33.22.68.36.36.14.6.14.25 0 .43-.1.2-.13.2-.3 0-.16-.13-.27-.1-.1-.5-.3-.77-.4-1-.7-.25-.3-.25-.63 0-.44.36-.72.36-.28.94-.28.6 0 1.2.32v.73q-.7-.4-1.15-.4-.24 0-.38.1-.15.08-.15.24 0 .13.13.25t.45.3l.3.15q1 .54 1 1.2 0 .46-.4.76-.38.3-1 .3-.35 0-.63-.07t-.7-.27z" style="line-height:125%;-inkscape-font-specification:'Gill Sans MT, Normal';text-align:start" font-family="Gill Sans MT" letter-spacing="0" word-spacing="0"/><path fill="#404030" d="M365.1 991.05l1.5-1.4v.8h1.27v.68h-1.28V993q0 .66.57.66.43 0 .9-.28v.7q-.46.25-1 .25-.55 0-.92-.3-.1-.1-.18-.2-.08-.12-.13-.3-.05-.2-.05-.7v-1.7h-.7v-.08z" style="line-height:125%;-inkscape-font-specification:'Gill Sans MT, Normal';text-align:start" font-family="Gill Sans MT" letter-spacing="0" word-spacing="0"/><path fill="#404030" d="M371.13 990.45h.9l-2.86 5.77h-.9l1.4-2.77-1.58-3h.9l1.1 2.15 1.03-2.15z" style="line-height:125%;-inkscape-font-specification:'Gill Sans MT, Normal';text-align:start" font-family="Gill Sans MT" letter-spacing="0" word-spacing="0"/><path fill="#404030" d="M372.62 988.47h.8v5.8h-.8v-5.8z" style="line-height:125%;-inkscape-font-specification:'Gill Sans MT, Normal';text-align:start" font-family="Gill Sans MT" letter-spacing="0" word-spacing="0"/><path fill="#404030" d="M378 992.42h-2.83q.03.55.4.88.35.32.9.32.8 0 1.47-.47v.74q-.37.23-.73.33-.35.1-.84.1-.67 0-1.08-.27-.4-.26-.66-.7-.25-.44-.25-1.02 0-.88.52-1.42.52-.55 1.35-.55.8 0 1.28.53t.48 1.43v.1zm-2.8-.45h2.02q-.03-.45-.28-.7-.26-.24-.7-.24-.42 0-.7.24-.27.25-.35.7z" style="line-height:125%;-inkscape-font-specification:'Gill Sans MT, Normal';text-align:start" font-family="Gill Sans MT" letter-spacing="0" word-spacing="0"/><path fill="#404030" d="M379.46 993.34q.23 0 .4.15.14.13.14.34 0 .2-.15.35-.16.13-.4.13-.2 0-.36-.14-.17-.15-.17-.36 0-.2.16-.35.14-.16.36-.16z" style="line-height:125%;-inkscape-font-specification:'Gill Sans MT, Normal';text-align:start" font-family="Gill Sans MT" letter-spacing="0" word-spacing="0"/><path fill="#404030" d="M384.05 993.37v.75q-.6.2-1.18.2-.95 0-1.5-.52-.58-.53-.58-1.42 0-.9.54-1.46.55-.55 1.45-.55.3 0 .55.06.25.05.6.2v.8q-.6-.35-1.1-.35-.55 0-.9.36t-.35.9q0 .6.38.94.38.35 1 .35.47 0 1.07-.26z" style="line-height:125%;-inkscape-font-specification:'Gill Sans MT, Normal';text-align:start" font-family="Gill Sans MT" letter-spacing="0" word-spacing="0"/><path fill="#404030" d="M384.76 994v-.82q.34.22.7.36.35.14.6.14.24 0 .42-.1.18-.13.18-.3 0-.16-.12-.27-.1-.1-.5-.3-.78-.4-1.02-.7-.23-.3-.23-.63 0-.44.35-.72.36-.28.93-.28.6 0 1.22.32v.73q-.7-.4-1.16-.4-.24 0-.38.1-.14.08-.14.24 0 .13.12.25.14.12.46.3l.3.15q1 .54 1 1.2 0 .46-.4.76-.38.3-1 .3-.35 0-.63-.07t-.7-.27z" style="line-height:125%;-inkscape-font-specification:'Gill Sans MT, Normal';text-align:start" font-family="Gill Sans MT" letter-spacing="0" word-spacing="0"/><path fill="#404030" d="M388.22 994v-.82q.34.22.7.36.35.14.6.14.24 0 .42-.1.18-.13.18-.3 0-.16-.12-.27-.1-.1-.5-.3-.77-.4-1-.7-.25-.3-.25-.63 0-.44.36-.72.37-.28.95-.28.6 0 1.2.32v.73q-.7-.4-1.15-.4-.23 0-.38.1-.14.08-.14.24 0 .13.13.25.14.12.46.3l.3.15q1 .54 1 1.2 0 .46-.4.76-.38.3-1 .3-.35 0-.63-.07t-.7-.27z" style="line-height:125%;-inkscape-font-specification:'Gill Sans MT, Normal';text-align:start" font-family="Gill Sans MT" letter-spacing="0" word-spacing="0"/><path fill="#404030" d="M397.4 993.37v.75q-.6.2-1.16.2-.95 0-1.52-.52-.56-.53-.56-1.42 0-.9.55-1.46.56-.55 1.45-.55.3 0 .56.06.26.05.63.2v.8q-.6-.35-1.13-.35-.54 0-.9.36-.33.36-.33.9 0 .6.37.94.38.35 1 .35.48 0 1.07-.26z" style="line-height:125%;-inkscape-font-specification:'Gill Sans MT, Normal';text-align:start" font-family="Gill Sans MT" letter-spacing="0" word-spacing="0"/><path fill="#404030" d="M398.3 988.47h.8v2.48q.5-.58 1.24-.58.4 0 .73.2.32.18.47.52.16.33.16 1v2.17h-.8v-2.37q0-.42-.22-.67-.2-.26-.57-.26-.25 0-.48.13-.24.13-.52.43v2.74h-.8v-5.8z" style="line-height:125%;-inkscape-font-specification:'Gill Sans MT, Normal';text-align:start" font-family="Gill Sans MT" letter-spacing="0" word-spacing="0"/><path fill="#404030" d="M405.36 991.97v1.62q0 .2.14.2.15 0 .45-.2v.45q-.27.16-.44.22-.15.06-.33.06-.5 0-.6-.38-.52.38-1.1.38-.4 0-.7-.27-.28-.26-.28-.66 0-.36.27-.64.27-.3.78-.46l1.02-.33v-.2q0-.7-.73-.7-.65 0-1.27.65v-.83q.46-.53 1.34-.53.66 0 1.06.33.13.1.24.27.1.17.13.35.03.17.03.65zm-.8 1.54v-1.12l-.52.2q-.4.15-.58.3-.17.16-.17.4 0 .23.15.38.16.15.42.15.38 0 .7-.3z" style="line-height:125%;-inkscape-font-specification:'Gill Sans MT, Normal';text-align:start" font-family="Gill Sans MT" letter-spacing="0" word-spacing="0"/><path fill="#404030" d="M407.47 990.45v.48q.54-.56 1.22-.56.37 0 .7.2.32.17.48.5.17.32.17 1v2.2h-.8v-2.18q0-.6-.18-.84-.2-.26-.64-.26-.56 0-.96.54v2.73h-.82v-3.82h.82z" style="line-height:125%;-inkscape-font-specification:'Gill Sans MT, Normal';text-align:start" font-family="Gill Sans MT" letter-spacing="0" word-spacing="0"/><path fill="#404030" d="M410.96 991.77q0-.6.47-.97.48-.35 1.3-.35h1.66v.6h-.83q.24.2.33.4.1.2.1.43 0 .3-.18.6-.18.28-.47.43-.28.16-.93.25-.45.07-.45.3 0 .13.17.22.17.08.6.17.76.16.97.24.22.1.4.25.28.28.28.7 0 .54-.5.86-.52.32-1.38.32-.86 0-1.38-.33-.52-.34-.52-.9 0-.76 1.02-1-.4-.23-.4-.47 0-.18.17-.33.16-.15.46-.22-.9-.38-.9-1.2zm1.5-.67q-.32 0-.55.2-.22.22-.22.5 0 .3.23.5t.58.2q.33 0 .56-.2.23-.2.23-.5t-.23-.5q-.23-.2-.57-.2zm-.18 3.35q-.4 0-.67.16-.24.17-.24.42 0 .6 1.12.6.54 0 .83-.16.3-.14.3-.4 0-.28-.37-.45-.37-.15-.95-.15z" style="line-height:125%;-inkscape-font-specification:'Gill Sans MT, Normal';text-align:start" font-family="Gill Sans MT" letter-spacing="0" word-spacing="0"/><path fill="#404030" d="M418.47 992.42h-2.85q.03.55.4.88.35.32.92.32.8 0 1.46-.47v.74q-.37.23-.74.33-.36.1-.85.1-.65 0-1.07-.27-.4-.26-.66-.7-.25-.44-.25-1.02 0-.88.53-1.42.52-.55 1.35-.55.8 0 1.3.53.47.53.47 1.43v.1zm-2.83-.45h2.04q-.04-.45-.3-.7-.25-.24-.68-.24-.43 0-.7.24-.28.25-.36.7z" style="line-height:125%;-inkscape-font-specification:'Gill Sans MT, Normal';text-align:start" font-family="Gill Sans MT" letter-spacing="0" word-spacing="0"/><path fill="#404030" d="M422.03 988.47h.8v5.8h-1.7q-.9 0-1.44-.54-.54-.53-.54-1.44 0-.85.55-1.4.58-.54 1.45-.54.4 0 .88.17v-2.06zm0 5.15v-2.42q-.38-.18-.76-.18-.6 0-.95.37-.35.36-.35 1 0 .58.3.9.2.2.4.25.2.07.74.07h.63z" style="line-height:125%;-inkscape-font-specification:'Gill Sans MT, Normal';text-align:start" font-family="Gill Sans MT" letter-spacing="0" word-spacing="0"/><rect width="74" height="17" x="355.412" y="982.862" fill="none" stroke="#ddd" rx="4" ry="4" stroke-linecap="round" stroke-linejoin="round"/><ellipse cx="472.412" cy="947.362" fill="none" stroke="#c0504d" stroke-width="5" rx="7.5" ry="7.5" stroke-linecap="round"/><path fill="none" stroke="#c0504d" stroke-width="5" d="M457.4 947.36h8"/><path fill="none" stroke="#c0504d" stroke-width="5" d="M479.4 947.36h8"/><ellipse cx="232.412" cy="947.362" fill="none" stroke="#c0504d" stroke-width="5" rx="7.5" ry="7.5" stroke-linecap="round"/><path fill="none" stroke="#c0504d" stroke-width="5" d="M217.4 947.36h8"/><path fill="none" stroke="#c0504d" stroke-width="5" d="M239.4 947.36h8"/><path fill="none" stroke="#c0504d" stroke-width="5" d="M242.4 947.36h60"/><ellipse cx="392.412" cy="947.362" fill="none" stroke="#c0504d" stroke-width="5" rx="7.5" ry="7.5" stroke-linecap="round"/><path fill="none" stroke="#c0504d" stroke-width="5" d="M377.4 947.36h8"/><path fill="none" stroke="#c0504d" stroke-width="5" d="M399.4 947.36h8"/><path fill="none" stroke="#c0504d" stroke-width="5" d="M404.4 947.36h56"/><rect width="74" height="16" x="435.412" y="962.362" fill="#f8f8f8" stroke="#ddd" rx="4" ry="4" stroke-linecap="round" stroke-linejoin="round"/><path fill="#404030" d="M442.46 972.13q.02 1.24.56 1.83.55.6 1.57.6.47 0 .96-.07.5-.07.98-.16.47-.08.88-.2.4-.1.72-.22.1-.04.2.03.1.06.16.16t.06.2q0 .12-.06.16-.4.2-.9.36-.48.18-1 .32-.5.14-1.05.2-.53.1-1.04.1-.8 0-1.42-.24-.62-.23-1.05-.64-.42-.42-.63-.98-.22-.56-.22-1.22 0-.9.33-1.6.33-.7.84-1.2.52-.48 1.17-.74.67-.27 1.34-.27.72 0 1.33.22.6.22 1.04.63.46.4.7 1 .24.6.24 1.32 0 .2-.1.3-.07.1-.3.12h-5.28zm4.37-.67q-.03-.4-.16-.8-.1-.4-.35-.72-.23-.32-.62-.5-.37-.2-.92-.2-.5 0-.9.17-.42.2-.74.5-.3.3-.5.7-.18.4-.2.86h4.4z" style="line-height:125%;-inkscape-font-specification:'Triplicate T4c, Normal';text-align:start" font-family="Triplicate T4c" letter-spacing="0" word-spacing="0"/><path fill="#404030" d="M452.4 970.1q.44-.36.95-.6.52-.26 1.23-.26.54 0 1.05.2.5.16.9.54t.63.97q.23.58.23 1.38 0 .77-.3 1.4-.28.6-.74 1.02-.46.4-1.05.63-.56.22-1.13.22-.74 0-1.36-.28-.6-.28-1.07-.83-.45-.58-.7-1.43-.24-.86-.24-2 0-1.12.36-2.06.38-.96 1.05-1.67.67-.73 1.58-1.17.93-.45 2.02-.57.1-.02.14.1.05.1.05.24 0 .14-.06.27-.04.12-.15.14-1.55.25-2.48 1.18-.93.93-1.16 2.48l.25.1zm-.08.87q-.05.12-.08.3-.02.17-.03.38 0 .18-.02.36 0 .18 0 .3 0 .54.15 1 .16.47.43.82.28.34.65.53.38.2.83.2.8 0 1.33-.67.55-.65.55-1.9 0-.6-.16-1-.15-.4-.4-.67-.28-.25-.62-.37-.34-.13-.7-.13-.6 0-1.13.26-.52.26-.78.6z" style="line-height:125%;-inkscape-font-specification:'Triplicate T4c, Normal';text-align:start" font-family="Triplicate T4c" letter-spacing="0" word-spacing="0"/><path fill="#404030" d="M461 966.32q.03-.24.15-.33.14-.1.36-.1h3.06q.3 0 .53-.04.22-.03.43-.08.2-.03.27.15.1.17.03.4-.05.2-.26.4-.22.2-.65.2h-3.1l-.16 2.3.2.13q.2-.1.5-.16.3-.08.8-.08.6 0 1.17.2.6.17 1.05.55.46.38.74.94.3.58.3 1.34 0 .73-.33 1.36-.32.62-.9 1.1-.58.46-1.42.73-.84.27-1.87.27-.27 0-.56-.03-.28-.03-.54-.1-.27-.03-.5-.1-.2-.08-.35-.17-.12-.08-.12-.24 0-.17.1-.3.06-.14.2-.23.13-.1.25 0 .22.13.63.23.43.1 1.08.1.62 0 1.16-.18.55-.2.95-.53.4-.33.64-.8.25-.48.25-1.08 0-.96-.65-1.57-.6-.62-1.9-.62-.44 0-.75.1-.3.08-.52.2-.14.08-.33-.05-.18-.14-.17-.3l.23-3.6z" style="line-height:125%;-inkscape-font-specification:'Triplicate T4c, Normal';text-align:start" font-family="Triplicate T4c" letter-spacing="0" word-spacing="0"/><path fill="#404030" d="M474.1 971.3q-.42.4-.93.6-.5.18-1.2.18-.55 0-1.06-.22-.48-.2-.87-.62-.37-.4-.6-1-.2-.6-.2-1.35 0-.77.26-1.37.27-.6.72-1 .46-.43 1.02-.64.57-.23 1.14-.23.74 0 1.34.27.62.27 1.05.82.45.54.7 1.37.24.83.24 1.94 0 .8-.2 1.6-.2.76-.6 1.43-.4.67-.96 1.2-.56.54-1.28.84-.23.12-.57.22-.34.1-.72.18-.4.1-.77.13-.38.06-.72.07-.1 0-.14-.1-.05-.13-.05-.28 0-.13.04-.26.05-.13.16-.14.6-.1 1.26-.24.68-.14 1.1-.35.78-.33 1.3-1.08.5-.77.76-1.87l-.2-.12zm.16-.98q.03-.15.05-.32.02-.2.02-.38.02-.2.02-.35 0-.16 0-.26 0-.55-.15-1-.17-.5-.43-.83-.26-.35-.65-.54-.37-.2-.8-.2-.4 0-.74.17-.34.16-.6.48-.25.3-.4.77-.14.46-.14 1.04 0 .6.15 1.04.16.42.42.7.26.3.6.42.3.13.64.13.66 0 1.18-.27.54-.28.82-.6z" style="line-height:125%;-inkscape-font-specification:'Triplicate T4c, Normal';text-align:start" font-family="Triplicate T4c" letter-spacing="0" word-spacing="0"/><path fill="#404030" d="M483.3 969.76q-.28-.2-.74-.3-.45-.12-.9-.12-.4 0-.83.16-.42.15-.74.45-.33.3-.55.76-.2.46-.2 1.08 0 .7.17 1.22.18.5.5.83.3.32.73.48.45.16.96.16.36 0 .8-.1.47-.1.8-.32v-4.28zm.1 5.22l-.2-.1q-.47.28-.95.43-.48.14-1.17.14-.65 0-1.22-.27-.56-.26-.97-.7-.42-.46-.65-1.07-.23-.62-.23-1.3 0-.73.3-1.36.3-.63.78-1.08.5-.46 1.13-.73.63-.26 1.33-.26.46 0 .94.1.5.06.85.2l.04-2.7-1.24.13q-.17 0-.27-.1-.08-.1-.1-.22 0-.14.03-.25.06-.12.16-.13.48-.1.97-.22.5-.13.95-.26.12-.03.2-.06.1-.03.18-.03.14 0 .2.1.08.1.06.33l-.1 3.7v5h1.08q.07 0 .12.1.05.1.06.23.02.1-.03.22-.04.1-.13.14-.5.13-1.02.26-.53.13-.83.22-.1.03-.2.03-.08 0-.1-.12l-.03-.37z" style="line-height:125%;-inkscape-font-specification:'Triplicate T4c, Normal';text-align:start" font-family="Triplicate T4c" letter-spacing="0" word-spacing="0"/><path fill="#404030" d="M492.52 972.02q-2.02.08-3 .4-.98.35-.98 1.1 0 .53.4.87.4.3 1.07.3.64 0 1.32-.18.7-.2 1.14-.64l.06-1.86zm.02 2.66l-.1-.03q-.55.33-1.28.57-.72.22-1.46.22-1.22 0-1.84-.5-.62-.5-.62-1.24 0-.6.36-1 .35-.43 1.03-.7.7-.27 1.68-.4 1-.13 2.25-.17l.03-.7q.02-.4-.1-.7-.1-.28-.3-.47-.18-.2-.45-.28-.24-.08-.52-.08-.48 0-.9.16-.4.14-.6.3-.08.03-.1.1 0 .08 0 .18 0 .44-.2.63-.18.17-.52.17-.26 0-.5-.13-.24-.12-.2-.63 0-.2.05-.35.06-.16.3-.28.36-.17.8-.33.47-.15.95-.27.48-.12.93-.2.46-.06.8-.06.92 0 1.34.58.43.57.43 1.47l-.14 3.9 1.2-.3q.1-.03.2.06.1.1.14.22.05.13.04.25 0 .12-.13.16-.14.05-.44.16-.3.1-.6.2-.34.1-.63.2-.28.1-.4.1-.23.05-.28-.1l-.18-.68z" style="line-height:125%;-inkscape-font-specification:'Triplicate T4c, Normal';text-align:start" font-family="Triplicate T4c" letter-spacing="0" word-spacing="0"/><path fill="#404030" d="M501.82 969.76q-.3-.2-.76-.3-.44-.12-.9-.12-.4 0-.82.16-.42.15-.75.45-.33.3-.55.76-.2.46-.2 1.08 0 .7.17 1.22.2.5.5.83.3.32.74.48.45.16.95.16.37 0 .82-.1.46-.1.8-.32v-4.28zm.08 5.22l-.2-.1q-.47.28-.95.43-.47.14-1.17.14-.65 0-1.22-.27-.55-.26-.97-.7-.4-.46-.64-1.07-.23-.62-.23-1.3 0-.73.3-1.36.28-.63.78-1.08.5-.46 1.13-.73.64-.26 1.33-.26.46 0 .94.1.5.06.85.2l.05-2.7-1.24.13q-.17 0-.26-.1-.08-.1-.1-.22 0-.14.04-.25.06-.12.15-.13.5-.1.98-.22.5-.13.94-.26.12-.03.22-.06t.17-.03q.15 0 .2.1.08.1.07.33l-.1 3.7v5h1.07q.08 0 .13.1.04.1.06.23 0 .1-.03.22-.04.1-.13.14-.5.13-1.02.26t-.83.22q-.1.03-.18.03-.1 0-.1-.12l-.04-.37z" style="line-height:125%;-inkscape-font-specification:'Triplicate T4c, Normal';text-align:start" font-family="Triplicate T4c" letter-spacing="0" word-spacing="0"/><path fill="#404030" d="M452.7 987.97h.83v5.8h-.9v-4.52l-1.88 2.25h-.16l-1.92-2.25v4.52h-.88v-5.8h.83l2.04 2.38 2.04-2.38z" style="line-height:125%;-inkscape-font-specification:'Gill Sans MT, Normal';text-align:start" font-family="Gill Sans MT" letter-spacing="0" word-spacing="0"/><path fill="#404030" d="M458.2 991.92h-2.85q.03.55.38.88.36.32.93.32.8 0 1.46-.47v.74q-.37.23-.73.33-.37.1-.86.1-.67 0-1.08-.27-.42-.26-.67-.7-.25-.44-.25-1.02 0-.88.52-1.42.52-.55 1.36-.55.8 0 1.28.53.5.53.5 1.43v.1zm-2.84-.45h2.04q-.03-.45-.3-.7-.24-.24-.67-.24-.43 0-.7.24-.28.25-.37.7z" style="line-height:125%;-inkscape-font-specification:'Gill Sans MT, Normal';text-align:start" font-family="Gill Sans MT" letter-spacing="0" word-spacing="0"/><path fill="#404030" d="M459.9 989.95v.87l.05-.06q.58-.9 1.16-.9.47 0 .96.44l-.42.67q-.42-.38-.78-.38-.38 0-.67.34-.3.35-.3.83v2h-.8v-3.82h.8z" style="line-height:125%;-inkscape-font-specification:'Gill Sans MT, Normal';text-align:start" font-family="Gill Sans MT" letter-spacing="0" word-spacing="0"/><path fill="#404030" d="M462.4 991.27q0-.6.48-.97.48-.35 1.3-.35h1.66v.6h-.8q.22.2.32.4t.1.43q0 .3-.2.6-.17.28-.46.43-.28.16-.93.25-.45.07-.45.3 0 .13.17.22.16.08.6.17.75.16.96.24.2.1.38.25.3.28.3.7 0 .54-.52.86-.5.32-1.37.32-.86 0-1.38-.33-.52-.34-.52-.9 0-.76 1.02-1-.4-.23-.4-.47 0-.18.17-.33.17-.15.47-.22-.9-.38-.9-1.2zm1.52-.67q-.33 0-.56.2-.22.22-.22.5 0 .3.22.5t.57.2q.33 0 .56-.2.22-.2.22-.5t-.23-.5q-.24-.2-.58-.2zm-.2 3.35q-.4 0-.65.16-.26.17-.26.42 0 .6 1.14.6.53 0 .82-.16.3-.14.3-.4 0-.28-.38-.45-.37-.15-.95-.15z" style="line-height:125%;-inkscape-font-specification:'Gill Sans MT, Normal';text-align:start" font-family="Gill Sans MT" letter-spacing="0" word-spacing="0"/><path fill="#404030" d="M469.92 991.92h-2.85q.03.55.4.88.35.32.92.32.78 0 1.45-.47v.74q-.37.23-.74.33-.35.1-.84.1-.66 0-1.08-.27-.4-.26-.66-.7-.25-.44-.25-1.02 0-.88.53-1.42.52-.55 1.35-.55.8 0 1.3.53.47.53.47 1.43v.1zm-2.83-.45h2.03q-.03-.45-.3-.7-.24-.24-.68-.24-.43 0-.7.24-.28.25-.36.7z" style="line-height:125%;-inkscape-font-specification:'Gill Sans MT, Normal';text-align:start" font-family="Gill Sans MT" letter-spacing="0" word-spacing="0"/><path fill="#404030" d="M473.24 987.97h.8v2.25q.52-.36 1.1-.36.78 0 1.26.55.5.56.5 1.42 0 .92-.6 1.47-.57.53-1.55.53-.4 0-.82-.08-.44-.07-.7-.2v-5.58zm.8 2.97V993q.4.13.84.13.53 0 .87-.36.33-.36.33-.92 0-.57-.3-.92-.32-.36-.83-.36-.45 0-.9.37z" style="line-height:125%;-inkscape-font-specification:'Gill Sans MT, Normal';text-align:start" font-family="Gill Sans MT" letter-spacing="0" word-spacing="0"/><path fill="#404030" d="M478.63 989.95v.87l.05-.06q.58-.9 1.16-.9.45 0 .94.44l-.42.67q-.42-.38-.77-.38-.4 0-.7.34-.27.35-.27.83v2h-.8v-3.82h.8z" style="line-height:125%;-inkscape-font-specification:'Gill Sans MT, Normal';text-align:start" font-family="Gill Sans MT" letter-spacing="0" word-spacing="0"/><path fill="#404030" d="M483.9 991.47v1.62q0 .2.13.2.14 0 .45-.2v.45q-.27.16-.44.22-.16.06-.34.06-.52 0-.6-.38-.52.38-1.1.38-.42 0-.7-.27-.28-.26-.28-.66 0-.36.27-.64.27-.3.77-.46l1.03-.33v-.2q0-.7-.73-.7-.66 0-1.28.65v-.83q.46-.53 1.33-.53.66 0 1.06.33.12.1.22.27t.13.35q.04.17.04.65zm-.8 1.54v-1.12l-.54.2q-.4.15-.58.3-.16.16-.16.4 0 .23.15.38.17.15.42.15.37 0 .7-.3z" style="line-height:125%;-inkscape-font-specification:'Gill Sans MT, Normal';text-align:start" font-family="Gill Sans MT" letter-spacing="0" word-spacing="0"/><path fill="#404030" d="M486 989.95v.48q.53-.56 1.2-.56.4 0 .72.2.32.17.5.5.16.32.16 1v2.2h-.8v-2.18q0-.6-.2-.84-.18-.26-.62-.26-.57 0-.97.54v2.73h-.82v-3.82h.8z" style="line-height:125%;-inkscape-font-specification:'Gill Sans MT, Normal';text-align:start" font-family="Gill Sans MT" letter-spacing="0" word-spacing="0"/><path fill="#404030" d="M492.73 992.87v.75q-.6.2-1.18.2-.95 0-1.52-.52-.56-.53-.56-1.42 0-.9.55-1.46.55-.55 1.45-.55.3 0 .56.06.25.05.6.2v.8q-.6-.35-1.1-.35-.56 0-.9.36-.35.36-.35.9 0 .6.37.94.38.35 1.02.35.46 0 1.06-.26z" style="line-height:125%;-inkscape-font-specification:'Gill Sans MT, Normal';text-align:start" font-family="Gill Sans MT" letter-spacing="0" word-spacing="0"/><path fill="#404030" d="M493.62 987.97h.8v2.48q.5-.58 1.24-.58.4 0 .73.2.3.18.46.52.16.33.16 1v2.17h-.8v-2.37q0-.42-.22-.67-.22-.26-.57-.26-.27 0-.5.13-.23.13-.5.43v2.74h-.8v-5.8z" style="line-height:125%;-inkscape-font-specification:'Gill Sans MT, Normal';text-align:start" font-family="Gill Sans MT" letter-spacing="0" word-spacing="0"/><rect width="74" height="17" x="435.412" y="982.362" fill="none" stroke="#ddd" rx="4" ry="4" stroke-linecap="round" stroke-linejoin="round"/><path fill="#f8f8f8" stroke="#ddd" d="M519.4 962.36h66c2.23 0 4 1.8 4 4v8c0 2.22-1.77 4-4 4h-66c-2.2 0-4-1.78-4-4v-8c0-2.2 1.8-4 4-4z" stroke-linecap="round" stroke-linejoin="round"/><text x="505.605" y="1003.358" fill="#404030" style="line-height:125%;-inkscape-font-specification:'Triplicate T4c, Normal';text-align:start" transform="scale(1.029 .972)" font-size="15" font-family="Triplicate T4c" letter-spacing="0" word-spacing="0"><tspan x="505.605" y="1003.358">ce1e15a</tspan></text><rect width="79" height="17" x="512.912" y="982.362" fill="none" stroke="#ddd" rx="4" ry="4" stroke-linecap="round" stroke-linejoin="round"/><path fill="#c0504d" fill-rule="evenodd" stroke="#c0504d" d="M2.4 939.36c41 0 41 0 41 0"/><path fill="#404030" d="M522 992.52v-.82q.33.23.68.37.36.13.6.13.25 0 .43-.1.2-.13.2-.3 0-.16-.13-.27-.1-.1-.5-.3-.77-.42-1-.7-.25-.3-.25-.64 0-.45.36-.73.36-.28.94-.28.6 0 1.2.3v.76q-.7-.4-1.15-.4-.24 0-.38.1-.15.08-.15.23 0 .12.13.24t.45.3l.3.15q1 .53 1 1.18 0 .47-.4.78-.38.3-1 .3-.35 0-.63-.08-.28-.07-.7-.26z" style="line-height:125%;-inkscape-font-specification:'Gill Sans MT, Normal';text-align:start" font-family="Gill Sans MT" letter-spacing="0" word-spacing="0"/><path fill="#404030" d="M525.1 989.57l1.5-1.4v.8h1.27v.68h-1.28v1.87q0 .66.57.66.43 0 .9-.28v.7q-.46.26-1 .26-.55 0-.92-.3-.1-.1-.18-.2-.08-.13-.13-.3-.05-.2-.05-.72v-1.7h-.7v-.07z" style="line-height:125%;-inkscape-font-specification:'Gill Sans MT, Normal';text-align:start" font-family="Gill Sans MT" letter-spacing="0" word-spacing="0"/><path fill="#404030" d="M531.13 988.97h.9l-2.86 5.77h-.9l1.4-2.77-1.58-3h.9l1.1 2.15 1.03-2.15z" style="line-height:125%;-inkscape-font-specification:'Gill Sans MT, Normal';text-align:start" font-family="Gill Sans MT" letter-spacing="0" word-spacing="0"/><path fill="#404030" d="M532.62 987h.8v5.8h-.8V987z" style="line-height:125%;-inkscape-font-specification:'Gill Sans MT, Normal';text-align:start" font-family="Gill Sans MT" letter-spacing="0" word-spacing="0"/><path fill="#404030" d="M538 990.95h-2.83q.03.54.4.87.35.32.9.32.8 0 1.47-.46v.74q-.37.23-.73.33-.35.1-.84.1-.67 0-1.08-.26-.4-.28-.66-.72-.25-.44-.25-1.02 0-.87.52-1.42.52-.55 1.35-.55.8 0 1.28.53t.48 1.42v.1zm-2.8-.46h2.02q-.03-.46-.28-.7-.26-.25-.7-.25-.42 0-.7.24-.27.24-.35.7z" style="line-height:125%;-inkscape-font-specification:'Gill Sans MT, Normal';text-align:start" font-family="Gill Sans MT" letter-spacing="0" word-spacing="0"/><path fill="#404030" d="M539.46 991.86q.23 0 .4.15.14.15.14.37 0 .2-.15.34-.16.16-.4.16-.2 0-.36-.15-.17-.13-.17-.33 0-.22.16-.36.14-.14.36-.14z" style="line-height:125%;-inkscape-font-specification:'Gill Sans MT, Normal';text-align:start" font-family="Gill Sans MT" letter-spacing="0" word-spacing="0"/><path fill="#404030" d="M544.05 991.9v.74q-.6.22-1.18.22-.95 0-1.5-.54-.58-.53-.58-1.42 0-.9.54-1.45.55-.56 1.45-.56.3 0 .55.05.25.06.6.2v.8q-.6-.35-1.1-.35-.55 0-.9.36t-.35.9q0 .6.38.94.38.35 1 .35.47 0 1.07-.25z" style="line-height:125%;-inkscape-font-specification:'Gill Sans MT, Normal';text-align:start" font-family="Gill Sans MT" letter-spacing="0" word-spacing="0"/><path fill="#404030" d="M544.76 992.52v-.82q.34.23.7.37.35.13.6.13.24 0 .42-.1.18-.13.18-.3 0-.16-.12-.27-.1-.1-.5-.3-.78-.42-1.02-.7-.23-.3-.23-.64 0-.45.35-.73.36-.28.93-.28.6 0 1.22.3v.76q-.7-.4-1.16-.4-.24 0-.38.1-.14.08-.14.23 0 .12.12.24.14.12.46.3l.3.15q1 .53 1 1.18 0 .47-.4.78-.38.3-1 .3-.35 0-.63-.08-.28-.07-.7-.26z" style="line-height:125%;-inkscape-font-specification:'Gill Sans MT, Normal';text-align:start" font-family="Gill Sans MT" letter-spacing="0" word-spacing="0"/><path fill="#404030" d="M548.22 992.52v-.82q.34.23.7.37.35.13.6.13.24 0 .42-.1.18-.13.18-.3 0-.16-.12-.27-.1-.1-.5-.3-.77-.42-1-.7-.25-.3-.25-.64 0-.45.36-.73.37-.28.95-.28.6 0 1.2.3v.76q-.7-.4-1.15-.4-.23 0-.38.1-.14.08-.14.23 0 .12.13.24.14.12.46.3l.3.15q1 .53 1 1.18 0 .47-.4.78-.38.3-1 .3-.35 0-.63-.08-.28-.07-.7-.26z" style="line-height:125%;-inkscape-font-specification:'Gill Sans MT, Normal';text-align:start" font-family="Gill Sans MT" letter-spacing="0" word-spacing="0"/><path fill="#404030" d="M557.4 991.9v.74q-.6.22-1.16.22-.95 0-1.52-.54-.56-.53-.56-1.42 0-.9.55-1.45.56-.56 1.45-.56.3 0 .56.05.26.06.63.2v.8q-.6-.35-1.13-.35-.54 0-.9.36-.33.36-.33.9 0 .6.37.94.38.35 1 .35.48 0 1.07-.25z" style="line-height:125%;-inkscape-font-specification:'Gill Sans MT, Normal';text-align:start" font-family="Gill Sans MT" letter-spacing="0" word-spacing="0"/><path fill="#404030" d="M558.3 987h.8v2.47q.5-.58 1.24-.58.4 0 .73.18.32.2.47.53.16.35.16 1v2.2h-.8v-2.37q0-.42-.22-.68-.2-.25-.57-.25-.25 0-.48.12-.24.13-.52.43v2.74h-.8V987z" style="line-height:125%;-inkscape-font-specification:'Gill Sans MT, Normal';text-align:start" font-family="Gill Sans MT" letter-spacing="0" word-spacing="0"/><path fill="#404030" d="M565.36 990.5v1.62q0 .2.14.2.15 0 .45-.2v.45q-.27.17-.44.22-.15.06-.33.06-.5 0-.6-.4-.52.4-1.1.4-.4 0-.7-.27-.28-.28-.28-.68 0-.36.27-.64.27-.3.78-.46l1.02-.33v-.2q0-.7-.73-.7-.65 0-1.27.64v-.83q.46-.5 1.34-.5.66 0 1.06.32.13.1.24.28.1.17.13.34t.03.65zm-.8 1.53v-1.13l-.52.2q-.4.15-.58.3-.17.16-.17.4 0 .23.15.38.16.15.42.15.38 0 .7-.3z" style="line-height:125%;-inkscape-font-specification:'Gill Sans MT, Normal';text-align:start" font-family="Gill Sans MT" letter-spacing="0" word-spacing="0"/><path fill="#404030" d="M567.47 988.97v.48q.54-.56 1.22-.56.37 0 .7.18.32.18.48.5.17.33.17 1.02v2.2h-.8v-2.2q0-.57-.18-.82-.2-.26-.64-.26-.56 0-.96.54v2.73h-.82v-3.83h.82z" style="line-height:125%;-inkscape-font-specification:'Gill Sans MT, Normal';text-align:start" font-family="Gill Sans MT" letter-spacing="0" word-spacing="0"/><path fill="#404030" d="M570.96 990.3q0-.62.47-.97.48-.36 1.3-.36h1.66v.6h-.83q.24.22.33.4.1.2.1.43 0 .3-.18.6-.18.28-.47.43-.28.15-.93.25-.45.06-.45.3 0 .12.17.2.17.1.6.2.76.14.97.23.22.1.4.26.28.27.28.7 0 .53-.5.85-.52.34-1.38.34-.86 0-1.38-.33-.52-.32-.52-.86 0-.78 1.02-1-.4-.25-.4-.5 0-.17.17-.32.16-.15.46-.22-.9-.38-.9-1.2zm1.5-.68q-.32 0-.55.2-.22.22-.22.5 0 .3.23.5t.58.2q.33 0 .56-.2.23-.2.23-.5t-.23-.5q-.23-.2-.57-.2zm-.18 3.35q-.4 0-.67.16-.24.16-.24.42 0 .58 1.12.58.54 0 .83-.14.3-.16.3-.43t-.37-.44q-.37-.16-.95-.16z" style="line-height:125%;-inkscape-font-specification:'Gill Sans MT, Normal';text-align:start" font-family="Gill Sans MT" letter-spacing="0" word-spacing="0"/><path fill="#404030" d="M578.47 990.95h-2.85q.03.54.4.87.35.32.92.32.8 0 1.46-.46v.74q-.37.23-.74.33-.36.1-.85.1-.65 0-1.07-.26-.4-.28-.66-.72-.25-.44-.25-1.02 0-.87.53-1.42.52-.55 1.35-.55.8 0 1.3.53.47.53.47 1.42v.1zm-2.83-.46h2.04q-.04-.46-.3-.7-.25-.25-.68-.25-.43 0-.7.24-.28.24-.36.7z" style="line-height:125%;-inkscape-font-specification:'Gill Sans MT, Normal';text-align:start" font-family="Gill Sans MT" letter-spacing="0" word-spacing="0"/><path fill="#404030" d="M582.03 987h.8v5.8h-1.7q-.9 0-1.44-.55-.54-.53-.54-1.43 0-.85.55-1.4.58-.53 1.45-.53.4 0 .88.15V987zm0 5.14v-2.42q-.38-.18-.76-.18-.6 0-.95.37-.35.38-.35 1 0 .6.3.92.2.2.4.25.2.07.74.07h.63z" style="line-height:125%;-inkscape-font-specification:'Gill Sans MT, Normal';text-align:start" font-family="Gill Sans MT" letter-spacing="0" word-spacing="0"/><path fill="#c0504d" stroke="#fff" stroke-width=".648" d="M-700 422.36l-4.33-7.5-4.33-7.5h17.32l-4.33 7.5z" transform="matrix(.025 -.783 .76 .001 396.483 398.936)" stroke-linejoin="round"/><path fill="none" stroke="#c0504d" stroke-width="5" d="M684.86 947.36h4.95"/><path fill="none" stroke="#c0504d" stroke-width="5" d="M323.4 947.36h58"/><ellipse cx="312.412" cy="947.362" fill="none" stroke="#c0504d" stroke-width="5" rx="7.5" ry="7.5" stroke-linecap="round"/><path fill="none" stroke="#c0504d" stroke-width="5" d="M297.4 947.36h8"/><path fill="none" stroke="#c0504d" stroke-width="5" d="M319.4 947.36h8"/><ellipse cx="552.412" cy="947.362" fill="none" stroke="#c0504d" stroke-width="5" rx="7.5" ry="7.5" stroke-linecap="round"/><path fill="none" stroke="#c0504d" stroke-width="5" d="M537.4 947.36h8"/><path fill="none" stroke="#c0504d" stroke-width="5" d="M559.4 947.36h8"/><path fill="none" stroke="#c0504d" stroke-width="5" d="M482.4 947.36h56"/><ellipse cx="632.412" cy="947.362" fill="none" stroke="#c0504d" stroke-width="5" rx="7.5" ry="7.5" stroke-linecap="round"/><path fill="none" stroke="#c0504d" stroke-width="5" d="M617.4 947.36h8"/><path fill="none" stroke="#c0504d" stroke-width="5" d="M639.4 947.36h8"/><path fill="none" stroke="#c0504d" stroke-width="5" d="M562.4 947.36h56"/><path fill="#f8f8f8" stroke="#ddd" d="M599.4 962.36h66c2.23 0 4 1.8 4 4v8c0 2.22-1.77 4-4 4h-66c-2.2 0-4-1.78-4-4v-8c0-2.2 1.8-4 4-4z" stroke-linecap="round" stroke-linejoin="round"/><text x="583.37" y="1003.358" fill="#404030" style="line-height:125%;-inkscape-font-specification:'Triplicate T4c, Normal';text-align:start" transform="scale(1.029 .972)" font-size="15" font-family="Triplicate T4c" letter-spacing="0" word-spacing="0"><tspan x="583.37" y="1003.358">5c9e772</tspan></text><path fill="#404030" d="M612.7 987.97h.83v5.8h-.9v-4.52l-1.88 2.25h-.16l-1.92-2.25v4.52h-.88v-5.8h.83l2.04 2.38 2.04-2.38z" style="line-height:125%;-inkscape-font-specification:'Gill Sans MT, Normal';text-align:start" font-family="Gill Sans MT" letter-spacing="0" word-spacing="0"/><path fill="#404030" d="M618.2 991.92h-2.85q.03.55.38.88.36.32.93.32.8 0 1.46-.47v.74q-.37.23-.73.33-.37.1-.86.1-.67 0-1.08-.27-.42-.26-.67-.7-.25-.44-.25-1.02 0-.88.52-1.42.52-.55 1.36-.55.8 0 1.28.53.5.53.5 1.43v.1zm-2.84-.45h2.04q-.03-.45-.3-.7-.24-.24-.67-.24-.43 0-.7.24-.28.25-.37.7z" style="line-height:125%;-inkscape-font-specification:'Gill Sans MT, Normal';text-align:start" font-family="Gill Sans MT" letter-spacing="0" word-spacing="0"/><path fill="#404030" d="M619.9 989.95v.87l.05-.06q.58-.9 1.16-.9.47 0 .96.44l-.42.67q-.42-.38-.78-.38-.38 0-.67.34-.3.35-.3.83v2h-.8v-3.82h.8z" style="line-height:125%;-inkscape-font-specification:'Gill Sans MT, Normal';text-align:start" font-family="Gill Sans MT" letter-spacing="0" word-spacing="0"/><path fill="#404030" d="M622.4 991.27q0-.6.48-.97.48-.35 1.3-.35h1.66v.6h-.8q.22.2.32.4t.1.43q0 .3-.2.6-.17.28-.46.43-.28.16-.93.25-.45.07-.45.3 0 .13.17.22.16.08.6.17.75.16.96.24.2.1.38.25.3.28.3.7 0 .54-.52.86-.5.32-1.37.32-.86 0-1.38-.33-.52-.34-.52-.9 0-.76 1.02-1-.4-.23-.4-.47 0-.18.17-.33.17-.15.47-.22-.9-.38-.9-1.2zm1.52-.67q-.33 0-.56.2-.22.22-.22.5 0 .3.22.5t.57.2q.34 0 .56-.2.22-.2.22-.5t-.23-.5q-.24-.2-.58-.2zm-.2 3.35q-.4 0-.65.16-.26.17-.26.42 0 .6 1.14.6.53 0 .82-.16.3-.14.3-.4 0-.28-.38-.45-.37-.15-.95-.15z" style="line-height:125%;-inkscape-font-specification:'Gill Sans MT, Normal';text-align:start" font-family="Gill Sans MT" letter-spacing="0" word-spacing="0"/><path fill="#404030" d="M629.92 991.92h-2.85q.03.55.4.88.35.32.92.32.78 0 1.45-.47v.74q-.37.23-.74.33-.35.1-.84.1-.66 0-1.08-.27-.4-.26-.66-.7-.25-.44-.25-1.02 0-.88.53-1.42.52-.55 1.35-.55.8 0 1.3.53.47.53.47 1.43v.1zm-2.83-.45h2.03q-.03-.45-.3-.7-.24-.24-.68-.24-.43 0-.7.24-.28.25-.36.7z" style="line-height:125%;-inkscape-font-specification:'Gill Sans MT, Normal';text-align:start" font-family="Gill Sans MT" letter-spacing="0" word-spacing="0"/><path fill="#404030" d="M633.24 987.97h.8v2.25q.52-.36 1.1-.36.78 0 1.26.55.5.56.5 1.42 0 .92-.6 1.47-.57.53-1.55.53-.4 0-.82-.08-.44-.07-.7-.2v-5.58zm.8 2.97V993q.4.13.84.13.53 0 .87-.36.33-.36.33-.92 0-.57-.3-.92-.32-.36-.83-.36-.45 0-.9.37z" style="line-height:125%;-inkscape-font-specification:'Gill Sans MT, Normal';text-align:start" font-family="Gill Sans MT" letter-spacing="0" word-spacing="0"/><path fill="#404030" d="M638.63 989.95v.87l.05-.06q.58-.9 1.16-.9.45 0 .94.44l-.42.67q-.42-.38-.77-.38-.4 0-.7.34-.27.35-.27.83v2h-.8v-3.82h.8z" style="line-height:125%;-inkscape-font-specification:'Gill Sans MT, Normal';text-align:start" font-family="Gill Sans MT" letter-spacing="0" word-spacing="0"/><path fill="#404030" d="M643.9 991.47v1.62q0 .2.13.2.14 0 .45-.2v.45q-.27.16-.44.22-.16.06-.34.06-.52 0-.6-.38-.52.38-1.1.38-.42 0-.7-.27-.28-.26-.28-.66 0-.36.27-.64.27-.3.77-.46l1.03-.33v-.2q0-.7-.73-.7-.66 0-1.28.65v-.83q.46-.53 1.33-.53.66 0 1.06.33.12.1.22.27t.13.35q.04.17.04.65zm-.8 1.54v-1.12l-.54.2q-.4.15-.58.3-.16.16-.16.4 0 .23.15.38.17.15.42.15.37 0 .7-.3z" style="line-height:125%;-inkscape-font-specification:'Gill Sans MT, Normal';text-align:start" font-family="Gill Sans MT" letter-spacing="0" word-spacing="0"/><path fill="#404030" d="M646 989.95v.48q.53-.56 1.2-.56.4 0 .72.2.32.17.5.5.16.32.16 1v2.2h-.8v-2.18q0-.6-.2-.84-.18-.26-.62-.26-.57 0-.97.54v2.73h-.82v-3.82h.8z" style="line-height:125%;-inkscape-font-specification:'Gill Sans MT, Normal';text-align:start" font-family="Gill Sans MT" letter-spacing="0" word-spacing="0"/><path fill="#404030" d="M652.73 992.87v.75q-.6.2-1.18.2-.95 0-1.52-.52-.56-.53-.56-1.42 0-.9.55-1.46.55-.55 1.45-.55.3 0 .56.06.25.05.6.2v.8q-.6-.35-1.1-.35-.56 0-.9.36-.35.36-.35.9 0 .6.37.94.38.35 1.02.35.46 0 1.06-.26z" style="line-height:125%;-inkscape-font-specification:'Gill Sans MT, Normal';text-align:start" font-family="Gill Sans MT" letter-spacing="0" word-spacing="0"/><path fill="#404030" d="M653.62 987.97h.8v2.48q.5-.58 1.24-.58.4 0 .73.2.3.18.46.52.16.33.16 1v2.17h-.8v-2.37q0-.42-.22-.67-.22-.26-.57-.26-.27 0-.5.13-.23.13-.5.43v2.74h-.8v-5.8z" style="line-height:125%;-inkscape-font-specification:'Gill Sans MT, Normal';text-align:start" font-family="Gill Sans MT" letter-spacing="0" word-spacing="0"/><rect width="74" height="17" x="595.412" y="982.362" fill="none" stroke="#ddd" rx="4" ry="4" stroke-linecap="round" stroke-linejoin="round"/></g></svg>
