<svg xmlns="http://www.w3.org/2000/svg" width="1050" height="460"><g transform="matrix(2.854 0 0 2.854 -3.059 0)"><rect width="74" height="16" x="117.589" y="34.695" fill="#f8f8f8" stroke="#ddd" rx="1.401" ry="1.401" stroke-linecap="round" stroke-linejoin="round"/><path fill="#404030" d="M123.67 45.38q0-.45.16-.85.17-.4.44-.7.28-.33.62-.55.32-.23.66-.35v-.23q-.75-.46-1.1-1.03-.36-.57-.36-1.22 0-.47.2-.9.22-.45.6-.78.4-.35.96-.56.55-.2 1.26-.2.54 0 1.05.16.53.13.93.42.42.28.67.72.24.42.24 1 0 .4-.13.75-.13.34-.37.63-.2.3-.5.5-.25.23-.5.34v.18q.82.32 1.37.96.56.65.56 1.6 0 .6-.25 1.1-.23.48-.7.83-.44.34-1.1.53-.62.2-1.4.2-.72 0-1.34-.2-.6-.18-1.05-.5-.43-.36-.68-.83-.24-.47-.24-1.02zm1.25-.25q0 .38.12.73.13.35.38.64.26.28.66.45.4.15.97.15.5 0 .9-.13.4-.14.68-.38.28-.26.42-.58.15-.32.15-.67 0-.86-.73-1.44-.7-.57-1.94-.8-1.6.65-1.6 2zm.25-4.74q0 .33.15.62.17.3.47.54.3.25.66.44.4.18.84.32.16-.06.4-.2.27-.17.5-.4.26-.25.43-.6.2-.34.2-.77 0-.8-.5-1.22-.5-.43-1.26-.43-.45 0-.82.16-.36.16-.6.4-.23.24-.36.55-.13.3-.13.6z" style="line-height:125%;-inkscape-font-specification:'Triplicate T4c, Normal';text-align:start" letter-spacing="0" word-spacing="0" font-family="Triplicate T4c"/><path fill="#404030" d="M132.9 45.38q0-.45.17-.85.18-.4.46-.7.27-.33.6-.55.35-.23.7-.35v-.23q-.76-.46-1.12-1.03-.34-.57-.34-1.22 0-.47.2-.9.2-.45.6-.78.4-.35.95-.56.56-.2 1.27-.2.55 0 1.06.16.52.13.93.42.4.28.65.72.26.42.26 1 0 .4-.14.75-.14.34-.37.63-.23.3-.5.5-.27.23-.52.34v.18q.82.32 1.38.96.56.65.56 1.6 0 .6-.23 1.1-.25.48-.7.83-.46.34-1.1.53-.64.2-1.43.2-.7 0-1.33-.2-.6-.18-1.04-.5-.43-.36-.67-.83-.26-.47-.26-1.02zm1.26-.25q0 .38.13.73.1.35.36.64.26.28.66.45.4.15.96.15.5 0 .9-.13.4-.14.7-.38.27-.26.4-.58.16-.32.16-.67 0-.86-.73-1.44-.68-.57-1.92-.8-1.6.65-1.6 2zm.25-4.74q0 .33.17.62.18.3.47.54.3.25.68.44.4.18.85.32.15-.06.4-.2.26-.17.5-.4.25-.25.42-.6.2-.34.2-.77 0-.8-.5-1.22-.5-.43-1.27-.43-.46 0-.83.16-.35.16-.6.4-.23.24-.36.55-.12.3-.12.6z" style="line-height:125%;-inkscape-font-specification:'Triplicate T4c, Normal';text-align:start" letter-spacing="0" word-spacing="0" font-family="Triplicate T4c"/><path fill="#404030" d="M147.03 43.64q-.43.38-.94.6-.5.18-1.2.18-.55 0-1.06-.22-.5-.22-.88-.63-.38-.4-.6-.98-.22-.6-.22-1.37 0-.76.27-1.35.3-.6.74-1 .46-.42 1.02-.64.57-.22 1.14-.22.74 0 1.34.28.62.26 1.05.8.44.55.7 1.38.23.84.23 1.94 0 .8-.2 1.6-.2.77-.62 1.44-.37.67-.94 1.2-.56.53-1.28.84-.23.1-.57.22-.32.1-.7.17-.4.1-.8.13-.36.06-.7.08-.1 0-.14-.1-.05-.13-.05-.27 0-.13.06-.27.05-.13.15-.14.6-.1 1.28-.24.68-.15 1.1-.36.78-.33 1.3-1.07.5-.76.76-1.87l-.2-.12zm.15-1q.03-.13.05-.3 0-.2 0-.4.04-.18.04-.34 0-.16 0-.26 0-.56-.16-1.02-.14-.48-.4-.82-.26-.35-.65-.54-.37-.2-.8-.2-.4 0-.74.17-.34.16-.6.48-.25.3-.4.8-.15.44-.15 1.02 0 .6.15 1.05.17.44.43.73.26.27.6.4.3.14.64.14.66 0 1.18-.27.54-.27.82-.6z" style="line-height:125%;-inkscape-font-specification:'Triplicate T4c, Normal';text-align:start" letter-spacing="0" word-spacing="0" font-family="Triplicate T4c"/><path fill="#404030" d="M156.1 42.58q.8.23 1.3.9.5.64.5 1.52 0 .63-.25 1.17-.25.53-.73.92-.46.4-1.15.6-.68.24-1.55.24-.58 0-1.34-.18-.75-.17-1.44-.63-.12-.1-.12-.24 0-.17.1-.3.08-.14.2-.2.13-.1.26-.03.52.32 1.03.5.53.17 1.3.17 1.08 0 1.72-.5.67-.53.67-1.5-.02-.96-.6-1.47-.55-.5-1.4-.5h-.66q-.12 0-.17-.13-.06-.13-.06-.28.02-.17.07-.3.05-.13.16-.13h.7q.24 0 .5-.1.23-.08.43-.28.2-.2.35-.54.14-.32.14-.8 0-1-.4-1.4-.4-.44-1.02-.44-.55 0-.84.24-.3.24-.33.62-.02.43-.24.62-.2.2-.54.2-.35 0-.48-.15-.14-.16-.14-.4 0-.25.17-.56.2-.3.53-.57.36-.27.85-.44.5-.2 1.17-.2.5 0 .98.15.48.16.85.45.37.3.6.76.23.45.23 1.1 0 .64-.4 1.2-.4.5-.92.73v.18z" style="line-height:125%;-inkscape-font-specification:'Triplicate T4c, Normal';text-align:start" letter-spacing="0" word-spacing="0" font-family="Triplicate T4c"/><path fill="#404030" d="M166.26 44.62h.95q.2 0 .3.13.1.12.08.28 0 .15-.1.28-.06.14-.2.14h-1v2.25q0 .1-.18.17-.17.07-.37.07-.18 0-.35-.06-.17-.06-.17-.2l.02-2.23h-4.1q-.18 0-.25-.18-.08-.2-.1-.46-.03-.23 0-.45.02-.24.05-.3.94-1.42 1.7-2.87.8-1.44 1.2-2.97.03-.2.25-.24.23-.06.48-.03.24 0 .43.1.2.1.16.25-.2.73-.58 1.5-.38.76-.85 1.53-.45.77-.96 1.5-.5.73-1 1.37v.46h3.58v-2.68q0-.12.17-.18.16-.06.34-.04.2 0 .37.07.18.06.18.18v2.66z" style="line-height:125%;-inkscape-font-specification:'Triplicate T4c, Normal';text-align:start" letter-spacing="0" word-spacing="0" font-family="Triplicate T4c"/><path fill="#404030" d="M170.9 44.46q0 1.24.55 1.84.56.58 1.58.58.47 0 .97-.06t.97-.14q.5-.1.9-.2t.72-.23q.1-.05.17.02.1.06.17.16.06.1.06.2.02.1-.06.15-.4.2-.9.37-.47.17-1 .32-.5.13-1.05.2-.54.1-1.05.1-.8 0-1.45-.24-.6-.24-1.05-.65-.4-.42-.63-.97-.2-.56-.2-1.22 0-.9.3-1.6.34-.7.85-1.18.54-.5 1.2-.76.65-.27 1.3-.27.74 0 1.34.22.63.2 1.06.6.44.4.67 1 .25.6.25 1.33 0 .18-.1.3-.07.1-.3.1h-5.28zm4.36-.67q-.02-.4-.14-.8-.1-.4-.36-.73-.24-.3-.62-.5-.37-.2-.93-.2-.5 0-.9.2-.4.16-.73.47-.3.3-.5.7-.18.4-.2.86h4.38z" style="line-height:125%;-inkscape-font-specification:'Triplicate T4c, Normal';text-align:start" letter-spacing="0" word-spacing="0" font-family="Triplicate T4c"/><path fill="#404030" d="M179.16 45.38q0-.45.17-.85.17-.4.45-.7.28-.33.62-.55.34-.23.67-.35v-.23q-.74-.46-1.1-1.03-.35-.57-.35-1.22 0-.47.2-.9.22-.45.6-.78.4-.35.96-.56.56-.2 1.27-.2.54 0 1.05.16.53.13.93.42.42.28.66.72.25.42.25 1 0 .4-.14.75-.13.34-.36.63-.22.3-.5.5-.26.23-.5.34v.18q.8.32 1.37.96.57.65.57 1.6 0 .6-.25 1.1-.25.48-.7.83-.46.34-1.1.53-.63.2-1.42.2-.7 0-1.32-.2-.6-.18-1.05-.5-.43-.36-.68-.83-.25-.47-.25-1.02zm1.27-.25q0 .38.12.73.1.35.36.64.28.28.68.45.4.15.96.15.5 0 .9-.13.4-.14.7-.38.27-.26.4-.58.16-.32.16-.67 0-.86-.72-1.44-.7-.57-1.95-.8-1.6.65-1.6 2zm.24-4.74q0 .33.18.62.17.3.46.54.3.25.68.44.4.18.87.32.15-.06.4-.2.26-.17.5-.4.26-.25.43-.6.17-.34.17-.77 0-.8-.5-1.22-.5-.43-1.24-.43-.46 0-.83.16-.36.16-.6.4-.24.24-.36.55-.13.3-.13.6z" style="line-height:125%;-inkscape-font-specification:'Triplicate T4c, Normal';text-align:start" letter-spacing="0" word-spacing="0" font-family="Triplicate T4c"/><path fill="#f8f8f8" stroke="#ddd" d="M40.73 34.7h66c2.2 0 4 1.78 4 4v8c0 2.2-1.8 4-4 4h-66c-2.23 0-4-1.8-4-4v-8c0-2.22 1.77-4 4-4z" stroke-linecap="round" stroke-linejoin="round"/><path fill="#404030" d="M47.47 42.58q.82.23 1.3.9.5.64.5 1.52.02.63-.24 1.17-.25.53-.73.92-.46.4-1.15.6-.68.24-1.55.24-.58 0-1.34-.18-.77-.17-1.46-.63-.12-.1-.12-.24 0-.17.1-.3.08-.14.2-.2.14-.1.27-.03.5.32 1 .5.53.17 1.3.17 1.07 0 1.7-.5.68-.53.68-1.5 0-.96-.57-1.47-.55-.5-1.4-.5h-.66q-.12 0-.17-.13-.05-.13-.05-.28 0-.17.05-.3.06-.13.17-.13h.7q.24 0 .5-.1.23-.08.43-.28.22-.2.36-.54.13-.32.13-.8 0-1-.4-1.4-.4-.44-1-.44-.56 0-.85.24-.3.24-.33.62-.04.43-.26.62-.2.2-.56.2-.37 0-.5-.15-.14-.16-.14-.4 0-.25.17-.56.18-.3.52-.57.35-.27.84-.44.5-.2 1.17-.2.5 0 1 .15.48.16.85.45.38.3.6.76.24.45.24 1.1 0 .64-.4 1.2-.4.5-.94.73v.18z" style="line-height:125%;-inkscape-font-specification:'Triplicate T4c, Normal';text-align:start" letter-spacing="0" word-spacing="0" font-family="Triplicate T4c"/><path fill="#404030" d="M58.3 39.16q-1.04 1.95-1.93 4.13-.88 2.2-1.53 4.35-.07.12-.33.2-.25.07-.56.07-.3 0-.54-.07-.23-.06-.13-.27.8-2 1.8-4.1 1.02-2.1 2.2-4.02l-.14-.2q-.43 0-1 .02-.54 0-1.12.02-.56 0-1.1.03-.5 0-.9.03-.27 0-.4-.16-.16-.2-.17-.4 0-.25.1-.44.1-.18.3-.18.13 0 .4 0 .26 0 .55.02.3 0 .62.02.3 0 .5 0h2.72q.2 0 .34.1.16.1.25.25.1.14.1.32.05.15 0 .3z" style="line-height:125%;-inkscape-font-specification:'Triplicate T4c, Normal';text-align:start" letter-spacing="0" word-spacing="0" font-family="Triplicate T4c"/><path fill="#404030" d="M64.55 47.03q.34 0 .75-.12.4-.12.77-.43.35-.3.58-.82.22-.52.22-1.33 0-.5-.2-.93-.17-.45-.48-.77-.3-.32-.73-.5-.4-.2-.84-.2-.46 0-.92.15-.44.17-.8.5v3.4q0 .44.4.76.4.3 1.25.3zM61.6 38.6l-1 .2q-.12 0-.18-.1-.03-.13-.06-.3-.03-.14 0-.27 0-.14.08-.16.22-.02.6-.08.36-.08.67-.15.3-.08.53-.15.23-.07.37-.1.1-.04.3.07.2.1.15.4-.14.9-.18 1.88-.03.94-.06 1.73l.2.13q.38-.27.88-.46.5-.2 1.05-.2.7 0 1.27.26.58.26 1 .72.42.45.65 1.05.24.58.24 1.24 0 .9-.37 1.58-.36.67-.92 1.1-.53.44-1.2.66-.67.22-1.3.22-.53 0-.88-.1-.37-.1-.57-.16l-.47.36q-.07.06-.2.05-.14 0-.28-.06t-.23-.17q-.1-.1-.07-.2.02-.07.03-.24.05-.18.06-.38 0-.2 0-.42 0-.22 0-.37v-7.43l-.13-.12z" style="line-height:125%;-inkscape-font-specification:'Triplicate T4c, Normal';text-align:start" letter-spacing="0" word-spacing="0" font-family="Triplicate T4c"/><path fill="#404030" d="M73.8 47.03q.35 0 .75-.12t.77-.43q.35-.3.6-.82.2-.52.2-1.33 0-.5-.2-.93-.2-.45-.5-.77t-.7-.5q-.4-.2-.85-.2-.45 0-.9.15-.46.17-.8.5v3.4q0 .44.4.76.4.3 1.24.3zm-2.94-8.42l-1.03.2q-.1 0-.15-.1-.06-.13-.1-.3 0-.14.02-.27.02-.14.1-.16.2-.02.57-.08.37-.08.68-.15.3-.08.52-.15.23-.07.37-.1.1-.04.3.07.2.1.14.4-.12.9-.17 1.88 0 .94-.04 1.73l.2.13q.4-.27.9-.46.48-.2 1.04-.2.7 0 1.28.26.6.26 1 .72.42.45.65 1.05.23.58.23 1.24 0 .9-.35 1.58-.35.67-.9 1.1-.54.44-1.22.66-.67.22-1.3.22-.52 0-.88-.1-.35-.1-.55-.16l-.5.36q-.05.06-.2.05-.13 0-.27-.06t-.23-.17q-.1-.1-.06-.2 0-.07.02-.24.03-.18.04-.38.03-.2.03-.42 0-.22 0-.37v-7.43l-.15-.12z" style="line-height:125%;-inkscape-font-specification:'Triplicate T4c, Normal';text-align:start" letter-spacing="0" word-spacing="0" font-family="Triplicate T4c"/><path fill="#404030" d="M86.61 42.83q.02 1.2-.25 2.15-.28.95-.8 1.6-.48.66-1.18 1-.7.35-1.5.35-.75 0-1.35-.34-.6-.36-1.05-.95-.42-.6-.67-1.4-.24-.8-.24-1.72 0-1.18.2-2.2.2-1 .64-1.75.44-.74 1.12-1.17.7-.4 1.65-.4.7 0 1.32.3.62.3 1.08.9.48.6.76 1.5.27.9.27 2.12zm-1.36.08q0-1.14-.17-1.95-.17-.83-.48-1.34-1.42 3.6-2.66 7.14.46.44 1.05.44.42 0 .82-.22.4-.22.7-.7.32-.52.5-1.34.2-.83.2-2.03zm-3.8 3.1q.7-1.73 1.33-3.5.63-1.74 1.23-3.5-.4-.27-.9-.27-.6 0-1 .3t-.68.88q-.27.56-.4 1.37-.1.8-.1 1.8-.02.98.12 1.72.14.72.4 1.23z" style="line-height:125%;-inkscape-font-specification:'Triplicate T4c, Normal';text-align:start" letter-spacing="0" word-spacing="0" font-family="Triplicate T4c"/><path fill="#404030" d="M90.08 38.66q.02-.25.14-.34.14-.1.35-.1h3.07q.3 0 .52-.03.23-.04.44-.08.2-.03.26.14.1.18.03.4-.05.2-.27.4-.2.2-.65.2h-3.1l-.15 2.3.2.13q.18-.1.5-.17.3-.07.8-.07.6 0 1.17.2.58.16 1.05.54.45.38.73.95.3.56.3 1.3t-.33 1.37q-.3.63-.9 1.1-.57.46-1.42.74-.83.27-1.86.27-.28 0-.58-.03-.28-.03-.55-.1-.26-.03-.5-.1-.2-.08-.34-.16-.12-.1-.12-.25.02-.17.1-.3.07-.15.2-.24.13-.08.26 0 .2.13.62.24.42.08 1.07.08.6 0 1.14-.17.56-.2.96-.52.42-.33.65-.8.24-.48.24-1.08 0-.96-.64-1.57-.62-.6-1.9-.6-.44 0-.75.07-.3.1-.52.2-.13.1-.3-.04-.2-.14-.18-.3l.22-3.6z" style="line-height:125%;-inkscape-font-specification:'Triplicate T4c, Normal';text-align:start" letter-spacing="0" word-spacing="0" font-family="Triplicate T4c"/><path fill="#404030" d="M103.08 44.36q-2.02.07-3 .4-.98.34-.98 1.08 0 .54.4.88.4.32 1.07.32.64 0 1.32-.2.7-.2 1.13-.63l.06-1.84zm.02 2.65L103 47q-.55.34-1.28.57-.72.2-1.46.2-1.22 0-1.84-.5-.6-.5-.6-1.23 0-.6.35-1 .35-.42 1.03-.7.7-.26 1.7-.4.97-.13 2.22-.17l.03-.7q.02-.4-.1-.7-.1-.28-.3-.47-.18-.2-.44-.27-.24-.1-.52-.1-.48 0-.88.18-.4.14-.62.3-.08.03-.1.1 0 .08 0 .18 0 .45-.2.64-.18.17-.52.17-.26 0-.5-.12-.24-.13-.2-.64 0-.2.05-.34.07-.17.3-.3.38-.16.8-.32.5-.16.96-.28.48-.1.93-.2.45-.06.8-.06.9 0 1.33.58.43.57.43 1.48l-.14 3.9 1.2-.3q.1-.03.2.06.1.08.15.2.04.15.03.26 0 .12-.13.16-.14.05-.43.15-.3.1-.62.2t-.62.2q-.28.1-.4.1-.23.04-.28-.1l-.18-.7z" style="line-height:125%;-inkscape-font-specification:'Triplicate T4c, Normal';text-align:start" letter-spacing="0" word-spacing="0" font-family="Triplicate T4c"/><circle cx="153.665" cy="19.122" r="7.5" fill="none" stroke="#c0504d" stroke-width="5" stroke-linecap="round"/><path fill="none" stroke="#c0504d" stroke-width="5" d="M138.66 19.12h8"/><path fill="none" stroke="#c0504d" stroke-width="5" d="M160.66 19.12h8"/><circle cx="73.665" cy="19.122" r="7.5" fill="none" stroke="#c0504d" stroke-width="5" stroke-linecap="round"/><path fill="none" stroke="#c0504d" stroke-width="5" d="M58.66 19.12h8"/><path fill="none" stroke="#c0504d" stroke-width="5" d="M80.67 19.12h8"/><path fill="none" stroke="#c0504d" stroke-width="5" d="M85.8 19.12h55"/><path fill="none" stroke="#c0504d" stroke-width="5.045" d="M3.67 19.12h56" stroke-linecap="round"/><path fill="#c0504d" stroke="#fff" stroke-width=".5" d="M39.23 19.22l-5.8 3.38-5.82 3.38.45-13.56 5.6 3.4z" stroke-linejoin="round"/><path fill="none" stroke="#c0504d" stroke-width="5" d="M24.1 19.12h4.96"/><path fill="#c0504d" stroke="#fff" stroke-width=".5" d="M120.86 19.22l-5.8 3.38-5.82 3.38.43-13.56 5.6 3.4z" stroke-linejoin="round"/><path fill="none" stroke="#c0504d" stroke-width="5" d="M105.73 19.12h4.96"/><path fill="#c0504d" d="M8.73 3.24v4.9H7.4V4.38q0-1.12-.3-1.56-.3-.45-1.04-.45-.43 0-.78.2-.36.2-.8.68v4.9H3.13V1.4h1.33v.9q1-1.03 2-1.03 1.27 0 1.97 1.2 1.08-1.22 2.25-1.22.97 0 1.6.72.62.72.62 2.2v3.97H11.6v-4q0-.84-.34-1.28-.34-.46-.98-.46-.83 0-1.55.84z" style="line-height:125%;-inkscape-font-specification:'Gill Sans MT, Normal';text-align:center" letter-spacing="0" word-spacing="0" font-family="Gill Sans MT" text-anchor="middle"/><path fill="#c0504d" d="M19.02 4.08v2.86q0 .35.23.35t.75-.37v.8q-.46.3-.74.4-.26.12-.56.12-.85 0-1-.7-.85.67-1.8.67-.7 0-1.18-.46-.47-.46-.47-1.16 0-.64.46-1.14.47-.5 1.3-.8l1.7-.58v-.36q0-1.22-1.2-1.22-1.1 0-2.12 1.13V2.17q.78-.9 2.24-.9 1.1 0 1.75.57.2.18.4.5.16.3.2.6.06.3.06 1.15zm-1.3 2.72v-2l-.9.34q-.7.27-.97.55-.3.26-.3.67 0 .43.27.7.27.26.7.26.63 0 1.18-.52z" style="line-height:125%;-inkscape-font-specification:'Gill Sans MT, Normal';text-align:center" letter-spacing="0" word-spacing="0" font-family="Gill Sans MT" text-anchor="middle"/><path fill="#c0504d" d="M20.86 7.66V6.2q.57.4 1.16.65.6.24 1 .24t.7-.2q.3-.2.3-.5t-.18-.5q-.2-.2-.84-.56-1.3-.73-1.7-1.23-.4-.5-.4-1.1 0-.8.6-1.27.63-.5 1.58-.5 1 0 2.04.56v1.3q-1.18-.7-1.94-.7-.4 0-.63.15-.23.17-.23.44 0 .22.2.43.23.22.77.52l.48.27q1.67.94 1.67 2.1 0 .82-.65 1.36-.64.53-1.66.53-.6 0-1.07-.13-.48-.13-1.2-.47z" style="line-height:125%;-inkscape-font-specification:'Gill Sans MT, Normal';text-align:center" letter-spacing="0" word-spacing="0" font-family="Gill Sans MT" text-anchor="middle"/><path fill="#c0504d" d="M26.04 2.46L28.54 0v1.4h2.13v1.2h-2.14v3.3q0 1.15.96 1.15.72 0 1.52-.5V7.8q-.77.44-1.68.44-.92 0-1.52-.55-.2-.17-.32-.37-.12-.2-.2-.54-.1-.33-.1-1.25v-3h-1.16v-.12z" style="line-height:125%;-inkscape-font-specification:'Gill Sans MT, Normal';text-align:center" letter-spacing="0" word-spacing="0" font-family="Gill Sans MT" text-anchor="middle"/><path fill="#c0504d" d="M37.73 4.88h-4.74q.04.96.63 1.53.6.6 1.54.6 1.33 0 2.45-.83v1.3q-.6.42-1.22.6-.6.17-1.4.17-1.12 0-1.8-.46-.7-.45-1.12-1.23-.4-.78-.4-1.8 0-1.55.86-2.5.87-.97 2.27-.97 1.35 0 2.14.94.8.93.8 2.5v.18zm-4.7-.8h3.37q-.04-.8-.46-1.23-.43-.44-1.14-.44-.72 0-1.18.44-.46.42-.6 1.22z" style="line-height:125%;-inkscape-font-specification:'Gill Sans MT, Normal';text-align:center" letter-spacing="0" word-spacing="0" font-family="Gill Sans MT" text-anchor="middle"/><path fill="#c0504d" d="M40.6 1.4v1.54l.06-.12q.98-1.56 1.94-1.56.75 0 1.57.76l-.7 1.17q-.7-.67-1.28-.67-.66 0-1.14.62-.47.6-.47 1.45v3.52h-1.35V1.38h1.33z" style="line-height:125%;-inkscape-font-specification:'Gill Sans MT, Normal';text-align:center" letter-spacing="0" word-spacing="0" font-family="Gill Sans MT" text-anchor="middle"/><path fill="none" stroke="#4f81bd" stroke-width="5" d="M268.67 99.2c-12.18 0-13.8-5.35-30.45-29.42"/><path fill="none" stroke="#4f81bd" stroke-width="5" d="M193.66 19.12c12.18 0 13.8 5.36 30.45 29.43"/><path fill="none" stroke="#4f81bd" stroke-width="5" d="M223.44 47.56l15.2 22.85"/><path fill="#4f81bd" stroke="#fff" stroke-width=".5" d="M235.72 66.1l-6.04-2.94-6.04-2.95 11.52-7.16.28 6.53z" stroke-linejoin="round"/><path fill="none" stroke="#4f81bd" stroke-width="5" d="M227.62 53.83l2.75 4.13"/><path fill="none" stroke="#4f81bd" stroke-width="5" d="M268.17 99.12h35.46" stroke-linecap="round"/><path fill="none" stroke="#c0504d" stroke-width="5.045" d="M169.1 19.12h142.16" stroke-linecap="round"/><path fill="#4f81bd" stroke="#fff" stroke-width=".5" d="M286.23 99.22l-5.8 3.38-5.82 3.38.45-13.56 5.6 3.4z" stroke-linejoin="round"/><path fill="none" stroke="#4f81bd" stroke-width="5" d="M271.1 99.12h4.96"/><path fill="none" stroke="#c0504d" stroke-width="5.045" d="M224.13 19.12h142.2" stroke-linecap="round"/><path fill="#c0504d" stroke="#fff" stroke-width=".5" d="M286.23 19.22l-5.8 3.38-5.82 3.38.45-13.56 5.6 3.4z" stroke-linejoin="round"/><path fill="none" stroke="#c0504d" stroke-width="5" d="M271.1 19.12h4.96"/><path fill="#4f81bd" d="M179.28 94h1.34v10.25h-2.85q-1.5 0-2.38-.96-.9-.95-.9-2.54 0-1.48.94-2.44t2.4-.96q.66 0 1.46.3V94zm0 9.1v-4.27q-.63-.3-1.26-.3-1 0-1.6.64-.57.66-.57 1.77 0 1.04.5 1.6.32.34.67.46.33.1 1.22.1h1.04z" style="line-height:125%;-inkscape-font-specification:'Gill Sans MT, Normal';text-align:center" letter-spacing="0" word-spacing="0" font-family="Gill Sans MT" text-anchor="middle"/><path fill="#4f81bd" d="M188.16 101h-4.73q.05.96.64 1.53.6.57 1.56.57 1.32 0 2.43-.82v1.3q-.62.42-1.23.6-.6.17-1.42.17-1.08 0-1.78-.47-.7-.46-1.1-1.24-.4-.8-.4-1.82 0-1.54.86-2.5.88-.96 2.27-.96 1.34 0 2.14.93t.8 2.5v.17zm-4.7-.8h3.4q-.06-.8-.5-1.24-.4-.43-1.13-.43-.7 0-1.17.43-.46.44-.6 1.24z" style="line-height:125%;-inkscape-font-specification:'Gill Sans MT, Normal';text-align:center" letter-spacing="0" word-spacing="0" font-family="Gill Sans MT" text-anchor="middle"/><path fill="#4f81bd" d="M193.5 97.5h1.45l-2.98 6.86h-.45l-3.04-6.85h1.47l1.8 4.15 1.76-4.15z" style="line-height:125%;-inkscape-font-specification:'Gill Sans MT, Normal';text-align:center" letter-spacing="0" word-spacing="0" font-family="Gill Sans MT" text-anchor="middle"/><path fill="#4f81bd" d="M195.6 100.2h3.64v1.44h-3.65v-1.43z" style="line-height:125%;-inkscape-font-specification:'Gill Sans MT, Normal';text-align:center" letter-spacing="0" word-spacing="0" font-family="Gill Sans MT" text-anchor="middle"/><path fill="#4f81bd" d="M203.66 93.88q1.4 0 2.32 1.48.92 1.47.92 3.74 0 2.33-.92 3.8-.92 1.45-2.38 1.45-1.5 0-2.4-1.44-.9-1.42-.9-3.8 0-2.3.94-3.76.93-1.48 2.42-1.48zm0 1.4h-.06q-.84 0-1.34 1.03-.5 1.05-.5 2.8 0 1.83.5 2.87.48 1.04 1.33 1.04.84 0 1.34-1.02.5-1.03.5-2.8 0-1.78-.5-2.83-.46-1.06-1.26-1.06z" style="line-height:125%;-inkscape-font-specification:'Gill Sans MT, Normal';text-align:center" letter-spacing="0" word-spacing="0" font-family="Gill Sans MT" text-anchor="middle"/><path fill="#4f81bd" d="M210.38 94h1.47v10.25h-1.48V94z" style="line-height:125%;-inkscape-font-specification:'Gill Sans MT, Normal';text-align:center" letter-spacing="0" word-spacing="0" font-family="Gill Sans MT" text-anchor="middle"/><path fill="#4f81bd" d="M215.47 100.2h3.64v1.44h-3.65v-1.43z" style="line-height:125%;-inkscape-font-specification:'Gill Sans MT, Normal';text-align:center" letter-spacing="0" word-spacing="0" font-family="Gill Sans MT" text-anchor="middle"/><path fill="#4f81bd" d="M221.37 94.66q.32 0 .55.24.23.23.23.56 0 .32-.23.55-.23.25-.56.25-.32 0-.56-.25-.23-.24-.23-.55 0-.3.24-.55.25-.24.56-.24zm-.67 2.85h1.33v6.75h-1.33V97.5z" style="line-height:125%;-inkscape-font-specification:'Gill Sans MT, Normal';text-align:center" letter-spacing="0" word-spacing="0" font-family="Gill Sans MT" text-anchor="middle"/><path fill="#4f81bd" d="M225.26 97.5v.86q.9-.98 2.04-.98.63 0 1.17.32.55.33.83.9.3.56.3 1.8v3.85h-1.34v-3.85q0-1.04-.33-1.47-.3-.45-1.05-.45-.95 0-1.6.94v4.82h-1.37V97.5h1.37z" style="line-height:125%;-inkscape-font-specification:'Gill Sans MT, Normal';text-align:center" letter-spacing="0" word-spacing="0" font-family="Gill Sans MT" text-anchor="middle"/><path fill="#4f81bd" d="M230.5 98.58l2.5-2.46v1.4h2.14v1.2H233v3.3q0 1.15.96 1.15.72 0 1.5-.47v1.24q-.75.43-1.66.43-.92 0-1.53-.53-.18-.16-.3-.36-.13-.2-.2-.52-.1-.33-.1-1.24v-3h-1.16v-.12z" style="line-height:125%;-inkscape-font-specification:'Gill Sans MT, Normal';text-align:center" letter-spacing="0" word-spacing="0" font-family="Gill Sans MT" text-anchor="middle"/><path fill="#4f81bd" d="M237.88 97.5v1.55l.07-.12q.96-1.56 1.92-1.56.76 0 1.58.76l-.7 1.17q-.7-.66-1.3-.66-.64 0-1.1.6-.48.62-.48 1.46v3.53h-1.34v-6.75h1.34z" style="line-height:125%;-inkscape-font-specification:'Gill Sans MT, Normal';text-align:center" letter-spacing="0" word-spacing="0" font-family="Gill Sans MT" text-anchor="middle"/><path fill="#4f81bd" d="M245.26 97.5q1.53 0 2.55 1 1.03 1 1.03 2.5 0 1.44-1.04 2.4-1.03.96-2.6.96-1.5 0-2.53-.97-1.02-1-1.02-2.46 0-1.48 1.03-2.46 1.04-1 2.6-1zm-.08 1.2q-.96 0-1.58.62-.6.63-.6 1.6 0 .97.62 1.6.63.6 1.62.6.98 0 1.6-.62.63-.62.63-1.6 0-.95-.64-1.58-.65-.63-1.64-.63z" style="line-height:125%;-inkscape-font-specification:'Gill Sans MT, Normal';text-align:center" letter-spacing="0" word-spacing="0" font-family="Gill Sans MT" text-anchor="middle"/><rect width="20" height="20" x="303.665" y="64.122" fill="#f05133" rx="1.752" ry="1.752"/><path fill="#fff" d="M316.24 74.5H311v5.6h1.9q.15 0 .22.17.08.16.1.38.03.2-.04.36-.05.17-.18.17h-4.9q-.14 0-.23-.16-.07-.16-.07-.35.02-.22.1-.37.1-.17.3-.17h1.1V68.18h-1.57q-.15 0-.24-.16-.07-.16-.07-.36 0-.22.06-.37.06-.17.23-.17H312q.18 0 .27.17.1.15.1.37 0 .2-.1.37-.1.16-.24.16H311v5.33h5.24v-5.35h-1.57q-.2 0-.27-.16-.07-.18-.07-.38 0-.22.07-.37.08-.17.24-.17H319q.17 0 .26.17.08.15.06.37 0 .2-.1.37-.1.14-.27.14h-1.03v11.93h1.65q.15 0 .23.18.1.16.1.38 0 .2-.1.36-.06.15-.2.15h-4.72q-.18 0-.24-.16-.08-.18-.08-.37.02-.22.1-.37.1-.17.25-.17h1.3v-5.6z" style="line-height:125%;-inkscape-font-specification:'Triplicate T4c, Normal';text-align:start" letter-spacing="0" word-spacing="0" font-family="Triplicate T4c"/><circle cx="313.665" cy="99.122" r="7.5" fill="none" stroke="#4f81bd" stroke-width="5" stroke-linecap="round"/><path fill="none" stroke="#4f81bd" stroke-width="5" d="M298.67 99.12h8"/><path fill="none" stroke="#4f81bd" stroke-width="5" d="M320.67 99.12h8"/><path fill="none" stroke="#4f81bd" stroke-width="5" d="M326 99.12h40.35" stroke-linecap="round"/><rect width="74" height="16" x="276.665" y="114.622" fill="#f8f8f8" stroke="#ddd" rx="1.401" ry="1.401" stroke-linecap="round" stroke-linejoin="round"/><path fill="#404030" d="M287.42 122.5q.8.24 1.3.9.5.65.5 1.53 0 .62-.25 1.16-.25.52-.73.9-.46.4-1.16.6-.66.26-1.53.26-.6 0-1.34-.18-.75-.16-1.44-.63-.13-.1-.13-.24.02-.15.1-.3.1-.13.2-.2.15-.1.28 0 .5.3 1 .47.55.17 1.3.17 1.08 0 1.73-.52.67-.5.67-1.48 0-.97-.57-1.48-.56-.5-1.4-.5h-.67q-.13 0-.17-.12-.05-.14-.05-.28 0-.16.05-.3.07-.12.18-.12h.7q.24 0 .5-.1.23-.08.43-.28.24-.2.38-.53.14-.34.14-.82 0-.97-.4-1.4-.4-.43-1-.43-.55 0-.85.23-.3.23-.32.6-.03.45-.25.64-.2.2-.55.2-.36 0-.5-.15-.13-.15-.13-.4t.17-.55q.17-.3.5-.56.35-.3.85-.46.5-.2 1.17-.2.52 0 1 .14.48.15.85.44.37.3.6.76.23.45.23 1.08 0 .65-.4 1.2-.4.52-.93.75v.2z" style="line-height:125%;-inkscape-font-specification:'Triplicate T4c, Normal';text-align:start" letter-spacing="0" word-spacing="0" font-family="Triplicate T4c"/><path fill="#404030" d="M293 118.58q0-.24.15-.33.13-.1.34-.1h3.05q.3 0 .52-.04.23-.02.45-.07.2-.03.26.15.1.17.03.4-.03.2-.25.4-.2.2-.65.2h-3.1l-.15 2.3.2.13q.18-.1.5-.15.3-.08.8-.08.6 0 1.17.2.58.17 1.05.55.46.38.74.94.3.58.3 1.34 0 .73-.32 1.36-.3.62-.9 1.1-.57.46-1.42.73-.82.26-1.86.26-.27 0-.57-.03-.27-.03-.54-.1-.27-.03-.5-.1-.2-.08-.36-.17-.12-.08-.12-.24.02-.17.1-.3.07-.14.2-.23.13-.1.26 0 .2.12.63.22t1.07.1q.63 0 1.17-.18.56-.2.96-.53.4-.32.65-.8.24-.47.24-1.07 0-.96-.64-1.57-.63-.62-1.92-.62-.44 0-.74.1-.3.08-.53.2-.13.08-.3-.05-.2-.15-.18-.3l.22-3.6z" style="line-height:125%;-inkscape-font-specification:'Triplicate T4c, Normal';text-align:start" letter-spacing="0" word-spacing="0" font-family="Triplicate T4c"/><path fill="#404030" d="M306.85 124.56h.95q.2 0 .3.12.08.13.07.3 0 .14-.1.27-.07.12-.2.12h-1.02v2.26q0 .1-.17.17-.15.08-.36.08-.18 0-.35-.06-.2-.06-.2-.2v-2.24h-4.1q-.16 0-.24-.2-.08-.2-.1-.44-.02-.26 0-.48.02-.23.05-.3.94-1.42 1.7-2.86.8-1.44 1.2-2.97.03-.2.25-.26.23-.07.48-.05.26 0 .44.1.2.1.15.24-.2.73-.6 1.5-.36.76-.82 1.54-.47.76-.98 1.48-.5.73-.98 1.37v.46h3.56v-2.7q0-.1.17-.16.16-.06.34-.04.2 0 .36.06.18.06.18.17v2.66z" style="line-height:125%;-inkscape-font-specification:'Triplicate T4c, Normal';text-align:start" letter-spacing="0" word-spacing="0" font-family="Triplicate T4c"/><path fill="#404030" d="M313.3 126.72v-5.85h-1.25q-.18.03-.25-.06-.08-.1-.08-.2 0-.13.06-.23.07-.1.18-.16.3-.1.54-.24.26-.15.46-.37.2-.24.36-.6.15-.36.26-.9.02-.1.2-.1.16-.04.34 0 .2 0 .34.1.16.07.14.22-.04.2-.06.64-.02.44-.02 1.04v6.72l1.93.15q.15 0 .2.12.05.1.05.24 0 .13-.07.25-.06.1-.17.1h-4.96q-.1 0-.16-.1-.04-.13-.04-.26t.04-.25q.07-.1.16-.1l1.8-.17z" style="line-height:125%;-inkscape-font-specification:'Triplicate T4c, Normal';text-align:start" letter-spacing="0" word-spacing="0" font-family="Triplicate T4c"/><path fill="#404030" d="M324.73 120.42q0-.83-.5-1.28-.48-.47-1.17-.47-.4 0-.78.14-.37.14-.54.5v.74q0 .4-.28.58-.26.16-.52.16-.65 0-.65-.56 0-.42.2-.83.24-.4.64-.73.4-.32.97-.5.56-.2 1.2-.2.5 0 1 .15.5.16.9.48.4.3.64.8.25.46.25 1.1 0 .47-.3 1.05-.3.6-.8 1.2-.45.6-1.02 1.2-.56.6-1.1 1.1-.52.48-.96.85-.43.35-.63.5l.1.2h3.3q.45 0 .63-.13.2-.15.33-.3.04-.07.2-.07.2 0 .37.05.18.04.3.13.13.07.1.17l-.42.92q-.1.2-.17.24-.1.04-.28.04h-5.53q-.1 0-.17-.13-.08-.13-.13-.3-.04-.18-.04-.34 0-.16.06-.2.84-.7 1.7-1.5.84-.78 1.5-1.6.7-.8 1.13-1.6.43-.8.43-1.5z" style="line-height:125%;-inkscape-font-specification:'Triplicate T4c, Normal';text-align:start" letter-spacing="0" word-spacing="0" font-family="Triplicate T4c"/><path fill="#404030" d="M333.96 120.42q0-.83-.48-1.28-.48-.47-1.18-.47-.4 0-.77.14t-.54.5v.74q0 .4-.3.58-.25.16-.5.16-.65 0-.65-.56 0-.42.22-.83.23-.4.63-.73.42-.32.97-.5.56-.2 1.2-.2.5 0 1 .15.5.16.9.48.4.3.64.8.24.46.24 1.1 0 .47-.3 1.05-.3.6-.78 1.2-.45.6-1.02 1.2-.56.6-1.1 1.1-.52.48-.95.85-.45.35-.65.5l.1.2h3.3q.46 0 .65-.13.2-.15.32-.3.05-.07.22-.07.18 0 .35.05.2.04.3.13.12.07.1.17l-.4.92q-.1.2-.2.24-.1.04-.3.04h-5.5q-.1 0-.18-.13-.08-.13-.12-.3-.05-.18-.05-.34 0-.16.06-.2.86-.7 1.7-1.5.86-.78 1.54-1.6.7-.8 1.1-1.6.44-.8.44-1.5z" style="line-height:125%;-inkscape-font-specification:'Triplicate T4c, Normal';text-align:start" letter-spacing="0" word-spacing="0" font-family="Triplicate T4c"/><path fill="#404030" d="M343.23 120.42q0-.83-.5-1.28-.47-.47-1.16-.47-.4 0-.78.14t-.55.5v.74q0 .4-.27.58-.26.16-.52.16-.65 0-.65-.56 0-.42.23-.83.23-.4.63-.73.42-.32.97-.5.56-.2 1.2-.2.5 0 1 .15.5.16.9.48.4.3.64.8.24.46.24 1.1 0 .47-.3 1.05-.3.6-.77 1.2-.47.6-1.04 1.2-.56.6-1.1 1.1-.53.48-.96.85-.43.35-.63.5l.1.2h3.3q.46 0 .65-.13.2-.15.32-.3.05-.07.22-.07.17 0 .34.05.2.04.3.13.14.07.1.17l-.4.92q-.1.2-.2.24-.1.04-.27.04h-5.53q-.1 0-.17-.13-.08-.13-.12-.3-.05-.18-.05-.34 0-.16.06-.2.84-.7 1.7-1.5.84-.78 1.52-1.6.7-.8 1.1-1.6.44-.8.44-1.5z" style="line-height:125%;-inkscape-font-specification:'Triplicate T4c, Normal';text-align:start" letter-spacing="0" word-spacing="0" font-family="Triplicate T4c"/><path fill="#404030" d="M43.41 59.76q.22 0 .36.1.13.14.13.33 0 .17-.15.3-.15.14-.35.14-.18 0-.32-.13t-.14-.3q0-.18.13-.3.14-.15.32-.15zm-.38 1.6h.8v3.8h-.8v-3.8z" style="line-height:125%;-inkscape-font-specification:'Gill Sans MT, Normal';text-align:start" letter-spacing="0" word-spacing="0" font-family="Gill Sans MT"/><path fill="#404030" d="M45.77 61.36v.48q.53-.56 1.22-.56.36 0 .7.2.3.17.5.5.15.3.15 1v2.2h-.8V63q0-.6-.2-.84-.2-.25-.63-.25-.57 0-.96.55v2.7h-.8v-3.8h.8z" style="line-height:125%;-inkscape-font-specification:'Gill Sans MT, Normal';text-align:start" letter-spacing="0" word-spacing="0" font-family="Gill Sans MT"/><path fill="#404030" d="M52.16 59.36h.8v5.8h-1.7q-.9 0-1.43-.52-.53-.54-.53-1.44 0-.84.56-1.4.56-.53 1.43-.53.4 0 .87.17v-2.06zm0 5.17V62.1q-.36-.17-.74-.17-.6 0-.96.37-.35.37-.35 1 0 .58.3.9.2.2.4.26.2.07.75.07h.6z" style="line-height:125%;-inkscape-font-specification:'Gill Sans MT, Normal';text-align:start" letter-spacing="0" word-spacing="0" font-family="Gill Sans MT"/><path fill="#404030" d="M57.5 63.33h-2.83q.03.55.4.87.35.33.9.33.8 0 1.47-.47v.74q-.37.23-.73.33-.35.1-.84.1-.68 0-1.1-.26-.4-.25-.65-.7-.24-.44-.24-1.02 0-.87.52-1.4.53-.56 1.36-.56.8 0 1.28.52.48.53.48 1.42v.1zm-2.8-.45h2q0-.46-.26-.7-.26-.25-.7-.25-.43 0-.7.25-.28.24-.36.7z" style="line-height:125%;-inkscape-font-specification:'Gill Sans MT, Normal';text-align:start" letter-spacing="0" word-spacing="0" font-family="Gill Sans MT"/><path fill="#404030" d="M61.16 61.36h1.03l-1.7 1.87 1.82 1.94h-1.05l-1.26-1.36-1.18 1.38h-1l1.7-1.93-1.7-1.88h1l1.2 1.3 1.15-1.3z" style="line-height:125%;-inkscape-font-specification:'Gill Sans MT, Normal';text-align:start" letter-spacing="0" word-spacing="0" font-family="Gill Sans MT"/><path fill="#404030" d="M63.28 64.26q.22 0 .38.13.17.14.17.35 0 .2-.17.34-.14.13-.37.13-.25 0-.4-.14-.15-.15-.15-.36 0-.22.14-.37.14-.14.37-.14z" style="line-height:125%;-inkscape-font-specification:'Gill Sans MT, Normal';text-align:start" letter-spacing="0" word-spacing="0" font-family="Gill Sans MT"/><path fill="#404030" d="M64.83 59.36h.8v2.5q.5-.58 1.24-.58.4 0 .72.2.32.18.47.52.16.33.16 1v2.17h-.8v-2.35q0-.42-.23-.67-.22-.26-.57-.26-.26 0-.5.12-.22.13-.5.43v2.73h-.8v-5.8z" style="line-height:125%;-inkscape-font-specification:'Gill Sans MT, Normal';text-align:start" letter-spacing="0" word-spacing="0" font-family="Gill Sans MT"/><path fill="#404030" d="M68.77 61.96l1.5-1.4v.8h1.3v.67h-1.3v1.88q0 .66.6.66.4 0 .9-.27v.7q-.46.24-1 .24-.56 0-.92-.3-.12-.1-.2-.2-.08-.12-.13-.3-.05-.2-.05-.7v-1.7h-.7v-.08z" style="line-height:125%;-inkscape-font-specification:'Gill Sans MT, Normal';text-align:start" letter-spacing="0" word-spacing="0" font-family="Gill Sans MT"/><path fill="#404030" d="M75.67 62.4v2.77h-.8v-2.1q0-.65-.2-.9-.17-.25-.62-.25-.25 0-.46.1-.2.12-.48.4v2.76h-.8v-3.8h.8v.5q.6-.58 1.2-.58.76 0 1.18.7.64-.7 1.34-.7.6 0 .97.4.4.4.4 1.24v2.25h-.8v-2.26q0-.48-.2-.73-.2-.24-.6-.24-.5 0-.93.47z" style="line-height:125%;-inkscape-font-specification:'Gill Sans MT, Normal';text-align:start" letter-spacing="0" word-spacing="0" font-family="Gill Sans MT"/><path fill="#404030" d="M79.3 59.36h.8v5.8h-.8v-5.8z" style="line-height:125%;-inkscape-font-specification:'Gill Sans MT, Normal';text-align:start" letter-spacing="0" word-spacing="0" font-family="Gill Sans MT"/><path fill="#404030" d="M86.3 62.88v1.62q0 .2.14.2.15 0 .46-.2v.45q-.3.16-.45.22-.18.06-.36.06-.5 0-.6-.38-.5.37-1.1.37-.4 0-.7-.26-.27-.26-.27-.65 0-.36.27-.64.28-.28.78-.45l1.03-.32v-.2q0-.7-.72-.7-.66 0-1.28.64v-.82q.47-.52 1.34-.52.66 0 1.05.32.1.1.22.28.1.17.13.35.03.17.03.65zm-.78 1.54v-1.14l-.54.2q-.4.15-.58.3-.17.16-.17.4 0 .23.16.38.15.15.4.15.4 0 .72-.3z" style="line-height:125%;-inkscape-font-specification:'Gill Sans MT, Normal';text-align:start" letter-spacing="0" word-spacing="0" font-family="Gill Sans MT"/><path fill="#404030" d="M90.3 59.36h.8v5.8h-1.7q-.9 0-1.44-.52-.52-.54-.52-1.44 0-.84.56-1.4.56-.53 1.43-.53.4 0 .88.17v-2.06zm0 5.17V62.1q-.36-.17-.75-.17-.6 0-.95.37t-.35 1q0 .58.3.9.2.2.4.26.2.07.74.07h.6z" style="line-height:125%;-inkscape-font-specification:'Gill Sans MT, Normal';text-align:start" letter-spacing="0" word-spacing="0" font-family="Gill Sans MT"/><path fill="#404030" d="M94.81 59.36h.82v5.8h-1.7q-.9 0-1.45-.52-.52-.54-.52-1.44 0-.84.56-1.4.58-.53 1.45-.53.4 0 .88.17v-2.06zm.02 5.17V62.1q-.37-.17-.76-.17-.6 0-.97.37-.35.37-.35 1 0 .58.3.9.18.2.4.26.2.07.73.07h.62z" style="line-height:125%;-inkscape-font-specification:'Gill Sans MT, Normal';text-align:start" letter-spacing="0" word-spacing="0" font-family="Gill Sans MT"/><path fill="#404030" d="M100.17 63.33h-2.85q.03.55.4.87.35.33.9.33.8 0 1.47-.47v.74q-.38.23-.74.33-.37.1-.86.1-.67 0-1.08-.26-.4-.25-.66-.7-.25-.44-.25-1.02 0-.87.53-1.4.53-.56 1.36-.56.8 0 1.3.52.45.53.45 1.42v.1zm-2.83-.45h2.03q-.03-.46-.28-.7-.27-.25-.7-.25-.44 0-.72.25-.27.24-.35.7z" style="line-height:125%;-inkscape-font-specification:'Gill Sans MT, Normal';text-align:start" letter-spacing="0" word-spacing="0" font-family="Gill Sans MT"/><path fill="#404030" d="M103.72 59.36h.8v5.8h-1.7q-.9 0-1.43-.52-.56-.54-.56-1.44 0-.84.56-1.4.57-.53 1.44-.53.4 0 .87.17v-2.06zm0 5.17V62.1q-.37-.17-.75-.17-.6 0-.96.37-.34.37-.34 1 0 .58.3.9.2.2.4.26.2.07.73.07h.6z" style="line-height:125%;-inkscape-font-specification:'Gill Sans MT, Normal';text-align:start" letter-spacing="0" word-spacing="0" font-family="Gill Sans MT"/><path fill="#404030" d="M42.8 75.53v-.8q.35.2.7.35.36.14.6.14.25 0 .43-.12.18-.1.18-.27t-.1-.28q-.1-.12-.5-.33-.78-.4-1.03-.7-.23-.28-.23-.62 0-.44.36-.72.36-.28.93-.28.6 0 1.22.32v.74q-.7-.4-1.16-.4-.25 0-.4.1-.13.1-.13.25 0 .14.13.26t.45.3l.3.15q1 .54 1 1.2 0 .47-.4.77-.38.3-1 .3-.35 0-.63-.06t-.7-.26z" style="line-height:125%;-inkscape-font-specification:'Gill Sans MT, Normal';text-align:start" letter-spacing="0" word-spacing="0" font-family="Gill Sans MT"/><path fill="#404030" d="M45.9 72.6l1.5-1.4v.8h1.3l-.02.67h-1.27v1.88q0 .66.58.66.45 0 .92-.27v.7q-.46.25-1 .25-.55 0-.92-.3-.1-.08-.2-.2-.07-.1-.1-.3-.07-.18-.07-.7v-1.7h-.7v-.07z" style="line-height:125%;-inkscape-font-specification:'Gill Sans MT, Normal';text-align:start" letter-spacing="0" word-spacing="0" font-family="Gill Sans MT"/><path fill="#404030" d="M51.95 72h.9l-2.87 5.75h-.9l1.4-2.77-1.57-3h.9l1.1 2.15 1.05-2.15z" style="line-height:125%;-inkscape-font-specification:'Gill Sans MT, Normal';text-align:start" letter-spacing="0" word-spacing="0" font-family="Gill Sans MT"/><path fill="#404030" d="M53.42 70h.8v5.8h-.8V70z" style="line-height:125%;-inkscape-font-specification:'Gill Sans MT, Normal';text-align:start" letter-spacing="0" word-spacing="0" font-family="Gill Sans MT"/><path fill="#404030" d="M58.83 73.96h-2.84q0 .55.36.87.38.33.94.33.8 0 1.46-.47v.73q-.38.23-.74.33-.37.1-.86.1-.65 0-1.06-.26-.43-.26-.68-.7-.24-.44-.24-1.03 0-.86.52-1.4.52-.55 1.36-.55.8 0 1.28.53t.48 1.43v.1zM56 73.5h2.04q-.03-.44-.3-.7-.24-.23-.67-.23-.43 0-.7.25-.28.25-.36.7z" style="line-height:125%;-inkscape-font-specification:'Gill Sans MT, Normal';text-align:start" letter-spacing="0" word-spacing="0" font-family="Gill Sans MT"/><path fill="#404030" d="M60.27 74.88q.23 0 .4.15.14.14.14.35.02.2-.14.35-.16.14-.4.14-.2 0-.37-.13-.16-.14-.16-.35 0-.2.15-.36.15-.15.37-.15z" style="line-height:125%;-inkscape-font-specification:'Gill Sans MT, Normal';text-align:start" letter-spacing="0" word-spacing="0" font-family="Gill Sans MT"/><path fill="#404030" d="M64.86 74.9v.76q-.6.2-1.18.2-.95 0-1.5-.52-.58-.53-.58-1.42 0-.9.55-1.46.54-.55 1.44-.55.3 0 .55.07.25.06.6.22v.8q-.6-.37-1.1-.37-.55 0-.9.36-.35.34-.35.9 0 .6.38.93.37.35 1 .35.47 0 1.07-.25z" style="line-height:125%;-inkscape-font-specification:'Gill Sans MT, Normal';text-align:start" letter-spacing="0" word-spacing="0" font-family="Gill Sans MT"/><path fill="#404030" d="M65.56 75.53v-.8q.35.2.7.35.35.14.6.14t.43-.12q.18-.1.18-.27t-.1-.28q-.13-.12-.5-.33-.8-.4-1.03-.7-.24-.28-.24-.62 0-.44.38-.72.36-.28.93-.28.6 0 1.23.32v.74q-.7-.4-1.17-.4-.23 0-.37.1-.14.1-.14.25 0 .14.12.26t.45.3l.3.15q1 .54 1 1.2 0 .47-.4.77-.38.3-1 .3-.35 0-.63-.06-.3-.06-.7-.26z" style="line-height:125%;-inkscape-font-specification:'Gill Sans MT, Normal';text-align:start" letter-spacing="0" word-spacing="0" font-family="Gill Sans MT"/><path fill="#404030" d="M69.03 75.53v-.8q.34.2.7.35.35.14.6.14.24 0 .42-.12.17-.1.17-.27t-.12-.28q-.1-.12-.5-.33-.77-.4-1-.7-.25-.28-.25-.62 0-.44.36-.72.37-.28.94-.28.6 0 1.2.32v.74q-.7-.4-1.15-.4-.25 0-.4.1-.12.1-.12.25 0 .14.13.26t.45.3l.3.15q1 .54 1 1.2 0 .47-.38.77-.4.3-1 .3-.36 0-.64-.06t-.7-.26z" style="line-height:125%;-inkscape-font-specification:'Gill Sans MT, Normal';text-align:start" letter-spacing="0" word-spacing="0" font-family="Gill Sans MT"/><path fill="#404030" d="M77.73 73.5v1.63q0 .2.14.2.16 0 .46-.2v.46q-.27.15-.44.2-.17.07-.35.07-.5 0-.6-.37-.52.37-1.1.37-.4 0-.7-.26-.28-.25-.28-.65 0-.36.28-.65.27-.28.78-.45l1.02-.33v-.2q0-.7-.73-.7-.65 0-1.27.65v-.83q.46-.52 1.34-.52.65 0 1.05.32.13.1.24.28.08.17.12.35.03.17.03.65zm-.8 1.55V73.9l-.52.2q-.38.16-.56.3-.17.17-.17.4 0 .24.16.4.16.14.42.14.38 0 .7-.3z" style="line-height:125%;-inkscape-font-specification:'Gill Sans MT, Normal';text-align:start" letter-spacing="0" word-spacing="0" font-family="Gill Sans MT"/><path fill="#404030" d="M81.75 70h.8v5.8h-1.7q-.9 0-1.44-.53-.53-.53-.53-1.43 0-.84.57-1.38.56-.56 1.43-.56.4 0 .88.16V70zm0 5.16v-2.42q-.38-.18-.76-.18-.62 0-.97.37t-.35 1q0 .58.3.9.2.2.4.26t.75.06h.62z" style="line-height:125%;-inkscape-font-specification:'Gill Sans MT, Normal';text-align:start" letter-spacing="0" word-spacing="0" font-family="Gill Sans MT"/><path fill="#404030" d="M86.27 70h.8v5.8h-1.72q-.9 0-1.43-.53-.54-.53-.54-1.43 0-.84.56-1.38.56-.56 1.43-.56.4 0 .9.16V70zm0 5.16v-2.42q-.4-.18-.77-.18-.6 0-.95.37t-.35 1q0 .58.3.9.2.2.4.26t.74.06h.62z" style="line-height:125%;-inkscape-font-specification:'Gill Sans MT, Normal';text-align:start" letter-spacing="0" word-spacing="0" font-family="Gill Sans MT"/><path fill="#404030" d="M91.6 73.96h-2.84q0 .55.37.87.36.33.92.33.8 0 1.46-.47v.73q-.36.23-.72.33t-.85.1q-.67 0-1.08-.26-.4-.26-.67-.7-.24-.44-.24-1.03 0-.86.5-1.4.53-.55 1.37-.55.82 0 1.3.53.48.53.48 1.43v.1zm-2.82-.45h2.04q-.03-.44-.28-.7-.26-.23-.7-.23-.42 0-.7.25-.27.25-.35.7z" style="line-height:125%;-inkscape-font-specification:'Gill Sans MT, Normal';text-align:start" letter-spacing="0" word-spacing="0" font-family="Gill Sans MT"/><path fill="#404030" d="M95.17 70h.8v5.8h-1.7q-.9 0-1.45-.53-.53-.53-.53-1.43-.02-.84.54-1.38.56-.56 1.43-.56.43 0 .9.16V70zm0 5.16v-2.42q-.38-.18-.76-.18-.6 0-.96.37-.34.37-.34 1 0 .58.3.9.2.2.4.26t.74.06h.62z" style="line-height:125%;-inkscape-font-specification:'Gill Sans MT, Normal';text-align:start" letter-spacing="0" word-spacing="0" font-family="Gill Sans MT"/><path fill="#404030" d="M43.02 80.64h.8v5.8h-.8v-5.8z" style="line-height:125%;-inkscape-font-specification:'Gill Sans MT, Normal';text-align:start" letter-spacing="0" word-spacing="0" font-family="Gill Sans MT"/><path fill="#404030" d="M46.9 82.6q.93 0 1.55.57.6.57.6 1.43 0 .82-.6 1.37-.64.54-1.58.54-.9 0-1.5-.54-.6-.56-.6-1.4-.02-.83.58-1.4.64-.55 1.57-.55zm-.03.7q-.58 0-.95.35-.38.34-.38.9 0 .55.4.9.37.34.96.34.6 0 .97-.36t.37-.9q0-.56-.4-.9-.4-.37-.98-.37z" style="line-height:125%;-inkscape-font-specification:'Gill Sans MT, Normal';text-align:start" letter-spacing="0" word-spacing="0" font-family="Gill Sans MT"/><path fill="#404030" d="M49.74 83.94q0-.6.47-.97.48-.34 1.3-.34h1.67v.6h-.8q.22.22.32.4.1.2.1.43 0 .3-.2.58-.18.3-.47.44-.28.15-.92.25-.45.06-.45.3 0 .12.17.2.17.1.62.18.74.17.95.26.2.08.4.24.27.28.27.7 0 .54-.52.86-.5.33-1.36.33-.88 0-1.4-.34-.5-.33-.5-.87 0-.8 1-1-.4-.26-.4-.5 0-.18.17-.33.17-.14.47-.2-.9-.4-.9-1.22zm1.5-.67q-.33 0-.55.22-.24.2-.24.5t.23.5q.2.17.55.17.34 0 .56-.2.24-.2.24-.5t-.24-.5q-.22-.2-.56-.2zm-.2 3.36q-.4 0-.65.16-.27.15-.27.4 0 .6 1.13.6.54 0 .83-.16.28-.14.28-.4 0-.28-.38-.45-.36-.17-.95-.17z" style="line-height:125%;-inkscape-font-specification:'Gill Sans MT, Normal';text-align:start" letter-spacing="0" word-spacing="0" font-family="Gill Sans MT"/><path fill="#404030" d="M55.66 82.6q.9 0 1.53.57.58.57.58 1.43 0 .82-.6 1.37-.62.54-1.56.54-.9 0-1.52-.54-.6-.56-.6-1.4 0-.83.6-1.4.62-.55 1.55-.55zm-.05.7q-.57 0-.94.35-.36.34-.36.9 0 .55.38.9.4.34.98.34.6 0 .96-.36.38-.36.38-.9 0-.56-.4-.9-.38-.37-.98-.37z" style="line-height:125%;-inkscape-font-specification:'Gill Sans MT, Normal';text-align:start" letter-spacing="0" word-spacing="0" font-family="Gill Sans MT"/><path fill="#404030" d="M58.84 85.5q.22 0 .38.16.17.14.17.35-.02.2-.18.36-.14.14-.37.14-.23 0-.4-.14-.14-.14-.14-.35.02-.2.17-.34.15-.15.37-.15z" style="line-height:125%;-inkscape-font-specification:'Gill Sans MT, Normal';text-align:start" letter-spacing="0" word-spacing="0" font-family="Gill Sans MT"/><path fill="#404030" d="M60.37 88.4V82.6h1.4q1.06 0 1.66.5.6.5.6 1.42 0 .86-.57 1.4-.56.56-1.43.56-.4 0-.86-.16v2.05h-.8zm1.38-5.08h-.57v2.35q.38.2.78.2.56 0 .92-.38t.36-.96q0-.37-.17-.66-.18-.28-.47-.4-.3-.14-.85-.14z" style="line-height:125%;-inkscape-font-specification:'Gill Sans MT, Normal';text-align:start" letter-spacing="0" word-spacing="0" font-family="Gill Sans MT"/><path fill="#404030" d="M65.7 82.62v.48q.54-.56 1.22-.56.38 0 .7.2.33.17.5.5.17.32.17 1v2.2h-.8v-2.18q0-.58-.2-.83-.18-.26-.62-.26-.57 0-.97.55l.02 2.73h-.8v-3.82h.8z" style="line-height:125%;-inkscape-font-specification:'Gill Sans MT, Normal';text-align:start" letter-spacing="0" word-spacing="0" font-family="Gill Sans MT"/><path fill="#404030" d="M69.2 83.94q0-.6.47-.97.48-.34 1.3-.34h1.67v.6h-.82q.25.22.34.4.1.2.1.43 0 .3-.2.58-.18.3-.46.44-.3.15-.93.25-.45.06-.45.3 0 .12.16.2.18.1.63.18.75.17.96.26.22.08.4.24.28.28.28.7 0 .54-.52.86-.5.33-1.36.33-.87 0-1.4-.34-.5-.33-.5-.87 0-.8 1-1-.4-.26-.4-.5 0-.18.18-.33.18-.14.47-.2-.9-.4-.9-1.22zm1.5-.67q-.32 0-.55.22-.24.2-.24.5.02.3.24.5.23.17.57.17.34 0 .56-.2.24-.2.24-.5t-.23-.5q-.22-.2-.56-.2zm-.2 3.36q-.4 0-.65.16-.27.15-.27.4 0 .6 1.13.6.54 0 .83-.16.3-.14.3-.4 0-.28-.37-.45-.36-.17-.95-.17z" style="line-height:125%;-inkscape-font-specification:'Gill Sans MT, Normal';text-align:start" letter-spacing="0" word-spacing="0" font-family="Gill Sans MT"/><path fill="#404030" d="M78.3 84.14v1.63q0 .2.14.2.15 0 .46-.2v.46q-.3.16-.45.22-.18.06-.36.06-.5 0-.6-.37-.5.38-1.1.38-.4 0-.7-.26-.27-.26-.27-.66 0-.35.27-.63.28-.3.78-.46l1.03-.33v-.2q0-.7-.72-.7-.66 0-1.28.65v-.83q.47-.53 1.34-.53.66 0 1.05.33.1.1.22.28.1.18.13.35.03.17.03.65zm-.78 1.54v-1.13l-.54.18q-.4.16-.58.32-.17.15-.17.38 0 .24.16.4.15.14.4.14.4 0 .72-.3z" style="line-height:125%;-inkscape-font-specification:'Gill Sans MT, Normal';text-align:start" letter-spacing="0" word-spacing="0" font-family="Gill Sans MT"/><path fill="#404030" d="M82.3 80.64h.8v5.8h-1.7q-.9 0-1.44-.54-.52-.53-.52-1.43 0-.84.56-1.38.56-.56 1.43-.56.4 0 .88.17v-2.05zm0 5.15v-2.43q-.36-.17-.74-.17-.6 0-.97.37-.36.37-.36 1 0 .6.3.9.2.2.4.26.2.07.74.07h.62z" style="line-height:125%;-inkscape-font-specification:'Gill Sans MT, Normal';text-align:start" letter-spacing="0" word-spacing="0" font-family="Gill Sans MT"/><path fill="#404030" d="M86.81 80.64h.82v5.8h-1.7q-.9 0-1.45-.54-.52-.53-.52-1.43 0-.84.56-1.38.58-.56 1.45-.56.4 0 .88.17v-2.05zm.02 5.15v-2.43q-.37-.17-.76-.17-.6 0-.97.37-.35.37-.35 1 0 .6.3.9.18.2.4.26.2.07.73.07h.62z" style="line-height:125%;-inkscape-font-specification:'Gill Sans MT, Normal';text-align:start" letter-spacing="0" word-spacing="0" font-family="Gill Sans MT"/><path fill="#404030" d="M92.17 84.6h-2.85q.03.54.4.87.35.33.92.33.8 0 1.45-.46v.73q-.37.24-.74.34-.37.1-.86.1-.67 0-1.08-.26-.4-.26-.66-.7-.25-.44-.25-1.02 0-.88.53-1.42.53-.55 1.36-.55.8 0 1.3.53.46.55.46 1.44v.1zm-2.83-.46h2.03q-.03-.45-.28-.7-.27-.24-.7-.24-.44 0-.72.24-.27.25-.35.7z" style="line-height:125%;-inkscape-font-specification:'Gill Sans MT, Normal';text-align:start" letter-spacing="0" word-spacing="0" font-family="Gill Sans MT"/><path fill="#404030" d="M95.72 80.64h.8v5.8h-1.7q-.9 0-1.44-.54-.53-.53-.53-1.43 0-.84.54-1.38.56-.56 1.43-.56.4 0 .88.17v-2.05zm0 5.15v-2.43q-.38-.17-.76-.17-.6 0-.95.37t-.35 1q0 .6.3.9.2.2.4.26.2.07.74.07h.6z" style="line-height:125%;-inkscape-font-specification:'Gill Sans MT, Normal';text-align:start" letter-spacing="0" word-spacing="0" font-family="Gill Sans MT"/><rect width="74" height="39.5" x="36.665" y="54.372" fill="none" stroke="#ddd" rx="1.401" ry="1.401" stroke-linecap="round" stroke-linejoin="round"/><path fill="#404030" d="M119.5 59.5q.2 0 .34.12.14.13.14.32 0 .18-.14.32-.14.13-.34.13t-.33-.14q-.13-.14-.13-.32 0-.17.14-.3.15-.14.34-.14zm-.4 1.6h.8v3.82h-.8V61.1z" style="line-height:125%;-inkscape-font-specification:'Gill Sans MT, Normal';text-align:start" letter-spacing="0" word-spacing="0" font-family="Gill Sans MT"/><path fill="#404030" d="M121.86 61.1v.5q.53-.57 1.2-.57.4 0 .7.2.34.17.5.5.18.3.18 1v2.2h-.8v-2.18q0-.6-.2-.85-.17-.25-.6-.25-.6 0-1 .54l.02 2.7h-.82v-3.8h.8z" style="line-height:125%;-inkscape-font-specification:'Gill Sans MT, Normal';text-align:start" letter-spacing="0" word-spacing="0" font-family="Gill Sans MT"/><path fill="#404030" d="M128.26 59.12h.8v5.8h-1.7q-.9 0-1.44-.53-.54-.55-.54-1.45 0-.85.56-1.4.56-.54 1.43-.54.42 0 .9.17V59.1zm0 5.16v-2.43q-.38-.18-.76-.18-.6 0-.96.37-.35.36-.35.98 0 .6.3.9.2.2.4.27.2.06.73.06h.62z" style="line-height:125%;-inkscape-font-specification:'Gill Sans MT, Normal';text-align:start" letter-spacing="0" word-spacing="0" font-family="Gill Sans MT"/><path fill="#404030" d="M133.6 63.08h-2.84q.02.55.37.87.36.32.93.32.8 0 1.46-.47v.74q-.37.22-.74.32-.36.1-.84.1-.67 0-1.08-.26-.43-.26-.68-.7-.24-.45-.24-1.03 0-.87.5-1.4.53-.56 1.37-.56.8 0 1.3.54.48.53.48 1.42v.1zm-2.83-.45h2.03q-.03-.46-.3-.7-.24-.25-.67-.25-.43 0-.7.25-.28.24-.37.7z" style="line-height:125%;-inkscape-font-specification:'Gill Sans MT, Normal';text-align:start" letter-spacing="0" word-spacing="0" font-family="Gill Sans MT"/><path fill="#404030" d="M137.25 61.1h1.03l-1.66 1.88 1.78 1.94h-1.02l-1.27-1.37-1.2 1.36h-1l1.7-1.93-1.7-1.88h1l1.2 1.3 1.15-1.3z" style="line-height:125%;-inkscape-font-specification:'Gill Sans MT, Normal';text-align:start" letter-spacing="0" word-spacing="0" font-family="Gill Sans MT"/><path fill="#404030" d="M139.37 64q.23 0 .4.14.15.15.15.36 0 .2-.16.35-.17.13-.4.13-.22 0-.37-.14-.17-.15-.17-.36 0-.2.16-.36.14-.14.36-.14z" style="line-height:125%;-inkscape-font-specification:'Gill Sans MT, Normal';text-align:start" letter-spacing="0" word-spacing="0" font-family="Gill Sans MT"/><path fill="#404030" d="M140.9 59.12h.8v2.5q.5-.6 1.26-.6.4 0 .7.2.33.2.5.53.14.32.14 1v2.16h-.8v-2.35q0-.42-.2-.67-.24-.26-.6-.26-.25 0-.48.13-.24.13-.52.43v2.73h-.8v-5.8z" style="line-height:125%;-inkscape-font-specification:'Gill Sans MT, Normal';text-align:start" letter-spacing="0" word-spacing="0" font-family="Gill Sans MT"/><path fill="#404030" d="M144.87 61.7l1.5-1.4v.8h1.28v.68h-1.28v1.88q0 .65.57.65.43 0 .9-.26v.7q-.45.25-1 .25-.54 0-.9-.3-.12-.1-.2-.2-.07-.13-.12-.3-.05-.2-.05-.7v-1.7h-.7v-.1z" style="line-height:125%;-inkscape-font-specification:'Gill Sans MT, Normal';text-align:start" letter-spacing="0" word-spacing="0" font-family="Gill Sans MT"/><path fill="#404030" d="M151.75 62.16v2.76h-.8V62.8q0-.64-.18-.9-.2-.24-.64-.24-.25 0-.46.1-.2.12-.47.4v2.76h-.8V61.1h.8v.5q.6-.57 1.2-.57.77 0 1.2.7.63-.7 1.33-.7.6 0 .97.4.38.4.38 1.24v2.26h-.8v-2.26q0-.48-.2-.73t-.6-.25q-.5 0-.92.46z" style="line-height:125%;-inkscape-font-specification:'Gill Sans MT, Normal';text-align:start" letter-spacing="0" word-spacing="0" font-family="Gill Sans MT"/><path fill="#404030" d="M155.4 59.12h.8v5.8h-.8v-5.8z" style="line-height:125%;-inkscape-font-specification:'Gill Sans MT, Normal';text-align:start" letter-spacing="0" word-spacing="0" font-family="Gill Sans MT"/><path fill="#404030" d="M162.87 64.03v.75q-.6.2-1.17.2-.95 0-1.5-.52-.58-.53-.58-1.43 0-.9.55-1.45.55-.55 1.45-.55.3 0 .56.06.26.04.62.2v.8q-.6-.37-1.12-.37-.54 0-.9.37-.34.35-.34.9 0 .6.38.94.37.34 1 .34.47 0 1.07-.25z" style="line-height:125%;-inkscape-font-specification:'Gill Sans MT, Normal';text-align:start" letter-spacing="0" word-spacing="0" font-family="Gill Sans MT"/><path fill="#404030" d="M163.76 59.12h.8v2.5q.5-.6 1.24-.6.4 0 .73.2.32.2.47.53.16.32.16 1v2.16h-.8v-2.35q0-.42-.22-.67-.22-.26-.57-.26-.25 0-.5.13-.22.13-.5.43v2.73h-.8v-5.8z" style="line-height:125%;-inkscape-font-specification:'Gill Sans MT, Normal';text-align:start" letter-spacing="0" word-spacing="0" font-family="Gill Sans MT"/><path fill="#404030" d="M170.82 62.63v1.62q0 .2.14.2t.45-.22v.46q-.26.16-.43.22-.15.06-.33.06-.52 0-.6-.38-.52.37-1.1.37-.42 0-.7-.26-.28-.26-.28-.65 0-.37.26-.65.28-.28.8-.45l1-.33v-.2q0-.7-.72-.7-.65 0-1.27.64v-.8q.46-.53 1.34-.53.66 0 1.06.32.13.1.23.27t.13.35q.02.17.02.65zm-.8 1.54v-1.13l-.53.2q-.4.15-.6.3-.15.16-.15.4 0 .23.14.38.16.15.4.15.4 0 .7-.3z" style="line-height:125%;-inkscape-font-specification:'Gill Sans MT, Normal';text-align:start" letter-spacing="0" word-spacing="0" font-family="Gill Sans MT"/><path fill="#404030" d="M172.94 61.1v.5q.53-.57 1.2-.57.4 0 .72.2.3.17.47.5.17.3.17 1v2.2h-.8v-2.18q0-.6-.2-.85-.18-.25-.62-.25-.57 0-.96.54v2.7h-.82v-3.8h.82z" style="line-height:125%;-inkscape-font-specification:'Gill Sans MT, Normal';text-align:start" letter-spacing="0" word-spacing="0" font-family="Gill Sans MT"/><path fill="#404030" d="M176.43 62.42q0-.6.47-.96.48-.36 1.3-.36h1.66v.6h-.83q.24.22.33.4.1.2.1.44 0 .3-.2.6-.17.27-.45.43-.27.16-.92.25-.45.06-.45.3 0 .13.16.22.17.08.6.17.75.16.96.25.22.1.4.25.28.27.28.7 0 .53-.5.86-.52.3-1.38.3-.87 0-1.4-.32-.5-.32-.5-.87 0-.76 1.02-1-.4-.23-.4-.48 0-.2.16-.34.18-.16.47-.23-.9-.37-.9-1.2zm1.5-.66q-.32 0-.55.2-.22.2-.22.5t.23.5q.2.2.55.2.34 0 .57-.2.22-.2.22-.5t-.22-.5q-.23-.2-.58-.2zm-.2 3.34q-.4 0-.65.16-.24.17-.24.42 0 .6 1.12.6.53 0 .82-.16.3-.15.3-.42 0-.26-.37-.43-.36-.16-.95-.16z" style="line-height:125%;-inkscape-font-specification:'Gill Sans MT, Normal';text-align:start" letter-spacing="0" word-spacing="0" font-family="Gill Sans MT"/><path fill="#404030" d="M183.93 63.08h-2.84q.02.55.4.87.34.32.9.32.8 0 1.46-.47v.74q-.38.22-.74.32t-.85.1q-.66 0-1.07-.26-.4-.26-.66-.7-.25-.45-.25-1.03 0-.87.5-1.4.54-.56 1.37-.56.8 0 1.28.54.48.53.48 1.42v.1zm-2.82-.45h2.04q-.03-.46-.28-.7-.27-.25-.7-.25-.43 0-.7.25-.28.24-.36.7z" style="line-height:125%;-inkscape-font-specification:'Gill Sans MT, Normal';text-align:start" letter-spacing="0" word-spacing="0" font-family="Gill Sans MT"/><path fill="#404030" d="M187.5 59.12h.8v5.8h-1.7q-.9 0-1.44-.53-.55-.55-.55-1.45 0-.85.57-1.4.57-.54 1.44-.54.4 0 .9.17V59.1zm0 5.16v-2.43q-.38-.18-.76-.18-.6 0-.96.37-.34.36-.34.98 0 .6.3.9.2.2.4.27.2.06.74.06h.62z" style="line-height:125%;-inkscape-font-specification:'Gill Sans MT, Normal';text-align:start" letter-spacing="0" word-spacing="0" font-family="Gill Sans MT"/><rect width="74" height="17" x="116.665" y="54.122" fill="none" stroke="#ddd" rx="1.401" ry="1.401" stroke-linecap="round" stroke-linejoin="round"/><path fill="#404030" d="M279.96 140.16q.85 0 1.4.83.55.82.55 2.1 0 1.33-.54 2.16-.55.83-1.43.83-.9 0-1.43-.8-.54-.83-.54-2.17 0-1.32.55-2.15.57-.83 1.46-.83zm0 .78h-.03q-.5 0-.8.6-.3.58-.3 1.58 0 1.03.3 1.62.28.58.8.58.5 0 .8-.58.3-.6.3-1.6t-.3-1.6q-.28-.6-.76-.6z" style="line-height:125%;-inkscape-font-specification:'Gill Sans MT, Normal';text-align:start" letter-spacing="0" word-spacing="0" font-family="Gill Sans MT"/><path fill="#404030" d="M284 140.23h.88v5.8H284v-5.8z" style="line-height:125%;-inkscape-font-specification:'Gill Sans MT, Normal';text-align:start" letter-spacing="0" word-spacing="0" font-family="Gill Sans MT"/><path fill="#404030" d="M287.05 143.74h2.2v.8h-2.2v-.8z" style="line-height:125%;-inkscape-font-specification:'Gill Sans MT, Normal';text-align:start" letter-spacing="0" word-spacing="0" font-family="Gill Sans MT"/><path fill="#404030" d="M290.58 140.6q.2 0 .34.13t.14.3q0 .2-.14.33t-.34.13q-.2 0-.33-.14-.15-.14-.15-.32 0-.17.14-.3.13-.14.32-.14zm-.4 1.6h.8v3.83h-.8v-3.82z" style="line-height:125%;-inkscape-font-specification:'Gill Sans MT, Normal';text-align:start" letter-spacing="0" word-spacing="0" font-family="Gill Sans MT"/><path fill="#404030" d="M292.94 142.2v.5q.54-.57 1.22-.57.37 0 .7.2.32.17.5.5.16.32.16 1v2.2h-.8v-2.18q0-.6-.2-.84-.18-.25-.62-.25-.57 0-.97.54V146h-.8v-3.82h.8z" style="line-height:125%;-inkscape-font-specification:'Gill Sans MT, Normal';text-align:start" letter-spacing="0" word-spacing="0" font-family="Gill Sans MT"/><path fill="#404030" d="M296.06 142.8l1.5-1.4v.8h1.3v.7h-1.3v1.86q0 .66.6.66.42 0 .9-.28v.7q-.46.25-1 .25-.56 0-.92-.3-.12-.1-.2-.2-.07-.13-.12-.3-.05-.2-.05-.7v-1.7h-.7v-.1z" style="line-height:125%;-inkscape-font-specification:'Gill Sans MT, Normal';text-align:start" letter-spacing="0" word-spacing="0" font-family="Gill Sans MT"/><path fill="#404030" d="M300.5 142.2v.88l.04-.06q.58-.9 1.16-.9.47 0 .96.44l-.43.67q-.42-.38-.78-.38-.4 0-.68.34t-.28.82v2h-.8v-3.82h.8z" style="line-height:125%;-inkscape-font-specification:'Gill Sans MT, Normal';text-align:start" letter-spacing="0" word-spacing="0" font-family="Gill Sans MT"/><path fill="#404030" d="M304.93 142.2q.93 0 1.54.56.6.56.6 1.42 0 .82-.6 1.37-.63.53-1.57.53-.9 0-1.52-.55-.6-.56-.6-1.4 0-.82.6-1.38.63-.56 1.56-.56zm-.04.68q-.6 0-.95.36-.37.35-.37.9t.38.9q.38.35.98.35.58 0 .96-.36.38-.35.38-.9t-.4-.9q-.4-.36-.98-.36z" style="line-height:125%;-inkscape-font-specification:'Gill Sans MT, Normal';text-align:start" letter-spacing="0" word-spacing="0" font-family="Gill Sans MT"/><path fill="#404030" d="M308.13 145.1q.22 0 .38.15.16.13.16.34 0 .2-.16.34-.16.13-.38.13-.23 0-.38-.14-.16-.15-.16-.36 0-.2.16-.35.15-.16.38-.16z" style="line-height:125%;-inkscape-font-specification:'Gill Sans MT, Normal';text-align:start" letter-spacing="0" word-spacing="0" font-family="Gill Sans MT"/><path fill="#404030" d="M309.67 140.23h.8v2.48q.5-.57 1.25-.57.4 0 .72.2.32.18.48.52.15.33.15 1v2.17h-.8v-2.37q0-.42-.22-.67-.2-.26-.57-.26-.25 0-.48.13-.24.13-.52.43v2.74h-.8v-5.8z" style="line-height:125%;-inkscape-font-specification:'Gill Sans MT, Normal';text-align:start" letter-spacing="0" word-spacing="0" font-family="Gill Sans MT"/><path fill="#404030" d="M313.6 142.8l1.5-1.4v.8h1.3l.02.7h-1.3v1.86q0 .66.58.66.43 0 .9-.28v.7q-.46.25-1 .25-.55 0-.9-.3-.12-.1-.2-.2-.07-.13-.12-.3-.04-.2-.04-.7v-1.7h-.7v-.1z" style="line-height:125%;-inkscape-font-specification:'Gill Sans MT, Normal';text-align:start" letter-spacing="0" word-spacing="0" font-family="Gill Sans MT"/><path fill="#404030" d="M320.5 143.26v2.77h-.8v-2.13q0-.63-.18-.88-.18-.26-.63-.26-.25 0-.46.1-.2.12-.48.4v2.77h-.8v-3.82h.8v.5q.6-.57 1.2-.57.75 0 1.17.7.64-.7 1.34-.7.6 0 .97.4t.37 1.24v2.27h-.8v-2.28q0-.47-.2-.73-.2-.25-.6-.25-.5 0-.92.47z" style="line-height:125%;-inkscape-font-specification:'Gill Sans MT, Normal';text-align:start" letter-spacing="0" word-spacing="0" font-family="Gill Sans MT"/><path fill="#404030" d="M324.17 140.23h.8v5.8h-.8v-5.8z" style="line-height:125%;-inkscape-font-specification:'Gill Sans MT, Normal';text-align:start" letter-spacing="0" word-spacing="0" font-family="Gill Sans MT"/><path fill="#404030" d="M331.14 143.73v1.62q0 .2.14.2t.45-.2v.45q-.27.16-.44.22-.17.06-.35.06-.53 0-.62-.38-.5.38-1.08.38-.43 0-.7-.27-.3-.25-.3-.65 0-.36.28-.64.28-.3.8-.45l1-.33v-.2q0-.7-.72-.7-.64 0-1.26.65v-.83q.45-.53 1.33-.53.65 0 1.05.34.13.1.23.27.12.18.15.36.03.17.03.65zm-.8 1.54v-1.12l-.53.2q-.4.15-.57.3-.16.16-.16.4 0 .23.17.38.16.15.4.15.4 0 .72-.3z" style="line-height:125%;-inkscape-font-specification:'Gill Sans MT, Normal';text-align:start" letter-spacing="0" word-spacing="0" font-family="Gill Sans MT"/><path fill="#404030" d="M335.17 140.23h.8v5.8h-1.72q-.9 0-1.43-.54-.53-.54-.53-1.45 0-.85.54-1.4.57-.54 1.44-.54.4 0 .9.18v-2.06zm0 5.15v-2.42q-.4-.18-.77-.18-.6 0-.95.37-.36.36-.36 1 0 .58.3.9.2.2.4.25.2.07.74.07h.62z" style="line-height:125%;-inkscape-font-specification:'Gill Sans MT, Normal';text-align:start" letter-spacing="0" word-spacing="0" font-family="Gill Sans MT"/><path fill="#404030" d="M339.67 140.23h.8v5.8h-1.7q-.9 0-1.44-.54-.53-.54-.53-1.45 0-.85.55-1.4.57-.54 1.44-.54.4 0 .87.18v-2.06zm0 5.15v-2.42q-.38-.18-.76-.18-.6 0-.94.37-.37.36-.37 1 0 .58.3.9.2.2.4.25.2.07.74.07h.62z" style="line-height:125%;-inkscape-font-specification:'Gill Sans MT, Normal';text-align:start" letter-spacing="0" word-spacing="0" font-family="Gill Sans MT"/><path fill="#404030" d="M345 144.18h-2.84q.03.55.38.88.36.32.93.32.8 0 1.47-.47v.75q-.36.23-.72.33t-.85.1q-.68 0-1.1-.27-.4-.25-.66-.7-.24-.43-.24-1 0-.9.52-1.43.52-.55 1.36-.55.8 0 1.28.53t.48 1.43v.1zm-2.83-.45h2.05q-.03-.45-.3-.7-.24-.24-.67-.24-.43 0-.7.23-.28.25-.37.7z" style="line-height:125%;-inkscape-font-specification:'Gill Sans MT, Normal';text-align:start" letter-spacing="0" word-spacing="0" font-family="Gill Sans MT"/><path fill="#404030" d="M348.56 140.23h.8v5.8h-1.7q-.9 0-1.44-.54-.53-.54-.53-1.45 0-.85.56-1.4.55-.54 1.42-.54.4 0 .88.18v-2.06zm0 5.15v-2.42q-.37-.18-.76-.18-.6 0-.95.37-.36.36-.36 1 0 .58.3.9.2.2.4.25.2.07.74.07h.62z" style="line-height:125%;-inkscape-font-specification:'Gill Sans MT, Normal';text-align:start" letter-spacing="0" word-spacing="0" font-family="Gill Sans MT"/><rect width="74" height="17" x="276.665" y="134.622" fill="none" stroke="#ddd" rx="1.401" ry="1.401" stroke-linecap="round" stroke-linejoin="round"/></g></svg>
