<svg xmlns="http://www.w3.org/2000/svg" width="1050" height="510" xmlns:xlink="http://www.w3.org/1999/xlink"><defs><linearGradient id="b"><stop offset="0" stop-color="#15af90"/><stop offset="1" stop-color="#1590af"/></linearGradient><marker orient="auto" overflow="visible"><path fill-rule="evenodd" stroke="#000" stroke-width=".8pt" d="M-4.62 0L2.3-4v8l-6.92-4z"/></marker><marker orient="auto" overflow="visible"><path fill="#c00000" fill-rule="evenodd" stroke="#c00000" stroke-width=".8pt" d="M-4.62 0L2.3-4v8l-6.92-4z"/></marker><marker orient="auto" overflow="visible"><path fill-rule="evenodd" stroke="#000" stroke-width=".688" d="M10.7 4.44L-1.34.02 10.7-4.4c-1.93 2.6-1.92 6.18 0 8.84z" stroke-linejoin="round"/></marker><marker orient="auto" overflow="visible"><path fill-rule="evenodd" stroke="#000" stroke-width=".4pt" d="M2.3 0l-3.45 2v-4L2.3 0z"/></marker><marker orient="auto" overflow="visible"><path fill="#f05133" fill-rule="evenodd" stroke="#f05133" stroke-width=".4pt" d="M2.3 0l-3.45 2v-4L2.3 0z"/></marker><marker orient="auto" overflow="visible"><path fill-rule="evenodd" stroke="#000" stroke-width=".4pt" d="M2.3 0l-3.45 2v-4L2.3 0z"/></marker><marker orient="auto" overflow="visible"><path fill="#404030" fill-rule="evenodd" stroke="#404030" stroke-width=".8pt" d="M4.62 0L-2.3 4v-8l6.92 4z"/></marker><marker orient="auto" overflow="visible"><path fill-rule="evenodd" stroke="#000" stroke-width=".375" d="M-5.23-2.42l6.55 2.4-6.55 2.42c1.05-1.42 1.04-3.37 0-4.82z" stroke-linejoin="round"/></marker><marker orient="auto" overflow="visible"><path fill="#4f81bd" fill-rule="evenodd" stroke="#4f81bd" stroke-width=".4pt" d="M2.3 0l-3.45 2v-4L2.3 0z"/></marker><marker orient="auto" overflow="visible"><path fill-rule="evenodd" stroke="#000" stroke-width=".8pt" d="M4.62 0L-2.3 4v-8l6.92 4z"/></marker><marker orient="auto" overflow="visible"><path fill-rule="evenodd" stroke="#000" stroke-width=".688" d="M10.7 4.44L-1.34.02 10.7-4.4c-1.93 2.6-1.92 6.18 0 8.84z" stroke-linejoin="round"/></marker><marker orient="auto" overflow="visible"><path fill-rule="evenodd" stroke="#000" stroke-width=".688" d="M-10.7-4.44L1.34-.02-10.7 4.4c1.93-2.6 1.92-6.18 0-8.84z" stroke-linejoin="round"/></marker><linearGradient><stop offset="0" stop-color="#4c4c4c"/><stop offset="1" stop-color="#656565"/></linearGradient><linearGradient><stop offset="0" stop-color="#4c4c4c"/><stop offset="1" stop-color="#656565"/></linearGradient><linearGradient><stop offset="0" stop-color="#4c4c4c"/><stop offset="1" stop-color="#656565"/></linearGradient><linearGradient><stop offset="0" stop-color="#4c4c4c"/><stop offset="1" stop-color="#656565"/></linearGradient><linearGradient><stop offset="0" stop-color="#4c4c4c"/><stop offset="1" stop-color="#656565"/></linearGradient><linearGradient><stop offset="0" stop-color="#4c4c4c"/><stop offset="1" stop-color="#656565"/></linearGradient><linearGradient><stop offset="0" stop-color="#4c4c4c"/><stop offset="1" stop-color="#656565"/></linearGradient><linearGradient><stop offset="0" stop-color="#4c4c4c"/><stop offset="1" stop-color="#656565"/></linearGradient><linearGradient><stop offset="0" stop-color="#4c4c4c"/><stop offset="1" stop-color="#656565"/></linearGradient><linearGradient><stop offset="0" stop-color="#4c4c4c"/><stop offset="1" stop-color="#656565"/></linearGradient><linearGradient><stop offset="0" stop-color="#4c4c4c"/><stop offset="1" stop-color="#656565"/></linearGradient><linearGradient><stop offset="0" stop-color="#4c4c4c"/><stop offset="1" stop-color="#656565"/></linearGradient><linearGradient><stop offset="0" stop-color="#4c4c4c"/><stop offset="1" stop-color="#656565"/></linearGradient><linearGradient><stop offset="0" stop-color="#4c4c4c"/><stop offset="1" stop-color="#656565"/></linearGradient><linearGradient><stop offset="0" stop-color="#4c4c4c"/><stop offset="1" stop-color="#656565"/></linearGradient><linearGradient><stop offset="0" stop-color="#4c4c4c"/><stop offset="1" stop-color="#656565"/></linearGradient><linearGradient><stop offset="0" stop-color="#4c4c4c"/><stop offset="1" stop-color="#656565"/></linearGradient><linearGradient><stop offset="0" stop-color="#4c4c4c"/><stop offset="1" stop-color="#656565"/></linearGradient><linearGradient><stop offset="0" stop-color="#4c4c4c"/><stop offset="1" stop-color="#656565"/></linearGradient><linearGradient><stop offset="0" stop-color="#4c4c4c"/><stop offset="1" stop-color="#656565"/></linearGradient><linearGradient><stop offset="0" stop-color="#4c4c4c"/><stop offset="1" stop-color="#656565"/></linearGradient><linearGradient><stop offset="0" stop-color="#4c4c4c"/><stop offset="1" stop-color="#656565"/></linearGradient><linearGradient><stop offset="0" stop-color="#4c4c4c"/><stop offset="1" stop-color="#656565"/></linearGradient><linearGradient><stop offset="0" stop-color="#4c4c4c"/><stop offset="1" stop-color="#656565"/></linearGradient><linearGradient><stop offset="0" stop-color="#4c4c4c"/><stop offset="1" stop-color="#656565"/></linearGradient><linearGradient><stop offset="0" stop-color="#4c4c4c"/><stop offset="1" stop-color="#656565"/></linearGradient><linearGradient><stop offset="0" stop-color="#4c4c4c"/><stop offset="1" stop-color="#656565"/></linearGradient><linearGradient><stop offset="0" stop-color="#4c4c4c"/><stop offset="1" stop-color="#656565"/></linearGradient><linearGradient><stop offset="0" stop-color="#4c4c4c"/><stop offset="1" stop-color="#656565"/></linearGradient><linearGradient><stop offset="0" stop-color="#4c4c4c"/><stop offset="1" stop-color="#656565"/></linearGradient><linearGradient><stop offset="0" stop-color="#4c4c4c"/><stop offset="1" stop-color="#656565"/></linearGradient><linearGradient><stop offset="0" stop-color="#4c4c4c"/><stop offset="1" stop-color="#656565"/></linearGradient><linearGradient><stop offset="0" stop-color="#4c4c4c"/><stop offset="1" stop-color="#656565"/></linearGradient><linearGradient><stop offset="0" stop-color="#4c4c4c"/><stop offset="1" stop-color="#656565"/></linearGradient><linearGradient><stop offset="0" stop-color="#4c4c4c"/><stop offset="1" stop-color="#656565"/></linearGradient><linearGradient><stop offset="0" stop-color="#4c4c4c"/><stop offset="1" stop-color="#656565"/></linearGradient><linearGradient><stop offset="0" stop-color="#4c4c4c"/><stop offset="1" stop-color="#656565"/></linearGradient><linearGradient><stop offset="0" stop-color="#4c4c4c"/><stop offset="1" stop-color="#656565"/></linearGradient><linearGradient><stop offset="0" stop-color="#4c4c4c"/><stop offset="1" stop-color="#656565"/></linearGradient><linearGradient><stop offset="0" stop-color="#4c4c4c"/><stop offset="1" stop-color="#656565"/></linearGradient><linearGradient><stop offset="0" stop-color="#4c4c4c"/><stop offset="1" stop-color="#656565"/></linearGradient><linearGradient><stop offset="0" stop-color="#4c4c4c"/><stop offset="1" stop-color="#656565"/></linearGradient><linearGradient><stop offset="0" stop-color="#4c4c4c"/><stop offset="1" stop-color="#656565"/></linearGradient><linearGradient><stop offset="0" stop-color="#4c4c4c"/><stop offset="1" stop-color="#656565"/></linearGradient><linearGradient><stop offset="0" stop-color="#4c4c4c"/><stop offset="1" stop-color="#656565"/></linearGradient><linearGradient><stop offset="0" stop-color="#4c4c4c"/><stop offset="1" stop-color="#656565"/></linearGradient><linearGradient><stop offset="0" stop-color="#4c4c4c"/><stop offset="1" stop-color="#656565"/></linearGradient><linearGradient><stop offset="0" stop-color="#4c4c4c"/><stop offset="1" stop-color="#656565"/></linearGradient><linearGradient><stop offset="0" stop-color="#4c4c4c"/><stop offset="1" stop-color="#656565"/></linearGradient><linearGradient><stop offset="0" stop-color="#4c4c4c"/><stop offset="1" stop-color="#656565"/></linearGradient><linearGradient><stop offset="0" stop-color="#4c4c4c"/><stop offset="1" stop-color="#656565"/></linearGradient><linearGradient><stop offset="0" stop-color="#4c4c4c"/><stop offset="1" stop-color="#656565"/></linearGradient><linearGradient><stop offset="0" stop-color="#4c4c4c"/><stop offset="1" stop-color="#656565"/></linearGradient><linearGradient><stop offset="0" stop-color="#4c4c4c"/><stop offset="1" stop-color="#656565"/></linearGradient><linearGradient><stop offset="0" stop-color="#4c4c4c"/><stop offset="1" stop-color="#656565"/></linearGradient><linearGradient><stop offset="0" stop-color="#4c4c4c"/><stop offset="1" stop-color="#656565"/></linearGradient><linearGradient><stop offset="0" stop-color="#4c4c4c"/><stop offset="1" stop-color="#656565"/></linearGradient><linearGradient><stop offset="0" stop-color="#4c4c4c"/><stop offset="1" stop-color="#656565"/></linearGradient><linearGradient><stop offset="0" stop-color="#4c4c4c"/><stop offset="1" stop-color="#656565"/></linearGradient><linearGradient><stop offset="0" stop-color="#4c4c4c"/><stop offset="1" stop-color="#656565"/></linearGradient><linearGradient><stop offset="0" stop-color="#4c4c4c"/><stop offset="1" stop-color="#656565"/></linearGradient><linearGradient><stop offset="0" stop-color="#4c4c4c"/><stop offset="1" stop-color="#656565"/></linearGradient><linearGradient><stop offset="0" stop-color="#4c4c4c"/><stop offset="1" stop-color="#656565"/></linearGradient><linearGradient><stop offset="0" stop-color="#4c4c4c"/><stop offset="1" stop-color="#656565"/></linearGradient><linearGradient><stop offset="0" stop-color="#4c4c4c"/><stop offset="1" stop-color="#656565"/></linearGradient><linearGradient><stop offset="0" stop-color="#4c4c4c"/><stop offset="1" stop-color="#656565"/></linearGradient><linearGradient><stop offset="0" stop-color="#4c4c4c"/><stop offset="1" stop-color="#656565"/></linearGradient><linearGradient><stop offset="0" stop-color="#4c4c4c"/><stop offset="1" stop-color="#656565"/></linearGradient><linearGradient><stop offset="0" stop-color="#4c4c4c"/><stop offset="1" stop-color="#656565"/></linearGradient><linearGradient><stop offset="0" stop-color="#4c4c4c"/><stop offset="1" stop-color="#656565"/></linearGradient><linearGradient><stop offset="0" stop-color="#4c4c4c"/><stop offset="1" stop-color="#656565"/></linearGradient><linearGradient><stop offset="0" stop-color="#4c4c4c"/><stop offset="1" stop-color="#656565"/></linearGradient><linearGradient><stop offset="0" stop-color="#4c4c4c"/><stop offset="1" stop-color="#656565"/></linearGradient><linearGradient><stop offset="0" stop-color="#4c4c4c"/><stop offset="1" stop-color="#656565"/></linearGradient><linearGradient><stop offset="0" stop-color="#4c4c4c"/><stop offset="1" stop-color="#656565"/></linearGradient><linearGradient><stop offset="0" stop-color="#4c4c4c"/><stop offset="1" stop-color="#656565"/></linearGradient><linearGradient><stop offset="0" stop-color="#4c4c4c"/><stop offset="1" stop-color="#656565"/></linearGradient><linearGradient><stop offset="0" stop-color="#4c4c4c"/><stop offset="1" stop-color="#656565"/></linearGradient><linearGradient><stop offset="0" stop-color="#4c4c4c"/><stop offset="1" stop-color="#656565"/></linearGradient><linearGradient><stop offset="0" stop-color="#4c4c4c"/><stop offset="1" stop-color="#656565"/></linearGradient><linearGradient><stop offset="0" stop-color="#4c4c4c"/><stop offset="1" stop-color="#656565"/></linearGradient><linearGradient><stop offset="0" stop-color="#4c4c4c"/><stop offset="1" stop-color="#656565"/></linearGradient><linearGradient><stop offset="0" stop-color="#4c4c4c"/><stop offset="1" stop-color="#656565"/></linearGradient><linearGradient><stop offset="0" stop-color="#4c4c4c"/><stop offset="1" stop-color="#656565"/></linearGradient><linearGradient><stop offset="0" stop-color="#4c4c4c"/><stop offset="1" stop-color="#656565"/></linearGradient><linearGradient><stop offset="0" stop-color="#4c4c4c"/><stop offset="1" stop-color="#656565"/></linearGradient><linearGradient><stop offset="0" stop-color="#4c4c4c"/><stop offset="1" stop-color="#656565"/></linearGradient><linearGradient><stop offset="0" stop-color="#4c4c4c"/><stop offset="1" stop-color="#656565"/></linearGradient><linearGradient><stop offset="0" stop-color="#4c4c4c"/><stop offset="1" stop-color="#656565"/></linearGradient><linearGradient><stop offset="0" stop-color="#4c4c4c"/><stop offset="1" stop-color="#656565"/></linearGradient><linearGradient><stop offset="0" stop-color="#4c4c4c"/><stop offset="1" stop-color="#656565"/></linearGradient><linearGradient><stop offset="0" stop-color="#4c4c4c"/><stop offset="1" stop-color="#656565"/></linearGradient><linearGradient><stop offset="0" stop-color="#4c4c4c"/><stop offset="1" stop-color="#656565"/></linearGradient><linearGradient><stop offset="0" stop-color="#4c4c4c"/><stop offset="1" stop-color="#656565"/></linearGradient><linearGradient><stop offset="0" stop-color="#4c4c4c"/><stop offset="1" stop-color="#656565"/></linearGradient><linearGradient><stop offset="0" stop-color="#4c4c4c"/><stop offset="1" stop-color="#656565"/></linearGradient><linearGradient><stop offset="0" stop-color="#4c4c4c"/><stop offset="1" stop-color="#656565"/></linearGradient><linearGradient><stop offset="0" stop-color="#4c4c4c"/><stop offset="1" stop-color="#656565"/></linearGradient><linearGradient><stop offset="0" stop-color="#4c4c4c"/><stop offset="1" stop-color="#656565"/></linearGradient><linearGradient><stop offset="0" stop-color="#4c4c4c"/><stop offset="1" stop-color="#656565"/></linearGradient><linearGradient><stop offset="0" stop-color="#4c4c4c"/><stop offset="1" stop-color="#656565"/></linearGradient><linearGradient><stop offset="0" stop-color="#4c4c4c"/><stop offset="1" stop-color="#656565"/></linearGradient><linearGradient><stop offset="0" stop-color="#4c4c4c"/><stop offset="1" stop-color="#656565"/></linearGradient><linearGradient><stop offset="0" stop-color="#4c4c4c"/><stop offset="1" stop-color="#656565"/></linearGradient><linearGradient><stop offset="0" stop-color="#4c4c4c"/><stop offset="1" stop-color="#656565"/></linearGradient><linearGradient><stop offset="0" stop-color="#4c4c4c"/><stop offset="1" stop-color="#656565"/></linearGradient><linearGradient><stop offset="0" stop-color="#4c4c4c"/><stop offset="1" stop-color="#656565"/></linearGradient><linearGradient><stop offset="0" stop-color="#4c4c4c"/><stop offset="1" stop-color="#656565"/></linearGradient><linearGradient><stop offset="0" stop-color="#4c4c4c"/><stop offset="1" stop-color="#656565"/></linearGradient><linearGradient><stop offset="0" stop-color="#4c4c4c"/><stop offset="1" stop-color="#656565"/></linearGradient><linearGradient><stop offset="0" stop-color="#4c4c4c"/><stop offset="1" stop-color="#656565"/></linearGradient><linearGradient><stop offset="0" stop-color="#4c4c4c"/><stop offset="1" stop-color="#656565"/></linearGradient><linearGradient><stop offset="0" stop-color="#4c4c4c"/><stop offset="1" stop-color="#656565"/></linearGradient><linearGradient><stop offset="0" stop-color="#4c4c4c"/><stop offset="1" stop-color="#656565"/></linearGradient><linearGradient><stop offset="0" stop-color="#4c4c4c"/><stop offset="1" stop-color="#656565"/></linearGradient><linearGradient><stop offset="0" stop-color="#4c4c4c"/><stop offset="1" stop-color="#656565"/></linearGradient><linearGradient><stop offset="0" stop-color="#4c4c4c"/><stop offset="1" stop-color="#656565"/></linearGradient><linearGradient><stop offset="0" stop-color="#4c4c4c"/><stop offset="1" stop-color="#656565"/></linearGradient><linearGradient><stop offset="0" stop-color="#4c4c4c"/><stop offset="1" stop-color="#656565"/></linearGradient><linearGradient><stop offset="0" stop-color="#4c4c4c"/><stop offset="1" stop-color="#656565"/></linearGradient><linearGradient><stop offset="0" stop-color="#4c4c4c"/><stop offset="1" stop-color="#656565"/></linearGradient><linearGradient><stop offset="0" stop-color="#4c4c4c"/><stop offset="1" stop-color="#656565"/></linearGradient><linearGradient><stop offset="0" stop-color="#4c4c4c"/><stop offset="1" stop-color="#656565"/></linearGradient><linearGradient><stop offset="0" stop-color="#4c4c4c"/><stop offset="1" stop-color="#656565"/></linearGradient><linearGradient><stop offset="0" stop-color="#4c4c4c"/><stop offset="1" stop-color="#656565"/></linearGradient><linearGradient><stop offset="0" stop-color="#4c4c4c"/><stop offset="1" stop-color="#656565"/></linearGradient><linearGradient><stop offset="0" stop-color="#4c4c4c"/><stop offset="1" stop-color="#656565"/></linearGradient><linearGradient><stop offset="0" stop-color="#4c4c4c"/><stop offset="1" stop-color="#656565"/></linearGradient><linearGradient><stop offset="0" stop-color="#4c4c4c"/><stop offset="1" stop-color="#656565"/></linearGradient><linearGradient><stop offset="0" stop-color="#4c4c4c"/><stop offset="1" stop-color="#656565"/></linearGradient><linearGradient><stop offset="0" stop-color="#4c4c4c"/><stop offset="1" stop-color="#656565"/></linearGradient><linearGradient><stop offset="0" stop-color="#4c4c4c"/><stop offset="1" stop-color="#656565"/></linearGradient><linearGradient><stop offset="0" stop-color="#4c4c4c"/><stop offset="1" stop-color="#656565"/></linearGradient><linearGradient><stop offset="0" stop-color="#4c4c4c"/><stop offset="1" stop-color="#656565"/></linearGradient><linearGradient><stop offset="0" stop-color="#4c4c4c"/><stop offset="1" stop-color="#656565"/></linearGradient><linearGradient><stop offset="0" stop-color="#4c4c4c"/><stop offset="1" stop-color="#656565"/></linearGradient><linearGradient><stop offset="0" stop-color="#4c4c4c"/><stop offset="1" stop-color="#656565"/></linearGradient><linearGradient><stop offset="0" stop-color="#4c4c4c"/><stop offset="1" stop-color="#656565"/></linearGradient><linearGradient><stop offset="0" stop-color="#4c4c4c"/><stop offset="1" stop-color="#656565"/></linearGradient><linearGradient><stop offset="0" stop-color="#4c4c4c"/><stop offset="1" stop-color="#656565"/></linearGradient><linearGradient><stop offset="0" stop-color="#4c4c4c"/><stop offset="1" stop-color="#656565"/></linearGradient><linearGradient><stop offset="0" stop-color="#4c4c4c"/><stop offset="1" stop-color="#656565"/></linearGradient><linearGradient><stop offset="0" stop-color="#4c4c4c"/><stop offset="1" stop-color="#656565"/></linearGradient><linearGradient><stop offset="0" stop-color="#4c4c4c"/><stop offset="1" stop-color="#656565"/></linearGradient><linearGradient><stop offset="0" stop-color="#4c4c4c"/><stop offset="1" stop-color="#656565"/></linearGradient><linearGradient><stop offset="0" stop-color="#4c4c4c"/><stop offset="1" stop-color="#656565"/></linearGradient><linearGradient><stop offset="0" stop-color="#4c4c4c"/><stop offset="1" stop-color="#656565"/></linearGradient><linearGradient><stop offset="0" stop-color="#4c4c4c"/><stop offset="1" stop-color="#656565"/></linearGradient><linearGradient><stop offset="0" stop-color="#4c4c4c"/><stop offset="1" stop-color="#656565"/></linearGradient><linearGradient><stop offset="0" stop-color="#4c4c4c"/><stop offset="1" stop-color="#656565"/></linearGradient><linearGradient><stop offset="0" stop-color="#4c4c4c"/><stop offset="1" stop-color="#656565"/></linearGradient><linearGradient><stop offset="0" stop-color="#4c4c4c"/><stop offset="1" stop-color="#656565"/></linearGradient><linearGradient><stop offset="0" stop-color="#4c4c4c"/><stop offset="1" stop-color="#656565"/></linearGradient><linearGradient><stop offset="0" stop-color="#4c4c4c"/><stop offset="1" stop-color="#656565"/></linearGradient><linearGradient><stop offset="0" stop-color="#4c4c4c"/><stop offset="1" stop-color="#656565"/></linearGradient><linearGradient><stop offset="0" stop-color="#4c4c4c"/><stop offset="1" stop-color="#656565"/></linearGradient><linearGradient><stop offset="0" stop-color="#4c4c4c"/><stop offset="1" stop-color="#656565"/></linearGradient><linearGradient><stop offset="0" stop-color="#4c4c4c"/><stop offset="1" stop-color="#656565"/></linearGradient><linearGradient><stop offset="0" stop-color="#4c4c4c"/><stop offset="1" stop-color="#656565"/></linearGradient><linearGradient><stop offset="0" stop-color="#4c4c4c"/><stop offset="1" stop-color="#656565"/></linearGradient><linearGradient><stop offset="0" stop-color="#4c4c4c"/><stop offset="1" stop-color="#656565"/></linearGradient><linearGradient><stop offset="0" stop-color="#4c4c4c"/><stop offset="1" stop-color="#656565"/></linearGradient><linearGradient><stop offset="0" stop-color="#4c4c4c"/><stop offset="1" stop-color="#656565"/></linearGradient><linearGradient><stop offset="0" stop-color="#4c4c4c"/><stop offset="1" stop-color="#656565"/></linearGradient><linearGradient><stop offset="0" stop-color="#4c4c4c"/><stop offset="1" stop-color="#656565"/></linearGradient><linearGradient><stop offset="0" stop-color="#4c4c4c"/><stop offset="1" stop-color="#656565"/></linearGradient><linearGradient><stop offset="0" stop-color="#4c4c4c"/><stop offset="1" stop-color="#656565"/></linearGradient><linearGradient><stop offset="0" stop-color="#4c4c4c"/><stop offset="1" stop-color="#656565"/></linearGradient><linearGradient><stop offset="0" stop-color="#4c4c4c"/><stop offset="1" stop-color="#656565"/></linearGradient><linearGradient><stop offset="0" stop-color="#4c4c4c"/><stop offset="1" stop-color="#656565"/></linearGradient><linearGradient><stop offset="0" stop-color="#4c4c4c"/><stop offset="1" stop-color="#656565"/></linearGradient><linearGradient><stop offset="0" stop-color="#4c4c4c"/><stop offset="1" stop-color="#656565"/></linearGradient><linearGradient><stop offset="0" stop-color="#4c4c4c"/><stop offset="1" stop-color="#656565"/></linearGradient><linearGradient><stop offset="0" stop-color="#4c4c4c"/><stop offset="1" stop-color="#656565"/></linearGradient><linearGradient><stop offset="0" stop-color="#4c4c4c"/><stop offset="1" stop-color="#656565"/></linearGradient><linearGradient id="a"><stop offset="0" stop-color="#4887d2"/><stop offset="1" stop-color="#71a2dc"/></linearGradient><linearGradient x1="1975.884" x2="3466.778" y1="-5656.661" y2="-6315.289" xlink:href="#a" gradientUnits="userSpaceOnUse"/><linearGradient x1="1975.884" x2="3466.778" y1="-5656.661" y2="-6315.289" xlink:href="#a" gradientUnits="userSpaceOnUse"/><linearGradient x1="1975.884" x2="3466.778" y1="-5656.661" y2="-6315.289" xlink:href="#a" gradientUnits="userSpaceOnUse" gradientTransform="translate(583.61 3916.609)"/><linearGradient x1="1975.884" x2="3466.778" y1="-5656.661" y2="-6315.289" xlink:href="#a" gradientUnits="userSpaceOnUse" gradientTransform="translate(137.304 1781.357)"/><linearGradient x1="1975.884" x2="3466.778" y1="-5656.661" y2="-6315.289" xlink:href="#a" gradientUnits="userSpaceOnUse" gradientTransform="translate(137.304 1781.357)"/><linearGradient x1="1975.884" x2="3466.778" y1="-5656.661" y2="-6315.289" xlink:href="#a" gradientUnits="userSpaceOnUse"/><linearGradient x1="1975.884" x2="3466.778" y1="-5656.661" y2="-6315.289" xlink:href="#a" gradientUnits="userSpaceOnUse"/><linearGradient x1="1975.884" x2="3466.778" y1="-5656.661" y2="-6315.289" xlink:href="#a" gradientUnits="userSpaceOnUse"/><linearGradient x1="1975.884" x2="3466.778" y1="-5656.661" y2="-6315.289" xlink:href="#a" gradientUnits="userSpaceOnUse" gradientTransform="translate(507.231 -1205.157)"/><linearGradient x1="1975.884" x2="3466.778" y1="-5656.661" y2="-6315.289" xlink:href="#a" gradientUnits="userSpaceOnUse" gradientTransform="translate(953.42 929.153)"/><linearGradient x1="1975.884" x2="3466.778" y1="-5656.661" y2="-6315.289" xlink:href="#a" gradientUnits="userSpaceOnUse" gradientTransform="translate(507.231 -1205.157)"/><marker orient="auto" overflow="visible"><path fill-rule="evenodd" stroke="#000" stroke-width=".8pt" d="M4.62 0L-2.3 4v-8l6.92 4z"/></marker><marker orient="auto" overflow="visible"><path fill="#4f81bd" fill-rule="evenodd" stroke="#4f81bd" stroke-width=".4pt" d="M2.3 0l-3.45 2v-4L2.3 0z"/></marker><marker orient="auto" overflow="visible"><path fill-rule="evenodd" stroke="#000" stroke-width=".4pt" d="M2.3 0l-3.45 2v-4L2.3 0z"/></marker><marker orient="auto" overflow="visible"><path fill-rule="evenodd" stroke="#000" stroke-width=".4pt" d="M2.3 0l-3.45 2v-4L2.3 0z"/></marker><marker orient="auto" overflow="visible"><path fill-rule="evenodd" stroke="#000" stroke-width=".4pt" d="M2.3 0l-3.45 2v-4L2.3 0z"/></marker><marker orient="auto" overflow="visible"><path fill-rule="evenodd" stroke="#000" stroke-width=".4pt" d="M2.3 0l-3.45 2v-4L2.3 0z"/></marker><marker orient="auto" overflow="visible"><path fill-rule="evenodd" stroke="#000" stroke-width=".4pt" d="M2.3 0l-3.45 2v-4L2.3 0z"/></marker><marker orient="auto" overflow="visible"><path fill-rule="evenodd" stroke="#000" stroke-width=".4pt" d="M2.3 0l-3.45 2v-4L2.3 0z"/></marker><marker orient="auto" overflow="visible"><path fill-rule="evenodd" stroke="#000" stroke-width=".4pt" d="M2.3 0l-3.45 2v-4L2.3 0z"/></marker><marker orient="auto" overflow="visible"><path fill-rule="evenodd" stroke="#000" stroke-width=".4pt" d="M2.3 0l-3.45 2v-4L2.3 0z"/></marker><marker orient="auto" overflow="visible"><path fill-rule="evenodd" stroke="#000" stroke-width=".4pt" d="M2.3 0l-3.45 2v-4L2.3 0z"/></marker><marker orient="auto" overflow="visible"><path fill-rule="evenodd" stroke="#000" stroke-width=".4pt" d="M2.3 0l-3.45 2v-4L2.3 0z"/></marker><marker orient="auto" overflow="visible"><path fill-rule="evenodd" stroke="#000" stroke-width=".4pt" d="M2.3 0l-3.45 2v-4L2.3 0z"/></marker><marker orient="auto" overflow="visible"><path fill-rule="evenodd" stroke="#000" stroke-width=".4pt" d="M2.3 0l-3.45 2v-4L2.3 0z"/></marker><marker orient="auto" overflow="visible"><path fill-rule="evenodd" stroke="#000" stroke-width=".8pt" d="M4.62 0L-2.3 4v-8l6.92 4z"/></marker><marker orient="auto" overflow="visible"><path fill-rule="evenodd" stroke="#000" stroke-width=".8pt" d="M4.62 0L-2.3 4v-8l6.92 4z"/></marker><marker orient="auto" overflow="visible"><path fill="#789440" fill-rule="evenodd" stroke="#789440" stroke-width=".8pt" d="M4.62 0L-2.3 4v-8l6.92 4z"/></marker><marker orient="auto" overflow="visible"><path fill="#789440" fill-rule="evenodd" stroke="#789440" stroke-width=".8pt" d="M4.62 0L-2.3 4v-8l6.92 4z"/></marker><marker orient="auto" overflow="visible"><path fill="#ffc000" fill-rule="evenodd" stroke="#ffc000" stroke-width=".8pt" d="M-4.62 0L2.3-4v8l-6.92-4z"/></marker><marker orient="auto" overflow="visible"><path fill="#ffc000" fill-rule="evenodd" stroke="#ffc000" stroke-width=".4pt" d="M2.3 0l-3.45 2v-4L2.3 0z"/></marker><marker orient="auto" overflow="visible"><path fill-rule="evenodd" stroke="#000" stroke-width=".8pt" d="M4.62 0L-2.3 4v-8l6.92 4z"/></marker><marker orient="auto" overflow="visible"><path fill="#4f81bd" fill-rule="evenodd" stroke="#4f81bd" stroke-width=".4pt" d="M2.3 0l-3.45 2v-4L2.3 0z"/></marker><linearGradient x1="218.218" x2="814.159" y1="553.207" y2="553.207" gradientTransform="matrix(-1 0 0 -1 1032.377 1384.428)" xlink:href="#b" gradientUnits="userSpaceOnUse"/><marker orient="auto" overflow="visible"><path fill="#f05133" fill-rule="evenodd" stroke="#f05133" stroke-width=".4pt" d="M2.3 0l-3.45 2v-4L2.3 0z"/></marker></defs><g transform="translate(-.222 46.511)"><rect width="211.27" height="45.68" x="332.78" y="98.985" fill="#f8f8f8" stroke="#ddd" stroke-width="2.855" ry="4" rx="4" stroke-linecap="round" stroke-linejoin="round"/><path fill="#404030" d="M350.07 129.5q0-1.32.5-2.43.5-1.08 1.27-2 .8-.94 1.77-1.54.98-.7 1.95-1v-.66q-2.17-1.28-3.14-2.9-1.05-1.66-1.05-3.55 0-1.28.57-2.57.63-1.23 1.72-2.17 1.14-1 2.74-1.6 1.62-.57 3.65-.57 1.54 0 3 .4 1.48.44 2.63 1.27 1.2.8 1.9 2.05.7 1.2.7 2.86 0 1.14-.38 2.14-.4 1-1.05 1.83-.63.85-1.43 1.43-.74.65-1.43.97v.57q2.3.85 3.9 2.7 1.58 1.84 1.58 4.58 0 1.7-.7 3.08-.7 1.37-2 2.37t-3.15 1.54q-1.8.56-4.05.56-2 0-3.77-.5-1.72-.58-3-1.52-1.23-1.03-1.94-2.35-.7-1.35-.7-2.92zm3.62-.72q0 1.15.36 2.12.35 1 1.06 1.82.74.8 1.9 1.3 1.13.44 2.73.44 1.42 0 2.57-.4 1.14-.42 1.94-1.08.77-.7 1.14-1.63.48-.85.48-1.88 0-2.46-2.08-4.1-2-1.73-5.54-2.3-4.57 1.83-4.57 5.7zm.7-13.5q0 .94.44 1.8.48.85 1.34 1.54.85.68 1.94 1.23 1.14.57 2.4.9.45-.16 1.14-.56.77-.5 1.43-1.15.73-.72 1.2-1.72.53-.97.53-2.2 0-2.28-1.43-3.42-1.43-1.25-3.57-1.25-1.3 0-2.37.43-1.03.43-1.7 1.14-.67.66-1.04 1.55-.34.8-.34 1.62z" word-spacing="0" letter-spacing="0" style="line-height:125%;-inkscape-font-specification:'Triplicate T4c, Normal';text-align:start" font-family="Triplicate T4c"/><path fill="#404030" d="M376.5 129.5q0-1.32.5-2.43.48-1.08 1.27-2 .78-.94 1.72-1.54 1-.7 2-1v-.66q-2.18-1.28-3.2-2.9-1-1.66-1-3.55 0-1.28.56-2.57.63-1.23 1.7-2.17 1.16-1 2.78-1.6 1.57-.57 3.6-.57 1.54 0 3 .4 1.5.44 2.65 1.27 1.2.8 1.9 2.05.72 1.2.72 2.86 0 1.14-.4 2.14-.4 1-1.06 1.83-.57.85-1.42 1.43-.72.65-1.43.97v.57q2.35.85 3.95 2.7 1.57 1.84 1.57 4.58 0 1.7-.7 3.08-.73 1.37-2.04 2.37-1.3 1-3.14 1.54-1.8.56-4.06.56-2 0-3.77-.5-1.7-.58-2.98-1.52-1.3-1.03-2-2.35-.7-1.35-.7-2.92zm3.63-.72q0 1.15.34 2.12.35 1 1.06 1.82.74.8 1.88 1.3 1.16.44 2.75.44 1.43 0 2.57-.4 1.15-.42 2-1.08.77-.7 1.14-1.63.46-.85.46-1.88 0-2.46-2.08-4.1-2-1.73-5.54-2.3-4.57 1.83-4.57 5.7zm.7-13.5q0 .94.44 1.8.5.85 1.32 1.54.8.68 1.9 1.23 1.14.57 2.43.9.42-.16 1.14-.56.74-.5 1.43-1.15.7-.72 1.2-1.72.57-.97.57-2.2 0-2.28-1.43-3.42-1.43-1.25-3.57-1.25-1.37 0-2.43.43-1 .43-1.7 1.14-.67.66-1 1.55-.38.8-.38 1.62z" word-spacing="0" letter-spacing="0" style="line-height:125%;-inkscape-font-specification:'Triplicate T4c, Normal';text-align:start" font-family="Triplicate T4c"/><path fill="#404030" d="M416.87 124.53q-1.25 1.08-2.7 1.65-1.44.58-3.43.58-1.57 0-3.03-.66-1.42-.57-2.56-1.77-1.03-1.14-1.7-2.86-.58-1.7-.58-3.85 0-2.17.77-3.88.8-1.72 2.08-2.86 1.32-1.2 2.92-1.82 1.63-.63 3.26-.63 2.1 0 3.82.77 1.77.77 3 2.34 1.3 1.54 2 3.9.7 2.38.7 5.55 0 2.27-.64 4.56-.57 2.17-1.72 4.08-1.14 1.94-2.74 3.48-1.6 1.52-3.65 2.4-.66.3-1.63.57-.94.33-2 .56-1.14.23-2.22.35-1.15.18-2.12.2-.28 0-.4-.28-.1-.37-.1-.8 0-.37.1-.74.15-.34.46-.37 1.7-.28 3.6-.68 1.94-.4 3.14-1 2.23-.94 3.7-3.08 1.44-2.14 2.18-5.3l-.57-.35zm.4-2.86q.1-.4.15-.85 0-.57 0-1.14.05-.52.05-.98 0-.45 0-.74 0-1.6-.42-2.9-.46-1.38-1.2-2.35-.75-1-1.86-1.53-1.07-.57-2.3-.57-1.14 0-2.1.48-.98.5-1.72 1.43-.7.87-1.14 2.18-.4 1.3-.4 2.97 0 1.7.43 3 .48 1.2 1.23 2 .74.85 1.7 1.2.86.37 1.84.37 1.88 0 3.42-.75 1.5-.8 2.3-1.7z" word-spacing="0" letter-spacing="0" style="line-height:125%;-inkscape-font-specification:'Triplicate T4c, Normal';text-align:start" font-family="Triplicate T4c"/><path fill="#404030" d="M442.74 121.5q2.28.66 3.7 2.57 1.44 1.83 1.44 4.34 0 1.78-.74 3.32-.72 1.52-2.1 2.63-1.3 1.14-3.27 1.7-1.94.73-4.43.73-1.65 0-3.82-.5-2.17-.45-4.14-1.76-.34-.23-.34-.66 0-.45.28-.85.23-.4.57-.56.4-.3.76-.06 1.43.86 2.92 1.37 1.48.5 3.7.5 3.03 0 4.86-1.44 1.9-1.48 1.9-4.27 0-2.74-1.6-4.2-1.6-1.43-4-1.43h-1.92q-.35 0-.5-.34-.1-.37-.1-.77 0-.47.14-.87.2-.34.5-.34h2q.7 0 1.44-.24.7-.28 1.26-.86.57-.57 1-1.48.4-.94.4-2.28 0-2.86-1.15-4-1.13-1.3-2.84-1.3-1.57 0-2.4.67-.86.7-.94 1.72-.1 1.3-.7 1.83-.64.57-1.6.57-1 0-1.44-.46-.37-.4-.37-1.14 0-.68.5-1.54t1.48-1.63q1-.8 2.4-1.28 1.42-.57 3.34-.57 1.48 0 2.85.43 1.37.42 2.43 1.25 1.05.8 1.7 2.14.67 1.3.67 3.1 0 1.84-1.15 3.4-1.14 1.5-2.62 2.15v.52z" word-spacing="0" letter-spacing="0" style="line-height:125%;-inkscape-font-specification:'Triplicate T4c, Normal';text-align:start" font-family="Triplicate T4c"/><path fill="#404030" d="M471.78 127.33h2.7q.58 0 .86.37.23.37.2.85 0 .4-.28.78-.2.37-.57.37h-2.92v6.45q0 .28-.5.46-.45.23-1.05.23-.57 0-1.02-.17-.48-.17-.48-.57v-6.4h-11.7q-.5 0-.72-.57-.23-.58-.28-1.26-.1-.7 0-1.3.05-.7.14-.87 2.68-4.08 4.85-8.2 2.3-4.1 3.44-8.47.08-.57.7-.72.67-.2 1.38-.13.72.06 1.23.34.57.3.43.67-.57 2.08-1.66 4.28-1.05 2.17-2.4 4.4-1.3 2.14-2.76 4.22-1.5 2.06-2.86 3.92v1.27h10.2v-7.7q0-.3.48-.47.48-.17 1-.1.57 0 1.03.2.5.16.5.48v7.6z" word-spacing="0" letter-spacing="0" style="line-height:125%;-inkscape-font-specification:'Triplicate T4c, Normal';text-align:start" font-family="Triplicate T4c"/><path fill="#404030" d="M485 126.87q0 3.54 1.57 5.22 1.62 1.7 4.56 1.7 1.34 0 2.74-.2 1.43-.16 2.77-.42 1.37-.23 2.52-.57 1.22-.28 2.1-.62.3-.1.52.1.3.16.5.44.13.3.13.57.07.28-.16.42-1.14.57-2.57 1.03-1.37.5-2.86.94-1.47.36-3 .56-1.5.3-2.95.3-2.3 0-4.06-.72-1.78-.63-3-1.8-1.2-1.2-1.83-2.77-.63-1.63-.63-3.5 0-2.58.9-4.58.96-2 2.38-3.38 1.52-1.43 3.37-2.2 1.9-.77 3.8-.77 2.07 0 3.8.63 1.76.63 2.98 1.8 1.32 1.2 2 2.9.7 1.66.7 3.72 0 .57-.3.9-.2.3-.85.3h-15.08zm12.44-1.9q-.08-1.15-.43-2.3-.27-1.14-.98-2.05-.7-.92-1.78-1.43-1.05-.58-2.65-.58-1.44 0-2.58.5-1.14.5-2.08 1.38-.86.86-1.43 2.06-.5 1.14-.56 2.43h12.5z" word-spacing="0" letter-spacing="0" style="line-height:125%;-inkscape-font-specification:'Triplicate T4c, Normal';text-align:start" font-family="Triplicate T4c"/><path fill="#404030" d="M508.58 129.5q0-1.32.48-2.43.46-1.08 1.26-2 .8-.94 1.77-1.54.96-.7 1.93-1v-.66q-2.17-1.28-3.14-2.9-1.07-1.66-1.07-3.55 0-1.28.57-2.57.63-1.23 1.72-2.17 1.14-1 2.74-1.6 1.57-.57 3.6-.57 1.5 0 2.96.4 1.52.44 2.66 1.27 1.2.8 1.88 2.05.72 1.2.72 2.86 0 1.14-.4 2.14-.4 1-1.06 1.83-.57.85-1.43 1.43-.75.65-1.43.97v.57q2.34.85 3.9 2.7 1.6 1.84 1.6 4.58 0 1.7-.7 3.08-.72 1.37-2 2.37-1.32 1-3.15 1.54-1.82.56-4.08.56-2 0-3.77-.5-1.7-.58-3-1.52-1.22-1.03-1.94-2.35-.7-1.35-.7-2.92zm3.62-.72q0 1.15.3 2.12.36 1 1.07 1.82.75.8 1.92 1.3 1.13.44 2.7.44 1.43 0 2.57-.4 1.14-.42 2-1.08.77-.7 1.14-1.63.47-.85.47-1.88 0-2.46-2.06-4.1-2-1.73-5.56-2.3-4.57 1.83-4.57 5.7zm.66-13.5q0 .94.46 1.8.45.85 1.28 1.54.86.68 1.94 1.23 1.14.57 2.43.9.43-.16 1.14-.56.75-.5 1.44-1.15.74-.72 1.23-1.72.57-.97.57-2.2 0-2.28-1.43-3.42-1.42-1.25-3.56-1.25-1.3 0-2.37.43-1.03.43-1.7 1.14-.7.66-1.04 1.55-.37.8-.37 1.62z" word-spacing="0" letter-spacing="0" style="line-height:125%;-inkscape-font-specification:'Triplicate T4c, Normal';text-align:start" font-family="Triplicate T4c"/><rect width="211.27" height="45.68" x="101.917" y="98.985" fill="#f8f8f8" stroke="#ddd" stroke-width="2.855" ry="4" rx="4" stroke-linecap="round" stroke-linejoin="round"/><path fill="#404030" d="M132.63 121.5q2.28.66 3.7 2.57 1.44 1.83 1.44 4.34 0 1.78-.74 3.32-.72 1.52-2.1 2.63-1.3 1.14-3.27 1.7-1.94.73-4.43.73-1.65 0-3.82-.5-2.13-.45-4.1-1.76-.34-.23-.34-.66 0-.45.28-.85.23-.4.57-.56.4-.3.78-.06 1.5.86 2.94 1.37 1.5.5 3.7.5 3.04 0 4.87-1.44 1.9-1.48 1.9-4.27 0-2.74-1.63-4.2-1.6-1.43-4-1.43h-1.9q-.35 0-.5-.34-.16-.37-.16-.77 0-.47.15-.87.14-.34.46-.34h2q.7 0 1.43-.24.7-.28 1.26-.86.56-.57 1-1.48.4-.94.4-2.28 0-2.86-1.15-4-1.15-1.3-2.86-1.3-1.64 0-2.46.67-.86.7-.95 1.72-.06 1.3-.66 1.83-.63.57-1.6.57-.97 0-1.37-.46-.4-.4-.4-1.14 0-.68.48-1.54.52-.86 1.5-1.63 1.02-.8 2.4-1.28 1.44-.57 3.35-.57 1.43 0 2.8.43 1.37.42 2.43 1.25 1.06.8 1.7 2.14.67 1.3.67 3.1 0 1.84-1.14 3.4-1.14 1.5-2.63 2.15v.52z" word-spacing="0" letter-spacing="0" style="line-height:125%;-inkscape-font-specification:'Triplicate T4c, Normal';text-align:start" font-family="Triplicate T4c"/><path fill="#404030" d="M163.5 111.74q-2.98 5.54-5.52 11.8-2.5 6.27-4.37 12.44-.18.37-.93.57-.77.23-1.62.23-.86 0-1.55-.2-.68-.15-.4-.75 2.3-5.7 5.2-11.7 2.9-6 6.2-11.48l-.3-.57q-1.25 0-2.85 0-1.57 0-3.2.1-1.65 0-3.13.04-1.5.06-2.57.1-.86.05-1.23-.47-.4-.57-.43-1.14 0-.67.28-1.22.28-.57.9-.57.3 0 1.07.1.7 0 1.54 0 .85 0 1.76.08.86 0 1.43 0h7.75q.57 0 .97.3.46.27.72.7.28.37.28.86.12.46-.06.86z" word-spacing="0" letter-spacing="0" style="line-height:125%;-inkscape-font-specification:'Triplicate T4c, Normal';text-align:start" font-family="Triplicate T4c"/><path fill="#404030" d="M181.34 134.18q1 0 2.14-.3 1.14-.4 2.2-1.27 1-.85 1.65-2.36.7-1.5.7-3.8 0-1.43-.58-2.68-.57-1.26-1.43-2.17-.86-.93-2.06-1.44-1.14-.57-2.4-.57-1.3 0-2.62.42-1.3.45-2.3 1.43v9.7q0 1.23 1.16 2.14 1.14.85 3.57.85zm-8.4-23.98l-2.9.5q-.3 0-.44-.27-.17-.38-.28-.8 0-.46 0-.86.05-.4.28-.43.63-.08 1.72-.28 1.02-.18 1.9-.38.87-.22 1.5-.42.62-.2 1.02-.35.3-.07.86.3.57.28.43 1.08-.3 2.63-.46 5.43-.1 2.66-.17 4.92l.5.34q1.15-.8 2.58-1.34 1.43-.57 3-.57 2.05 0 3.7.74 1.64.73 2.87 2 1.14 1.33 1.82 3.02.66 1.7.66 3.6 0 2.56-1 4.48-1.03 1.88-2.57 3.14-1.6 1.22-3.5 1.85-1.95.62-3.8.62-1.44 0-2.46-.3-.97-.27-1.57-.44l-1.35 1.03q-.2.18-.57.15-.4-.06-.8-.23-.4-.2-.64-.5-.3-.27-.2-.56.05-.17.1-.65.1-.5.13-1.08.04-.57.04-1.23t0-1.06v-21.2l-.4-.27z" word-spacing="0" letter-spacing="0" style="line-height:125%;-inkscape-font-specification:'Triplicate T4c, Normal';text-align:start" font-family="Triplicate T4c"/><path fill="#404030" d="M207.77 134.18q.98 0 2.12-.3 1.2-.4 2.2-1.27 1-.85 1.7-2.36.63-1.5.63-3.8 0-1.43-.57-2.68-.58-1.26-1.43-2.17-.86-.93-2.1-1.44-1.13-.57-2.36-.57-1.34 0-2.65.42-1.26.45-2.3 1.43v9.7q0 1.23 1.16 2.14 1.22.85 3.6.85zm-8.42-23.98l-2.85.5q-.3 0-.46-.27-.14-.38-.23-.8 0-.46 0-.86.07-.4.3-.43.57-.08 1.65-.28 1.06-.18 1.94-.38.85-.22 1.48-.42.68-.2 1.06-.35.34-.07.85.3.56.28.45 1.08-.34 2.63-.5 5.43-.1 2.66-.2 4.92l.58.34q1.15-.8 2.52-1.34 1.42-.57 3.02-.57 2 0 3.66.74 1.7.73 2.85 2 1.2 1.33 1.86 3.02.63 1.7.63 3.6 0 2.56-1 4.48-1.03 1.88-2.57 3.14-1.57 1.22-3.5 1.85-1.9.62-3.73.62-1.48 0-2.5-.3-1-.27-1.58-.44l-1.35 1.03q-.17.18-.57.15-.4-.06-.8-.23-.4-.2-.66-.5-.28-.27-.17-.56 0-.17.1-.65.04-.5.07-1.08.06-.57.06-1.23.06-.66.06-1.06v-21.2l-.46-.27z" word-spacing="0" letter-spacing="0" style="line-height:125%;-inkscape-font-specification:'Triplicate T4c, Normal';text-align:start" font-family="Triplicate T4c"/><path fill="#404030" d="M244.38 122.2q0 3.4-.8 6.15-.8 2.72-2.3 4.57-1.36 1.9-3.36 2.86-2 1-4.28 1-2.08 0-3.83-.95-1.7-1-2.98-2.7-1.23-1.72-1.92-3.95-.7-2.28-.7-4.9 0-3.38.56-6.3.63-2.84 1.9-5 1.24-2.13 3.18-3.33 2-1.2 4.7-1.2 1.98 0 3.78.86 1.8.87 3.14 2.58 1.35 1.7 2.14 4.28.8 2.57.8 6.06zm-4 .27q0-3.3-.46-5.65-.48-2.28-1.37-3.77-4 10.22-7.54 20.36 1.33 1.3 3 1.3 1.24 0 2.38-.64 1.14-.62 2-2 .9-1.5 1.43-3.82.58-2.37.58-5.8zm-10.76 8.85q2-5 3.76-10 1.8-5.04 3.52-10.07-1.15-.74-2.57-.74-1.72 0-2.86.87-1.14.9-1.9 2.57-.78 1.54-1.15 3.82-.3 2.3-.3 5.14 0 2.77.35 4.9.4 2.1 1.15 3.55z" word-spacing="0" letter-spacing="0" style="line-height:125%;-inkscape-font-specification:'Triplicate T4c, Normal';text-align:start" font-family="Triplicate T4c"/><path fill="#404030" d="M254.25 110.28q.06-.68.4-.94.4-.28 1.03-.28h8.7q.8 0 1.5-.1.65-.08 1.25-.22.57-.08.77.4.3.5.1 1.14-.16.57-.78 1.14-.63.58-1.86.58h-8.85l-.45 6.56.57.37q.52-.28 1.37-.45.85-.2 2.33-.2 1.72 0 3.32.57 1.7.48 3 1.57 1.34 1.08 2.14 2.68.84 1.63.84 3.8 0 2.08-.94 3.88-.86 1.8-2.57 3.14-1.63 1.34-4.05 2.1-2.37.8-5.3.8-.8 0-1.64-.07-.8-.1-1.54-.3-.77-.07-1.43-.27-.57-.23-1-.5-.37-.2-.37-.64.06-.46.28-.86.2-.4.58-.66.4-.28.74 0 .63.37 1.83.66 1.2.28 3.05.28 1.77 0 3.3-.5 1.6-.58 2.75-1.55 1.2-.93 1.86-2.28.7-1.37.7-3.08 0-2.74-1.83-4.48-1.7-1.7-5.42-1.7-1.26 0-2.14.2-.85.3-1.5.6-.4.27-.92-.13-.57-.4-.48-.86l.68-10.27z" word-spacing="0" letter-spacing="0" style="line-height:125%;-inkscape-font-specification:'Triplicate T4c, Normal';text-align:start" font-family="Triplicate T4c"/><path fill="#404030" d="M291.37 126.58q-5.77.2-8.57 1.15-2.8.97-2.8 3.08 0 1.55 1.15 2.52 1.14.92 3.05.92 1.8 0 3.7-.57 2-.58 3.3-1.8l.17-5.3zm.06 7.57l-.3-.1q-1.56.96-3.62 1.6-2.1.64-4.2.64-3.5 0-5.26-1.44-1.72-1.42-1.72-3.54 0-1.7.97-2.85 1.02-1.2 2.96-1.94 2-.8 4.8-1.14 2.8-.4 6.37-.53l.1-2q.07-1.14-.28-2-.28-.8-.85-1.34-.52-.57-1.26-.8-.7-.28-1.5-.28-1.44 0-2.58.48-1.14.4-1.7.86-.3.08-.3.28 0 .22 0 .5 0 1.27-.57 1.8-.58.5-1.52.5-.75 0-1.43-.38-.7-.37-.57-1.83 0-.57.14-1 .2-.45.86-.8 1.05-.48 2.28-.94 1.37-.45 2.74-.8 1.37-.34 2.66-.57 1.28-.17 2.28-.17 2.57 0 3.8 1.65 1.23 1.63 1.23 4.2l-.43 11.13 3.42-.86q.3-.05.57.17.3.22.43.57.12.4.1.74-.07.35-.4.46-.44.12-1.27.43-.86.28-1.78.56-.9.3-1.77.57-.77.3-1.14.3-.65.13-.8-.3l-.5-1.94z" word-spacing="0" letter-spacing="0" style="line-height:125%;-inkscape-font-specification:'Triplicate T4c, Normal';text-align:start" font-family="Triplicate T4c"/><circle cx="435.777" cy="54.525" r="21.413" fill="none" stroke="#c0504d" stroke-width="14.275" stroke-linecap="round"/><path fill="none" stroke="#c0504d" stroke-width="14.275" d="M392.95 54.52h22.84"/><path fill="none" stroke="#c0504d" stroke-width="14.275" d="M455.76 54.52h22.84"/><circle cx="207.377" cy="54.525" r="21.413" fill="none" stroke="#c0504d" stroke-width="14.275" stroke-linecap="round"/><path fill="none" stroke="#c0504d" stroke-width="14.275" d="M164.55 54.52h22.84"/><path fill="none" stroke="#c0504d" stroke-width="14.275" d="M227.36 54.52h22.84"/><path fill="none" stroke="#c0504d" stroke-width="14.275" d="M242 54.52h157.03"/><path fill="none" stroke="#c0504d" stroke-width="14.403" d="M7.52 54.52H167.4" stroke-linecap="round"/><path fill="#c0504d" stroke="#fff" stroke-width="1.427" d="M109.07 54.8l-16.6 9.66-16.57 9.66 1.24-38.72 15.96 9.7z" stroke-linejoin="round"/><path fill="none" stroke="#c0504d" stroke-width="14.275" d="M65.9 54.52h14.14"/><path fill="#c0504d" stroke="#fff" stroke-width="1.427" d="M342.1 54.8l-16.58 9.66-16.58 9.66 1.24-38.72 15.96 9.7z" stroke-linejoin="round"/><path fill="none" stroke="#c0504d" stroke-width="14.275" d="M298.96 54.52h14.14"/><path fill="#c0504d" d="M22.03 9.13v14h-3.86v-10.7q0-3.2-.85-4.44-.86-1.3-2.97-1.3-1.14 0-2.17.57-1 .52-2.3 1.9v13.98H6.1V3.93h3.85v2.52q2.86-2.86 5.7-2.86Q19.3 3.6 21.3 7q3.04-3.5 6.38-3.5 2.8 0 4.57 2.04 1.85 2.06 1.85 6.28v11.34h-3.8V11.76q0-2.37-.96-3.63-1-1.28-2.86-1.28-2.34 0-4.4 2.37z" word-spacing="0" letter-spacing="0" style="line-height:125%;-inkscape-font-specification:'Gill Sans MT, Normal';text-align:center" font-family="Gill Sans MT" text-anchor="middle"/><path fill="#c0504d" d="M51.38 11.6v8.15q0 .97.65.97.72 0 2.2-1v2.34q-1.3.86-2.1 1.15-.78.3-1.64.3-2.43 0-2.86-1.92-2.46 1.88-5.2 1.88-2 0-3.34-1.28-1.34-1.34-1.34-3.34 0-1.83 1.3-3.26 1.33-1.43 3.72-2.28l4.86-1.66V10.6q0-3.47-3.43-3.47-3.13 0-6.07 3.23V6.22q2.2-2.57 6.37-2.57 3.14 0 5 1.6.65.57 1.14 1.42.5.86.65 1.72.13.84.13 3.3zm-3.7 7.7v-5.72L45.1 14.6q-2 .78-2.77 1.58-.77.77-.77 1.94 0 1.2.74 1.94.74.75 2 .75 1.77 0 3.34-1.5z" word-spacing="0" letter-spacing="0" style="line-height:125%;-inkscape-font-specification:'Gill Sans MT, Normal';text-align:center" font-family="Gill Sans MT" text-anchor="middle"/><path fill="#c0504d" d="M56.66 21.75v-4.08q1.6 1.08 3.28 1.8 1.72.68 2.86.68t2-.57q.85-.57.85-1.43 0-.85-.5-1.37-.58-.57-2.4-1.63-3.72-2.05-4.86-3.48-1.16-1.43-1.16-3.14 0-2.23 1.77-3.63 1.73-1.42 4.47-1.42 2.8 0 5.77 1.6v3.7q-3.37-2-5.54-2-1.14 0-1.8.47-.7.45-.7 1.22 0 .66.58 1.26.66.57 2.2 1.43l1.37.8q4.86 2.74 4.86 6 0 2.4-1.88 3.93-1.83 1.48-4.74 1.48-1.7 0-3.05-.35-1.32-.37-3.34-1.37z" word-spacing="0" letter-spacing="0" style="line-height:125%;-inkscape-font-specification:'Gill Sans MT, Normal';text-align:center" font-family="Gill Sans MT" text-anchor="middle"/><path fill="#c0504d" d="M71.42 6.96l7.14-7.02v4h6.05v3.42h-6.07v9.42q0 3.28 2.7 3.28 2.07 0 4.35-1.37v3.53q-2.2 1.2-4.8 1.2-2.65 0-4.36-1.5-.58-.5-.92-1.07-.34-.57-.57-1.5-.28-.95-.28-3.55V7.26h-3.32V6.9z" word-spacing="0" letter-spacing="0" style="line-height:125%;-inkscape-font-specification:'Gill Sans MT, Normal';text-align:center" font-family="Gill Sans MT" text-anchor="middle"/><path fill="#c0504d" d="M104.77 13.84H91.23q.17 2.77 1.86 4.4 1.7 1.6 4.36 1.6 3.77 0 6.96-2.34v3.7q-1.77 1.2-3.5 1.72-1.72.48-4 .48-3.2 0-5.14-1.28-2-1.3-3.2-3.54-1.14-2.2-1.14-5.14 0-4.4 2.45-7.14 2.5-2.74 6.47-2.74 3.83 0 6.1 2.66 2.24 2.68 2.24 7.2v.42zm-13.42-2.28h9.7q-.2-2.3-1.42-3.5-1.2-1.24-3.23-1.24-2.05 0-3.37 1.23-1.3 1.22-1.7 3.5z" word-spacing="0" letter-spacing="0" style="line-height:125%;-inkscape-font-specification:'Gill Sans MT, Normal';text-align:center" font-family="Gill Sans MT" text-anchor="middle"/><path fill="#c0504d" d="M112.96 3.9v4.4l.2-.28q2.77-4.46 5.5-4.46 2.18 0 4.52 2.17l-2 3.34q-2-1.88-3.7-1.88-1.84 0-3.15 1.8-1.37 1.7-1.37 4.13V23.2h-3.83V4H113z" word-spacing="0" letter-spacing="0" style="line-height:125%;-inkscape-font-specification:'Gill Sans MT, Normal';text-align:center" font-family="Gill Sans MT" text-anchor="middle"/><path fill="none" stroke="#4f81bd" stroke-width="14.275" d="M764.1 283.15c-34.77 0-39.4-15.27-86.94-84"/><path fill="none" stroke="#4f81bd" stroke-width="14.275" d="M549.97 54.52c34.78 0 39.4 15.3 86.94 84.03"/><path fill="none" stroke="#4f81bd" stroke-width="14.275" d="M635 135.66L678.4 201"/><path fill="#4f81bd" stroke="#fff" stroke-width="1.427" d="M670.03 188.66l-17.23-8.42-17.24-8.4 32.9-20.48.78 18.65z" stroke-linejoin="round"/><path fill="none" stroke="#4f81bd" stroke-width="14.275" d="M646.9 153.6l7.85 11.8"/><path fill="none" stroke="#4f81bd" stroke-width="14.275" d="M762.67 282.92H863.9" stroke-linecap="round"/><path fill="none" stroke="#c0504d" stroke-width="14.403" d="M479.83 54.52H885.8" stroke-linecap="round"/><path fill="#4f81bd" stroke="#fff" stroke-width="1.427" d="M814.25 283.2l-16.58 9.66-16.58 9.66 1.22-38.72 15.97 9.7z" stroke-linejoin="round"/><path fill="none" stroke="#4f81bd" stroke-width="14.275" d="M771.1 282.92h14.13"/><path fill="none" stroke="#c0504d" stroke-width="14.403" d="M637 54.52h405.92" stroke-linecap="round"/><path fill="#c0504d" stroke="#fff" stroke-width="1.427" d="M814.25 54.8l-16.58 9.66-16.58 9.66 1.22-38.72 15.97 9.7z" stroke-linejoin="round"/><path fill="none" stroke="#c0504d" stroke-width="14.275" d="M771.1 54.52h14.13"/><path fill="#4f81bd" d="M508.92 268.36h3.83v29.18h-8.14q-4.27 0-6.84-2.68-2.52-2.7-2.52-7.25 0-4.22 2.66-6.96 2.68-2.74 6.85-2.74 1.9 0 4.17.8v-10.36zm0 25.93v-12.2q-1.8-.86-3.6-.86-2.85 0-4.57 1.86-1.65 1.85-1.65 5.02 0 3 1.43 4.57.9 1 1.9 1.3.98.34 3.52.34h2.97z" word-spacing="0" letter-spacing="0" style="line-height:125%;-inkscape-font-specification:'Gill Sans MT, Normal';text-align:center" font-family="Gill Sans MT" text-anchor="middle"/><path fill="#4f81bd" d="M534.3 288.26h-13.53q.1 2.77 1.8 4.4 1.7 1.66 4.42 1.66 3.76 0 6.93-2.35v3.72q-1.7 1.13-3.43 1.7-1.7.48-4.08.48-3.14 0-5.14-1.34-2-1.3-3.14-3.5-1.14-2.3-1.14-5.15 0-4.43 2.45-7.15 2.5-2.8 6.46-2.8 3.8 0 6.1 2.7 2.27 2.65 2.27 7.13v.48zm-13.42-2.28h9.65q-.1-2.28-1.34-3.5-1.2-1.24-3.26-1.24-2.1 0-3.43 1.26-1.25 1.22-1.65 3.5z" word-spacing="0" letter-spacing="0" style="line-height:125%;-inkscape-font-specification:'Gill Sans MT, Normal';text-align:center" font-family="Gill Sans MT" text-anchor="middle"/><path fill="#4f81bd" d="M549.5 278.36h4.13l-8.5 19.52h-1.27l-8.7-19.55h4.17l5.13 11.8 5-11.83z" word-spacing="0" letter-spacing="0" style="line-height:125%;-inkscape-font-specification:'Gill Sans MT, Normal';text-align:center" font-family="Gill Sans MT" text-anchor="middle"/><path fill="#4f81bd" d="M555.48 286.06h10.43v4.06H555.5v-4.08z" word-spacing="0" letter-spacing="0" style="line-height:125%;-inkscape-font-specification:'Gill Sans MT, Normal';text-align:center" font-family="Gill Sans MT" text-anchor="middle"/><path fill="#4f81bd" d="M578.52 267.96q4 0 6.63 4.23 2.62 4.2 2.62 10.67 0 6.65-2.62 10.85-2.57 4.14-6.8 4.14-4.28 0-6.85-4.1-2.57-4.07-2.57-10.84 0-6.62 2.7-10.8 2.64-4.16 6.9-4.16zm0 4h-.17q-2.4 0-3.82 2.94-1.43 2.9-1.43 8 0 5.13 1.43 8.13 1.37 2.94 3.8 2.94 2.42 0 3.82-2.94 1.37-2.97 1.37-8 0-5.13-1.37-8.1-1.34-3-3.63-3z" word-spacing="0" letter-spacing="0" style="line-height:125%;-inkscape-font-specification:'Gill Sans MT, Normal';text-align:center" font-family="Gill Sans MT" text-anchor="middle"/><path fill="#4f81bd" d="M597.7 268.36h4.2v29.18h-4.16v-29.2z" word-spacing="0" letter-spacing="0" style="line-height:125%;-inkscape-font-specification:'Gill Sans MT, Normal';text-align:center" font-family="Gill Sans MT" text-anchor="middle"/><path fill="#4f81bd" d="M612.16 286.06h10.45v4.06h-10.4v-4.08z" word-spacing="0" letter-spacing="0" style="line-height:125%;-inkscape-font-specification:'Gill Sans MT, Normal';text-align:center" font-family="Gill Sans MT" text-anchor="middle"/><path fill="#4f81bd" d="M629 270.22q.97 0 1.63.66.68.62.68 1.57 0 .94-.64 1.6-.66.65-1.6.65-.86 0-1.52-.68-.68-.72-.68-1.63 0-.87.68-1.55.66-.72 1.55-.72zm-1.85 8.1h3.8v19.2h-3.8V278.3z" word-spacing="0" letter-spacing="0" style="line-height:125%;-inkscape-font-specification:'Gill Sans MT, Normal';text-align:center" font-family="Gill Sans MT" text-anchor="middle"/><path fill="#4f81bd" d="M640.22 278.36v2.4q2.57-2.86 5.8-2.86 1.8 0 3.34.97 1.57.94 2.34 2.57.85 1.6.85 5.14v10.96h-3.82v-10.9q0-3-.86-4.3-.9-1.2-3.02-1.2-2.72 0-4.57 2.67v13.77h-3.9v-19.2h3.87z" word-spacing="0" letter-spacing="0" style="line-height:125%;-inkscape-font-specification:'Gill Sans MT, Normal';text-align:center" font-family="Gill Sans MT" text-anchor="middle"/><path fill="#4f81bd" d="M655.15 281.35l7.14-7.02v4h6.07v3.42h-6.1v9.43q0 3.28 2.73 3.28 2.06 0 4.34-1.43v3.6q-2.2 1.25-4.8 1.25-2.62 0-4.33-1.5-.56-.47-.9-1-.35-.58-.58-1.52-.28-.94-.28-3.57v-8.52h-3.32v-.43z" word-spacing="0" letter-spacing="0" style="line-height:125%;-inkscape-font-specification:'Gill Sans MT, Normal';text-align:center" font-family="Gill Sans MT" text-anchor="middle"/><path fill="#4f81bd" d="M676.22 278.36v4.36l.2-.34q2.8-4.42 5.57-4.42 2.13 0 4.47 2.17l-2 3.42q-2-1.9-3.7-1.9-1.84 0-3.15 1.7-1.37 1.8-1.37 4.2v10.05h-3.82v-19.2h3.82z" word-spacing="0" letter-spacing="0" style="line-height:125%;-inkscape-font-specification:'Gill Sans MT, Normal';text-align:center" font-family="Gill Sans MT" text-anchor="middle"/><path fill="#4f81bd" d="M697.24 278.27q4.42 0 7.33 2.86 2.9 2.85 2.9 7.13 0 4.1-2.95 6.86-2.97 2.76-7.43 2.76-4.35 0-7.26-2.76-2.9-2.86-2.9-7 0-4.22 2.93-7.02 2.94-2.86 7.37-2.86zm-.18 3.43q-2.74 0-4.48 1.8-1.77 1.8-1.77 4.56 0 2.77 1.8 4.57 1.8 1.7 4.64 1.7 2.8 0 4.56-1.76 1.8-1.77 1.8-4.56 0-2.7-1.85-4.5-1.86-1.8-4.7-1.8z" word-spacing="0" letter-spacing="0" style="line-height:125%;-inkscape-font-specification:'Gill Sans MT, Normal';text-align:center" font-family="Gill Sans MT" text-anchor="middle"/><rect width="57.1" height="57.1" x="406.475" y="-46.511" fill="#f05133" rx="4.999" ry="4.999"/><path fill="#fff" d="M442.4-16.82h-15.03v15.9h5.43q.45 0 .65.5.23.45.3 1.05.07.57-.13 1.08-.17.44-.57.44h-13.93q-.43 0-.7-.43-.13-.48-.13-1.05.05-.57.28-1.02.34-.5.85-.5h3.14v-34.08h-4.48q-.44 0-.7-.43-.16-.5-.16-1.05 0-.57.17-1.03.2-.5.7-.5h12.2q.5 0 .75.5.3.43.3 1.06 0 .57-.3 1.08-.28.43-.68.43h-2.97v15.25h15V-34.9h-4.58q-.46 0-.7-.42-.2-.5-.2-1.06 0-.57.2-1.02.27-.5.67-.5h12.4q.5 0 .75.5.3.42.23 1.05 0 .57-.28 1.1-.3.42-.77.42h-2.86V-.75h4.68q.43 0 .7.5.22.45.22 1.05 0 .57-.23 1.08-.2.43-.63.43h-13.4q-.58 0-.72-.42-.17-.48-.17-1.06.1-.57.3-1.02.28-.5.7-.5h3.72V-16.6z" word-spacing="0" letter-spacing="0" style="line-height:125%;-inkscape-font-specification:'Triplicate T4c, Normal';text-align:start" font-family="Triplicate T4c"/><circle cx="892.577" cy="282.925" r="21.413" fill="none" stroke="#4f81bd" stroke-width="14.275" stroke-linecap="round"/><path fill="none" stroke="#4f81bd" stroke-width="14.275" d="M849.75 282.92h22.84"/><path fill="none" stroke="#4f81bd" stroke-width="14.275" d="M912.56 282.92h22.84"/><path fill="none" stroke="#4f81bd" stroke-width="14.275" d="M927.75 282.92h115.23" stroke-linecap="round"/><rect width="211.27" height="45.68" x="786.942" y="327.177" fill="#f8f8f8" stroke="#ddd" stroke-width="2.855" ry="4" rx="4" stroke-linecap="round" stroke-linejoin="round"/><path fill="#404030" d="M817.63 349.67q2.28.7 3.7 2.57 1.44 1.86 1.44 4.34 0 1.8-.7 3.34-.73 1.52-2.1 2.63-1.34 1.1-3.3 1.7-1.95.67-4.44.67-1.7 0-3.85-.5-2.17-.44-4.14-1.78-.34-.23-.34-.66 0-.46.28-.86.23-.4.57-.57.4-.28.78-.08 1.42.85 2.9 1.42 1.5.45 3.72.45 3.03 0 4.85-1.43 1.92-1.48 1.92-4.28 0-2.74-1.63-4.2-1.6-1.42-4-1.42h-1.92q-.34 0-.5-.37-.13-.38-.13-.78 0-.45.14-.85.16-.37.48-.37h2q.68 0 1.42-.23.66-.3 1.23-.86.63-.57 1.03-1.48.37-.97.37-2.34 0-2.74-1.14-4-1.15-1.2-2.87-1.2-1.6 0-2.42.66-.85.68-.93 1.77-.1 1.25-.72 1.8-.57.57-1.57.57-1.03 0-1.43-.46-.37-.43-.37-1.14 0-.72.5-1.6.47-.86 1.42-1.6 1.05-.8 2.45-1.3 1.43-.58 3.34-.58 1.42 0 2.85.45 1.34.44 2.4 1.27 1.05.86 1.7 2.17.66 1.28.66 3.05 0 1.88-1.13 3.42-1.14 1.5-2.65 2.17v.5z" word-spacing="0" letter-spacing="0" style="line-height:125%;-inkscape-font-specification:'Triplicate T4c, Normal';text-align:start" font-family="Triplicate T4c"/><path fill="#404030" d="M833.62 338.48q.06-.7.4-.94.43-.28 1.03-.28h8.73q.86 0 1.5-.12.67-.08 1.27-.23.52-.07.72.44.28.5.08 1.14-.1.57-.74 1.14-.56.58-1.85.58h-8.85l-.43 6.56.58.34q.5-.28 1.42-.48.86-.2 2.3-.2 1.7 0 3.33.57 1.62.48 2.97 1.53 1.3 1.1 2.1 2.7.87 1.64.87 3.8 0 2.1-.95 3.87-.86 1.8-2.58 3.14-1.62 1.34-4.05 2.1-2.37.75-5.3.75-.8 0-1.67-.07-.8-.05-1.57-.22-.74-.14-1.42-.34-.56-.2-.96-.45-.35-.28-.35-.7.05-.5.28-.86.2-.4.57-.66.37-.3.74-.06.56.43 1.8.72 1.2.28 3.05.28 1.7 0 3.28-.57 1.57-.5 2.7-1.43 1.2-1 1.87-2.28.68-1.43.68-3.14 0-2.7-1.8-4.48-1.7-1.72-5.42-1.72-1.23 0-2.1.23-.87.3-1.53.57-.4.3-.9-.08-.52-.43-.47-.86l.66-10.28z" word-spacing="0" letter-spacing="0" style="line-height:125%;-inkscape-font-specification:'Triplicate T4c, Normal';text-align:start" font-family="Triplicate T4c"/><path fill="#404030" d="M873.1 355.5h2.72q.57 0 .85.4.23.37.2.85 0 .38-.28.75-.2.4-.58.4h-2.86v6.45q0 .28-.5.48-.5.18-1.07.18-.58 0-1.04-.14-.45-.14-.45-.5v-6.43h-11.7q-.5 0-.7-.58-.3-.57-.36-1.25 0-.72 0-1.34.1-.66.18-.86 2.68-4.05 4.9-8.17 2.2-4.14 3.35-8.5.14-.57.74-.7.64-.22 1.35-.13.7.06 1.23.34.57.3.45.66-.62 2.08-1.7 4.28-1.04 2.17-2.35 4.37-1.34 2.2-2.8 4.28-1.42 2.1-2.8 3.9v1.3h10.17v-7.65q0-.3.48-.5.52-.16 1.06-.13.56 0 1.05.23.48.14.48.48v7.57z" word-spacing="0" letter-spacing="0" style="line-height:125%;-inkscape-font-specification:'Triplicate T4c, Normal';text-align:start" font-family="Triplicate T4c"/><path fill="#404030" d="M891.58 361.72v-16.7H888q-.48 0-.7-.2-.24-.28-.24-.57 0-.4.15-.7.18-.33.5-.44.85-.28 1.53-.7.78-.4 1.35-1.03.57-.7 1-1.72.45-1 .74-2.57.05-.22.57-.28.45-.12.96 0 .57.06.97.28.46.23.4.66-.1.57-.1 1.83-.07 1.25-.07 2.97v19.18l5.5.4q.4 0 .52.34.23.35.23.72 0 .4-.22.74-.17.3-.48.3h-14.2q-.28 0-.42-.3-.1-.34-.1-.7 0-.36.13-.7.2-.34.46-.34l5.14-.4z" word-spacing="0" letter-spacing="0" style="line-height:125%;-inkscape-font-specification:'Triplicate T4c, Normal';text-align:start" font-family="Triplicate T4c"/><path fill="#404030" d="M924.15 343.74q0-2.37-1.43-3.66-1.34-1.34-3.34-1.34-1.14 0-2.17.37-1.04.38-1.53 1.38v2.1q0 1.16-.8 1.73-.74.44-1.48.44-1.87 0-1.87-1.63 0-1.2.63-2.36.66-1.14 1.8-2.1 1.14-.9 2.77-1.4 1.6-.64 3.42-.64 1.43 0 2.86.48 1.44.46 2.58 1.37 1.14.86 1.8 2.23.7 1.34.7 3.14 0 1.37-.85 3.03-.85 1.65-2.22 3.42-1.3 1.72-2.93 3.37-1.6 1.72-3.14 3.14-1.5 1.43-2.72 2.46-1.27 1-1.84 1.43l.28.57h9.43q1.3 0 1.85-.37.57-.4.9-.86.16-.16.64-.16.52 0 1 .1.52.16.86.4.34.2.23.5l-1.15 2.57q-.28.58-.57.7-.22.08-.77.08h-15.7q-.3 0-.5-.37-.24-.4-.38-.9-.15-.5-.15-.98 0-.45.17-.57 2.46-2 4.86-4.28 2.45-2.2 4.4-4.57 2-2.28 3.13-4.57 1.25-2.22 1.25-4.22z" word-spacing="0" letter-spacing="0" style="line-height:125%;-inkscape-font-specification:'Triplicate T4c, Normal';text-align:start" font-family="Triplicate T4c"/><path fill="#404030" d="M950.56 343.74q0-2.37-1.43-3.66-1.34-1.34-3.34-1.34-1.15 0-2.2.37-1.1.38-1.58 1.38v2.1q0 1.16-.8 1.73-.74.44-1.48.44-1.86 0-1.86-1.63 0-1.2.63-2.36.67-1.14 1.8-2.1 1.2-.9 2.78-1.4 1.6-.64 3.43-.64 1.43 0 2.86.48 1.43.46 2.57 1.37 1.14.86 1.83 2.23.68 1.34.68 3.14 0 1.37-.85 3.03-.87 1.65-2.24 3.42-1.3 1.72-2.94 3.37-1.63 1.72-3.14 3.14-1.52 1.43-2.74 2.46-1.23 1-1.8 1.43l.28.57h9.48q1.26 0 1.8-.37.57-.4.9-.86.16-.16.64-.16.5 0 .97.1.58.16.87.4.4.2.3.5l-1.16 2.57q-.27.58-.56.7-.28.08-.77.08h-15.8q-.27 0-.47-.37-.23-.4-.34-.9-.15-.5-.15-.98 0-.45.18-.57 2.43-2 4.86-4.28 2.42-2.2 4.37-4.57 1.95-2.28 3.15-4.57 1.22-2.22 1.22-4.22z" word-spacing="0" letter-spacing="0" style="line-height:125%;-inkscape-font-specification:'Triplicate T4c, Normal';text-align:start" font-family="Triplicate T4c"/><path fill="#404030" d="M976.97 343.74q0-2.37-1.43-3.66-1.34-1.34-3.3-1.34-1.15 0-2.2.37-1.07.38-1.55 1.38v2.1q0 1.16-.78 1.73-.74.44-1.5.44-1.87 0-1.87-1.63 0-1.2.63-2.36.65-1.14 1.8-2.1 1.2-.9 2.8-1.4 1.56-.64 3.42-.64 1.43 0 2.85.48 1.38.46 2.52 1.37 1.14.86 1.85 2.23.75 1.34.75 3.14 0 1.37-.86 3.03-.85 1.65-2.22 3.42-1.34 1.72-2.97 3.37-1.56 1.72-3.13 3.14-1.48 1.43-2.7 2.46-1.27 1-1.84 1.43l.3.57h9.4q1.32 0 1.84-.37.57-.4.94-.86.12-.16.58-.16.57 0 1.06.1.5.16.85.4.36.2.22.5l-1.14 2.57q-.3.58-.5.7-.3.08-.8.08h-15.8q-.3 0-.52-.37-.2-.4-.34-.9t-.14-.98q0-.45.2-.57 2.4-2 4.85-4.28 2.4-2.2 4.34-4.57 2-2.28 3.14-4.57 1.27-2.22 1.27-4.22z" word-spacing="0" letter-spacing="0" style="line-height:125%;-inkscape-font-specification:'Triplicate T4c, Normal';text-align:start" font-family="Triplicate T4c"/><path fill="#404030" d="M121 170.5q.58 0 .98.37.43.37.43.9 0 .52-.4.87-.36.42-.93.42-.52 0-.92-.4-.4-.37-.4-.85 0-.56.43-.9.4-.4.92-.4zm-1.13 4.56h2.28V186h-2.28v-10.9z" word-spacing="0" letter-spacing="0" style="line-height:125%;-inkscape-font-specification:'Gill Sans MT, Normal';text-align:start" font-family="Gill Sans MT"/><path fill="#404030" d="M127.75 175.1v1.42q1.54-1.63 3.48-1.63 1.06 0 2 .5.94.58 1.43 1.43.45.94.45 2.94V186h-2.27v-6.2q0-1.7-.5-2.4-.53-.7-1.8-.7-1.67 0-2.78 1.47v7.8h-2.34v-10.9h2.38z" word-spacing="0" letter-spacing="0" style="line-height:125%;-inkscape-font-specification:'Gill Sans MT, Normal';text-align:start" font-family="Gill Sans MT"/><path fill="#404030" d="M146.02 169.44h2.28V186h-4.85q-2.57 0-4.1-1.52-1.55-1.54-1.55-4.1 0-2.4 1.6-4 1.6-1.52 4.08-1.52 1.14 0 2.5.46v-5.85zm0 14.7v-6.9q-1.08-.52-2.17-.52-1.7 0-2.7 1.05-1 1.06-1 2.86 0 1.7.85 2.57.57.57 1.14.77.57.17 2.1.17h1.8z" word-spacing="0" letter-spacing="0" style="line-height:125%;-inkscape-font-specification:'Gill Sans MT, Normal';text-align:start" font-family="Gill Sans MT"/><path fill="#404030" d="M161.24 180.72h-8.1q.08 1.6 1.13 2.5 1 .92 2.57.92 2.3 0 4.2-1.3v2.1q-1.1.66-2.1.94-1.04.3-2.44.3-1.9 0-3.06-.73-1.14-.74-1.88-2-.7-1.28-.7-2.93 0-2.5 1.47-4.06 1.5-1.54 3.88-1.54 2.3 0 3.72 1.5 1.32 1.5 1.32 4v.3zm-8.05-1.26h5.78q-.08-1.3-.8-2-.77-.7-2-.7-1.22 0-2 .73-.8.67-1.02 2z" word-spacing="0" letter-spacing="0" style="line-height:125%;-inkscape-font-specification:'Gill Sans MT, Normal';text-align:start" font-family="Gill Sans MT"/><path fill="#404030" d="M171.7 175.1h2.9l-4.74 5.36 5.08 5.57h-2.9l-3.64-3.92-3.42 3.93h-2.86l4.86-5.54-4.86-5.35h2.86l3.42 3.7 3.3-3.7z" word-spacing="0" letter-spacing="0" style="line-height:125%;-inkscape-font-specification:'Gill Sans MT, Normal';text-align:start" font-family="Gill Sans MT"/><path fill="#404030" d="M177.74 183.37q.63 0 1.08.4.46.43.46 1.03 0 .57-.46 1-.42.4-1.08.4-.63 0-1.1-.4-.4-.4-.4-1 0-.57.44-1.03.46-.4 1.1-.4z" word-spacing="0" letter-spacing="0" style="line-height:125%;-inkscape-font-specification:'Gill Sans MT, Normal';text-align:start" font-family="Gill Sans MT"/><path fill="#404030" d="M182.14 169.44h2.28v7.08q1.43-1.63 3.54-1.63 1.14 0 2.08.56.92.52 1.35 1.43.44 1 .44 2.9v6.2h-2.28v-6.74q0-1.23-.63-1.94-.63-.74-1.63-.74-.77 0-1.42.37-.7.34-1.5 1.14v7.84h-2.27v-16.56z" word-spacing="0" letter-spacing="0" style="line-height:125%;-inkscape-font-specification:'Gill Sans MT, Normal';text-align:start" font-family="Gill Sans MT"/><path fill="#404030" d="M193.4 176.83l4.3-4v2.3h3.65v1.9h-3.63v5.43q0 1.82 1.66 1.82 1.26 0 2.63-.77v2q-1.3.73-2.85.73-1.6 0-2.62-.86-.35-.3-.58-.57-.2-.34-.34-.86-.13-.57-.13-2v-4.85h-2v-.24z" word-spacing="0" letter-spacing="0" style="line-height:125%;-inkscape-font-specification:'Gill Sans MT, Normal';text-align:start" font-family="Gill Sans MT"/><path fill="#404030" d="M213.08 178.1v7.9h-2.28v-6.06q0-1.82-.57-2.56-.5-.7-1.77-.7-.7 0-1.3.3-.58.28-1.36 1.08v7.9h-2.28v-10.9h2.28v1.43q1.72-1.64 3.43-1.64 2.17 0 3.37 2 1.85-2 3.82-2 1.66 0 2.75 1.14 1.08 1.15 1.08 3.54v6.43h-2.28v-6.45q0-1.43-.57-2.12-.58-.74-1.72-.74-1.42 0-2.62 1.37z" word-spacing="0" letter-spacing="0" style="line-height:125%;-inkscape-font-specification:'Gill Sans MT, Normal';text-align:start" font-family="Gill Sans MT"/><path fill="#404030" d="M223.48 169.44h2.28V186h-2.28v-16.56z" word-spacing="0" letter-spacing="0" style="line-height:125%;-inkscape-font-specification:'Gill Sans MT, Normal';text-align:start" font-family="Gill Sans MT"/><path fill="#404030" d="M243.43 179.46v4.62q0 .58.4.58t1.3-.58v1.3q-.8.47-1.27.65-.46.17-.97.17-1.44 0-1.72-1.1-1.43 1.07-3.14 1.07-1.14 0-2-.72-.77-.77-.77-1.9 0-1.04.74-1.84.8-.84 2.24-1.27l2.94-.97v-.57q0-2-2.1-2-1.87 0-3.64 1.82v-2.34q1.34-1.5 3.82-1.5 1.9 0 3 .92.37.3.7.8.27.5.33.98.08.48.08 1.88zm-2.22 4.4v-3.26l-1.54.57q-1.14.43-1.65.86-.48.46-.48 1.14 0 .66.46 1.1.46.4 1.2.4 1.08 0 2-.84z" word-spacing="0" letter-spacing="0" style="line-height:125%;-inkscape-font-specification:'Gill Sans MT, Normal';text-align:start" font-family="Gill Sans MT"/><path fill="#404030" d="M254.88 169.44h2.3V186h-4.87q-2.56 0-4.1-1.52-1.5-1.54-1.5-4.1 0-2.4 1.56-4 1.6-1.52 4.08-1.52 1.14 0 2.5.46v-5.85zm0 14.7v-6.9q-1.05-.52-2.14-.52-1.7 0-2.7 1.05-1 1.06-1 2.86 0 1.7.85 2.57.56.57 1.13.77.57.17 2.1.17h1.78z" word-spacing="0" letter-spacing="0" style="line-height:125%;-inkscape-font-specification:'Gill Sans MT, Normal';text-align:start" font-family="Gill Sans MT"/><path fill="#404030" d="M267.76 169.44h2.28V186h-4.85q-2.58 0-4.12-1.52-1.52-1.54-1.52-4.1 0-2.4 1.6-4 1.6-1.52 4.1-1.52 1.13 0 2.47.46v-5.85zm0 14.7v-6.9q-1.06-.52-2.14-.52-1.72 0-2.74 1.05-1 1.06-1 2.86 0 1.7.9 2.57.52.57 1.15.77.57.17 2.1.17h1.76z" word-spacing="0" letter-spacing="0" style="line-height:125%;-inkscape-font-specification:'Gill Sans MT, Normal';text-align:start" font-family="Gill Sans MT"/><path fill="#404030" d="M283.03 180.72h-8.13q.08 1.6 1.14 2.5 1 .92 2.62.92 2.23 0 4.14-1.3v2.1q-1.05.66-2.1.94-1 .3-2.4.3-1.92 0-3.1-.73-1.13-.74-1.87-2-.72-1.28-.72-2.93 0-2.5 1.5-4.06 1.48-1.54 3.85-1.54 2.28 0 3.7 1.5 1.35 1.5 1.35 4v.3zm-8.08-1.26h5.74q-.1-1.3-.8-2-.75-.7-2-.7-1.2 0-2 .73-.78.67-1 2z" word-spacing="0" letter-spacing="0" style="line-height:125%;-inkscape-font-specification:'Gill Sans MT, Normal';text-align:start" font-family="Gill Sans MT"/><path fill="#404030" d="M293.2 169.44h2.28V186h-4.85q-2.57 0-4.1-1.52-1.53-1.54-1.53-4.1 0-2.4 1.6-4 1.63-1.52 4.1-1.52 1.15 0 2.52.46v-5.85zm0 14.7v-6.9q-1.1-.52-2.17-.52-1.72 0-2.72 1.05-1 1.06-1 2.86 0 1.7.9 2.57.57.57 1.14.77.57.17 2.1.17h1.78z" word-spacing="0" letter-spacing="0" style="line-height:125%;-inkscape-font-specification:'Gill Sans MT, Normal';text-align:start" font-family="Gill Sans MT"/><path fill="#404030" d="M119.27 215.55v-2.3q.97.64 2 1.04 1 .4 1.7.4t1.2-.35q.52-.3.52-.8 0-.46-.35-.77-.28-.3-1.43-.92-2.2-1.14-2.85-1.94-.72-.85-.72-1.8 0-1.3 1-2.08 1.03-.8 2.7-.8 1.64 0 3.4.86v2.14q-1.98-1.14-3.3-1.14-.65 0-1.08.28-.4.23-.4.7 0 .33.37.67t1.28.86l.86.4q2.85 1.55 2.85 3.43 0 1.35-1.14 2.2-1.1.86-2.86.86-1 0-1.8-.2t-2-.78z" word-spacing="0" letter-spacing="0" style="line-height:125%;-inkscape-font-specification:'Gill Sans MT, Normal';text-align:start" font-family="Gill Sans MT"/><path fill="#404030" d="M128.12 207.18l4.28-4v2.3h3.66v1.9h-3.66v5.37q0 1.85 1.66 1.85 1.23 0 2.57-.77v2q-1.32.72-2.86.72-1.57 0-2.62-.86-.3-.3-.52-.58-.23-.34-.37-.86-.1-.57-.1-2v-4.85h-2v-.22z" word-spacing="0" letter-spacing="0" style="line-height:125%;-inkscape-font-specification:'Gill Sans MT, Normal';text-align:start" font-family="Gill Sans MT"/><path fill="#404030" d="M145.36 205.44h2.57l-8.16 16.47h-2.57l4-7.87-4.52-8.56h2.57l3.14 6.14 2.96-6.16z" word-spacing="0" letter-spacing="0" style="line-height:125%;-inkscape-font-specification:'Gill Sans MT, Normal';text-align:start" font-family="Gill Sans MT"/><path fill="#404030" d="M149.65 199.8h2.28v16.55h-2.28V199.8z" word-spacing="0" letter-spacing="0" style="line-height:125%;-inkscape-font-specification:'Gill Sans MT, Normal';text-align:start" font-family="Gill Sans MT"/><path fill="#404030" d="M165 211.1h-8.1q.08 1.56 1.14 2.48 1 .97 2.57.97 2.3 0 4.2-1.34v2.12q-1.02.68-2.05.97-1.03.27-2.43.27-1.9 0-3.08-.74-1.14-.74-1.88-2-.75-1.28-.75-2.94 0-2.5 1.5-4 1.5-1.6 3.88-1.6 2.3 0 3.66 1.48 1.37 1.5 1.37 4.06v.28zm-8.04-1.3h5.8q-.12-1.33-.87-2-.72-.73-1.95-.73-1.22 0-2 .7-.8.67-1.02 2z" word-spacing="0" letter-spacing="0" style="line-height:125%;-inkscape-font-specification:'Gill Sans MT, Normal';text-align:start" font-family="Gill Sans MT"/><path fill="#404030" d="M169.15 213.72q.65 0 1.14.4.4.43.4 1.03 0 .57-.44 1-.46.42-1.14.42-.57 0-1.03-.4-.47-.37-.47-.97 0-.57.46-1.02.42-.4 1.05-.4z" word-spacing="0" letter-spacing="0" style="line-height:125%;-inkscape-font-specification:'Gill Sans MT, Normal';text-align:start" font-family="Gill Sans MT"/><path fill="#404030" d="M182.25 213.83v2.12q-1.7.57-3.37.57-2.7 0-4.28-1.5-1.63-1.5-1.63-4.07 0-2.57 1.54-4.17 1.6-1.57 4.18-1.57.86 0 1.6.15.7.15 1.7.58v2.28q-1.7-1.02-3.13-1.02-1.57 0-2.57 1.03-1 1-1 2.58 0 1.7 1.1 2.68 1.07.97 2.84.97 1.35 0 3.06-.7z" word-spacing="0" letter-spacing="0" style="line-height:125%;-inkscape-font-specification:'Gill Sans MT, Normal';text-align:start" font-family="Gill Sans MT"/><path fill="#404030" d="M184.28 215.55v-2.3q.97.64 2 1.04 1 .4 1.7.4t1.2-.35q.52-.3.52-.8 0-.46-.34-.77-.3-.3-1.43-.92-2.17-1.14-2.85-1.94-.7-.85-.7-1.8 0-1.3 1.04-2.08 1.03-.8 2.65-.8 1.72 0 3.5.86v2.14q-2-1.14-3.32-1.14-.66 0-1.06.28-.4.23-.4.7 0 .33.28.67.42.34 1.34.86l.85.4q2.86 1.55 2.86 3.43 0 1.35-1.14 2.2-1.1.86-2.87.86-1 0-1.8-.2t-2-.78z" word-spacing="0" letter-spacing="0" style="line-height:125%;-inkscape-font-specification:'Gill Sans MT, Normal';text-align:start" font-family="Gill Sans MT"/><path fill="#404030" d="M194.18 215.55v-2.3q.95.64 1.95 1.04 1.02.4 1.7.4.72 0 1.24-.35.57-.3.57-.8 0-.46-.37-.77-.3-.3-1.43-.92-2.2-1.14-2.86-1.94-.7-.85-.7-1.8 0-1.3 1.02-2.08 1.03-.8 2.68-.8 1.7 0 3.43.86v2.14q-2-1.14-3.28-1.14-.65 0-1.08.28-.43.23-.43.7 0 .33.38.67.37.34 1.3.86l.84.4q2.86 1.55 2.86 3.43 0 1.35-1.14 2.2-1.1.86-2.86.86-1 0-1.8-.2t-2-.78z" word-spacing="0" letter-spacing="0" style="line-height:125%;-inkscape-font-specification:'Gill Sans MT, Normal';text-align:start" font-family="Gill Sans MT"/><path fill="#404030" d="M219.02 209.84v4.56q0 .58.37.58.42 0 1.28-.58v1.32q-.77.48-1.23.65-.48.15-1 .15-1.43 0-1.7-1.1-1.44 1.07-3.15 1.07-1.14 0-2-.75-.77-.77-.77-1.9 0-1.04.77-1.84t2.23-1.28l2.9-.94v-.63q0-2-2.08-2-1.85 0-3.62 1.86v-2.33q1.34-1.43 3.82-1.43 1.9 0 3 .86.35.34.66.85.3.46.38.97.1.5.1 1.86zm-2.28 4.36v-3.25l-1.5.57q-1.16.4-1.67.86-.5.43-.5 1.14 0 .63.44 1.06.47.42 1.2.42 1.1 0 2-.85z" word-spacing="0" letter-spacing="0" style="line-height:125%;-inkscape-font-specification:'Gill Sans MT, Normal';text-align:start" font-family="Gill Sans MT"/><path fill="#404030" d="M230.44 199.8h2.3v16.55h-4.87q-2.57 0-4.1-1.52-1.52-1.54-1.52-4.1 0-2.38 1.6-3.95 1.57-1.54 4.05-1.54 1.14 0 2.5.46v-5.88zm0 14.72v-6.94q-1.05-.46-2.17-.46-1.7 0-2.7 1.06-1.04 1.1-1.04 2.86 0 1.7.86 2.57.56.58 1.13.78.57.2 2.1.2h1.78z" word-spacing="0" letter-spacing="0" style="line-height:125%;-inkscape-font-specification:'Gill Sans MT, Normal';text-align:start" font-family="Gill Sans MT"/><path fill="#404030" d="M243.3 199.8h2.27v16.55h-4.85q-2.57 0-4.08-1.52-1.5-1.54-1.5-4.1 0-2.38 1.58-3.95 1.6-1.54 4.1-1.54 1.13 0 2.5.46v-5.88zm0 14.72v-6.94q-1.04-.46-2.15-.46-1.7 0-2.7 1.06-1 1.1-1 2.86 0 1.7.84 2.57.57.58 1.14.78.57.2 2.1.2h1.72z" word-spacing="0" letter-spacing="0" style="line-height:125%;-inkscape-font-specification:'Gill Sans MT, Normal';text-align:start" font-family="Gill Sans MT"/><path fill="#404030" d="M258.56 211.1h-8.1q.1 1.56 1.14 2.48 1.03.97 2.63.97 2.28 0 4.16-1.34v2.12q-1.06.68-2.1.97-1.02.27-2.42.27-1.9 0-3.08-.74-1.14-.74-1.9-2-.7-1.28-.7-2.94 0-2.5 1.5-4 1.53-1.6 3.9-1.6 2.28 0 3.62 1.48 1.37 1.5 1.37 4.06v.28zm-8.05-1.3h5.8q-.08-1.33-.8-2-.73-.73-2-.73-1.2 0-2 .7-.76.67-1 2z" word-spacing="0" letter-spacing="0" style="line-height:125%;-inkscape-font-specification:'Gill Sans MT, Normal';text-align:start" font-family="Gill Sans MT"/><path fill="#404030" d="M268.7 199.8h2.34v16.55h-4.85q-2.58 0-4.12-1.52-1.55-1.54-1.55-4.1 0-2.38 1.6-3.95 1.6-1.54 4.1-1.54 1.13 0 2.5.46v-5.88zm0 14.72v-6.94q-1.03-.46-2.1-.46-1.73 0-2.75 1.06-1 1.1-1 2.86 0 1.7.85 2.57.57.58 1.15.78.57.2 2.1.2h1.72z" word-spacing="0" letter-spacing="0" style="line-height:125%;-inkscape-font-specification:'Gill Sans MT, Normal';text-align:start" font-family="Gill Sans MT"/><path fill="#404030" d="M119.9 230.1h2.28v16.62h-2.28v-16.56z" word-spacing="0" letter-spacing="0" style="line-height:125%;-inkscape-font-specification:'Gill Sans MT, Normal';text-align:start" font-family="Gill Sans MT"/><path fill="#404030" d="M130.97 235.82q2.66 0 4.4 1.57 1.7 1.6 1.7 3.98 0 2.4-1.7 4-1.8 1.5-4.48 1.5-2.58 0-4.35-1.56-1.7-1.6-1.7-4 0-2.36 1.7-3.93 1.8-1.6 4.45-1.6zm-.1 1.9q-1.67 0-2.72 1.04-1.03 1-1.03 2.57 0 1.57 1.1 2.57 1.07 1 2.75 1 1.72 0 2.77-1 1.06-1.03 1.06-2.57 0-1.57-1.14-2.57-1.14-1.03-2.8-1.03z" word-spacing="0" letter-spacing="0" style="line-height:125%;-inkscape-font-specification:'Gill Sans MT, Normal';text-align:start" font-family="Gill Sans MT"/><path fill="#404030" d="M139.08 239.6q0-1.73 1.34-2.78 1.35-1 3.72-1h4.74v1.65h-2.37q.72.66.98 1.2.28.57.28 1.23 0 .86-.57 1.7-.5.78-1.32 1.24-.8.43-2.63.7-1.3.2-1.3.84 0 .37.47.63.5.24 1.77.5 2.08.42 2.68.65.63.3 1.14.72.8.8.8 2 0 1.54-1.5 2.45-1.4.9-3.87.9-2.48 0-4-.9-1.42-.94-1.42-2.5 0-2.2 2.85-2.87-1.14-.68-1.14-1.37 0-.57.5-.97.53-.42 1.36-.62-2.57-1.05-2.57-3.42zm4.3-1.93q-.93 0-1.58.57-.66.63-.66 1.43 0 .86.63 1.43.65.57 1.62.57 1 0 1.62-.57.66-.57.66-1.43t-.66-1.43q-.66-.57-1.63-.57zm-.6 9.54q-1.13 0-1.84.47-.74.45-.74 1.14 0 1.72 3.2 1.72 1.5 0 2.34-.43.85-.38.85-1.15 0-.77-1.06-1.26-1.06-.5-2.75-.5z" word-spacing="0" letter-spacing="0" style="line-height:125%;-inkscape-font-specification:'Gill Sans MT, Normal';text-align:start" font-family="Gill Sans MT"/><path fill="#404030" d="M155.93 235.82q2.65 0 4.4 1.57 1.7 1.6 1.7 3.98 0 2.4-1.7 4-1.78 1.5-4.5 1.5-2.56 0-4.33-1.56-1.7-1.6-1.7-4 0-2.36 1.7-3.93 1.8-1.6 4.46-1.6zm-.1 1.9q-1.64 0-2.7 1.04-1.06 1-1.06 2.57 0 1.57 1.1 2.57 1.07 1 2.76 1 1.7 0 2.74-1 1.08-1.03 1.08-2.57 0-1.57-1.14-2.57-1.07-1.03-2.76-1.03z" word-spacing="0" letter-spacing="0" style="line-height:125%;-inkscape-font-specification:'Gill Sans MT, Normal';text-align:start" font-family="Gill Sans MT"/><path fill="#404030" d="M165.06 244.1q.63 0 1.1.4.45.4.45 1 0 .57-.45.97-.43.4-1.1.4-.6 0-1.07-.4-.43-.4-.43-1 0-.63.43-1.03.46-.43 1.08-.43z" word-spacing="0" letter-spacing="0" style="line-height:125%;-inkscape-font-specification:'Gill Sans MT, Normal';text-align:start" font-family="Gill Sans MT"/><path fill="#404030" d="M169.35 252.26v-16.44h4q3.13 0 4.85 1.42 1.7 1.43 1.7 4.06 0 2.45-1.65 4-1.6 1.6-4.08 1.6-1.14 0-2.48-.46v5.82h-2.35zm4-14.44h-1.63v6.7q1.05.52 2.2.52 1.62 0 2.62-1.06 1.03-1.05 1.03-2.7 0-1.04-.5-1.87-.44-.84-1.27-1.18-.86-.38-2.43-.38z" word-spacing="0" letter-spacing="0" style="line-height:125%;-inkscape-font-specification:'Gill Sans MT, Normal';text-align:start" font-family="Gill Sans MT"/><path fill="#404030" d="M184.68 235.82v1.37q1.5-1.6 3.42-1.6 1.15 0 2.06.56.86.48 1.37 1.43.48.84.48 2.84v6.28h-2.27v-6.22q0-1.7-.57-2.4-.5-.7-1.77-.7-1.64 0-2.75 1.53v7.76h-2.34v-10.9h2.35z" word-spacing="0" letter-spacing="0" style="line-height:125%;-inkscape-font-specification:'Gill Sans MT, Normal';text-align:start" font-family="Gill Sans MT"/><path fill="#404030" d="M194.64 239.6q0-1.73 1.34-2.78 1.37-1 3.7-1h4.75v1.65h-2.37q.7.66.95 1.2.3.57.3 1.23 0 .86-.58 1.7-.48.78-1.28 1.24-.8.43-2.66.7-1.28.2-1.28.84 0 .37.45.63.5.24 1.77.5 2.12.42 2.72.65.62.3 1.14.72.8.8.8 2 0 1.54-1.43 2.45-1.5.9-3.94.9-2.47 0-4-.9-1.42-.94-1.42-2.5 0-2.2 2.86-2.87-1.14-.68-1.14-1.37 0-.57.5-.97.53-.42 1.35-.62-2.57-1.05-2.57-3.42zm4.28-1.93q-.9 0-1.57.57-.62.63-.62 1.43 0 .86.65 1.43.66.57 1.63.57.98 0 1.6-.57.66-.57.66-1.43t-.65-1.43q-.62-.57-1.62-.57zm-.57 9.54q-1.14 0-1.85.47-.7.45-.7 1.14 0 1.72 3.2 1.72 1.52 0 2.35-.43.86-.38.86-1.15 0-.77-1.05-1.26-1.06-.5-2.74-.5z" word-spacing="0" letter-spacing="0" style="line-height:125%;-inkscape-font-specification:'Gill Sans MT, Normal';text-align:start" font-family="Gill Sans MT"/><path fill="#404030" d="M220.6 240.16v4.62q0 .57.4.57t1.28-.57v1.3q-.8.47-1.26.64-.46.17-.97.17-1.43 0-1.7-1.1-1.44 1.07-3.15 1.07-1.14 0-2-.75-.77-.7-.77-1.85 0-1.03.74-1.86.8-.8 2.23-1.27l2.94-.94v-.6q0-1.98-2.1-1.98-1.87 0-3.64 1.85v-2.37q1.34-1.48 3.82-1.48 1.9 0 3 .9.4.3.7.8.27.5.33 1 .1.5.1 1.87zm-2.23 4.4v-3.23l-1.55.57q-1.14.43-1.65.85-.5.46-.5 1.15 0 .65.47 1.08.46.43 1.2.43 1.08 0 2-.85z" word-spacing="0" letter-spacing="0" style="line-height:125%;-inkscape-font-specification:'Gill Sans MT, Normal';text-align:start" font-family="Gill Sans MT"/><path fill="#404030" d="M232.04 230.1h2.3v16.62h-4.87q-2.57 0-4.1-1.54-1.52-1.54-1.52-4.1 0-2.4 1.57-3.95 1.6-1.57 4.08-1.57 1.14 0 2.5.5v-5.9zm0 14.77v-6.9q-1.05-.53-2.14-.53-1.7 0-2.7 1.06-1 1.06-1 2.86 0 1.65.85 2.57.57.57 1.14.74.56.2 2.1.2h1.77z" word-spacing="0" letter-spacing="0" style="line-height:125%;-inkscape-font-specification:'Gill Sans MT, Normal';text-align:start" font-family="Gill Sans MT"/><path fill="#404030" d="M244.92 230.1h2.28v16.62h-4.85q-2.57 0-4.1-1.54-1.53-1.54-1.53-4.1 0-2.4 1.6-3.95 1.6-1.57 4.1-1.57 1.13 0 2.47.5v-5.9zm0 14.77v-6.9q-1.06-.53-2.14-.53-1.72 0-2.74 1.06-1 1.06-1 2.86 0 1.65.9 2.57.52.57 1.15.74.56.2 2.08.2h1.77z" word-spacing="0" letter-spacing="0" style="line-height:125%;-inkscape-font-specification:'Gill Sans MT, Normal';text-align:start" font-family="Gill Sans MT"/><path fill="#404030" d="M260.2 241.44h-8.14q.08 1.57 1.14 2.5 1 .93 2.62.93 2.23 0 4.14-1.34v2.1q-1.05.66-2.1.95-1 .3-2.4.3-1.9 0-3.1-.76-1.13-.7-1.87-2-.73-1.22-.73-2.9 0-2.5 1.5-4 1.5-1.6 3.87-1.6 2.28 0 3.7 1.5 1.35 1.52 1.35 4.1v.28zm-8.1-1.28h5.8q-.1-1.3-.85-2-.7-.7-1.94-.7-1.22 0-2 .7-.8.7-1.02 2z" word-spacing="0" letter-spacing="0" style="line-height:125%;-inkscape-font-specification:'Gill Sans MT, Normal';text-align:start" font-family="Gill Sans MT"/><path fill="#404030" d="M270.36 230.1h2.28v16.62h-4.85q-2.58 0-4.12-1.54-1.52-1.54-1.52-4.1 0-2.4 1.6-3.95 1.63-1.57 4.1-1.57 1.15 0 2.52.5v-5.9zm0 14.77v-6.9q-1.1-.53-2.17-.53-1.73 0-2.73 1.06t-1 2.86q0 1.65.86 2.57.57.57 1.14.74.57.2 2.12.2h1.76z" word-spacing="0" letter-spacing="0" style="line-height:125%;-inkscape-font-specification:'Gill Sans MT, Normal';text-align:start" font-family="Gill Sans MT"/><rect width="211.27" height="112.772" x="101.742" y="155.163" fill="none" stroke="#ddd" stroke-width="2.855" ry="4" stroke-linecap="round" stroke-linejoin="round" rx="4"/><path fill="#404030" d="M338.25 169.78q.57 0 .97.37t.4.92q0 .5-.4.85-.4.43-.97.43t-.94-.4q-.4-.37-.4-.86 0-.58.38-.92.4-.37.94-.37zm-1.14 4.57h2.3v10.93h-2.3v-10.9z" word-spacing="0" letter-spacing="0" style="line-height:125%;-inkscape-font-specification:'Gill Sans MT, Normal';text-align:start" font-family="Gill Sans MT"/><path fill="#404030" d="M345 174.38v1.42q1.5-1.62 3.4-1.62 1.15 0 2.07.57.9.5 1.42 1.43.45.9.45 2.9v6.23h-2.28v-6.18q0-1.72-.57-2.4-.52-.74-1.77-.74-1.63 0-2.74 1.5v7.8h-2.36v-10.9H345z" word-spacing="0" letter-spacing="0" style="line-height:125%;-inkscape-font-specification:'Gill Sans MT, Normal';text-align:start" font-family="Gill Sans MT"/><path fill="#404030" d="M363.2 168.72h2.34v16.56h-4.85q-2.58 0-4.12-1.5-1.54-1.55-1.54-4.12 0-2.4 1.6-4 1.62-1.5 4.1-1.5 1.15 0 2.5.45v-5.88zm0 14.7v-6.9q-1.03-.52-2.1-.52-1.73 0-2.75 1.06-1 1.06-1 2.86 0 1.7.85 2.57.58.56 1.15.76.57.14 2.1.14h1.72z" word-spacing="0" letter-spacing="0" style="line-height:125%;-inkscape-font-specification:'Gill Sans MT, Normal';text-align:start" font-family="Gill Sans MT"/><path fill="#404030" d="M378.47 180.03h-8.1q.1 1.57 1.14 2.48 1 .93 2.64.93 2.28 0 4.16-1.32v2.1q-1.05.66-2.08.94-1.03.3-2.43.3-1.92 0-3.1-.76-1.2-.74-1.9-2-.7-1.28-.7-2.94 0-2.48 1.52-4.05 1.5-1.55 3.9-1.55 2.27 0 3.6 1.54 1.38 1.5 1.38 4.04v.3zm-8.07-1.28h5.82q-.1-1.3-.86-2-.68-.7-1.9-.7-1.27 0-2.07.73-.78.7-1.03 2z" word-spacing="0" letter-spacing="0" style="line-height:125%;-inkscape-font-specification:'Gill Sans MT, Normal';text-align:start" font-family="Gill Sans MT"/><path fill="#404030" d="M388.9 174.38h2.94l-4.77 5.36 5.14 5.54h-3.02l-3.62-3.9-3.43 3.9h-2.86l4.86-5.54-4.86-5.36h2.86l3.43 3.7 3.28-3.7z" word-spacing="0" letter-spacing="0" style="line-height:125%;-inkscape-font-specification:'Gill Sans MT, Normal';text-align:start" font-family="Gill Sans MT"/><path fill="#404030" d="M394.98 182.66q.62 0 1.08.4.5.42.5 1.02 0 .58-.47 1-.44.4-1.07.4-.65 0-1.08-.4-.46-.4-.46-1 0-.57.42-1.02.43-.4 1.1-.4z" word-spacing="0" letter-spacing="0" style="line-height:125%;-inkscape-font-specification:'Gill Sans MT, Normal';text-align:start" font-family="Gill Sans MT"/><path fill="#404030" d="M399.34 168.72h2.3v7.08q1.42-1.62 3.56-1.62 1.14 0 2.08.57.92.57 1.37 1.48.5.97.5 2.86v6.2h-2.3v-6.73q0-1.2-.62-1.9-.63-.75-1.66-.75-.74 0-1.43.4-.63.37-1.43 1.2v7.82h-2.27v-16.56z" word-spacing="0" letter-spacing="0" style="line-height:125%;-inkscape-font-specification:'Gill Sans MT, Normal';text-align:start" font-family="Gill Sans MT"/><path fill="#404030" d="M410.65 176.15l4.28-4v2.23h3.66v1.94h-3.67v5.37q0 1.84 1.63 1.84 1.23 0 2.57-.8v2q-1.3.7-2.86.7-1.57 0-2.62-.84-.3-.3-.57-.57-.17-.35-.3-.86-.16-.57-.16-2v-4.85h-2v-.23z" word-spacing="0" letter-spacing="0" style="line-height:125%;-inkscape-font-specification:'Gill Sans MT, Normal';text-align:start" font-family="Gill Sans MT"/><path fill="#404030" d="M430.3 177.38v7.9H428v-6.05q0-1.83-.5-2.57-.52-.68-1.8-.68-.75 0-1.35.28-.57.3-1.37 1.14v7.88h-2.28v-10.9h2.28v1.42q1.72-1.62 3.43-1.62 2.2 0 3.44 2 1.8-2 3.8-2 1.7 0 2.76 1.14 1.1 1.14 1.1 3.57v6.4h-2.3v-6.44q0-1.37-.57-2.08-.57-.72-1.7-.72-1.44 0-2.67 1.37z" word-spacing="0" letter-spacing="0" style="line-height:125%;-inkscape-font-specification:'Gill Sans MT, Normal';text-align:start" font-family="Gill Sans MT"/><path fill="#404030" d="M440.7 168.72h2.3v16.56h-2.3v-16.56z" word-spacing="0" letter-spacing="0" style="line-height:125%;-inkscape-font-specification:'Gill Sans MT, Normal';text-align:start" font-family="Gill Sans MT"/><path fill="#404030" d="M462.07 182.7v2.18q-1.7.57-3.37.57-2.7 0-4.28-1.48-1.66-1.5-1.66-4.08t1.57-4.12q1.57-1.57 4.14-1.57.86 0 1.6.18.7.17 1.7.57v2.34q-1.7-1.07-3.13-1.07-1.57 0-2.57 1.06-1 1.02-1 2.62 0 1.62 1.1 2.62 1.05.97 2.84.97 1.36 0 3.07-.7z" word-spacing="0" letter-spacing="0" style="line-height:125%;-inkscape-font-specification:'Gill Sans MT, Normal';text-align:start" font-family="Gill Sans MT"/><path fill="#404030" d="M464.6 168.72h2.3v7.08q1.42-1.62 3.53-1.62 1.15 0 2.1.57.84.57 1.3 1.48.46.97.46 2.86v6.2H472v-6.73q0-1.2-.62-1.9-.57-.75-1.63-.75-.74 0-1.43.4-.66.37-1.43 1.2v7.82h-2.3v-16.56z" word-spacing="0" letter-spacing="0" style="line-height:125%;-inkscape-font-specification:'Gill Sans MT, Normal';text-align:start" font-family="Gill Sans MT"/><path fill="#404030" d="M484.77 178.72v4.65q0 .57.4.57t1.28-.57v1.3q-.77.47-1.26.64-.46.2-.98.2-1.5 0-1.77-1.07-1.42 1.02-3.08 1.02-1.23 0-2-.74-.85-.76-.85-1.9 0-1.03.8-1.83.8-.85 2.28-1.3l2.85-.95v-.57q0-2-2.05-2-1.86 0-3.63 1.85v-2.34q1.3-1.48 3.8-1.48 1.86 0 3 .94.37.3.68.8.3.5.37 1 .1.48.1 1.88zm-2.3 4.42v-3.25l-1.5.56q-1.14.46-1.66.9-.44.44-.44 1.15 0 .64.48 1.07.46.4 1.14.4 1.15 0 2.06-.86z" word-spacing="0" letter-spacing="0" style="line-height:125%;-inkscape-font-specification:'Gill Sans MT, Normal';text-align:start" font-family="Gill Sans MT"/><path fill="#404030" d="M490.82 174.38v1.42q1.48-1.62 3.43-1.62 1.08 0 2 .57.94.5 1.42 1.43.5.9.5 2.9v6.23h-2.3v-6.18q0-1.72-.57-2.4-.5-.74-1.77-.74-1.63 0-2.74 1.5v7.8h-2.38v-10.9h2.34z" word-spacing="0" letter-spacing="0" style="line-height:125%;-inkscape-font-specification:'Gill Sans MT, Normal';text-align:start" font-family="Gill Sans MT"/><path fill="#404030" d="M500.75 178.15q0-1.72 1.35-2.74 1.37-1.02 3.7-1.02h4.75v1.7h-2.3q.67.64.93 1.15.28.57.28 1.23 0 .86-.57 1.7-.5.87-1.3 1.27-.8.46-2.65.7-1.28.16-1.28.8 0 .4.45.64.5.3 1.72.5 2.14.44 2.74.7.63.3 1.14.7.8.78.8 2 0 1.52-1.43 2.47-1.5.9-3.95.9-2.48 0-3.94-.93-1.47-.9-1.47-2.48 0-2.22 2.9-2.85-1.13-.7-1.13-1.43 0-.48.45-.9.52-.44 1.35-.64-2.57-1.03-2.57-3.43zm4.3-1.9q-.93 0-1.58.58-.66.57-.66 1.43t.67 1.43q.62.5 1.6.5.94 0 1.6-.57.62-.57.62-1.43 0-.8-.64-1.37-.65-.57-1.62-.57zm-.53 9.55q-1.14 0-1.9.45-.72.46-.72 1.2 0 1.72 3.2 1.72 1.5 0 2.34-.46.85-.42.85-1.2 0-.73-1.06-1.22-1.06-.48-2.72-.48z" word-spacing="0" letter-spacing="0" style="line-height:125%;-inkscape-font-specification:'Gill Sans MT, Normal';text-align:start" font-family="Gill Sans MT"/><path fill="#404030" d="M522.17 180.03h-8.1q.07 1.57 1.13 2.48 1 .93 2.57.93 2.28 0 4.2-1.32v2.1q-1.03.66-2.06.94-1.02.3-2.42.3-1.9 0-3.08-.76-1.14-.74-1.88-2-.75-1.28-.75-2.94 0-2.48 1.5-4.05 1.5-1.55 3.87-1.55 2.3 0 3.7 1.54 1.33 1.5 1.33 4.04v.3zm-8.05-1.28h5.8q-.12-1.3-.87-2-.7-.7-1.94-.7-1.2 0-1.98.73-.8.7-1.03 2z" word-spacing="0" letter-spacing="0" style="line-height:125%;-inkscape-font-specification:'Gill Sans MT, Normal';text-align:start" font-family="Gill Sans MT"/><path fill="#404030" d="M532.33 168.72h2.28v16.56h-4.84q-2.57 0-4.08-1.5-1.5-1.55-1.5-4.12 0-2.4 1.58-4 1.63-1.5 4.12-1.5 1.14 0 2.48.45v-5.88zm0 14.7v-6.9q-1.06-.52-2.14-.52-1.72 0-2.78 1.06-1 1.06-1 2.86 0 1.7.86 2.57.57.56 1.14.76.57.14 2.1.14h1.78z" word-spacing="0" letter-spacing="0" style="line-height:125%;-inkscape-font-specification:'Gill Sans MT, Normal';text-align:start" font-family="Gill Sans MT"/><rect width="211.27" height="48.535" x="330.142" y="154.449" fill="none" stroke="#ddd" stroke-width="2.855" ry="4" stroke-linecap="round" stroke-linejoin="round" rx="4"/><path fill="#404030" d="M796.4 400.07q2.4 0 4 2.4 1.53 2.36 1.53 6.05 0 3.7-1.57 6.1-1.57 2.35-4.08 2.35-2.57 0-4.12-2.3-1.54-2.33-1.54-6.13 0-3.7 1.57-6.1 1.6-2.37 4.16-2.37zm0 2.28h-.12q-1.5 0-2.3 1.66-.85 1.72-.85 4.57 0 2.94.8 4.57.86 1.7 2.3 1.7 1.42 0 2.27-1.7.86-1.63.86-4.5 0-2.86-.86-4.58-.77-1.7-2.14-1.7z" word-spacing="0" letter-spacing="0" style="line-height:125%;-inkscape-font-specification:'Gill Sans MT, Normal';text-align:start" font-family="Gill Sans MT"/><path fill="#404030" d="M807.9 400.26h2.5v16.56h-2.5v-16.55z" word-spacing="0" letter-spacing="0" style="line-height:125%;-inkscape-font-specification:'Gill Sans MT, Normal';text-align:start" font-family="Gill Sans MT"/><path fill="#404030" d="M816.57 410.3h6.3v2.3h-6.3v-2.3z" word-spacing="0" letter-spacing="0" style="line-height:125%;-inkscape-font-specification:'Gill Sans MT, Normal';text-align:start" font-family="Gill Sans MT"/><path fill="#404030" d="M826.68 401.35q.57 0 .97.37t.4.9q0 .53-.4.93-.4.37-.97.37-.5 0-.94-.37-.37-.4-.37-.92 0-.48.4-.85.45-.4.97-.4zm-1.14 4.57h2.28v10.93h-2.28v-10.9z" word-spacing="0" letter-spacing="0" style="line-height:125%;-inkscape-font-specification:'Gill Sans MT, Normal';text-align:start" font-family="Gill Sans MT"/><path fill="#404030" d="M833.42 405.92v1.43q1.5-1.63 3.43-1.63 1.14 0 2.05.57.9.5 1.43 1.42.45.9.45 2.9v6.3h-2.28v-6.3q0-1.65-.57-2.36-.5-.74-1.77-.74-1.63 0-2.74 1.54v7.8h-2.34v-10.9h2.34z" word-spacing="0" letter-spacing="0" style="line-height:125%;-inkscape-font-specification:'Gill Sans MT, Normal';text-align:start" font-family="Gill Sans MT"/><path fill="#404030" d="M842.36 407.7l4.28-4v2.22h3.65v2h-3.63v5.3q0 1.86 1.65 1.86 1.26 0 2.63-.8v2q-1.3.72-2.86.72-1.6 0-2.63-.86-.35-.3-.57-.57-.2-.34-.35-.86-.14-.56-.14-2v-4.84h-2v-.23z" word-spacing="0" letter-spacing="0" style="line-height:125%;-inkscape-font-specification:'Gill Sans MT, Normal';text-align:start" font-family="Gill Sans MT"/><path fill="#404030" d="M855 405.92v2.5l.12-.2q1.65-2.56 3.3-2.56 1.32 0 2.72 1.26l-1.14 1.9q-1.23-1.05-2.28-1.05-1.06 0-1.9 1-.8 1-.8 2.37v5.7h-2.27v-10.9h2.28z" word-spacing="0" letter-spacing="0" style="line-height:125%;-inkscape-font-specification:'Gill Sans MT, Normal';text-align:start" font-family="Gill Sans MT"/><path fill="#404030" d="M867.68 405.92q2.57 0 4.34 1.6 1.7 1.6 1.7 4t-1.7 4q-1.8 1.5-4.48 1.5-2.57 0-4.34-1.57-1.72-1.6-1.72-4 0-2.36 1.72-3.93 1.77-1.6 4.45-1.6zm-.17 1.94q-1.62 0-2.68 1-1.05 1.05-1.05 2.63 0 1.56 1.08 2.55 1.1 1 2.8 1 1.7 0 2.74-1 1.08-1.02 1.08-2.56 0-1.6-1.15-2.58-1.08-1.03-2.8-1.03z" word-spacing="0" letter-spacing="0" style="line-height:125%;-inkscape-font-specification:'Gill Sans MT, Normal';text-align:start" font-family="Gill Sans MT"/><path fill="#404030" d="M876.76 414.2q.63 0 1.08.4.46.43.46 1.02 0 .58-.46 1-.43.4-1.08.4-.66 0-1.1-.4-.44-.4-.44-1 0-.57.45-1.02.43-.4 1.1-.4z" word-spacing="0" letter-spacing="0" style="line-height:125%;-inkscape-font-specification:'Gill Sans MT, Normal';text-align:start" font-family="Gill Sans MT"/><path fill="#404030" d="M881.15 400.26h2.3v7.14q1.42-1.7 3.56-1.7 1.15 0 2.06.56.86.57 1.34 1.5.46.96.46 2.87v6.22h-2.28v-6.74q0-1.18-.63-1.9-.57-.74-1.63-.74-.74 0-1.43.4-.66.37-1.43 1.23v7.8h-2.3v-16.55z" word-spacing="0" letter-spacing="0" style="line-height:125%;-inkscape-font-specification:'Gill Sans MT, Normal';text-align:start" font-family="Gill Sans MT"/><path fill="#404030" d="M892.46 407.7l4.28-4v2.22h3.66v2h-3.66v5.3q0 1.86 1.63 1.86 1.23 0 2.57-.8v2q-1.3.72-2.86.72-1.54 0-2.56-.86-.35-.3-.58-.57-.2-.34-.34-.86-.14-.56-.14-2v-4.84h-2v-.23z" word-spacing="0" letter-spacing="0" style="line-height:125%;-inkscape-font-specification:'Gill Sans MT, Normal';text-align:start" font-family="Gill Sans MT"/><path fill="#404030" d="M912.1 408.92v7.93h-2.28v-6.05q0-1.83-.52-2.57-.5-.68-1.8-.68-.7 0-1.3.28-.64.34-1.43 1.14v7.9h-2.3v-10.9h2.3v1.43q1.77-1.62 3.42-1.62 2.22 0 3.42 2 1.82-2 3.82-2 1.72 0 2.77 1.14 1.15 1.2 1.15 3.57v6.44h-2.28v-6.45q0-1.38-.63-2.1-.57-.68-1.7-.68-1.44 0-2.64 1.34z" word-spacing="0" letter-spacing="0" style="line-height:125%;-inkscape-font-specification:'Gill Sans MT, Normal';text-align:start" font-family="Gill Sans MT"/><path fill="#404030" d="M922.5 400.26h2.28v16.56h-2.28v-16.55z" word-spacing="0" letter-spacing="0" style="line-height:125%;-inkscape-font-specification:'Gill Sans MT, Normal';text-align:start" font-family="Gill Sans MT"/><path fill="#404030" d="M942.48 410.26v4.65q0 .58.4.58t1.28-.57v1.3q-.8.48-1.28.65-.46.2-.97.2-1.42 0-1.7-1.08-1.43 1.03-3.1 1.03-1.2 0-2-.75-.84-.74-.84-1.88 0-1.03.85-1.86.76-.84 2.2-1.3l2.87-.94v-.57q0-1.95-2.06-1.95-1.84 0-3.6 1.82v-2.37q1.33-1.48 3.84-1.48 1.86 0 3 .94.37.3.68.8.3.5.37 1.03.08.47.08 1.84zm-2.28 4.42v-3.22l-1.5.57q-1.13.4-1.64.85-.5.46-.5 1.15 0 .65.47 1.05.43.4 1.14.4 1.14 0 2-.85z" word-spacing="0" letter-spacing="0" style="line-height:125%;-inkscape-font-specification:'Gill Sans MT, Normal';text-align:start" font-family="Gill Sans MT"/><path fill="#404030" d="M953.9 400.26h2.28v16.56h-4.85q-2.57 0-4.08-1.5-1.52-1.55-1.52-4.12 0-2.4 1.6-3.94 1.6-1.57 4.1-1.57 1.13 0 2.5.45v-5.88zm0 14.74v-6.9q-1.06-.53-2.14-.53-1.7 0-2.7 1.06-1 1.06-1 2.86 0 1.64.84 2.55.57.58 1.15.75.57.17 2.1.17h1.72z" word-spacing="0" letter-spacing="0" style="line-height:125%;-inkscape-font-specification:'Gill Sans MT, Normal';text-align:start" font-family="Gill Sans MT"/><path fill="#404030" d="M966.8 400.26h2.3v16.56h-4.86q-2.57 0-4.12-1.5-1.5-1.55-1.5-4.12 0-2.4 1.56-3.94 1.63-1.57 4.1-1.57 1.15 0 2.52.45v-5.88zm0 14.74v-6.9q-1.08-.53-2.17-.53-1.7 0-2.7 1.06-.98 1.06-.98 2.86 0 1.64.86 2.55.58.58 1.15.75.57.17 2.1.17h1.78z" word-spacing="0" letter-spacing="0" style="line-height:125%;-inkscape-font-specification:'Gill Sans MT, Normal';text-align:start" font-family="Gill Sans MT"/><path fill="#404030" d="M982.05 411.57h-8.1q.08 1.57 1.08 2.48 1.02.95 2.65.95 2.3 0 4.17-1.35v2.1q-1.08.65-2.1.93-1.04.3-2.44.3-1.87 0-3.04-.76-1.2-.74-1.92-2-.68-1.25-.68-2.93 0-2.5 1.48-4 1.5-1.6 3.9-1.6 2.27 0 3.64 1.53 1.37 1.5 1.37 4.08v.3zM974 410.3h5.8q-.1-1.27-.86-2-.7-.67-1.9-.67-1.24 0-2 .7-.8.73-1.04 1.98z" word-spacing="0" letter-spacing="0" style="line-height:125%;-inkscape-font-specification:'Gill Sans MT, Normal';text-align:start" font-family="Gill Sans MT"/><path fill="#404030" d="M992.2 400.26h2.3v16.56h-4.86q-2.56 0-4.1-1.5-1.52-1.55-1.52-4.12 0-2.4 1.6-3.94 1.63-1.57 4.1-1.57 1.15 0 2.52.45v-5.88zm0 14.74v-6.9q-1.04-.53-2.13-.53-1.7 0-2.74 1.06-.97 1.06-.97 2.86 0 1.64.86 2.55.57.58 1.14.75.57.17 2.1.17h1.78z" word-spacing="0" letter-spacing="0" style="line-height:125%;-inkscape-font-specification:'Gill Sans MT, Normal';text-align:start" font-family="Gill Sans MT"/><rect width="211.27" height="48.535" x="786.942" y="384.277" fill="none" stroke="#ddd" stroke-width="2.855" ry="4" stroke-linecap="round" stroke-linejoin="round" rx="4"/></g></svg>
